<svg width="48" height="48" viewBox="0 0 48 48" fill="none" xmlns="http://www.w3.org/2000/svg">
<rect opacity="0.2" x="5" y="5" width="38" height="38" rx="4" fill="black"/>
<path opacity="0.4" fill-rule="evenodd" clip-rule="evenodd" d="M24 36C30.6274 36 36 30.6274 36 24C36 17.3726 30.6274 12 24 12C17.3726 12 12 17.3726 12 24C12 30.6274 17.3726 36 24 36ZM24 39C32.2843 39 39 32.2843 39 24C39 15.7157 32.2843 9 24 9C15.7157 9 9 15.7157 9 24C9 32.2843 15.7157 39 24 39Z" fill="black"/>
<path d="M23.163 33H24.9111L24.9259 31.3758C28.1333 31.1437 29.9926 29.5266 30 27.0867C29.9926 24.6891 28.0889 23.4164 25.4519 22.8539L25.0148 22.7555L25.0444 19.2398C26.0296 19.4578 26.6296 20.0555 26.7185 20.9414H29.7926C29.7556 18.6141 27.9259 16.9477 25.0741 16.6523L25.0889 15H23.3407L23.3259 16.6383C20.4296 16.9055 18.3852 18.5648 18.4 20.9625C18.3926 23.0859 19.9704 24.3023 22.5333 24.8859L23.2444 25.0547L23.2074 28.7742C22 28.5562 21.1852 27.8531 21.1037 26.6789H18C18.0741 29.5195 20.037 31.1086 23.1778 31.3687L23.163 33ZM24.9556 28.7742L24.9852 25.4906C26.1333 25.8352 26.7556 26.2781 26.763 27.0797C26.7556 27.9305 26.0741 28.5633 24.9556 28.7742ZM23.2667 22.3266C22.3407 22.0242 21.6741 21.5672 21.6889 20.7586C21.6889 20.0063 22.2519 19.4227 23.2963 19.2188L23.2667 22.3266Z" fill="black"/>
</svg>
