<svg width="48" height="48" viewBox="0 0 48 48" fill="none" xmlns="http://www.w3.org/2000/svg">
<circle opacity="0.6" cx="24" cy="24" r="18.5" stroke="black" stroke-width="3"/>
<circle opacity="0.2" cx="24" cy="24" r="20" fill="black"/>
<path d="M22.7444 37H25.3667L25.3889 34.6539C30.2 34.3187 32.9889 31.9828 33 28.4586C32.9889 24.9953 30.1333 23.157 26.1778 22.3445L25.5222 22.2023L25.5667 17.1242C27.0444 17.4391 27.9444 18.3023 28.0778 19.582H32.6889C32.6333 16.2203 29.8889 13.8133 25.6111 13.3867L25.6333 11H23.0111L22.9889 13.3664C18.6444 13.7523 15.5778 16.1492 15.6 19.6125C15.5889 22.6797 17.9556 24.4367 21.8 25.2797L22.8667 25.5234L22.8111 30.8961C21 30.5812 19.7778 29.5656 19.6556 27.8695H15C15.1111 31.9727 18.0556 34.268 22.7667 34.6437L22.7444 37ZM25.4333 30.8961L25.4778 26.1531C27.2 26.6508 28.1333 27.2906 28.1444 28.4484C28.1333 29.6773 27.1111 30.5914 25.4333 30.8961ZM22.9 21.5828C21.5111 21.1461 20.5111 20.4859 20.5333 19.318C20.5333 18.2313 21.3778 17.3883 22.9444 17.0938L22.9 21.5828Z" fill="black"/>
</svg>
