<svg width="48" height="48" viewBox="0 0 48 48" fill="none" xmlns="http://www.w3.org/2000/svg">
<g id="biz-money/job">
<path id="Subtract" opacity="0.6" d="M19.4362 19L29 28.5638L12.1756 45.3881C10.0265 47.5373 6.54202 47.5373 4.39286 45.3881L2.61187 43.6071C0.462711 41.458 0.462711 37.9735 2.61187 35.8244L19.4362 19Z" fill="black"/>
<path id="Subtract_2" d="M29.2918 1.396C30.1114 1.396 30.5212 1.396 30.9496 1.61476C31.7431 2.01992 32.217 3.16099 31.9439 4.00906C31.7964 4.46696 31.3874 4.87738 30.5695 5.69822C28.3969 7.87843 26.3306 10.2132 24.2004 12.3434C21.3337 15.2101 21.3337 19.858 24.2004 22.7248C27.0672 25.5915 31.715 25.5915 34.5818 22.7248C36.5827 20.7239 38.8568 18.7731 40.9646 16.7117C42.4152 15.293 43.1405 14.5837 43.8931 14.5433C44.4534 14.5133 45.1324 14.799 45.5027 15.2206C46.0001 15.7868 46.0001 16.5593 46.0001 18.1043C46.0001 27.332 38.5195 34.8126 29.2918 34.8126C20.0641 34.8126 12.5835 27.332 12.5835 18.1043C12.5835 8.87655 20.0641 1.396 29.2918 1.396Z" fill="black"/>
</g>
</svg>
