<svg width="48" height="48" viewBox="0 0 48 48" fill="none" xmlns="http://www.w3.org/2000/svg">
<g id="biz-money/money-simple">
<rect id="Rectangle 37" opacity="0.2" x="5" y="5" width="38" height="38" rx="4" fill="black"/>
<g id="Vector" opacity="0.2">
<path d="M28 24C28 26.2091 26.2091 28 24 28C21.7909 28 20 26.2091 20 24C20 21.7909 21.7909 20 24 20C26.2091 20 28 21.7909 28 24Z" fill="black"/>
<path d="M35 24C35 25.1046 34.1046 26 33 26C31.8954 26 31 25.1046 31 24C31 22.8954 31.8954 22 33 22C34.1046 22 35 22.8954 35 24Z" fill="black"/>
<path d="M17 24C17 25.1046 16.1046 26 15 26C13.8954 26 13 25.1046 13 24C13 22.8954 13.8954 22 15 22C16.1046 22 17 22.8954 17 24Z" fill="black"/>
</g>
<path id="Subtract" fill-rule="evenodd" clip-rule="evenodd" d="M11.1716 17.1716C10 18.3431 10 20.2288 10 24C10 27.7712 10 29.6569 11.1716 30.8284C12.3431 32 14.2288 32 18 32H30C33.7712 32 35.6569 32 36.8284 30.8284C38 29.6569 38 27.7712 38 24C38 20.2288 38 18.3431 36.8284 17.1716C35.6569 16 33.7712 16 30 16H18C14.2288 16 12.3431 16 11.1716 17.1716ZM28 24C28 26.2091 26.2091 28 24 28C21.7909 28 20 26.2091 20 24C20 21.7909 21.7909 20 24 20C26.2091 20 28 21.7909 28 24ZM35 24C35 25.1046 34.1046 26 33 26C31.8954 26 31 25.1046 31 24C31 22.8954 31.8954 22 33 22C34.1046 22 35 22.8954 35 24ZM15 26C16.1046 26 17 25.1046 17 24C17 22.8954 16.1046 22 15 22C13.8954 22 13 22.8954 13 24C13 25.1046 13.8954 26 15 26Z" fill="black"/>
</g>
</svg>
