<svg width="48" height="48" viewBox="0 0 48 48" fill="none" xmlns="http://www.w3.org/2000/svg">
<path opacity="0.2" d="M6 23H42V42C42 42.5523 41.5523 43 41 43H7C6.44772 43 6 42.5523 6 42V23Z" fill="black"/>
<path fill-rule="evenodd" clip-rule="evenodd" d="M41 8H6.99996L2.75417 22.4357C2.37742 23.7166 3.33769 25 4.6729 25H42.4748C43.7645 25 44.717 23.7973 44.4216 22.5419L43.8235 20H3.47066L4.35301 17H43.1176L42.4117 14H5.23537L6.11772 11H41.7058L41 8Z" fill="black"/>
<path opacity="0.8" fill-rule="evenodd" clip-rule="evenodd" d="M5.23541 14L6.11776 11H41.706L42.4119 14H5.23541ZM3.4707 20L4.35306 17H43.1178L43.8236 20H3.4707Z" fill="black"/>
<path opacity="0.6" d="M7 6C7 5.44772 7.44772 5 8 5H40C40.5523 5 41 5.44772 41 6V8H7V6Z" fill="black"/>
<path opacity="0.4" fill-rule="evenodd" clip-rule="evenodd" d="M14.1201 30C13.5678 30 13.1201 30.4477 13.1201 31V43H23V30H14.1201ZM21.5 35C21.2239 35 21 35.2239 21 35.5V38.5C21 38.7761 21.2239 39 21.5 39C21.7761 39 22 38.7761 22 38.5V35.5C22 35.2239 21.7761 35 21.5 35Z" fill="black"/>
<path opacity="0.4" fill-rule="evenodd" clip-rule="evenodd" d="M34 30C34.5523 30 35 30.4477 35 31V43H25V30H34ZM26.5 35C26.2239 35 26 35.2239 26 35.5V38.5C26 38.7761 26.2239 39 26.5 39C26.7761 39 27 38.7761 27 38.5V35.5C27 35.2239 26.7761 35 26.5 35Z" fill="black"/>
</svg>
