<svg width="48" height="48" viewBox="0 0 48 48" fill="none" xmlns="http://www.w3.org/2000/svg">
<path opacity="0.2" d="M42.9474 0H5.05263C2.26214 0 0 2.26214 0 5.05263V42.9474C0 45.7379 2.26214 48 5.05263 48H42.9474C45.7379 48 48 45.7379 48 42.9474V5.05263C48 2.26214 45.7379 0 42.9474 0Z" fill="#9FA4A9"/>
<mask id="mask0_212:12" style="mask-type:alpha" maskUnits="userSpaceOnUse" x="0" y="0" width="48" height="48">
<path d="M42.9474 0H5.05263C2.26214 0 0 2.26214 0 5.05263V42.9474C0 45.7379 2.26214 48 5.05263 48H42.9474C45.7379 48 48 45.7379 48 42.9474V5.05263C48 2.26214 45.7379 0 42.9474 0Z" fill="#66AADA"/>
</mask>
<g mask="url(#mask0_212:12)">
<path fill-rule="evenodd" clip-rule="evenodd" d="M21.3206 10.2584C22.8005 8.77846 25.1998 8.77846 26.6797 10.2584L40.4212 23.9998V39.1577C40.4212 39.8553 39.8557 40.4209 39.1581 40.4209H22.6985C22.0008 40.4209 21.4353 39.8553 21.4353 39.1577V31.5787C21.4353 30.8812 20.8698 30.3156 20.1722 30.3156H15.158C14.4604 30.3156 13.8949 30.8812 13.8949 31.5787V39.1577C13.8949 39.8553 13.3294 40.4208 12.6317 40.4208H8.84226C8.14462 40.4208 7.5791 39.8553 7.5791 39.1577V23.9998L21.3206 10.2584ZM29.0528 30.3156C28.3551 30.3156 27.7896 30.8812 27.7896 31.5787V35.3682C27.7896 36.0658 28.3551 36.6313 29.0528 36.6313H32.8423C33.5399 36.6313 34.1054 36.0658 34.1054 35.3682V31.5787C34.1054 30.8812 33.5399 30.3156 32.8423 30.3156H29.0528Z" fill="#9FA4A9"/>
<path opacity="0.6" fill-rule="evenodd" clip-rule="evenodd" d="M20.9833 5.54244C22.6493 3.87648 25.3505 3.87648 27.0164 5.54244L42.9473 21.4733C43.6449 22.171 43.6449 23.302 42.9473 23.9996C42.2496 24.6973 41.1186 24.6973 40.4209 23.9996L26.6394 10.2181C25.1816 8.76026 22.8182 8.76026 21.3604 10.2181L7.57883 23.9996C6.88119 24.6973 5.75013 24.6973 5.05251 23.9996C4.3549 23.302 4.35488 22.171 5.05251 21.4733L20.9833 5.54244Z" fill="#9FA4A9"/>
</g>
</svg>
