<svg width="48" height="48" viewBox="0 0 48 48" fill="none" xmlns="http://www.w3.org/2000/svg">
<g id="time/sunrise-time-simple">
<rect id="Rectangle 37" opacity="0.2" x="5" y="5" width="38" height="38" rx="4" fill="black"/>
<path id="Intersect" opacity="0.2" fill-rule="evenodd" clip-rule="evenodd" d="M32.0002 43C32.0002 38.5817 28.4185 35 24.0002 35C23.9716 35 23.943 35.0002 23.9144 35.0005C23.8858 35.0002 23.8572 35 23.8286 35C19.4103 35 15.8286 38.5817 15.8286 43H32.0002Z" fill="black"/>
<path id="Intersect_2" fill-rule="evenodd" clip-rule="evenodd" d="M41.9296 41.7222L37.6673 38.1078C37.4276 37.9046 37.2974 37.6006 37.3157 37.2869L37.6786 31.0698C37.7133 30.4748 37.2232 29.9817 36.628 30.0129L29.9385 30.3632C29.6456 30.3785 29.3608 30.2645 29.1594 30.0514L24.6813 25.3131C24.2868 24.8956 23.6224 24.8956 23.2278 25.3131L18.7497 30.0514C18.5483 30.2645 18.2635 30.3785 17.9706 30.3632L11.2811 30.0129C10.6859 29.9817 10.1958 30.4748 10.2305 31.0698L10.5934 37.2869C10.6117 37.6006 10.4815 37.9046 10.2418 38.1078L6.03125 41.6784C6.07603 41.7297 6.12275 41.7797 6.17151 41.8284C7.34308 43 9.2287 43 12.9999 43H15.9999C15.9999 38.5817 19.5817 35 23.9999 35C28.4182 35 31.9999 38.5817 31.9999 43H34.9999C38.7712 43 40.6568 43 41.8284 41.8284C41.8631 41.7937 41.8968 41.7583 41.9296 41.7222Z" fill="black"/>
<path id="Subtract" fill-rule="evenodd" clip-rule="evenodd" d="M25.0607 7.93934C24.7794 7.65804 24.3978 7.5 24 7.5C23.6022 7.5 23.2206 7.65804 22.9393 7.93934L18.4393 12.4393C17.8536 13.0251 17.8536 13.9749 18.4393 14.5607C19.0251 15.1464 19.9749 15.1464 20.5607 14.5607L22.5 12.6213V21C22.5 21.8284 23.1716 22.5 24 22.5C24.8284 22.5 25.5 21.8284 25.5 21V12.6213L27.4393 14.5607C28.0251 15.1464 28.9749 15.1464 29.5607 14.5607C30.1464 13.9749 30.1464 13.0251 29.5607 12.4393L25.0607 7.93934Z" fill="black"/>
</g>
</svg>
