<svg width="48" height="48" viewBox="0 0 48 48" fill="none" xmlns="http://www.w3.org/2000/svg">
<g id="misc/home-house-simple">
<rect id="Rectangle 39" opacity="0.2" x="5" y="5" width="38" height="38" rx="4" fill="black"/>
<mask id="mask0_37:1036" style="mask-type:alpha" maskUnits="userSpaceOnUse" x="5" y="5" width="38" height="38">
<rect id="Rectangle 38" x="5" y="5" width="38" height="38" rx="4" fill="#66AADA"/>
</mask>
<g mask="url(#mask0_37:1036)">
<path id="Subtract" fill-rule="evenodd" clip-rule="evenodd" d="M21.8787 13.1212C23.0503 11.9496 24.9497 11.9496 26.1213 13.1212L37 23.9999V35.9999C37 36.5521 36.5523 36.9999 36 36.9999H22.9695C22.4172 36.9999 21.9695 36.5521 21.9695 35.9999V29.9999C21.9695 29.4476 21.5218 28.9999 20.9695 28.9999H17C16.4477 28.9999 16 29.4476 16 29.9999V35.9999C16 36.5521 15.5523 36.9999 15 36.9999L12 36.9999C11.4477 36.9999 11 36.5521 11 35.9999V23.9999L21.8787 13.1212ZM28 28.9999C27.4477 28.9999 27 29.4476 27 29.9999V32.9999C27 33.5521 27.4477 33.9999 28 33.9999H31C31.5523 33.9999 32 33.5521 32 32.9999V29.9999C32 29.4476 31.5523 28.9999 31 28.9999H28Z" fill="black"/>
<path id="Vector 37 (Stroke)" opacity="0.6" fill-rule="evenodd" clip-rule="evenodd" d="M21.6119 9.38806C22.9308 8.06917 25.0692 8.06917 26.3881 9.38806L39 22C39.5523 22.5523 39.5523 23.4477 39 24C38.4477 24.5523 37.5523 24.5523 37 24L26.0896 13.0896C24.9355 11.9355 23.0645 11.9355 21.9104 13.0896L11 24C10.4477 24.5523 9.55228 24.5523 9 24C8.44772 23.4477 8.44771 22.5523 9 22L21.6119 9.38806Z" fill="black"/>
</g>
</g>
</svg>
