<svg width="48" height="48" viewBox="0 0 48 48" fill="none" xmlns="http://www.w3.org/2000/svg">
<g id="misc/shop-basket">
<g id="Vector" opacity="0.2">
<path d="M22.4131 22.8824C22.4131 21.8428 23.1406 21 24.0381 21C24.9355 21 25.6631 21.8428 25.6631 22.8824V35.1176C25.6631 36.1572 24.9355 37 24.0381 37C23.1406 37 22.4131 36.1572 22.4131 35.1176V22.8824Z" fill="black"/>
<path d="M28.1006 22.8824C28.1006 21.8428 28.8281 21 29.7256 21C30.623 21 31.3506 21.8428 31.3506 22.8824V35.1176C31.3506 36.1572 30.623 37 29.7256 37C28.8281 37 28.1006 36.1572 28.1006 35.1176V22.8824Z" fill="black"/>
<path d="M33.7881 22.8824C33.7881 21.8428 34.5156 21 35.4131 21C36.3105 21 37.0381 21.8428 37.0381 22.8824V35.1176C37.0381 36.1572 36.3105 37 35.4131 37C34.5156 37 33.7881 36.1572 33.7881 35.1176V22.8824Z" fill="black"/>
<path d="M16.7256 22.8824C16.7256 21.8428 17.4531 21 18.3506 21C19.248 21 19.9756 21.8428 19.9756 22.8824V35.1176C19.9756 36.1572 19.248 37 18.3506 37C17.4531 37 16.7256 36.1572 16.7256 35.1176V22.8824Z" fill="black"/>
<path d="M11.0381 22.8824C11.0381 21.8428 11.7656 21 12.6631 21C13.5605 21 14.2881 21.8428 14.2881 22.8824V35.1176C14.2881 36.1572 13.5605 37 12.6631 37C11.7656 37 11.0381 36.1572 11.0381 35.1176V22.8824Z" fill="black"/>
</g>
<path id="Subtract" fill-rule="evenodd" clip-rule="evenodd" d="M2.43177 16.6707C1.83514 17.3414 1.95728 18.3829 2.20156 20.4659L3.89806 34.9318C4.29253 38.2954 4.48977 39.9772 5.62669 40.9886C6.76362 42 8.45695 42 11.8436 42H36.2331C39.6198 42 41.3131 42 42.45 40.9886C43.587 39.9772 43.7842 38.2954 44.1787 34.9318L45.8752 20.4659C46.1195 18.3829 46.2416 17.3414 45.645 16.6707C45.0483 16 43.9997 16 41.9024 16H6.17434C4.07705 16 3.02841 16 2.43177 16.6707ZM12.6633 21C11.7659 21 11.0383 21.8428 11.0383 22.8824V35.1176C11.0383 36.1572 11.7659 37 12.6633 37C13.5608 37 14.2883 36.1572 14.2883 35.1176V22.8824C14.2883 21.8428 13.5608 21 12.6633 21ZM16.7258 22.8824C16.7258 21.8428 17.4534 21 18.3508 21C19.2483 21 19.9758 21.8428 19.9758 22.8824V35.1176C19.9758 36.1572 19.2483 37 18.3508 37C17.4534 37 16.7258 36.1572 16.7258 35.1176V22.8824ZM22.4133 22.8824C22.4133 21.8428 23.1409 21 24.0383 21C24.9358 21 25.6633 21.8428 25.6633 22.8824V35.1176C25.6633 36.1572 24.9358 37 24.0383 37C23.1409 37 22.4133 36.1572 22.4133 35.1176V22.8824ZM28.1008 22.8824C28.1008 21.8428 28.8284 21 29.7258 21C30.6233 21 31.3508 21.8428 31.3508 22.8824V35.1176C31.3508 36.1572 30.6233 37 29.7258 37C28.8284 37 28.1008 36.1572 28.1008 35.1176V22.8824ZM35.4133 21C34.5159 21 33.7883 21.8428 33.7883 22.8824V35.1176C33.7883 36.1572 34.5159 37 35.4133 37C36.3108 37 37.0383 36.1572 37.0383 35.1176V22.8824C37.0383 21.8428 36.3108 21 35.4133 21Z" fill="black"/>
<path id="Ellipse 36" d="M35.0381 16C35.0381 14.5555 34.7536 13.1251 34.2008 11.7905C33.648 10.4559 32.8377 9.24327 31.8163 8.22183C30.7948 7.20038 29.5822 6.39013 28.2476 5.83732C26.913 5.28452 25.4826 5 24.0381 5C22.5935 5 21.1631 5.28452 19.8286 5.83733C18.494 6.39013 17.2814 7.20038 16.2599 8.22183C15.2385 9.24327 14.4282 10.4559 13.8754 11.7905C13.3226 13.1251 13.0381 14.5555 13.0381 16H17.034C17.034 15.0802 17.2152 14.1694 17.5672 13.3197C17.9192 12.4699 18.4351 11.6978 19.0855 11.0474C19.7359 10.397 20.508 9.8811 21.3578 9.52911C22.2075 9.17713 23.1183 8.99596 24.0381 8.99596C24.9579 8.99596 25.8686 9.17713 26.7184 9.52911C27.5682 9.8811 28.3403 10.397 28.9907 11.0474C29.6411 11.6978 30.157 12.4699 30.509 13.3197C30.861 14.1694 31.0421 15.0802 31.0421 16H35.0381Z" fill="black"/>
<path id="Subtract_2" opacity="0.2" fill-rule="evenodd" clip-rule="evenodd" d="M34.2009 11.7905C34.7537 13.1251 35.0382 14.5555 35.0382 16H37.0382C37.0382 14.5555 36.7537 13.1251 36.2009 11.7905C35.6481 10.4559 34.8378 9.24327 33.8164 8.22183C32.7949 7.20038 31.5823 6.39013 30.2477 5.83732C28.9132 5.28452 27.4828 5 26.0382 5C25.7038 5 25.3701 5.01525 25.0382 5.04555C26.1399 5.14612 27.2221 5.4125 28.2477 5.83732C29.5823 6.39013 30.7949 7.20038 31.8164 8.22183C32.8378 9.24327 33.6481 10.4559 34.2009 11.7905ZM25.0382 9.06772C24.4624 9.15079 23.8978 9.30547 23.3579 9.52911C22.5081 9.8811 21.736 10.397 21.0856 11.0474C20.4352 11.6978 19.9193 12.4699 19.5673 13.3197C19.2153 14.1694 19.0342 15.0802 19.0342 16H17.0342C17.0342 15.0802 17.2153 14.1694 17.5673 13.3197C17.9193 12.4699 18.4352 11.6978 19.0856 11.0474C19.736 10.397 20.5081 9.8811 21.3579 9.52911C22.2077 9.17713 23.1184 8.99596 24.0382 8.99596C24.3736 8.99596 24.7078 9.02005 25.0382 9.06772Z" fill="black"/>
</g>
</svg>
