<svg xmlns="http://www.w3.org/2000/svg" width="48" height="48" fill="none" viewBox="0 0 48 48">
  <path fill="#000" fill-rule="evenodd" d="M15.414 7.765H41a2 2 0 012 2V22a2 2 0 01-2 2h-4.276a2 2 0 01-2-2v-5.118a1 1 0 00-1-1h-18.31v4.566c0 .859-1.01 1.318-1.657.754l-9.893-8.625a1 1 0 010-1.507l9.893-8.625c.647-.564 1.657-.105 1.657.754v4.566z" clip-rule="evenodd"/>
  <path fill="#000" fill-rule="evenodd" d="M32.586 40.235H7a2 2 0 01-2-2V26a2 2 0 012-2h4.276a2 2 0 012 2v5.118a1 1 0 001 1h18.31v-4.566c0-.859 1.01-1.318 1.657-.754l9.892 8.625a1 1 0 010 1.507l-9.892 8.625c-.647.564-1.657.105-1.657-.754v-4.566z" clip-rule="evenodd" opacity=".6"/>
  <path fill="#000" fill-rule="evenodd" d="M32.586 40.235H7a2 2 0 01-2-2V26a2 2 0 012-2h4.276a2 2 0 012 2v5.118a1 1 0 001 1h18.31v-4.566c0-.859 1.01-1.318 1.657-.754l9.892 8.625a1 1 0 010 1.507l-9.892 8.625c-.647.564-1.657.105-1.657-.754v-4.566z" clip-rule="evenodd" opacity=".2"/>
</svg>
