<svg width="48" height="48" viewBox="0 0 48 48" fill="none" xmlns="http://www.w3.org/2000/svg">
<rect opacity="0.2" x="5" y="5" width="38" height="38" rx="4" fill="black"/>
<path fill-rule="evenodd" clip-rule="evenodd" d="M23.1213 34.1213C21.9497 35.2929 20.0503 35.2929 18.8787 34.1213L10.8787 26.1213C9.70711 24.9498 9.70711 23.0503 10.8787 21.8787L18.8787 13.8787C20.0503 12.7071 21.9497 12.7071 23.1213 13.8787C24.2929 15.0503 24.2929 16.9497 23.1213 18.1213L20.2426 21L35 21C36.6569 21 38 22.3431 38 24C38 25.6569 36.6569 27 35 27L20.2426 27L23.1213 29.8787C24.2929 31.0503 24.2929 32.9497 23.1213 34.1213Z" fill="black"/>
</svg>
