<svg xmlns="http://www.w3.org/2000/svg" width="48" height="48" fill="none" viewBox="0 0 48 48">
  <g clip-path="url(#clip0_37:595)">
    <path fill="#000" d="M40.112 33.062a2 2 0 010 2.829l-4.242 4.242a2 2 0 01-2.829 0l-16.97-16.97a2 2 0 010-2.829l4.242-4.242a2 2 0 012.829 0l16.97 16.97z" opacity=".8"/>
    <path fill="#000" d="M33.163 9.728H11.707a2 2 0 00-2 2v21.456a2 2 0 002 2h5.9a2 2 0 002-2V21.628a2 2 0 012-2h11.556a2 2 0 002-2v-5.9a2 2 0 00-2-2z"/>
  </g>
  <defs>
    <clipPath id="clip0_37:595">
      <path fill="#fff" d="M0 0h48v48H0z"/>
    </clipPath>
  </defs>
</svg>
