<svg width="48" height="48" viewBox="0 0 48 48" fill="none" xmlns="http://www.w3.org/2000/svg">
<rect opacity="0.2" x="5" y="5" width="38" height="38" rx="4" fill="black"/>
<path fill-rule="evenodd" clip-rule="evenodd" d="M13.8787 23.1213C12.7071 21.9497 12.7071 20.0503 13.8787 18.8787L21.8787 10.8787C23.0503 9.70711 24.9497 9.70711 26.1213 10.8787L34.1213 18.8787C35.2929 20.0503 35.2929 21.9497 34.1213 23.1213C32.9497 24.2929 31.0503 24.2929 29.8787 23.1213L27 20.2426L27 35C27 36.6569 25.6569 38 24 38C22.3431 38 21 36.6569 21 35L21 20.2426L18.1213 23.1213C16.9497 24.2929 15.0503 24.2929 13.8787 23.1213Z" fill="black"/>
</svg>
