<svg width="48" height="48" viewBox="0 0 48 48" fill="none" xmlns="http://www.w3.org/2000/svg">
<rect opacity="0.2" x="5" y="5" width="38" height="38" rx="4" fill="black"/>
<path fill-rule="evenodd" clip-rule="evenodd" d="M17.8999 16.6569C17.8999 15 19.2431 13.6569 20.8999 13.6569L32.2137 13.6569C33.8705 13.6569 35.2137 15 35.2137 16.6569V27.9706C35.2137 29.6275 33.8705 30.9706 32.2137 30.9706C30.5568 30.9706 29.2137 29.6275 29.2137 27.9706V23.8995L18.7786 34.3346C17.6071 35.5061 15.7076 35.5061 14.536 34.3346C13.3644 33.163 13.3644 31.2635 14.536 30.0919L24.971 19.6569L20.8999 19.6569C19.2431 19.6569 17.8999 18.3138 17.8999 16.6569Z" fill="black"/>
</svg>
