<svg width="48" height="48" viewBox="0 0 48 48" fill="none" xmlns="http://www.w3.org/2000/svg">
<rect opacity="0.2" x="5" y="5" width="38" height="38" rx="4" fill="black"/>
<path fill-rule="evenodd" clip-rule="evenodd" d="M32.213 17.8995C33.8698 17.8995 35.213 19.2426 35.213 20.8995L35.213 32.2132C35.213 33.87 33.8698 35.2132 32.213 35.2132H20.8993C19.2424 35.2132 17.8993 33.87 17.8993 32.2132C17.8993 30.5563 19.2424 29.2132 20.8993 29.2132H24.9703L14.5353 18.7781C13.3637 17.6066 13.3637 15.7071 14.5353 14.5355C15.7069 13.3639 17.6064 13.3639 18.7779 14.5355L29.213 24.9705L29.213 20.8995C29.213 19.2426 30.5561 17.8995 32.213 17.8995Z" fill="black"/>
</svg>
