<svg width="48" height="48" viewBox="0 0 48 48" fill="none" xmlns="http://www.w3.org/2000/svg">
<rect opacity="0.2" x="5" y="5" width="38" height="38" rx="4" fill="black"/>
<path fill-rule="evenodd" clip-rule="evenodd" d="M24.8787 13.8787C26.0503 12.7071 27.9497 12.7071 29.1213 13.8787L37.1213 21.8787C38.2929 23.0503 38.2929 24.9497 37.1213 26.1213L29.1213 34.1213C27.9497 35.2929 26.0503 35.2929 24.8787 34.1213C23.7071 32.9497 23.7071 31.0503 24.8787 29.8787L27.7574 27H13C11.3431 27 10 25.6569 10 24C10 22.3431 11.3431 21 13 21H27.7574L24.8787 18.1213C23.7071 16.9497 23.7071 15.0503 24.8787 13.8787Z" fill="black"/>
</svg>
