<svg xmlns="http://www.w3.org/2000/svg" width="48" height="48" fill="none" viewBox="0 0 48 48">
  <rect width="38" height="38" x="5" y="5" fill="#000" opacity=".2" rx="4"/>
  <mask id="a" width="38" height="38" x="5" y="5" maskUnits="userSpaceOnUse" style="mask-type:alpha">
    <rect width="38" height="38" x="5" y="5" fill="#9FA4A9" rx="4"/>
  </mask>
  <g mask="url(#a)">
    <circle cx="32.334" cy="16.021" r="2" fill="#000" opacity=".2" transform="rotate(45 32.334 16.02)"/>
    <path fill="#000" fill-rule="evenodd" d="M25.506 11.778a4 4 0 00-2.829 1.172L10.414 25.213a2 2 0 000 2.829l9.9 9.9a2 2 0 002.828 0l12.263-12.264a4 4 0 001.172-2.829v-9.07a2 2 0 00-2-2h-9.071zm5.414 2.829a2 2 0 102.828 2.828 2 2 0 00-2.828-2.828z" clip-rule="evenodd"/>
  </g>
</svg>
