<svg xmlns="http://www.w3.org/2000/svg" width="48" height="48" fill="none" viewBox="0 0 48 48">
  <rect width="38" height="38" x="5" y="5" fill="#000" opacity=".2" rx="4"/>
  <path fill="#000" d="M15.193 32.818h1.676l.014-1.64c3.076-.235 4.858-1.868 4.865-4.333-.007-2.422-1.832-3.707-4.36-4.275l-.42-.1.029-3.551c.945.22 1.52.824 1.605 1.719h2.947c-.035-2.351-1.79-4.034-4.524-4.333l.015-1.669h-1.676l-.015 1.655c-2.777.27-4.737 1.946-4.723 4.368-.007 2.145 1.506 3.374 3.963 3.963l.682.17-.035 3.758c-1.158-.22-1.94-.93-2.017-2.117h-2.976c.07 2.87 1.953 4.475 4.964 4.738l-.014 1.647zm1.719-4.268l.028-3.317c1.101.348 1.698.795 1.705 1.605-.007.86-.66 1.499-1.733 1.712zm-1.62-6.513c-.887-.305-1.527-.767-1.512-1.584 0-.76.54-1.35 1.54-1.555l-.028 3.139z"/>
  <rect width="15" height="4" x="24" y="11" fill="#000" opacity=".6" rx="2"/>
  <rect width="15" height="4" x="24" y="32" fill="#000" opacity=".6" rx="2"/>
  <rect width="13" height="4" x="26" y="18" fill="#000" opacity=".6" rx="2"/>
  <rect width="13" height="4" x="26" y="25" fill="#000" opacity=".6" rx="2"/>
</svg>
