<svg xmlns="http://www.w3.org/2000/svg" width="48" height="48" fill="none" viewBox="0 0 48 48">
  <rect width="38" height="38" x="5" y="5" fill="#000" opacity=".2" rx="4"/>
  <mask id="a" width="38" height="38" x="5" y="5" maskUnits="userSpaceOnUse" style="mask-type:alpha">
    <rect width="38" height="38" x="5" y="5" fill="#66AADA" rx="4"/>
  </mask>
  <g mask="url(#a)">
    <path fill="#000" fill-rule="evenodd" d="M10.344 10.048c-.344.3-.344.934-.344 2.203V35c0 1.886 0 2.828.586 3.414C11.172 39 12.114 39 14 39h20c1.886 0 2.828 0 3.414-.586C38 37.828 38 36.886 38 35V12.25c0-1.268 0-1.903-.344-2.202a1 1 0 00-.363-.202c-.436-.133-.974.203-2.05.875-.825.514-1.238.771-1.69.821a2.008 2.008 0 01-.439 0c-.453-.05-.865-.307-1.69-.821l-.64-.4c-1.03-.642-1.545-.964-2.117-.964-.573 0-1.088.322-2.118.964l-.432.27c-1.03.642-1.544.963-2.117.963s-1.088-.32-2.117-.963l-.432-.27c-1.03-.642-1.545-.964-2.118-.964-.572 0-1.087.322-2.117.964l-.64.4c-.825.514-1.237.771-1.69.821a2.008 2.008 0 01-.438 0c-.454-.05-.866-.307-1.69-.821-1.077-.672-1.615-1.008-2.05-.875a1 1 0 00-.364.202zM15.5 15a1.5 1.5 0 000 3h17a1.5 1.5 0 100-3h-17zm4.5 7.5a1.5 1.5 0 011.5-1.5h11a1.5 1.5 0 010 3h-11a1.5 1.5 0 01-1.5-1.5zm1.5 4.5a1.5 1.5 0 000 3h11a1.5 1.5 0 100-3h-11zM20 34.5a1.5 1.5 0 011.5-1.5h11a1.5 1.5 0 010 3h-11a1.5 1.5 0 01-1.5-1.5zM16.5 21a1.5 1.5 0 100 3 1.5 1.5 0 000-3zM15 28.5a1.5 1.5 0 113 0 1.5 1.5 0 01-3 0zm1.5 4.5a1.5 1.5 0 100 3 1.5 1.5 0 000-3z" clip-rule="evenodd"/>
  </g>
</svg>
