<svg xmlns="http://www.w3.org/2000/svg" width="48" height="48" fill="none" viewBox="0 0 48 48">
  <rect width="38" height="38" x="5" y="5" fill="#000" opacity=".2" rx="4"/>
  <g opacity=".2">
    <path fill="#000" d="M28 24a4 4 0 11-8 0 4 4 0 018 0zM35 24a2 2 0 11-4 0 2 2 0 014 0zM17 24a2 2 0 11-4 0 2 2 0 014 0z"/>
  </g>
  <path fill="#000" fill-rule="evenodd" d="M11.172 17.172C10 18.343 10 20.229 10 24c0 3.771 0 5.657 1.172 6.828C12.343 32 14.229 32 18 32h12c3.771 0 5.657 0 6.828-1.172C38 29.657 38 27.771 38 24c0-3.771 0-5.657-1.172-6.828C35.657 16 33.771 16 30 16H18c-3.771 0-5.657 0-6.828 1.172zM28 24a4 4 0 11-8 0 4 4 0 018 0zm7 0a2 2 0 11-4 0 2 2 0 014 0zm-20 2a2 2 0 100-4 2 2 0 000 4z" clip-rule="evenodd"/>
</svg>
