<svg xmlns="http://www.w3.org/2000/svg" width="48" height="48" fill="none" viewBox="0 0 48 48">
  <path fill="#000" fill-rule="evenodd" d="M6.172 13.172C5 14.343 5 16.229 5 20v12c0 3.771 0 5.657 1.172 6.828C7.343 40 9.229 40 13 40h22c3.771 0 5.657 0 6.828-1.172C43 37.657 43 35.771 43 32V20c0-3.771 0-5.657-1.172-6.828C40.657 12 38.771 12 35 12H13c-3.771 0-5.657 0-6.828 1.172zM13 23.5a1.5 1.5 0 11-3 0 1.5 1.5 0 013 0zm25 0a1.5 1.5 0 11-3 0 1.5 1.5 0 013 0zM23 24a1 1 0 00-1 1v4a1 1 0 001 1h2a1 1 0 001-1v-4a1 1 0 00-1-1h-2z" clip-rule="evenodd" opacity=".8"/>
  <g opacity=".4">
    <path fill="#000" d="M13 23.5a1.5 1.5 0 11-3 0 1.5 1.5 0 013 0zM38 23.5a1.5 1.5 0 11-3 0 1.5 1.5 0 013 0z"/>
  </g>
  <path fill="#000" fill-rule="evenodd" d="M5.908 13.462C5 14.57 5 16.212 5 19.5c0 3.288 0 4.931.908 6.038a4 4 0 00.554.554C7.57 27 9.212 27 12.5 27H22v-2a1 1 0 011-1h2a1 1 0 011 1v2h9.5c3.288 0 4.931 0 6.038-.908.202-.166.388-.352.554-.554C43 24.43 43 22.788 43 19.5c0-3.288 0-4.931-.908-6.038a4.001 4.001 0 00-.554-.554C40.43 12 38.788 12 35.5 12h-23c-3.287 0-4.931 0-6.038.908a4 4 0 00-.554.554zM13 23.5a1.5 1.5 0 11-3 0 1.5 1.5 0 013 0zm25 0a1.5 1.5 0 11-3 0 1.5 1.5 0 013 0z" clip-rule="evenodd"/>
  <rect width="4" height="6" x="22" y="24" fill="#000" opacity=".2" rx="1"/>
  <g opacity=".8">
    <mask id="a" fill="#fff">
      <rect width="16" height="8" x="16" y="7" rx="2"/>
    </mask>
    <rect width="16" height="8" x="16" y="7" stroke="#000" stroke-width="6" mask="url(#a)" rx="2"/>
  </g>
</svg>
