<svg xmlns="http://www.w3.org/2000/svg" width="48" height="48" fill="none" viewBox="0 0 48 48">
  <rect width="22" height="38" x="21" y="5" fill="#000" opacity=".2" rx="4"/>
  <path fill="#000" fill-rule="evenodd" d="M43 13c0-3.771 0-5.657-1.172-6.828C40.657 5 38.771 5 35 5h-6c-3.771 0-5.657 0-6.828 1.172C21 7.343 21 9.229 21 13h22zM21 28v-8h22v8H21zm8 15h6c3.771 0 5.657 0 6.828-1.172C43 40.657 43 38.771 43 35H21c0 3.771 0 5.657 1.172 6.828C23.343 43 25.229 43 29 43z" clip-rule="evenodd" opacity=".2"/>
  <path fill="#000" d="M18.047 46h4.079l.034-3.97c7.484-.568 11.823-4.52 11.84-10.485-.017-5.86-4.46-8.972-10.612-10.347l-1.02-.24.069-8.594c2.299.533 3.699 1.994 3.906 4.16h7.173c-.086-5.69-4.355-9.763-11.01-10.485L22.541 2h-4.08l-.034 4.005c-6.758.653-11.528 4.71-11.494 10.57-.017 5.19 3.665 8.164 9.645 9.59l1.659.413-.086 9.092c-2.818-.532-4.719-2.251-4.909-5.122H6c.173 6.944 4.753 10.829 12.081 11.465L18.047 46zm4.183-10.33l.069-8.026c2.679.842 4.13 1.925 4.148 3.884-.017 2.08-1.607 3.627-4.217 4.142zm-3.941-15.76c-2.16-.74-3.716-1.857-3.682-3.833 0-1.84 1.314-3.266 3.751-3.765l-.07 7.597z"/>
</svg>
