<svg width="48" height="48" viewBox="0 0 48 48" fill="none" xmlns="http://www.w3.org/2000/svg">
<rect opacity="0.2" x="5" y="5" width="38" height="38" rx="4" fill="black"/>
<path fill-rule="evenodd" clip-rule="evenodd" d="M27.2308 10C26.6153 10 26.0311 10.1504 25.5057 10.4202C25.0522 10.1473 24.5334 10 24 10V11.7332V16.2222V37.6507C24.4197 37.8747 24.8891 38 25.3846 38C26.3078 38 27.1405 37.565 27.7293 36.8675C28.016 36.9301 28.3123 36.963 28.6154 36.963C31.0021 36.963 32.9657 34.9276 33.2061 32.3176C34.9016 30.9 36 28.6311 36 26.0741C36 24.4756 35.5708 22.9897 34.8347 21.754C34.9924 21.1507 35.0769 20.5124 35.0769 19.8519C35.0769 16.9988 33.4992 14.5598 31.2705 13.5758C30.8333 11.5247 29.1905 10 27.2308 10ZM29.2081 16.323C29.2913 16.0657 29.1565 15.7875 28.9071 15.7017C28.6577 15.6159 28.3881 15.755 28.305 16.0124C28.2005 16.3359 28.0839 16.5439 27.9668 16.6905C27.8508 16.8358 27.7181 16.941 27.5531 17.0404C27.4344 17.1119 27.3188 17.17 27.1816 17.2389L27.1816 17.2389C27.1076 17.2761 27.0273 17.3164 26.9368 17.3637C26.805 17.4327 26.6645 17.5104 26.5179 17.6039C26.2881 17.7503 26.2273 18.0504 26.3527 18.2923C26.4832 18.5438 26.7785 18.6603 27.0563 18.6039C27.3203 18.5503 27.6135 18.5133 27.9056 18.4979C28.3993 18.472 28.8286 18.5115 29.082 18.5986C29.3314 18.6844 29.601 18.5453 29.6841 18.2879C29.7673 18.0306 29.6325 17.7524 29.3831 17.6666C29.1351 17.5813 28.8352 17.5346 28.5204 17.5165C28.5823 17.4555 28.6428 17.3889 28.7014 17.3155C28.9075 17.0575 29.0746 16.7364 29.2081 16.323ZM27.2607 21.3184C27.1254 21.0858 26.833 21.0104 26.6076 21.15C26.3822 21.2895 26.3091 21.5913 26.4443 21.8239C26.6528 22.1824 27.024 22.6012 27.5508 22.9316C27.4657 22.9824 27.3816 23.0363 27.3001 23.0931C27.0775 23.2482 26.8555 23.4381 26.6851 23.6639C26.514 23.8908 26.3765 24.1798 26.3765 24.5185C26.3765 24.7898 26.5896 25.0097 26.8525 25.0097C27.1154 25.0097 27.3285 24.7898 27.3285 24.5185C27.3285 24.4643 27.3497 24.3823 27.4364 24.2674C27.5239 24.1514 27.6588 24.0286 27.8329 23.9073C28.137 23.6954 28.5038 23.5268 28.7828 23.4253C29.6194 23.5992 30.6317 23.5219 31.8 23.0051C32.0417 22.8983 32.1536 22.6095 32.05 22.3601C31.9465 22.1108 31.6666 21.9952 31.425 22.1021C30.3594 22.5734 29.5092 22.5966 28.8669 22.4386C28.008 22.2273 27.4706 21.6796 27.2607 21.3184ZM30.5806 30.1945C30.7264 29.9687 30.6673 29.6637 30.4486 29.5132C30.2298 29.3628 29.9343 29.4238 29.7885 29.6495C29.4052 30.2427 28.9097 30.4707 28.3439 30.5394C27.8902 30.5944 27.415 30.5458 26.9225 30.4816C26.642 30.4451 26.3769 30.6169 26.2972 30.8884C26.2197 31.1528 26.3412 31.4397 26.5382 31.6324C26.7208 31.8109 26.9162 32.0485 27.1104 32.3235C27.4338 32.7814 27.706 33.2732 27.8548 33.5802C27.9723 33.8229 28.2582 33.9212 28.4934 33.7999C28.7285 33.6786 28.8238 33.3835 28.7063 33.1409C28.5377 32.7929 28.2387 32.2532 27.8798 31.7449C27.8324 31.6778 27.783 31.6098 27.7317 31.5418C27.9721 31.5499 28.2157 31.5441 28.4551 31.5151C29.238 31.42 30.0118 31.0749 30.5806 30.1945Z" fill="black"/>
<path opacity="0.6" fill-rule="evenodd" clip-rule="evenodd" d="M20.7692 10C21.3847 10 21.9689 10.1504 22.4943 10.4202C22.9478 10.1473 23.4666 10 24 10V11.7332V16.2222V37.6507C23.5803 37.8747 23.1109 38 22.6154 38C21.6922 38 20.8595 37.565 20.2707 36.8675C19.984 36.9301 19.6877 36.963 19.3846 36.963C16.9979 36.963 15.0343 34.9276 14.7939 32.3176C13.0984 30.9 12 28.6311 12 26.0741C12 24.4756 12.4292 22.9897 13.1653 21.754C13.0076 21.1507 12.9231 20.5124 12.9231 19.8519C12.9231 16.9988 14.5008 14.5598 16.7295 13.5758C17.1667 11.5247 18.8095 10 20.7692 10ZM19.538 15.4713C19.4118 15.2367 19.139 15.1606 18.9288 15.3014C18.7185 15.4422 18.6503 15.7465 18.7765 15.9812C19.0166 16.4279 19.4618 17.1065 20.0353 17.7291C20.1793 17.8854 20.3339 18.041 20.4978 18.1898C20.2848 18.2152 20.0711 18.2517 19.8629 18.3018C19.0238 18.5037 18.082 18.9784 17.8384 20.0659C17.779 20.3314 17.9236 20.6004 18.1615 20.6668C18.3994 20.7332 18.6405 20.5718 18.6999 20.3062C18.8116 19.808 19.2758 19.4569 20.05 19.2706C20.5928 19.14 21.1962 19.1161 21.7003 19.1432C21.9851 19.1585 22.2477 18.9671 22.2948 18.6857C22.3393 18.4202 22.1735 18.1667 21.9336 18.0446C21.4843 17.8162 21.0469 17.4447 20.6546 17.0187C20.1402 16.4604 19.7418 15.8505 19.538 15.4713ZM20.9246 25.0442C20.8765 24.7758 20.6426 24.6018 20.4022 24.6555C20.1617 24.7092 20.0058 24.9702 20.0539 25.2386C20.3441 26.8584 19.5142 27.8092 19.0316 28.1227C18.9079 28.0332 18.7823 27.951 18.6559 27.8757C17.71 27.3121 16.704 27.1235 16.0491 27.1235C15.8039 27.1235 15.6051 27.3454 15.6051 27.619C15.6051 27.8927 15.8039 28.1146 16.0491 28.1146C16.5783 28.1146 17.4371 28.2729 18.2377 28.7499C19.0283 29.221 19.7468 29.9916 20.0623 31.2239C20.1297 31.4871 20.3754 31.6394 20.6112 31.5642C20.847 31.4891 20.9835 31.2148 20.9162 30.9516C20.6803 30.0301 20.2607 29.3151 19.7574 28.7674C20.4527 28.1682 21.2608 26.92 20.9246 25.0442Z" fill="black"/>
<g opacity="0.2">
<path d="M18.9291 15.3012C19.1394 15.1604 19.4121 15.2365 19.5383 15.4711C19.7422 15.8503 20.1406 16.4602 20.6549 17.0185C21.0507 17.4482 21.4921 17.8223 21.9454 18.0503C22.1788 18.1676 22.3386 18.4262 22.2935 18.6958C22.2471 18.9728 22.0034 19.1608 21.7385 19.1451C21.2271 19.1148 20.6068 19.1365 20.0504 19.2704C19.2761 19.4567 18.8119 19.8078 18.7003 20.3061C18.6408 20.5716 18.3998 20.733 18.1619 20.6666C17.924 20.6002 17.7793 20.3312 17.8388 20.0657C18.0824 18.9782 19.0242 18.5035 19.8632 18.3016C20.0715 18.2515 20.2851 18.215 20.4982 18.1896C20.3342 18.0408 20.1797 17.8852 20.0357 17.7289C19.4622 17.1063 19.017 16.4277 18.7768 15.981C18.6507 15.7464 18.7188 15.442 18.9291 15.3012Z" fill="black"/>
<path d="M20.4025 24.6553C20.643 24.6016 20.8769 24.7756 20.925 25.044C21.2612 26.9198 20.4531 28.168 19.7577 28.7672C20.2611 29.3149 20.6806 30.0299 20.9165 30.9514C20.9839 31.2146 20.8474 31.4889 20.6116 31.564C20.3758 31.6392 20.13 31.4869 20.0627 31.2237C19.7472 29.9914 19.0286 29.2208 18.238 28.7497C17.4375 28.2727 16.5786 28.1144 16.0495 28.1144C15.8043 28.1144 15.6055 27.8925 15.6055 27.6188C15.6055 27.3452 15.8043 27.1233 16.0495 27.1233C16.7044 27.1233 17.7104 27.3119 18.6563 27.8755C18.7827 27.9508 18.9083 28.033 19.032 28.1225C19.5146 27.809 20.3445 26.8582 20.0542 25.2384C20.0061 24.97 20.1621 24.709 20.4025 24.6553Z" fill="black"/>
<path fill-rule="evenodd" clip-rule="evenodd" d="M28.9075 15.7015C29.1569 15.7873 29.2917 16.0655 29.2086 16.3228C29.0751 16.7362 28.9079 17.0573 28.7018 17.3153C28.6432 17.3887 28.5827 17.4553 28.5209 17.5163C28.8356 17.5344 29.1355 17.5811 29.3835 17.6664C29.6329 17.7522 29.7677 18.0304 29.6846 18.2877C29.6014 18.5451 29.3319 18.6842 29.0825 18.5984C28.8291 18.5113 28.3997 18.4718 27.9061 18.4977C27.5985 18.5139 27.2898 18.5541 27.0151 18.6123C26.7595 18.6665 26.4894 18.5548 26.3639 18.3127C26.2339 18.062 26.2955 17.745 26.5269 17.5982C26.6705 17.5071 26.808 17.4311 26.9373 17.3635C27.0278 17.3162 27.1081 17.2759 27.1821 17.2387C27.3193 17.1698 27.4348 17.1117 27.5536 17.0402C27.7186 16.9408 27.8512 16.8356 27.9673 16.6903C28.0844 16.5437 28.2009 16.3357 28.3054 16.0122C28.3885 15.7548 28.6581 15.6157 28.9075 15.7015ZM26.608 21.1497C26.8335 21.0102 27.1259 21.0856 27.2611 21.3182C27.4711 21.6794 28.0084 22.2271 28.8673 22.4384C29.5097 22.5964 30.3598 22.5732 31.4255 22.1019C31.6671 21.995 31.9469 22.1106 32.0505 22.3599C32.154 22.6093 32.0421 22.8981 31.8005 23.0049C30.6321 23.5217 29.6199 23.599 28.7833 23.4251C28.5042 23.5266 28.1374 23.6952 27.8334 23.9071C27.6593 24.0284 27.5243 24.1512 27.4368 24.2672C27.3502 24.3821 27.3289 24.4641 27.3289 24.5183C27.3289 24.7896 27.1158 25.0095 26.8529 25.0095C26.5901 25.0095 26.3769 24.7896 26.3769 24.5183C26.3769 24.1796 26.5144 23.8906 26.6856 23.6637C26.8559 23.4379 27.0779 23.248 27.3005 23.0929C27.3821 23.0361 27.4661 22.9822 27.5513 22.9314C27.0245 22.601 26.6532 22.1822 26.4448 21.8237C26.3095 21.5911 26.3826 21.2893 26.608 21.1497ZM30.449 29.513C30.6677 29.6635 30.7268 29.9685 30.581 30.1942C30.0123 31.0747 29.2384 31.4198 28.4556 31.5149C28.2162 31.5439 27.9725 31.5497 27.7321 31.5415C27.7834 31.6096 27.8328 31.6776 27.8802 31.7447C28.2392 32.253 28.5381 32.7927 28.7067 33.1406C28.8243 33.3833 28.729 33.6784 28.4938 33.7997C28.2587 33.921 27.9728 33.8227 27.8552 33.58C27.7065 33.273 27.4342 32.7812 27.1109 32.3233C26.9166 32.0482 26.7211 31.8106 26.5385 31.632C26.3421 31.44 26.2227 31.1437 26.3021 30.8732C26.3796 30.6089 26.6242 30.4421 26.8832 30.4762C27.3899 30.5429 27.8785 30.5957 28.3443 30.5392C28.9102 30.4705 29.4057 30.2425 29.7889 29.6493C29.9347 29.4235 30.2303 29.3626 30.449 29.513Z" fill="black"/>
</g>
</svg>
