<svg xmlns="http://www.w3.org/2000/svg" width="48" height="48" fill="none" viewBox="0 0 48 48">
  <path fill="#000" fill-rule="evenodd" d="M19.154 3c.923 0 1.8.226 2.588.63C22.422 3.221 23.2 3 24 3v2h-9.207c1.124-1.237 2.663-2 4.361-2zm-4.39 40a6.233 6.233 0 003.642.301C19.29 44.347 20.54 45 21.923 45c.744 0 1.448-.188 2.077-.524V43h-9.235z" clip-rule="evenodd" opacity=".35"/>
  <path fill="#000" fill-rule="evenodd" d="M28.846 3c-.923 0-1.8.226-2.587.63A4.377 4.377 0 0024 3v41.476c.63.336 1.334.524 2.077.524 1.385 0 2.634-.653 3.517-1.699.43.094.874.143 1.33.143 3.58 0 6.525-3.053 6.885-6.968C40.353 34.35 42 30.946 42 27.111c0-2.398-.644-4.627-1.748-6.48.236-.905.363-1.862.363-2.853 0-4.28-2.366-7.938-5.71-9.414C34.25 5.287 31.786 3 28.847 3zm2.966 9.485a.742.742 0 00-.451-.932.71.71 0 00-.904.466c-.156.485-.331.797-.507 1.017a2.223 2.223 0 01-.62.525 8.046 8.046 0 01-.557.297c-.112.056-.232.117-.368.188-.198.103-.408.22-.628.36-.345.22-.436.67-.248 1.032.196.378.639.552 1.055.468.396-.08.836-.136 1.274-.16.741-.038 1.385.021 1.765.152a.71.71 0 00.903-.466.742.742 0 00-.451-.932c-.372-.128-.822-.198-1.294-.225a3.43 3.43 0 00.271-.302c.31-.387.56-.869.76-1.488zm-2.921 7.493a.702.702 0 00-.98-.253.75.75 0 00-.245 1.01c.313.539.87 1.167 1.66 1.663a6.26 6.26 0 00-.376.242 4.051 4.051 0 00-.922.856c-.257.34-.463.774-.463 1.282 0 .407.32.737.714.737.394 0 .714-.33.714-.737 0-.082.032-.205.162-.377.13-.174.333-.358.594-.54a6.519 6.519 0 011.425-.723c1.255.26 2.773.145 4.526-.63a.746.746 0 00.375-.968.706.706 0 00-.937-.387c-1.599.707-2.874.742-3.838.505-1.288-.317-2.094-1.139-2.409-1.68zm4.98 13.314a.751.751 0 00-.198-1.022.7.7 0 00-.99.204c-.575.89-1.318 1.232-2.167 1.335-.68.083-1.393.01-2.132-.087a.86.86 0 00-.938.61c-.117.397.066.828.361 1.117.274.267.567.624.859 1.036.485.687.893 1.425 1.116 1.885a.704.704 0 00.958.33.748.748 0 00.32-.989 15.85 15.85 0 00-1.462-2.398c.36.012.726.003 1.085-.04 1.174-.143 2.335-.66 3.188-1.981z" clip-rule="evenodd"/>
  <path fill="#000" fill-rule="evenodd" d="M19.154 3c.923 0 1.8.226 2.587.63C22.421 3.221 23.2 3 24 3v41.476a4.392 4.392 0 01-2.077.524c-1.385 0-2.634-.653-3.517-1.699-.43.094-.874.143-1.33.143-3.58 0-6.525-3.053-6.885-6.968C7.648 34.35 6 30.946 6 27.111c0-2.398.644-4.627 1.748-6.48a11.28 11.28 0 01-.363-2.853c0-4.28 2.366-7.938 5.71-9.414C13.75 5.287 16.214 3 19.153 3zm-1.847 8.207c-.19-.352-.598-.466-.914-.255-.315.211-.418.668-.228 1.02a13.69 13.69 0 001.888 2.622c.216.234.448.467.694.69-.32.039-.64.093-.953.169-1.258.303-2.671 1.015-3.036 2.646-.09.398.127.802.484.901.357.1.719-.142.808-.54.167-.748.864-1.275 2.025-1.554.814-.196 1.72-.232 2.475-.191.428.023.822-.264.892-.686.067-.399-.182-.779-.542-.962-.674-.343-1.33-.9-1.918-1.539a12.234 12.234 0 01-1.675-2.321zm2.08 14.36c-.072-.403-.423-.664-.784-.584-.36.08-.594.472-.522.875.435 2.43-.81 3.856-1.534 4.326a7.566 7.566 0 00-.563-.37c-1.419-.846-2.928-1.129-3.91-1.129-.368 0-.666.333-.666.744 0 .41.298.743.666.743.793 0 2.082.237 3.283.953 1.185.706 2.263 1.862 2.736 3.71.102.396.47.624.824.511.353-.112.558-.524.457-.918-.354-1.383-.983-2.455-1.738-3.277 1.043-.899 2.255-2.77 1.75-5.585z" clip-rule="evenodd" opacity=".6"/>
  <g opacity=".2">
    <path fill="#000" d="M16.393 10.952c.315-.211.724-.097.913.255.306.568.904 1.483 1.675 2.32.594.645 1.256 1.207 1.936 1.548.35.176.59.564.522.969a.801.801 0 01-.832.674c-.767-.046-1.698-.013-2.532.188-1.162.279-1.858.806-2.026 1.553-.089.398-.45.64-.807.54-.357-.099-.574-.502-.485-.9.366-1.632 1.778-2.344 3.037-2.647.312-.075.633-.13.952-.168a11.038 11.038 0 01-.693-.69 13.69 13.69 0 01-1.889-2.622c-.189-.352-.087-.81.229-1.02zM18.603 24.983c.36-.08.711.18.784.583.504 2.814-.708 4.686-1.751 5.585.755.821 1.384 1.894 1.738 3.276.1.395-.104.806-.458.92-.353.112-.722-.117-.823-.511-.473-1.849-1.551-3.005-2.737-3.711-1.2-.716-2.49-.953-3.283-.953-.368 0-.666-.333-.666-.744 0-.41.298-.743.666-.743.983 0 2.492.283 3.91 1.128.19.113.378.236.564.37.724-.47 1.969-1.896 1.533-4.325-.072-.403.162-.795.523-.875z"/>
    <path fill="#000" fill-rule="evenodd" d="M31.36 11.552a.742.742 0 01.452.932c-.2.62-.451 1.102-.76 1.489a3.43 3.43 0 01-.272.301c.473.028.922.098 1.294.226a.742.742 0 01.452.932.71.71 0 01-.903.466c-.38-.131-1.024-.19-1.765-.151a8.793 8.793 0 00-1.336.171.885.885 0 01-.977-.449c-.195-.376-.103-.852.244-1.072a8.42 8.42 0 01.616-.352l.367-.187c.206-.103.38-.19.557-.298.248-.149.447-.307.62-.524.177-.22.351-.532.508-1.018a.71.71 0 01.903-.466zm-3.449 8.173a.702.702 0 01.98.252c.315.542 1.12 1.364 2.409 1.68.963.238 2.239.203 3.837-.504a.706.706 0 01.938.387.746.746 0 01-.375.967c-1.753.775-3.271.891-4.526.63a6.518 6.518 0 00-1.425.724 2.638 2.638 0 00-.595.54c-.13.172-.162.295-.162.377 0 .406-.32.736-.714.736a.726.726 0 01-.714-.736c0-.509.207-.942.463-1.282.256-.34.589-.624.923-.857a6.26 6.26 0 01.376-.242c-.79-.495-1.347-1.124-1.66-1.662a.75.75 0 01.245-1.01zm5.761 12.545a.751.751 0 01.199 1.021c-.854 1.321-2.014 1.839-3.189 1.981-.359.044-.724.053-1.085.04a15.85 15.85 0 011.462 2.399.748.748 0 01-.32.989.704.704 0 01-.957-.33 14.374 14.374 0 00-1.117-1.885 7.632 7.632 0 00-.858-1.037c-.295-.288-.474-.732-.355-1.138.116-.397.483-.647.872-.596.76.1 1.493.18 2.191.095.85-.103 1.593-.445 2.167-1.335a.7.7 0 01.99-.204z" clip-rule="evenodd"/>
  </g>
</svg>
