<svg width="48" height="48" viewBox="0 0 48 48" fill="none" xmlns="http://www.w3.org/2000/svg">
<path opacity="0.2" fill-rule="evenodd" clip-rule="evenodd" d="M9.12161 7.55236L28.633 6.08209C31.0291 5.87182 31.6455 6.01269 33.1515 7.13203L39.3798 11.6113C40.4075 12.3816 40.75 12.5913 40.75 13.431V37.998C40.75 39.5377 40.2018 40.4482 38.2854 40.5876L15.6268 41.9876C14.1882 42.0578 13.5035 41.848 12.7502 40.8676L8.16355 34.7784C7.34178 33.6575 7 32.819 7 31.838V10.0011C7 8.74204 7.54831 7.69174 9.12161 7.55236Z" fill="black"/>
<path fill-rule="evenodd" clip-rule="evenodd" d="M12.8198 12.3115C13.9141 13.2213 14.3246 13.1519 16.3795 13.0116L35.7517 11.8213C36.1625 11.8213 35.8209 11.4019 35.6838 11.3322L32.4666 8.95231C31.8501 8.46257 31.0288 7.90173 29.4546 8.04203L10.6966 9.44197C10.0125 9.51138 9.87584 9.86138 10.1483 10.1419L12.8198 12.3115ZM13.9829 16.9311V37.7877C13.9829 38.9086 14.5303 39.3279 15.7624 39.2586L37.0524 37.998C38.2851 37.9287 38.4224 37.1577 38.4224 36.2471V15.5306C38.4224 14.6215 38.0806 14.1313 37.3261 14.2012L15.0778 15.5306C14.2567 15.6012 13.9829 16.0214 13.9829 16.9311ZM35.0003 18.0499C35.1368 18.6805 35.0003 19.3104 34.3829 19.3813L33.3572 19.5904V34.9881C32.4666 35.4779 31.6453 35.7579 30.9609 35.7579C29.8651 35.7579 29.5907 35.4077 28.77 34.3584L22.0601 23.58V34.0084L24.1834 34.4987C24.1834 34.4987 24.1834 35.7579 22.4703 35.7579L17.7479 36.0382C17.6107 35.7579 17.7479 35.0586 18.2269 34.9185L19.4593 34.569V20.7806L17.7482 20.6403C17.611 20.0098 17.9527 19.1006 18.9118 19.0301L23.978 18.6807L30.9609 29.5994V19.9404L29.1805 19.7313C29.0439 18.9605 29.5907 18.4008 30.2754 18.3314L35.0003 18.0499ZM9.12161 7.55236L28.633 6.08209C31.0291 5.87182 31.6455 6.01269 33.1515 7.13203L39.3798 11.6113C40.4075 12.3816 40.75 12.5913 40.75 13.431V37.998C40.75 39.5377 40.2018 40.4482 38.2854 40.5876L15.6268 41.9876C14.1882 42.0578 13.5035 41.848 12.7502 40.8676L8.16355 34.7784C7.34178 33.6575 7 32.819 7 31.838V10.0011C7 8.74204 7.54831 7.69174 9.12161 7.55236Z" fill="black"/>
</svg>
