<svg xmlns="http://www.w3.org/2000/svg" width="48" height="48" fill="none" viewBox="0 0 48 48">
  <rect width="38" height="38" x="5" y="5" fill="#000" opacity=".2" rx="4"/>
  <path fill="#000" fill-rule="evenodd" d="M19.094 16.685c-1.233.085-1.513.105-2.214-.477L15.1 14.76c-.182-.187-.091-.42.365-.466l12.505-.934c1.05-.093 1.597.28 2.008.607l2.145 1.587c.091.046.32.326.045.326l-12.915.793-.159.011zm-1.438 16.507V19.287c0-.606.182-.886.73-.933l14.832-.887c.503-.046.73.28.73.887v13.81c0 .608-.09 1.122-.913 1.168l-14.193.84c-.821.047-1.186-.233-1.186-.98zm13.6-12.271c.411-.047.502-.467.411-.888l-3.15.188c-.456.046-.82.42-.73.933l1.187.14v6.439l-4.655-7.28-3.377.234c-.64.047-.868.653-.776 1.073l1.14.094v9.192l-.821.233c-.32.093-.41.56-.32.746l3.149-.186c1.142 0 1.142-.84 1.142-.84l-1.415-.327V23.72l4.473 7.186c.547.699.73.933 1.46.933.457 0 1.004-.187 1.598-.514V21.06l.684-.14z" clip-rule="evenodd"/>
  <path fill="#000" fill-rule="evenodd" d="M16.88 16.208c.73.606 1.003.56 2.373.466l12.915-.793c.274 0 .046-.28-.045-.326l-2.145-1.587c-.411-.326-.959-.7-2.008-.607l-12.506.934c-.456.046-.547.28-.365.466l1.78 1.447zm.775 3.08v13.904c0 .747.365 1.027 1.187.98l14.193-.84c.822-.046.913-.56.913-1.167V18.354c0-.606-.228-.933-.73-.886l-14.833.886c-.547.047-.73.327-.73.933zm14.012.745c.09.42 0 .84-.412.888l-.683.14v10.264c-.594.327-1.142.514-1.598.514-.73 0-.913-.234-1.46-.933L23.04 23.72v6.952l1.416.327s0 .84-1.142.84l-3.149.187c-.091-.187 0-.654.32-.747l.821-.233v-9.192l-1.14-.094c-.092-.42.136-1.026.775-1.073l3.378-.233 4.655 7.279v-6.44l-1.187-.139c-.091-.514.274-.887.73-.933l3.15-.188zm-17.253-6.998l13.008-.98c1.597-.14 2.008-.046 3.012.7l4.152 2.986c.686.513.914.653.914 1.213v16.378c0 1.026-.365 1.633-1.643 1.726l-15.106.934c-.959.047-1.415-.093-1.918-.747l-3.057-4.06c-.548-.747-.776-1.306-.776-1.96V14.667c0-.839.366-1.54 1.414-1.632z" clip-rule="evenodd" opacity=".4"/>
</svg>
