<svg xmlns="http://www.w3.org/2000/svg" width="48" height="48" fill="none" viewBox="0 0 48 48">
  <path fill="#000" fill-rule="evenodd" d="M12.82 12.312c1.094.91 1.505.84 3.56.7l19.372-1.19c.41 0 .069-.42-.068-.49l-3.217-2.38c-.617-.49-1.438-1.05-3.012-.91l-18.758 1.4c-.684.07-.821.42-.549.7l2.672 2.17zm1.163 4.62v20.856c0 1.12.547 1.54 1.78 1.47l21.29-1.26c1.232-.07 1.37-.84 1.37-1.75V15.53c0-.91-.342-1.4-1.097-1.33l-22.248 1.33c-.821.07-1.095.49-1.095 1.4zM35 18.05c.137.63 0 1.26-.617 1.331l-1.026.21v15.397c-.89.49-1.712.77-2.396.77-1.096 0-1.37-.35-2.191-1.4L22.06 23.58v10.428l2.123.49s0 1.26-1.713 1.26l-4.722.28c-.137-.28 0-.98.479-1.12l1.232-.349V20.781l-1.71-.14c-.138-.631.204-1.54 1.163-1.61l5.066-.35 6.983 10.918V19.94l-1.78-.209c-.137-.77.41-1.33 1.094-1.4L35 18.05zM9.122 7.552l19.511-1.47c2.396-.21 3.012-.07 4.518 1.05l6.229 4.48c1.027.77 1.37.98 1.37 1.819v24.567c0 1.54-.548 2.45-2.465 2.59l-22.658 1.4c-1.439.07-2.123-.14-2.877-1.12l-4.586-6.09C7.342 33.658 7 32.82 7 31.838V10.001c0-1.259.548-2.31 2.122-2.449z" clip-rule="evenodd" opacity=".4"/>
</svg>
