<svg xmlns="http://www.w3.org/2000/svg" width="48" height="48" fill="none" viewBox="0 0 48 48">
  <path fill="#000" d="M43 13.433c-1.398.582-2.9.976-4.478 1.153 1.61-.906 2.846-2.341 3.428-4.05A16.234 16.234 0 0137 12.311C35.576 10.889 33.55 10 31.308 10c-4.306 0-7.796 3.278-7.796 7.32 0 .575.069 1.133.202 1.67-6.48-.306-12.224-3.22-16.07-7.65a6.95 6.95 0 00-1.055 3.68c0 2.54 1.376 4.781 3.468 6.094a8.154 8.154 0 01-3.531-.916v.093c0 3.547 2.686 6.505 6.253 7.178a8.278 8.278 0 01-3.52.126c.991 2.908 3.87 5.025 7.282 5.084-2.668 1.963-6.03 3.134-9.682 3.134-.63 0-1.25-.035-1.86-.102C8.45 37.788 12.548 39 16.95 39c14.34 0 22.183-11.156 22.183-20.83 0-.318-.008-.633-.023-.948a15.342 15.342 0 003.89-3.79z"/>
</svg>
