<svg xmlns="http://www.w3.org/2000/svg" width="48" height="48" fill="none" viewBox="0 0 48 48">
  <g opacity=".4">
    <path fill="#000" d="M10 4a2 2 0 114 0v4a2 2 0 11-4 0V4zM34 4a2 2 0 114 0v4a2 2 0 11-4 0V4z"/>
  </g>
  <path fill="#000" fill-rule="evenodd" d="M10 6.009c-2.48.036-3.885.22-4.828 1.163C4 8.343 4 10.229 4 14v2h40v-2c0-3.771 0-5.657-1.172-6.828-.943-.944-2.348-1.127-4.828-1.163V8a2 2 0 11-4 0V6H14v2a2 2 0 11-4 0V6.009z" clip-rule="evenodd"/>
  <rect width="25" height="6" x="21" y="28" fill="#000" rx="1"/>
  <rect width="21" height="6" x="2" y="36" fill="#000" opacity=".4" rx="1"/>
  <path fill="#000" fill-rule="evenodd" d="M5.172 7.172C4 8.343 4 10.229 4 14v22h17c.943 0 1.414 0 1.707.293.293.293.293.764.293 1.707v2c0 .943 0 1.414-.293 1.707C22.414 42 21.943 42 21 42H4.101c.128 1.3.417 2.175 1.07 2.828C6.344 46 8.23 46 12 46h24c3.771 0 5.657 0 6.828-1.172C44 43.657 44 41.771 44 38V14c0-3.771 0-5.657-1.172-6.828C41.657 6 39.771 6 36 6H12C8.229 6 6.343 6 5.172 7.172z" clip-rule="evenodd" opacity=".2"/>
  <rect width="18" height="6" x="10" y="20" fill="#000" opacity=".6" rx="1"/>
</svg>
