<svg width="48" height="48" viewBox="0 0 48 48" fill="none" xmlns="http://www.w3.org/2000/svg">
<rect opacity="0.2" x="5" y="5" width="38" height="38" rx="4" fill="black"/>
<rect opacity="0.6" x="30" y="17" width="22" height="4" rx="1" transform="rotate(90 30 17)" fill="black"/>
<rect x="22" y="17" width="22" height="4" rx="1" transform="rotate(90 22 17)" fill="black"/>
<rect opacity="0.6" x="14" y="17" width="22" height="4" rx="1" transform="rotate(90 14 17)" fill="black"/>
<rect opacity="0.6" x="38" y="17" width="22" height="4" rx="1" transform="rotate(90 38 17)" fill="black"/>
<rect opacity="0.6" x="30" y="9" width="4" height="4" rx="1" transform="rotate(90 30 9)" fill="black"/>
<rect x="22" y="9" width="4" height="4" rx="1" transform="rotate(90 22 9)" fill="black"/>
<rect opacity="0.6" x="14" y="9" width="4" height="4" rx="1" transform="rotate(90 14 9)" fill="black"/>
<rect opacity="0.6" x="38" y="9" width="4" height="4" rx="1" transform="rotate(90 38 9)" fill="black"/>
</svg>
