<svg xmlns="http://www.w3.org/2000/svg" width="48" height="48" fill="none" viewBox="0 0 48 48">
  <rect width="40" height="40" x="4" y="6" fill="#000" opacity=".2" rx="4"/>
  <g opacity=".4">
    <path fill="#000" d="M10 4a2 2 0 114 0v4a2 2 0 11-4 0V4zM34 4a2 2 0 114 0v4a2 2 0 11-4 0V4z"/>
  </g>
  <path fill="#000" fill-rule="evenodd" d="M10 6.009c-2.48.036-3.885.22-4.828 1.163C4 8.343 4 10.229 4 14v2h40v-2c0-3.771 0-5.657-1.172-6.828-.943-.944-2.348-1.127-4.828-1.163V8a2 2 0 11-4 0V6H14v2a2 2 0 11-4 0V6.009z" clip-rule="evenodd"/>
  <path fill="#000" d="M15.923 36.5l4.39 4.184a2 2 0 002.76 0L37.48 26.948a2 2 0 000-2.896l-2.87-2.736a2 2 0 00-2.76 0L15.922 36.5z"/>
  <path fill="#000" d="M21.692 31l-5.769 5.5-5.405-5.152a2 2 0 010-2.895l2.871-2.737a2 2 0 012.76 0L21.692 31z"/>
</svg>
