<svg xmlns="http://www.w3.org/2000/svg" width="48" height="48" fill="none" viewBox="0 0 48 48">
  <rect width="38" height="38" x="5" y="5" fill="#000" opacity=".2" rx="4"/>
  <path fill="#000" d="M5 13c0-3.771 0-5.657 1.172-6.828C7.343 5 9.229 5 13 5h22c3.771 0 5.657 0 6.828 1.172C43 7.343 43 9.229 43 13v2H5v-2zM17 34l3.586 3.586a2 2 0 002.828 0l12.172-12.172a2 2 0 000-2.828l-2.172-2.172a2 2 0 00-2.828 0L17 34z"/>
  <path fill="#000" d="M22 29l-5 5-4.586-4.586a2 2 0 010-2.828l2.172-2.172a2 2 0 012.828 0L22 29z"/>
</svg>
