<svg xmlns="http://www.w3.org/2000/svg" width="48" height="48" fill="none" viewBox="0 0 48 48">
  <rect width="38" height="38" x="5" y="5" fill="#000" opacity=".2" rx="4"/>
  <path fill="#000" d="M5 13c0-3.771 0-5.657 1.172-6.828C7.343 5 9.229 5 13 5h22c3.771 0 5.657 0 6.828 1.172C43 7.343 43 9.229 43 13v2H5v-2z"/>
  <path fill="#000" fill-rule="evenodd" d="M5 15v20c0 3.771 0 5.657 1.172 6.828C7.235 42.891 8.886 42.99 12 43V15H5zm21 28h-7V15h7v28zm14-.252C38.842 43 37.26 43 35 43h-2V15h7v27.748z" clip-rule="evenodd" opacity=".2"/>
</svg>
