<svg xmlns="http://www.w3.org/2000/svg" width="48" height="48" fill="none" viewBox="0 0 48 48">
  <rect width="38" height="38" x="5" y="5" fill="#000" opacity=".2" rx="4"/>
  <path fill="#000" d="M5 30l2.422-1.02c1.148-.483 1.722-.725 2.328-.725.606 0 1.18.242 2.328.725l.094.04c1.148.483 1.722.725 2.328.725.606 0 1.18-.242 2.328-.725l.094-.04c1.148-.483 1.722-.725 2.328-.725.606 0 1.18.242 2.328.725l.094.04c1.148.483 1.722.725 2.328.725.606 0 1.18-.242 2.328-.725l.094-.04c1.148-.483 1.722-.725 2.328-.725.606 0 1.18.242 2.328.725l.094.04c1.148.483 1.722.725 2.328.725.606 0 1.18-.242 2.328-.725l.094-.04c1.148-.483 1.722-.725 2.328-.725.606 0 1.18.242 2.328.725L43 30v-7c0-3.771 0-5.657-1.172-6.828C40.657 15 38.771 15 35 15H13c-3.771 0-5.657 0-6.828 1.172C5 17.343 5 19.229 5 23v7z"/>
  <path fill="#000" fill-rule="evenodd" d="M7.422 28.98L5 30v9a4 4 0 004 4h30a4 4 0 004-4v-9l-2.422-1.02c-1.148-.483-1.722-.725-2.328-.725-.606 0-1.18.242-2.328.725l-.094.04c-1.148.483-1.722.725-2.328.725-.606 0-1.18-.242-2.328-.726l-.094-.039c-1.148-.483-1.722-.725-2.328-.725-.606 0-1.18.242-2.328.725l-.094.04c-1.148.483-1.722.725-2.328.725-.606 0-1.18-.242-2.328-.726l-.094-.039c-1.148-.483-1.722-.725-2.328-.725-.606 0-1.18.242-2.328.725l-.094.04c-1.148.483-1.722.725-2.328.725-.606 0-1.18-.242-2.328-.726l-.094-.039c-1.148-.483-1.722-.725-2.328-.725-.606 0-1.18.242-2.328.725z" clip-rule="evenodd" opacity=".6"/>
  <path fill="#000" d="M22 11a2 2 0 114 0v4h-4v-4zM13 12a2 2 0 114 0v3h-4v-3zM31 12a2 2 0 114 0v3h-4v-3z" opacity=".6"/>
  <path fill="#000" d="M24 9c-3.957 0-.99-6 0-6s3.957 6 0 6zM33 10c-3.957 0-.99-6 0-6s3.957 6 0 6zM15 10c-3.957 0-.99-6 0-6s3.957 6 0 6z"/>
</svg>
