<svg xmlns="http://www.w3.org/2000/svg" width="48" height="48" fill="none" viewBox="0 0 48 48">
  <rect width="38" height="38" x="5" y="5" fill="#000" opacity=".2" rx="4"/>
  <path fill="#000" d="M5 13c0-3.771 0-5.657 1.172-6.828C7.343 5 9.229 5 13 5h22c3.771 0 5.657 0 6.828 1.172C43 7.343 43 9.229 43 13v2H5v-2zM9.981 21.454V36h2.983v-9.503h.12l3.765 9.432h2.031l3.764-9.396h.121V36h2.983V21.454h-3.793l-4.005 9.773h-.17l-4.006-9.773H9.98zm23.173 14.76c3.31 0 5.37-2.267 5.37-5.626 0-3.38-2.06-5.64-5.37-5.64s-5.37 2.26-5.37 5.64c0 3.36 2.06 5.625 5.37 5.625zm.014-2.345c-1.527 0-2.308-1.399-2.308-3.302 0-1.904.781-3.31 2.308-3.31 1.499 0 2.28 1.406 2.28 3.31 0 1.903-.781 3.302-2.28 3.302z"/>
</svg>
