<svg xmlns="http://www.w3.org/2000/svg" width="48" height="48" fill="none" viewBox="0 0 48 48">
  <rect width="40" height="40" x="4" y="6" fill="#000" opacity=".2" rx="4"/>
  <path fill="#000" d="M10.544 39h3.596l3.316-11.412h.136L20.916 39h3.596l4.995-17.454h-4.032l-2.889 12.153h-.153l-3.18-12.153h-3.45l-3.188 12.127h-.145L9.58 21.545H5.55L10.543 39zm25.43.256c3.238 0 5.42-1.577 5.931-4.006l-3.358-.222c-.366.998-1.304 1.517-2.514 1.517-1.815 0-2.966-1.201-2.966-3.153v-.009h8.915v-.997c0-4.449-2.693-6.647-6.154-6.647-3.852 0-6.349 2.735-6.349 6.775 0 4.15 2.463 6.742 6.494 6.742zm-2.907-8.122c.077-1.492 1.21-2.685 2.821-2.685 1.577 0 2.668 1.125 2.676 2.684h-5.497z"/>
  <g opacity=".4">
    <path fill="#000" d="M10 4a2 2 0 114 0v4a2 2 0 11-4 0V4zM34 4a2 2 0 114 0v4a2 2 0 11-4 0V4z"/>
  </g>
  <path fill="#000" fill-rule="evenodd" d="M10 6.009c-2.48.036-3.885.22-4.828 1.163C4 8.343 4 10.229 4 14v2h40v-2c0-3.771 0-5.657-1.172-6.828-.943-.944-2.348-1.127-4.828-1.163V8a2 2 0 11-4 0V6H14v2a2 2 0 11-4 0V6.009z" clip-rule="evenodd"/>
</svg>
