<svg xmlns="http://www.w3.org/2000/svg" width="48" height="48" fill="none" viewBox="0 0 48 48">
  <rect width="40" height="40" x="4" y="6" fill="#000" opacity=".2" rx="4"/>
  <path fill="#000" d="M13.693 39h3.69v-7.21h7.1v-3.043h-7.1v-4.159h7.867v-3.043H13.693V39zm13.76 0h3.63v-7.406c0-1.611 1.177-2.719 2.779-2.719.503 0 1.193.085 1.534.196v-3.222a5.45 5.45 0 00-1.142-.127c-1.466 0-2.668.852-3.145 2.471h-.136V25.91h-3.52V39z"/>
  <g opacity=".4">
    <path fill="#000" d="M10 4a2 2 0 114 0v4a2 2 0 11-4 0V4zM34 4a2 2 0 114 0v4a2 2 0 11-4 0V4z"/>
  </g>
  <path fill="#000" fill-rule="evenodd" d="M10 6.009c-2.48.036-3.885.22-4.828 1.163C4 8.343 4 10.229 4 14v2h40v-2c0-3.771 0-5.657-1.172-6.828-.943-.944-2.348-1.127-4.828-1.163V8a2 2 0 11-4 0V6H14v2a2 2 0 11-4 0V6.009z" clip-rule="evenodd"/>
</svg>
