<svg xmlns="http://www.w3.org/2000/svg" width="48" height="48" fill="none" viewBox="0 0 48 48">
  <rect width="38" height="38" x="5" y="5" fill="#000" opacity=".2" rx="4"/>
  <path fill="#000" d="M5 13c0-3.771 0-5.657 1.172-6.828C7.343 5 9.229 5 13 5h22c3.771 0 5.657 0 6.828 1.172C43 7.343 43 9.229 43 13v2H5v-2zM12.552 23.99h4.453V36h3.04V23.99h4.453v-2.535H12.552v2.535zm19.368 7.365c.007 1.463-.994 2.23-2.081 2.23-1.143 0-1.882-.802-1.89-2.088v-6.406h-3.025v6.946c.007 2.55 1.499 4.105 3.693 4.105 1.641 0 2.82-.845 3.31-2.123h.114V36h2.905V25.09H31.92v6.265z"/>
</svg>
