<svg width="48" height="48" viewBox="0 0 48 48" fill="none" xmlns="http://www.w3.org/2000/svg">
<rect opacity="0.2" x="5" y="5" width="38" height="38" rx="4" fill="black"/>
<path opacity="0.2" d="M13.5858 9.58579C13 10.1716 13 11.1144 13 13V18C14.1046 18 15 18.8954 15 20C15 21.0876 14.1318 21.9725 13.0507 21.9994C13.1146 22.6498 13.2591 23.0875 13.5858 23.4142C14.1716 24 15.1144 24 17 24H31C32.8856 24 33.8284 24 34.4142 23.4142C35 22.8284 35 21.8856 35 20V13C35 11.1144 35 10.1716 34.4142 9.58579C33.8284 9 32.8856 9 31 9H17C15.1144 9 14.1716 9 13.5858 9.58579Z" fill="black"/>
<path fill-rule="evenodd" clip-rule="evenodd" d="M9 20C9 18.1144 9 17.1716 9.58579 16.5858C10.1716 16 11.1144 16 13 16H35C36.8856 16 37.8284 16 38.4142 16.5858C39 17.1716 39 18.1144 39 20V28C39 29.8856 39 30.8284 38.4142 31.4142C37.8284 32 36.8856 32 35 32V30C35 28.1144 35 27.1716 34.4142 26.5858C33.8284 26 32.8856 26 31 26H17C15.1144 26 14.1716 26 13.5858 26.5858C13 27.1716 13 28.1144 13 30L13 32C11.1144 32 10.1716 32 9.58579 31.4142C9 30.8284 9 29.8856 9 28V20ZM13 18C11.8954 18 11 18.8954 11 20C11 21.1046 11.8954 22 13 22C14.1046 22 15 21.1046 15 20C15 18.8954 14.1046 18 13 18Z" fill="black"/>
<rect opacity="0.6" x="13" y="22" width="22" height="17" rx="2" fill="black"/>
<rect opacity="0.2" x="11" y="18" width="4" height="4" rx="2" fill="black"/>
</svg>
