<svg xmlns="http://www.w3.org/2000/svg" width="48" height="48" fill="none" viewBox="0 0 48 48">
  <rect width="38" height="38" x="5" y="5" fill="#000" opacity=".2" rx="4"/>
  <rect width="28" height="27" x="10" y="10" fill="#000" opacity=".6" rx="4"/>
  <path fill="#000" d="M10 17.866c0-1.738 0-2.607.266-3.3a4 4 0 012.3-2.3C13.26 12 14.129 12 15.867 12c.67 0 1.006 0 1.327.053a4 4 0 011.391.506c.28.166.538.381 1.051.812l1.398 1.172c1.104.925 1.655 1.387 2.318 1.628.662.24 1.382.24 2.822.24H30c3.771 0 5.657 0 6.828 1.172C38 18.755 38 20.641 38 24.412V29c0 3.771 0 5.657-1.172 6.828C35.657 37 33.771 37 30 37H18c-3.771 0-5.657 0-6.828-1.172C10 34.657 10 32.771 10 29V17.866z"/>
</svg>
