<svg width="48" height="48" viewBox="0 0 48 48" fill="none" xmlns="http://www.w3.org/2000/svg">
<path opacity="0.4" d="M8.35518 29.2104C9.90203 31.3762 16.3189 32.9999 24 32.9999C31.6811 32.9999 38.098 31.3762 39.6448 29.2105C39.8775 29.5725 40 29.9481 40 30.3332V39.6666C40 42.6121 32.8366 44.9999 24 44.9999C15.1634 44.9999 8 42.6121 8 39.6666V30.3332C8 29.9481 8.12249 29.5724 8.35518 29.2104Z" fill="black"/>
<g opacity="0.8">
<path d="M40 19.8C40 22.451 32.8366 24.6 24 24.6C15.1634 24.6 8 22.451 8 19.8C8 17.149 15.1634 15 24 15C32.8366 15 40 17.149 40 19.8Z" fill="black"/>
<path d="M40 28.2C40 30.851 32.8366 33 24 33C15.1634 33 8 30.851 8 28.2C8 25.549 15.1634 23.4 24 23.4C32.8366 23.4 40 25.549 40 28.2Z" fill="black"/>
<path d="M8 19.8H40V28.2H8V19.8Z" fill="black"/>
</g>
<path fill-rule="evenodd" clip-rule="evenodd" d="M40 8.33333V17.6667C40 20.6122 32.8366 23 24 23C15.1634 23 8 20.6122 8 17.6667V8.33333C8 8.18109 8.01913 8.03035 8.05665 7.88135C8.74492 10.1881 15.6201 12 24 12C32.3799 12 39.2551 10.1881 39.9434 7.88135C39.9809 8.03035 40 8.18109 40 8.33333Z" fill="black"/>
<ellipse opacity="0.8" cx="24" cy="7.5" rx="16" ry="4.5" fill="black"/>
</svg>
