<svg xmlns="http://www.w3.org/2000/svg" width="48" height="48" fill="none" viewBox="0 0 48 48">
  <rect width="38" height="38" x="5" y="5" fill="#000" opacity=".2" rx="4"/>
  <rect width="28" height="28" x="10" y="10" fill="#000" opacity=".6" rx="4"/>
  <path fill="#000" d="M10 27.34c0-2.184 0-3.276.415-4.114a4 4 0 011.81-1.81C13.066 21 14.157 21 16.341 21c.608 0 .912 0 1.21.045a4 4 0 01.82.214c.28.107.545.256 1.076.553l1.991 1.12c.908.51 1.361.764 1.86.894.497.13 1.018.13 2.058.13h5.622c2.83 0 4.245 0 5.258.684a4 4 0 011.08 1.08C38 26.734 38 28.15 38 30.978c0 2.83 0 4.245-.684 5.258a4.003 4.003 0 01-1.08 1.08C35.224 38 33.809 38 30.979 38H18c-3.771 0-5.657 0-6.828-1.172C10 35.657 10 33.771 10 30v-2.66z"/>
</svg>
