<svg width="48" height="48" viewBox="0 0 48 48" fill="none" xmlns="http://www.w3.org/2000/svg">
<rect opacity="0.4" x="10" y="23" width="28" height="20" rx="2" fill="black"/>
<rect opacity="0.4" x="13" y="23" width="22" height="17" rx="2" fill="black"/>
<path opacity="0.8" d="M10 9.8C10 7.53726 10 6.40589 10.7455 5.70294C11.4911 5 12.691 5 15.0909 5H32.9091C35.309 5 36.5089 5 37.2545 5.70294C38 6.40589 38 7.53726 38 9.8V13H10V9.8Z" fill="black"/>
<circle opacity="0.4" cx="10.5" cy="18.5" r="4.5" fill="black"/>
<circle opacity="0.8" cx="17.5" cy="18.5" r="1.5" fill="black"/>
<path fill-rule="evenodd" clip-rule="evenodd" d="M5 18.5C5 15.9073 5 14.6109 5.742 13.8055C6.48399 13 7.67822 13 10.0667 13H37.9333C40.3218 13 41.516 13 42.258 13.8055C43 14.6109 43 15.9073 43 18.5V29.5C43 32.0927 43 33.3891 42.258 34.1945C41.516 35 40.3218 35 37.9333 35V32.25C37.9333 29.6573 37.9333 28.3609 37.1913 27.5555C36.4493 26.75 35.2551 26.75 32.8667 26.75H15.1333C12.7449 26.75 11.5507 26.75 10.8087 27.5555C10.0667 28.3609 10.0667 29.6573 10.0667 32.25L10.0667 35C7.67822 35 6.48399 35 5.742 34.1945C5 33.3891 5 32.0927 5 29.5V18.5ZM7 18.5C7 16.567 8.567 15 10.5 15C12.433 15 14 16.567 14 18.5C14 20.433 12.433 22 10.5 22C8.567 22 7 20.433 7 18.5ZM17.5 20C18.3284 20 19 19.3284 19 18.5C19 17.6716 18.3284 17 17.5 17C16.6716 17 16 17.6716 16 18.5C16 19.3284 16.6716 20 17.5 20Z" fill="black"/>
</svg>
