<svg xmlns="http://www.w3.org/2000/svg" width="48" height="48" fill="none" viewBox="0 0 48 48">
  <path fill="#000" d="M28.742 12.49c9.614 13.126 5.608 30.382-4.858 30.382-10.484 0-12.634-16.354-4.65-24.76.287-.301.793-.112.912.286 1.22 4.05 7.335 2.188 7.67-5.585.02-.483.64-.712.926-.322z" opacity=".6"/>
  <path fill="#000" d="M30.308 1.157C44.713 19.5 38.961 44 23.698 44 8.416 44 5.395 20.802 17.304 9.194c.294-.287.79-.093.884.307 1.481 6.286 11.048 3.616 11.208-8.01.006-.479.616-.711.912-.334z" opacity=".2"/>
  <path fill="#000" d="M30.308 1.157C44.713 19.5 38.961 44 23.698 44 8.416 44 5.395 20.802 17.304 9.194c.294-.287.79-.093.884.307 1.481 6.286 11.048 3.616 11.208-8.01.006-.479.616-.711.912-.334z" opacity=".2"/>
  <g>
    <path fill="#000" d="M21.479 41c.744.472 1.64.744 2.68.744A4.58 4.58 0 0026.697 41h-5.218z" opacity=".2"/>
    <path fill="#000" d="M26.533 24.257c5.535 7.122 3.565 17.487-2.374 17.487-6.067 0-7.195-9.222-2.293-13.634a.52.52 0 01.17-.1c1.605-.585 2.83-2.234 3.68-3.684.177-.302.602-.346.817-.07z"/>
  </g>
</svg>
