<svg xmlns="http://www.w3.org/2000/svg" width="48" height="48" fill="none" viewBox="0 0 48 48">
  <path fill="#000" d="M9 33.105a1 1 0 011-1h28a1 1 0 011 1 4 4 0 01-4 4H13a4 4 0 01-4-4z"/>
  <rect width="32" height="3" x="8" y="24.105" fill="#000" opacity=".4" rx="1.5"/>
  <path fill="#000" d="M33.32 29.825l.68-2.72h-8l5.854 3.346a1 1 0 001.466-.626z" opacity=".4"/>
  <path fill="#000" fill-rule="evenodd" d="M8.5 27.105a2.5 2.5 0 000 5h31a2.5 2.5 0 000-5H34l-.68 2.72a1 1 0 01-1.466.626L26 27.105H8.5z" clip-rule="evenodd" opacity=".8"/>
  <rect width="30" height="3" x="9" y="19.105" fill="#000" opacity=".8" rx="1.5"/>
  <rect width="28" height="2" x="10" y="22.105" fill="#000" rx="1"/>
  <path fill="#000" d="M16.942 25.477L19 24.105h-4l.493.987a1 1 0 001.45.385z"/>
  <g opacity=".4">
    <path fill="#000" d="M21 13.605a.5.5 0 11-1 0 .5.5 0 011 0zM26 12.605a.5.5 0 11-1 0 .5.5 0 011 0zM29 16.605a.5.5 0 11-1 0 .5.5 0 011 0zM33 14.605a.5.5 0 11-1 0 .5.5 0 011 0zM17 15.605a.5.5 0 11-1 0 .5.5 0 011 0z"/>
  </g>
  <path fill="#000" fill-rule="evenodd" d="M10.47 19.105A1.47 1.47 0 019 17.635v-.256a5.577 5.577 0 014.635-5.497 61.348 61.348 0 0120.73 0A5.577 5.577 0 0139 17.379v.256a1.47 1.47 0 01-1.47 1.47H10.47zm15.53-6.5a.5.5 0 11-1 0 .5.5 0 011 0zm-5 1a.5.5 0 11-1 0 .5.5 0 011 0zm7.5 3.5a.5.5 0 100-1 .5.5 0 000 1zm4.5-2.5a.5.5 0 11-1 0 .5.5 0 011 0zm-16.5 1.5a.5.5 0 100-1 .5.5 0 000 1z" clip-rule="evenodd"/>
</svg>
