<svg xmlns="http://www.w3.org/2000/svg" width="48" height="48" fill="none" viewBox="0 0 48 48">
  <rect width="38" height="38" x="5" y="5" fill="#000" opacity=".2" rx="4"/>
  <path fill="#000" d="M16.766 30.202C4.171 16.767 26.364 8.252 36.55 9.052c.754.06 1.364.596 1.473 1.344 1.341 9.223-6.935 35.082-21.256 19.806z"/>
  <path fill="#000" d="M12.531 38.696a1.5 1.5 0 002.938.608l-2.938-.608zm23.4-25.52a1.5 1.5 0 00-1.863-2.351l1.864 2.35zM27.89 26.641a1.5 1.5 0 101.222-2.74l-1.222 2.74zm-7.929-8.294a1.5 1.5 0 10-1.92 2.304l1.92-2.304zm8.872-6.596a1.5 1.5 0 00-1.664 2.496l1.664-2.496zm4.11 6.64a1.5 1.5 0 101.115-2.785l-1.114 2.786zM15.47 39.305c.957-4.628 3.575-9.13 6.709-13.103l-2.356-1.858c-3.278 4.156-6.2 9.085-7.29 14.353l2.937.608zm6.529-12.912c.304-.271 2.312-1.345 5.891.25l1.222-2.74c-4.42-1.97-7.746-.965-9.109.25l1.996 2.24zm.436-.682c.463-1.512.504-4.881-2.474-7.362l-1.92 2.304c1.822 1.52 1.73 3.512 1.526 4.181l2.869.877zm-.256.49c2.898-3.674 5.174-5.818 7.804-8.097l-1.964-2.267c-2.724 2.36-5.146 4.64-8.196 8.507l2.356 1.858zm7.804-8.097a185.51 185.51 0 014.051-3.396 223.134 223.134 0 011.763-1.423l.102-.082a5.9 5.9 0 01.026-.02l.006-.005.002-.001L35 12l-.932-1.175-.002.002a.408.408 0 01-.035.027 136.882 136.882 0 00-.5.4c-.34.273-.822.661-1.395 1.129a188.595 188.595 0 00-4.118 3.453l1.964 2.267zm.497-.884c.105-.62.166-1.579.015-2.538-.142-.908-.534-2.177-1.662-2.93l-1.664 2.497c.072.048.264.269.363.899.09.577.052 1.204-.01 1.574l2.958.498zm-.825 1.1c.349-.168 1.74-.546 3.289.074l1.114-2.786c-2.45-.98-4.726-.465-5.711.013l1.308 2.7z"/>
</svg>
