<svg xmlns="http://www.w3.org/2000/svg" width="48" height="48" fill="none" viewBox="0 0 48 48">
  <rect width="38" height="38" x="5" y="5" fill="#000" opacity=".2" rx="4"/>
  <path fill="#000" d="M29.18 8.056C41.092 22.212 36.254 41 23.494 41 10.713 41 8.152 23.192 18.03 14.193c.296-.269.772-.075.885.308 1.363 4.606 9.078 2.575 9.355-6.094.015-.47.606-.71.91-.351z" opacity=".6"/>
  <path fill="#000" d="M26.066 24.546C31.053 30.857 29.258 40 23.872 40c-5.512 0-6.54-8.166-2.091-12.079a.522.522 0 01.17-.097c1.434-.514 2.535-1.94 3.305-3.21.18-.296.596-.34.81-.068z"/>
</svg>
