<svg xmlns="http://www.w3.org/2000/svg" width="48" height="48" fill="none" viewBox="0 0 48 48">
  <path fill="#000" d="M15.238 32.258C-2.477 12.869 29.286.66 43.224 2.118a1.681 1.681 0 011.5 1.373c2.243 12.694-9.308 50.85-29.486 28.767z" opacity=".6"/>
  <path fill="#000" fill-rule="evenodd" d="M25.773 5H35c3.772 0 5.657 0 6.829 1.172C43 7.343 43 9.229 43 13v7.038c1.792-6.261 2.418-12.622 1.724-16.547a1.681 1.681 0 00-1.5-1.374C38.563 1.63 31.907 2.672 25.775 5z" clip-rule="evenodd" opacity=".2"/>
  <path fill="#000" d="M15.274 45.365a1.5 1.5 0 102.451-1.73l-2.45 1.73zm26.13-36.668a1.5 1.5 0 00-1.809-2.394l1.809 2.394zM29.599 31.538a1.5 1.5 0 002.8-1.076l-2.8 1.076zM14.787 16.015a1.5 1.5 0 10.425 2.97l-.425-2.97zM24 8.5a1.5 1.5 0 000 3v-3zm12.595 12.027a1.5 1.5 0 102.809-1.054l-2.809 1.054zm-18.87 23.108c-1.358-1.923-1.915-3.668-2.007-5.241-.092-1.583.282-3.094.944-4.55 1.375-3.016 3.771-5.432 5.515-7.643l-2.355-1.858c-1.462 1.853-4.315 4.802-5.89 8.258-.811 1.781-1.336 3.783-1.209 5.968.128 2.194.909 4.47 2.551 6.796l2.451-1.73zm4.273-17.243c-.193.17-.312.156-.107.11.142-.031.372-.06.682-.063a7.18 7.18 0 012.316.4c1.725.59 3.642 1.921 4.71 4.7l2.8-1.078c-1.43-3.721-4.097-5.625-6.54-6.46a10.17 10.17 0 00-3.308-.562 6.344 6.344 0 00-1.31.135c-.33.073-.84.221-1.24.578l1.997 2.24zm.436-.682c.144-.47.253-1.319.253-2.253 0-.964-.115-2.172-.52-3.344-.406-1.179-1.136-2.4-2.412-3.231-1.29-.84-2.948-1.155-4.968-.867l.425 2.97c1.48-.212 2.363.058 2.907.411.557.363.953.942 1.213 1.695.262.76.355 1.614.355 2.366 0 .37-.023.697-.052.953-.015.128-.031.232-.046.31-.015.085-.026.119-.024.113l2.869.877zm-.257.49c2.894-3.669 7.167-7.781 9.805-10.066l-1.965-2.268c-2.715 2.353-7.14 6.604-10.195 10.477l2.355 1.858zm9.805-10.066c1.411-1.223 3.756-3.075 5.772-4.639a423.592 423.592 0 013.632-2.784c.006-.005.01-.009.013-.01l.004-.004L40.5 7.5a2074.354 2074.354 0 00-.905-1.196l-.004.003-.015.011-.056.043a153.655 153.655 0 00-1.007.766c-.667.51-1.587 1.214-2.597 1.998-2.011 1.56-4.416 3.458-5.898 4.741l1.965 2.268zm.497-.885c.08-.473-.026-.916-.12-1.207a5.208 5.208 0 00-.45-.99 8.921 8.921 0 00-1.637-2.02C28.858 9.712 26.717 8.5 24 8.5v3c1.782 0 3.224.792 4.227 1.726a5.94 5.94 0 011.082 1.324c.11.19.169.33.194.41.038.118-.02.017.017-.21l2.959.5zm-.825 1.1c-.296.144-.494.095-.322.106.087.006.246.028.471.084a7.51 7.51 0 011.677.663c1.282.684 2.535 1.778 3.115 3.325l2.809-1.054c-.92-2.453-2.833-4.021-4.51-4.917a10.495 10.495 0 00-2.37-.93 5.807 5.807 0 00-.995-.165c-.227-.015-.721-.035-1.184.19l1.309 2.699z" opacity=".6"/>
</svg>
