<svg width="48" height="48" viewBox="0 0 48 48" fill="none" xmlns="http://www.w3.org/2000/svg">
<rect opacity="0.2" x="5" y="5" width="38" height="38" rx="4" fill="black"/>
<path opacity="0.6" d="M11 30C11 29.4477 11.4477 29 12 29H36C36.5523 29 37 29.4477 37 30C37 32.2091 35.2091 34 33 34H15C12.7909 34 11 32.2091 11 30Z" fill="black"/>
<path opacity="0.6" d="M11 18.8718C11 19.4949 11.5051 20 12.1282 20H35.8718C36.4949 20 37 19.4949 37 18.8718C37 16.6443 35.3748 14.75 33.1733 14.4113L32.6267 14.3272C26.9092 13.4476 21.0908 13.4476 15.3733 14.3272L14.8267 14.4113C12.6252 14.75 11 16.6443 11 18.8718Z" fill="black"/>
<rect opacity="0.6" x="11" y="23" width="26" height="2" rx="1" fill="black"/>
<path opacity="0.6" d="M33.3646 26.9062L34 25H27L31.9687 27.4844C32.513 27.7565 33.1722 27.4835 33.3646 26.9062Z" fill="black"/>
<path fill-rule="evenodd" clip-rule="evenodd" d="M11 25C9.89543 25 9 25.8954 9 27C9 28.1046 9.89543 29 11 29H37C38.1046 29 39 28.1046 39 27C39 25.8954 38.1046 25 37 25H34L33.3646 26.9062C33.1722 27.4835 32.513 27.7565 31.9687 27.4844L27 25H11Z" fill="black"/>
<rect opacity="0.2" x="10" y="20" width="28" height="3" rx="1.5" fill="black"/>
</svg>
