<svg width="48" height="48" viewBox="0 0 48 48" fill="none" xmlns="http://www.w3.org/2000/svg">
<path opacity="0.8" d="M8.02948 34.3252L6.66326 40.2271C6.37598 41.4681 7.72403 42.4451 8.81958 41.7898L17.9717 36.3155C19.5473 35.3731 21.3502 34.8753 23.1876 34.8753H17.483C13.1246 34.8753 10.1573 34.8753 8.02948 34.3252Z" fill="black"/>
<g opacity="0.4">
<path d="M16.0344 20.4383C16.0344 22.8304 14.0891 24.7696 11.6896 24.7696C9.28997 24.7696 7.34473 22.8304 7.34473 20.4383C7.34473 18.0461 9.28997 16.1069 11.6896 16.1069C14.0891 16.1069 16.0344 18.0461 16.0344 20.4383Z" fill="black"/>
<path d="M39.2068 20.4383C39.2068 22.8304 37.2615 24.7696 34.862 24.7696C32.4624 24.7696 30.5171 22.8304 30.5171 20.4383C30.5171 18.0461 32.4624 16.1069 34.862 16.1069C37.2615 16.1069 39.2068 18.0461 39.2068 20.4383Z" fill="black"/>
<path d="M27.6206 20.4383C27.6206 22.8304 25.6753 24.7696 23.2758 24.7696C20.8762 24.7696 18.9309 22.8304 18.9309 20.4383C18.9309 18.0461 20.8762 16.1069 23.2758 16.1069C25.6753 16.1069 27.6206 18.0461 27.6206 20.4383Z" fill="black"/>
</g>
<path fill-rule="evenodd" clip-rule="evenodd" d="M5.12095 8.11437C3 10.2287 3 13.6318 3 20.4378C3 27.2439 3 30.6469 5.12095 32.7613C7.2419 34.8756 10.6555 34.8756 17.4828 34.8756H30.5172C37.3445 34.8756 40.7581 34.8756 42.879 32.7613C45 30.6469 45 27.2439 45 20.4378C45 13.6318 45 10.2287 42.879 8.11437C40.7581 6 37.3445 6 30.5172 6H17.4828C10.6555 6 7.2419 6 5.12095 8.11437ZM16.0345 20.4378C16.0345 22.8299 14.0892 24.7692 11.6897 24.7692C9.29007 24.7692 7.34483 22.8299 7.34483 20.4378C7.34483 18.0457 9.29007 16.1065 11.6897 16.1065C14.0892 16.1065 16.0345 18.0457 16.0345 20.4378ZM39.2069 20.4378C39.2069 22.8299 37.2617 24.7692 34.8621 24.7692C32.4625 24.7692 30.5172 22.8299 30.5172 20.4378C30.5172 18.0457 32.4625 16.1065 34.8621 16.1065C37.2617 16.1065 39.2069 18.0457 39.2069 20.4378ZM23.2759 24.7692C25.6754 24.7692 27.6207 22.8299 27.6207 20.4378C27.6207 18.0457 25.6754 16.1065 23.2759 16.1065C20.8763 16.1065 18.931 18.0457 18.931 20.4378C18.931 22.8299 20.8763 24.7692 23.2759 24.7692Z" fill="black"/>
</svg>
