<svg xmlns="http://www.w3.org/2000/svg" width="48" height="48" fill="none" viewBox="0 0 48 48">
  <rect width="38" height="33" x="5" y="10" fill="#000" opacity=".2" rx="4"/>
  <path fill="#000" d="M32.8 15.496c-6.52-2.145-11.08-2.145-17.6 0-4.4 1.448-11.733 2.896-11.733 2.896l-.905-3.57c-.348-1.376.04-2.856 1.157-3.73 10.364-8.122 30.198-8.122 40.562 0 1.117.874 1.505 2.354 1.157 3.73l-.905 3.57S37.2 16.944 32.8 15.496z"/>
  <path fill="#000" d="M3.467 18.392L15.2 15.496l.43 1.271c.485 1.439.728 2.158.414 2.73-.314.574-1.051.755-2.524 1.119L7.63 22.07c-1.28.315-1.919.473-2.436.19-.517-.284-.728-.908-1.15-2.157l-.577-1.711zM44.533 18.392L32.8 15.496l-.43 1.271c-.485 1.439-.728 2.158-.414 2.73.314.574 1.051.755 2.524 1.119l5.89 1.454c1.28.315 1.919.473 2.436.19.517-.284.728-.908 1.15-2.157l.577-1.711z"/>
  <circle cx="13" cy="28" r="3" fill="#000" opacity=".6"/>
  <circle cx="13" cy="37" r="3" fill="#000" opacity=".6"/>
  <circle cx="35" cy="28" r="3" fill="#000" opacity=".6"/>
  <circle cx="35" cy="37" r="3" fill="#000" opacity=".6"/>
  <circle cx="24" cy="28" r="3" fill="#000" opacity=".6"/>
  <circle cx="24" cy="37" r="3" fill="#000" opacity=".6"/>
</svg>
