<svg width="48" height="48" viewBox="0 0 48 48" fill="none" xmlns="http://www.w3.org/2000/svg">
<rect opacity="0.2" x="5" y="5" width="38" height="38" rx="4" fill="black"/>
<path fill-rule="evenodd" clip-rule="evenodd" d="M36.3454 14.132C34.9785 12.7651 32.7625 12.7651 31.3956 14.132L16.8999 28.6276C16.5094 29.0182 16.5094 29.6513 16.8999 30.0419C17.2905 30.4324 17.9236 30.4324 18.3141 30.0419L32.1027 16.2533C32.6885 15.6675 33.6383 15.6675 34.224 16.2533C34.8098 16.8391 34.8098 17.7888 34.224 18.3746L20.4355 32.1632C18.8734 33.7253 16.3407 33.7253 14.7786 32.1632C13.2165 30.6011 13.2165 28.0684 14.7786 26.5063L29.2743 12.0106C31.8127 9.47223 35.9283 9.47223 38.4667 12.0106C41.0051 14.549 41.0051 18.6646 38.4667 21.203L23.971 35.6987C20.4563 39.2134 14.7578 39.2134 11.2431 35.6987C7.72836 32.184 7.72836 26.4855 11.2431 22.9708L23.6174 10.5964C24.2032 10.0106 25.153 10.0106 25.7388 10.5964C26.3246 11.1822 26.3246 12.132 25.7388 12.7177L13.3644 25.0921C11.0213 27.4353 11.0213 31.2342 13.3644 33.5774C15.7075 35.9205 19.5065 35.9205 21.8497 33.5774L36.3454 19.0817C37.7122 17.7149 37.7122 15.4988 36.3454 14.132Z" fill="black"/>
</svg>
