<svg xmlns="http://www.w3.org/2000/svg" width="48" height="48" fill="none" viewBox="0 0 48 48">
  <path fill="#000" fill-rule="evenodd" d="M39.458 13.531a4.278 4.278 0 00-6.05 0L15.693 31.248a1.222 1.222 0 101.728 1.729l16.853-16.853a1.833 1.833 0 012.593 2.593L20.013 35.57a4.889 4.889 0 01-6.914-6.914l17.717-17.717A7.944 7.944 0 0142.05 22.174L24.334 39.89c-4.296 4.296-11.26 4.296-15.556 0-4.296-4.296-4.296-11.26 0-15.556L23.902 9.21a1.833 1.833 0 112.593 2.593L11.37 26.927a7.333 7.333 0 0010.371 10.371l17.717-17.717a4.278 4.278 0 000-6.05z" clip-rule="evenodd" opacity=".8"/>
  <path fill="#000" fill-rule="evenodd" d="M32.113 32.113l9.939-9.94A7.944 7.944 0 1030.817 10.94l-9.94 9.939 2.594 2.592 9.938-9.939a4.278 4.278 0 116.05 6.05L29.52 29.52l2.593 2.593zm-4.321-4.322l9.074-9.074a1.833 1.833 0 00-2.592-2.593L25.199 25.2l2.593 2.592zm-8.643-8.642l7.346-7.346a1.833 1.833 0 10-2.592-2.593l-7.346 7.346 2.592 2.593z" clip-rule="evenodd"/>
</svg>
