<svg width="48" height="48" viewBox="0 0 48 48" fill="none" xmlns="http://www.w3.org/2000/svg">
<path opacity="0.4" fill-rule="evenodd" clip-rule="evenodd" d="M8.68945 15.1064C8.68945 13.4496 10.0326 12.1064 11.6895 12.1064H36.3101C37.967 12.1064 39.3101 13.4496 39.3101 15.1064C39.3101 16.7633 37.967 18.1064 36.3101 18.1064H11.6895C10.0326 18.1064 8.68945 16.7633 8.68945 15.1064ZM8.68945 25.769C8.68945 24.1122 10.0326 22.769 11.6895 22.769H27.6205C29.2773 22.769 30.6205 24.1122 30.6205 25.769C30.6205 27.4259 29.2773 28.769 27.6205 28.769H11.6895C10.0326 28.769 8.68945 27.4259 8.68945 25.769Z" fill="black"/>
<path fill-rule="evenodd" clip-rule="evenodd" d="M4.46447 7.46447C3 8.92893 3 11.286 3 16V24.8753C3 29.5894 3 31.9464 4.46447 33.4108C5.92893 34.8753 8.28595 34.8753 13 34.8753H35C39.714 34.8753 42.0711 34.8753 43.5355 33.4108C45 31.9464 45 29.5894 45 24.8753V16C45 11.286 45 8.92893 43.5355 7.46447C42.0711 6 39.714 6 35 6H13C8.28595 6 5.92893 6 4.46447 7.46447ZM11.6897 12.1064C10.0328 12.1064 8.6897 13.4495 8.6897 15.1064C8.6897 16.7632 10.0328 18.1064 11.6897 18.1064H36.3104C37.9672 18.1064 39.3104 16.7632 39.3104 15.1064C39.3104 13.4495 37.9672 12.1064 36.3104 12.1064H11.6897ZM11.6897 22.769C10.0328 22.769 8.6897 24.1121 8.6897 25.769C8.6897 27.4258 10.0328 28.769 11.6897 28.769H27.6207C29.2776 28.769 30.6207 27.4258 30.6207 25.769C30.6207 24.1121 29.2776 22.769 27.6207 22.769H11.6897Z" fill="black"/>
<path opacity="0.8" d="M8.02948 34.3252L6.66326 40.227C6.37598 41.4681 7.72403 42.445 8.81958 41.7897L17.9717 36.3155C19.5473 35.3731 21.3502 34.8753 23.1876 34.8753H17.483C13.1246 34.8753 10.1573 34.8753 8.02948 34.3252Z" fill="black"/>
</svg>
