<svg xmlns="http://www.w3.org/2000/svg" width="48" height="48" fill="none" viewBox="0 0 48 48">
  <path fill="#000" d="M5 13c0-3.771 0-5.657 1.172-6.828C7.343 5 9.229 5 13 5h22c3.771 0 5.657 0 6.828 1.172C43 7.343 43 9.229 43 13v22c0 3.771 0 5.657-1.172 6.828C40.657 43 38.771 43 35 43H13c-3.771 0-5.657 0-6.828-1.172C5 40.657 5 38.771 5 35V13z" opacity=".2"/>
  <path fill="#000" fill-rule="evenodd" d="M23.621 35.771C19.748 32.921 7.581 11 24 11s4.251 21.922.378 24.771a.63.63 0 01-.757 0zM24 24a5 5 0 100-10 5 5 0 000 10z" clip-rule="evenodd"/>
</svg>
