<svg xmlns="http://www.w3.org/2000/svg" width="48" height="48" fill="none" viewBox="0 0 48 48">
  <rect width="38" height="38" x="5" y="5" fill="#000" opacity=".2" rx="4"/>
  <g opacity=".6">
    <path fill="#000" d="M25.266 33.921a10.169 10.169 0 01-2.532 0c-1.604-2.597-2.504-5.83-2.676-9.088h7.884c-.172 3.257-1.073 6.491-2.676 9.088zM27.472 33.385c3.58-1.316 6.202-4.61 6.528-8.552h-4.384c-.145 2.967-.854 5.954-2.144 8.552zM29.639 23.167H34c-.322-3.89-2.878-7.15-6.387-8.5 1.293 2.481 1.957 5.468 2.026 8.5zM25.31 14.085a10.159 10.159 0 00-2.62 0c-1.668 2.38-2.573 5.643-2.656 9.082h7.932c-.083-3.44-.988-6.702-2.655-9.082zM18.384 24.833c.145 2.967.854 5.954 2.144 8.552-3.58-1.316-6.202-4.61-6.528-8.552h4.384zM18.361 23.167c.069-3.032.733-6.019 2.026-8.5-3.509 1.35-6.065 4.61-6.387 8.5h4.361z"/>
  </g>
  <path fill="#000" fill-rule="evenodd" d="M24 38c7.732 0 14-6.268 14-14s-6.268-14-14-14-14 6.268-14 14 6.268 14 14 14zm12-14c0 6.627-5.373 12-12 12s-12-5.373-12-12 5.373-12 12-12 12 5.373 12 12z" clip-rule="evenodd"/>
</svg>
