<svg xmlns="http://www.w3.org/2000/svg" width="48" height="48" fill="none" viewBox="0 0 48 48">
  <rect width="44" height="44" x="2" y="2" fill="#000" opacity=".2" rx="22"/>
  <path fill="#000" d="M25.899 38.882a15.252 15.252 0 01-3.798 0c-2.405-3.896-3.756-8.747-4.014-13.632h11.826c-.258 4.885-1.609 9.736-4.014 13.632zM29.207 38.078C34.58 36.104 38.51 31.163 39 25.25h-6.576c-.218 4.45-1.282 8.93-3.217 12.828zM32.458 22.75H39c-.483-5.835-4.318-10.723-9.581-12.748 1.94 3.72 2.937 8.2 3.039 12.748zM25.966 9.127a15.244 15.244 0 00-3.932 0c-2.5 3.571-3.858 8.464-3.982 13.623h11.896c-.124-5.159-1.482-10.052-3.982-13.623zM15.576 25.25c.217 4.45 1.282 8.93 3.217 12.828C13.42 36.104 9.49 31.163 9 25.25h6.576zM15.542 22.75c.102-4.548 1.098-9.028 3.039-12.748C13.318 12.026 9.483 16.915 9 22.75h6.542z"/>
  <path fill="#000" fill-rule="evenodd" d="M24 46c12.15 0 22-9.85 22-22S36.15 2 24 2 2 11.85 2 24s9.85 22 22 22zm18.857-22c0 10.414-8.443 18.857-18.857 18.857-10.415 0-18.857-8.443-18.857-18.857C5.143 13.585 13.585 5.143 24 5.143c10.414 0 18.857 8.442 18.857 18.857z" clip-rule="evenodd" opacity=".2"/>
</svg>
