<svg xmlns="http://www.w3.org/2000/svg" width="48" height="48" fill="none" viewBox="0 0 48 48">
  <rect width="38" height="38" x="5" y="5" fill="#000" opacity=".2" rx="4"/>
  <path fill="#000" d="M13.037 36v-1.2c.68-.02 1.22-.08 1.62-.18.42-.1.74-.27.96-.51.24-.24.4-.58.48-1.02.08-.44.12-1.01.12-1.71V17.52c0-.7-.03-1.26-.09-1.68-.06-.44-.19-.78-.39-1.02-.18-.26-.44-.43-.78-.51-.32-.1-.75-.17-1.29-.21v-1.2h9.63c3.02 0 5.34.49 6.96 1.47 1.64.96 2.46 2.34 2.46 4.14 0 2.38-1.71 4.06-5.13 5.04v.12c1.1 0 2.09.16 2.97.48.9.3 1.66.73 2.28 1.29.62.56 1.1 1.22 1.44 1.98.34.76.51 1.59.51 2.49 0 1.02-.25 1.91-.75 2.67-.48.76-1.18 1.4-2.1 1.92-1.78 1-4.23 1.5-7.35 1.5h-11.55zm11.76-1.83c3.22 0 4.83-1.45 4.83-4.35 0-1.78-.58-3.08-1.74-3.9-.6-.42-1.38-.72-2.34-.9-.94-.18-2.1-.27-3.48-.27h-1.44v6c0 1.24.32 2.12.96 2.64.64.52 1.71.78 3.21.78zm-2.4-11.22c.9 0 1.68-.08 2.34-.24.66-.18 1.22-.43 1.68-.75.96-.66 1.44-1.69 1.44-3.09 0-1.46-.36-2.51-1.08-3.15-.72-.66-1.88-.99-3.48-.99h-2.13c-.36 0-.54.17-.54.51v7.71h1.77z"/>
</svg>
