<svg xmlns="http://www.w3.org/2000/svg" width="48" height="48" fill="none" viewBox="0 0 48 48">
  <rect width="38" height="38" x="5" y="5" fill="#000" opacity=".2" rx="4"/>
  <path fill="#000" d="M32.619 18.69c0 1.66-.48 3.05-1.44 4.17s-2.49 1.87-4.59 2.25l6.96 7.98a4.9 4.9 0 001.71 1.29c.66.28 1.33.42 2.01.42V36h-7.11l-7.44-9.12c-.5-.6-.94-1-1.32-1.2-.36-.22-.7-.33-1.02-.33v5.88c0 .74.05 1.35.15 1.83.1.46.3.82.6 1.08.3.26.73.44 1.29.54.58.08 1.35.12 2.31.12V36h-11.91v-1.2c.66 0 1.19-.04 1.59-.12.42-.1.74-.27.96-.51.24-.26.4-.61.48-1.05.08-.46.12-1.04.12-1.74V17.52c0-.7-.03-1.26-.09-1.68-.06-.44-.19-.78-.39-1.02-.2-.26-.49-.43-.87-.51-.36-.1-.85-.17-1.47-.21v-1.2h10.38c2.9 0 5.14.51 6.72 1.53s2.37 2.44 2.37 4.26zm-12.24 4.86h1.95c1.88 0 3.28-.36 4.2-1.08.94-.74 1.41-1.95 1.41-3.63 0-1.28-.39-2.31-1.17-3.09-.78-.78-1.86-1.17-3.24-1.17h-2.61c-.36 0-.54.17-.54.51v8.46z"/>
</svg>
