<svg xmlns="http://www.w3.org/2000/svg" width="48" height="48" fill="none" viewBox="0 0 48 48">
  <g clip-path="url(#clip0_86:317)">
    <path fill="#000" d="M28.204 17.276H34.1c-.085-5.185-4.346-8.765-10.824-8.765-6.378 0-11.05 3.523-11.022 8.807-.015 4.29 3.01 6.747 7.926 7.926l3.167.796c3.168.767 4.93 1.676 4.943 3.636-.014 2.13-2.03 3.58-5.156 3.58-3.196 0-5.497-1.478-5.696-4.39h-5.952c.157 6.293 4.66 9.546 11.72 9.546 7.102 0 11.278-3.395 11.292-8.722-.014-4.843-3.665-7.414-8.722-8.55l-2.613-.626c-2.529-.582-4.645-1.52-4.603-3.608 0-1.875 1.662-3.253 4.674-3.253 2.94 0 4.744 1.336 4.971 3.623z"/>
  </g>
  <defs>
    <clipPath id="clip0_86:317">
      <path fill="#fff" d="M0 0h48v48H0z"/>
    </clipPath>
  </defs>
</svg>
