<svg xmlns="http://www.w3.org/2000/svg" width="48" height="48" fill="none" viewBox="0 0 48 48">
  <rect width="38" height="38" x="5" y="5" fill="#000" opacity=".2" rx="4"/>
  <path fill="#000" d="M11.266 36v-1.2c.66-.02 1.19-.07 1.59-.15.42-.1.74-.27.96-.51.24-.26.4-.6.48-1.02.08-.44.12-1.02.12-1.74V17.52c0-.7-.03-1.26-.09-1.68-.06-.44-.19-.78-.39-1.02-.2-.26-.48-.43-.84-.51-.34-.1-.79-.17-1.35-.21v-1.2h11.4c1.92 0 3.69.3 5.31.9 1.62.6 3.02 1.43 4.2 2.49 1.18 1.06 2.1 2.32 2.76 3.78.66 1.46.99 3.05.99 4.77 0 1.64-.31 3.15-.93 4.53-.62 1.36-1.49 2.53-2.61 3.51-1.1.98-2.43 1.75-3.99 2.31-1.54.54-3.24.81-5.1.81h-12.51zm8.07-21.27c-.34 0-.51.17-.51.51v15.51c0 1.16.36 2.02 1.08 2.58.72.56 1.83.84 3.33.84 2.62 0 4.63-.79 6.03-2.37 1.42-1.58 2.13-3.88 2.13-6.9 0-1.6-.19-3.03-.57-4.29-.38-1.26-.93-2.32-1.65-3.18a7.05 7.05 0 00-2.64-2.01c-1.02-.46-2.17-.69-3.45-.69h-3.75z"/>
</svg>
