<svg xmlns="http://www.w3.org/2000/svg" width="48" height="48" fill="none" viewBox="0 0 48 48">
  <path fill="#000" d="M39.254 16.1H37.62c-.076-1.241-.266-2.267-.57-3.078-.278-.836-.684-1.495-1.216-1.976a4.103 4.103 0 00-1.938-1.026c-.76-.203-1.647-.304-2.66-.304-.988 0-1.786.025-2.394.076-.582.025-1.038.089-1.368.19-.304.076-.506.19-.608.342a1.005 1.005 0 00-.152.57v19.912c0 .81.05 1.507.152 2.09.127.583.367 1.064.722 1.444.355.355.874.633 1.558.836.684.177 1.584.279 2.698.304V37H15.922v-1.52c1.14-.025 2.052-.127 2.736-.304.684-.203 1.203-.481 1.558-.836.38-.38.62-.861.722-1.444.127-.583.19-1.28.19-2.09V10.894c0-.228-.05-.418-.152-.57-.076-.152-.253-.266-.532-.342-.278-.101-.684-.165-1.216-.19a21.168 21.168 0 00-2.014-.076c-.912 0-1.786.05-2.622.152-.836.076-1.57.33-2.204.76-.633.405-1.152 1.039-1.558 1.9-.38.836-.582 2.027-.608 3.572H8.74l.38-8.36h29.754l.38 8.36z"/>
</svg>
