<svg xmlns="http://www.w3.org/2000/svg" width="48" height="48" fill="none" viewBox="0 0 48 48">
  <rect width="38" height="38" x="5" y="5" fill="#000" opacity=".2" rx="4"/>
  <path fill="#000" d="M34.397 36h-20.67v-1.2c.66-.02 1.2-.08 1.62-.18.42-.1.74-.27.96-.51.22-.24.37-.58.45-1.02.08-.44.12-1.01.12-1.71V17.52c0-.7-.04-1.26-.12-1.68-.06-.44-.19-.78-.39-1.02-.2-.26-.49-.43-.87-.51-.36-.1-.84-.17-1.44-.21v-1.2h10.35v1.2c-.68.02-1.23.08-1.65.18-.4.1-.71.28-.93.54-.22.26-.37.62-.45 1.08-.06.46-.09 1.07-.09 1.83V30.3c0 .84.08 1.53.24 2.07.18.52.48.93.9 1.23.42.28.98.48 1.68.6.7.1 1.57.15 2.61.15 1.16 0 2.13-.07 2.91-.21.78-.14 1.43-.4 1.95-.78.54-.4.97-.93 1.29-1.59.32-.66.59-1.52.81-2.58h1.2l-.48 6.81z"/>
</svg>
