<svg xmlns="http://www.w3.org/2000/svg" width="48" height="48" fill="none" viewBox="0 0 48 48">
  <path fill="#000" d="M7.87 37v-1.52c.836-.025 1.507-.089 2.014-.19.532-.127.937-.342 1.216-.646.304-.33.507-.76.608-1.292.101-.557.152-1.292.152-2.204V13.592c0-.887-.038-1.596-.114-2.128-.076-.557-.24-.988-.494-1.292-.253-.33-.608-.545-1.064-.646-.43-.127-1-.215-1.71-.266V7.74h14.44c2.432 0 4.674.38 6.726 1.14 2.052.76 3.825 1.811 5.32 3.154a14.259 14.259 0 013.496 4.788c.836 1.85 1.254 3.863 1.254 6.042 0 2.077-.393 3.99-1.178 5.738a13.011 13.011 0 01-3.306 4.446c-1.393 1.241-3.078 2.217-5.054 2.926-1.95.684-4.104 1.026-6.46 1.026H7.87zm10.222-26.942c-.43 0-.646.215-.646.646V30.35c0 1.47.456 2.559 1.368 3.268.912.71 2.318 1.064 4.218 1.064 3.319 0 5.865-1 7.638-3.002 1.799-2.001 2.698-4.915 2.698-8.74 0-2.027-.24-3.838-.722-5.434-.481-1.596-1.178-2.939-2.09-4.028a8.929 8.929 0 00-3.344-2.546c-1.292-.583-2.749-.874-4.37-.874h-4.75z"/>
</svg>
