<svg xmlns="http://www.w3.org/2000/svg" width="48" height="48" fill="none" viewBox="0 0 48 48">
  <rect width="38" height="38" x="5" y="5" fill="#000" opacity=".2" rx="4"/>
  <path fill="#000" d="M36.043 19.5h-1.29c-.06-.98-.21-1.79-.45-2.43-.22-.66-.54-1.18-.96-1.56-.42-.4-.93-.67-1.53-.81-.6-.16-1.3-.24-2.1-.24-.78 0-1.41.02-1.89.06-.46.02-.82.07-1.08.15-.24.06-.4.15-.48.27-.08.12-.12.27-.12.45v15.72c0 .64.04 1.19.12 1.65.1.46.29.84.57 1.14.28.28.69.5 1.23.66.54.14 1.25.22 2.13.24V36h-12.57v-1.2c.9-.02 1.62-.1 2.16-.24.54-.16.95-.38 1.23-.66.3-.3.49-.68.57-1.14.1-.46.15-1.01.15-1.65V15.39c0-.18-.04-.33-.12-.45-.06-.12-.2-.21-.42-.27-.22-.08-.54-.13-.96-.15-.4-.04-.93-.06-1.59-.06-.72 0-1.41.04-2.07.12-.66.06-1.24.26-1.74.6-.5.32-.91.82-1.23 1.5-.3.66-.46 1.6-.48 2.82h-1.17l.3-6.6h23.49l.3 6.6z"/>
</svg>
