<svg xmlns="http://www.w3.org/2000/svg" width="48" height="48" fill="none" viewBox="0 0 48 48">
  <g clip-path="url(#clip0_86:477)">
    <path fill="#000" d="M34.401 29.628l5.13-14.668c.608-1.697.912-2.964.912-3.8 0-.785-.278-1.292-.836-1.52-.532-.253-1.368-.38-2.508-.38V7.74h10.792v1.52c-.962 0-1.836.24-2.622.722-.76.456-1.342 1.241-1.748 2.356L34.363 37.38h-3.382L24.37 17.316 16.845 37.38h-3.154L5.635 15.188c-.481-1.292-.924-2.33-1.33-3.116-.405-.785-.836-1.38-1.292-1.786-.456-.405-.95-.671-1.482-.798s-1.165-.19-1.9-.19V7.74h14.364v1.558c-1.292 0-2.178.127-2.66.38-.481.228-.722.62-.722 1.178 0 .203.013.405.038.608.026.177.076.393.152.646.076.228.165.52.266.874.127.355.292.798.494 1.33l5.32 15.314 6.156-16.796c-.253-.684-.506-1.241-.76-1.672a3.276 3.276 0 00-.912-1.026c-.329-.253-.709-.43-1.14-.532a9.992 9.992 0 00-1.558-.304V7.74h13.414v1.558c-1.064 0-1.849.14-2.356.418-.506.253-.76.76-.76 1.52 0 .38.051.823.152 1.33.127.507.292 1.09.494 1.748l4.788 15.314z"/>
  </g>
  <defs>
    <clipPath id="clip0_86:477">
      <path fill="#fff" d="M0 0h48v48H0z"/>
    </clipPath>
  </defs>
</svg>
