<svg xmlns="http://www.w3.org/2000/svg" width="48" height="48" fill="none" viewBox="0 0 48 48">
  <path fill="#000" d="M34.917 15.074c0 2.103-.608 3.863-1.824 5.282-1.216 1.419-3.154 2.369-5.814 2.85l8.816 10.108a6.207 6.207 0 002.166 1.634 6.464 6.464 0 002.546.532V37H31.8l-9.424-11.552c-.633-.76-1.19-1.267-1.672-1.52-.456-.279-.887-.418-1.292-.418v7.448c0 .937.063 1.71.19 2.318.127.583.38 1.039.76 1.368.38.33.925.557 1.634.684.735.101 1.71.152 2.926.152V37H9.837v-1.52c.836 0 1.507-.05 2.014-.152.532-.127.937-.342 1.216-.646.304-.33.506-.773.608-1.33.101-.583.152-1.317.152-2.204V13.592c0-.887-.038-1.596-.114-2.128-.076-.557-.24-.988-.494-1.292-.253-.33-.62-.545-1.102-.646-.456-.127-1.077-.215-1.862-.266V7.74h13.148c3.673 0 6.51.646 8.512 1.938 2.001 1.292 3.002 3.09 3.002 5.396zM19.413 21.23h2.47c2.381 0 4.155-.456 5.32-1.368 1.19-.937 1.786-2.47 1.786-4.598 0-1.621-.494-2.926-1.482-3.914s-2.356-1.482-4.104-1.482h-3.306c-.456 0-.684.215-.684.646V21.23z"/>
</svg>
