<svg xmlns="http://www.w3.org/2000/svg" width="48" height="48" fill="none" viewBox="0 0 48 48">
  <rect width="38" height="38" x="5" y="5" fill="#000" opacity=".2" rx="4"/>
  <path fill="#000" d="M29.36 36H18.65v-1.2c.68-.02 1.22-.08 1.62-.18.42-.12.74-.33.96-.63.22-.3.37-.72.45-1.26.08-.56.12-1.31.12-2.25V18.42c0-.84-.04-1.53-.12-2.07-.06-.56-.19-1-.39-1.32-.2-.32-.49-.54-.87-.66-.36-.14-.85-.23-1.47-.27v-1.2h10.11v1.2c-.62.04-1.12.13-1.5.27-.36.12-.64.34-.84.66-.2.32-.34.76-.42 1.32-.06.54-.09 1.23-.09 2.07v12.06c0 .94.03 1.69.09 2.25.08.54.23.96.45 1.26.24.3.56.51.96.63.42.1.97.16 1.65.18V36z"/>
</svg>
