<svg xmlns="http://www.w3.org/2000/svg" width="48" height="48" fill="none" viewBox="0 0 48 48">
  <g clip-path="url(#clip0_86:297)">
    <path fill="#000" d="M36.617 23.454c0-9.517-5.91-14.943-13.622-14.943-7.756 0-13.622 5.427-13.622 14.944 0 9.474 5.866 14.943 13.622 14.943 1.818 0 3.537-.299 5.1-.895l2.343 2.883h5.738l-4.161-5.227c2.84-2.542 4.602-6.52 4.602-11.704zm-15.753 4.432l3.722 4.915a8.16 8.16 0 01-1.591.156c-4.475 0-7.387-3.338-7.387-9.503 0-6.164 2.912-9.502 7.387-9.502 4.46 0 7.386 3.338 7.386 9.502 0 3.168-.781 5.597-2.13 7.202l-2.16-2.77h-5.227z"/>
  </g>
  <defs>
    <clipPath id="clip0_86:297">
      <path fill="#fff" d="M0 0h48v48H0z"/>
    </clipPath>
  </defs>
</svg>
