<svg xmlns="http://www.w3.org/2000/svg" width="48" height="48" fill="none" viewBox="0 0 48 48">
  <path fill="#000" d="M35.483 32.782c.633.861 1.367 1.533 2.204 2.014.86.456 1.81.684 2.85.684V37H26.362v-1.52c.633 0 1.14-.025 1.52-.076.405-.05.709-.114.912-.19.227-.076.367-.177.417-.304a.797.797 0 00.114-.418c0-.152-.038-.304-.114-.456a2.833 2.833 0 00-.303-.646c-.152-.253-.355-.57-.608-.95-.254-.38-.583-.849-.988-1.406l-4.066-5.776-2.622 3.23a44.637 44.637 0 01-1.634 1.9c-.507.583-.976 1.127-1.407 1.634a14.81 14.81 0 00-.988 1.368c-.253.38-.38.722-.38 1.026 0 .405.254.684.76.836.507.152 1.343.228 2.509.228V37H7.819v-1.52c.684 0 1.266-.025 1.748-.076.506-.076.95-.203 1.33-.38a3.945 3.945 0 001.101-.722c.355-.33.748-.747 1.179-1.254l8.322-10.146-8.854-11.476c-.684-.887-1.368-1.47-2.053-1.748-.683-.279-1.456-.418-2.317-.418V7.74h14.287v1.52c-.912 0-1.57.114-1.976.342-.405.228-.607.57-.607 1.026 0 .684.38 1.533 1.14 2.546l3.913 5.396 4.902-5.852c.38-.456.646-.861.799-1.216.177-.38.265-.735.265-1.064a1.09 1.09 0 00-.114-.494c-.076-.152-.227-.279-.456-.38-.202-.101-.506-.177-.912-.228-.405-.05-.937-.076-1.595-.076V7.74h11.324v1.52c-1.064 0-1.888.076-2.47.228a2.73 2.73 0 00-1.444.912l-8.475 10.488 8.627 11.894z"/>
</svg>
