<svg xmlns="http://www.w3.org/2000/svg" width="48" height="48" fill="none" viewBox="0 0 48 48">
  <rect width="38" height="38" x="5" y="5" fill="#000" opacity=".2" rx="4"/>
  <path fill="#000" d="M34.248 19.32c0 2.16-.84 3.81-2.52 4.95-1.68 1.12-4.12 1.68-7.32 1.68h-2.55v5.28c0 .76.05 1.38.15 1.86.1.46.31.82.63 1.08.32.26.76.43 1.32.51.56.08 1.31.12 2.25.12V36h-11.91v-1.2c.66-.02 1.2-.08 1.62-.18.42-.1.74-.27.96-.51.22-.24.37-.58.45-1.02.08-.44.12-1.01.12-1.71V17.52c0-.7-.04-1.26-.12-1.68-.06-.44-.19-.78-.39-1.02-.2-.26-.49-.43-.87-.51-.36-.1-.84-.17-1.44-.21v-1.2h10.38c3.04 0 5.34.54 6.9 1.62 1.56 1.08 2.34 2.68 2.34 4.8zm-12.39 4.83h1.95c1.94 0 3.36-.39 4.26-1.17.9-.78 1.35-2.01 1.35-3.69 0-1.5-.38-2.66-1.14-3.48-.76-.82-1.95-1.23-3.57-1.23h-2.31c-.36 0-.54.17-.54.51v9.06z"/>
</svg>
