<svg xmlns="http://www.w3.org/2000/svg" width="48" height="48" fill="none" viewBox="0 0 48 48">
  <path fill="#000" d="M10.113 37v-1.52c.862-.025 1.546-.101 2.052-.228.532-.127.938-.342 1.216-.646.304-.304.507-.735.608-1.292.102-.557.152-1.28.152-2.166V13.592c0-.887-.038-1.596-.114-2.128-.076-.557-.24-.988-.494-1.292-.228-.33-.557-.545-.988-.646-.405-.127-.95-.215-1.634-.266V7.74H23.11c3.826 0 6.764.62 8.816 1.862 2.078 1.216 3.116 2.964 3.116 5.244 0 3.015-2.166 5.143-6.498 6.384v.152c1.394 0 2.648.203 3.762.608 1.14.38 2.103.925 2.888 1.634a7.437 7.437 0 011.824 2.508c.431.963.646 2.014.646 3.154 0 1.292-.316 2.42-.95 3.382-.608.963-1.494 1.773-2.66 2.432-2.254 1.267-5.358 1.9-9.31 1.9h-14.63zm14.896-2.318c4.079 0 6.118-1.837 6.118-5.51 0-2.255-.734-3.901-2.204-4.94-.76-.532-1.748-.912-2.964-1.14-1.19-.228-2.66-.342-4.408-.342h-1.824v7.6c0 1.57.406 2.685 1.216 3.344.811.659 2.166.988 4.066.988zM21.97 20.47c1.14 0 2.128-.101 2.964-.304.836-.228 1.546-.545 2.128-.95 1.216-.836 1.824-2.14 1.824-3.914 0-1.85-.456-3.18-1.368-3.99-.912-.836-2.381-1.254-4.408-1.254h-2.698c-.456 0-.684.215-.684.646v9.766h2.242z"/>
</svg>
