<svg xmlns="http://www.w3.org/2000/svg" width="48" height="48" fill="none" viewBox="0 0 48 48">
  <path fill="#000" d="M24.332 29.894L33.11 7.74h11.096v1.52c-.836 0-1.52.089-2.052.266-.507.152-.9.443-1.178.874-.279.43-.469 1.026-.57 1.786-.076.735-.114 1.672-.114 2.812v14.744c0 1.267.05 2.267.152 3.002.101.735.304 1.305.608 1.71s.735.671 1.292.798c.583.127 1.343.203 2.28.228V37H30.336v-1.52c.937-.025 1.685-.101 2.242-.228.583-.152 1.026-.418 1.33-.798.33-.38.545-.912.646-1.596.101-.71.152-1.66.152-2.85V12.224h-.19L24.294 37.38h-2.812L10.918 12.224h-.152v17.518c0 1.267.05 2.267.152 3.002.101.735.304 1.305.608 1.71s.735.671 1.292.798c.583.127 1.343.203 2.28.228V37H3.394v-1.52c.937-.025 1.697-.101 2.28-.228.583-.152 1.026-.418 1.33-.798.33-.38.545-.912.646-1.596.101-.71.152-1.66.152-2.85V14.732c0-1.064-.05-1.95-.152-2.66-.101-.71-.291-1.267-.57-1.672-.279-.43-.684-.722-1.216-.874-.507-.177-1.19-.266-2.052-.266V7.74h11.514l8.854 22.154h.152z"/>
</svg>
