<svg xmlns="http://www.w3.org/2000/svg" width="48" height="48" fill="none" viewBox="0 0 48 48">
  <rect width="38" height="38" x="5" y="5" fill="#000" opacity=".2" rx="4"/>
  <path fill="#000" d="M20.276 31.17c0 .76.03 1.37.09 1.83.08.46.22.82.42 1.08.2.26.48.44.84.54.38.1.88.16 1.5.18V36h-10.41v-1.2c.66-.02 1.2-.08 1.62-.18.42-.1.74-.27.96-.51.22-.24.37-.58.45-1.02.08-.44.12-1.01.12-1.71V17.52c0-.68-.04-1.24-.12-1.68-.06-.44-.19-.78-.39-1.02s-.49-.41-.87-.51c-.36-.1-.84-.17-1.44-.21v-1.2h10.35v1.2c-.68.02-1.23.08-1.65.18-.4.1-.71.28-.93.54-.22.26-.37.62-.45 1.08-.06.46-.09 1.07-.09 1.83v6.66l7.77-8.34c.46-.5.69-.92.69-1.26 0-.22-.15-.39-.45-.51-.28-.12-.81-.18-1.59-.18v-1.2h8.19v1.17c-.44.02-.83.06-1.17.12-.32.06-.65.19-.99.39-.32.2-.69.49-1.11.87-.4.36-.9.85-1.5 1.47l-5.34 5.58 8.82 10.74c.42.52.88.9 1.38 1.14.52.24 1.18.38 1.98.42V36h-11.1v-1.2c.82-.02 1.41-.09 1.77-.21.36-.12.54-.32.54-.6 0-.1-.02-.19-.06-.27a.946.946 0 00-.15-.33c-.06-.14-.16-.3-.3-.48-.14-.2-.33-.44-.57-.72l-5.31-6.54-1.5 1.56v3.96z"/>
</svg>
