<svg xmlns="http://www.w3.org/2000/svg" width="48" height="48" fill="none" viewBox="0 0 48 48">
  <rect width="38" height="38" x="5" y="5" fill="#000" opacity=".2" rx="4"/>
  <path fill="#000" d="M29.118 20.742h4.843c-.616-4.458-4.546-7.596-9.643-7.596-5.956 0-10.546 4.294-10.546 11.603 0 7.134 4.293 11.56 10.645 11.56 5.691 0 9.753-3.6 9.753-9.534v-2.84h-9.434v3.588h4.844c-.066 2.797-1.97 4.569-5.141 4.569-3.578 0-5.835-2.675-5.835-7.387 0-4.69 2.345-7.342 5.79-7.342 2.456 0 4.118 1.266 4.724 3.38z"/>
</svg>
