<svg xmlns="http://www.w3.org/2000/svg" width="48" height="48" fill="none" viewBox="0 0 48 48">
  <path fill="#000" d="M19.283 30.882c0 .963.038 1.735.114 2.318.101.583.279 1.039.532 1.368.253.33.608.557 1.064.684.481.127 1.115.203 1.9.228V37H9.707v-1.52c.836-.025 1.52-.101 2.052-.228s.937-.342 1.216-.646c.279-.304.469-.735.57-1.292.101-.557.152-1.28.152-2.166V13.592c0-.861-.05-1.57-.152-2.128-.076-.557-.24-.988-.494-1.292-.253-.304-.62-.52-1.102-.646-.456-.127-1.064-.215-1.824-.266V7.74h13.11v1.52c-.861.025-1.558.101-2.09.228-.507.127-.9.355-1.178.684-.279.33-.469.785-.57 1.368-.076.583-.114 1.355-.114 2.318v8.436l9.842-10.564c.583-.633.874-1.165.874-1.596 0-.279-.19-.494-.57-.646-.355-.152-1.026-.228-2.014-.228V7.74h10.374v1.482c-.557.025-1.051.076-1.482.152-.405.076-.823.24-1.254.494-.405.253-.874.62-1.406 1.102a40.207 40.207 0 00-1.9 1.862L24.983 19.9l11.172 13.604c.532.659 1.115 1.14 1.748 1.444.659.304 1.495.481 2.508.532V37h-14.06v-1.52c1.039-.025 1.786-.114 2.242-.266.456-.152.684-.405.684-.76a.755.755 0 00-.076-.342 1.2 1.2 0 00-.19-.418 2.884 2.884 0 00-.38-.608 12.295 12.295 0 00-.722-.912l-6.726-8.284-1.9 1.976v5.016z"/>
</svg>
