<svg xmlns="http://www.w3.org/2000/svg" width="48" height="48" fill="none" viewBox="0 0 48 48">
  <g clip-path="url(#clip0_86:77)">
    <path fill="#000" d="M29.603 18.313h6.25C35.058 12.56 29.987 8.51 23.41 8.51c-7.684 0-13.608 5.54-13.608 14.972 0 9.204 5.54 14.915 13.736 14.915 7.344 0 12.585-4.645 12.585-12.301v-3.665H23.95v4.63h6.25c-.085 3.608-2.543 5.895-6.634 5.895-4.616 0-7.528-3.451-7.528-9.53 0-6.052 3.026-9.475 7.472-9.475 3.167 0 5.312 1.633 6.093 4.36z"/>
  </g>
  <defs>
    <clipPath id="clip0_86:77">
      <path fill="#fff" d="M0 0h48v48H0z"/>
    </clipPath>
  </defs>
</svg>
