<svg xmlns="http://www.w3.org/2000/svg" width="48" height="48" fill="none" viewBox="0 0 48 48">
  <g clip-path="url(#clip0_86:27)">
    <path fill="#000" d="M12.306 38h12.429c6.534 0 10.014-3.41 10.014-8.04 0-4.304-3.083-6.903-6.392-7.06v-.284c3.026-.681 5.256-2.826 5.256-6.25 0-4.36-3.24-7.457-9.66-7.457H12.306V38zm6.15-5.028v-7.728h5.157c2.954 0 4.787 1.705 4.787 4.105 0 2.188-1.492 3.623-4.93 3.623h-5.014zm0-11.89v-7.201h4.674c2.727 0 4.275 1.406 4.275 3.508 0 2.301-1.875 3.693-4.389 3.693h-4.56z"/>
  </g>
  <defs>
    <clipPath id="clip0_86:27">
      <path fill="#fff" d="M0 0h48v48H0z"/>
    </clipPath>
  </defs>
</svg>
