<svg xmlns="http://www.w3.org/2000/svg" width="48" height="48" fill="none" viewBox="0 0 48 48">
  <path fill="#000" d="M37.17 37H10.986v-1.52c.836-.025 1.52-.101 2.052-.228s.938-.342 1.216-.646c.279-.304.469-.735.57-1.292.102-.557.152-1.28.152-2.166V13.592c0-.887-.05-1.596-.152-2.128-.076-.557-.24-.988-.494-1.292-.253-.33-.62-.545-1.102-.646-.456-.127-1.064-.215-1.824-.266V7.74h13.11v1.52c-.861.025-1.558.101-2.09.228-.506.127-.9.355-1.178.684-.278.33-.468.785-.57 1.368-.076.583-.114 1.355-.114 2.318V29.78c0 1.064.102 1.938.304 2.622.228.659.608 1.178 1.14 1.558.532.355 1.242.608 2.128.76.887.127 1.989.19 3.306.19 1.47 0 2.698-.089 3.686-.266.988-.177 1.812-.507 2.47-.988.684-.507 1.229-1.178 1.634-2.014.406-.836.748-1.925 1.026-3.268h1.52L37.17 37z"/>
</svg>
