<svg xmlns="http://www.w3.org/2000/svg" width="48" height="48" fill="none" viewBox="0 0 48 48">
  <rect width="38" height="38" x="5" y="5" fill="#000" opacity=".2" rx="4"/>
  <path fill="#000" d="M33.512 26.7c0 1.7-.19 3.16-.57 4.38-.36 1.2-.93 2.19-1.71 2.97-.78.78-1.79 1.35-3.03 1.71-1.22.36-2.69.54-4.41.54-3.22 0-5.58-.67-7.08-2.01-1.48-1.36-2.22-3.52-2.22-6.48v-8.22c0-.78-.01-1.43-.03-1.95-.02-.54-.05-.99-.09-1.35-.04-.36-.1-.65-.18-.87-.06-.24-.14-.44-.24-.6-.18-.28-.44-.47-.78-.57-.34-.1-.86-.15-1.56-.15v-1.2h10.77v1.2c-.84 0-1.46.05-1.86.15-.4.08-.71.25-.93.51-.14.16-.26.36-.36.6-.08.22-.15.52-.21.9-.04.36-.07.81-.09 1.35-.02.54-.03 1.2-.03 1.98v7.86c0 2.28.48 3.97 1.44 5.07.98 1.08 2.48 1.62 4.5 1.62 4.12 0 6.18-2.29 6.18-6.87v-6.93c0-.84-.02-1.56-.06-2.16-.02-.6-.07-1.11-.15-1.53-.06-.42-.15-.77-.27-1.05-.1-.28-.23-.51-.39-.69-.28-.28-.64-.48-1.08-.6-.44-.14-1.05-.21-1.83-.21v-1.2h9.72v1.2c-.74 0-1.31.06-1.71.18-.4.1-.71.29-.93.57-.16.18-.29.42-.39.72-.1.28-.18.64-.24 1.08-.06.42-.11.93-.15 1.53-.02.6-.03 1.32-.03 2.16v6.36z"/>
</svg>
