<svg xmlns="http://www.w3.org/2000/svg" width="48" height="48" fill="none" viewBox="0 0 48 48">
  <rect width="38" height="38" x="5" y="5" fill="#000" opacity=".2" rx="4"/>
  <path fill="#000" d="M23.892 12.6c1.82 0 3.52.31 5.1.93 1.58.62 2.95 1.48 4.11 2.58 1.18 1.08 2.1 2.36 2.76 3.84.68 1.46 1.02 3.03 1.02 4.71 0 2.06-.51 3.96-1.53 5.7-1 1.72-2.41 3.17-4.23 4.35-.34.22-.67.42-.99.6-.3.16-.65.33-1.05.51s-.87.37-1.41.57c-.52.2-1.15.43-1.89.69-.44.16-.82.3-1.14.42-.3.12-.57.23-.81.33l-.66.33-.54.36v.12c.14-.02.32-.04.54-.06h.63c.86 0 1.67.09 2.43.27.78.2 1.54.41 2.28.63.76.22 1.52.42 2.28.6.76.2 1.56.3 2.4.3.96 0 1.71-.17 2.25-.51.54-.34.96-.91 1.26-1.71h1.11c.04.26.07.5.09.72.02.22.03.41.03.57 0 .62-.14 1.19-.42 1.71-.28.54-.67 1-1.17 1.38-.5.4-1.09.71-1.77.93-.68.22-1.41.33-2.19.33-1.12 0-2.16-.19-3.12-.57-.96-.38-1.88-.8-2.76-1.26-.88-.46-1.72-.88-2.52-1.26s-1.59-.57-2.37-.57c-.54 0-.98.09-1.32.27-.34.18-.65.37-.93.57-.26.22-.53.42-.81.6-.26.18-.58.27-.96.27-.34 0-.61-.08-.81-.24-.2-.16-.3-.36-.3-.6 0-.34.15-.66.45-.96.32-.28.9-.65 1.74-1.11l3.78-2.13c-1.6-.14-3.09-.55-4.47-1.23-1.38-.68-2.58-1.56-3.6-2.64-1-1.08-1.79-2.32-2.37-3.72-.58-1.42-.87-2.93-.87-4.53 0-1.7.32-3.29.96-4.77.66-1.48 1.56-2.76 2.7-3.84 1.14-1.08 2.49-1.93 4.05-2.55 1.56-.62 3.24-.93 5.04-.93zm0 22.5c1.18 0 2.25-.24 3.21-.72.96-.5 1.77-1.2 2.43-2.1.68-.9 1.2-1.99 1.56-3.27.38-1.28.57-2.7.57-4.26 0-1.56-.19-2.97-.57-4.23-.36-1.26-.88-2.33-1.56-3.21a6.814 6.814 0 00-2.43-2.04c-.96-.48-2.03-.72-3.21-.72-1.18 0-2.24.24-3.18.72-.92.46-1.7 1.13-2.34 2.01-.64.88-1.14 1.95-1.5 3.21-.34 1.26-.51 2.68-.51 4.26 0 1.6.17 3.04.51 4.32.36 1.28.86 2.37 1.5 3.27.66.88 1.45 1.56 2.37 2.04.94.48 1.99.72 3.15.72z"/>
</svg>
