<svg xmlns="http://www.w3.org/2000/svg" width="48" height="48" fill="none" viewBox="0 0 48 48">
  <rect width="38" height="38" x="5" y="5" fill="#000" opacity=".2" rx="4"/>
  <path fill="#000" d="M34.197 21.348c-.628-5.207-4.569-8.202-9.787-8.202-5.956 0-10.502 4.206-10.502 11.581 0 7.354 4.47 11.581 10.502 11.581 5.78 0 9.27-3.842 9.787-7.992l-4.822-.022c-.451 2.41-2.345 3.798-4.888 3.798-3.423 0-5.746-2.543-5.746-7.365 0-4.69 2.29-7.364 5.78-7.364 2.608 0 4.49 1.508 4.854 3.985h4.822z"/>
</svg>
