<svg xmlns="http://www.w3.org/2000/svg" width="48" height="48" fill="none" viewBox="0 0 48 48">
  <path fill="#000" d="M31.592 37.38L14.758 13.402h-.152v16.34c0 1.267.038 2.267.114 3.002.101.735.291 1.305.57 1.71.304.405.71.671 1.216.798.532.127 1.216.203 2.052.228V37H7.272v-1.52c.937-.025 1.684-.101 2.242-.228.583-.152 1.026-.418 1.33-.798.33-.38.545-.912.646-1.596.101-.71.152-1.66.152-2.85V14.732c0-1.064-.05-1.938-.152-2.622-.101-.71-.292-1.267-.57-1.672-.279-.405-.684-.684-1.216-.836-.507-.177-1.19-.291-2.052-.342V7.74h10.602l15.314 21.964h.152V14.998c0-1.241-.05-2.23-.152-2.964-.076-.76-.266-1.343-.57-1.748-.279-.405-.684-.671-1.216-.798-.507-.127-1.178-.203-2.014-.228V7.74h11.286v1.52c-.938.025-1.698.114-2.28.266-.557.127-1 .38-1.33.76-.304.38-.507.925-.608 1.634-.102.71-.152 1.647-.152 2.812V37.38h-5.092z"/>
</svg>
