<svg xmlns="http://www.w3.org/2000/svg" width="48" height="48" fill="none" viewBox="0 0 48 48">
  <path fill="#000" d="M27.675 28.146H16.92c-1.19 2.685-1.786 4.547-1.786 5.586 0 .76.278 1.241.836 1.444.582.203 1.444.304 2.584.304V37H8.143v-1.52a9.988 9.988 0 001.558-.304 3.875 3.875 0 001.178-.532 3.32 3.32 0 00.912-.874c.253-.38.494-.836.722-1.368L22.507 7.36h2.812L34.4 29.552a59.284 59.284 0 001.33 3.04c.38.735.772 1.305 1.178 1.71.43.38.912.646 1.444.798.557.152 1.266.266 2.128.342V37H26.117v-1.558c1.216-.05 2.09-.177 2.622-.38s.798-.608.798-1.216c0-.355-.089-.81-.266-1.368a44.13 44.13 0 00-.722-2.052l-.874-2.28zm-9.88-2.28h9.044l-4.37-11.514h-.152l-4.522 11.514z"/>
</svg>
