<svg xmlns="http://www.w3.org/2000/svg" width="48" height="48" fill="none" viewBox="0 0 48 48">
  <path fill="#000" d="M35.224 7.74h1.862l-.76 9.614h-1.52c-.532-2.33-1.57-4.167-3.116-5.51-1.52-1.343-3.369-2.014-5.548-2.014-1.494 0-2.824.304-3.99.912-1.165.583-2.153 1.431-2.964 2.546-.785 1.09-1.393 2.432-1.824 4.028-.405 1.57-.608 3.344-.608 5.32 0 3.927.798 6.954 2.394 9.082 1.622 2.103 4.003 3.154 7.144 3.154 2.534 0 4.624-.684 6.27-2.052 1.672-1.368 2.863-3.407 3.572-6.118h1.672V37h-1.786l-.532-3.002c-2.786 2.255-6.168 3.382-10.146 3.382-2.305 0-4.395-.342-6.27-1.026-1.874-.684-3.47-1.647-4.788-2.888-1.317-1.267-2.343-2.8-3.078-4.598-.709-1.799-1.064-3.8-1.064-6.004 0-2.305.38-4.408 1.14-6.308.76-1.9 1.824-3.534 3.192-4.902 1.394-1.368 3.04-2.42 4.94-3.154 1.926-.76 4.054-1.14 6.384-1.14 1.546 0 2.99.215 4.332.646 1.343.43 2.8 1.127 4.37 2.09l.722-2.356z"/>
</svg>
