<svg xmlns="http://www.w3.org/2000/svg" width="48" height="48" fill="none" viewBox="0 0 48 48">
  <rect width="38" height="38" x="5" y="5" fill="#000" opacity=".2" rx="4"/>
  <path fill="#000" d="M32.861 12.9h1.47l-.6 7.59h-1.2c-.42-1.84-1.24-3.29-2.46-4.35-1.2-1.06-2.66-1.59-4.38-1.59-1.18 0-2.23.24-3.15.72-.92.46-1.7 1.13-2.34 2.01-.62.86-1.1 1.92-1.44 3.18-.32 1.24-.48 2.64-.48 4.2 0 3.1.63 5.49 1.89 7.17 1.28 1.66 3.16 2.49 5.64 2.49 2 0 3.65-.54 4.95-1.62 1.32-1.08 2.26-2.69 2.82-4.83h1.32V36h-1.41l-.42-2.37c-2.2 1.78-4.87 2.67-8.01 2.67-1.82 0-3.47-.27-4.95-.81s-2.74-1.3-3.78-2.28c-1.04-1-1.85-2.21-2.43-3.63-.56-1.42-.84-3-.84-4.74 0-1.82.3-3.48.9-4.98.6-1.5 1.44-2.79 2.52-3.87 1.1-1.08 2.4-1.91 3.9-2.49 1.52-.6 3.2-.9 5.04-.9 1.22 0 2.36.17 3.42.51 1.06.34 2.21.89 3.45 1.65l.57-1.86z"/>
</svg>
