<svg xmlns="http://www.w3.org/2000/svg" width="48" height="48" fill="none" viewBox="0 0 48 48">
  <path fill="#000" d="M24 37.38c-2.28 0-4.344-.33-6.194-.988-1.824-.684-3.382-1.647-4.674-2.888-1.266-1.267-2.254-2.787-2.964-4.56-.684-1.799-1.026-3.813-1.026-6.042 0-2.305.368-4.408 1.102-6.308.76-1.925 1.812-3.572 3.154-4.94 1.343-1.368 2.952-2.42 4.826-3.154 1.875-.76 3.952-1.14 6.232-1.14 1.571 0 3.066.215 4.484.646 1.42.43 2.952 1.127 4.598 2.09l.722-2.356h1.368v9.614h-1.9c-.506-2.381-1.532-4.23-3.078-5.548-1.52-1.317-3.432-1.976-5.738-1.976-2.913 0-5.18 1.127-6.802 3.382-1.596 2.23-2.394 5.358-2.394 9.386 0 3.952.786 6.98 2.356 9.082 1.571 2.103 3.851 3.154 6.84 3.154 2.154 0 3.826-.545 5.016-1.634 1.216-1.115 1.824-2.647 1.824-4.598 0-1.165-.304-2.014-.912-2.546-.608-.557-1.634-.9-3.078-1.026v-1.52h12.312v1.52c-1.24 0-2.102.279-2.584.836-.48.532-.722 1.507-.722 2.926v5.054c-.557 0-1.026.025-1.406.076-.38.025-.76.101-1.14.228-.354.101-.76.279-1.216.532a73.29 73.29 0 00-1.71.988c-1.95 1.14-4.382 1.71-7.296 1.71z"/>
</svg>
