<svg xmlns="http://www.w3.org/2000/svg" width="48" height="48" fill="none" viewBox="0 0 48 48">
  <path fill="#000" d="M13.402 12.528a15.375 15.375 0 00-1.063-1.634c-.305-.43-.621-.76-.95-.988a2.552 2.552 0 00-1.064-.494 5.024 5.024 0 00-1.293-.152V7.74H21.8v1.52c-1.064 0-1.81.101-2.242.304-.43.203-.645.507-.645.912 0 .253.075.557.227.912.152.355.393.836.723 1.444l5.434 10.374h.151l4.788-7.98c.837-1.419 1.42-2.47 1.748-3.154.33-.71.494-1.267.494-1.672 0-.43-.202-.722-.608-.874-.38-.177-1.102-.266-2.166-.266V7.74h9.538v1.52c-.557 0-1.063.089-1.52.266-.456.177-.937.532-1.444 1.064-.48.507-1.038 1.229-1.672 2.166-.608.912-1.342 2.115-2.203 3.61l-5.548 9.5v3.876c0 1.267.05 2.28.151 3.04.127.76.33 1.343.608 1.748.305.38.71.633 1.216.76.507.127 1.166.19 1.977.19V37H17.279v-1.52c.785 0 1.43-.063 1.938-.19.532-.127.95-.38 1.254-.76.303-.38.506-.925.607-1.634.127-.735.19-1.697.19-2.888v-3.496l-7.866-13.984z"/>
</svg>
