<svg xmlns="http://www.w3.org/2000/svg" width="48" height="48" fill="none" viewBox="0 0 48 48">
  <rect width="38" height="38" x="5" y="5" fill="#000" opacity=".2" rx="4"/>
  <path fill="#000" d="M15.712 36h9.632c5.064 0 7.761-2.642 7.761-6.23 0-3.336-2.388-5.351-4.953-5.472v-.22c2.344-.529 4.073-2.19 4.073-4.844 0-3.38-2.51-5.78-7.486-5.78h-9.027V36zm4.767-3.897v-5.989h3.996c2.29 0 3.71 1.321 3.71 3.182 0 1.695-1.156 2.807-3.82 2.807h-3.886zm0-9.214v-5.581H24.1c2.113 0 3.313 1.09 3.313 2.719 0 1.783-1.453 2.862-3.402 2.862H20.48z"/>
</svg>
