<svg xmlns="http://www.w3.org/2000/svg" width="48" height="48" fill="none" viewBox="0 0 48 48">
  <rect width="38" height="38" x="5" y="5" fill="#000" opacity=".2" rx="4"/>
  <path fill="#000" d="M15.674 28.35h1.17c.28 1.9 1.04 3.4 2.28 4.5 1.24 1.08 2.77 1.62 4.59 1.62.74 0 1.42-.09 2.04-.27.62-.18 1.15-.43 1.59-.75.44-.34.78-.73 1.02-1.17.24-.46.36-.97.36-1.53 0-.48-.08-.89-.24-1.23-.14-.36-.42-.7-.84-1.02-.42-.34-1-.68-1.74-1.02-.72-.34-1.66-.73-2.82-1.17-2.34-.9-4.07-1.94-5.19-3.12-1.12-1.2-1.68-2.61-1.68-4.23 0-.94.18-1.8.54-2.58.36-.78.86-1.45 1.5-2.01.66-.56 1.44-.99 2.34-1.29.92-.32 1.93-.48 3.03-.48 1.02 0 1.98.16 2.88.48.9.32 1.79.8 2.67 1.44l.54-1.5h.72l.33 6.48h-1.17c-.48-1.64-1.23-2.89-2.25-3.75-1.02-.88-2.2-1.32-3.54-1.32-1.24 0-2.25.31-3.03.93-.76.6-1.14 1.38-1.14 2.34 0 .42.07.8.21 1.14.14.32.4.63.78.93.38.3.9.61 1.56.93.66.3 1.51.64 2.55 1.02 1.4.54 2.59 1.09 3.57 1.65 1 .54 1.81 1.13 2.43 1.77.64.62 1.11 1.28 1.41 1.98.3.7.45 1.47.45 2.31 0 1.02-.22 1.95-.66 2.79-.44.84-1.06 1.56-1.86 2.16-.78.6-1.72 1.07-2.82 1.41-1.08.34-2.28.51-3.6.51-1.2 0-2.28-.16-3.24-.48-.96-.34-1.95-.88-2.97-1.62l-.6 1.8h-.72l-.45-7.65z"/>
</svg>
