<svg xmlns="http://www.w3.org/2000/svg" width="48" height="48" fill="none" viewBox="0 0 48 48">
  <g clip-path="url(#clip0_86:37)">
    <path fill="#000" d="M36.157 19.094c-.81-6.719-5.895-10.583-12.628-10.583-7.684 0-13.551 5.427-13.551 14.944 0 9.488 5.767 14.943 13.551 14.943 7.457 0 11.96-4.958 12.628-10.313l-6.222-.028c-.582 3.11-3.025 4.9-6.306 4.9-4.418 0-7.415-3.28-7.415-9.503 0-6.05 2.954-9.502 7.457-9.502 3.367 0 5.796 1.946 6.264 5.142h6.222z"/>
  </g>
  <defs>
    <clipPath id="clip0_86:37">
      <path fill="#fff" d="M0 0h48v48H0z"/>
    </clipPath>
  </defs>
</svg>
