<svg xmlns="http://www.w3.org/2000/svg" width="48" height="48" fill="none" viewBox="0 0 48 48">
  <path fill="#000" d="M11 24c0-1.33 0-1.994.303-2.48a2 2 0 01.638-.638c.486-.303 1.15-.303 2.48-.303h6.158V14.42c0-1.33 0-1.994.303-2.48a2 2 0 01.638-.638C22.006 11 22.67 11 24 11s1.994 0 2.48.303a2 2 0 01.638.638c.303.486.303 1.15.303 2.48v6.158h6.158c1.33 0 1.994 0 2.48.303a2 2 0 01.638.638C37 22.006 37 22.67 37 24s0 1.994-.303 2.48a2 2 0 01-.638.638c-.486.303-1.15.303-2.48.303H27.42v6.158c0 1.33 0 1.994-.303 2.48a2 2 0 01-.638.638C25.994 37 25.33 37 24 37s-1.994 0-2.48-.303a2 2 0 01-.638-.638c-.303-.486-.303-1.15-.303-2.48V27.42H14.42c-1.33 0-1.994 0-2.48-.303a2 2 0 01-.638-.638C11 25.994 11 25.33 11 24z"/>
</svg>
