<svg xmlns="http://www.w3.org/2000/svg" width="48" height="48" fill="none" viewBox="0 0 48 48">
  <rect width="38" height="38" x="5" y="5" fill="#000" opacity=".2" rx="4"/>
  <path fill="#000" d="M21.182 29.24h4.172v-.373c.022-2.147.793-3.149 2.532-4.195 2.059-1.222 3.402-2.84 3.402-5.427 0-3.853-3.105-6.099-7.475-6.099-3.996 0-7.255 2.092-7.354 6.495h4.492c.066-1.794 1.398-2.752 2.84-2.752 1.486 0 2.686.991 2.686 2.521 0 1.442-1.046 2.4-2.4 3.259-1.85 1.167-2.884 2.345-2.895 6.197v.375zm2.169 7.046c1.409 0 2.63-1.178 2.642-2.642-.011-1.442-1.233-2.62-2.642-2.62-1.454 0-2.654 1.178-2.642 2.62-.012 1.464 1.188 2.642 2.642 2.642z"/>
</svg>
