<svg width="48" height="48" viewBox="0 0 48 48" fill="none" xmlns="http://www.w3.org/2000/svg">
<rect opacity="0.2" x="5" y="5" width="38" height="38" rx="4" fill="black"/>
<path fill-rule="evenodd" clip-rule="evenodd" d="M33.1721 35.5858C32.391 36.3668 31.1247 36.3668 30.3436 35.5858L12.4142 17.6564C11.6332 16.8753 11.6332 15.609 12.4142 14.8279L14.8279 12.4142C15.609 11.6332 16.8753 11.6332 17.6564 12.4142L35.5858 30.3436C36.3668 31.1247 36.3668 32.391 35.5858 33.1721L33.1721 35.5858Z" fill="black"/>
<path fill-rule="evenodd" clip-rule="evenodd" d="M14.8279 35.5858C15.609 36.3668 16.8753 36.3668 17.6564 35.5858L35.5858 17.6564C36.3668 16.8753 36.3668 15.609 35.5858 14.8279L33.1721 12.4142C32.391 11.6332 31.1247 11.6332 30.3436 12.4142L12.4142 30.3436C11.6332 31.1247 11.6332 32.391 12.4142 33.1721L14.8279 35.5858Z" fill="black"/>
</svg>
