<svg xmlns="http://www.w3.org/2000/svg" width="48" height="48" fill="none" viewBox="0 0 48 48">
  <path fill="#000" fill-rule="evenodd" d="M15.888 36.143V38a1 1 0 001 1h3.714a1 1 0 001-1V18.51A9.51 9.51 0 0012.092 9a6.793 6.793 0 00-6.766 6.178L5.02 18.53c-.289 3.178 2.433 5.81 5.6 5.414l3.019-.377a2 2 0 012.248 1.984v7.735h5.714v2.857h-5.714zm-5.715-19.286c-.818 0-1.428.598-1.428 1.429v2.143c0 .83.61 1.428 1.428 1.428.819 0 1.429-.598 1.429-1.428v-2.143c0-.83-.61-1.429-1.429-1.429z" clip-rule="evenodd"/>
  <g opacity=".6">
    <path fill="#000" d="M15.887 33.285h5.714v2.858h-5.714v-2.858zM8.744 18.285c0-.83.61-1.428 1.429-1.428.818 0 1.428.598 1.428 1.428v2.143c0 .83-.61 1.429-1.428 1.429-.819 0-1.429-.598-1.429-1.429v-2.143z"/>
  </g>
  <g>
    <path fill="#000" fill-rule="evenodd" d="M33.03 36.143V38a1 1 0 01-1 1h-3.714a1 1 0 01-1-1V18.51A9.51 9.51 0 0136.826 9a6.793 6.793 0 016.766 6.178l.305 3.352c.289 3.178-2.433 5.81-5.6 5.414l-3.019-.377a2 2 0 00-2.248 1.984v7.735h-5.714v2.857h5.714zm5.715-19.286c.818 0 1.428.598 1.428 1.429v2.143c0 .83-.61 1.428-1.428 1.428-.819 0-1.429-.598-1.429-1.428v-2.143c0-.83.61-1.429 1.429-1.429z" clip-rule="evenodd"/>
    <g opacity=".6">
      <path fill="#000" d="M33.03 33.285h-5.714v2.858h5.714v-2.858zM40.173 18.285c0-.83-.61-1.428-1.429-1.428-.818 0-1.428.598-1.428 1.428v2.143c0 .83.61 1.429 1.428 1.429.819 0 1.429-.598 1.429-1.429v-2.143z"/>
    </g>
  </g>
</svg>
