<svg xmlns="http://www.w3.org/2000/svg" width="48" height="48" fill="none" viewBox="0 0 48 48">
  <rect width="38" height="38" x="5" y="5" fill="#000" opacity=".2" rx="4"/>
  <path fill="#000" d="M9 23a2 2 0 012-2h6v14a4 4 0 01-8 0V23z" opacity=".6"/>
  <path fill="#000" fill-rule="evenodd" d="M13 39h4v-4a4 4 0 01-4 4z" clip-rule="evenodd"/>
  <g opacity=".2">
    <path fill="#000" d="M21 14c0-.552.485-1 1.083-1h10.834c.598 0 1.083.448 1.083 1s-.485 1-1.083 1H22.083C21.485 15 21 14.552 21 14zM21 20c0-.552.485-1 1.083-1h10.834c.598 0 1.083.448 1.083 1s-.485 1-1.083 1H22.083C21.485 21 21 20.552 21 20zM21 26c0-.552.485-1 1.083-1h10.834c.598 0 1.083.448 1.083 1s-.485 1-1.083 1H22.083C21.485 27 21 26.552 21 26zM21 32c0-.552.485-1 1.083-1h7.584c.598 0 1.083.448 1.083 1s-.485 1-1.083 1h-7.584C21.485 33 21 32.552 21 32z"/>
  </g>
  <path fill="#000" fill-rule="evenodd" d="M19 9a2 2 0 00-2 2v28h17a4 4 0 004-4V11a2 2 0 00-2-2H19zm3.083 4c-.598 0-1.083.448-1.083 1s.485 1 1.083 1h10.834c.598 0 1.083-.448 1.083-1s-.485-1-1.083-1H22.083zm0 6c-.598 0-1.083.448-1.083 1s.485 1 1.083 1h10.834c.598 0 1.083-.448 1.083-1s-.485-1-1.083-1H22.083zM21 26c0-.552.485-1 1.083-1h10.834c.598 0 1.083.448 1.083 1s-.485 1-1.083 1H22.083C21.485 27 21 26.552 21 26zm1.083 5c-.598 0-1.083.448-1.083 1s.485 1 1.083 1h7.584c.598 0 1.083-.448 1.083-1s-.485-1-1.083-1h-7.584z" clip-rule="evenodd"/>
</svg>
