<svg xmlns="http://www.w3.org/2000/svg" width="48" height="48" fill="none" viewBox="0 0 48 48">
  <path fill="#000" fill-rule="evenodd" d="M11.172 11.172C10 12.343 10 14.229 10 18v12c0 3.771 0 5.657 1.172 6.828C12.343 38 14.229 38 18 38h12c3.771 0 5.657 0 6.828-1.172C38 35.657 38 33.771 38 30V18c0-3.771 0-5.657-1.172-6.828C35.657 10 33.771 10 30 10H18c-3.771 0-5.657 0-6.828 1.172zm3.12 4.12C14 15.587 14 16.058 14 17s0 1.414.293 1.707C14.586 19 15.057 19 16 19h11c.943 0 1.414 0 1.707-.293C29 18.414 29 17.943 29 17c0-.943 0-1.414-.293-1.707C28.414 15 27.943 15 27 15H16c-.943 0-1.414 0-1.707.293z" clip-rule="evenodd" opacity=".2"/>
  <path fill="#000" d="M13 18c0-3.771 0-5.657 1.172-6.828C15.343 10 17.229 10 21 10h9c3.771 0 5.657 0 6.828 1.172C38 12.343 38 14.229 38 18v12c0 3.771 0 5.657-1.172 6.828C35.657 38 33.771 38 30 38h-9c-3.771 0-5.657 0-6.828-1.172C13 35.657 13 33.771 13 30V18z" opacity=".2"/>
  <path fill="#000" fill-rule="evenodd" d="M27.79 38H30c3.77 0 5.656 0 6.828-1.172C38 35.657 38 33.771 38 30V18c0-3.771 0-5.657-1.172-6.828C35.656 10 33.771 10 30 10h-2.21c3.77 0 5.656 0 6.828 1.172 1.171 1.171 1.171 3.057 1.171 6.828v12c0 3.771 0 5.657-1.172 6.828C33.447 38 31.56 38 27.79 38z" clip-rule="evenodd"/>
  <path fill="#000" fill-rule="evenodd" d="M11.172 11.172C10 12.343 10 14.229 10 18v12c0 3.771 0 5.657 1.172 6.828C12.343 38 14.229 38 18 38h7.579c3.771 0 5.657 0 6.828-1.172C33.58 35.657 33.58 33.771 33.58 30V18c0-3.771 0-5.657-1.172-6.828C31.236 10 29.35 10 25.58 10H18c-3.771 0-5.657 0-6.828 1.172zm3.12 4.12C14 15.587 14 16.058 14 17s0 1.414.293 1.707C14.586 19 15.057 19 16 19h11c.943 0 1.414 0 1.707-.293C29 18.414 29 17.943 29 17c0-.943 0-1.414-.293-1.707C28.414 15 27.943 15 27 15H16c-.943 0-1.414 0-1.707.293z" clip-rule="evenodd"/>
  <rect width="38" height="38" x="5" y="5" fill="#000" opacity=".2" rx="4"/>
</svg>
