<svg xmlns="http://www.w3.org/2000/svg" width="48" height="48" fill="none" viewBox="0 0 48 48">
  <rect width="38" height="38" x="5" y="5" fill="#000" opacity=".2" rx="4"/>
  <rect width="38" height="38" x="5" y="5" fill="#000" opacity=".2" rx="4"/>
  <g opacity=".2">
    <path fill="#000" d="M2 12c0-1.105 1.045-2 2.333-2h2.334C7.955 10 9 10.895 9 12s-1.045 2-2.333 2H4.333C3.045 14 2 13.105 2 12zM2 36c0-1.105 1.045-2 2.333-2h2.334C7.955 34 9 34.895 9 36s-1.045 2-2.333 2H4.333C3.045 38 2 37.105 2 36zM2 28c0-1.105 1.045-2 2.333-2h2.334C7.955 26 9 26.895 9 28s-1.045 2-2.333 2H4.333C3.045 30 2 29.105 2 28zM2 20c0-1.105 1.045-2 2.333-2h2.334C7.955 18 9 18.895 9 20s-1.045 2-2.333 2H4.333C3.045 22 2 21.105 2 20z"/>
  </g>
  <mask id="a" width="38" height="38" x="5" y="5" maskUnits="userSpaceOnUse" style="mask-type:alpha">
    <rect width="38" height="38" x="5" y="5" fill="#9FA4A9" rx="4"/>
  </mask>
  <g mask="url(#a)">
    <path stroke="#000" stroke-linecap="round" stroke-width="4" d="M21 20h15" opacity=".2"/>
    <rect width="21" height="5" x="18" y="9" fill="#000" opacity=".6" rx="2"/>
    <path fill="#000" fill-rule="evenodd" d="M4.409 10h1.979c1.112 0 2.014.895 2.014 2s-.902 2-2.014 2H4.374v4h2.014c1.112 0 2.014.895 2.014 2s-.902 2-2.014 2H4.374v4h2.014c1.112 0 2.014.895 2.014 2s-.902 2-2.014 2H4.374v4h2.014c1.112 0 2.014.895 2.014 2s-.902 2-2.014 2H4.409c.078 1.872.328 3.02 1.137 3.828C6.717 43 8.603 43 12.374 43h2.07V5h-2.07C8.603 5 6.717 5 5.546 6.172 4.737 6.98 4.486 8.128 4.409 10z" clip-rule="evenodd"/>
  </g>
</svg>
