<svg xmlns="http://www.w3.org/2000/svg" width="48" height="48" fill="none" viewBox="0 0 48 48">
  <rect width="38" height="38" x="5" y="5" fill="#000" opacity=".2" rx="4"/>
  <path fill="#000" d="M10.298 21.31c-.695 3.379-.17 6.673 1.533 9.625a13.929 13.929 0 006.752 5.934c.716.301 1.062.415 1.96.647 1.266.33 2.2.461 3.435.482a13.225 13.225 0 002.968-.27 13.883 13.883 0 003.288-1.04c.499-.223 1.727-.926 2.209-1.264 2.205-1.547 3.864-3.587 4.889-6.011.356-.84.671-1.886.668-2.21-.006-.545-.157-1.02-.453-1.414a2.312 2.312 0 00-1.45-.908c-.573-.114-.982-.053-1.611.233-.28.127-.723.22-1.04.216-.293-.002-.833-.143-1.085-.284a2.342 2.342 0 01-1.2-1.655c-.08-.466-.083-.443.465-2.528.273-1.037.497-1.92.5-1.96-.002-.043.016-.205.032-.365.17-1.557-.199-3.19-1.04-4.595a7.647 7.647 0 00-2.723-2.719c-.946-.57-2.213-.976-3.561-1.14-3.957-.478-7.995 1.096-10.909 4.257-1.291 1.4-2.253 2.95-2.971 4.795-.156.398-.578 1.802-.656 2.173zm2.483 3.158a2.417 2.417 0 012.042-1.101c.333.003.841.136 1.134.3a2.328 2.328 0 011.204 2.035c-.001.34-.128.802-.301 1.098-.421.717-1.145 1.146-1.998 1.184-.278.01-.792-.094-1.067-.22a2.331 2.331 0 01-1.364-2.19c.01-.279.2-.88.35-1.107zm1.95-7.267c.43-.828 1.364-1.337 2.312-1.254.302.025.8.185 1.036.33.719.448 1.126 1.173 1.123 2-.002.34-.13.802-.302 1.098a2.41 2.41 0 01-2.087 1.175 2.7 2.7 0 01-1.14-.298c-.788-.442-1.259-1.293-1.196-2.17.015-.209.152-.684.255-.88zm2.776 13.595c.216-.473.526-.798 1.007-1.066.485-.271.93-.355 1.498-.281.725.094 1.37.54 1.734 1.19.194.344.278.674.285 1.091.005.306-.144.87-.297 1.126a2.378 2.378 0 01-2.674 1.094 2.3 2.3 0 01-1.157-.682 2.27 2.27 0 01-.396-2.472zm4.617-16.592c.547-.897 1.612-1.318 2.646-1.047.472.123.82.33 1.141.674.915.986.79 2.507-.277 3.351-.345.274-.897.477-1.36.5a2.378 2.378 0 01-2.109-1.074 2.277 2.277 0 01-.364-1.404c.019-.282.174-.758.323-1z"/>
</svg>
