<svg xmlns="http://www.w3.org/2000/svg" width="48" height="48" fill="none" viewBox="0 0 48 48">
  <rect width="38" height="38" x="5" y="5" fill="#000" opacity=".2" rx="4"/>
  <path fill="#000" fill-rule="evenodd" d="M11.172 11.172C10 12.343 10 14.229 10 18v12c0 3.771 0 5.657 1.172 6.828C12.343 38 14.229 38 18 38h10v-6a4 4 0 014-4h6V18c0-3.771 0-5.657-1.172-6.828C35.657 10 33.771 10 30 10H18c-3.771 0-5.657 0-6.828 1.172zM15.5 14a1.5 1.5 0 000 3h13a1.5 1.5 0 000-3h-13zm0 6a1.5 1.5 0 000 3h6a1.5 1.5 0 000-3h-6z" clip-rule="evenodd"/>
  <path fill="#000" d="M38 28h-6a4 4 0 00-4 4v6l10-10z" opacity=".6"/>
</svg>
