<svg xmlns="http://www.w3.org/2000/svg" width="48" height="48" fill="none" viewBox="0 0 48 48">
  <path fill="#000" fill-rule="evenodd" d="M6.172 6.172C5 7.343 5 9.229 5 13v22c0 3.771 0 5.657 1.172 6.828C7.343 43 9.229 43 13 43h22c3.771 0 5.657 0 6.828-1.172C43 40.657 43 38.771 43 35V13c0-3.771 0-5.657-1.172-6.828C40.657 5 38.771 5 35 5H13C9.229 5 7.343 5 6.172 6.172zm5.12 6.12C11 12.587 11 13.058 11 14v1c0 .943 0 1.414.293 1.707.293.293.764.293 1.707.293h16c.943 0 1.414 0 1.707-.293C31 16.414 31 15.943 31 15v-1c0-.943 0-1.414-.293-1.707C30.414 12 29.943 12 29 12H13c-.943 0-1.414 0-1.707.293zM14 19a1 1 0 100 2h14a1 1 0 100-2H14z" clip-rule="evenodd" opacity=".2"/>
  <g opacity=".2">
    <path fill="#000" d="M11 14c0-.943 0-1.414.293-1.707C11.586 12 12.057 12 13 12h16c.943 0 1.414 0 1.707.293.293.293.293.764.293 1.707v1c0 .943 0 1.414-.293 1.707C30.414 17 29.943 17 29 17H13c-.943 0-1.414 0-1.707-.293C11 16.414 11 15.943 11 15v-1zM13 20a1 1 0 011-1h14a1 1 0 110 2H14a1 1 0 01-1-1z"/>
  </g>
  <rect width="34" height="38" x="9" y="5" fill="#000" opacity=".2" rx="4"/>
  <path fill="#000" fill-rule="evenodd" d="M32 43h3c3.771 0 5.657 0 6.828-1.172C43 40.657 43 38.771 43 35V13c0-3.771 0-5.657-1.172-6.828C40.657 5 38.771 5 35 5h-3c3.771 0 5.657 0 6.828 1.172C40 7.343 40 9.229 40 13v22c0 3.771 0 5.657-1.172 6.828C37.657 43 35.771 43 32 43z" clip-rule="evenodd"/>
  <path fill="#000" fill-rule="evenodd" d="M5 13c0-3.771 0-5.657 1.172-6.828C7.343 5 9.229 5 13 5h16c3.771 0 5.657 0 6.828 1.172C37 7.343 37 9.229 37 13v22c0 3.771 0 5.657-1.172 6.828C34.657 43 32.771 43 29 43H13c-3.771 0-5.657 0-6.828-1.172C5 40.657 5 38.771 5 35V13zm6 1c0-.943 0-1.414.293-1.707C11.586 12 12.057 12 13 12h16c.943 0 1.414 0 1.707.293.293.293.293.764.293 1.707v1c0 .943 0 1.414-.293 1.707C30.414 17 29.943 17 29 17H13c-.943 0-1.414 0-1.707-.293C11 16.414 11 15.943 11 15v-1zm3 5a1 1 0 100 2h14a1 1 0 100-2H14z" clip-rule="evenodd"/>
</svg>
