<svg width="48" height="48" viewBox="0 0 48 48" fill="none" xmlns="http://www.w3.org/2000/svg">
<rect opacity="0.2" x="5" y="5" width="38" height="38" rx="4" fill="black"/>
<path opacity="0.2" d="M10 18C10 14.2288 10 12.3431 11.1716 11.1716C12.3431 10 14.2288 10 18 10H30C33.7712 10 35.6569 10 36.8284 11.1716C38 12.3431 38 14.2288 38 18V28H32C29.7909 28 28 29.7909 28 32V38H18C14.2288 38 12.3431 38 11.1716 36.8284C10 35.6569 10 33.7712 10 30V18Z" fill="black"/>
<path opacity="0.6" d="M38 28H32C29.7909 28 28 29.7909 28 32V38L38 28Z" fill="black"/>
</svg>
