<svg xmlns="http://www.w3.org/2000/svg" width="48" height="48" fill="none" viewBox="0 0 48 48">
  <rect width="38" height="38" x="5" y="5" fill="#000" opacity=".2" rx="4"/>
  <path fill="#000" d="M18 11a3 3 0 013-3h6a3 3 0 013 3v4.105a4 4 0 01-1.105 2.76l-2 2.098a4 4 0 01-5.79 0l-2-2.098A4 4 0 0118 15.105V11zM30 37a3 3 0 01-3 3h-6a3 3 0 01-3-3v-4.105a4 4 0 011.105-2.76l2-2.098a4 4 0 015.79 0l2 2.098A4 4 0 0130 32.895V37zM37 18a3 3 0 013 3v6a3 3 0 01-3 3h-4.105a4 4 0 01-2.76-1.105l-2.098-2a4 4 0 010-5.79l2.098-2A4 4 0 0132.895 18H37zM11 30a3 3 0 01-3-3v-6a3 3 0 013-3h4.105a4 4 0 012.76 1.105l2.098 2a4 4 0 010 5.79l-2.098 2A4 4 0 0115.105 30H11z"/>
</svg>
