<svg xmlns="http://www.w3.org/2000/svg" width="48" height="48" fill="none" viewBox="0 0 48 48">
  <path fill="#000" d="M32.938 21.41a1 1 0 011.235-.747l2.07.555a1 1 0 01.696 1.264l-6.96 22.23a1.102 1.102 0 01-2.127-.57l5.086-22.732z"/>
  <path fill="#000" d="M34.401 19.569l2.116.567-.289 1.078-2.116-.567z" opacity=".4"/>
  <path fill="#000" d="M39.239 9.981s-8.553 5.37-4.778 9.664l2.042.548c4.12-1.085 2.736-10.212 2.736-10.212z"/>
  <path fill="#000" fill-rule="evenodd" d="M7.485 33.411c-2.312-4.005-3.024-8.477-2.08-13.063.105-.503.679-2.409.89-2.95.974-2.502 2.28-4.605 4.032-6.507 3.955-4.29 9.434-6.426 14.804-5.776 1.83.222 3.55.773 4.833 1.546 1.588.954 2.764 2.133 3.695 3.69a10.382 10.382 0 011.3 3.421c-1.378 1.76-2.178 3.881-.564 5.797l-.045.174-.238.905a1 1 0 00-1.174.762l-4.74 21.182-.2.04c-1.505.291-2.574.385-4.028.366-1.675-.029-2.944-.206-4.662-.655-1.219-.315-1.687-.47-2.66-.878a18.903 18.903 0 01-9.163-8.054zm23.386 8.452a21.75 21.75 0 001.59-.644c.676-.302 2.343-1.257 2.997-1.714 2.992-2.101 5.245-4.87 6.635-8.159.483-1.139.911-2.56.907-2.998-.009-.74-.214-1.386-.615-1.92a3.138 3.138 0 00-1.969-1.232c-.776-.155-1.33-.073-2.186.316-.38.173-.98.3-1.41.293-.227-.002-.563-.065-.873-.154L30.87 41.863zM11.546 23.14a3.28 3.28 0 00-2.772 1.494c-.205.307-.462 1.123-.475 1.501a3.163 3.163 0 001.852 2.973c.373.17 1.07.312 1.448.297 1.157-.05 2.14-.632 2.71-1.606.235-.401.408-1.029.41-1.49a3.16 3.16 0 00-1.635-2.763c-.396-.221-1.087-.402-1.538-.406zm3.012-10.07c-1.287-.113-2.553.578-3.136 1.702-.14.268-.326.912-.345 1.195-.086 1.19.552 2.346 1.622 2.946.395.225 1.082.404 1.547.404a3.27 3.27 0 002.832-1.595c.235-.4.408-1.029.41-1.49.005-1.122-.548-2.106-1.524-2.714-.32-.197-.996-.414-1.406-.448zm1.997 18.705c-.653.364-1.074.806-1.366 1.447-.513 1.11-.301 2.427.537 3.355.408.451.93.758 1.57.925a3.227 3.227 0 003.629-1.484c.208-.347.41-1.113.403-1.528-.01-.566-.124-1.014-.387-1.48a3.185 3.185 0 00-2.353-1.616c-.77-.1-1.375.014-2.033.38zm8.49-22.492c-1.403-.367-2.849.204-3.59 1.421-.203.329-.414.975-.44 1.357-.05.664.119 1.308.495 1.905.604.949 1.72 1.516 2.862 1.458.628-.03 1.377-.306 1.845-.678 1.45-1.145 1.618-3.21.377-4.547a3.053 3.053 0 00-1.549-.916z" clip-rule="evenodd" opacity=".4"/>
  <g opacity=".8">
    <path fill="#000" d="M11.545 23.141a3.28 3.28 0 00-2.771 1.494c-.205.307-.463 1.123-.475 1.501a3.163 3.163 0 001.851 2.973c.373.17 1.07.312 1.448.297 1.157-.05 2.14-.632 2.711-1.606.235-.4.407-1.029.41-1.49a3.16 3.16 0 00-1.635-2.763c-.397-.221-1.087-.401-1.539-.406zM14.557 13.07c-1.286-.112-2.553.579-3.136 1.703-.14.268-.325.912-.345 1.195-.086 1.19.553 2.346 1.622 2.946.396.225 1.082.404 1.547.404a3.27 3.27 0 002.833-1.595c.235-.4.407-1.029.41-1.49.004-1.122-.549-2.106-1.525-2.713-.32-.198-.995-.415-1.406-.45zM16.554 31.776c-.653.364-1.073.806-1.366 1.447-.513 1.11-.3 2.427.537 3.355.408.451.93.758 1.57.926a3.227 3.227 0 003.63-1.485c.207-.347.41-1.113.403-1.528-.01-.566-.125-1.014-.387-1.48a3.185 3.185 0 00-2.354-1.616c-.77-.1-1.375.014-2.033.38zM25.045 9.284c-1.404-.367-2.85.204-3.59 1.421-.203.329-.414.975-.44 1.357-.05.664.118 1.308.495 1.905.604.949 1.72 1.516 2.862 1.458.628-.03 1.376-.305 1.845-.678 1.449-1.145 1.617-3.21.376-4.547a3.052 3.052 0 00-1.548-.916z"/>
  </g>
</svg>
