<svg xmlns="http://www.w3.org/2000/svg" width="48" height="48" fill="none" viewBox="0 0 48 48">
  <rect width="38" height="38" x="5" y="5" fill="#000" opacity=".2" rx="4"/>
  <path fill="#000" d="M5 13c0-3.771 0-5.657 1.172-6.828C7.343 5 9.229 5 13 5h22c3.771 0 5.657 0 6.828 1.172C43 7.343 43 9.229 43 13v2H5v-2zM6.504 23.364V35H8.89v-7.602h.097l3.01 7.545h1.626l3.011-7.517h.097V35h2.386V23.364h-3.034l-3.204 7.818h-.137l-3.204-7.818H6.504zM23.15 35l.864-2.653h4.198L29.076 35h2.636l-4.011-11.636h-3.17L20.514 35h2.636zm1.489-4.574l1.431-4.403h.091l1.432 4.403h-2.954zm6.605-7.062l4.244 7.522V35h2.443v-4.114l4.244-7.522H39.42l-2.654 5.011h-.113l-2.654-5.011h-2.755z"/>
</svg>
