<svg xmlns="http://www.w3.org/2000/svg" width="48" height="48" fill="none" viewBox="0 0 48 48">
  <rect width="38" height="38" x="5" y="5" fill="#000" opacity=".2" rx="4"/>
  <path fill="#000" d="M5 13c0-3.771 0-5.657 1.172-6.828C7.343 5 9.229 5 13 5h22c3.771 0 5.657 0 6.828 1.172C43 7.343 43 9.229 43 13v2H5v-2zM13.24 23.364v8.113c-.005 1.12-.505 1.71-1.414 1.71-.858 0-1.415-.534-1.432-1.46H7.945c-.011 2.324 1.648 3.432 3.756 3.432 2.358 0 3.966-1.426 3.972-3.682v-8.113H13.24zM19.713 35l.864-2.653h4.199L25.639 35h2.636l-4.011-11.636h-3.171L17.076 35h2.636zm1.489-4.574l1.432-4.403h.09l1.433 4.403H21.2zm18.207-7.062H36.96v7.318h-.102l-5.023-7.318h-2.159V35h2.46v-7.324h.086L37.283 35h2.125V23.364z"/>
</svg>
