<svg xmlns="http://www.w3.org/2000/svg" width="48" height="48" fill="none" viewBox="0 0 48 48">
  <rect width="38" height="38" x="5" y="5" fill="#000" opacity=".2" rx="4"/>
  <path fill="#000" d="M5 13c0-3.771 0-5.657 1.172-6.828C7.343 5 9.229 5 13 5h22c3.771 0 5.657 0 6.828 1.172C43 7.343 43 9.229 43 13v2H5v-2zM6.457 23.364V35h2.386v-7.602h.097l3.011 7.545h1.625l3.011-7.517h.097V35h2.386V23.364h-3.034l-3.204 7.818h-.137l-3.204-7.818H6.457zM23.103 35l.864-2.653h4.199L29.029 35h2.637l-4.012-11.636h-3.17L20.467 35h2.636zm1.489-4.574l1.431-4.403h.091l1.432 4.403h-2.954zM33.066 35h2.46v-4.125h1.796L39.526 35h2.716l-2.471-4.523c1.323-.568 2.056-1.721 2.056-3.312 0-2.313-1.528-3.801-4.17-3.801h-4.59V35zm2.46-6.102v-3.523h1.66c1.42 0 2.107.63 2.107 1.79 0 1.153-.687 1.733-2.096 1.733h-1.67z"/>
</svg>
