<svg xmlns="http://www.w3.org/2000/svg" width="48" height="48" fill="none" viewBox="0 0 48 48">
  <rect width="40" height="40" x="4" y="6" fill="#000" opacity=".2" rx="4"/>
  <path fill="#000" d="M16.947 24.364H14.5v7.318h-.103l-5.022-7.318h-2.16V36h2.46v-7.324h.086L14.822 36h2.125V24.364zm12.726 5.818c0-3.807-2.363-5.977-5.449-5.977-3.102 0-5.448 2.17-5.448 5.977 0 3.79 2.346 5.977 5.448 5.977 3.086 0 5.45-2.17 5.45-5.977zm-2.494 0c0 2.466-1.17 3.801-2.955 3.801-1.79 0-2.954-1.335-2.954-3.801s1.165-3.801 2.954-3.801c1.785 0 2.955 1.335 2.955 3.8zm5.763-5.818h-2.733L34.226 36h3.17l4.012-11.636H38.68l-2.818 8.84h-.108l-2.812-8.84z"/>
  <g opacity=".4">
    <path fill="#000" d="M10 4a2 2 0 114 0v4a2 2 0 11-4 0V4zM34 4a2 2 0 114 0v4a2 2 0 11-4 0V4z"/>
  </g>
  <path fill="#000" fill-rule="evenodd" d="M10 6.009c-2.48.036-3.885.22-4.828 1.163C4 8.343 4 10.229 4 14v2h40v-2c0-3.771 0-5.657-1.172-6.828-.943-.944-2.348-1.127-4.828-1.163V8a2 2 0 11-4 0V6H14v2a2 2 0 11-4 0V6.009z" clip-rule="evenodd"/>
</svg>
