<svg xmlns="http://www.w3.org/2000/svg" width="48" height="48" fill="none" viewBox="0 0 48 48">
  <rect width="38" height="38" x="5" y="5" fill="#000" opacity=".2" rx="4"/>
  <path fill="#000" d="M5 13c0-3.771 0-5.657 1.172-6.828C7.343 5 9.229 5 13 5h22c3.771 0 5.657 0 6.828 1.172C43 7.343 43 9.229 43 13v2H5v-2zM9.11 35l.864-2.653h4.2L15.036 35h2.636l-4.011-11.636h-3.17L6.474 35h2.637zm1.49-4.574l1.431-4.403h.091l1.432 4.403h-2.955zm15.661-7.062v7.346c0 1.33-.931 2.29-2.363 2.29-1.426 0-2.364-.96-2.364-2.29v-7.346h-2.46v7.556c0 2.546 1.92 4.245 4.824 4.245 2.892 0 4.824-1.7 4.824-4.244v-7.557h-2.46zm12.2 3.761h2.5c-.317-2.301-2.346-3.92-4.977-3.92-3.074 0-5.443 2.216-5.443 5.988 0 3.682 2.216 5.966 5.494 5.966 2.938 0 5.035-1.858 5.035-4.92v-1.466H36.2v1.852h2.5c-.034 1.443-1.017 2.358-2.653 2.358-1.847 0-3.011-1.38-3.011-3.812 0-2.421 1.21-3.79 2.988-3.79 1.267 0 2.125.653 2.438 1.744z"/>
</svg>
