<svg xmlns="http://www.w3.org/2000/svg" width="48" height="48" fill="none" viewBox="0 0 48 48">
  <rect width="40" height="40" x="4" y="6" fill="#000" opacity=".2" rx="4"/>
  <path fill="#000" d="M14.733 24.364v8.113c-.006 1.12-.506 1.71-1.415 1.71-.858 0-1.415-.534-1.432-1.46H9.438c-.012 2.324 1.647 3.432 3.755 3.432 2.358 0 3.966-1.426 3.972-3.682v-8.113h-2.432zm11.653 0v7.346c0 1.33-.931 2.29-2.363 2.29-1.426 0-2.364-.96-2.364-2.29v-7.346H19.2v7.556c0 2.546 1.92 4.245 4.824 4.245 2.892 0 4.824-1.7 4.824-4.244v-7.557h-2.46zM30.871 36h7.449v-2.028H33.33v-9.608h-2.46V36z"/>
  <g opacity=".4">
    <path fill="#000" d="M10 4a2 2 0 114 0v4a2 2 0 11-4 0V4zM34 4a2 2 0 114 0v4a2 2 0 11-4 0V4z"/>
  </g>
  <path fill="#000" fill-rule="evenodd" d="M10 6.009c-2.48.036-3.885.22-4.828 1.163C4 8.343 4 10.229 4 14v2h40v-2c0-3.771 0-5.657-1.172-6.828-.943-.944-2.348-1.127-4.828-1.163V8a2 2 0 11-4 0V6H14v2a2 2 0 11-4 0V6.009z" clip-rule="evenodd"/>
</svg>
