<svg xmlns="http://www.w3.org/2000/svg" width="48" height="48" fill="none" viewBox="0 0 48 48">
  <rect width="38" height="38" x="5" y="5" fill="#000" opacity=".2" rx="4"/>
  <path fill="#000" d="M5 13c0-3.771 0-5.657 1.172-6.828C7.343 5 9.229 5 13 5h22c3.771 0 5.657 0 6.828 1.172C43 7.343 43 9.229 43 13v2H5v-2zM16.947 23.364H14.5v7.318h-.103l-5.022-7.318h-2.16V35h2.46v-7.324h.086L14.822 35h2.125V23.364zm12.726 5.818c0-3.807-2.363-5.977-5.449-5.977-3.102 0-5.448 2.17-5.448 5.977 0 3.79 2.346 5.977 5.448 5.977 3.086 0 5.45-2.17 5.45-5.977zm-2.494 0c0 2.466-1.17 3.801-2.955 3.801-1.79 0-2.954-1.335-2.954-3.801s1.165-3.801 2.954-3.801c1.785 0 2.955 1.335 2.955 3.8zm5.763-5.818h-2.733L34.226 35h3.17l4.012-11.636H38.68l-2.818 8.84h-.108l-2.812-8.84z"/>
</svg>
