<svg xmlns="http://www.w3.org/2000/svg" width="48" height="48" fill="none" viewBox="0 0 48 48">
  <rect width="38" height="38" x="5" y="5" fill="#000" opacity=".2" rx="4"/>
  <path fill="#000" d="M5 13c0-3.771 0-5.657 1.172-6.828C7.343 5 9.229 5 13 5h22c3.771 0 5.657 0 6.828 1.172C43 7.343 43 9.229 43 13v2H5v-2zM18.087 29.182c0-3.807-2.363-5.977-5.448-5.977-3.103 0-5.45 2.17-5.45 5.977 0 3.79 2.347 5.977 5.45 5.977 3.085 0 5.448-2.17 5.448-5.977zm-2.494 0c0 2.466-1.17 3.801-2.954 3.801-1.79 0-2.955-1.335-2.955-3.801s1.165-3.801 2.955-3.801c1.784 0 2.954 1.335 2.954 3.8zm14.584-1.744c-.324-2.688-2.358-4.233-5.051-4.233-3.074 0-5.42 2.17-5.42 5.977 0 3.795 2.306 5.977 5.42 5.977 2.983 0 4.784-1.983 5.05-4.125l-2.488-.011c-.233 1.244-1.21 1.96-2.522 1.96-1.768 0-2.966-1.312-2.966-3.801 0-2.42 1.181-3.801 2.983-3.801 1.346 0 2.318.778 2.505 2.056h2.489zm1.32-2.046h3.563V35h2.432v-9.608h3.563v-2.028h-9.557v2.028z"/>
</svg>
