<svg xmlns="http://www.w3.org/2000/svg" width="48" height="48" fill="none" viewBox="0 0 48 48">
  <rect width="40" height="40" x="4" y="6" fill="#000" opacity=".2" rx="4"/>
  <path fill="#000" d="M12.402 36c3.545 0 5.693-2.193 5.693-5.83 0-3.625-2.148-5.806-5.659-5.806H8.277V36h4.125zm-1.665-2.108v-7.42h1.568c2.182 0 3.336 1.113 3.336 3.698 0 2.597-1.154 3.722-3.341 3.722h-1.563zM19.917 36h7.864v-2.028h-5.403v-2.779h4.977v-2.028h-4.977v-2.773h5.38v-2.028h-7.84V36zm20.064-7.563c-.323-2.687-2.357-4.233-5.05-4.233-3.074 0-5.421 2.171-5.421 5.978 0 3.795 2.307 5.977 5.42 5.977 2.983 0 4.785-1.983 5.051-4.125l-2.488-.011c-.233 1.244-1.21 1.96-2.523 1.96-1.767 0-2.966-1.313-2.966-3.801 0-2.42 1.182-3.801 2.983-3.801 1.347 0 2.318.778 2.506 2.056h2.488z"/>
  <g opacity=".4">
    <path fill="#000" d="M10 4a2 2 0 114 0v4a2 2 0 11-4 0V4zM34 4a2 2 0 114 0v4a2 2 0 11-4 0V4z"/>
  </g>
  <path fill="#000" fill-rule="evenodd" d="M10 6.009c-2.48.036-3.885.22-4.828 1.163C4 8.343 4 10.229 4 14v2h40v-2c0-3.771 0-5.657-1.172-6.828-.943-.944-2.348-1.127-4.828-1.163V8a2 2 0 11-4 0V6H14v2a2 2 0 11-4 0V6.009z" clip-rule="evenodd"/>
</svg>
