<svg xmlns="http://www.w3.org/2000/svg" width="48" height="48" fill="none" viewBox="0 0 48 48">
  <rect width="38" height="38" x="5" y="5" fill="#000" opacity=".2" rx="4"/>
  <path fill="#000" d="M5 13c0-3.771 0-5.657 1.172-6.828C7.343 5 9.229 5 13 5h22c3.771 0 5.657 0 6.828 1.172C43 7.343 43 9.229 43 13v2H5v-2zM12.402 35c3.545 0 5.693-2.193 5.693-5.83 0-3.625-2.148-5.806-5.659-5.806H8.277V35h4.125zm-1.665-2.108v-7.42h1.568c2.182 0 3.336 1.113 3.336 3.698 0 2.597-1.154 3.722-3.341 3.722h-1.563zM19.917 35h7.864v-2.028h-5.403v-2.779h4.977v-2.028h-4.977v-2.773h5.38v-2.028h-7.84V35zm20.064-7.563c-.323-2.687-2.357-4.233-5.05-4.233-3.074 0-5.421 2.171-5.421 5.978 0 3.795 2.307 5.977 5.42 5.977 2.983 0 4.785-1.983 5.051-4.125l-2.488-.011c-.233 1.244-1.21 1.96-2.523 1.96-1.767 0-2.966-1.312-2.966-3.801 0-2.42 1.182-3.801 2.983-3.801 1.347 0 2.318.778 2.506 2.056h2.488z"/>
</svg>
