<svg xmlns="http://www.w3.org/2000/svg" width="48" height="48" fill="none" viewBox="0 0 48 48">
  <rect width="40" height="40" x="4" y="6" fill="#000" opacity=".2" rx="4"/>
  <path fill="#000" d="M16.004 27.71h2.357c-.034-2.074-1.738-3.506-4.329-3.506-2.551 0-4.42 1.41-4.41 3.523-.005 1.716 1.205 2.7 3.171 3.17l1.267.319c1.267.307 1.972.67 1.978 1.454-.006.853-.813 1.432-2.063 1.432-1.278 0-2.199-.59-2.278-1.755h-2.38c.062 2.517 1.863 3.818 4.687 3.818 2.84 0 4.51-1.358 4.517-3.489-.006-1.937-1.466-2.966-3.489-3.42l-1.046-.25c-1.01-.233-1.857-.608-1.84-1.444 0-.75.664-1.3 1.869-1.3 1.176 0 1.898.534 1.989 1.448zM20.175 36h7.864v-2.028h-5.403v-2.779h4.977v-2.028h-4.977v-2.773h5.38v-2.028h-7.84V36zm9.797 0h2.46v-3.773h2.069c2.676 0 4.233-1.596 4.233-3.92 0-2.313-1.529-3.943-4.17-3.943h-4.592V36zm2.46-5.744v-3.881h1.66c1.42 0 2.108.773 2.108 1.932 0 1.153-.688 1.949-2.097 1.949h-1.67z"/>
  <g opacity=".4">
    <path fill="#000" d="M10 4a2 2 0 114 0v4a2 2 0 11-4 0V4zM34 4a2 2 0 114 0v4a2 2 0 11-4 0V4z"/>
  </g>
  <path fill="#000" fill-rule="evenodd" d="M10 6.009c-2.48.036-3.885.22-4.828 1.163C4 8.343 4 10.229 4 14v2h40v-2c0-3.771 0-5.657-1.172-6.828-.943-.944-2.348-1.127-4.828-1.163V8a2 2 0 11-4 0V6H14v2a2 2 0 11-4 0V6.009z" clip-rule="evenodd"/>
</svg>
