<svg xmlns="http://www.w3.org/2000/svg" width="48" height="48" fill="none" viewBox="0 0 48 48">
  <rect width="40" height="40" x="4" y="6" fill="#000" opacity=".2" rx="4"/>
  <path fill="#000" d="M9.11 36l.864-2.653h4.2L15.036 36h2.636l-4.011-11.636h-3.17L6.474 36h2.637zm1.49-4.574l1.431-4.403h.091l1.432 4.403h-2.955zm15.661-7.062v7.346c0 1.33-.931 2.29-2.363 2.29-1.426 0-2.364-.96-2.364-2.29v-7.346h-2.46v7.556c0 2.546 1.92 4.245 4.824 4.245 2.892 0 4.824-1.7 4.824-4.244v-7.557h-2.46zm12.2 3.761h2.5c-.317-2.301-2.346-3.92-4.977-3.92-3.074 0-5.443 2.216-5.443 5.988 0 3.682 2.216 5.966 5.494 5.966 2.938 0 5.035-1.858 5.035-4.92v-1.466H36.2v1.852h2.5c-.034 1.443-1.017 2.358-2.653 2.358-1.847 0-3.011-1.38-3.011-3.812 0-2.421 1.21-3.79 2.988-3.79 1.267 0 2.125.653 2.438 1.744z"/>
  <g opacity=".4">
    <path fill="#000" d="M10 4a2 2 0 114 0v4a2 2 0 11-4 0V4zM34 4a2 2 0 114 0v4a2 2 0 11-4 0V4z"/>
  </g>
  <path fill="#000" fill-rule="evenodd" d="M10 6.009c-2.48.036-3.885.22-4.828 1.163C4 8.343 4 10.229 4 14v2h40v-2c0-3.771 0-5.657-1.172-6.828-.943-.944-2.348-1.127-4.828-1.163V8a2 2 0 11-4 0V6H14v2a2 2 0 11-4 0V6.009z" clip-rule="evenodd"/>
</svg>
