<svg width="48" height="48" viewBox="0 0 48 48" fill="none" xmlns="http://www.w3.org/2000/svg">
<rect opacity="0.2" x="5" y="5" width="38" height="38" rx="4" fill="black"/>
<path d="M43 31.3999V34.9999C43 38.7711 43 40.6568 41.8284 41.8283C40.6569 42.9999 38.7712 42.9999 35 42.9999H13C9.22876 42.9999 7.34315 42.9999 6.17157 41.8283C5 40.6568 5 38.7711 5 34.9999V28.4999L11.9854 22.6787C13.1391 21.7173 14.826 21.7571 15.9331 22.7719L24.2077 30.3569C25.2525 31.3147 26.8251 31.4105 27.9785 30.5867L31.6107 27.9922C32.4721 27.377 33.5938 27.2612 34.5627 27.6875L43 31.3999Z" fill="black"/>
<circle cx="30" cy="14" r="4" fill="black"/>
</svg>
