<svg width="48" height="48" viewBox="0 0 48 48" fill="none" xmlns="http://www.w3.org/2000/svg">
<path opacity="0.4" d="M4.12527 33.0149C4.48157 35.0034 6.53499 36 8.5552 36H39.4587C40.733 36 42.0494 35.6476 42.8027 34.6197C43.5565 33.5911 44 32.3317 44 30.9715C44 27.8098 41.604 25.1933 38.4844 24.7515C37.3958 21.0829 33.9227 18.4003 29.8065 18.4003C29.4905 18.4003 29.1784 18.4161 28.8709 18.4469C26.9802 16.121 24.056 14.6289 20.7742 14.6289C15.4375 14.6289 11.0467 18.5745 10.5073 23.6348C6.78031 24.4662 4 27.7168 4 31.6C4 32.0826 4.04293 32.5553 4.12527 33.0149Z" fill="black"/>
<path d="M41.0194 22.2538C41.146 21.8537 40.7167 21.5253 40.3237 21.6724C39.462 21.9949 38.5262 22.1716 37.548 22.1716C33.2723 22.1716 29.8061 18.7946 29.8061 14.6289C29.8061 13.6881 29.9829 12.7876 30.3059 11.957C30.4591 11.5631 30.1332 11.1236 29.7284 11.2449C26.0374 12.3507 23.3545 15.6988 23.3545 19.6574C23.3545 24.5174 27.3984 28.4572 32.3867 28.4572C36.4475 28.4572 39.8823 25.8465 41.0194 22.2538Z" fill="black"/>
</svg>
