<svg width="48" height="48" viewBox="0 0 48 48" fill="none" xmlns="http://www.w3.org/2000/svg">
<g clip-path="url(#clip0_38:1557)">
<path opacity="0.6" d="M14.4725 31.8526C0.0108821 16.7377 25.4922 7.15853 37.1864 8.05835C38.052 8.12495 38.7526 8.72882 38.8775 9.57073C40.4175 19.9467 30.9147 49.0376 14.4725 31.8526Z" fill="black"/>
<path fill-rule="evenodd" clip-rule="evenodd" d="M36.4779 12.697C36.4779 12.697 36.4779 12.697 36.4779 12.697L36.4388 12.7274L36.3218 12.8186C36.2191 12.8989 36.0682 13.017 35.8766 13.1677C35.4933 13.4692 34.9473 13.9008 34.2979 14.4201C34.0204 14.642 33.7242 14.8798 33.4141 15.13C33.7144 15.2125 34.0186 15.3127 34.3253 15.4329C35.2085 15.779 35.638 16.7611 35.2847 17.6264C34.9314 18.4917 33.9292 18.9126 33.046 18.5665C31.4603 17.945 30.0185 18.2151 29.4412 18.4156C27.5639 20.0152 25.8353 21.5721 23.9816 23.5449C25.3683 23.6507 26.9357 24.0173 28.646 24.7641C29.5148 25.1434 29.9052 26.1411 29.518 26.9924C29.1309 27.8436 28.1127 28.2261 27.2439 27.8468C23.3874 26.1628 21.1197 27.1231 20.5666 27.4994C17.0215 31.9334 14.0705 36.9428 12.9833 42.0916C12.7906 43.0042 11.8793 43.5909 10.9479 43.4022C10.0164 43.2133 9.41757 42.3204 9.61028 41.4078C10.836 35.6029 14.0812 30.1641 17.7502 25.5495C17.9213 24.6246 17.8222 22.6495 15.935 21.1085C15.2043 20.5119 15.1056 19.4478 15.7145 18.7318C16.3234 18.0159 17.4094 17.9191 18.1401 18.5158C19.4671 19.5993 20.2719 20.8336 20.7289 22.0375C22.8653 19.6836 24.8092 17.9008 26.8826 16.1239C26.9046 15.7564 26.8978 15.3245 26.832 14.9145C26.7184 14.206 26.4984 13.9578 26.4155 13.9037C25.6242 13.3868 25.4103 12.339 25.9379 11.5636C26.4655 10.7881 27.5348 10.5786 28.3261 11.0956C29.2722 11.7135 29.767 12.642 30.0291 13.4956C30.7864 12.8765 31.5002 12.3011 32.1199 11.8054C32.7777 11.2794 33.3311 10.842 33.7205 10.5357C33.9152 10.3826 34.069 10.2622 34.1744 10.1798L34.2952 10.0855L34.3371 10.053C34.3371 10.0529 34.3379 10.0523 35.4079 11.3747L34.3371 10.053C35.0825 9.47399 36.1666 9.59599 36.7574 10.3263C37.3484 11.0566 37.2231 12.118 36.4779 12.697Z" fill="black"/>
</g>
<defs>
<clipPath id="clip0_38:1557">
<rect width="31" height="36" fill="white" transform="translate(9 8)"/>
</clipPath>
</defs>
</svg>
