<svg xmlns="http://www.w3.org/2000/svg" width="48" height="48" fill="none" viewBox="0 0 48 48">
  <rect width="38" height="38" x="5" y="5" fill="#000" opacity=".2" rx="4"/>
  <path fill="#000" d="M24.248 36.308c5.02.022 8.443-3.27 8.432-7.86.011-4.227-2.94-7.276-6.935-7.276-2.477 0-4.668 1.188-5.68 3.181h-.155c.022-4.392 1.564-7.123 4.503-7.123 1.728 0 2.972.947 3.335 2.521h4.701c-.451-3.71-3.534-6.605-8.036-6.605-5.57 0-9.148 4.514-9.17 12.088-.011 8.256 4.37 11.052 9.005 11.074zm-.022-3.743c-2.202 0-3.831-1.772-3.831-3.974.01-2.19 1.673-3.974 3.864-3.974 2.201 0 3.809 1.729 3.798 3.963.01 2.257-1.63 3.985-3.831 3.985z"/>
</svg>
