<svg xmlns="http://www.w3.org/2000/svg" width="48" height="48" fill="none" viewBox="0 0 48 48">
  <path fill="#000" d="M17.707 36.293a1 1 0 01.707-.293h11.172a1 1 0 01.707.293l1.353 1.353a.5.5 0 010 .708l-1.353 1.353a1 1 0 01-.707.293H18.414a1 1 0 01-.707-.293l-1.353-1.353a.5.5 0 010-.708l1.353-1.353zM17.707 8.293A1 1 0 0118.414 8h11.172a1 1 0 01.707.293l1.353 1.353a.5.5 0 010 .708l-1.353 1.353a1 1 0 01-.707.293H18.414a1 1 0 01-.707-.293l-1.353-1.353a.5.5 0 010-.708l1.353-1.353zM17.707 22.293a1 1 0 01.707-.293h11.172a1 1 0 01.707.293l1.353 1.353a.5.5 0 010 .708l-1.353 1.353a1 1 0 01-.707.293H18.414a1 1 0 01-.707-.293l-1.353-1.353a.5.5 0 010-.708l1.353-1.353zM34.707 12.707a1 1 0 01.293.707v7.172a1 1 0 01-.293.707l-1.353 1.353a.5.5 0 01-.708 0l-1.353-1.353a1 1 0 01-.293-.707v-7.172a1 1 0 01.293-.707l1.353-1.353a.5.5 0 01.708 0l1.353 1.353zM16.707 12.707a1 1 0 01.293.707v7.172a1 1 0 01-.293.707l-1.353 1.353a.5.5 0 01-.708 0l-1.353-1.353a1 1 0 01-.293-.707v-7.172a1 1 0 01.293-.707l1.353-1.353a.5.5 0 01.708 0l1.353 1.353zM34.707 26.707a1 1 0 01.293.707v7.172a1 1 0 01-.293.707l-1.353 1.353a.5.5 0 01-.708 0l-1.353-1.353a1 1 0 01-.293-.707v-7.172a1 1 0 01.293-.707l1.353-1.353a.5.5 0 01.708 0l1.353 1.353zM16.707 26.707a1 1 0 01.293.707v7.172a1 1 0 01-.293.707l-1.353 1.353a.5.5 0 01-.708 0l-1.353-1.353a1 1 0 01-.293-.707v-7.172a1 1 0 01.293-.707l1.353-1.353a.5.5 0 01.708 0l1.353 1.353z" opacity=".2"/>
  <g>
    <path fill="#000" d="M17.707 22.293a1 1 0 01.707-.293h11.172a1 1 0 01.707.293l1.353 1.353a.5.5 0 010 .708l-1.353 1.353a1 1 0 01-.707.293H18.414a1 1 0 01-.707-.293l-1.353-1.353a.5.5 0 010-.708l1.353-1.353zM34.707 12.707a1 1 0 01.293.707v7.172a1 1 0 01-.293.707l-1.353 1.353a.5.5 0 01-.708 0l-1.353-1.353a1 1 0 01-.293-.707v-7.172a1 1 0 01.293-.707l1.353-1.353a.5.5 0 01.708 0l1.353 1.353zM16.707 12.707a1 1 0 01.293.707v7.172a1 1 0 01-.293.707l-1.353 1.353a.5.5 0 01-.708 0l-1.353-1.353a1 1 0 01-.293-.707v-7.172a1 1 0 01.293-.707l1.353-1.353a.5.5 0 01.708 0l1.353 1.353zM34.707 26.707a1 1 0 01.293.707v7.172a1 1 0 01-.293.707l-1.353 1.353a.5.5 0 01-.708 0l-1.353-1.353a1 1 0 01-.293-.707v-7.172a1 1 0 01.293-.707l1.353-1.353a.5.5 0 01.708 0l1.353 1.353z"/>
  </g>
</svg>
