<svg xmlns="http://www.w3.org/2000/svg" width="48" height="48" fill="none" viewBox="0 0 48 48">
  <rect width="38" height="38" x="5" y="5" fill="#000" opacity=".2" rx="4"/>
  <path fill="#000" d="M23.944 36.308c5.064 0 8.685-2.785 8.674-6.638.011-2.807-1.772-4.81-5.086-5.229v-.176c2.521-.451 4.26-2.235 4.25-4.767.01-3.556-3.105-6.352-7.772-6.352-4.624 0-8.103 2.708-8.169 6.605h4.569c.055-1.717 1.63-2.829 3.578-2.829 1.926 0 3.214 1.167 3.203 2.862.011 1.773-1.497 2.973-3.666 2.973h-2.102v3.5h2.102c2.554 0 4.15 1.277 4.14 3.094.01 1.794-1.53 3.027-3.71 3.027-2.103 0-3.677-1.1-3.765-2.752h-4.8c.077 3.941 3.6 6.682 8.554 6.682z"/>
</svg>
