<svg xmlns="http://www.w3.org/2000/svg" width="48" height="48" fill="none" viewBox="0 0 48 48">
  <g clip-path="url(#clip0_47:622)">
    <rect width="38" height="38" x="5" y="5" fill="#000" opacity=".2" rx="4"/>
    <path fill="#000" d="M15.727 21.206l11.314 11.313-1.414 1.415L14.313 22.62z" opacity=".2"/>
    <path fill="#000" d="M19.713 17.221a22 22 0 0114.265-6.405l1.425-.084a2 2 0 012.114 2.114l-.084 1.425a22 22 0 01-6.406 14.264l-7.52 7.52a2 2 0 01-2.829 0l-8.485-8.485a2 2 0 010-2.828l7.52-7.52z" opacity=".2"/>
    <g opacity=".6">
      <path fill="#000" d="M26.796 12.475a22 22 0 00-7.083 4.746l-3.985 3.985L27.042 32.52l3.985-3.985a21.997 21.997 0 004.746-7.083l-8.977-8.977zM14.314 22.62l11.314 11.314-2.121 2.121a2 2 0 01-2.829 0l-8.485-8.485a2 2 0 010-2.828l2.121-2.122z"/>
    </g>
    <path fill="#000" d="M28.876 11.726c1.647-.5 3.358-.808 5.101-.91l1.425-.085a2 2 0 012.114 2.114l-.084 1.425a22 22 0 01-.911 5.101l-7.645-7.644zM29.622 37.577l.955-8.593-7.07 7.071 2.713 2.715c1.186 1.186 3.217.473 3.402-1.194zM10.671 18.625l8.593-.955-7.071 7.071-2.715-2.714c-1.186-1.186-.473-3.217 1.194-3.402zM11.383 28.508l1.91.161 6.285 6.286.162 1.91c.078.928-1.045 1.45-1.704.79l-7.444-7.444c-.66-.66-.138-1.782.791-1.703z"/>
  </g>
  <defs>
    <clipPath id="clip0_47:622">
      <path fill="#fff" d="M0 0h48v48H0z"/>
    </clipPath>
  </defs>
</svg>
