<svg width="48" height="48" viewBox="0 0 48 48" fill="none" xmlns="http://www.w3.org/2000/svg">
<rect opacity="0.2" x="5" y="5" width="38" height="38" rx="4" fill="black"/>
<path opacity="0.2" d="M12 16C12 14.1144 12 13.1716 12.5858 12.5858C13.1716 12 14.1144 12 16 12H32C33.8856 12 34.8284 12 35.4142 12.5858C36 13.1716 36 14.1144 36 16V30H12V16Z" fill="black"/>
<path fill-rule="evenodd" clip-rule="evenodd" d="M15.9342 11C15.956 11 15.978 11 16 11L32.0658 11C32.9523 11 33.7161 10.9999 34.3278 11.0821C34.9833 11.1703 35.6117 11.369 36.1213 11.8787C36.631 12.3883 36.8297 13.0167 36.9179 13.6722C37.0001 14.2839 37.0001 15.0477 37 15.9342L37 31H11V16C11 15.978 11 15.956 11 15.9342C11 15.0477 10.9999 14.2839 11.0821 13.6722C11.1703 13.0167 11.369 12.3883 11.8787 11.8787C12.3883 11.369 13.0167 11.1703 13.6722 11.0821C14.2839 10.9999 15.0477 11 15.9342 11ZM13.9387 13.0643C13.505 13.1226 13.369 13.2168 13.2929 13.2929C13.2168 13.369 13.1226 13.505 13.0643 13.9387C13.0021 14.4012 13 15.0289 13 16V29H35V16C35 15.0289 34.9979 14.4012 34.9357 13.9387C34.8774 13.505 34.7832 13.369 34.7071 13.2929C34.631 13.2168 34.495 13.1226 34.0613 13.0643C33.5988 13.0021 32.9711 13 32 13H16C15.0289 13 14.4012 13.0021 13.9387 13.0643Z" fill="black"/>
<path opacity="0.6" d="M11 31H37L38.5528 34.1056C39.2177 35.4354 38.2507 37 36.7639 37H11.2361C9.7493 37 8.78231 35.4354 9.44721 34.1056L11 31Z" fill="black"/>
</svg>
