<svg xmlns="http://www.w3.org/2000/svg" width="48" height="48" fill="none" viewBox="0 0 48 48">
  <rect width="38" height="38" x="5" y="5" fill="#000" opacity=".2" rx="4"/>
  <path fill="#000" d="M30 18a6 6 0 00-12 0h2.997a3.003 3.003 0 116.006 0H30z" opacity=".6"/>
  <path fill="#000" fill-rule="evenodd" d="M10.744 18.666c-.596.666-.481 1.703-.25 3.776l.715 6.442c.376 3.385.564 5.077 1.703 6.096C14.052 36 15.754 36 19.16 36h9.68c3.405 0 5.108 0 6.247-1.02 1.14-1.019 1.327-2.711 1.704-6.096l.715-6.442c.23-2.073.346-3.11-.25-3.776C36.659 18 35.616 18 33.53 18H14.469c-2.086 0-3.129 0-3.725.666zM16 21a1 1 0 00-1 1v9a1 1 0 102 0v-9a1 1 0 00-1-1zm3 1a1 1 0 112 0v9a1 1 0 01-2 0v-9zm5-1a1 1 0 00-1 1v9a1 1 0 102 0v-9a1 1 0 00-1-1zm3 1a1 1 0 112 0v9a1 1 0 01-2 0v-9zm5-1a1 1 0 00-1 1v9a1 1 0 102 0v-9a1 1 0 00-1-1z" clip-rule="evenodd"/>
</svg>
