<svg xmlns="http://www.w3.org/2000/svg" width="48" height="48" fill="none" viewBox="0 0 48 48">
  <rect width="38" height="38" x="5" y="5" fill="#000" opacity=".2" rx="4"/>
  <path fill="#000" d="M22.47 10.634c.755-.313 1.132-.47 1.53-.47.398 0 .776.157 1.53.47l6.839 2.832c.755.313 1.133.47 1.414.751.281.281.438.659.75 1.414l2.833 6.838c.313.755.47 1.133.47 1.531 0 .398-.157.776-.47 1.53l-2.833 6.839c-.312.755-.469 1.133-.75 1.414-.281.281-.659.438-1.414.75l-6.838 2.833c-.755.313-1.133.47-1.531.47-.398 0-.776-.157-1.53-.47l-6.839-2.833c-.755-.312-1.133-.469-1.414-.75-.281-.281-.438-.659-.75-1.414l-2.833-6.838c-.313-.755-.47-1.133-.47-1.531 0-.398.157-.776.47-1.53l2.832-6.839c.313-.755.47-1.133.751-1.414.281-.281.659-.438 1.414-.75l6.838-2.833z"/>
</svg>
