<svg xmlns="http://www.w3.org/2000/svg" width="48" height="48" fill="none" viewBox="0 0 48 48">
  <path fill="#000" d="M22 5.155c.976-.564 1.464-.846 2-.846s1.024.282 2 .846l13.32 7.69c.977.564 1.465.846 1.733 1.31.268.464.268 1.027.268 2.154v15.382c0 1.127 0 1.69-.268 2.154-.268.464-.756.746-1.732 1.31L26 42.845c-.976.564-1.464.846-2 .846s-1.024-.282-2-.846l-13.32-7.69c-.977-.564-1.465-.846-1.733-1.31-.268-.464-.268-1.027-.268-2.154V16.309c0-1.127 0-1.69.268-2.154.268-.464.756-.746 1.732-1.31L22 5.155z"/>
</svg>
