<svg xmlns="http://www.w3.org/2000/svg" width="48" height="48" fill="none" viewBox="0 0 48 48">
  <rect width="38" height="38" x="5" y="5" fill="#000" opacity=".2" rx="4"/>
  <path fill="#000" d="M22 11.155c.976-.564 1.464-.846 2-.846s1.024.282 2 .846l8.124 4.69c.976.564 1.465.846 1.732 1.31.268.464.268 1.027.268 2.154v9.382c0 1.127 0 1.69-.268 2.154-.267.464-.756.746-1.732 1.31L26 36.845c-.976.564-1.464.846-2 .846s-1.024-.282-2-.846l-8.124-4.69c-.976-.564-1.464-.846-1.732-1.31-.268-.464-.268-1.027-.268-2.154v-9.382c0-1.127 0-1.69.268-2.154.268-.464.756-.746 1.732-1.31L22 11.155z"/>
</svg>
