<svg xmlns="http://www.w3.org/2000/svg" width="48" height="48" fill="none" viewBox="0 0 48 48">
  <rect width="38" height="38" x="5" y="5" fill="#000" opacity=".2" rx="4"/>
  <path stroke="#000" stroke-width="2" d="M11 19.33c0-3.51 2.836-6.33 6.412-6.33 1.946 0 3.31.7 4.368 1.56l.035.03c.381.31.72.585 1.01.778.285.191.687.42 1.175.42s.89-.229 1.175-.42c.29-.193.629-.469 1.01-.779l.035-.028C27.278 13.7 28.642 13 30.588 13 34.164 13 37 15.82 37 19.33c0 3.035-1.675 5.715-4.14 8.203-1.917 1.936-4.2 3.65-6.355 5.268-.623.468-1.236.928-1.826 1.383-.335.259-.52.4-.663.486a.691.691 0 01-.016.01.691.691 0 01-.016-.01c-.142-.086-.328-.227-.663-.486-.59-.455-1.203-.915-1.826-1.383-2.154-1.618-4.438-3.332-6.356-5.268C12.675 25.045 11 22.365 11 19.33z"/>
</svg>
