<svg width="48" height="48" viewBox="0 0 48 48" fill="none" xmlns="http://www.w3.org/2000/svg">
<path d="M21.6797 6.65233C23.0685 5.66334 24.9315 5.66335 26.3203 6.65233L29.4819 8.9038C33.1994 11.5511 36.4489 14.8006 39.0962 18.5181L41.3477 21.6797C42.3367 23.0685 42.3367 24.9315 41.3477 26.3203L39.0962 29.4819C36.4489 33.1994 33.1994 36.4489 29.4819 39.0962L26.3203 41.3477C24.9315 42.3367 23.0685 42.3367 21.6797 41.3477L18.5181 39.0962C14.8006 36.4489 11.5511 33.1994 8.9038 29.4819L6.65233 26.3203C5.66334 24.9315 5.66335 23.0685 6.65233 21.6797L8.9038 18.5181C11.5511 14.8006 14.8006 11.5511 18.5181 8.9038L21.6797 6.65233Z" fill="black"/>
</svg>
