<svg width="48" height="48" viewBox="0 0 48 48" fill="none" xmlns="http://www.w3.org/2000/svg">
<path d="M25.4502 7.87418L28.6118 10.1256C32.1933 12.6761 35.3239 15.8067 37.8744 19.3882L40.1258 22.5498C40.7439 23.4178 40.7439 24.5822 40.1258 25.4502L37.8744 28.6118C35.3239 32.1933 32.1933 35.3239 28.6118 37.8744L25.4502 40.1258C24.5822 40.7439 23.4178 40.7439 22.5498 40.1258L19.3882 37.8744C15.8067 35.3239 12.6761 32.1933 10.1256 28.6118L7.87418 25.4502C7.25606 24.5822 7.25606 23.4178 7.87418 22.5498L10.1256 19.3882C12.6761 15.8067 15.8067 12.6761 19.3882 10.1256L22.5498 7.87418C23.4178 7.25606 24.5822 7.25606 25.4502 7.87418Z" stroke="black" stroke-width="3"/>
</svg>
