<svg width="48" height="48" viewBox="0 0 48 48" fill="none" xmlns="http://www.w3.org/2000/svg">
<rect opacity="0.2" x="5" y="5" width="38" height="38" rx="4" fill="black"/>
<path d="M21.6797 11.6523C23.0685 10.6633 24.9315 10.6633 26.3203 11.6523L26.5616 11.8241C30.2791 14.4715 33.5285 17.7209 36.1759 21.4384L36.3477 21.6797C37.3367 23.0685 37.3367 24.9315 36.3477 26.3203L36.1759 26.5616C33.5285 30.2791 30.2791 33.5285 26.5616 36.1759L26.3203 36.3477C24.9315 37.3367 23.0685 37.3367 21.6797 36.3477L21.4384 36.1759C17.7209 33.5285 14.4715 30.2791 11.8241 26.5616L11.6523 26.3203C10.6633 24.9315 10.6633 23.0685 11.6523 21.6797L11.8241 21.4384C14.4715 17.7209 17.7209 14.4715 21.4384 11.8241L21.6797 11.6523Z" fill="black"/>
</svg>
