<svg width="48" height="48" viewBox="0 0 48 48" fill="none" xmlns="http://www.w3.org/2000/svg">
<path fill-rule="evenodd" clip-rule="evenodd" d="M38.6865 14.9434L24.5 6.75282C24.2985 6.63648 24.1386 6.54423 24 6.46637C23.8615 6.54423 23.7015 6.63648 23.5 6.75282L9.31348 14.9434C9.11196 15.0598 8.9521 15.1522 8.8154 15.2332C8.81355 15.3921 8.81348 15.5768 8.81348 15.8094V32.1906C8.81348 32.4233 8.81355 32.608 8.8154 32.7669C8.9521 32.8479 9.11196 32.9403 9.31348 33.0567L23.5 41.2473C23.7015 41.3636 23.8615 41.4559 24 41.5337C24.1386 41.4559 24.2985 41.3636 24.5 41.2473L38.6865 33.0567C38.8881 32.9403 39.0479 32.8479 39.1846 32.7669C39.1865 32.608 39.1865 32.4233 39.1865 32.1906V15.8094C39.1865 15.5768 39.1865 15.3921 39.1846 15.2332C39.0479 15.1521 38.8881 15.0598 38.6865 14.9434ZM24 3.30945C23.4641 3.30945 22.9761 3.59121 22 4.15475L7.81348 12.3453C6.83741 12.9089 6.34938 13.1906 6.08143 13.6547C5.81348 14.1188 5.81348 14.6824 5.81348 15.8094V32.1906C5.81348 33.3177 5.81348 33.8812 6.08143 34.3453C6.34938 34.8094 6.83741 35.0912 7.81348 35.6547L22 43.8453C22.9761 44.4089 23.4641 44.6906 24 44.6906C24.5359 44.6906 25.0239 44.4089 26 43.8453L40.1865 35.6547C41.1626 35.0912 41.6506 34.8094 41.9186 34.3453C42.1865 33.8812 42.1865 33.3177 42.1865 32.1906V15.8094C42.1865 14.6824 42.1865 14.1188 41.9186 13.6547C41.6506 13.1906 41.1626 12.9089 40.1865 12.3453L26 4.15475C25.0239 3.59121 24.5359 3.30945 24 3.30945Z" fill="black"/>
</svg>
