<svg xmlns="http://www.w3.org/2000/svg" width="48" height="48" fill="none" viewBox="0 0 48 48">
  <rect width="38" height="38" x="5" y="5" fill="#000" opacity=".2" rx="4"/>
  <path stroke="#000" stroke-width="2" d="M26.743 35.992a1544.35 1544.35 0 00-5.464-.004c-.7.001-1.172.001-1.54-.024-.359-.025-.548-.07-.686-.128-.132-.055-.303-.161-.59-.415-.293-.259-.646-.616-1.164-1.14a280.344 280.344 0 00-3.74-3.698c-.983-.955-1.254-1.245-1.393-1.575-.139-.33-.157-.726-.154-2.097.003-1.844 0-3.99-.004-5.653-.001-.69-.002-1.156.023-1.52.025-.352.07-.54.128-.68.055-.133.16-.303.413-.588.257-.291.612-.643 1.134-1.158a278.938 278.938 0 003.71-3.753c.956-.983 1.246-1.254 1.576-1.393.33-.139.726-.157 2.097-.154 1.844.003 3.99 0 5.653-.004.69-.001 1.156-.002 1.52.023.352.025.54.07.68.128.133.055.303.16.588.413.291.257.643.612 1.158 1.134a278.938 278.938 0 003.753 3.71c.983.956 1.254 1.246 1.393 1.576.139.33.157.726.154 2.097-.003 1.915 0 4.155.004 5.842.004 1.352-.014 1.741-.153 2.072-.14.33-.408.617-1.384 1.567a279.639 279.639 0 00-3.768 3.724c-.515.522-.866.877-1.157 1.134-.285.252-.455.358-.588.413-.14.058-.328.103-.68.128-.364.025-.829.024-1.52.023z"/>
</svg>
