<svg width="48" height="48" viewBox="0 0 48 48" fill="none" xmlns="http://www.w3.org/2000/svg">
<path d="M24 4.92628C23.8761 5.12444 23.7376 5.35535 23.5711 5.63309L17.2993 16.0967L16.0127 15.3255L17.2993 16.0967C17.291 16.1104 17.2821 16.1254 17.2726 16.1414C17.1773 16.3023 17.0195 16.5684 16.794 16.7939L16.7939 16.794C16.5684 17.0195 16.3023 17.1773 16.1414 17.2726C16.1254 17.2821 16.1104 17.291 16.0967 17.2993L15.3255 16.0127L16.0967 17.2993L5.63309 23.5711C5.35535 23.7376 5.12444 23.8761 4.92628 24C5.12444 24.1239 5.35535 24.2624 5.63309 24.4289L16.0967 30.7007C16.1104 30.709 16.1254 30.7179 16.1414 30.7274C16.3023 30.8227 16.5684 30.9805 16.794 31.206C17.0195 31.4316 17.1773 31.6977 17.2726 31.8586C17.2821 31.8746 17.291 31.8896 17.2993 31.9033L23.5711 42.3669C23.7376 42.6446 23.8761 42.8756 24 43.0737C24.1239 42.8756 24.2624 42.6446 24.4289 42.3669L30.7007 31.9034C30.709 31.8896 30.7179 31.8746 30.7274 31.8586C30.8227 31.6977 30.9805 31.4316 31.206 31.2061L24 4.92628ZM24 4.92628C24.1239 5.12444 24.2624 5.35535 24.4289 5.63309L30.7007 16.0967C30.709 16.1104 30.7179 16.1254 30.7274 16.1414C30.8227 16.3023 30.9805 16.5684 31.2061 16.794C31.4316 17.0195 31.6977 17.1773 31.8586 17.2726C31.8746 17.2821 31.8896 17.291 31.9033 17.2993L42.3669 23.5711C42.6446 23.7376 42.8756 23.8761 43.0737 24C42.8756 24.1239 42.6446 24.2624 42.3669 24.4289L31.9033 30.7007C31.8896 30.709 31.8746 30.7179 31.8586 30.7274C31.6977 30.8227 31.4316 30.9805 31.2061 31.206L24 4.92628Z" stroke="black" stroke-width="3"/>
</svg>
