<svg width="48" height="48" viewBox="0 0 48 48" fill="none" xmlns="http://www.w3.org/2000/svg">
<path fill-rule="evenodd" clip-rule="evenodd" d="M24.0002 7.83522L18.5861 16.8678C18.5814 16.8756 18.5752 16.8863 18.5674 16.8996C18.4847 17.0415 18.2286 17.4809 17.8549 17.8546C17.4811 18.2283 17.0417 18.4845 16.8998 18.5672C16.8865 18.5749 16.8758 18.5812 16.8681 18.5858L7.83546 24L16.8681 29.4142C16.8758 29.4188 16.8865 29.425 16.8998 29.4328C17.0417 29.5155 17.4811 29.7717 17.8549 30.1454C18.2286 30.5191 18.4847 30.9585 18.5674 31.1004C18.5752 31.1137 18.5814 31.1244 18.5861 31.1322L24.0002 40.1648L29.4144 31.1322C29.4191 31.1244 29.4253 31.1137 29.433 31.1004C29.5158 30.9585 29.7719 30.5191 30.1456 30.1454C30.5193 29.7717 30.9588 29.5155 31.1007 29.4328C31.114 29.425 31.1246 29.4188 31.1324 29.4142L40.165 24L31.1324 18.5858C31.1246 18.5812 31.114 18.5749 31.1007 18.5672C30.9588 18.4845 30.5193 18.2283 30.1456 17.8546C29.7719 17.4809 29.5158 17.0415 29.433 16.8996C29.4253 16.8863 29.4191 16.8756 29.4144 16.8678L24.0002 7.83522ZM42.6723 25.5357C42.6777 25.5402 42.6763 25.5394 42.6692 25.5332C42.6703 25.5341 42.6714 25.535 42.6723 25.5357ZM42.6692 22.4668C42.6763 22.4606 42.6777 22.4598 42.6723 22.4643C42.6714 22.465 42.6703 22.4659 42.6692 22.4668ZM22.4645 42.672C22.46 42.6775 22.4609 42.676 22.467 42.669C22.4661 42.6701 22.4653 42.6711 22.4645 42.672ZM25.5335 42.669C25.5396 42.676 25.5404 42.6775 25.5359 42.672C25.5352 42.6711 25.5344 42.6701 25.5335 42.669ZM5.32821 22.4643C5.32274 22.4598 5.32419 22.4606 5.33126 22.4668C5.33013 22.4659 5.32912 22.465 5.32821 22.4643ZM5.33125 25.5332C5.32419 25.5394 5.32275 25.5402 5.32821 25.5357C5.32912 25.535 5.33013 25.5341 5.33125 25.5332ZM25.5335 5.33101C25.5344 5.32989 25.5352 5.32888 25.5359 5.32797C25.5404 5.3225 25.5396 5.32395 25.5335 5.33101ZM22.467 5.33101C22.4609 5.32395 22.46 5.3225 22.4645 5.32797C22.4653 5.32887 22.4661 5.32989 22.467 5.33101ZM24.0002 2.94507C23.4338 2.94507 23.0508 3.58401 22.2848 4.8619L16.0129 15.3255C15.8848 15.5392 15.8207 15.6461 15.7335 15.7333C15.6463 15.8205 15.5395 15.8845 15.3257 16.0127L4.86215 22.2846C3.58426 23.0505 2.94531 23.4335 2.94531 24C2.94531 24.5665 3.58426 24.9495 4.86215 25.7154L15.3257 31.9873C15.5395 32.1154 15.6463 32.1795 15.7335 32.2667C15.8207 32.3539 15.8848 32.4608 16.0129 32.6745L22.2848 43.1381C23.0508 44.416 23.4338 45.0549 24.0002 45.0549C24.5667 45.0549 24.9497 44.416 25.7157 43.1381L31.9876 32.6745C32.1157 32.4608 32.1797 32.3539 32.2669 32.2667C32.3542 32.1795 32.461 32.1154 32.6748 31.9873L43.1383 25.7154C44.4162 24.9495 45.0552 24.5665 45.0552 24C45.0552 23.4335 44.4162 23.0505 43.1383 22.2846L32.6748 16.0127C32.461 15.8846 32.3542 15.8205 32.2669 15.7333C32.1797 15.6461 32.1157 15.5392 31.9876 15.3255L25.7157 4.86191C24.9497 3.58401 24.5667 2.94507 24.0002 2.94507Z" fill="black"/>
</svg>
