<svg width="48" height="48" viewBox="0 0 48 48" fill="none" xmlns="http://www.w3.org/2000/svg">
<path fill-rule="evenodd" clip-rule="evenodd" d="M23.2454 6.43977L8.54618 23.3439C8.21898 23.7201 8.21898 24.28 8.54618 24.6562L23.2454 41.5603C23.644 42.0187 24.356 42.0187 24.7546 41.5603L39.4538 24.6562C39.781 24.28 39.781 23.7201 39.4538 23.3439L24.7546 6.43977C24.356 5.98134 23.644 5.98134 23.2454 6.43977ZM20.9816 4.47123L6.28236 21.3753C4.97359 22.8804 4.97359 25.1197 6.28236 26.6248L20.9816 43.5289C22.5761 45.3626 25.4239 45.3626 27.0184 43.5289L41.7176 26.6248C43.0264 25.1197 43.0264 22.8804 41.7176 21.3753L27.0184 4.47123C25.4239 2.63752 22.5761 2.63752 20.9816 4.47123Z" fill="black"/>
</svg>
