<svg xmlns="http://www.w3.org/2000/svg" width="48" height="48" fill="none" viewBox="0 0 48 48">
  <rect width="38" height="38" x="5" y="5" fill="#000" opacity=".2" rx="4"/>
  <path fill="#000" d="M22.244 11.22C23.02 9.799 23.406 9.089 24 9.089c.594 0 .981.71 1.756 2.13l2.774 5.087c.223.41.335.615.517.747.183.132.412.175.87.261l5.695 1.067c1.59.298 2.386.447 2.57 1.011.183.565-.373 1.153-1.485 2.329l-3.98 4.21c-.32.339-.48.508-.55.723-.07.214-.04.445.02.908l.746 5.745c.208 1.605.312 2.408-.168 2.757-.48.349-1.212.002-2.673-.692l-5.234-2.485c-.422-.2-.633-.3-.858-.3-.225 0-.436.1-.858.3l-5.234 2.485c-1.462.694-2.192 1.04-2.673.692-.48-.35-.376-1.152-.168-2.757l.746-5.745c.06-.463.09-.694.02-.909-.07-.214-.23-.383-.55-.722l-3.98-4.21c-1.112-1.176-1.668-1.764-1.485-2.329.184-.564.98-.713 2.57-1.011l5.694-1.067c.46-.086.688-.129.87-.261.183-.132.295-.337.518-.747l2.774-5.086z"/>
</svg>
