<svg xmlns="http://www.w3.org/2000/svg" width="48" height="48" fill="none" viewBox="0 0 48 48">
  <path stroke="#000" stroke-width="3" d="M24.439 5.938l4.643 8.514.046.085c.162.304.435.814.907 1.157.472.343 1.04.444 1.38.505l.096.017 9.532 1.785c.348.065.64.12.89.172-.172.19-.376.405-.62.663l-6.661 7.047-.067.07c-.24.248-.64.665-.82 1.22-.18.555-.102 1.127-.054 1.469.005.034.01.066.013.096l1.248 9.617c.045.351.084.645.112.9a51.502 51.502 0 01-.822-.384L25.5 34.712a10.345 10.345 0 01-.087-.042c-.31-.15-.83-.403-1.414-.403s-1.104.252-1.414.403l-.087.042-8.76 4.159c-.32.152-.589.279-.823.384.028-.255.066-.549.112-.9l1.248-9.617.013-.096c.047-.342.127-.914-.053-1.47-.18-.554-.582-.97-.82-1.22-.025-.024-.047-.048-.068-.07l-6.662-7.046a50.535 50.535 0 01-.62-.663c.252-.052.543-.107.891-.172l9.532-1.785.096-.017c.34-.06.908-.162 1.38-.505.472-.343.745-.853.907-1.157l.046-.085 4.643-8.514c.17-.311.312-.571.439-.795.127.224.27.484.439.795zm18.315 12.457a.057.057 0 010 0zm-.29-.88l.003-.004-.002.004zm-7.338 22.59a.031.031 0 010 0zm.747-.548a.117.117 0 010 0zm-23.75 0h.004-.005zm.75.542a.033.033 0 010 0zm-7.34-22.588a.06.06 0 010 0zm-.283.882a.053.053 0 010 0zM24.465 4.432a.055.055 0 010 0zm-.926.003a.055.055 0 010 0z"/>
</svg>
