<svg xmlns="http://www.w3.org/2000/svg" width="48" height="48" fill="none" viewBox="0 0 48 48">
  <path fill="#000" d="M22.244 5.22C23.02 3.799 23.406 3.089 24 3.089c.594 0 .981.71 1.756 2.13l4.643 8.514c.223.41.335.615.517.747.183.133.412.176.87.262l9.533 1.785c1.59.297 2.386.446 2.569 1.011.183.565-.372 1.153-1.484 2.328l-6.663 7.047c-.32.34-.48.509-.55.723-.07.215-.04.446.02.909l1.248 9.617c.209 1.604.313 2.407-.168 2.756-.48.349-1.21.002-2.673-.692l-8.76-4.159c-.422-.2-.633-.3-.858-.3-.225 0-.436.1-.858.3l-8.76 4.159c-1.462.694-2.193 1.04-2.673.692-.48-.35-.377-1.152-.168-2.756l1.248-9.617c.06-.463.09-.695.02-.909-.07-.214-.23-.384-.55-.723l-6.663-7.047c-1.112-1.175-1.667-1.763-1.484-2.328.184-.565.979-.713 2.57-1.011l9.531-1.785c.459-.086.688-.13.87-.262.183-.132.295-.337.518-.747l4.643-8.513z"/>
</svg>
