<svg width="48" height="48" viewBox="0 0 48 48" fill="none" xmlns="http://www.w3.org/2000/svg">
<path fill-rule="evenodd" clip-rule="evenodd" d="M35.4636 11.9955L24.3829 7.4057C24.2278 7.34143 24.1056 7.29086 24.0003 7.24833C23.8949 7.29086 23.7727 7.34143 23.6176 7.4057L12.5369 11.9955C12.3817 12.0597 12.2596 12.1104 12.155 12.1548C12.1106 12.2593 12.06 12.3815 11.9957 12.5367L7.40594 23.6173C7.34167 23.7725 7.29111 23.8947 7.24858 24C7.29111 24.1053 7.34167 24.2275 7.40594 24.3827L11.9957 35.4634C12.06 35.6185 12.1106 35.7407 12.155 35.8452C12.2596 35.8896 12.3817 35.9403 12.5369 36.0046L23.6176 40.5943C23.7727 40.6586 23.8949 40.7092 24.0003 40.7517C24.1056 40.7092 24.2278 40.6586 24.3829 40.5943L35.4636 36.0046C35.6188 35.9403 35.7409 35.8896 35.8455 35.8452C35.8899 35.7407 35.9405 35.6185 36.0048 35.4634L40.5946 24.3827C40.6588 24.2275 40.7094 24.1053 40.7519 24C40.7094 23.8947 40.6588 23.7725 40.5946 23.6173L36.0048 12.5367C35.9405 12.3815 35.8899 12.2593 35.8455 12.1548C35.7409 12.1104 35.6188 12.0597 35.4636 11.9955ZM24.0003 4.16479C23.6024 4.16479 23.2248 4.32122 22.4695 4.63406L11.3889 9.22382C10.6336 9.53667 10.2559 9.69309 9.97464 9.9744C9.69333 10.2557 9.53691 10.6333 9.22407 11.3886L4.63431 22.4693C4.32146 23.2246 4.16504 23.6022 4.16504 24C4.16504 24.3978 4.32146 24.7755 4.63431 25.5307L9.22407 36.6114C9.53691 37.3667 9.69333 37.7443 9.97464 38.0256C10.2559 38.3069 10.6336 38.4634 11.3889 38.7762L22.4695 43.366C23.2248 43.6788 23.6024 43.8352 24.0003 43.8352C24.3981 43.8352 24.7757 43.6788 25.531 43.366L36.6117 38.7762C37.3669 38.4634 37.7446 38.3069 38.0259 38.0256C38.3072 37.7443 38.4636 37.3667 38.7764 36.6114L43.3662 25.5307C43.6791 24.7755 43.8355 24.3978 43.8355 24C43.8355 23.6022 43.6791 23.2246 43.3662 22.4693L38.7764 11.3886C38.4636 10.6333 38.3072 10.2557 38.0259 9.9744C37.7446 9.69309 37.3669 9.53667 36.6117 9.22382L25.531 4.63406C24.7757 4.32122 24.3981 4.16479 24.0003 4.16479Z" fill="black"/>
</svg>
