<svg xmlns="http://www.w3.org/2000/svg" width="48" height="48" fill="none" viewBox="0 0 48 48">
  <path stroke="#000" stroke-width="3" d="M24.465 6.23l2.046 5.149.026.065c.155.392.323.814.512 1.15.221.392.578.867 1.208 1.128.63.26 1.218.178 1.652.057.372-.104.789-.284 1.175-.45l.065-.029 5.087-2.193c.455-.196.83-.357 1.143-.486-.129.313-.29.688-.486 1.143L34.7 16.85l-.028.065c-.167.386-.347.803-.45 1.175-.122.434-.205 1.022.056 1.652.261.63.736.987 1.128 1.208.336.19.758.357 1.15.512l.065.026 5.148 2.046c.46.183.84.334 1.151.465-.312.13-.69.282-1.15.465L36.62 26.51l-.065.026c-.392.155-.814.323-1.15.512-.392.221-.867.578-1.128 1.208-.26.63-.178 1.218-.057 1.652.104.372.284.789.45 1.175l.029.065 2.193 5.087c.197.455.357.83.486 1.143a73.356 73.356 0 01-1.143-.486L31.15 34.7l-.065-.028c-.386-.167-.803-.347-1.175-.45-.434-.122-1.022-.205-1.652.056-.63.261-.987.736-1.208 1.128-.19.336-.357.758-.512 1.15l-.026.065-2.046 5.148c-.183.46-.334.84-.465 1.151-.13-.312-.282-.69-.465-1.15L21.49 36.62l-.026-.065c-.155-.392-.323-.814-.512-1.15-.221-.392-.578-.867-1.208-1.128-.63-.26-1.218-.178-1.652-.057-.372.104-.789.284-1.175.45l-.065.029-5.087 2.193c-.455.197-.83.357-1.143.486.129-.313.29-.688.486-1.143L13.3 31.15l.028-.065c.167-.386.347-.803.45-1.175.122-.434.205-1.022-.056-1.652-.261-.63-.736-.987-1.128-1.208-.336-.19-.758-.357-1.15-.512l-.065-.026-5.148-2.046c-.46-.183-.84-.334-1.151-.465.312-.13.69-.282 1.15-.465l5.149-2.046.065-.026c.392-.155.814-.323 1.15-.512.392-.221.867-.578 1.128-1.208.26-.63.178-1.218.057-1.652-.104-.372-.284-.789-.45-1.175l-.029-.065-2.193-5.087c-.196-.455-.357-.83-.486-1.143.313.129.688.29 1.143.486L16.85 13.3l.065.028c.386.167.803.347 1.175.45.434.122 1.022.205 1.652-.056.63-.261.987-.736 1.208-1.128.19-.336.357-.758.512-1.15l.026-.065 2.046-5.148c.183-.46.334-.84.465-1.151.13.312.282.69.465 1.15z"/>
</svg>
