<svg xmlns="http://www.w3.org/2000/svg" width="48" height="48" fill="none" viewBox="0 0 48 48">
  <rect width="38" height="38" x="5" y="5" fill="#000" opacity=".2" rx="4"/>
  <path stroke="#000" stroke-width="2" d="M24.858 12.376l3.648 6.087.027.044c.1.167.225.378.403.557.178.178.39.304.557.403l.044.027 6.087 3.648c.668.4 1.069.644 1.317.848l.012.01-.012.01c-.248.204-.65.447-1.317.848l-6.087 3.648-.044.027c-.167.1-.378.225-.557.403-.178.178-.304.39-.403.557l-.027.044-3.648 6.087c-.4.668-.644 1.069-.848 1.317l-.01.012-.01-.012c-.204-.248-.447-.65-.848-1.317l-3.648-6.087-.027-.044a2.758 2.758 0 00-.403-.557 2.758 2.758 0 00-.557-.403l-.044-.027-6.087-3.648c-.668-.4-1.069-.644-1.317-.848a6.14 6.14 0 00-.012-.01 6.14 6.14 0 00.012-.01c.248-.204.65-.447 1.317-.848l6.087-3.648.044-.027c.167-.1.378-.225.557-.403.178-.178.304-.39.403-.557l.027-.044 3.648-6.087c.4-.668.644-1.069.848-1.317a6.14 6.14 0 00.01-.012l.01.012c.204.248.447.65.848 1.317zm12.23 11.755a.05.05 0 01-.004-.005.02.02 0 01.004.005zm-.004-.257a.05.05 0 01.004-.005l-.004.005zM23.868 37.088l.006-.004a.024.024 0 01-.005.004zm.258-.004a.04.04 0 01.005.004l-.005-.004zM10.912 23.868l.004.006a.02.02 0 01-.004-.005zm.004.258a.05.05 0 01-.004.005l.004-.005zm13.215-13.214l-.005.004a.02.02 0 01.005-.004zm-.257.004a.05.05 0 01-.005-.004l.005.004z"/>
</svg>
