<svg xmlns="http://www.w3.org/2000/svg" width="48" height="48" fill="none" viewBox="0 0 48 48">
  <rect width="38" height="38" x="5" y="5" fill="#000" opacity=".2" rx="4"/>
  <path fill="#000" d="M22.285 11.862c.765-1.278 1.148-1.917 1.715-1.917.567 0 .95.639 1.715 1.917l3.649 6.087c.128.214.192.32.28.408.087.087.193.15.407.279l6.087 3.649c1.278.765 1.917 1.148 1.917 1.715 0 .567-.639.95-1.917 1.715l-6.087 3.649c-.214.128-.32.192-.408.28-.087.087-.15.193-.279.407l-3.649 6.087c-.765 1.278-1.148 1.917-1.715 1.917-.567 0-.95-.639-1.715-1.917l-3.649-6.087c-.128-.214-.192-.32-.28-.408-.087-.087-.193-.15-.407-.279l-6.087-3.649C10.584 24.95 9.945 24.567 9.945 24c0-.567.639-.95 1.917-1.715l6.087-3.649c.214-.128.32-.192.408-.28.087-.087.15-.193.279-.407l3.649-6.087z"/>
</svg>
