<svg xmlns="http://www.w3.org/2000/svg" width="48" height="48" fill="none" viewBox="0 0 48 48">
  <path fill="#000" fill-rule="evenodd" d="M37.94 30.94l2.12 2.12-1 1a1.5 1.5 0 01-2.12-2.12l1-1zm-4-4l2.12 2.12-1 1a1.5 1.5 0 01-2.12-2.12l1-1zm-4-4l2.12 2.12-1 1a1.5 1.5 0 01-2.12-2.12l1-1zm-4-4l2.12 2.12-1 1a1.5 1.5 0 01-2.12-2.12l1-1zm-5.88-5.88l-1 1a1.5 1.5 0 01-2.12-2.12l1-1 2.12 2.12zm-6.12-6.12l2.12 2.12-1 1a1.5 1.5 0 01-2.12-2.12l1-1zm8 8l-1 1a1.5 1.5 0 002.12 2.12l1-1-2.12-2.12z" clip-rule="evenodd" opacity=".4"/>
  <path fill="#000" fill-rule="evenodd" d="M13.934 6.944l-.995.995a1.5 1.5 0 002.122 2.122l.995-.995 1.878 1.878-.995.995a1.5 1.5 0 002.122 2.122l.995-.995 1.878 1.878-.995.995a1.5 1.5 0 002.122 2.122l.995-.995 1.878 1.878-.995.995a1.5 1.5 0 002.122 2.122l.995-.995 1.878 1.878-.995.995a1.5 1.5 0 002.122 2.122l.995-.995 1.878 1.878-.995.995a1.5 1.5 0 002.122 2.122l.995-.995 1.878 1.878-.995.995a1.5 1.5 0 002.122 2.122l.995-.995.835.834.126.127c.6.599 1.317 1.315 1.817 1.98.442.587 1.808 2.537.808 4.95-.999 2.411-3.344 2.825-4.072 2.928-.822.116-1.836.115-2.684.115H9.824c-.369 0-.971.002-1.515-.072-.706-.094-1.865-.373-2.865-1.372-1-1-1.278-2.159-1.372-2.865-.074-.544-.073-1.146-.072-1.515V11.114c0-.848-.001-1.862.115-2.684.103-.728.516-3.073 2.929-4.072 2.412-1 4.362.366 4.95.808.65.489 1.35 1.186 1.94 1.778zm18.013 29.168L11.887 16.053v20.059h20.059z" clip-rule="evenodd"/>
</svg>
