<svg xmlns="http://www.w3.org/2000/svg" width="48" height="48" fill="none" viewBox="0 0 48 48">
  <rect width="38" height="38" x="5" y="5" fill="#000" opacity=".2" rx="4"/>
  <rect width="36" height="5" x="6" y="31" fill="#000" stroke="#000" stroke-width="2" opacity=".6" rx="2.5"/>
  <rect width="34" height="34" x="7" y="7" stroke="#000" stroke-width="4" rx="2"/>
  <path fill="#000" d="M5 28h6.41c1.258 0 1.886 0 2.382.321.496.321.753.895 1.268 2.042l.88 1.962c.515 1.147.772 1.72 1.268 2.041.496.322 1.125.322 2.382.322h9.142c1.108 0 1.661 0 2.12-.26.46-.261.744-.736 1.312-1.687l1.672-2.794c.568-.951.853-1.426 1.312-1.687.459-.26 1.012-.26 2.12-.26H43v7c0 3.771 0 5.657-1.172 6.828C40.657 43 38.771 43 35 43H13c-3.771 0-5.657 0-6.828-1.172C5 40.657 5 38.771 5 35v-7z"/>
</svg>
