<svg xmlns="http://www.w3.org/2000/svg" width="48" height="48" fill="none" viewBox="0 0 48 48">
  <rect width="38" height="38" x="5" y="5" fill="#000" opacity=".2" rx="4"/>
  <rect width="24" height="24" x="12" y="12" stroke="#000" stroke-width="4" rx="2"/>
  <path fill="#000" d="M10 27h4.047c1.255 0 1.882 0 2.378.32.495.32.753.892 1.269 2.036l.086.192c.516 1.144.773 1.716 1.269 2.036.495.32 1.123.32 2.378.32h5.468c1.105 0 1.658 0 2.116-.26.459-.258.743-.732 1.313-1.68l.616-1.024c.569-.948.854-1.422 1.312-1.68.458-.26 1.01-.26 2.116-.26H38v3c0 3.771 0 5.657-1.172 6.828C35.657 38 33.771 38 30 38H18c-3.771 0-5.657 0-6.828-1.172C10 35.657 10 33.771 10 30v-3z"/>
</svg>
