<svg xmlns="http://www.w3.org/2000/svg" width="48" height="48" fill="none" viewBox="0 0 48 48">
  <path stroke="#000" stroke-linecap="round" stroke-width="4" d="M24 24L43 5"/>
  <path fill="#000" d="M34.731 8.318A18.912 18.912 0 0024 5C13.507 5 5 13.506 5 24c0 10.493 8.507 19 19 19s19-8.507 19-19c0-3.983-1.225-7.678-3.319-10.732l-2.165 2.165A15.926 15.926 0 0140 24c0 8.836-7.163 16-16 16S8 32.836 8 24c0-8.837 7.163-16 16-16 3.151 0 6.09.91 8.566 2.484l2.165-2.166z" opacity=".8"/>
  <path fill="#000" d="M30.38 12.67A12.94 12.94 0 0024 11c-7.18 0-13 5.82-13 13s5.82 13 13 13 13-5.82 13-13a12.94 12.94 0 00-1.67-6.38l-2.23 2.23c.578 1.263.9 2.67.9 4.15 0 5.523-4.477 10-10 10s-10-4.477-10-10 4.477-10 10-10c1.48 0 2.887.322 4.15.9l2.23-2.23z"/>
  <path fill="#000" d="M25.813 17.237a7 7 0 104.95 4.95l-2.917 2.917A4.002 4.002 0 0120 24a4.002 4.002 0 012.896-3.846l2.917-2.917z"/>
</svg>
