<svg xmlns="http://www.w3.org/2000/svg" width="48" height="48" fill="none" viewBox="0 0 48 48">
  <rect width="38" height="38" x="5" y="5" fill="#000" opacity=".2" rx="4"/>
  <mask id="a" width="38" height="38" x="5" y="5" maskUnits="userSpaceOnUse" style="mask-type:alpha">
    <rect width="38" height="38" x="5" y="5" fill="#9FA4A9" rx="4"/>
  </mask>
  <g mask="url(#a)">
    <path fill="#000" fill-rule="evenodd" d="M24 39c8.284 0 15-6.716 15-15 0-8.284-6.716-15-15-15-8.284 0-15 6.716-15 15 0 8.284 6.716 15 15 15zm-1.579-21.316a3.158 3.158 0 11-6.316 0 3.158 3.158 0 016.316 0zm8.684 3.948a2.368 2.368 0 11-4.737 0 2.368 2.368 0 014.737 0zm-9.473 11.842a1.579 1.579 0 100-3.158 1.579 1.579 0 000 3.158z" clip-rule="evenodd"/>
    <g opacity=".6">
      <path fill="#000" d="M22.421 17.684a3.158 3.158 0 11-6.316 0 3.158 3.158 0 016.316 0zM31.105 21.632a2.368 2.368 0 11-4.736 0 2.368 2.368 0 014.736 0zM23.21 31.895a1.579 1.579 0 11-3.157 0 1.579 1.579 0 013.158 0z"/>
    </g>
  </g>
</svg>
