<svg xmlns="http://www.w3.org/2000/svg" width="48" height="48" fill="none" viewBox="0 0 48 48">
  <path fill="#000" fill-rule="evenodd" d="M24 46c12.15 0 22-9.85 22-22S36.15 2 24 2 2 11.85 2 24s9.85 22 22 22zm2-11c7.18 0 13-5.82 13-13S33.18 9 26 9s-13 5.82-13 13 5.82 13 13 13z" clip-rule="evenodd" opacity=".2"/>
  <path fill="#000" d="M46 24c0 12.15-9.85 22-22 22S2 36.15 2 24 11.85 2 24 2s22 9.85 22 22z" opacity=".2"/>
  <path fill="#000" fill-rule="evenodd" d="M24 42c9.941 0 18-8.059 18-18S33.941 6 24 6 6 14.059 6 24s8.059 18 18 18zm2.143-28.929a1.929 1.929 0 00-3.857 0V25.93c0 1.065.863 1.928 1.928 1.928h6.429a1.928 1.928 0 100-3.857h-4.5V13.071z" clip-rule="evenodd"/>
</svg>
