<svg xmlns="http://www.w3.org/2000/svg" width="48" height="48" fill="none" viewBox="0 0 48 48">
  <g clip-path="url(#clip0_7:74978)">
    <path fill="#000" fill-rule="evenodd" d="M5 35.64l-1.576 1.412a1.273 1.273 0 000 1.896l2.073 1.856c-.458-1.108-.494-2.7-.497-5.163zM7.95 43l-.42-.376c1.156.365 2.792.376 5.252.376H7.95zm14.127 5a10.238 10.238 0 003.846 0h13.083l.214 3.88a1.273 1.273 0 01-1.34 1.34l-7.143-.395a1.273 1.273 0 00-1.018.422l-4.77 5.33a1.273 1.273 0 01-1.897 0l-4.771-5.33a1.273 1.273 0 00-1.018-.422l-7.142.395a1.273 1.273 0 01-1.341-1.34L8.994 48h13.083zm17.973-5h-4.832c2.46 0 4.096-.01 5.252-.376l-.42.376zm4.526-4.052l-2.073 1.856c.458-1.108.494-2.7.497-5.163l1.576 1.41c.565.507.565 1.391 0 1.897z" clip-rule="evenodd"/>
    <path stroke="#000" stroke-linecap="round" stroke-linejoin="round" stroke-width="3" d="M24 14V2m0 12l4.5-4.5M24 14l-4.5-4.5"/>
    <path fill="#000" fill-rule="evenodd" d="M5.497 40.804c-.459-1.108-.494-2.7-.497-5.163l3.753-3.36c.288-.258.443-.633.422-1.018L8.78 24.12a1.273 1.273 0 011.34-1.341l7.142.395c.386.021.761-.134 1.019-.422l4.77-5.33a1.273 1.273 0 011.897 0l4.77 5.33c.259.288.633.443 1.02.422l7.14-.395a1.273 1.273 0 011.342 1.34l-.395 7.143c-.021.385.134.76.422 1.018l3.752 3.36c-.002 2.464-.038 4.055-.496 5.163l-2.033 1.82C39.28 43 37.582 43 35 43h-2.13a10.135 10.135 0 001.311-5c0-5.623-4.558-10.181-10.181-10.181-5.623 0-10.182 4.558-10.182 10.181 0 1.817.476 3.523 1.31 5H13c-2.582 0-4.28 0-5.47-.376l-2.033-1.82z" clip-rule="evenodd"/>
    <path fill="#000" fill-rule="evenodd" d="M33.235 43h-18.47a10.454 10.454 0 01-1.265-5c0-5.799 4.701-10.5 10.5-10.5S34.5 32.201 34.5 38c0 1.81-.458 3.513-1.265 5z" clip-rule="evenodd" opacity=".2"/>
  </g>
  <defs>
    <clipPath id="clip0_7:74978">
      <path fill="#fff" d="M0 0h48v48H0z"/>
    </clipPath>
  </defs>
</svg>
