<svg width="48" height="48" viewBox="0 0 48 48" fill="none" xmlns="http://www.w3.org/2000/svg">
<rect opacity="0.2" x="5" y="5" width="38" height="38" rx="4" fill="black"/>
<mask id="mask0_7:74966" style="mask-type:alpha" maskUnits="userSpaceOnUse" x="5" y="5" width="38" height="38">
<rect x="5" y="5" width="38" height="38" rx="4" fill="#9FA4A9"/>
</mask>
<g mask="url(#mask0_7:74966)">
<path fill-rule="evenodd" clip-rule="evenodd" d="M24 39C32.2843 39 39 32.2843 39 24C39 15.7157 32.2843 9 24 9C15.7157 9 9 15.7157 9 24C9 32.2843 15.7157 39 24 39ZM22.421 17.6842C22.421 19.4283 21.0072 20.8421 19.2631 20.8421C17.519 20.8421 16.1052 19.4283 16.1052 17.6842C16.1052 15.9402 17.519 14.5263 19.2631 14.5263C21.0072 14.5263 22.421 15.9402 22.421 17.6842ZM31.1052 21.6316C31.1052 22.9396 30.0449 24 28.7368 24C27.4288 24 26.3684 22.9396 26.3684 21.6316C26.3684 20.3235 27.4288 19.2632 28.7368 19.2632C30.0449 19.2632 31.1052 20.3235 31.1052 21.6316ZM21.6316 33.4737C22.5036 33.4737 23.2105 32.7668 23.2105 31.8947C23.2105 31.0227 22.5036 30.3158 21.6316 30.3158C20.7595 30.3158 20.0526 31.0227 20.0526 31.8947C20.0526 32.7668 20.7595 33.4737 21.6316 33.4737Z" fill="black"/>
<g opacity="0.6">
<path d="M22.4213 17.6843C22.4213 19.4283 21.0074 20.8422 19.2634 20.8422C17.5193 20.8422 16.1055 19.4283 16.1055 17.6843C16.1055 15.9402 17.5193 14.5264 19.2634 14.5264C21.0074 14.5264 22.4213 15.9402 22.4213 17.6843Z" fill="black"/>
<path d="M31.1055 21.6316C31.1055 22.9397 30.0451 24.0001 28.7371 24.0001C27.429 24.0001 26.3686 22.9397 26.3686 21.6316C26.3686 20.3236 27.429 19.2632 28.7371 19.2632C30.0451 19.2632 31.1055 20.3236 31.1055 21.6316Z" fill="black"/>
<path d="M23.2108 31.8948C23.2108 32.7668 22.5039 33.4737 21.6318 33.4737C20.7598 33.4737 20.0529 32.7668 20.0529 31.8948C20.0529 31.0228 20.7598 30.3158 21.6318 30.3158C22.5039 30.3158 23.2108 31.0228 23.2108 31.8948Z" fill="black"/>
</g>
</g>
</svg>
