<svg xmlns="http://www.w3.org/2000/svg" width="48" height="48" fill="none" viewBox="0 0 48 48">
  <rect width="38" height="38" x="5" y="5" fill="#000" opacity=".2" rx="4"/>
  <path fill="#000" d="M5 13c0-3.771 0-5.657 1.172-6.828C7.343 5 9.229 5 13 5h22c3.771 0 5.657 0 6.828 1.172C43 7.343 43 9.229 43 13v2H5v-2zM16.034 38.239c3.92 0 6.725-2.157 6.716-5.14.009-2.173-1.372-3.724-3.937-4.048v-.136c1.952-.35 3.298-1.73 3.29-3.69.008-2.753-2.404-4.918-6.017-4.918-3.58 0-6.273 2.096-6.324 5.114h3.537c.042-1.33 1.261-2.19 2.77-2.19 1.491 0 2.488.902 2.48 2.215.008 1.372-1.16 2.301-2.838 2.301h-1.628v2.71h1.628c1.977 0 3.213.989 3.204 2.395.009 1.39-1.184 2.344-2.872 2.344-1.628 0-2.847-.852-2.915-2.13H9.412c.06 3.05 2.787 5.173 6.622 5.173zm15.684-17.932c-3.903-.017-6.537 2.54-6.52 6.051.009 3.256 2.268 5.616 5.361 5.616 1.918 0 3.622-.928 4.398-2.463h.12c-.01 3.46-1.21 5.566-3.486 5.566-1.338 0-2.302-.733-2.583-2.003H25.37c.34 2.94 2.727 5.165 6.222 5.165 4.32 0 7.108-3.495 7.099-9.418-.008-6.324-3.383-8.497-6.972-8.514zm.026 2.898c1.696 0 2.949 1.38 2.966 3.042.008 1.67-1.313 3.051-3 3.051-1.705 0-2.923-1.33-2.932-3.042-.017-1.705 1.253-3.052 2.966-3.052z"/>
</svg>
