<svg xmlns="http://www.w3.org/2000/svg" width="48" height="48" fill="none" viewBox="0 0 48 48">
  <rect width="38" height="38" x="5" y="5" fill="#000" opacity=".2" rx="4"/>
  <path fill="#000" d="M5 13c0-3.771 0-5.657 1.172-6.828C7.343 5 9.229 5 13 5h22c3.771 0 5.657 0 6.828 1.172C43 7.343 43 9.229 43 13v2H5v-2zM9.934 38h12.444v-3.017h-7.33v-.12l2.548-2.496c3.588-3.273 4.551-4.91 4.551-6.895 0-3.026-2.471-5.165-6.213-5.165-3.664 0-6.179 2.19-6.17 5.616h3.503c-.009-1.67 1.048-2.693 2.642-2.693 1.534 0 2.676.955 2.676 2.489 0 1.389-.852 2.343-2.438 3.87L9.934 35.34V38zm21.433-17.693c-3.904-.017-6.537 2.54-6.52 6.051.008 3.256 2.267 5.616 5.36 5.616 1.918 0 3.623-.928 4.398-2.463h.12c-.009 3.46-1.21 5.566-3.486 5.566-1.338 0-2.301-.733-2.582-2.003h-3.64c.341 2.94 2.728 5.165 6.222 5.165 4.321 0 7.108-3.495 7.1-9.418-.01-6.324-3.384-8.497-6.972-8.514zm.025 2.898c1.696 0 2.95 1.38 2.966 3.042.009 1.67-1.312 3.051-3 3.051-1.704 0-2.923-1.33-2.931-3.042-.018-1.705 1.252-3.052 2.965-3.052z"/>
</svg>
