<svg xmlns="http://www.w3.org/2000/svg" width="48" height="48" fill="none" viewBox="0 0 48 48">
  <rect width="38" height="38" x="5" y="5" fill="#000" opacity=".2" rx="4"/>
  <path fill="#000" d="M5 13c0-3.771 0-5.657 1.172-6.828C7.343 5 9.229 5 13 5h22c3.771 0 5.657 0 6.828 1.172C43 7.343 43 9.229 43 13v2H5v-2zM11.985 38h12.443v-3.017h-7.33v-.12l2.549-2.496c3.588-3.273 4.551-4.91 4.551-6.895 0-3.026-2.471-5.165-6.213-5.165-3.665 0-6.179 2.19-6.17 5.616h3.503c-.01-1.67 1.048-2.693 2.641-2.693 1.535 0 2.677.955 2.677 2.489 0 1.389-.853 2.343-2.438 3.87l-6.213 5.752V38zm22.711-17.454h-3.469l-4.32 2.735v3.273l3.996-2.506h.103V38h3.69V20.546z"/>
</svg>
