<svg xmlns="http://www.w3.org/2000/svg" width="48" height="48" fill="none" viewBox="0 0 48 48">
  <rect width="38" height="38" x="5" y="5" fill="#000" opacity=".2" rx="4"/>
  <path fill="#000" d="M5 13c0-3.771 0-5.657 1.172-6.828C7.343 5 9.229 5 13 5h22c3.771 0 5.657 0 6.828 1.172C43 7.343 43 9.229 43 13v2H5v-2zM19.216 20.546h-3.47l-4.32 2.735v3.273l3.997-2.506h.102V38h3.69V20.546zm10.847 17.693c3.886.017 6.537-2.532 6.528-6.086.009-3.272-2.275-5.633-5.37-5.633-1.917 0-3.613.92-4.397 2.463h-.12c.018-3.4 1.211-5.514 3.487-5.514 1.338 0 2.3.733 2.582 1.951h3.64c-.35-2.872-2.736-5.113-6.222-5.113-4.313 0-7.083 3.494-7.1 9.358-.008 6.392 3.384 8.557 6.972 8.574zm-.017-2.898c-1.705 0-2.966-1.372-2.966-3.077.008-1.696 1.295-3.077 2.991-3.077 1.705 0 2.95 1.339 2.94 3.069.01 1.747-1.26 3.085-2.965 3.085z"/>
</svg>
