<svg xmlns="http://www.w3.org/2000/svg" width="48" height="48" fill="none" viewBox="0 0 48 48">
  <rect width="38" height="38" x="5" y="5" fill="#000" opacity=".2" rx="4"/>
  <path fill="#000" d="M5 13c0-3.771 0-5.657 1.172-6.828C7.343 5 9.229 5 13 5h22c3.771 0 5.657 0 6.828 1.172C43 7.343 43 9.229 43 13v2H5v-2zM24.055 38.239c3.887 0 6.529-2.532 6.52-6.06.009-3.34-2.326-5.744-5.471-5.744-1.534 0-2.855.639-3.47 1.5h-.101l.451-4.372h7.628v-3.017h-10.67l-.827 9.204 3.281.588c.537-.724 1.577-1.176 2.608-1.176 1.756.009 3.017 1.278 3.017 3.11 0 1.816-1.236 3.069-2.966 3.069-1.465 0-2.65-.92-2.735-2.276h-3.58c.068 3.017 2.702 5.174 6.315 5.174z"/>
</svg>
