<svg xmlns="http://www.w3.org/2000/svg" width="48" height="48" fill="none" viewBox="0 0 48 48">
  <rect width="38" height="38" x="5" y="5" fill="#000" opacity=".2" rx="4"/>
  <path fill="#000" d="M5 13c0-3.771 0-5.657 1.172-6.828C7.343 5 9.229 5 13 5h22c3.771 0 5.657 0 6.828 1.172C43 7.343 43 9.229 43 13v2H5v-2zM9.594 38h12.444v-3.017h-7.33v-.12l2.548-2.496c3.588-3.273 4.552-4.91 4.552-6.895 0-3.026-2.472-5.165-6.213-5.165-3.665 0-6.18 2.19-6.171 5.616h3.503c-.009-1.67 1.048-2.693 2.642-2.693 1.534 0 2.676.955 2.676 2.489 0 1.389-.852 2.343-2.438 3.87L9.595 35.34V38zm21.961.383c4.39 0 7.04-3.34 7.049-9.093.008-5.71-2.676-8.983-7.049-8.983-4.38 0-7.04 3.264-7.048 8.983-.017 5.736 2.65 9.085 7.048 9.093zm0-3.06c-2.002 0-3.298-2.01-3.29-6.033.01-3.963 1.296-5.958 3.29-5.958 1.986 0 3.282 1.995 3.282 5.958.008 4.023-1.287 6.034-3.282 6.034z"/>
</svg>
