<svg xmlns="http://www.w3.org/2000/svg" width="48" height="48" fill="none" viewBox="0 0 48 48">
  <rect width="40" height="40" x="4" y="6" fill="#000" opacity=".2" rx="4"/>
  <path fill="#000" d="M14.707 41.278c4.574 0 7.845-2.515 7.835-5.995.01-2.536-1.6-4.346-4.594-4.723v-.16c2.277-.407 3.848-2.018 3.838-4.305.01-3.211-2.804-5.737-7.02-5.737-4.176 0-7.318 2.446-7.377 5.966h4.126c.05-1.551 1.472-2.556 3.232-2.556 1.74 0 2.903 1.054 2.893 2.586.01 1.6-1.352 2.684-3.311 2.684h-1.9V32.2h1.9c2.307 0 3.749 1.154 3.739 2.794.01 1.621-1.383 2.735-3.351 2.735-1.9 0-3.321-.995-3.4-2.486H6.98c.07 3.56 3.251 6.035 7.726 6.035zm18.745 0c4.534.02 7.627-2.953 7.617-7.099.01-3.818-2.655-6.573-6.265-6.573-2.237 0-4.215 1.074-5.13 2.874h-.14c.02-3.967 1.413-6.433 4.067-6.433 1.562 0 2.685.855 3.013 2.277h4.246c-.408-3.351-3.192-5.966-7.259-5.966-5.03 0-8.262 4.077-8.282 10.918-.01 7.457 3.947 9.982 8.133 10.002zm-.02-3.38c-1.988 0-3.46-1.601-3.46-3.59.01-1.978 1.511-3.59 3.49-3.59 1.989 0 3.44 1.562 3.43 3.58.01 2.039-1.471 3.6-3.46 3.6z"/>
  <g opacity=".4">
    <path fill="#000" d="M10 4a2 2 0 114 0v4a2 2 0 11-4 0V4zM34 4a2 2 0 114 0v4a2 2 0 11-4 0V4z"/>
  </g>
  <path fill="#000" fill-rule="evenodd" d="M10 6.009c-2.48.036-3.885.22-4.828 1.163C4 8.343 4 10.229 4 14v2h40v-2c0-3.771 0-5.657-1.172-6.828-.943-.944-2.348-1.127-4.828-1.163V8a2 2 0 11-4 0V6H14v2a2 2 0 11-4 0V6.009z" clip-rule="evenodd"/>
</svg>
