<svg xmlns="http://www.w3.org/2000/svg" width="48" height="48" fill="none" viewBox="0 0 48 48">
  <rect width="38" height="38" x="5" y="5" fill="#000" opacity=".2" rx="4"/>
  <path fill="#000" d="M5 13c0-3.771 0-5.657 1.172-6.828C7.343 5 9.229 5 13 5h22c3.771 0 5.657 0 6.828 1.172C43 7.343 43 9.229 43 13v2H5v-2zM9.46 34.932h8.377V38h3.528v-3.068h2.165v-2.958h-2.165V20.546h-4.619L9.46 32.026v2.906zm8.445-2.958h-4.73v-.136l4.594-7.27h.136v7.406zM25.99 38h12.443v-3.017h-7.33v-.12l2.549-2.496c3.588-3.273 4.551-4.91 4.551-6.895 0-3.026-2.471-5.165-6.213-5.165-3.665 0-6.179 2.19-6.17 5.616h3.502c-.008-1.67 1.049-2.693 2.642-2.693 1.535 0 2.677.955 2.677 2.489 0 1.389-.853 2.343-2.438 3.87L25.99 35.34V38z"/>
</svg>
