<svg xmlns="http://www.w3.org/2000/svg" width="48" height="48" fill="none" viewBox="0 0 48 48">
  <g clip-path="url(#clip0_20:206)">
    <rect width="38" height="38" x="5" y="5" fill="#000" opacity=".2" rx="4"/>
    <path fill="#000" d="M5 13c0-3.771 0-5.657 1.172-6.828C7.343 5 9.229 5 13 5h22c3.771 0 5.657 0 6.828 1.172C43 7.343 43 9.229 43 13v2H5v-2zM9.647 34.932h8.377V38h3.529v-3.068h2.165v-2.958h-2.165V20.546h-4.62l-7.286 11.48v2.906zm8.446-2.958h-4.73v-.136l4.593-7.27h.137v7.406zM26.867 38h3.81l7.244-14.395v-3.06H25.674v3.017h8.429v.12L26.867 38zm-7.899 29h3.81l7.244-14.395v-3.06H17.775v3.017h8.43v.12L18.967 67z"/>
  </g>
  <defs>
    <clipPath id="clip0_20:206">
      <path fill="#fff" d="M0 0h48v48H0z"/>
    </clipPath>
  </defs>
</svg>
