<svg xmlns="http://www.w3.org/2000/svg" width="48" height="48" fill="none" viewBox="0 0 48 48">
  <rect width="38" height="38" x="5" y="5" fill="#000" opacity=".2" rx="4"/>
  <path fill="#000" d="M5 13c0-3.771 0-5.657 1.172-6.828C7.343 5 9.229 5 13 5h22c3.771 0 5.657 0 6.828 1.172C43 7.343 43 9.229 43 13v2H5v-2zM10.122 38h12.443v-3.017h-7.33v-.12l2.549-2.496c3.588-3.273 4.55-4.91 4.55-6.895 0-3.026-2.47-5.165-6.212-5.165-3.665 0-6.18 2.19-6.17 5.616h3.502c-.008-1.67 1.048-2.693 2.642-2.693 1.534 0 2.676.955 2.676 2.489 0 1.389-.852 2.343-2.437 3.87l-6.213 5.752V38zm21.492.239c3.886 0 6.528-2.532 6.52-6.06.008-3.34-2.327-5.744-5.472-5.744-1.534 0-2.855.639-3.468 1.5h-.103l.452-4.372h7.628v-3.017H26.5l-.827 9.204 3.28.588c.538-.724 1.578-1.176 2.609-1.176 1.756.009 3.017 1.278 3.017 3.11 0 1.816-1.236 3.069-2.966 3.069-1.466 0-2.65-.92-2.736-2.276h-3.58c.069 3.017 2.702 5.174 6.316 5.174z"/>
</svg>
