<svg width="48" height="48" viewBox="0 0 48 48" fill="none" xmlns="http://www.w3.org/2000/svg">
<rect opacity="0.2" x="5" y="5" width="38" height="38" rx="4" fill="black"/>
<path d="M5 13C5 9.22876 5 7.34315 6.17157 6.17157C7.34315 5 9.22876 5 13 5H35C38.7712 5 40.6569 5 41.8284 6.17157C43 7.34315 43 9.22876 43 13V15H5V13Z" fill="black"/>
<path d="M11.2638 34.9318H19.6417V38H23.1701V34.9318H25.3349V31.9744H23.1701V20.5455H18.5508L11.2638 32.0256V34.9318ZM19.7099 31.9744H14.9798V31.8381L19.5735 24.5682H19.7099V31.9744ZM35.1531 20.5455H31.6843L27.3633 23.2812V26.554L31.3604 24.0483H31.4627V38H35.1531V20.5455Z" fill="black"/>
</svg>
