<svg xmlns="http://www.w3.org/2000/svg" width="48" height="48" fill="none" viewBox="0 0 48 48">
  <rect width="38" height="38" x="5" y="5" fill="#000" opacity=".2" rx="4"/>
  <path fill="#000" d="M5 13c0-3.771 0-5.657 1.172-6.828C7.343 5 9.229 5 13 5h22c3.771 0 5.657 0 6.828 1.172C43 7.343 43 9.229 43 13v2H5v-2zM9.084 34.932h8.378V38h3.528v-3.068h2.165v-2.958H20.99V20.546h-4.619l-7.287 11.48v2.906zm8.446-2.958H12.8v-.136l4.594-7.27h.136v7.406zm14.595 6.265c3.938 0 6.767-2.105 6.776-4.935-.009-2.182-1.688-3.963-3.784-4.313v-.119c1.824-.375 3.128-1.951 3.136-3.87-.008-2.7-2.6-4.695-6.128-4.695-3.537 0-6.128 1.994-6.119 4.696-.009 1.909 1.278 3.494 3.136 3.87v.118c-2.13.35-3.792 2.131-3.784 4.313-.008 2.83 2.83 4.935 6.767 4.935zm0-2.71c-1.755 0-2.931-1.04-2.931-2.515 0-1.508 1.235-2.6 2.931-2.6 1.688 0 2.932 1.092 2.932 2.6 0 1.483-1.184 2.514-2.932 2.514zm0-7.799c-1.474 0-2.522-.963-2.522-2.344 0-1.363 1.03-2.3 2.522-2.3 1.483 0 2.523.945 2.523 2.3 0 1.381-1.057 2.344-2.523 2.344z"/>
</svg>
