<svg xmlns="http://www.w3.org/2000/svg" width="48" height="48" fill="none" viewBox="0 0 48 48">
  <rect width="40" height="40" x="4" y="6" fill="#000" opacity=".2" rx="4"/>
  <path fill="#000" d="M14.693 41.278c4.574 0 7.845-2.515 7.835-5.995.01-2.536-1.6-4.346-4.593-4.723v-.16c2.277-.407 3.848-2.018 3.838-4.305.01-3.211-2.804-5.737-7.02-5.737-4.176 0-7.318 2.446-7.378 5.966h4.126c.05-1.551 1.472-2.556 3.232-2.556 1.74 0 2.903 1.054 2.893 2.586.01 1.6-1.352 2.684-3.31 2.684h-1.9V32.2h1.9c2.306 0 3.748 1.154 3.738 2.794.01 1.621-1.382 2.735-3.35 2.735-1.9 0-3.322-.995-3.401-2.486H6.967c.07 3.56 3.252 6.035 7.726 6.035zm18.527 0c4.594 0 7.895-2.456 7.905-5.757-.01-2.545-1.97-4.623-4.415-5.03v-.14c2.128-.438 3.649-2.277 3.659-4.514-.01-3.152-3.033-5.479-7.15-5.479-4.126 0-7.148 2.327-7.138 5.479-.01 2.227 1.491 4.076 3.659 4.514v.14c-2.486.407-4.425 2.485-4.415 5.03-.01 3.301 3.301 5.757 7.895 5.757zm0-3.161c-2.048 0-3.42-1.214-3.42-2.934 0-1.76 1.441-3.032 3.42-3.032 1.969 0 3.42 1.272 3.42 3.032 0 1.73-1.382 2.934-3.42 2.934zm0-9.098c-1.72 0-2.943-1.124-2.943-2.735 0-1.59 1.203-2.685 2.943-2.685 1.73 0 2.943 1.104 2.943 2.685 0 1.61-1.233 2.735-2.943 2.735z"/>
  <g opacity=".4">
    <path fill="#000" d="M10 4a2 2 0 114 0v4a2 2 0 11-4 0V4zM34 4a2 2 0 114 0v4a2 2 0 11-4 0V4z"/>
  </g>
  <path fill="#000" fill-rule="evenodd" d="M10 6.009c-2.48.036-3.885.22-4.828 1.163C4 8.343 4 10.229 4 14v2h40v-2c0-3.771 0-5.657-1.172-6.828-.943-.944-2.348-1.127-4.828-1.163V8a2 2 0 11-4 0V6H14v2a2 2 0 11-4 0V6.009z" clip-rule="evenodd"/>
</svg>
