<svg width="48" height="48" viewBox="0 0 48 48" fill="none" xmlns="http://www.w3.org/2000/svg">
<rect opacity="0.2" x="5" y="5" width="38" height="38" rx="4" fill="black"/>
<path d="M5 13C5 9.22876 5 7.34315 6.17157 6.17157C7.34315 5 9.22876 5 13 5H35C38.7712 5 40.6569 5 41.8284 6.17157C43 7.34315 43 9.22876 43 13V15H5V13Z" fill="black"/>
<path d="M8.88494 34.9318H17.2628V38H20.7912V34.9318H22.956V31.9744H20.7912V20.5455H16.1719L8.88494 32.0256V34.9318ZM17.331 31.9744H12.6009V31.8381L17.1946 24.5682H17.331V31.9744ZM25.1506 34.9318H33.5284V38H37.0568V34.9318H39.2216V31.9744H37.0568V20.5455H32.4375L25.1506 32.0256V34.9318ZM33.5966 31.9744H28.8665V31.8381L33.4602 24.5682H33.5966V31.9744Z" fill="black"/>
</svg>
