<svg width="48" height="48" viewBox="0 0 48 48" fill="none" xmlns="http://www.w3.org/2000/svg">
<path d="M9.58478 40H23.5834V36.6058H15.3376V36.4716L18.2045 33.6623C22.241 29.9805 23.3245 28.1396 23.3245 25.9055C23.3245 22.5018 20.5439 20.0952 16.3348 20.0952C12.2119 20.0952 9.38343 22.5593 9.39302 26.4137H13.3337C13.3241 24.5344 14.5131 23.3839 16.306 23.3839C18.0319 23.3839 19.3167 24.4577 19.3167 26.1836C19.3167 27.7464 18.3579 28.8203 16.5745 30.5366L9.58478 37.0085V40ZM26.5916 40H40.5902V36.6058H32.3445V36.4716L35.2113 33.6623C39.2479 29.9805 40.3313 28.1396 40.3313 25.9055C40.3313 22.5018 37.5508 20.0952 33.3416 20.0952C29.2188 20.0952 26.3903 22.5593 26.3999 26.4137H30.3406C30.331 24.5344 31.5199 23.3839 33.3129 23.3839C35.0387 23.3839 36.3235 24.4577 36.3235 26.1836C36.3235 27.7464 35.3647 28.8203 33.5813 30.5366L26.5916 37.0085V40Z" fill="black"/>
<path d="M8.71662 26.5H11.7848V24.4098C11.7848 22.9045 12.2834 21.7251 13.0025 20.5938L11.1999 19.5295C9.86719 20.6129 8.71662 22.6744 8.71662 24.429V26.5Z" fill="black"/>
<rect opacity="0.2" x="4" y="6" width="40" height="40" rx="4" fill="black"/>
<g opacity="0.4">
<path d="M10 4C10 2.89543 10.8954 2 12 2C13.1046 2 14 2.89543 14 4V8C14 9.10457 13.1046 10 12 10C10.8954 10 10 9.10457 10 8V4Z" fill="black"/>
<path d="M34 4C34 2.89543 34.8954 2 36 2C37.1046 2 38 2.89543 38 4V8C38 9.10457 37.1046 10 36 10C34.8954 10 34 9.10457 34 8V4Z" fill="black"/>
</g>
<path fill-rule="evenodd" clip-rule="evenodd" d="M10 6.00869C7.52043 6.04456 6.11466 6.22849 5.17157 7.17157C4 8.34315 4 10.2288 4 14V16H44V14C44 10.2288 44 8.34315 42.8284 7.17157C41.8853 6.22849 40.4796 6.04456 38 6.00869V8C38 9.10457 37.1046 10 36 10C34.8954 10 34 9.10457 34 8V6H14V8C14 9.10457 13.1046 10 12 10C10.8954 10 10 9.10457 10 8V6.00869Z" fill="black"/>
</svg>
