<svg width="48" height="48" viewBox="0 0 48 48" fill="none" xmlns="http://www.w3.org/2000/svg">
<path d="M15.702 40.4315C20.6398 40.4315 23.6217 36.6729 23.6313 30.201C23.6409 23.777 20.6207 20.0952 15.702 20.0952C10.7737 20.0952 7.78223 23.7674 7.77264 30.201C7.75346 36.6538 10.7545 40.4219 15.702 40.4315ZM15.702 36.9893C13.4488 36.9893 11.9914 34.7266 12.001 30.201C12.0106 25.7425 13.4584 23.4989 15.702 23.4989C17.936 23.4989 19.3934 25.7425 19.3934 30.201C19.403 34.7266 17.9456 36.9893 15.702 36.9893ZM34.2908 40.4315C39.2287 40.4315 42.2106 36.6729 42.2202 30.201C42.2298 23.777 39.2095 20.0952 34.2908 20.0952C29.3626 20.0952 26.3711 23.7674 26.3615 30.201C26.3423 36.6538 29.3434 40.4219 34.2908 40.4315ZM34.2908 36.9893C32.0376 36.9893 30.5803 34.7266 30.5898 30.201C30.5994 25.7425 32.0472 23.4989 34.2908 23.4989C36.5249 23.4989 37.9822 25.7425 37.9822 30.201C37.9918 34.7266 36.5344 36.9893 34.2908 36.9893Z" fill="black"/>
<path d="M6.84872 25.5H9.68963V23.5646C9.68963 22.1708 10.1513 21.0788 10.8171 20.0312L9.14808 19.0458C7.91406 20.049 6.84872 21.9577 6.84872 23.5824V25.5Z" fill="black"/>
<rect opacity="0.2" x="4" y="6" width="40" height="40" rx="4" fill="black"/>
<g opacity="0.4">
<path d="M10 4C10 2.89543 10.8954 2 12 2C13.1046 2 14 2.89543 14 4V8C14 9.10457 13.1046 10 12 10C10.8954 10 10 9.10457 10 8V4Z" fill="black"/>
<path d="M34 4C34 2.89543 34.8954 2 36 2C37.1046 2 38 2.89543 38 4V8C38 9.10457 37.1046 10 36 10C34.8954 10 34 9.10457 34 8V4Z" fill="black"/>
</g>
<path fill-rule="evenodd" clip-rule="evenodd" d="M10 6.00869C7.52043 6.04456 6.11466 6.22849 5.17157 7.17157C4 8.34315 4 10.2288 4 14V16H44V14C44 10.2288 44 8.34315 42.8284 7.17157C41.8853 6.22849 40.4796 6.04456 38 6.00869V8C38 9.10457 37.1046 10 36 10C34.8954 10 34 9.10457 34 8V6H14V8C14 9.10457 13.1046 10 12 10C10.8954 10 10 9.10457 10 8V6.00869Z" fill="black"/>
</svg>
