<svg width="48" height="48" viewBox="0 0 48 48" fill="none" xmlns="http://www.w3.org/2000/svg">
<path d="M16.0975 40.4315C21.0353 40.4315 24.0172 36.6729 24.0268 30.201C24.0364 23.777 21.0162 20.0952 16.0975 20.0952C11.1692 20.0952 8.17773 23.7674 8.16815 30.201C8.14897 36.6538 11.15 40.4219 16.0975 40.4315ZM16.0975 36.9893C13.8443 36.9893 12.3869 34.7266 12.3965 30.201C12.4061 25.7425 13.8539 23.4989 16.0975 23.4989C18.3315 23.4989 19.7889 25.7425 19.7889 30.201C19.7985 34.7266 18.3411 36.9893 16.0975 36.9893ZM34.2453 40.2685C38.6558 40.2685 41.8103 37.8427 41.8007 34.4869C41.8103 32.0419 40.257 30.2969 37.371 29.9325V29.7791C39.5667 29.386 41.0816 27.8327 41.072 25.6275C41.0816 22.5305 38.3682 20.0952 34.3028 20.0952C30.2758 20.0952 27.246 22.4538 27.1885 25.848H31.1675C31.2155 24.3523 32.5866 23.3839 34.2836 23.3839C35.9616 23.3839 37.0834 24.4002 37.0738 25.8768C37.0834 27.4205 35.7698 28.4656 33.8809 28.4656H32.0496V31.5146H33.8809C36.1054 31.5146 37.4957 32.6268 37.4861 34.2088C37.4957 35.7717 36.1533 36.8455 34.2549 36.8455C32.4236 36.8455 31.0525 35.8867 30.9758 34.4485H26.7954C26.8625 37.881 29.9307 40.2685 34.2453 40.2685Z" fill="black"/>
<path d="M6.84872 25.5H9.68963V23.5646C9.68963 22.1708 10.1513 21.0788 10.8171 20.0312L9.14808 19.0458C7.91406 20.049 6.84872 21.9577 6.84872 23.5824V25.5Z" fill="black"/>
<rect opacity="0.2" x="4" y="6" width="40" height="40" rx="4" fill="black"/>
<g opacity="0.4">
<path d="M10 4C10 2.89543 10.8954 2 12 2C13.1046 2 14 2.89543 14 4V8C14 9.10457 13.1046 10 12 10C10.8954 10 10 9.10457 10 8V4Z" fill="black"/>
<path d="M34 4C34 2.89543 34.8954 2 36 2C37.1046 2 38 2.89543 38 4V8C38 9.10457 37.1046 10 36 10C34.8954 10 34 9.10457 34 8V4Z" fill="black"/>
</g>
<path fill-rule="evenodd" clip-rule="evenodd" d="M10 6.00869C7.52043 6.04456 6.11466 6.22849 5.17157 7.17157C4 8.34315 4 10.2288 4 14V16H44V14C44 10.2288 44 8.34315 42.8284 7.17157C41.8853 6.22849 40.4796 6.04456 38 6.00869V8C38 9.10457 37.1046 10 36 10C34.8954 10 34 9.10457 34 8V6H14V8C14 9.10457 13.1046 10 12 10C10.8954 10 10 9.10457 10 8V6.00869Z" fill="black"/>
</svg>
