<svg width="48" height="48" viewBox="0 0 48 48" fill="none" xmlns="http://www.w3.org/2000/svg">
<rect opacity="0.2" x="5" y="5" width="38" height="38" rx="4" fill="black"/>
<path d="M5 13C5 9.22876 5 7.34315 6.17157 6.17157C7.34315 5 9.22876 5 13 5H35C38.7712 5 40.6569 5 41.8284 6.17157C43 7.34315 43 9.22876 43 13V15H5V13Z" fill="black"/>
<path d="M18.8208 35.2876C22.1127 35.2876 24.1007 32.782 24.1071 28.4673C24.1135 24.1847 22.1 21.7301 18.8208 21.7301C15.5353 21.7301 13.541 24.1783 13.5346 28.4673C13.5218 32.7692 15.5225 35.2812 18.8208 35.2876ZM18.8208 32.9929C17.3187 32.9929 16.3471 31.4844 16.3535 28.4673C16.3599 25.495 17.3251 23.9993 18.8208 23.9993C20.3102 23.9993 21.2818 25.495 21.2818 28.4673C21.2882 31.4844 20.3166 32.9929 18.8208 32.9929ZM26.2468 35H29.104L34.5373 24.2038V21.9091H25.3519V24.1719H31.6737V24.2614L26.2468 35Z" fill="black"/>
<path d="M8.31108 26H10.3565V24.6065C10.3565 23.603 10.6889 22.8168 11.1683 22.0625L9.96662 21.353C9.07812 22.0753 8.31108 23.4496 8.31108 24.6193V26Z" fill="black"/>
</svg>
