<svg width="48" height="48" viewBox="0 0 48 48" fill="none" xmlns="http://www.w3.org/2000/svg">
<rect opacity="0.2" x="5" y="5" width="38" height="38" rx="4" fill="black"/>
<path d="M5 13C5 9.22876 5 7.34315 6.17157 6.17157C7.34315 5 9.22876 5 13 5H35C38.7712 5 40.6569 5 41.8284 6.17157C43 7.34315 43 9.22876 43 13V15H5V13Z" fill="black"/>
<path d="M20.4205 21.9091H17.8189L14.5781 23.9609V26.4155L17.576 24.5362H17.6527V35H20.4205V21.9091ZM28.3706 35.179C31.3109 35.179 33.4139 33.5618 33.4075 31.3246C33.4139 29.6946 32.3784 28.5312 30.4544 28.2884V28.1861C31.9181 27.924 32.9281 26.8885 32.9217 25.4183C32.9281 23.3537 31.1191 21.7301 28.4089 21.7301C25.7243 21.7301 23.7044 23.3026 23.666 25.5653H26.3187C26.3507 24.5682 27.2647 23.9226 28.3961 23.9226C29.5147 23.9226 30.2626 24.6001 30.2562 25.5845C30.2626 26.6136 29.3869 27.3104 28.1277 27.3104H26.9068V29.343H28.1277C29.6106 29.343 30.5375 30.0845 30.5311 31.1392C30.5375 32.1811 29.6426 32.897 28.377 32.897C27.1561 32.897 26.242 32.2578 26.1909 31.299H23.4039C23.4487 33.5874 25.4941 35.179 28.3706 35.179Z" fill="black"/>
<path d="M8.31108 26H10.3565V24.6065C10.3565 23.603 10.6889 22.8168 11.1683 22.0625L9.96662 21.353C9.07812 22.0753 8.31108 23.4496 8.31108 24.6193V26Z" fill="black"/>
</svg>
