<svg width="48" height="48" viewBox="0 0 48 48" fill="none" xmlns="http://www.w3.org/2000/svg">
<path d="M11.4832 40H25.4818V36.6058H17.2361V36.4716L20.1029 33.6623C24.1395 29.9805 25.2229 28.1396 25.2229 25.9055C25.2229 22.5018 22.4424 20.0952 18.2332 20.0952C14.1104 20.0952 11.2819 22.5593 11.2915 26.4137H15.2322C15.2226 24.5344 16.4115 23.3839 18.2045 23.3839C19.9303 23.3839 21.2151 24.4577 21.2151 26.1836C21.2151 27.7464 20.2563 28.8203 18.4729 30.5366L11.4832 37.0085V40ZM37.033 20.3636H33.1307L28.2695 23.4414V27.1232L32.7663 24.3043H32.8814V40H37.033V20.3636Z" fill="black"/>
<path d="M6.84872 25.5H9.68963V23.5646C9.68963 22.1708 10.1513 21.0788 10.8171 20.0312L9.14808 19.0458C7.91406 20.049 6.84872 21.9577 6.84872 23.5824V25.5Z" fill="black"/>
<rect opacity="0.2" x="4" y="6" width="40" height="40" rx="4" fill="black"/>
<g opacity="0.4">
<path d="M10 4C10 2.89543 10.8954 2 12 2C13.1046 2 14 2.89543 14 4V8C14 9.10457 13.1046 10 12 10C10.8954 10 10 9.10457 10 8V4Z" fill="black"/>
<path d="M34 4C34 2.89543 34.8954 2 36 2C37.1046 2 38 2.89543 38 4V8C38 9.10457 37.1046 10 36 10C34.8954 10 34 9.10457 34 8V4Z" fill="black"/>
</g>
<path fill-rule="evenodd" clip-rule="evenodd" d="M10 6.00869C7.52043 6.04456 6.11466 6.22849 5.17157 7.17157C4 8.34315 4 10.2288 4 14V16H44V14C44 10.2288 44 8.34315 42.8284 7.17157C41.8853 6.22849 40.4796 6.04456 38 6.00869V8C38 9.10457 37.1046 10 36 10C34.8954 10 34 9.10457 34 8V6H14V8C14 9.10457 13.1046 10 12 10C10.8954 10 10 9.10457 10 8V6.00869Z" fill="black"/>
</svg>
