<svg width="48" height="48" viewBox="0 0 48 48" fill="none" xmlns="http://www.w3.org/2000/svg">
<path d="M19.6175 20.3636H15.7152L10.854 23.4414V27.1232L15.3508 24.3043H15.4659V40H19.6175V20.3636ZM31.8207 40.2685C36.1929 40.2876 39.1748 37.4208 39.1652 33.4226C39.1748 29.7408 36.6052 27.0849 33.1247 27.0849C30.9674 27.0849 29.0593 28.1204 28.1772 29.8558H28.043C28.0622 26.0302 29.4045 23.6523 31.9645 23.6523C33.4699 23.6523 34.5533 24.4769 34.8697 25.848H38.9638C38.5707 22.6168 35.8861 20.0952 31.9645 20.0952C27.113 20.0952 23.9968 24.0263 23.9777 30.6229C23.9681 37.8139 27.7841 40.2493 31.8207 40.2685ZM31.8015 37.0085C29.8839 37.0085 28.4649 35.4648 28.4649 33.5472C28.4745 31.6392 29.9223 30.0859 31.8303 30.0859C33.7479 30.0859 35.1478 31.5913 35.1382 33.5376C35.1478 35.5032 33.7191 37.0085 31.8015 37.0085Z" fill="black"/>
<path d="M6.84872 25.5H9.68963V23.5646C9.68963 22.1708 10.1513 21.0788 10.8171 20.0312L9.14808 19.0458C7.91406 20.049 6.84872 21.9577 6.84872 23.5824V25.5Z" fill="black"/>
<rect opacity="0.2" x="4" y="6" width="40" height="40" rx="4" fill="black"/>
<g opacity="0.4">
<path d="M10 4C10 2.89543 10.8954 2 12 2C13.1046 2 14 2.89543 14 4V8C14 9.10457 13.1046 10 12 10C10.8954 10 10 9.10457 10 8V4Z" fill="black"/>
<path d="M34 4C34 2.89543 34.8954 2 36 2C37.1046 2 38 2.89543 38 4V8C38 9.10457 37.1046 10 36 10C34.8954 10 34 9.10457 34 8V4Z" fill="black"/>
</g>
<path fill-rule="evenodd" clip-rule="evenodd" d="M10 6.00869C7.52043 6.04456 6.11466 6.22849 5.17157 7.17157C4 8.34315 4 10.2288 4 14V16H44V14C44 10.2288 44 8.34315 42.8284 7.17157C41.8853 6.22849 40.4796 6.04456 38 6.00869V8C38 9.10457 37.1046 10 36 10C34.8954 10 34 9.10457 34 8V6H14V8C14 9.10457 13.1046 10 12 10C10.8954 10 10 9.10457 10 8V6.00869Z" fill="black"/>
</svg>
