<svg width="48" height="48" viewBox="0 0 48 48" fill="none" xmlns="http://www.w3.org/2000/svg">
<path d="M8.79377 40H22.7923V36.6058H14.5466V36.4716L17.4134 33.6623C21.45 29.9805 22.5335 28.1396 22.5335 25.9055C22.5335 22.5018 19.7529 20.0952 15.5438 20.0952C11.4209 20.0952 8.59242 22.5593 8.60201 26.4137H12.5427C12.5331 24.5344 13.722 23.3839 15.515 23.3839C17.2409 23.3839 18.5257 24.4577 18.5257 26.1836C18.5257 27.7464 17.5669 28.8203 15.7835 30.5366L8.79377 37.0085V40ZM33.4998 40.4315C38.4377 40.4315 41.4196 36.6729 41.4292 30.201C41.4387 23.777 38.4185 20.0952 33.4998 20.0952C28.5716 20.0952 25.5801 23.7674 25.5705 30.201C25.5513 36.6538 28.5524 40.4219 33.4998 40.4315ZM33.4998 36.9893C31.2466 36.9893 29.7892 34.7266 29.7988 30.201C29.8084 25.7425 31.2562 23.4989 33.4998 23.4989C35.7338 23.4989 37.1912 25.7425 37.1912 30.201C37.2008 34.7266 35.7434 36.9893 33.4998 36.9893Z" fill="black"/>
<path d="M6.84872 25.5H9.68963V23.5646C9.68963 22.1708 10.1513 21.0788 10.8171 20.0312L9.14808 19.0458C7.91406 20.049 6.84872 21.9577 6.84872 23.5824V25.5Z" fill="black"/>
<rect opacity="0.2" x="4" y="6" width="40" height="40" rx="4" fill="black"/>
<g opacity="0.4">
<path d="M10 4C10 2.89543 10.8954 2 12 2C13.1046 2 14 2.89543 14 4V8C14 9.10457 13.1046 10 12 10C10.8954 10 10 9.10457 10 8V4Z" fill="black"/>
<path d="M34 4C34 2.89543 34.8954 2 36 2C37.1046 2 38 2.89543 38 4V8C38 9.10457 37.1046 10 36 10C34.8954 10 34 9.10457 34 8V4Z" fill="black"/>
</g>
<path fill-rule="evenodd" clip-rule="evenodd" d="M10 6.00869C7.52043 6.04456 6.11466 6.22849 5.17157 7.17157C4 8.34315 4 10.2288 4 14V16H44V14C44 10.2288 44 8.34315 42.8284 7.17157C41.8853 6.22849 40.4796 6.04456 38 6.00869V8C38 9.10457 37.1046 10 36 10C34.8954 10 34 9.10457 34 8V6H14V8C14 9.10457 13.1046 10 12 10C10.8954 10 10 9.10457 10 8V6.00869Z" fill="black"/>
</svg>
