<svg width="48" height="48" viewBox="0 0 48 48" fill="none" xmlns="http://www.w3.org/2000/svg">
<rect opacity="0.2" x="5" y="5" width="38" height="38" rx="4" fill="black"/>
<path d="M5 13C5 9.22876 5 7.34315 6.17157 6.17157C7.34315 5 9.22876 5 13 5H35C38.7712 5 40.6569 5 41.8284 6.17157C43 7.34315 43 9.22876 43 13V15H5V13Z" fill="black"/>
<path d="M18.1968 35.2876C21.4887 35.2876 23.4767 32.782 23.483 28.4673C23.4894 24.1847 21.4759 21.7301 18.1968 21.7301C14.9113 21.7301 12.917 24.1783 12.9106 28.4673C12.8978 32.7692 14.8985 35.2812 18.1968 35.2876ZM18.1968 32.9929C16.6947 32.9929 15.7231 31.4844 15.7295 28.4673C15.7359 25.495 16.7011 23.9993 18.1968 23.9993C19.6862 23.9993 20.6578 25.495 20.6578 28.4673C20.6642 31.4844 19.6926 32.9929 18.1968 32.9929ZM30.2378 35.179C33.1526 35.179 35.1341 33.2805 35.1278 30.6342C35.1341 28.1286 33.3827 26.326 31.0241 26.326C29.8735 26.326 28.8827 26.8054 28.4225 27.451H28.3458L28.6846 24.1719H34.4055V21.9091H26.4026L25.7826 28.8125L28.2435 29.2536C28.6462 28.7102 29.426 28.3714 30.1995 28.3714C31.5162 28.3778 32.4623 29.3303 32.4623 30.7045C32.4623 32.0661 31.5354 33.0057 30.2378 33.0057C29.1384 33.0057 28.2499 32.3153 28.186 31.299H25.5013C25.5525 33.5618 27.5276 35.179 30.2378 35.179Z" fill="black"/>
<path d="M8.31108 26H10.3565V24.6065C10.3565 23.603 10.6889 22.8168 11.1683 22.0625L9.96662 21.353C9.07812 22.0753 8.31108 23.4496 8.31108 24.6193V26Z" fill="black"/>
</svg>
