<svg width="48" height="48" viewBox="0 0 48 48" fill="none" xmlns="http://www.w3.org/2000/svg">
<rect opacity="0.2" x="5" y="5" width="38" height="38" rx="4" fill="black"/>
<path d="M5 13C5 9.22876 5 7.34315 6.17157 6.17157C7.34315 5 9.22876 5 13 5H35C38.7712 5 40.6569 5 41.8284 6.17157C43 7.34315 43 9.22876 43 13V15H5V13Z" fill="black"/>
<path d="M20.4117 21.9091H17.8101L14.5693 23.9609V26.4155L17.5672 24.5362H17.6439V35H20.4117V21.9091ZM28.5471 35.179C31.4619 35.1918 33.4498 33.2805 33.4434 30.6151C33.4498 28.1605 31.7368 26.3899 29.4165 26.3899C27.9782 26.3899 26.7062 27.0803 26.1182 28.2372H26.0287C26.0415 25.6868 26.9363 24.1016 28.643 24.1016C29.6466 24.1016 30.3689 24.6513 30.5798 25.5653H33.3092C33.0471 23.4112 31.2574 21.7301 28.643 21.7301C25.4086 21.7301 23.3312 24.3509 23.3184 28.7486C23.3121 33.5426 25.8561 35.1662 28.5471 35.179ZM28.5344 33.0057C27.2559 33.0057 26.3099 31.9766 26.3099 30.6982C26.3163 29.4261 27.2815 28.3906 28.5535 28.3906C29.8319 28.3906 30.7652 29.3942 30.7588 30.6918C30.7652 32.0021 29.8128 33.0057 28.5344 33.0057Z" fill="black"/>
<path d="M8.31108 26H10.3565V24.6065C10.3565 23.603 10.6889 22.8168 11.1683 22.0625L9.96662 21.353C9.07812 22.0753 8.31108 23.4496 8.31108 24.6193V26Z" fill="black"/>
</svg>
