<svg width="48" height="48" viewBox="0 0 48 48" fill="none" xmlns="http://www.w3.org/2000/svg">
<path d="M18.3914 40.4315C23.3293 40.4315 26.3112 36.6729 26.3208 30.201C26.3303 23.777 23.3101 20.0952 18.3914 20.0952C13.4632 20.0952 10.4717 23.7674 10.4621 30.201C10.4429 36.6538 13.444 40.4219 18.3914 40.4315ZM18.3914 36.9893C16.1382 36.9893 14.6808 34.7266 14.6904 30.201C14.7 25.7425 16.1478 23.4989 18.3914 23.4989C20.6254 23.4989 22.0828 25.7425 22.0828 30.201C22.0924 34.7266 20.635 36.9893 18.3914 36.9893ZM37.824 20.3636H33.9217L29.0605 23.4414V27.1232L33.5574 24.3043H33.6724V40H37.824V20.3636Z" fill="black"/>
<path d="M6.84872 25.5H9.68963V23.5646C9.68963 22.1708 10.1513 21.0788 10.8171 20.0312L9.14808 19.0458C7.91406 20.049 6.84872 21.9577 6.84872 23.5824V25.5Z" fill="black"/>
<rect opacity="0.2" x="4" y="6" width="40" height="40" rx="4" fill="black"/>
<g opacity="0.4">
<path d="M10 4C10 2.89543 10.8954 2 12 2C13.1046 2 14 2.89543 14 4V8C14 9.10457 13.1046 10 12 10C10.8954 10 10 9.10457 10 8V4Z" fill="black"/>
<path d="M34 4C34 2.89543 34.8954 2 36 2C37.1046 2 38 2.89543 38 4V8C38 9.10457 37.1046 10 36 10C34.8954 10 34 9.10457 34 8V4Z" fill="black"/>
</g>
<path fill-rule="evenodd" clip-rule="evenodd" d="M10 6.00869C7.52043 6.04456 6.11466 6.22849 5.17157 7.17157C4 8.34315 4 10.2288 4 14V16H44V14C44 10.2288 44 8.34315 42.8284 7.17157C41.8853 6.22849 40.4796 6.04456 38 6.00869V8C38 9.10457 37.1046 10 36 10C34.8954 10 34 9.10457 34 8V6H14V8C14 9.10457 13.1046 10 12 10C10.8954 10 10 9.10457 10 8V6.00869Z" fill="black"/>
</svg>
