<svg width="48" height="48" viewBox="0 0 48 48" fill="none" xmlns="http://www.w3.org/2000/svg">
<path d="M19.8284 20.3636H15.9261L11.0649 23.4414V27.1232L15.5617 24.3043H15.6768V40H19.8284V20.3636ZM31.6673 40.2685C36.0395 40.2685 39.0118 37.4208 39.0022 33.4513C39.0118 29.6928 36.3846 26.989 32.8466 26.989C31.1208 26.989 29.6346 27.7081 28.9443 28.6765H28.8292L29.3374 23.7578H37.9187V20.3636H25.9145L24.9844 30.7188L28.6758 31.3803C29.2799 30.5653 30.4496 30.0572 31.6098 30.0572C33.5849 30.0668 35.004 31.4954 35.004 33.5568C35.004 35.5991 33.6137 37.0085 31.6673 37.0085C30.0182 37.0085 28.6854 35.973 28.5895 34.4485H24.5625C24.6392 37.8427 27.602 40.2685 31.6673 40.2685Z" fill="black"/>
<path d="M6.84872 25.5H9.68963V23.5646C9.68963 22.1708 10.1513 21.0788 10.8171 20.0312L9.14808 19.0458C7.91406 20.049 6.84872 21.9577 6.84872 23.5824V25.5Z" fill="black"/>
<rect opacity="0.2" x="4" y="6" width="40" height="40" rx="4" fill="black"/>
<g opacity="0.4">
<path d="M10 4C10 2.89543 10.8954 2 12 2C13.1046 2 14 2.89543 14 4V8C14 9.10457 13.1046 10 12 10C10.8954 10 10 9.10457 10 8V4Z" fill="black"/>
<path d="M34 4C34 2.89543 34.8954 2 36 2C37.1046 2 38 2.89543 38 4V8C38 9.10457 37.1046 10 36 10C34.8954 10 34 9.10457 34 8V4Z" fill="black"/>
</g>
<path fill-rule="evenodd" clip-rule="evenodd" d="M10 6.00869C7.52043 6.04456 6.11466 6.22849 5.17157 7.17157C4 8.34315 4 10.2288 4 14V16H44V14C44 10.2288 44 8.34315 42.8284 7.17157C41.8853 6.22849 40.4796 6.04456 38 6.00869V8C38 9.10457 37.1046 10 36 10C34.8954 10 34 9.10457 34 8V6H14V8C14 9.10457 13.1046 10 12 10C10.8954 10 10 9.10457 10 8V6.00869Z" fill="black"/>
</svg>
