<svg width="48" height="48" viewBox="0 0 48 48" fill="none" xmlns="http://www.w3.org/2000/svg">
<rect opacity="0.2" x="5" y="5" width="38" height="38" rx="4" fill="black"/>
<path d="M5 13C5 9.22876 5 7.34315 6.17157 6.17157C7.34315 5 9.22876 5 13 5H35C38.7712 5 40.6569 5 41.8284 6.17157C43 7.34315 43 9.22876 43 13V15H5V13Z" fill="black"/>
<path d="M13.1958 35H22.5282V32.7372H17.0311V32.6477L18.9423 30.7749C21.6333 28.3203 22.3556 27.093 22.3556 25.6037C22.3556 23.3345 20.502 21.7301 17.6958 21.7301C14.9473 21.7301 13.0616 23.3729 13.068 25.9425H15.6951C15.6887 24.6896 16.4814 23.9226 17.6767 23.9226C18.8272 23.9226 19.6838 24.6385 19.6838 25.7891C19.6838 26.831 19.0446 27.5469 17.8556 28.6911L13.1958 33.0057V35ZM29.6665 35.2876C32.9585 35.2876 34.9464 32.782 34.9528 28.4673C34.9592 24.1847 32.9457 21.7301 29.6665 21.7301C26.381 21.7301 24.3867 24.1783 24.3803 28.4673C24.3675 32.7692 26.3683 35.2812 29.6665 35.2876ZM29.6665 32.9929C28.1644 32.9929 27.1928 31.4844 27.1992 28.4673C27.2056 25.495 28.1708 23.9993 29.6665 23.9993C31.1559 23.9993 32.1275 25.495 32.1275 28.4673C32.1339 31.4844 31.1623 32.9929 29.6665 32.9929Z" fill="black"/>
<path d="M8.31108 26H10.3565V24.6065C10.3565 23.603 10.6889 22.8168 11.1683 22.0625L9.96662 21.353C9.07812 22.0753 8.31108 23.4496 8.31108 24.6193V26Z" fill="black"/>
</svg>
