<svg width="48" height="48" viewBox="0 0 48 48" fill="none" xmlns="http://www.w3.org/2000/svg">
<path d="M20.0262 20.3636H16.1238L11.2627 23.4414V27.1232L15.7595 24.3043H15.8746V40H20.0262V20.3636ZM24.6932 40H38.6918V36.6058H30.446V36.4716L33.3129 33.6623C37.3494 29.9805 38.4329 28.1396 38.4329 25.9055C38.4329 22.5018 35.6523 20.0952 31.4432 20.0952C27.3203 20.0952 24.4918 22.5593 24.5014 26.4137H28.4421C28.4325 24.5344 29.6214 23.3839 31.4144 23.3839C33.1403 23.3839 34.4251 24.4577 34.4251 26.1836C34.4251 27.7464 33.4663 28.8203 31.6829 30.5366L24.6932 37.0085V40Z" fill="black"/>
<path d="M6.84872 25.5H9.68963V23.5646C9.68963 22.1708 10.1513 21.0788 10.8171 20.0312L9.14808 19.0458C7.91406 20.049 6.84872 21.9577 6.84872 23.5824V25.5Z" fill="black"/>
<rect opacity="0.2" x="4" y="6" width="40" height="40" rx="4" fill="black"/>
<g opacity="0.4">
<path d="M10 4C10 2.89543 10.8954 2 12 2C13.1046 2 14 2.89543 14 4V8C14 9.10457 13.1046 10 12 10C10.8954 10 10 9.10457 10 8V4Z" fill="black"/>
<path d="M34 4C34 2.89543 34.8954 2 36 2C37.1046 2 38 2.89543 38 4V8C38 9.10457 37.1046 10 36 10C34.8954 10 34 9.10457 34 8V4Z" fill="black"/>
</g>
<path fill-rule="evenodd" clip-rule="evenodd" d="M10 6.00869C7.52043 6.04456 6.11466 6.22849 5.17157 7.17157C4 8.34315 4 10.2288 4 14V16H44V14C44 10.2288 44 8.34315 42.8284 7.17157C41.8853 6.22849 40.4796 6.04456 38 6.00869V8C38 9.10457 37.1046 10 36 10C34.8954 10 34 9.10457 34 8V6H14V8C14 9.10457 13.1046 10 12 10C10.8954 10 10 9.10457 10 8V6.00869Z" fill="black"/>
</svg>
