<svg width="48" height="48" viewBox="0 0 48 48" fill="none" xmlns="http://www.w3.org/2000/svg">
<rect opacity="0.2" x="5" y="5" width="38" height="38" rx="4" fill="black"/>
<path d="M5 13C5 9.22876 5 7.34315 6.17157 6.17157C7.34315 5 9.22876 5 13 5H35C38.7712 5 40.6569 5 41.8284 6.17157C43 7.34315 43 9.22876 43 13V15H5V13Z" fill="black"/>
<path d="M13.7232 35H23.0556V32.7372H17.5584V32.6477L19.4696 30.7749C22.1607 28.3203 22.883 27.093 22.883 25.6037C22.883 23.3345 21.0293 21.7301 18.2232 21.7301C15.4746 21.7301 13.589 23.3729 13.5953 25.9425H16.2225C16.2161 24.6896 17.0087 23.9226 18.204 23.9226C19.3546 23.9226 20.2111 24.6385 20.2111 25.7891C20.2111 26.831 19.5719 27.5469 18.383 28.6911L13.7232 33.0057V35ZM25.0611 35H34.3935V32.7372H28.8963V32.6477L30.8075 30.7749C33.4986 28.3203 34.2209 27.093 34.2209 25.6037C34.2209 23.3345 32.3672 21.7301 29.5611 21.7301C26.8125 21.7301 24.9268 23.3729 24.9332 25.9425H27.5604C27.554 24.6896 28.3466 23.9226 29.5419 23.9226C30.6925 23.9226 31.549 24.6385 31.549 25.7891C31.549 26.831 30.9098 27.5469 29.7209 28.6911L25.0611 33.0057V35Z" fill="black"/>
<path d="M8.31108 26H10.3565V24.6065C10.3565 23.603 10.6889 22.8168 11.1683 22.0625L9.96662 21.353C9.07812 22.0753 8.31108 23.4496 8.31108 24.6193V26Z" fill="black"/>
</svg>
