<svg width="48" height="48" viewBox="0 0 48 48" fill="none" xmlns="http://www.w3.org/2000/svg">
<g id="files-folders-data/document-simple">
<rect id="Rectangle 38" opacity="0.2" x="5" y="5" width="38" height="38" rx="4" fill="black"/>
<path id="Subtract" d="M12 16C12 12.2288 12 10.3431 13.1716 9.17157C14.3431 8 16.2288 8 20 8H28C31.7712 8 33.6569 8 34.8284 9.17157C36 10.3431 36 12.2288 36 16V30H30C27.7909 30 26 31.7909 26 34V40H20C16.2288 40 14.3431 40 13.1716 38.8284C12 37.6569 12 35.7712 12 32V16Z" fill="black"/>
<path id="Subtract_2" opacity="0.6" d="M36 30H30C27.7909 30 26 31.7909 26 34V40L36 30Z" fill="black"/>
</g>
</svg>
