<svg width="48" height="48" viewBox="0 0 48 48" fill="none" xmlns="http://www.w3.org/2000/svg">
<g id="internet-communication/map">
<path id="Rectangle 1" opacity="0.2" d="M5 12.3611C5 8.8672 5 7.12027 6.05647 5.97209C7.11294 4.82392 8.85384 4.67885 12.3356 4.3887L16.1369 4.07193C16.568 4.036 16.7836 4.01803 16.9994 4.02337C17.2153 4.0287 17.4297 4.05729 17.8585 4.11447L31.1113 5.88151C31.5552 5.94069 31.7771 5.97028 32.0005 5.97496C32.2239 5.97964 32.4469 5.95937 32.8929 5.91883L34.2757 5.79312C38.355 5.42227 40.3947 5.23684 41.6974 6.42644C43 7.61604 43 9.66411 43 13.7603V35.6943C43 39.1639 43 40.8988 41.9537 42.0445C40.9074 43.1902 39.1797 43.3473 35.7243 43.6614L32.8929 43.9188C32.4469 43.9594 32.2239 43.9796 32.0005 43.975C31.7771 43.9703 31.5552 43.9407 31.1113 43.8815L17.8585 42.1145C17.4297 42.0573 17.2153 42.0287 16.9994 42.0234C16.7836 42.018 16.568 42.036 16.1369 42.0719L13.6644 42.278C9.6102 42.6158 7.58312 42.7847 6.29156 41.5963C5 40.4079 5 38.3738 5 34.3056V12.3611Z" fill="black"/>
<path id="Intersect" opacity="0.2" fill-rule="evenodd" clip-rule="evenodd" d="M32 5.97501C31.7768 5.97029 31.5548 5.9407 31.1113 5.88156L17.8585 4.11453C17.4301 4.0574 17.2156 4.02881 17 4.02344V18.0001C19.2091 18.0001 21 19.7909 21 22.0001C21 24.2092 19.2091 26.0001 17 26.0001V42.0234C17.2156 42.0288 17.43 42.0574 17.8584 42.1145L17.8585 42.1145L31.1113 43.8816L31.1114 43.8816C31.5549 43.9407 31.7768 43.9703 32 43.975V5.97501Z" fill="black"/>
<path id="Intersect_2" opacity="0.6" fill-rule="evenodd" clip-rule="evenodd" d="M32 43.9751V5.97508C32.0002 5.97508 32.0003 5.97509 32.0005 5.97509C32.2239 5.97977 32.4469 5.9595 32.8929 5.91896L32.8929 5.91896L34.2757 5.79324C38.355 5.4224 40.3947 5.23697 41.6974 6.42657C43 7.61616 43 9.66424 43 13.7604V35.6944C43 39.1641 43 40.8989 41.9537 42.0446C40.9074 43.1904 39.1797 43.3474 35.7243 43.6616L32.8929 43.919C32.4469 43.9595 32.2239 43.9798 32.0005 43.9751C32.0003 43.9751 32.0002 43.9751 32 43.9751Z" fill="black"/>
<path id="Intersect_3" opacity="0.6" fill-rule="evenodd" clip-rule="evenodd" d="M17 4.0234C16.9998 4.02339 16.9996 4.02339 16.9994 4.02338C16.7836 4.01805 16.568 4.03602 16.1369 4.07195L12.3356 4.38871C8.85384 4.67886 7.11294 4.82394 6.05647 5.97211C5 7.12028 5 8.86721 5 12.3611V34.3056C5 38.3738 5 40.4079 6.29156 41.5963C7.58312 42.7848 9.6102 42.6158 13.6644 42.278L16.1369 42.0719C16.568 42.036 16.7836 42.0181 16.9994 42.0234C16.9996 42.0234 16.9998 42.0234 17 42.0234V26C14.7909 26 13 24.2092 13 22C13 19.7909 14.7909 18 17 18V4.0234Z" fill="black"/>
<path id="Intersect_4" fill-rule="evenodd" clip-rule="evenodd" d="M17.0001 16C5.23811 16 13.7832 31.2306 16.6032 33.7305C16.8387 33.9393 17.1614 33.9393 17.3969 33.7305C20.2167 31.2305 28.7619 16 17.0001 16ZM20.3783 21.6303C20.3783 23.496 18.8658 25.0084 17.0001 25.0084C15.1344 25.0084 13.6219 23.496 13.6219 21.6303C13.6219 19.7646 15.1344 18.2521 17.0001 18.2521C18.8658 18.2521 20.3783 19.7646 20.3783 21.6303Z" fill="black"/>
</g>
</svg>
