<svg width="49" height="48" viewBox="0 0 49 48" fill="none" xmlns="http://www.w3.org/2000/svg">
<g id="arrows/entering-down-left-alt">
<rect id="Rectangle 37" opacity="0.2" x="43.0215" y="5" width="38" height="38" rx="4" transform="rotate(90 43.0215 5)" fill="black"/>
<path id="Intersect" fill-rule="evenodd" clip-rule="evenodd" d="M33.7475 30.0018C35.4043 30.0018 36.7475 28.6586 36.7475 27.0018C36.7475 25.3449 35.4043 24.0018 33.7475 24.0018L28.2622 24.0018L42.9473 9.31671C42.8354 7.83972 42.5546 6.87636 41.8497 6.17148C41.1449 5.46663 40.1816 5.18584 38.7047 5.07397L24.0195 19.7592L24.0195 14.2739C24.0195 12.617 22.6764 11.2739 21.0195 11.2739C19.3627 11.2739 18.0195 12.617 18.0195 14.2739L18.0195 27.0018C18.0195 28.6586 19.3627 30.0018 21.0195 30.0018L33.7475 30.0018Z" fill="black"/>
</g>
</svg>
