<svg width="49" height="48" viewBox="0 0 49 48" fill="none" xmlns="http://www.w3.org/2000/svg">
<g id="arrows/entering-down-right-alt">
<rect id="Rectangle 37" opacity="0.2" x="5.02148" y="5" width="38" height="38" rx="4" fill="black"/>
<path id="Intersect" fill-rule="evenodd" clip-rule="evenodd" d="M30.0231 14.2737C30.0231 12.6169 28.6799 11.2737 27.0231 11.2737C25.3662 11.2737 24.0231 12.6169 24.0231 14.2737L24.0231 19.759L9.33802 5.07397C7.86128 5.18585 6.89805 5.46665 6.19324 6.17146C5.48832 6.87638 5.20754 7.83981 5.0957 9.31694L19.7804 24.0017H14.2951C12.6383 24.0017 11.2951 25.3448 11.2951 27.0017C11.2951 28.6585 12.6383 30.0017 14.2951 30.0017H27.0231C28.6799 30.0017 30.0231 28.6585 30.0231 27.0017V14.2737Z" fill="black"/>
</g>
</svg>
