<svg width="49" height="48" viewBox="0 0 49 48" fill="none" xmlns="http://www.w3.org/2000/svg">
<g id="arrows/entering-up-left-alt">
<rect id="Rectangle 37" opacity="0.2" x="43.0215" y="43" width="38" height="38" rx="4" transform="rotate(-180 43.0215 43)" fill="black"/>
<path id="Intersect" fill-rule="evenodd" clip-rule="evenodd" d="M18.0199 33.7263C18.0199 35.3831 19.363 36.7262 21.0199 36.7262C22.6768 36.7262 24.0199 35.3831 24.0199 33.7262L24.0199 28.241L38.705 42.926C40.1817 42.8142 41.1449 42.5334 41.8497 41.8285C42.5547 41.1236 42.8354 40.1602 42.9473 38.6831L28.2625 23.9983L33.7478 23.9983C35.4047 23.9983 36.7478 22.6552 36.7478 20.9983C36.7478 19.3415 35.4047 17.9983 33.7478 17.9983L21.0199 17.9983C19.363 17.9983 18.0199 19.3415 18.0199 20.9983L18.0199 33.7263Z" fill="black"/>
</g>
</svg>
