<svg width="49" height="48" viewBox="0 0 49 48" fill="none" xmlns="http://www.w3.org/2000/svg">
<g id="arrows/nobg-up-left" clip-path="url(#clip0_37:595)">
<g id="Group 48">
<path id="Rectangle 168" opacity="0.8" d="M40.1336 33.0623C40.9147 33.8434 40.9147 35.1097 40.1336 35.8908L35.891 40.1334C35.1099 40.9145 33.8436 40.9145 33.0626 40.1334L16.092 23.1629C15.311 22.3818 15.311 21.1155 16.092 20.3344L20.3346 16.0918C21.1157 15.3107 22.382 15.3107 23.1631 16.0918L40.1336 33.0623Z" fill="black"/>
<path id="Vector 74" d="M33.184 9.72774L11.7282 9.72774C10.6236 9.72774 9.7282 10.6232 9.7282 11.7277L9.7282 33.1836C9.7282 34.2882 10.6236 35.1836 11.7282 35.1836L17.6277 35.1836C18.7323 35.1836 19.6277 34.2882 19.6277 33.1836L19.6277 21.6272C19.6277 20.5227 20.5231 19.6272 21.6277 19.6272L33.184 19.6272C34.2886 19.6272 35.184 18.7318 35.184 17.6272V11.7277C35.184 10.6232 34.2886 9.72774 33.184 9.72774Z" fill="black"/>
</g>
</g>
<defs>
<clipPath id="clip0_37:595">
<rect width="48" height="48" fill="white" transform="translate(0.0214844)"/>
</clipPath>
</defs>
</svg>
