<svg width="49" height="48" viewBox="0 0 49 48" fill="none" xmlns="http://www.w3.org/2000/svg">
<g id="arrows/nobg-down-right" clip-path="url(#clip0_37:559)">
<g id="Group 48">
<path id="Rectangle 168" opacity="0.8" d="M7.73648 14.8075C6.95543 14.0265 6.95543 12.7601 7.73648 11.9791L11.9791 7.73646C12.7602 6.95541 14.0265 6.95541 14.8075 7.73646L31.7781 24.707C32.5592 25.4881 32.5592 26.7544 31.7781 27.5354L27.5355 31.7781C26.7544 32.5591 25.4881 32.5591 24.707 31.7781L7.73648 14.8075Z" fill="black"/>
<path id="Vector 74" d="M14.6861 38.1421L36.1419 38.1421C37.2465 38.1421 38.1419 37.2467 38.1419 36.1421L38.1419 14.6863C38.1419 13.5817 37.2465 12.6863 36.1419 12.6863L30.2424 12.6863C29.1379 12.6863 28.2424 13.5817 28.2424 14.6863L28.2424 26.2426C28.2424 27.3472 27.347 28.2426 26.2424 28.2426L14.6861 28.2426C13.5815 28.2426 12.6861 29.1381 12.6861 30.2426V36.1421C12.6861 37.2467 13.5815 38.1421 14.6861 38.1421Z" fill="black"/>
</g>
</g>
<defs>
<clipPath id="clip0_37:559">
<rect width="48" height="48" fill="white" transform="translate(0.0214844)"/>
</clipPath>
</defs>
</svg>
