<svg width="49" height="48" viewBox="0 0 49 48" fill="none" xmlns="http://www.w3.org/2000/svg">
<g id="arrows/nobg-left">
<g id="Group 48">
<path id="Rectangle 168" opacity="0.8" d="M42 19C43.1046 19 44 19.8954 44 21L44 27C44 28.1046 43.1046 29 42 29L18 29C16.8954 29 16 28.1046 16 27L16 21C16 19.8954 16.8954 19 18 19L42 19Z" fill="black"/>
<path id="Vector 74" d="M20.5858 7.41421L5.41421 22.5858C4.63316 23.3668 4.63316 24.6332 5.41421 25.4142L20.5858 40.5858C21.3668 41.3668 22.6332 41.3668 23.4142 40.5858L27.5858 36.4142C28.3668 35.6332 28.3668 34.3668 27.5858 33.5858L19.4142 25.4142C18.6332 24.6332 18.6332 23.3668 19.4142 22.5858L27.5858 14.4142C28.3668 13.6332 28.3668 12.3668 27.5858 11.5858L23.4142 7.41421C22.6332 6.63316 21.3668 6.63316 20.5858 7.41421Z" fill="black"/>
</g>
</g>
</svg>
