<svg width="49" height="48" viewBox="0 0 49 48" fill="none" xmlns="http://www.w3.org/2000/svg">
<g id="arrows/nobg-up">
<g id="Group 48">
<path id="Rectangle 168" opacity="0.8" d="M29 42C29 43.1046 28.1046 44 27 44L21 44C19.8954 44 19 43.1046 19 42L19 18C19 16.8954 19.8954 16 21 16L27 16C28.1046 16 29 16.8954 29 18L29 42Z" fill="black"/>
<path id="Vector 74" d="M40.5858 20.5858L25.4142 5.41421C24.6332 4.63317 23.3668 4.63317 22.5858 5.41421L7.41421 20.5858C6.63316 21.3668 6.63316 22.6332 7.41421 23.4142L11.5858 27.5858C12.3668 28.3668 13.6332 28.3668 14.4142 27.5858L22.5858 19.4142C23.3668 18.6332 24.6332 18.6332 25.4142 19.4142L33.5858 27.5858C34.3668 28.3668 35.6332 28.3668 36.4142 27.5858L40.5858 23.4142C41.3668 22.6332 41.3668 21.3668 40.5858 20.5858Z" fill="black"/>
</g>
</g>
</svg>
