<svg width="48" height="48" viewBox="0 0 48 48" fill="none" xmlns="http://www.w3.org/2000/svg">
<g id="arrows/nobg-up-right" clip-path="url(#clip0_37:541)">
<g id="Group 48">
<path id="Rectangle 168" opacity="0.8" d="M14.8078 40.2635C14.0267 41.0446 12.7604 41.0446 11.9793 40.2635L7.7367 36.0209C6.95565 35.2398 6.95565 33.9735 7.7367 33.1925L24.7073 16.2219C25.4883 15.4408 26.7546 15.4408 27.5357 16.2219L31.7783 20.4645C32.5594 21.2456 32.5594 22.5119 31.7783 23.293L14.8078 40.2635Z" fill="black"/>
<path id="Vector 74" d="M38.1421 33.3137L38.1421 11.8578C38.1421 10.7533 37.2467 9.85784 36.1421 9.85784L14.6863 9.85784C13.5817 9.85784 12.6863 10.7533 12.6863 11.8578L12.6863 17.7573C12.6863 18.8619 13.5817 19.7573 14.6863 19.7573L26.2426 19.7573C27.3472 19.7573 28.2426 20.6528 28.2426 21.7573L28.2426 33.3137C28.2426 34.4182 29.1381 35.3137 30.2426 35.3137H36.1421C37.2467 35.3137 38.1421 34.4183 38.1421 33.3137Z" fill="black"/>
</g>
</g>
<defs>
<clipPath id="clip0_37:541">
<rect width="48" height="48" fill="white"/>
</clipPath>
</defs>
</svg>
