<svg width="48" height="48" viewBox="0 0 48 48" fill="none" xmlns="http://www.w3.org/2000/svg">
<g id="arrows/nobg-up-right">
<g id="Group 48">
<path id="Rectangle 168" opacity="0.8" d="M19 6C19 4.89543 19.8954 4 21 4H27C28.1046 4 29 4.89543 29 6V30C29 31.1046 28.1046 32 27 32H21C19.8954 32 19 31.1046 19 30V6Z" fill="black"/>
<path id="Vector 74" d="M7.41421 27.4142L22.5858 42.5858C23.3668 43.3668 24.6332 43.3668 25.4142 42.5858L40.5858 27.4142C41.3668 26.6332 41.3668 25.3668 40.5858 24.5858L36.4142 20.4142C35.6332 19.6332 34.3668 19.6332 33.5858 20.4142L25.4142 28.5858C24.6332 29.3668 23.3668 29.3668 22.5858 28.5858L14.4142 20.4142C13.6332 19.6332 12.3668 19.6332 11.5858 20.4142L7.41421 24.5858C6.63317 25.3668 6.63316 26.6332 7.41421 27.4142Z" fill="black"/>
</g>
</g>
</svg>
