<svg width="48" height="48" viewBox="0 0 48 48" fill="none" xmlns="http://www.w3.org/2000/svg">
<g id="years/year-08">
<rect id="Rectangle 1" opacity="0.2" x="5" y="5" width="38" height="38" rx="4" fill="black"/>
<path id="Rectangle 2" d="M5 13C5 9.22876 5 7.34315 6.17157 6.17157C7.34315 5 9.22876 5 13 5H35C38.7712 5 40.6569 5 41.8284 6.17157C43 7.34315 43 9.22876 43 13V15H5V13Z" fill="black"/>
<path id="08" d="M18.0474 35.2876C21.3393 35.2876 23.3272 32.782 23.3336 28.4673C23.34 24.1847 21.3265 21.7301 18.0474 21.7301C14.7619 21.7301 12.7676 24.1783 12.7612 28.4673C12.7484 32.7692 14.7491 35.2812 18.0474 35.2876ZM18.0474 32.9929C16.5453 32.9929 15.5737 31.4844 15.5801 28.4673C15.5865 25.495 16.5517 23.9993 18.0474 23.9993C19.5368 23.9993 20.5083 25.495 20.5083 28.4673C20.5147 31.4844 19.5431 32.9929 18.0474 32.9929ZM30.1907 35.179C33.1438 35.179 35.266 33.6001 35.2724 31.478C35.266 29.8416 34.0067 28.5057 32.4343 28.2436V28.1541C33.8022 27.8729 34.7802 26.6903 34.7866 25.2521C34.7802 23.2259 32.837 21.7301 30.1907 21.7301C27.538 21.7301 25.5948 23.2259 25.6012 25.2521C25.5948 26.6839 26.56 27.8729 27.9535 28.1541V28.2436C26.3555 28.5057 25.109 29.8416 25.1154 31.478C25.109 33.6001 27.2376 35.179 30.1907 35.179ZM30.1907 33.1463C28.8739 33.1463 27.9918 32.3665 27.9918 31.2607C27.9918 30.1293 28.9187 29.3111 30.1907 29.3111C31.4563 29.3111 32.3896 30.1293 32.3896 31.2607C32.3896 32.3729 31.5011 33.1463 30.1907 33.1463ZM30.1907 27.2976C29.0849 27.2976 28.2987 26.5753 28.2987 25.5398C28.2987 24.517 29.0721 23.8139 30.1907 23.8139C31.3029 23.8139 32.0827 24.5234 32.0827 25.5398C32.0827 26.5753 31.2901 27.2976 30.1907 27.2976Z" fill="black"/>
<path id="&#226;&#128;&#152;" d="M8.31108 26H10.3565V24.6065C10.3565 23.603 10.6889 22.8168 11.1683 22.0625L9.96662 21.353C9.07812 22.0753 8.31108 23.4496 8.31108 24.6193V26Z" fill="black"/>
</g>
</svg>
