<svg width="48" height="48" viewBox="0 0 48 48" fill="none" xmlns="http://www.w3.org/2000/svg">
<g id="years/year-14">
<rect id="Rectangle 1" opacity="0.2" x="5" y="5" width="38" height="38" rx="4" fill="black"/>
<path id="Rectangle 2" d="M5 13C5 9.22876 5 7.34315 6.17157 6.17157C7.34315 5 9.22876 5 13 5H35C38.7712 5 40.6569 5 41.8284 6.17157C43 7.34315 43 9.22876 43 13V15H5V13Z" fill="black"/>
<path id="14" d="M20.2535 21.9091H17.6519L14.4111 23.9609V26.4155L17.409 24.5362H17.4857V35H20.2535V21.9091ZM23.1666 32.6989H29.45V35H32.0963V32.6989H33.7199V30.4808H32.0963V21.9091H28.6318L23.1666 30.5192V32.6989ZM29.5012 30.4808H25.9536V30.3786L29.3989 24.9261H29.5012V30.4808Z" fill="black"/>
<path id="&#226;&#128;&#152;" d="M8.31108 26H10.3565V24.6065C10.3565 23.603 10.6889 22.8168 11.1683 22.0625L9.96662 21.353C9.07812 22.0753 8.31108 23.4496 8.31108 24.6193V26Z" fill="black"/>
</g>
</svg>
