<svg width="48" height="48" viewBox="0 0 48 48" fill="none" xmlns="http://www.w3.org/2000/svg">
<g id="years/year-11">
<rect id="Rectangle 1" opacity="0.2" x="5" y="5" width="38" height="38" rx="4" fill="black"/>
<path id="Rectangle 2" d="M5 13C5 9.22876 5 7.34315 6.17157 6.17157C7.34315 5 9.22876 5 13 5H35C38.7712 5 40.6569 5 41.8284 6.17157C43 7.34315 43 9.22876 43 13V15H5V13Z" fill="black"/>
<path id="11" d="M21.9498 21.9091H19.3482L16.1074 23.9609V26.4155L19.1053 24.5362H19.182V35H21.9498V21.9091ZM30.7564 21.9091H28.1548L24.9141 23.9609V26.4155L27.9119 24.5362H27.9886V35H30.7564V21.9091Z" fill="black"/>
<path id="&#226;&#128;&#152;" d="M8.31108 26H10.3565V24.6065C10.3565 23.603 10.6889 22.8168 11.1683 22.0625L9.96662 21.353C9.07812 22.0753 8.31108 23.4496 8.31108 24.6193V26Z" fill="black"/>
</g>
</svg>
