<svg width="48" height="48" viewBox="0 0 48 48" fill="none" xmlns="http://www.w3.org/2000/svg">
<g id="years/year-19">
<rect id="Rectangle 1" opacity="0.2" x="5" y="5" width="38" height="38" rx="4" fill="black"/>
<path id="Rectangle 2" d="M5 13C5 9.22876 5 7.34315 6.17157 6.17157C7.34315 5 9.22876 5 13 5H35C38.7712 5 40.6569 5 41.8284 6.17157C43 7.34315 43 9.22876 43 13V15H5V13Z" fill="black"/>
<path id="19" d="M20.4117 21.9091H17.8101L14.5693 23.9609V26.4155L17.5672 24.5362H17.6439V35H20.4117V21.9091ZM28.2595 21.7301C25.3319 21.7173 23.3568 23.6349 23.3696 26.2685C23.376 28.7102 25.0699 30.4808 27.3902 30.4808C28.8284 30.4808 30.1068 29.7841 30.6885 28.6335H30.778C30.7716 31.2287 29.8703 32.8075 28.1636 32.8075C27.1601 32.8075 26.4378 32.2578 26.2268 31.3054H23.4974C23.7531 33.5107 25.5429 35.179 28.1636 35.179C31.4044 35.179 33.4946 32.5582 33.4882 28.1158C33.4818 23.3729 30.9506 21.7429 28.2595 21.7301ZM28.2787 23.9034C29.5507 23.9034 30.4903 24.9389 30.5031 26.1854C30.5095 27.4382 29.5187 28.4737 28.2531 28.4737C26.9747 28.4737 26.0606 27.4766 26.0542 26.1918C26.0415 24.9134 26.9939 23.9034 28.2787 23.9034Z" fill="black"/>
<path id="&#226;&#128;&#152;" d="M8.31108 26H10.3565V24.6065C10.3565 23.603 10.6889 22.8168 11.1683 22.0625L9.96662 21.353C9.07812 22.0753 8.31108 23.4496 8.31108 24.6193V26Z" fill="black"/>
</g>
</svg>
