<svg width="48" height="48" viewBox="0 0 48 48" fill="none" xmlns="http://www.w3.org/2000/svg">
<g id="tasks-office/rocket-simple" clip-path="url(#clip0_47:622)">
<rect id="Rectangle 48" opacity="0.2" x="5" y="5" width="38" height="38" rx="4" fill="black"/>
<g id="Group 39">
<rect id="Rectangle 154" opacity="0.2" x="15.728" y="21.2061" width="16" height="2" transform="rotate(45 15.728 21.2061)" fill="black"/>
<path id="Intersect" opacity="0.2" d="M19.7128 17.2208C23.5228 13.4108 28.5985 11.1315 33.9773 10.8151L35.4021 10.7313C36.5975 10.6609 37.5864 11.6498 37.516 12.8453L37.4322 14.27C37.1158 19.6488 34.8365 24.7245 31.0265 28.5345L23.506 36.055C22.725 36.836 21.4587 36.836 20.6776 36.055L12.1923 27.5697C11.4113 26.7886 11.4113 25.5223 12.1923 24.7413L19.7128 17.2208Z" fill="black"/>
<g id="Subtract" opacity="0.6">
<path d="M26.7957 12.4744C24.1692 13.5706 21.7586 15.175 19.7129 17.2207L15.7279 21.2056L27.0417 32.5194L31.0266 28.5344C33.0723 26.4887 34.6767 24.0781 35.7729 21.4517L26.7957 12.4744Z" fill="black"/>
<path d="M14.3137 22.6199L25.6274 33.9336L23.5061 36.0549C22.7251 36.8359 21.4587 36.8359 20.6777 36.0549L12.1924 27.5696C11.4114 26.7886 11.4114 25.5222 12.1924 24.7412L14.3137 22.6199Z" fill="black"/>
</g>
<path id="Subtract_2" d="M28.876 11.7265C30.5228 11.2263 32.2341 10.9176 33.9773 10.8151L35.4021 10.7313C36.5975 10.661 37.5864 11.6498 37.5161 12.8453L37.4323 14.27C37.3297 16.0132 37.021 17.7246 36.5209 19.3713L28.876 11.7265Z" fill="black"/>
<path id="Vector 67" d="M29.6225 37.576L30.5771 28.9839L23.5061 36.055L26.2205 38.7694C27.4063 39.9552 29.4373 39.2428 29.6225 37.576Z" fill="black"/>
<path id="Vector 68" d="M10.6715 18.6251L19.2637 17.6704L12.1926 24.7415L9.4782 22.0271C8.29237 20.8412 9.00479 18.8103 10.6715 18.6251Z" fill="black"/>
<path id="Vector 69" d="M11.3831 28.5081L13.2925 28.6699L19.5779 34.9553L19.7397 36.8647C19.8184 37.7936 18.6954 38.3154 18.0361 37.6562L10.5916 30.2116C9.93236 29.5524 10.4542 28.4294 11.3831 28.5081Z" fill="black"/>
</g>
</g>
<defs>
<clipPath id="clip0_47:622">
<rect width="48" height="48" fill="white"/>
</clipPath>
</defs>
</svg>
