<svg width="48" height="48" viewBox="0 0 48 48" fill="none" xmlns="http://www.w3.org/2000/svg">
<g id="tasks-office/rocket" clip-path="url(#clip0_47:650)">
<g id="Group 39">
<rect id="Rectangle 154" opacity="0.2" x="18.1167" y="16.1885" width="19" height="2.37507" transform="rotate(45 18.1167 16.1885)" fill="black"/>
<path id="Intersect" opacity="0.2" fill-rule="evenodd" clip-rule="evenodd" d="M43.012 14.2044C42.7724 15.0523 42.4822 15.8839 42.1437 16.6949L31.0442 5.59545C31.8552 5.25687 32.6869 4.96676 33.5347 4.72707L43.012 14.2044Z" fill="black"/>
<g id="Subtract" opacity="0.6">
<path d="M31.2637 5.81596C28.144 7.11851 25.2806 9.02458 22.8505 11.4547L18.1166 16.1885L31.5517 29.6236L36.2855 24.8897C38.7156 22.4596 40.6217 19.5962 41.9242 16.4765L31.2637 5.81596Z" fill="black"/>
<path d="M16.4367 17.8685L29.8717 31.3035L27.3517 33.8235C26.4239 34.7513 24.9199 34.7516 23.9924 33.8241L13.9161 23.7478C12.9886 22.8203 12.9889 21.3163 13.9167 20.3885L16.4367 17.8685Z" fill="black"/>
</g>
<path id="Subtract_2" d="M33.7349 4.92719C35.6909 4.33279 37.7235 3.96578 39.794 3.84362L41.4862 3.74378C42.906 3.66001 44.0803 4.83429 43.9965 6.25414L43.8967 7.94635C43.7745 10.0168 43.4075 12.0494 42.8131 14.0054L33.7349 4.92719Z" fill="black"/>
<path id="Vector 67" d="M34.5292 36.4059L35.7515 25.4233L27.3516 33.8232L31.1273 37.5989C32.313 38.7846 34.3438 38.0725 34.5292 36.4059Z" fill="black"/>
<path id="Vector 68" d="M11.3338 13.211L22.3164 11.9888L13.9165 20.3886L10.1408 16.6129C8.9551 15.4272 9.66725 13.3965 11.3338 13.211Z" fill="black"/>
<path id="Vector 69" d="M12.4437 24.8185L15.2224 25.0539L22.6863 32.5178L22.9217 35.2965C23.0004 36.2254 21.8774 36.7472 21.2182 36.088L11.6522 26.522C10.993 25.8628 11.5148 24.7398 12.4437 24.8185Z" fill="black"/>
</g>
<circle id="Ellipse 54" opacity="0.4" cx="21" cy="39" r="1" fill="black"/>
<circle id="Ellipse 55" opacity="0.4" cx="13" cy="43" r="1" fill="black"/>
<circle id="Ellipse 56" opacity="0.4" cx="7" cy="32" r="1" fill="black"/>
<circle id="Ellipse 57" opacity="0.4" cx="5" cy="38" r="1" fill="black"/>
<path id="Vector 71" opacity="0.4" d="M5.90736 41.6668L11.4445 27.4283C11.7063 26.7554 12.5731 26.5731 13.0837 27.0837L20.9939 34.9939C21.4837 35.4837 21.3393 36.3109 20.7126 36.6058L7.26517 42.934C6.44796 43.3186 5.58001 42.5085 5.90736 41.6668Z" fill="black"/>
</g>
<defs>
<clipPath id="clip0_47:650">
<rect width="48" height="48" fill="white"/>
</clipPath>
</defs>
</svg>
