<svg width="48" height="48" viewBox="0 0 48 48" fill="none" xmlns="http://www.w3.org/2000/svg">
<g id="tasks-office/target-goal">
<path id="Vector 12" d="M24 24L43 5" stroke="black" stroke-width="4" stroke-linecap="round"/>
<path id="Subtract" opacity="0.8" d="M34.7315 8.31881C31.678 6.2251 27.9821 5.00009 24 5.00009C13.5066 5.00009 5 13.5067 5 24.0001C5 34.4935 13.5066 43.0001 24 43.0001C34.4934 43.0001 43 34.4935 43 24.0001C43 20.018 41.775 16.3221 39.6813 13.2686L37.5161 15.4338C39.089 17.9105 40 20.8489 40 24.0001C40 32.8366 32.8366 40.0001 24 40.0001C15.1634 40.0001 8 32.8366 8 24.0001C8 15.1635 15.1634 8.00009 24 8.00009C27.1512 8.00009 30.0896 8.91107 32.5663 10.484L34.7315 8.31881Z" fill="black"/>
<g id="Subtract_2">
<path d="M30.3798 12.6705C28.4951 11.6069 26.3184 11 24 11C16.8203 11 11 16.8203 11 24C11 31.1797 16.8203 37 24 37C31.1797 37 37 31.1797 37 24C37 21.6816 36.3931 19.5049 35.3295 17.6202L33.1005 19.8492C33.6781 21.1135 34 22.5192 34 24C34 29.5229 29.5229 34 24 34C18.4772 34 14 29.5229 14 24C14 18.4772 18.4772 14 24 14C25.4808 14 26.8865 14.3219 28.1508 14.8995L30.3798 12.6705Z" fill="black"/>
<path d="M25.8132 17.2371C25.2349 17.0824 24.6271 17 24 17C20.134 17 17 20.134 17 24C17 27.866 20.134 31 24 31C27.866 31 31 27.866 31 24C31 23.3729 30.9175 22.7651 30.7629 22.1868L27.8457 25.1041C27.3665 26.7762 25.8262 28 24 28C21.7909 28 20 26.2091 20 24C20 22.1738 21.2238 20.6335 22.8959 20.1543L25.8132 17.2371Z" fill="black"/>
</g>
</g>
</svg>
