<svg width="48" height="48" viewBox="0 0 48 48" fill="none" xmlns="http://www.w3.org/2000/svg">
<g id="days/thursday">
<rect id="Rectangle 1" opacity="0.2" x="5" y="5" width="38" height="38" rx="4" fill="black"/>
<path id="Rectangle 2" d="M5 13C5 9.22876 5 7.34315 6.17157 6.17157C7.34315 5 9.22876 5 13 5H35C38.7712 5 40.6569 5 41.8284 6.17157C43 7.34315 43 9.22876 43 13V15H5V13Z" fill="black"/>
<path id="Th" d="M11.7903 23.9901H16.2434V36H19.2832V23.9901H23.7363V21.4545H11.7903V23.9901ZM28.6724 29.6932C28.6795 28.2869 29.5389 27.4631 30.7747 27.4631C32.0034 27.4631 32.7278 28.2514 32.7207 29.5938V36H35.7463V29.054C35.7534 26.4972 34.2477 24.9489 31.975 24.9489C30.3201 24.9489 29.2122 25.7301 28.715 27.0156H28.5872V21.4545H25.6468V36H28.6724V29.6932Z" fill="black"/>
</g>
</svg>
