<svg width="48" height="48" viewBox="0 0 48 48" fill="none" xmlns="http://www.w3.org/2000/svg">
<g id="days/tuesday">
<rect id="Rectangle 1" opacity="0.2" x="5" y="5" width="38" height="38" rx="4" fill="black"/>
<path id="Rectangle 2" d="M5 13C5 9.22876 5 7.34315 6.17157 6.17157C7.34315 5 9.22876 5 13 5H35C38.7712 5 40.6569 5 41.8284 6.17157C43 7.34315 43 9.22876 43 13V15H5V13Z" fill="black"/>
<path id="Tu" d="M12.552 23.9901H17.0051V36H20.0449V23.9901H24.498V21.4545H12.552V23.9901ZM31.9199 31.3551C31.927 32.8182 30.9256 33.5852 29.839 33.5852C28.6955 33.5852 27.9569 32.7827 27.9498 31.4972V25.0909H24.9242V32.0369C24.9313 34.5866 26.4228 36.142 28.6174 36.142C30.258 36.142 31.437 35.2969 31.927 34.0185H32.0407V36H34.9455V25.0909H31.9199V31.3551Z" fill="black"/>
</g>
</svg>
