<svg width="48" height="48" viewBox="0 0 48 48" fill="none" xmlns="http://www.w3.org/2000/svg">
<g id="date-events/date-from">
<rect id="Rectangle 1" opacity="0.2" x="5" y="5" width="38" height="38" rx="4" fill="black"/>
<path id="Rectangle 2" d="M5 13C5 9.22876 5 7.34315 6.17157 6.17157C7.34315 5 9.22876 5 13 5H35C38.7712 5 40.6569 5 41.8284 6.17157C43 7.34315 43 9.22876 43 13V15H5V13Z" fill="black"/>
<path id="Vector 1" d="M20 28L21.4142 29.4142C22.1953 28.6332 22.1953 27.3668 21.4142 26.5858L20 28ZM4 26C2.89543 26 2 26.8954 2 28C2 29.1046 2.89543 30 4 30V26ZM13.5858 31.5858C12.8047 32.3668 12.8047 33.6332 13.5858 34.4142C14.3668 35.1953 15.6332 35.1953 16.4142 34.4142L13.5858 31.5858ZM16.4142 21.5858C15.6332 20.8047 14.3668 20.8047 13.5858 21.5858C12.8047 22.3668 12.8047 23.6332 13.5858 24.4142L16.4142 21.5858ZM20 26H4V30H20V26ZM18.5858 26.5858L13.5858 31.5858L16.4142 34.4142L21.4142 29.4142L18.5858 26.5858ZM21.4142 26.5858L16.4142 21.5858L13.5858 24.4142L18.5858 29.4142L21.4142 26.5858Z" fill="black"/>
</g>
</svg>
