<svg width="48" height="48" viewBox="0 0 48 48" fill="none" xmlns="http://www.w3.org/2000/svg">
<g id="date-events/today">
<rect id="Rectangle 1" opacity="0.2" x="5" y="5" width="38" height="38" rx="4" fill="black"/>
<path id="Rectangle 2" d="M5 13C5 9.22876 5 7.34315 6.17157 6.17157C7.34315 5 9.22876 5 13 5H35C38.7712 5 40.6569 5 41.8284 6.17157C43 7.34315 43 9.22876 43 13V15H5V13Z" fill="black"/>
<g id="Group 1">
<path id="Subtract" d="M17 34L20.5858 37.5858C21.3668 38.3669 22.6332 38.3669 23.4142 37.5858L35.5858 25.4142C36.3668 24.6332 36.3668 23.3669 35.5858 22.5858L33.4142 20.4142C32.6332 19.6332 31.3668 19.6332 30.5858 20.4142L17 34Z" fill="black"/>
<path id="Subtract_2" d="M22 29L17 34L12.4142 29.4142C11.6332 28.6332 11.6332 27.3668 12.4142 26.5858L14.5858 24.4142C15.3668 23.6332 16.6332 23.6332 17.4142 24.4142L22 29Z" fill="black"/>
</g>
</g>
</svg>
