<svg width="48" height="48" viewBox="0 0 48 48" fill="none" xmlns="http://www.w3.org/2000/svg">
<g id="media-reading-writing/game">
<rect id="Rectangle 1" opacity="0.2" x="10" y="10" width="28" height="28" rx="4" fill="black"/>
<path id="Rectangle 96" d="M17 6C17 4.34314 18.3431 3 20 3H28C29.6569 3 31 4.34315 31 6V13.5868C31 14.6774 30.5547 15.7207 29.7671 16.4752L26.7671 19.3492C25.22 20.8312 22.78 20.8312 21.2329 19.3492L18.2329 16.4752C17.4453 15.7207 17 14.6774 17 13.5868V6Z" fill="black"/>
<path id="Rectangle 98" d="M31 42C31 43.6569 29.6569 45 28 45H20C18.3431 45 17 43.6569 17 42V34.4132C17 33.3226 17.4453 32.2793 18.2329 31.5248L21.2329 28.6508C22.78 27.1688 25.22 27.1688 26.7671 28.6508L29.7671 31.5248C30.5547 32.2793 31 33.3226 31 34.4132V42Z" fill="black"/>
<path id="Rectangle 97" d="M42 17C43.6569 17 45 18.3431 45 20L45 28C45 29.6569 43.6569 31 42 31L34.4132 31C33.3226 31 32.2793 30.5547 31.5248 29.7671L28.6508 26.7671C27.1688 25.22 27.1688 22.78 28.6508 21.2329L31.5248 18.2329C32.2793 17.4453 33.3226 17 34.4132 17L42 17Z" fill="black"/>
<path id="Rectangle 99" d="M6 31C4.34314 31 3 29.6569 3 28L3 20C3 18.3431 4.34315 17 6 17L13.5868 17C14.6774 17 15.7207 17.4453 16.4752 18.2329L19.3492 21.2329C20.8312 22.78 20.8312 25.22 19.3492 26.7671L16.4752 29.7671C15.7207 30.5547 14.6774 31 13.5868 31L6 31Z" fill="black"/>
</g>
</svg>
