<svg width="48" height="48" viewBox="0 0 48 48" fill="none" xmlns="http://www.w3.org/2000/svg">
<g id="media-reading-writing/microphone">
<g id="Group 41">
<g id="Group 29" opacity="0.66">
<path id="Vector 57" d="M13 11V22C13 28.0751 17.9249 33 24 33V33" stroke="black" stroke-width="4" stroke-linecap="round" stroke-linejoin="round"/>
<path id="Vector 58" d="M35 11V22C35 28.0751 30.0751 33 24 33V33" stroke="black" stroke-width="4" stroke-linecap="round" stroke-linejoin="round"/>
</g>
<path id="Subtract" opacity="0.6" d="M17.3999 18.7V22C17.3999 25.645 20.3548 28.6 23.9999 28.6C27.645 28.6 30.5999 25.645 30.5999 22V18.7H17.3999Z" fill="black"/>
<path id="Subtract_2" d="M23.9999 0C20.3548 0 17.3999 2.95492 17.3999 6.6V18.7H30.5999V6.6C30.5999 2.95492 27.645 0 23.9999 0Z" fill="black"/>
</g>
<path id="Rectangle 158" d="M15 43C15 39.6863 17.6863 37 21 37H27C30.3137 37 33 39.6863 33 43C33 44.1046 32.1046 45 31 45H17C15.8954 45 15 44.1046 15 43Z" fill="black"/>
</g>
</svg>
