<svg width="200" height="41" viewBox="0 0 200 41" fill="none" xmlns="http://www.w3.org/2000/svg">
<rect width="200" height="41" fill="white"/>
<rect x="11" y="-29" width="204" height="41" rx="8" fill="white"/>
<rect width="200" height="41" rx="8" fill="#D49675" fill-opacity="0.2"/>
<g opacity="0.6">
<path d="M36.6533 23.7676C37.0741 23.9181 37.5275 24 38 24C40.2091 24 42 22.2091 42 20C42 17.7909 40.2091 16 38 16V17.9988C38 18.0096 38 18.0204 38 18.0311C38 18.0311 38 18.0311 38 18.0311C39.0873 18.0311 39.9689 18.9126 39.9689 20C39.9689 21.0874 39.0874 21.9689 38 21.9689C37.7948 21.9689 37.597 21.9375 37.411 21.8792C37.2071 22.5323 36.953 23.1633 36.6533 23.7676Z" fill="#D49675"/>
<path d="M37.3283 13.9339C31.9431 10.022 18.0569 10.022 12.6717 13.9339C12.2219 14.2607 12 14.7999 12 15.3558L12 18.0009C12 25.1806 17.8203 31 25 31C32.1797 31 38 25.1785 38 17.9988V15.3532C38 14.7972 37.7781 14.2607 37.3283 13.9339Z" fill="#D49675"/>
</g>
<ellipse cx="25" cy="15.0001" rx="11" ry="3.09677" fill="#D49675"/>
<path d="M48.4307 28H54.0237C56.964 28 58.5301 26.4659 58.5301 24.3821C58.5301 22.4453 57.143 21.2755 55.6537 21.2052V21.0774C57.0152 20.7706 58.0187 19.8054 58.0187 18.2649C58.0187 16.3025 56.5613 14.909 53.6721 14.909H48.4307V28ZM51.1984 25.7372V22.2599H53.5187C54.8483 22.2599 55.6729 23.0269 55.6729 24.1072C55.6729 25.0916 55.0017 25.7372 53.4548 25.7372H51.1984ZM51.1984 20.387V17.1463H53.3014C54.5287 17.1463 55.2254 17.7791 55.2254 18.7251C55.2254 19.7606 54.3817 20.387 53.2503 20.387H51.1984Z" fill="#D49675"/>
<path d="M66.5761 23.8196C66.5825 25.1363 65.6812 25.8267 64.7032 25.8267C63.6741 25.8267 63.0093 25.1044 63.0029 23.9474V18.1818H60.2799V24.4332C60.2863 26.7279 61.6286 28.1278 63.6038 28.1278C65.0803 28.1278 66.1414 27.3671 66.5825 26.2166H66.6847V28H69.2991V18.1818H66.5761V23.8196Z" fill="#D49675"/>
<path d="M73.1583 31.6818C75.1846 31.6818 76.2584 30.6463 76.8145 29.061L80.6306 18.1946L77.7478 18.1818L75.6959 25.392H75.5937L73.561 18.1818H70.6974L74.2194 28.2812L74.0596 28.6967C73.7016 29.6171 73.0177 29.6619 72.0589 29.3679L71.4452 31.4005C71.8351 31.5667 72.468 31.6818 73.1583 31.6818Z" fill="#D49675"/>
<path d="M86.1901 28H88.9131V22.1065C88.9131 21.0198 89.6034 20.2975 90.5111 20.2975C91.406 20.2975 92.0068 20.9112 92.0068 21.8764V28H94.6468V22.0042C94.6468 20.9879 95.2284 20.2975 96.2192 20.2975C97.0885 20.2975 97.7405 20.8409 97.7405 21.9339V28H100.457V21.397C100.457 19.2684 99.1915 18.0539 97.3634 18.0539C95.9252 18.0539 94.8066 18.789 94.4039 19.914H94.3016C93.9884 18.7762 92.9848 18.0539 91.6361 18.0539C90.3129 18.0539 89.3094 18.7571 88.9003 19.914H88.7852V18.1818H86.1901V28Z" fill="#D49675"/>
<path d="M107.082 28.1917C109.511 28.1917 111.148 27.0092 111.531 25.1875L109.013 25.0213C108.738 25.7691 108.035 26.159 107.127 26.159C105.766 26.159 104.903 25.2578 104.903 23.794V23.7876H111.589V23.0397C111.589 19.7031 109.569 18.0539 106.974 18.0539C104.085 18.0539 102.212 20.1058 102.212 23.1356C102.212 26.2485 104.059 28.1917 107.082 28.1917ZM104.903 22.1001C104.96 20.9815 105.81 20.0866 107.019 20.0866C108.201 20.0866 109.019 20.9304 109.026 22.1001H104.903Z" fill="#D49675"/>
<path d="M120.332 28.1853C121.783 28.1853 122.722 27.5525 123.202 26.6385H123.278V28H125.861V21.3778C125.861 19.0383 123.879 18.0539 121.693 18.0539C119.341 18.0539 117.794 19.1789 117.417 20.9687L119.935 21.1733C120.121 20.5213 120.702 20.0419 121.68 20.0419C122.607 20.0419 123.138 20.5085 123.138 21.3139V21.3522C123.138 21.985 122.467 22.0681 120.76 22.2343C118.817 22.4133 117.072 23.0653 117.072 25.2578C117.072 27.201 118.459 28.1853 120.332 28.1853ZM121.111 26.3061C120.274 26.3061 119.673 25.9161 119.673 25.1683C119.673 24.4012 120.306 24.0241 121.265 23.8899C121.859 23.8068 122.831 23.6661 123.157 23.4488V24.4907C123.157 25.5198 122.307 26.3061 121.111 26.3061Z" fill="#D49675"/>
<path d="M136.575 28.1917C139.19 28.1917 140.832 26.6576 140.96 24.4012H138.391C138.231 25.4495 137.541 26.0376 136.607 26.0376C135.335 26.0376 134.511 24.9701 134.511 23.0909C134.511 21.2372 135.342 20.1761 136.607 20.1761C137.604 20.1761 138.244 20.8345 138.391 21.8125H140.96C140.845 19.5433 139.126 18.0539 136.563 18.0539C133.584 18.0539 131.743 20.1186 131.743 23.1292C131.743 26.1143 133.552 28.1917 136.575 28.1917Z" fill="#D49675"/>
<path d="M147.14 28.1917C150.119 28.1917 151.972 26.1527 151.972 23.1292C151.972 20.0866 150.119 18.0539 147.14 18.0539C144.161 18.0539 142.307 20.0866 142.307 23.1292C142.307 26.1527 144.161 28.1917 147.14 28.1917ZM147.153 26.0823C145.778 26.0823 145.075 24.8231 145.075 23.11C145.075 21.397 145.778 20.1313 147.153 20.1313C148.501 20.1313 149.204 21.397 149.204 23.11C149.204 24.8231 148.501 26.0823 147.153 26.0823Z" fill="#D49675"/>
<path d="M159.023 18.1818H157.073V17.5234C157.073 16.8586 157.342 16.4687 158.141 16.4687C158.467 16.4687 158.799 16.539 159.016 16.6093L159.496 14.5639C159.157 14.4616 158.409 14.2954 157.572 14.2954C155.724 14.2954 154.35 15.3373 154.35 17.4723V18.1818H152.963V20.2272H154.35V28H157.073V20.2272H159.023V18.1818Z" fill="#D49675"/>
<path d="M165.966 18.1818H164.016V17.5234C164.016 16.8586 164.285 16.4687 165.084 16.4687C165.41 16.4687 165.742 16.539 165.96 16.6093L166.439 14.5639C166.1 14.4616 165.352 14.2954 164.515 14.2954C162.668 14.2954 161.293 15.3373 161.293 17.4723V18.1818H159.906V20.2272H161.293V28H164.016V20.2272H165.966V18.1818Z" fill="#D49675"/>
<path d="M171.752 28.1917C174.181 28.1917 175.818 27.0092 176.201 25.1875L173.683 25.0213C173.408 25.7691 172.705 26.159 171.797 26.159C170.436 26.159 169.573 25.2578 169.573 23.794V23.7876H176.259V23.0397C176.259 19.7031 174.239 18.0539 171.644 18.0539C168.755 18.0539 166.882 20.1058 166.882 23.1356C166.882 26.2485 168.729 28.1917 171.752 28.1917ZM169.573 22.1001C169.63 20.9815 170.48 20.0866 171.688 20.0866C172.871 20.0866 173.689 20.9304 173.696 22.1001H169.573Z" fill="#D49675"/>
<path d="M182.51 28.1917C184.939 28.1917 186.576 27.0092 186.959 25.1875L184.441 25.0213C184.166 25.7691 183.463 26.159 182.555 26.159C181.193 26.159 180.331 25.2578 180.331 23.794V23.7876H187.017V23.0397C187.017 19.7031 184.997 18.0539 182.402 18.0539C179.512 18.0539 177.639 20.1058 177.639 23.1356C177.639 26.2485 179.487 28.1917 182.51 28.1917ZM180.331 22.1001C180.388 20.9815 181.238 20.0866 182.446 20.0866C183.629 20.0866 184.447 20.9304 184.453 22.1001H180.331Z" fill="#D49675"/>
</svg>
