<svg width="204" height="41" viewBox="0 0 204 41" fill="none" xmlns="http://www.w3.org/2000/svg">
<rect opacity="0.2" width="204" height="41" rx="8" fill="#D49675"/>
<path opacity="0.6" fill-rule="evenodd" clip-rule="evenodd" d="M40.6533 23.2676C41.0741 23.4181 41.5275 23.5 42.0001 23.5C44.2092 23.5 46.0001 21.7091 46.0001 19.5C46.0001 17.2909 44.2092 15.5 42.0001 15.5V17.4988C42.0001 17.5096 42 17.5204 42 17.5311C42 17.5311 42 17.5311 42.0001 17.5311C43.0874 17.5311 43.9689 18.4126 43.9689 19.5C43.9689 20.5874 43.0874 21.4689 42.0001 21.4689C41.7949 21.4689 41.5971 21.4375 41.4111 21.3793C41.2071 22.0323 40.953 22.6633 40.6533 23.2676Z" fill="#D49675"/>
<path opacity="0.6" d="M41.3283 13.4339C35.9431 9.52203 22.0569 9.52203 16.6718 13.4339C16.2219 13.7607 16 14.2999 16 14.8558L16 17.5009C16 24.6806 21.8203 30.5 29 30.5C36.1797 30.5 42 24.6785 42 17.4988V14.8532C42 14.2972 41.7781 13.7607 41.3283 13.4339Z" fill="#D49675"/>
<ellipse cx="29" cy="14.5001" rx="11" ry="3.09677" fill="#D49675"/>
<path d="M55.4024 27.5H60.9955C63.9358 27.5 65.5019 25.9659 65.5019 23.8821C65.5019 21.9453 64.1148 20.7756 62.6254 20.7053V20.5774C63.987 20.2706 64.9905 19.3054 64.9905 17.7649C64.9905 15.8026 63.5331 14.4091 60.6439 14.4091H55.4024V27.5ZM58.1702 25.2372V21.7599H60.4905C61.82 21.7599 62.6446 22.527 62.6446 23.6072C62.6446 24.5916 61.9735 25.2372 60.4266 25.2372H58.1702ZM58.1702 19.8871V16.6463H60.2732C61.5004 16.6463 62.1972 17.2791 62.1972 18.2251C62.1972 19.2607 61.3534 19.8871 60.222 19.8871H58.1702ZM73.5479 23.3196C73.5542 24.6364 72.653 25.3267 71.675 25.3267C70.6459 25.3267 69.9811 24.6044 69.9747 23.4474V17.6818H67.2517V23.9332C67.2581 26.228 68.6004 27.6278 70.5756 27.6278C72.0521 27.6278 73.1132 26.8672 73.5542 25.7166H73.6565V27.5H76.2709V17.6818H73.5479V23.3196ZM80.1301 31.1818C82.1563 31.1818 83.2302 30.1463 83.7863 28.5611L87.6024 17.6946L84.7195 17.6818L82.6677 24.892H82.5654L80.5328 17.6818H77.6691L81.1911 27.7812L81.0313 28.1967C80.6734 29.1172 79.9894 29.1619 79.0306 28.8679L78.417 30.9006C78.8069 31.0668 79.4397 31.1818 80.1301 31.1818ZM93.1618 27.5H95.8849V21.6065C95.8849 20.5199 96.5752 19.7976 97.4829 19.7976C98.3778 19.7976 98.9786 20.4112 98.9786 21.3764V27.5H101.619V21.5043C101.619 20.4879 102.2 19.7976 103.191 19.7976C104.06 19.7976 104.712 20.3409 104.712 21.4339V27.5H107.429V20.897C107.429 18.7685 106.163 17.554 104.335 17.554C102.897 17.554 101.778 18.2891 101.376 19.4141H101.273C100.96 18.2763 99.9566 17.554 98.6079 17.554C97.2847 17.554 96.2812 18.2571 95.8721 19.4141H95.757V17.6818H93.1618V27.5ZM114.054 27.6918C116.483 27.6918 118.12 26.5092 118.503 24.6875L115.985 24.5213C115.71 25.2692 115.007 25.6591 114.099 25.6591C112.737 25.6591 111.875 24.7578 111.875 23.294V23.2876H118.561V22.5398C118.561 19.2031 116.541 17.554 113.946 17.554C111.056 17.554 109.184 19.6058 109.184 22.6357C109.184 25.7486 111.031 27.6918 114.054 27.6918ZM111.875 21.6001C111.932 20.4815 112.782 19.5866 113.99 19.5866C115.173 19.5866 115.991 20.4304 115.997 21.6001H111.875ZM127.303 27.6854C128.754 27.6854 129.694 27.0526 130.173 26.1385H130.25V27.5H132.832V20.8778C132.832 18.5384 130.851 17.554 128.665 17.554C126.313 17.554 124.766 18.679 124.389 20.4688L126.907 20.6733C127.092 20.0213 127.674 19.5419 128.652 19.5419C129.579 19.5419 130.109 20.0085 130.109 20.8139V20.8523C130.109 21.4851 129.438 21.5682 127.732 21.7344C125.788 21.9134 124.043 22.5653 124.043 24.7578C124.043 26.701 125.43 27.6854 127.303 27.6854ZM128.083 25.8061C127.246 25.8061 126.645 25.4162 126.645 24.6683C126.645 23.9013 127.278 23.5241 128.237 23.3899C128.831 23.3068 129.803 23.1662 130.129 22.9489V23.9908C130.129 25.0199 129.278 25.8061 128.083 25.8061ZM143.547 27.6918C146.161 27.6918 147.804 26.1577 147.932 23.9013H145.362C145.203 24.9496 144.512 25.5376 143.579 25.5376C142.307 25.5376 141.483 24.4702 141.483 22.5909C141.483 20.7372 142.313 19.6761 143.579 19.6761C144.576 19.6761 145.215 20.3345 145.362 21.3125H147.932C147.817 19.0433 146.098 17.554 143.534 17.554C140.556 17.554 138.715 19.6186 138.715 22.6293C138.715 25.6143 140.524 27.6918 143.547 27.6918ZM154.112 27.6918C157.09 27.6918 158.944 25.6527 158.944 22.6293C158.944 19.5866 157.09 17.554 154.112 17.554C151.133 17.554 149.279 19.5866 149.279 22.6293C149.279 25.6527 151.133 27.6918 154.112 27.6918ZM154.124 25.5824C152.75 25.5824 152.047 24.3232 152.047 22.6101C152.047 20.897 152.75 19.6314 154.124 19.6314C155.473 19.6314 156.176 20.897 156.176 22.6101C156.176 24.3232 155.473 25.5824 154.124 25.5824ZM165.994 17.6818H164.045V17.0234C164.045 16.3587 164.313 15.9688 165.112 15.9688C165.438 15.9688 165.771 16.0391 165.988 16.1094L166.467 14.0639C166.129 13.9616 165.381 13.7955 164.543 13.7955C162.696 13.7955 161.322 14.8374 161.322 16.9723V17.6818H159.935V19.7273H161.322V27.5H164.045V19.7273H165.994V17.6818ZM171.781 27.6918C174.21 27.6918 175.846 26.5092 176.23 24.6875L173.711 24.5213C173.436 25.2692 172.733 25.6591 171.826 25.6591C170.464 25.6591 169.601 24.7578 169.601 23.294V23.2876H176.287V22.5398C176.287 19.2031 174.267 17.554 171.672 17.554C168.783 17.554 166.91 19.6058 166.91 22.6357C166.91 25.7486 168.757 27.6918 171.781 27.6918ZM169.601 21.6001C169.659 20.4815 170.509 19.5866 171.717 19.5866C172.899 19.5866 173.718 20.4304 173.724 21.6001H169.601ZM182.539 27.6918C184.968 27.6918 186.604 26.5092 186.987 24.6875L184.469 24.5213C184.194 25.2692 183.491 25.6591 182.583 25.6591C181.222 25.6591 180.359 24.7578 180.359 23.294V23.2876H187.045V22.5398C187.045 19.2031 185.025 17.554 182.43 17.554C179.541 17.554 177.668 19.6058 177.668 22.6357C177.668 25.7486 179.515 27.6918 182.539 27.6918ZM180.359 21.6001C180.416 20.4815 181.267 19.5866 182.475 19.5866C183.657 19.5866 184.475 20.4304 184.482 21.6001H180.359Z" fill="#D49675"/>
</svg>
