<svg width="48" height="48" viewBox="0 0 48 48" fill="none" xmlns="http://www.w3.org/2000/svg">
<rect opacity="0.2" width="48" height="48" rx="8" fill="#9FA4A9"/>
<path fill-rule="evenodd" clip-rule="evenodd" d="M24 42.9473C34.4643 42.9473 42.9473 34.4643 42.9473 24C42.9473 13.5356 34.4643 5.05261 24 5.05261C13.5356 5.05261 5.05261 13.5356 5.05261 24C5.05261 34.4643 13.5356 42.9473 24 42.9473ZM22.0055 16.0221C22.0055 18.2252 20.2196 20.0111 18.0165 20.0111C15.8135 20.0111 14.0276 18.2252 14.0276 16.0221C14.0276 13.8191 15.8135 12.0332 18.0165 12.0332C20.2196 12.0332 22.0055 13.8191 22.0055 16.0221ZM32.975 21.0083C32.975 22.6606 31.6356 24 29.9833 24C28.3311 24 26.9916 22.6606 26.9916 21.0083C26.9916 19.356 28.3311 18.0166 29.9833 18.0166C31.6356 18.0166 32.975 19.356 32.975 21.0083ZM21.0083 35.9667C22.1098 35.9667 23.0027 35.0738 23.0027 33.9723C23.0027 32.8708 22.1098 31.9778 21.0083 31.9778C19.9068 31.9778 19.0138 32.8708 19.0138 33.9723C19.0138 35.0738 19.9068 35.9667 21.0083 35.9667Z" fill="#9FA4A9"/>
<g opacity="0.6">
<path d="M22.0054 16.0221C22.0054 18.2251 20.2195 20.011 18.0165 20.011C15.8135 20.011 14.0276 18.2251 14.0276 16.0221C14.0276 13.8191 15.8135 12.0332 18.0165 12.0332C20.2195 12.0332 22.0054 13.8191 22.0054 16.0221Z" fill="#9FA4A9"/>
<path d="M32.975 21.0083C32.975 22.6605 31.6356 24 29.9833 24C28.331 24 26.9916 22.6605 26.9916 21.0083C26.9916 19.356 28.331 18.0166 29.9833 18.0166C31.6356 18.0166 32.975 19.356 32.975 21.0083Z" fill="#9FA4A9"/>
<path d="M23.0027 33.9723C23.0027 35.0738 22.1098 35.9667 21.0083 35.9667C19.9067 35.9667 19.0138 35.0738 19.0138 33.9723C19.0138 32.8707 19.9067 31.9778 21.0083 31.9778C22.1098 31.9778 23.0027 32.8707 23.0027 33.9723Z" fill="#9FA4A9"/>
</g>
</svg>
