<svg width="200" height="41" viewBox="0 0 200 41" fill="none" xmlns="http://www.w3.org/2000/svg">
<g opacity="0.6">
<path d="M36.6533 23.7676C37.0741 23.9181 37.5275 24 38 24C40.2091 24 42 22.2091 42 20C42 17.7909 40.2091 16 38 16V17.9988C38 18.0096 38 18.0204 38 18.0311C38 18.0311 38 18.0311 38 18.0311C39.0873 18.0311 39.9689 18.9126 39.9689 20C39.9689 21.0874 39.0874 21.9689 38 21.9689C37.7948 21.9689 37.597 21.9375 37.411 21.8792C37.2071 22.5323 36.953 23.1633 36.6533 23.7676Z" fill="#D49675"/>
<path d="M37.3283 13.9339C31.9431 10.022 18.0569 10.022 12.6717 13.9339C12.2219 14.2607 12 14.7999 12 15.3558L12 18.0009C12 25.1806 17.8203 31 25 31C32.1797 31 38 25.1785 38 17.9988V15.3532C38 14.7972 37.7781 14.2607 37.3283 13.9339Z" fill="#D49675"/>
</g>
<ellipse cx="25" cy="15.0001" rx="11" ry="3.09677" fill="#D49675"/>
<path d="M48.4308 28H54.0238C56.9641 28 58.5302 26.4659 58.5302 24.3821C58.5302 22.4453 57.1431 21.2756 55.6538 21.2053V21.0774C57.0153 20.7706 58.0188 19.8054 58.0188 18.2649C58.0188 16.3026 56.5614 14.9091 53.6722 14.9091H48.4308V28ZM51.1985 25.7372V22.2599H53.5188C54.8484 22.2599 55.6729 23.027 55.6729 24.1072C55.6729 25.0916 55.0018 25.7372 53.4549 25.7372H51.1985ZM51.1985 20.3871V17.1463H53.3015C54.5288 17.1463 55.2255 17.7791 55.2255 18.7251C55.2255 19.7607 54.3817 20.3871 53.2504 20.3871H51.1985ZM66.5762 23.8196C66.5826 25.1364 65.6813 25.8267 64.7033 25.8267C63.6742 25.8267 63.0094 25.1044 63.003 23.9474V18.1818H60.28V24.4332C60.2864 26.728 61.6287 28.1278 63.6039 28.1278C65.0804 28.1278 66.1415 27.3672 66.5826 26.2166H66.6848V28H69.2992V18.1818H66.5762V23.8196ZM73.1584 31.6818C75.1847 31.6818 76.2585 30.6463 76.8146 29.0611L80.6307 18.1946L77.7479 18.1818L75.696 25.392H75.5938L73.5611 18.1818H70.6974L74.2195 28.2812L74.0597 28.6967C73.7017 29.6172 73.0178 29.6619 72.0589 29.3679L71.4453 31.4006C71.8352 31.5668 72.468 31.6818 73.1584 31.6818ZM86.1902 28H88.9132V22.1065C88.9132 21.0199 89.6035 20.2976 90.5112 20.2976C91.4061 20.2976 92.0069 20.9112 92.0069 21.8764V28H94.6468V22.0043C94.6468 20.9879 95.2285 20.2976 96.2193 20.2976C97.0886 20.2976 97.7406 20.8409 97.7406 21.9339V28H100.457V21.397C100.457 19.2685 99.1916 18.054 97.3635 18.054C95.9252 18.054 94.8066 18.7891 94.4039 19.9141H94.3017C93.9885 18.7763 92.9849 18.054 91.6362 18.054C90.313 18.054 89.3095 18.7571 88.9004 19.9141H88.7853V18.1818H86.1902V28ZM107.083 28.1918C109.512 28.1918 111.148 27.0092 111.531 25.1875L109.013 25.0213C108.738 25.7692 108.035 26.1591 107.127 26.1591C105.766 26.1591 104.903 25.2578 104.903 23.794V23.7876H111.589V23.0398C111.589 19.7031 109.569 18.054 106.974 18.054C104.085 18.054 102.212 20.1058 102.212 23.1357C102.212 26.2486 104.059 28.1918 107.083 28.1918ZM104.903 22.1001C104.96 20.9815 105.811 20.0866 107.019 20.0866C108.201 20.0866 109.019 20.9304 109.026 22.1001H104.903ZM120.332 28.1854C121.783 28.1854 122.722 27.5526 123.202 26.6385H123.278V28H125.861V21.3778C125.861 19.0384 123.879 18.054 121.693 18.054C119.341 18.054 117.794 19.179 117.417 20.9688L119.935 21.1733C120.121 20.5213 120.702 20.0419 121.68 20.0419C122.607 20.0419 123.138 20.5085 123.138 21.3139V21.3523C123.138 21.9851 122.467 22.0682 120.76 22.2344C118.817 22.4134 117.072 23.0653 117.072 25.2578C117.072 27.201 118.459 28.1854 120.332 28.1854ZM121.112 26.3061C120.274 26.3061 119.673 25.9162 119.673 25.1683C119.673 24.4013 120.306 24.0241 121.265 23.8899C121.859 23.8068 122.831 23.6662 123.157 23.4489V24.4908C123.157 25.5199 122.307 26.3061 121.112 26.3061ZM136.575 28.1918C139.19 28.1918 140.833 26.6577 140.96 24.4013H138.391C138.231 25.4496 137.541 26.0376 136.607 26.0376C135.335 26.0376 134.511 24.9702 134.511 23.0909C134.511 21.2372 135.342 20.1761 136.607 20.1761C137.605 20.1761 138.244 20.8345 138.391 21.8125H140.96C140.845 19.5433 139.126 18.054 136.563 18.054C133.584 18.054 131.743 20.1186 131.743 23.1293C131.743 26.1143 133.552 28.1918 136.575 28.1918ZM147.14 28.1918C150.119 28.1918 151.972 26.1527 151.972 23.1293C151.972 20.0866 150.119 18.054 147.14 18.054C144.161 18.054 142.308 20.0866 142.308 23.1293C142.308 26.1527 144.161 28.1918 147.14 28.1918ZM147.153 26.0824C145.778 26.0824 145.075 24.8232 145.075 23.1101C145.075 21.397 145.778 20.1314 147.153 20.1314C148.501 20.1314 149.205 21.397 149.205 23.1101C149.205 24.8232 148.501 26.0824 147.153 26.0824ZM159.023 18.1818H157.073V17.5234C157.073 16.8587 157.342 16.4688 158.141 16.4688C158.467 16.4688 158.799 16.5391 159.016 16.6094L159.496 14.5639C159.157 14.4616 158.409 14.2955 157.572 14.2955C155.724 14.2955 154.35 15.3374 154.35 17.4723V18.1818H152.963V20.2273H154.35V28H157.073V20.2273H159.023V18.1818ZM165.966 18.1818H164.017V17.5234C164.017 16.8587 164.285 16.4688 165.084 16.4688C165.41 16.4688 165.742 16.5391 165.96 16.6094L166.439 14.5639C166.1 14.4616 165.352 14.2955 164.515 14.2955C162.668 14.2955 161.294 15.3374 161.294 17.4723V18.1818H159.906V20.2273H161.294V28H164.017V20.2273H165.966V18.1818ZM171.752 28.1918C174.181 28.1918 175.818 27.0092 176.201 25.1875L173.683 25.0213C173.408 25.7692 172.705 26.1591 171.797 26.1591C170.436 26.1591 169.573 25.2578 169.573 23.794V23.7876H176.259V23.0398C176.259 19.7031 174.239 18.054 171.644 18.054C168.755 18.054 166.882 20.1058 166.882 23.1357C166.882 26.2486 168.729 28.1918 171.752 28.1918ZM169.573 22.1001C169.63 20.9815 170.48 20.0866 171.689 20.0866C172.871 20.0866 173.689 20.9304 173.696 22.1001H169.573ZM182.51 28.1918C184.939 28.1918 186.576 27.0092 186.959 25.1875L184.441 25.0213C184.166 25.7692 183.463 26.1591 182.555 26.1591C181.194 26.1591 180.331 25.2578 180.331 23.794V23.7876H187.017V23.0398C187.017 19.7031 184.997 18.054 182.402 18.054C179.512 18.054 177.64 20.1058 177.64 23.1357C177.64 26.2486 179.487 28.1918 182.51 28.1918ZM180.331 22.1001C180.388 20.9815 181.238 20.0866 182.446 20.0866C183.629 20.0866 184.447 20.9304 184.453 22.1001H180.331Z" fill="#D49675"/>
</svg>
