<svg width="48" height="48" viewBox="0 0 48 48" fill="none" xmlns="http://www.w3.org/2000/svg">
<rect opacity="0.2" width="48" height="48" rx="8" fill="#9FA4A9"/>
<path fill-rule="evenodd" clip-rule="evenodd" d="M38.8692 11.9545C37.151 10.2721 34.3652 10.2721 32.647 11.9545L14.4248 29.7971C13.9339 30.2778 13.9339 31.0572 14.4248 31.5379C14.9157 32.0185 15.7117 32.0185 16.2026 31.5379L33.5359 14.5656C34.2723 13.8446 35.4662 13.8446 36.2026 14.5656C36.9389 15.2866 36.9389 16.4557 36.2026 17.1767L18.8692 34.149C16.9056 36.0717 13.7218 36.0717 11.7581 34.149C9.79447 32.2262 9.79447 29.1088 11.7581 27.186L29.9803 9.34338C33.1713 6.21887 38.3449 6.21887 41.5359 9.34338C44.7269 12.4679 44.7269 17.5337 41.5359 20.6582L23.3137 38.5008C18.8954 42.8271 11.732 42.8271 7.3137 38.5008C2.89543 34.1746 2.89543 27.1604 7.3137 22.8341L22.8692 7.60264C23.6056 6.8816 24.7995 6.8816 25.5359 7.60264C26.2723 8.32367 26.2723 9.49271 25.5359 10.2137L9.98037 25.4453C7.03485 28.3294 7.03485 33.0056 9.98037 35.8897C12.9259 38.7739 17.7015 38.7739 20.647 35.8897L38.8692 18.0471C40.5874 16.3647 40.5874 13.6369 38.8692 11.9545Z" fill="#9FA4A9"/>
</svg>
