<svg width="48" height="48" viewBox="0 0 48 48" fill="none" xmlns="http://www.w3.org/2000/svg">
<g id="biz-money/tag" clip-path="url(#clip0_45:396)">
<g id="Group 30">
<circle id="Ellipse 46" opacity="0.2" cx="37.6035" cy="9.46628" r="3.13725" transform="rotate(45 37.6035 9.46628)" fill="black"/>
<path id="Subtract" fill-rule="evenodd" clip-rule="evenodd" d="M21.9498 5.15424C23.4501 3.65395 25.4849 2.81109 27.6066 2.81109L40.2582 2.81109C42.4674 2.81109 44.2582 4.60195 44.2582 6.81109L44.2582 19.4627C44.2582 21.5844 43.4154 23.6193 41.9151 25.1196L23.7938 43.2409C22.2317 44.803 19.699 44.803 18.1369 43.2409L3.82845 28.9324C2.26635 27.3703 2.26635 24.8376 3.82845 23.2756L21.9498 5.15424ZM39.8216 11.6846C38.5965 12.9097 36.6101 12.9097 35.3849 11.6846C34.1597 10.4594 34.1597 8.473 35.3849 7.24783C36.6101 6.02266 38.5965 6.02266 39.8216 7.24783C41.0468 8.473 41.0468 10.4594 39.8216 11.6846ZM25.1216 12.7071C25.5121 12.3166 25.5121 11.6834 25.1216 11.2929C24.731 10.9024 24.0979 10.9024 23.7073 11.2929L10.7073 24.2929C10.3168 24.6834 10.3168 25.3166 10.7073 25.7071C11.0979 26.0976 11.731 26.0976 12.1216 25.7071L25.1216 12.7071ZM23.1216 22.7071C23.5121 22.3166 23.5121 21.6834 23.1216 21.2929C22.731 20.9024 22.0979 20.9024 21.7073 21.2929L14.7073 28.2929C14.3168 28.6834 14.3168 29.3166 14.7073 29.7071C15.0979 30.0976 15.731 30.0976 16.1216 29.7071L23.1216 22.7071Z" fill="black"/>
</g>
<g id="Vector" opacity="0.2">
<path fill-rule="evenodd" clip-rule="evenodd" d="M25.1217 11.2929C25.5122 11.6834 25.5122 12.3166 25.1217 12.7071L12.1217 25.7071C11.7311 26.0976 11.098 26.0976 10.7074 25.7071C10.3169 25.3166 10.3169 24.6834 10.7074 24.2929L23.7074 11.2929C24.098 10.9024 24.7311 10.9024 25.1217 11.2929Z" fill="black"/>
<path fill-rule="evenodd" clip-rule="evenodd" d="M23.1217 21.2929C23.5122 21.6834 23.5122 22.3166 23.1217 22.7071L16.1217 29.7071C15.7311 30.0976 15.098 30.0976 14.7074 29.7071C14.3169 29.3166 14.3169 28.6834 14.7074 28.2929L21.7074 21.2929C22.098 20.9024 22.7311 20.9024 23.1217 21.2929Z" fill="black"/>
</g>
</g>
<defs>
<clipPath id="clip0_45:396">
<rect width="48" height="48" fill="white"/>
</clipPath>
</defs>
</svg>
