<svg width="48" height="48" viewBox="0 0 48 48" fill="none" xmlns="http://www.w3.org/2000/svg">
<g id="shapes/filled-nobg-star8">
<path id="Star 1" d="M22.1414 10.6766C22.928 8.69731 23.3213 7.70764 24 7.70764C24.6787 7.70764 25.072 8.69731 25.8586 10.6766L26.8905 13.2732C27.248 14.1727 27.4268 14.6225 27.8173 14.7843C28.2078 14.946 28.6522 14.7544 29.5411 14.3711L32.1068 13.2647C34.0626 12.4214 35.0406 11.9997 35.5204 12.4796C36.0003 12.9594 35.5786 13.9374 34.7353 15.8932L33.6289 18.4589C33.2456 19.3478 33.054 19.7922 33.2157 20.1827C33.3775 20.5732 33.8273 20.752 34.7268 21.1095L37.3234 22.1414C39.3027 22.928 40.2924 23.3213 40.2924 24C40.2924 24.6787 39.3027 25.072 37.3234 25.8586L34.7268 26.8905C33.8273 27.248 33.3775 27.4268 33.2157 27.8173C33.054 28.2078 33.2456 28.6522 33.6289 29.5411L34.7353 32.1068C35.5786 34.0626 36.0003 35.0406 35.5204 35.5204C35.0406 36.0003 34.0626 35.5786 32.1068 34.7353L29.5411 33.6289C28.6522 33.2456 28.2078 33.054 27.8173 33.2157C27.4268 33.3775 27.248 33.8273 26.8905 34.7268L25.8586 37.3234C25.072 39.3027 24.6787 40.2924 24 40.2924C23.3213 40.2924 22.928 39.3027 22.1414 37.3234L21.1095 34.7268C20.752 33.8273 20.5732 33.3775 20.1827 33.2157C19.7922 33.054 19.3478 33.2456 18.4589 33.6289L15.8932 34.7353C13.9374 35.5786 12.9594 36.0003 12.4796 35.5204C11.9997 35.0406 12.4214 34.0626 13.2647 32.1068L14.3711 29.5411C14.7544 28.6522 14.946 28.2078 14.7843 27.8173C14.6225 27.4268 14.1727 27.248 13.2732 26.8905L10.6766 25.8586C8.69731 25.072 7.70764 24.6787 7.70764 24C7.70764 23.3213 8.69731 22.928 10.6766 22.1414L13.2732 21.1095C14.1727 20.752 14.6225 20.5732 14.7843 20.1827C14.946 19.7922 14.7544 19.3478 14.3711 18.4589L13.2647 15.8932C12.4214 13.9374 11.9997 12.9594 12.4796 12.4796C12.9594 11.9997 13.9374 12.4214 15.8932 13.2647L18.4589 14.3711C19.3478 14.7544 19.7922 14.946 20.1827 14.7843C20.5732 14.6225 20.752 14.1727 21.1095 13.2732L22.1414 10.6766Z" fill="black"/>
</g>
</svg>
