<svg width="48" height="48" viewBox="0 0 48 48" fill="none" xmlns="http://www.w3.org/2000/svg">
<g id="shapes/filled-nobg-octagon">
<path id="Polygon 1" d="M22.4693 7.63405C23.2245 7.32121 23.6022 7.16478 24 7.16478C24.3978 7.16478 24.7755 7.32121 25.5307 7.63405L34.4901 11.3451C35.2454 11.658 35.623 11.8144 35.9043 12.0957C36.1856 12.377 36.342 12.7546 36.6549 13.5099L40.3659 22.4693C40.6788 23.2245 40.8352 23.6022 40.8352 24C40.8352 24.3978 40.6788 24.7755 40.3659 25.5307L36.6549 34.4901C36.342 35.2454 36.1856 35.623 35.9043 35.9043C35.623 36.1856 35.2454 36.342 34.4901 36.6549L25.5307 40.3659C24.7755 40.6788 24.3978 40.8352 24 40.8352C23.6022 40.8352 23.2245 40.6788 22.4693 40.3659L13.5099 36.6549C12.7546 36.342 12.377 36.1856 12.0957 35.9043C11.8144 35.623 11.658 35.2454 11.3451 34.4901L7.63405 25.5307C7.32121 24.7755 7.16478 24.3978 7.16478 24C7.16478 23.6022 7.32121 23.2245 7.63405 22.4693L11.3451 13.5099C11.658 12.7546 11.8144 12.377 12.0957 12.0957C12.377 11.8144 12.7546 11.658 13.5099 11.3451L22.4693 7.63405Z" fill="black"/>
</g>
</svg>
