<svg width="48" height="48" viewBox="0 0 48 48" fill="none" xmlns="http://www.w3.org/2000/svg">
<g id="shapes/filled-nobg-star5">
<path id="Star 1" d="M22.2441 9.21958C23.0189 7.79891 23.4063 7.08858 24 7.08858C24.5937 7.08858 24.9811 7.79891 25.7559 9.21957L29.1529 15.4485C29.3763 15.8582 29.4881 16.063 29.6703 16.1955C29.8526 16.3279 30.0819 16.3708 30.5406 16.4567L37.5144 17.7627C39.105 18.0605 39.9003 18.2095 40.0837 18.7741C40.2672 19.3387 39.7113 19.9266 38.5996 21.1025L33.7253 26.2581C33.4047 26.5972 33.2444 26.7668 33.1748 26.9811C33.1052 27.1953 33.1352 27.4267 33.1952 27.8895L34.1082 34.9255C34.3165 36.5303 34.4206 37.3327 33.9403 37.6816C33.46 38.0306 32.7291 37.6836 31.2672 36.9897L24.8577 33.9471C24.4361 33.747 24.2253 33.6469 24 33.6469C23.7747 33.6469 23.5639 33.747 23.1423 33.9471L16.7328 36.9897C15.2709 37.6836 14.54 38.0306 14.0597 37.6816C13.5794 37.3327 13.6835 36.5303 13.8918 34.9256L14.8048 27.8895C14.8648 27.4267 14.8948 27.1953 14.8252 26.9811C14.7556 26.7668 14.5953 26.5972 14.2747 26.2581L9.40039 21.1025C8.28868 19.9266 7.73283 19.3387 7.91628 18.7741C8.09974 18.2095 8.89502 18.0605 10.4856 17.7627L17.4594 16.4567C17.9181 16.3708 18.1474 16.3279 18.3297 16.1955C18.5119 16.063 18.6237 15.8582 18.8471 15.4485L22.2441 9.21958Z" fill="black"/>
</g>
</svg>
