<svg width="48" height="48" viewBox="0 0 48 48" fill="none" xmlns="http://www.w3.org/2000/svg">
<g id="shapes/outline-nobg-octagon_alt">
<path id="Polygon 1" d="M27.091 38.4895C25.2464 38.4854 22.9763 38.4823 20.937 38.4849C20.0014 38.486 19.3768 38.4859 18.8917 38.4525C18.4226 38.4201 18.19 38.3615 18.0311 38.2953C17.8794 38.2322 17.6674 38.1047 17.2897 37.7713C16.9038 37.4309 16.4349 36.9587 15.7408 36.2582C14.3864 34.8912 12.8101 33.3437 11.529 32.0963C10.2075 30.8096 9.87709 30.4486 9.70832 30.0479C9.53953 29.6471 9.5122 29.1594 9.51498 27.3173C9.51815 25.2148 9.51492 22.8316 9.51066 20.9099C9.50861 19.9855 9.50813 19.3702 9.54113 18.8915C9.57294 18.4301 9.63103 18.1989 9.69795 18.0379C9.76152 17.885 9.88868 17.6736 10.2193 17.2987C10.5576 16.915 11.0265 16.4494 11.7233 15.7592C13.0949 14.4006 14.6507 12.8159 15.9037 11.5291C17.1905 10.2075 17.5514 9.87709 17.9521 9.70832C18.3529 9.53953 18.8406 9.5122 20.6827 9.51498C22.7853 9.51815 25.1684 9.51492 27.0901 9.51066C28.0145 9.50861 28.6298 9.50813 29.1086 9.54113C29.5699 9.57294 29.8011 9.63102 29.9621 9.69795C30.115 9.76152 30.3264 9.88868 30.7013 10.2193C31.085 10.5576 31.5506 11.0265 32.2408 11.7233C33.5994 13.0949 35.1841 14.6507 36.471 15.9037C37.7925 17.1905 38.1229 17.5514 38.2917 17.9521C38.4605 18.3529 38.4878 18.8406 38.485 20.6827C38.4817 22.8793 38.4854 25.3822 38.4899 27.3452C38.4941 29.1611 38.4674 29.6391 38.2983 30.0411C38.1293 30.4426 37.8021 30.8003 36.4891 32.0787C35.1989 33.3348 33.6054 34.8991 32.2401 36.2775C31.5502 36.974 31.0848 37.4428 30.7013 37.7809C30.3265 38.1114 30.1151 38.2385 29.9622 38.3021C29.8011 38.3691 29.57 38.4271 29.1088 38.459C28.6302 38.492 28.0152 38.4915 27.091 38.4895Z" stroke="black" stroke-width="3"/>
</g>
</svg>
