<svg width="48" height="48" viewBox="0 0 48 48" fill="none" xmlns="http://www.w3.org/2000/svg">
<g id="shapes/outline-nobg-star8">
<path id="Star 1" d="M24.4646 11.2306L25.4966 13.8272C25.5052 13.8489 25.5138 13.8706 25.5225 13.8925C25.6781 14.2843 25.8456 14.7062 26.0349 15.0421C26.2562 15.4346 26.6133 15.9091 27.2433 16.1701C27.8733 16.431 28.4613 16.348 28.8953 16.2269C29.2667 16.1233 29.6834 15.9434 30.0704 15.7764C30.092 15.767 30.1136 15.7577 30.135 15.7485L32.7008 14.6421C33.1555 14.446 33.5301 14.2853 33.8429 14.1571C33.7147 14.4699 33.554 14.8445 33.3579 15.2992L32.2515 17.865C32.2423 17.8864 32.233 17.908 32.2236 17.9296C32.0566 18.3166 31.8767 18.7333 31.7731 19.1047C31.652 19.5387 31.569 20.1267 31.8299 20.7567C32.0909 21.3867 32.5654 21.7438 32.9579 21.9651C33.2937 22.1544 33.7156 22.3219 34.1074 22.4774C34.1293 22.4861 34.1511 22.4948 34.1728 22.5034L36.7694 23.5354C37.2296 23.7183 37.6081 23.8694 37.92 24C37.6081 24.1306 37.2296 24.2817 36.7694 24.4646L34.1728 25.4966C34.1511 25.5052 34.1293 25.5138 34.1075 25.5225C33.7157 25.6781 33.2938 25.8456 32.9579 26.0349C32.5654 26.2562 32.0909 26.6133 31.8299 27.2433C31.569 27.8733 31.652 28.4613 31.7731 28.8953C31.8767 29.2667 32.0566 29.6834 32.2236 30.0704C32.233 30.092 32.2423 30.1136 32.2515 30.135L33.3579 32.7008C33.554 33.1555 33.7147 33.5301 33.8429 33.8429C33.5301 33.7147 33.1555 33.554 32.7008 33.3579L30.135 32.2515C30.1136 32.2423 30.092 32.233 30.0704 32.2236C29.6834 32.0566 29.2667 31.8767 28.8953 31.7731C28.4613 31.652 27.8733 31.569 27.2433 31.8299C26.6133 32.0909 26.2562 32.5654 26.0349 32.9579C25.8456 33.2937 25.6781 33.7156 25.5226 34.1074C25.5139 34.1293 25.5052 34.1511 25.4966 34.1728L24.4646 36.7694C24.2817 37.2296 24.1306 37.6081 24 37.92C23.8694 37.6081 23.7183 37.2296 23.5353 36.7694L22.5034 34.1728C22.4948 34.1511 22.4861 34.1293 22.4774 34.1074C22.3219 33.7156 22.1544 33.2937 21.9651 32.9579C21.7438 32.5654 21.3867 32.0909 20.7567 31.8299C20.1267 31.569 19.5387 31.652 19.1047 31.7731C18.7333 31.8767 18.3166 32.0566 17.9296 32.2236C17.908 32.233 17.8864 32.2423 17.865 32.2515L15.2992 33.3579C14.8445 33.554 14.4699 33.7147 14.1571 33.8429C14.2853 33.5301 14.446 33.1555 14.6421 32.7008L15.7485 30.135C15.7577 30.1136 15.767 30.092 15.7764 30.0704C15.9434 29.6834 16.1233 29.2667 16.2269 28.8953C16.348 28.4613 16.431 27.8733 16.1701 27.2433C15.9091 26.6133 15.4346 26.2562 15.0421 26.0349C14.7063 25.8456 14.2844 25.6781 13.8926 25.5226C13.8707 25.5139 13.8489 25.5052 13.8272 25.4966L11.2306 24.4646C10.7704 24.2817 10.3919 24.1306 10.08 24C10.3919 23.8694 10.7704 23.7183 11.2306 23.5353L13.8272 22.5034C13.8489 22.4948 13.8707 22.4861 13.8926 22.4774C14.2844 22.3219 14.7063 22.1544 15.0421 21.9651C15.4346 21.7438 15.9091 21.3867 16.1701 20.7567C16.431 20.1267 16.348 19.5387 16.2269 19.1047C16.1233 18.7333 15.9434 18.3166 15.7764 17.9296C15.767 17.9079 15.7577 17.8864 15.7485 17.865L14.6421 15.2992C14.446 14.8445 14.2853 14.4699 14.1571 14.1571C14.4699 14.2853 14.8445 14.446 15.2992 14.6421L17.865 15.7485C17.8864 15.7577 17.9079 15.767 17.9296 15.7764C18.3166 15.9434 18.7333 16.1233 19.1047 16.2269C19.5387 16.348 20.1267 16.431 20.7567 16.1701C21.3867 15.9091 21.7438 15.4346 21.9651 15.0421C22.1544 14.7063 22.3219 14.2844 22.4774 13.8926C22.4861 13.8707 22.4948 13.8489 22.5034 13.8272L23.5354 11.2306C23.7183 10.7704 23.8694 10.3919 24 10.08C24.1306 10.3919 24.2817 10.7704 24.4646 11.2306Z" stroke="black" stroke-width="3"/>
</g>
</svg>
