<svg width="48" height="48" viewBox="0 0 48 48" fill="none" xmlns="http://www.w3.org/2000/svg">
<g id="shapes/outline-nobg-heart">
<path id="Vector" d="M9.5 18.552C9.5 14.6158 12.6066 11.5 16.4706 11.5C18.7017 11.5 20.2284 12.359 21.423 13.4044C21.4391 13.4184 21.455 13.4323 21.471 13.4463C21.8337 13.7637 22.1869 14.0729 22.4994 14.2948C22.8146 14.5186 23.3307 14.8372 24 14.8372C24.6693 14.8372 25.1854 14.5186 25.5006 14.2948C25.8131 14.0729 26.1664 13.7637 26.529 13.4463C26.545 13.4323 26.561 13.4183 26.577 13.4044C27.7716 12.359 29.2983 11.5 31.5294 11.5C35.3934 11.5 38.5 14.6158 38.5 18.552C38.5 22.0072 36.615 25.0822 33.7815 27.9806C31.6243 30.1871 29.0813 32.1362 26.6577 33.9939C25.8782 34.5914 25.111 35.1794 24.373 35.7634C24.2223 35.8827 24.1035 35.9766 24 36.0555C23.8965 35.9766 23.7777 35.8827 23.627 35.7634C22.889 35.1794 22.1218 34.5913 21.3423 33.9939C18.9187 32.1362 16.3757 30.1871 14.2185 27.9806C11.385 25.0822 9.5 22.0072 9.5 18.552Z" stroke="black" stroke-width="3"/>
</g>
</svg>
