<svg width="48" height="48" viewBox="0 0 48 48" fill="none" xmlns="http://www.w3.org/2000/svg">
<g id="shapes/outline-nobg-hexagon">
<path id="Polygon 1" d="M25.25 9.45374L35.9724 15.6443C36.4857 15.9407 36.7765 16.1105 36.9802 16.2565C37.0715 16.3219 37.1165 16.3629 37.1379 16.3846C37.1479 16.3948 37.1524 16.4005 37.1537 16.4022L37.1554 16.4047L37.1567 16.4074C37.1576 16.4094 37.1602 16.4162 37.1641 16.43C37.1722 16.4593 37.1852 16.5188 37.1962 16.6306C37.2208 16.8799 37.2224 17.2167 37.2224 17.8094V30.1906C37.2224 30.7833 37.2208 31.1201 37.1962 31.3694C37.1852 31.4812 37.1722 31.5407 37.1641 31.57C37.1602 31.5838 37.1576 31.5906 37.1567 31.5926L37.1554 31.5953L37.1537 31.5978C37.1524 31.5995 37.1479 31.6052 37.1379 31.6154C37.1165 31.6371 37.0715 31.6781 36.9802 31.7435C36.7765 31.8895 36.4857 32.0593 35.9724 32.3557L25.25 38.5463C24.7367 38.8426 24.4442 39.0095 24.216 39.1129C24.1137 39.1593 24.0557 39.1778 24.0262 39.1854C24.0124 39.189 24.0052 39.1901 24.003 39.1904L24 39.1906L23.997 39.1904C23.9948 39.1901 23.9876 39.189 23.9738 39.1854C23.9443 39.1778 23.8863 39.1593 23.784 39.1129C23.5558 39.0095 23.2633 38.8426 22.75 38.5463L12.0276 32.3557C11.5143 32.0593 11.2235 31.8895 11.0198 31.7435C10.9285 31.6781 10.8835 31.6371 10.8621 31.6154C10.8521 31.6052 10.8476 31.5995 10.8463 31.5978L10.8446 31.5953L10.8433 31.5926C10.8424 31.5906 10.8397 31.5838 10.8359 31.57C10.8278 31.5407 10.8148 31.4812 10.8038 31.3694C10.7792 31.1201 10.7776 30.7833 10.7776 30.1906V17.8094C10.7776 17.2167 10.7792 16.8799 10.8038 16.6306C10.8148 16.5188 10.8278 16.4593 10.8359 16.43C10.8397 16.4162 10.8424 16.4094 10.8433 16.4074L10.8446 16.4047L10.8463 16.4022C10.8476 16.4005 10.8521 16.3948 10.8621 16.3846C10.8835 16.3629 10.9285 16.3219 11.0198 16.2565C11.2235 16.1105 11.5143 15.9407 12.0276 15.6443L22.75 9.45374C23.2633 9.15738 23.5558 8.99046 23.784 8.88707C23.8863 8.84074 23.9443 8.82219 23.9738 8.81457C23.9876 8.811 23.9948 8.80993 23.997 8.80964L24 8.8094L24.003 8.80964C24.0052 8.80993 24.0124 8.811 24.0262 8.81457C24.0557 8.82219 24.1137 8.84074 24.216 8.88707C24.4442 8.99046 24.7367 9.15738 25.25 9.45374Z" stroke="black" stroke-width="3"/>
</g>
</svg>
