<svg width="48" height="48" viewBox="0 0 48 48" fill="none" xmlns="http://www.w3.org/2000/svg">
<g id="weeks/11">
<rect id="Rectangle 1" opacity="0.2" x="5" y="5" width="38" height="38" rx="4" fill="black"/>
<path id="Rectangle 2" d="M5 13C5 9.22876 5 7.34315 6.17157 6.17157C7.34315 5 9.22876 5 13 5H35C38.7712 5 40.6569 5 41.8284 6.17157C43 7.34315 43 9.22876 43 13V15H5V13Z" fill="black"/>
<path id="11" d="M21.2663 20.5455H17.7976L13.4766 23.2812V26.554L17.4737 24.0483H17.576V38H21.2663V20.5455ZM33.0085 20.5455H29.5398L25.2188 23.2812V26.554L29.2159 24.0483H29.3182V38H33.0085V20.5455Z" fill="black"/>
</g>
</svg>
