<svg width="48" height="48" viewBox="0 0 48 48" fill="none" xmlns="http://www.w3.org/2000/svg">
<g id="weeks/17">
<rect id="Rectangle 1" opacity="0.2" x="5" y="5" width="38" height="38" rx="4" fill="black"/>
<path id="Rectangle 2" d="M5 13C5 9.22876 5 7.34315 6.17157 6.17157C7.34315 5 9.22876 5 13 5H35C38.7712 5 40.6569 5 41.8284 6.17157C43 7.34315 43 9.22876 43 13V15H5V13Z" fill="black"/>
<path id="17" d="M20.0007 20.5455H16.532L12.2109 23.2812V26.554L16.2081 24.0483H16.3104V38H20.0007V20.5455ZM24.8395 38H28.6491L35.8935 23.6051V20.5455H23.6463V23.5625H32.0753V23.6818L24.8395 38Z" fill="black"/>
</g>
</svg>
