<svg width="48" height="48" viewBox="0 0 48 48" fill="none" xmlns="http://www.w3.org/2000/svg">
<g id="date-events/add-date">
<rect id="Rectangle 1" opacity="0.2" x="5" y="5" width="38" height="38" rx="4" fill="black"/>
<path id="Rectangle 2" d="M5 13C5 9.22876 5 7.34315 6.17157 6.17157C7.34315 5 9.22876 5 13 5H35C38.7712 5 40.6569 5 41.8284 6.17157C43 7.34315 43 9.22876 43 13V15H5V13Z" fill="black"/>
<g id="Group 7">
<path id="Subtract" fill-rule="evenodd" clip-rule="evenodd" d="M39 48C43.9706 48 48 43.9706 48 39C48 34.0294 43.9706 30 39 30C34.0294 30 30 34.0294 30 39C30 43.9706 34.0294 48 39 48ZM40.4999 34.05C40.4999 33.2216 39.8284 32.55 38.9999 32.55C38.1715 32.55 37.4999 33.2216 37.4999 34.05V37.5H34.0499C33.2215 37.5 32.5499 38.1716 32.5499 39C32.5499 39.8284 33.2215 40.5 34.0499 40.5H37.4999V43.95C37.4999 44.7784 38.1715 45.45 38.9999 45.45C39.8284 45.45 40.4999 44.7784 40.4999 43.95V40.5H43.9499C44.7784 40.5 45.4499 39.8284 45.4499 39C45.4499 38.1716 44.7784 37.5 43.9499 37.5H40.4999V34.05Z" fill="black"/>
</g>
<path id="Subtract_2" opacity="0.2" fill-rule="evenodd" clip-rule="evenodd" d="M37.5 42.9815V43.95C37.5 44.7784 38.1716 45.45 39 45.45C39.8284 45.45 40.5 44.7784 40.5 43.95V42.6145C39.7412 42.86 38.7744 42.9491 37.5 42.9815ZM42.6146 40.5H43.95C44.7784 40.5 45.45 39.8284 45.45 39C45.45 38.1716 44.7784 37.5 43.95 37.5H42.9816C42.9492 38.7744 42.86 39.7412 42.6146 40.5Z" fill="black"/>
</g>
</svg>
