<svg width="48" height="48" viewBox="0 0 48 48" fill="none" xmlns="http://www.w3.org/2000/svg">
<rect opacity="0.2" x="5" y="5" width="38" height="38" rx="4" fill="black"/>
<path fill-rule="evenodd" clip-rule="evenodd" d="M30.9702 32.2132C30.9702 33.8701 29.627 35.2132 27.9702 35.2132L16.6565 35.2132C14.9996 35.2132 13.6565 33.8701 13.6565 32.2132V20.8995C13.6565 19.2427 14.9996 17.8995 16.6565 17.8995C18.3133 17.8995 19.6565 19.2427 19.6565 20.8995V24.9706L30.0915 14.5355C31.2631 13.364 33.1626 13.364 34.3341 14.5355C35.5057 15.7071 35.5057 17.6066 34.3341 18.7782L23.8991 29.2132L27.9702 29.2132C29.627 29.2132 30.9702 30.5564 30.9702 32.2132Z" fill="black"/>
</svg>
