<svg xmlns="http://www.w3.org/2000/svg" width="48" height="48" fill="none" viewBox="0 0 48 48">
  <g clip-path="url(#clip0_37:541)">
    <path fill="#000" d="M14.808 40.264a2 2 0 01-2.829 0L7.737 36.02a2 2 0 010-2.828l16.97-16.971a2 2 0 012.829 0l4.242 4.242a2 2 0 010 2.829l-16.97 16.97z" opacity=".8"/>
    <path fill="#000" d="M38.142 33.314V11.858a2 2 0 00-2-2H14.686a2 2 0 00-2 2v5.9a2 2 0 002 2h11.557a2 2 0 012 2v11.556a2 2 0 002 2h5.9a2 2 0 002-2z"/>
  </g>
  <defs>
    <clipPath id="clip0_37:541">
      <path fill="#fff" d="M0 0h48v48H0z"/>
    </clipPath>
  </defs>
</svg>
