<svg width="48" height="48" viewBox="0 0 48 48" fill="none" xmlns="http://www.w3.org/2000/svg">
<rect opacity="0.2" x="5" y="5" width="38" height="38" rx="4" fill="black"/>
<path fill-rule="evenodd" clip-rule="evenodd" d="M16.6571 30.9707C15.0003 30.9707 13.6571 29.6275 13.6571 27.9707L13.6571 16.657C13.6571 15.0001 15.0003 13.657 16.6571 13.6569L27.9709 13.6569C29.6277 13.6569 30.9709 15.0001 30.9709 16.6569C30.9709 18.3138 29.6277 19.6569 27.9709 19.6569L23.8998 19.6569L34.3348 30.092C35.5064 31.2636 35.5064 33.163 34.3348 34.3346C33.1632 35.5062 31.2637 35.5062 30.0922 34.3346L19.6571 23.8996L19.6571 27.9707C19.6571 29.6275 18.314 30.9707 16.6571 30.9707Z" fill="black"/>
</svg>
