<svg width="48" height="48" viewBox="0 0 48 48" fill="none" xmlns="http://www.w3.org/2000/svg">
<rect opacity="0.2" x="5" y="5" width="38" height="38" rx="4" fill="black"/>
<path fill-rule="evenodd" clip-rule="evenodd" d="M34.1213 24.8787C35.2929 26.0503 35.2929 27.9497 34.1213 29.1213L26.1213 37.1213C24.9497 38.2929 23.0503 38.2929 21.8787 37.1213L13.8787 29.1213C12.7071 27.9497 12.7071 26.0503 13.8787 24.8787C15.0503 23.7071 16.9497 23.7071 18.1213 24.8787L21 27.7574L21 13C21 11.3431 22.3431 10 24 10C25.6569 10 27 11.3431 27 13L27 27.7574L29.8787 24.8787C31.0503 23.7071 32.9497 23.7071 34.1213 24.8787Z" fill="black"/>
</svg>
