<svg width="48" height="48" viewBox="0 0 48 48" fill="none" xmlns="http://www.w3.org/2000/svg">
<g id="date-events/birthday">
<rect id="Rectangle 37" opacity="0.2" x="5" y="5" width="38" height="38" rx="4" fill="black"/>
<path id="Rectangle 116" d="M5 30L7.42166 28.9804C8.57 28.4968 9.14418 28.2551 9.75 28.2551C10.3558 28.2551 10.93 28.4968 12.0783 28.9804L12.1717 29.0196C13.32 29.5032 13.8942 29.7449 14.5 29.7449C15.1058 29.7449 15.68 29.5032 16.8283 29.0196L16.9217 28.9804C18.07 28.4968 18.6442 28.2551 19.25 28.2551C19.8558 28.2551 20.43 28.4968 21.5783 28.9804L21.6717 29.0196C22.82 29.5032 23.3942 29.7449 24 29.7449C24.6058 29.7449 25.18 29.5032 26.3283 29.0196L26.4217 28.9804C27.57 28.4968 28.1442 28.2551 28.75 28.2551C29.3558 28.2551 29.93 28.4968 31.0783 28.9804L31.1717 29.0196C32.32 29.5032 32.8942 29.7449 33.5 29.7449C34.1058 29.7449 34.68 29.5032 35.8283 29.0196L35.9217 28.9804C37.07 28.4968 37.6442 28.2551 38.25 28.2551C38.8558 28.2551 39.43 28.4968 40.5783 28.9804L43 30V23C43 19.2288 43 17.3431 41.8284 16.1716C40.6569 15 38.7712 15 35 15H13C9.22876 15 7.34315 15 6.17157 16.1716C5 17.3431 5 19.2288 5 23V30Z" fill="black"/>
<path id="Subtract" opacity="0.6" fill-rule="evenodd" clip-rule="evenodd" d="M7.42166 28.9803L5 30V39C5 41.2091 6.79086 43 9 43H39C41.2091 43 43 41.2091 43 39V30L40.5783 28.9803C39.43 28.4968 38.8558 28.2551 38.25 28.2551C37.6442 28.2551 37.07 28.4968 35.9217 28.9803L35.8283 29.0196C34.68 29.5031 34.1058 29.7449 33.5 29.7449C32.8942 29.7449 32.32 29.5031 31.1717 29.0196L31.0783 28.9803C29.93 28.4968 29.3558 28.2551 28.75 28.2551C28.1442 28.2551 27.57 28.4968 26.4217 28.9803L26.3283 29.0196C25.18 29.5031 24.6058 29.7449 24 29.7449C23.3942 29.7449 22.82 29.5031 21.6717 29.0196L21.5783 28.9803C20.43 28.4968 19.8558 28.2551 19.25 28.2551C18.6442 28.2551 18.07 28.4968 16.9217 28.9803L16.8283 29.0196C15.68 29.5031 15.1058 29.7449 14.5 29.7449C13.8942 29.7449 13.32 29.5031 12.1717 29.0196L12.1717 29.0196L12.0783 28.9803C10.93 28.4968 10.3558 28.2551 9.75 28.2551C9.14418 28.2551 8.57 28.4968 7.42166 28.9803Z" fill="black"/>
<path id="Rectangle 119" opacity="0.6" d="M22 11C22 9.89543 22.8954 9 24 9C25.1046 9 26 9.89543 26 11V15H22V11Z" fill="black"/>
<path id="Rectangle 120" opacity="0.6" d="M13 12C13 10.8954 13.8954 10 15 10C16.1046 10 17 10.8954 17 12V15H13V12Z" fill="black"/>
<path id="Rectangle 121" opacity="0.6" d="M31 12C31 10.8954 31.8954 10 33 10C34.1046 10 35 10.8954 35 12V15H31V12Z" fill="black"/>
<path id="Vector 48" d="M24 9C20.0426 9 23.0106 3 24 3C24.9893 3 27.9574 9 24 9Z" fill="black"/>
<path id="Vector 49" d="M33 10C29.0426 10 32.0106 4 33 4C33.9893 4 36.9574 10 33 10Z" fill="black"/>
<path id="Vector 50" d="M15 10C11.0426 10 14.0106 4 15 4C15.9893 4 18.9574 10 15 10Z" fill="black"/>
</g>
</svg>
