<svg xmlns="http://www.w3.org/2000/svg" width="48" height="48" fill="none" viewBox="0 0 48 48">
  <g clip-path="url(#clip0_32:133)">
    <rect width="38" height="38" x="5" y="5" fill="#000" opacity=".2" rx="4"/>
    <path fill="#000" fill-rule="evenodd" d="M6.172-36.536C5-35.365 5-33.48 5-29.708V0h38v-29.708c0-3.771 0-5.657-1.172-6.828-1.171-1.172-3.057-1.172-6.828-1.172H13c-3.771 0-5.657 0-6.828 1.172zM43 9H5v20c0 3.771 0 5.657 1.172 6.828C7.343 37 9.229 37 13 37h22c3.771 0 5.657 0 6.828-1.172C43 34.657 43 32.771 43 29V9z" clip-rule="evenodd" opacity=".2"/>
    <path fill="#000" fill-rule="evenodd" d="M6.172-36.536C5-35.365 5-33.48 5-29.708V0h38v-29.708c0-3.771 0-5.657-1.172-6.828-1.171-1.172-3.057-1.172-6.828-1.172H13c-3.771 0-5.657 0-6.828 1.172zM43 9H5v20c0 3.771 0 5.657 1.172 6.828C7.343 37 9.229 37 13 37h22c3.771 0 5.657 0 6.828-1.172C43 34.657 43 32.771 43 29V9z" clip-rule="evenodd" opacity=".2"/>
    <path fill="#000" fill-rule="evenodd" d="M5.035 20C5 20.842 5 21.83 5 23c0 3.771 0 5.657 1.172 6.828C7.343 31 9.229 31 13 31h22c3.771 0 5.657 0 6.828-1.172C43 28.657 43 26.771 43 23c0-1.17 0-2.158-.035-3-.078 1.872-.328 3.02-1.137 3.828C40.657 25 38.771 25 35 25H13c-3.771 0-5.657 0-6.828-1.172-.809-.808-1.06-1.956-1.137-3.828z" clip-rule="evenodd" opacity=".6"/>
    <path fill="#000" fill-rule="evenodd" d="M5 13c0-3.771 0-5.657 1.172-6.828C7.343 5 9.229 5 13 5h22c3.771 0 5.657 0 6.828 1.172C43 7.343 43 9.229 43 13v4c0 3.771 0 5.657-1.172 6.828C40.657 25 38.771 25 35 25H13c-3.771 0-5.657 0-6.828-1.172C5 22.657 5 20.771 5 17v-4zm25 2a6 6 0 11-12 0 6 6 0 0112 0zm-19 2a2 2 0 100-4 2 2 0 000 4zm26 0a2 2 0 100-4 2 2 0 000 4z" clip-rule="evenodd"/>
  </g>
  <defs>
    <clipPath id="clip0_32:133">
      <path fill="#fff" d="M0 0h48v48H0z"/>
    </clipPath>
  </defs>
</svg>
