<svg width="48" height="48" viewBox="0 0 48 48" fill="none" xmlns="http://www.w3.org/2000/svg">
<rect opacity="0.2" x="5" y="5" width="38" height="38" rx="4" fill="black"/>
<path d="M20 26C20 26.7879 19.8448 27.5681 19.5433 28.2961C19.2417 29.0241 18.7998 29.6855 18.2426 30.2426C17.6855 30.7998 17.0241 31.2417 16.2961 31.5433C15.5681 31.8448 14.7879 32 14 32C13.2121 32 12.4319 31.8448 11.7039 31.5433C10.9759 31.2417 10.3145 30.7998 9.75736 30.2426C9.20021 29.6855 8.75825 29.0241 8.45672 28.2961C8.15519 27.5681 8 26.7879 8 26L14 26H20Z" fill="black"/>
<path d="M40 30C40 30.7879 39.8448 31.5681 39.5433 32.2961C39.2417 33.0241 38.7998 33.6855 38.2426 34.2426C37.6855 34.7998 37.0241 35.2417 36.2961 35.5433C35.5681 35.8448 34.7879 36 34 36C33.2121 36 32.4319 35.8448 31.7039 35.5433C30.9759 35.2417 30.3145 34.7998 29.7574 34.2426C29.2002 33.6855 28.7583 33.0241 28.4567 32.2961C28.1552 31.5681 28 30.7879 28 30L34 30H40Z" fill="black"/>
<path opacity="0.6" d="M9 26L14 17L19 26M29 30L34 22L39 30" stroke="black" stroke-width="2" stroke-linecap="round" stroke-linejoin="round"/>
<rect x="9.89941" y="13.1689" width="30" height="3" rx="1.5" transform="rotate(15 9.89941 13.1689)" fill="black"/>
</svg>
