<svg xmlns="http://www.w3.org/2000/svg" width="48" height="48" fill="none" viewBox="0 0 48 48">
  <path fill="#000" d="M19.436 19L29 28.564 12.176 45.388a5.503 5.503 0 01-7.783 0l-1.781-1.78a5.503 5.503 0 010-7.784L19.436 19z" opacity=".6"/>
  <path fill="#000" d="M29.291 1.396c.82 0 1.23 0 1.658.219.794.405 1.268 1.546.994 2.394-.147.458-.556.868-1.374 1.69-2.173 2.18-4.239 4.514-6.37 6.644a7.34 7.34 0 0010.382 10.382c2.001-2.001 4.275-3.952 6.383-6.013 1.45-1.419 2.176-2.128 2.929-2.169.56-.03 1.239.256 1.61.678.497.566.497 1.338.497 2.883 0 9.228-7.481 16.709-16.709 16.709-9.227 0-16.708-7.481-16.708-16.709 0-9.227 7.48-16.708 16.708-16.708z"/>
</svg>
