<svg width="48" height="48" viewBox="0 0 48 48" fill="none" xmlns="http://www.w3.org/2000/svg">
<rect opacity="0.2" x="5" y="5" width="38" height="38" rx="4" fill="black"/>
<path d="M20 26C20 26.7879 19.8448 27.5681 19.5433 28.2961C19.2417 29.0241 18.7998 29.6855 18.2426 30.2426C17.6855 30.7998 17.0241 31.2417 16.2961 31.5433C15.5681 31.8448 14.7879 32 14 32C13.2121 32 12.4319 31.8448 11.7039 31.5433C10.9759 31.2417 10.3145 30.7998 9.75736 30.2426C9.20021 29.6855 8.75825 29.0241 8.45672 28.2961C8.15519 27.5681 8 26.7879 8 26L14 26H20Z" fill="black"/>
<path d="M40 30C40 30.7879 39.8448 31.5681 39.5433 32.2961C39.2417 33.0241 38.7998 33.6855 38.2426 34.2426C37.6855 34.7998 37.0241 35.2417 36.2961 35.5433C35.5681 35.8448 34.7879 36 34 36C33.2121 36 32.4319 35.8448 31.7039 35.5433C30.9759 35.2417 30.3145 34.7998 29.7574 34.2426C29.2002 33.6855 28.7583 33.0241 28.4567 32.2961C28.1552 31.5681 28 30.7879 28 30L34 30H40Z" fill="black"/>
<path opacity="0.6" fill-rule="evenodd" clip-rule="evenodd" d="M14.0002 16C14.3633 16 14.698 16.1969 14.8743 16.5144L19.8743 25.5144C20.1426 25.9971 19.9686 26.6059 19.4858 26.8742C19.003 27.1424 18.3942 26.9684 18.126 26.4856L14.0002 19.0591L9.87434 26.4856C9.60613 26.9684 8.99732 27.1424 8.51454 26.8742C8.03176 26.6059 7.85781 25.9971 8.12602 25.5144L13.126 16.5144C13.3024 16.1969 13.637 16 14.0002 16ZM34.0002 21C34.345 21 34.6654 21.1776 34.8482 21.47L39.8482 29.47C40.1409 29.9383 39.9985 30.5553 39.5302 30.848C39.0618 31.1407 38.4449 30.9983 38.1522 30.53L34.0002 23.8868L29.8482 30.53C29.5555 30.9983 28.9385 31.1407 28.4702 30.848C28.0018 30.5553 27.8595 29.9383 28.1522 29.47L33.1522 21.47C33.3349 21.1776 33.6554 21 34.0002 21Z" fill="black"/>
<rect x="9.89941" y="13.1689" width="30" height="3" rx="1.5" transform="rotate(15 9.89941 13.1689)" fill="black"/>
</svg>
