<svg width="48" height="48" viewBox="0 0 48 48" fill="none" xmlns="http://www.w3.org/2000/svg">
<rect opacity="0.2" x="5" y="5" width="38" height="38" rx="4" fill="black"/>
<path opacity="0.6" d="M24.4211 11H13.8932C12.3781 11 10.993 11.856 10.3155 13.2111L8.72361 16.3949C8.39116 17.0598 8.87465 17.8421 9.61803 17.8421H18.5279C20.043 17.8421 21.428 16.9861 22.1056 15.631L24.4211 11Z" fill="black"/>
<path opacity="0.2" fill-rule="evenodd" clip-rule="evenodd" d="M13.8927 11H19.4212C15.65 11 13.7643 11 12.5928 12.1716C11.5478 13.2166 11.4349 14.8296 11.4227 17.8421H9.6175C8.87412 17.8421 8.39062 17.0598 8.72307 16.3949L10.3149 13.2111C10.9925 11.856 12.3776 11 13.8927 11Z" fill="black"/>
<path d="M24.4207 11H34.9486C36.4637 11 37.8487 11.856 38.5263 13.2111L40.1182 16.3949C40.4506 17.0598 39.9671 17.8421 39.2238 17.8421H30.3139C28.7988 17.8421 27.4138 16.9861 26.7362 15.631L24.4207 11Z" fill="black"/>
<path d="M24.4207 11H34.9486C36.4637 11 37.8487 11.856 38.5263 13.2111L40.1182 16.3949C40.4506 17.0598 39.9671 17.8421 39.2238 17.8421H30.3139C28.7988 17.8421 27.4138 16.9861 26.7362 15.631L24.4207 11Z" fill="black"/>
<mask id="mask0_121:1521" style="mask-type:alpha" maskUnits="userSpaceOnUse" x="11" y="11" width="27" height="26">
<rect x="11.4209" y="11" width="26" height="26" rx="4" fill="#66AADA"/>
</mask>
<g mask="url(#mask0_121:1521)">
<path opacity="0.6" d="M37.4209 11H24.4209V37H29.4209C33.1921 37 35.0778 37 36.2493 35.8284C37.4209 34.6569 37.4209 32.7712 37.4209 29V11Z" fill="black"/>
<path fill-rule="evenodd" clip-rule="evenodd" d="M11.4209 11.8553C12.1133 11.3112 12.9795 11 13.893 11H11.4209V11.8553ZM11.4209 17.8421V29C11.4209 32.7712 11.4209 34.6569 12.5925 35.8284C13.764 37 15.6497 37 19.4209 37H24.4209V11L22.1054 15.631C21.4279 16.9861 20.0428 17.8421 18.5277 17.8421H11.4209Z" fill="black"/>
</g>
</svg>
