<svg xmlns="http://www.w3.org/2000/svg" width="48" height="48" fill="none" viewBox="0 0 48 48">
  <mask id="a" width="38" height="35" x="5" y="6" maskUnits="userSpaceOnUse" style="mask-type:alpha">
    <rect width="38" height="35" x="5" y="6" fill="#66AADA" rx="4"/>
  </mask>
  <g mask="url(#a)">
    <path fill="#000" fill-rule="evenodd" d="M5.054 8.26C5 8.418 5 8.7 5 9.265v27.907c0 1.885 0 2.828.586 3.414.586.586 1.528.586 3.414.586h30c1.886 0 2.828 0 3.414-.586C43 40 43 39.057 43 37.172V8.874c0-.673-.907-.888-1.208-.286a1.276 1.276 0 01-2.044.332l-1.073-1.073c-.242-.243-.364-.364-.48-.45a2 2 0 00-2.39 0c-.116.086-.238.207-.48.45L35 8.172c-.545.545-.818.817-1.112.963a2 2 0 01-1.776 0c-.294-.146-.567-.418-1.112-.963-.545-.546-.818-.818-1.112-.964a2 2 0 00-1.776 0c-.294.146-.567.418-1.112.964-.545.545-.818.817-1.112.963a2 2 0 01-1.776 0c-.294-.146-.567-.418-1.112-.963-.545-.546-.818-.818-1.112-.964a2 2 0 00-1.776 0c-.294.146-.567.418-1.112.964-.545.545-.818.817-1.112.963a2 2 0 01-1.776 0c-.294-.146-.567-.418-1.112-.963-.545-.546-.818-.818-1.112-.964a2 2 0 00-1.776 0c-.294.146-.567.418-1.112.964l-.188.187c-.37.37-.555.555-.742.674a2 2 0 01-2.14 0c-.187-.119-.372-.304-.742-.674-.4-.399-.6-.599-.75-.672a1 1 0 00-1.384.573zM12 13.172a2 2 0 100 4h24a2 2 0 000-4H12zm6 9a2 2 0 012-2h16a2 2 0 110 4H20a2 2 0 01-2-2zm2 5a2 2 0 100 4h16a2 2 0 000-4H20zm-2 9a2 2 0 012-2h16a2 2 0 110 4H20a2 2 0 01-2-2zm-4-16a2 2 0 100 4 2 2 0 000-4zm-2 9a2 2 0 114 0 2 2 0 01-4 0zm2 5a2 2 0 100 4 2 2 0 000-4z" clip-rule="evenodd"/>
  </g>
</svg>
