<svg xmlns="http://www.w3.org/2000/svg" width="48" height="48" fill="none" viewBox="0 0 48 48">
  <rect width="38" height="38" x="5" y="5" fill="#000" opacity=".2" rx="4"/>
  <path stroke="#000" stroke-width="2" d="M22 13h4c.971 0 1.599.002 2.061.064.434.059.57.153.646.229.076.076.17.212.229.646.062.462.064 1.09.064 2.061v2H19v-2c0-.971.002-1.599.064-2.061.059-.434.153-.57.229-.646.076-.076.212-.17.646-.229C20.4 13.002 21.029 13 22 13z" opacity=".6"/>
  <path fill="#000" d="M10.005 22.325C10 22.838 10 23.395 10 24v3c0 3.771 0 5.657 1.172 6.829C12.343 35 14.229 35 18 35h12c3.771 0 5.657 0 6.828-1.171C38 32.657 38 30.77 38 27v-3c0-.605 0-1.162-.005-1.675-5.863 1.567-22.127 1.567-27.99 0z" opacity=".6"/>
  <path fill="#000" fill-rule="evenodd" d="M36.828 17.172c.984.983 1.142 3.47 1.167 6.153-2.577.689-7.165 1.075-11.995 1.158V23a1 1 0 00-1-1h-2a1 1 0 00-1 1v1.483c-4.83-.083-9.418-.47-11.995-1.158.025-2.683.183-5.17 1.167-6.153C12.343 16 14.229 16 18 16h12c3.771 0 5.657 0 6.828 1.172z" clip-rule="evenodd"/>
  <rect width="4" height="5" x="22" y="22" fill="#000" opacity=".6" rx="1"/>
  <path fill="#000" fill-rule="evenodd" d="M23 22a1 1 0 00-1 1v.483c1.327.023 2.673.023 4 0V23a1 1 0 00-1-1h-2z" clip-rule="evenodd" opacity=".6"/>
</svg>
