<svg width="48" height="48" viewBox="0 0 48 48" fill="none" xmlns="http://www.w3.org/2000/svg">
<path opacity="0.8" fill-rule="evenodd" clip-rule="evenodd" d="M6.17157 13.1716C5 14.3431 5 16.2288 5 20V32C5 35.7712 5 37.6569 6.17157 38.8284C7.34315 40 9.22876 40 13 40H35C38.7712 40 40.6569 40 41.8284 38.8284C43 37.6569 43 35.7712 43 32V20C43 16.2288 43 14.3431 41.8284 13.1716C40.6569 12 38.7712 12 35 12H13C9.22876 12 7.34315 12 6.17157 13.1716ZM13 23.5C13 24.3284 12.3284 25 11.5 25C10.6716 25 10 24.3284 10 23.5C10 22.6716 10.6716 22 11.5 22C12.3284 22 13 22.6716 13 23.5ZM38 23.5C38 24.3284 37.3284 25 36.5 25C35.6716 25 35 24.3284 35 23.5C35 22.6716 35.6716 22 36.5 22C37.3284 22 38 22.6716 38 23.5ZM23 24C22.4477 24 22 24.4477 22 25V29C22 29.5523 22.4477 30 23 30H25C25.5523 30 26 29.5523 26 29V25C26 24.4477 25.5523 24 25 24H23Z" fill="black"/>
<g opacity="0.4">
<path d="M13 23.5C13 24.3284 12.3284 25 11.5 25C10.6716 25 10 24.3284 10 23.5C10 22.6716 10.6716 22 11.5 22C12.3284 22 13 22.6716 13 23.5Z" fill="black"/>
<path d="M38 23.5C38 24.3284 37.3284 25 36.5 25C35.6716 25 35 24.3284 35 23.5C35 22.6716 35.6716 22 36.5 22C37.3284 22 38 22.6716 38 23.5Z" fill="black"/>
</g>
<path fill-rule="evenodd" clip-rule="evenodd" d="M5.90796 13.4624C5 14.5688 5 16.2125 5 19.5C5 22.7875 5 24.4312 5.90796 25.5376C6.07418 25.7401 6.25989 25.9258 6.46243 26.092C7.56878 27 9.21252 27 12.5 27H22V25C22 24.4477 22.4477 24 23 24H25C25.5523 24 26 24.4477 26 25V27H35.5C38.7875 27 40.4312 27 41.5376 26.092C41.7401 25.9258 41.9258 25.7401 42.092 25.5376C43 24.4312 43 22.7875 43 19.5C43 16.2125 43 14.5688 42.092 13.4624C41.9258 13.2599 41.7401 13.0742 41.5376 12.908C40.4312 12 38.7875 12 35.5 12H12.5C9.21252 12 7.56878 12 6.46243 12.908C6.25989 13.0742 6.07418 13.2599 5.90796 13.4624ZM13 23.5C13 24.3284 12.3284 25 11.5 25C10.6716 25 10 24.3284 10 23.5C10 22.6716 10.6716 22 11.5 22C12.3284 22 13 22.6716 13 23.5ZM38 23.5C38 24.3284 37.3284 25 36.5 25C35.6716 25 35 24.3284 35 23.5C35 22.6716 35.6716 22 36.5 22C37.3284 22 38 22.6716 38 23.5Z" fill="black"/>
<rect opacity="0.2" x="22" y="24" width="4" height="6" rx="1" fill="black"/>
<path opacity="0.8" fill-rule="evenodd" clip-rule="evenodd" d="M28 10H20C19.6037 10 19.2824 10.0001 19.0046 10.0046C19.0001 10.2824 19 10.6037 19 11C19 11.3963 19.0001 11.7176 19.0046 11.9954C19.2824 11.9999 19.6037 12 20 12H28C28.3963 12 28.7176 11.9999 28.9954 11.9954C28.9999 11.7176 29 11.3963 29 11C29 10.6037 28.9999 10.2824 28.9954 10.0046C28.7176 10.0001 28.3963 10 28 10ZM16.5858 7.58579C16 8.17157 16 9.11438 16 11C16 12.8856 16 13.8284 16.5858 14.4142C17.1716 15 18.1144 15 20 15H28C29.8856 15 30.8284 15 31.4142 14.4142C32 13.8284 32 12.8856 32 11C32 9.11438 32 8.17157 31.4142 7.58579C30.8284 7 29.8856 7 28 7H20C18.1144 7 17.1716 7 16.5858 7.58579Z" fill="black"/>
</svg>
