<svg xmlns="http://www.w3.org/2000/svg" width="48" height="48" fill="none" viewBox="0 0 48 48">
  <rect width="38" height="38" x="5" y="5" fill="#000" opacity=".2" rx="4"/>
  <path fill="#000" d="M24.421 11H13.893a4 4 0 00-3.578 2.211l-1.591 3.184a1 1 0 00.894 1.447h8.91a4 4 0 003.578-2.211L24.42 11z" opacity=".6"/>
  <path fill="#000" fill-rule="evenodd" d="M13.893 11h5.528c-3.771 0-5.657 0-6.828 1.172-1.045 1.045-1.158 2.658-1.17 5.67H9.617a1 1 0 01-.894-1.447l1.592-3.184A4 4 0 0113.893 11z" clip-rule="evenodd" opacity=".2"/>
  <path fill="#000" d="M24.42 11H34.95a4 4 0 013.577 2.211l1.592 3.184a1 1 0 01-.894 1.447h-8.91a4 4 0 01-3.578-2.211L24.421 11z"/>
  <path fill="#000" d="M24.42 11H34.95a4 4 0 013.577 2.211l1.592 3.184a1 1 0 01-.894 1.447h-8.91a4 4 0 01-3.578-2.211L24.421 11z"/>
  <mask id="a" width="27" height="26" x="11" y="11" maskUnits="userSpaceOnUse" style="mask-type:alpha">
    <rect width="26" height="26" x="11.421" y="11" fill="#66AADA" rx="4"/>
  </mask>
  <g mask="url(#a)">
    <path fill="#000" d="M37.42 11h-13v26h5c3.772 0 5.658 0 6.83-1.172 1.17-1.171 1.17-3.057 1.17-6.828V11z" opacity=".6"/>
    <path fill="#000" fill-rule="evenodd" d="M11.42 11.855A3.999 3.999 0 0113.894 11h-2.472v.855zm0 5.987V29c0 3.771 0 5.657 1.172 6.828C13.764 37 15.65 37 19.421 37h5V11l-2.316 4.631a4 4 0 01-3.577 2.211H11.42z" clip-rule="evenodd"/>
  </g>
</svg>
