<svg width="48" height="48" viewBox="0 0 48 48" fill="none" xmlns="http://www.w3.org/2000/svg">
<path opacity="0.4" d="M24 4C22.3431 4 21 5.34315 21 7V39H27V7C27 5.34315 25.6569 4 24 4Z" fill="black"/>
<path d="M18 21C18 22.0506 17.7931 23.0909 17.391 24.0615C16.989 25.0321 16.3997 25.914 15.6569 26.6569C14.914 27.3997 14.0321 27.989 13.0615 28.391C12.0909 28.7931 11.0506 29 10 29C8.94942 29 7.90914 28.7931 6.93853 28.391C5.96793 27.989 5.08601 27.3997 4.34315 26.6569C3.60028 25.914 3.011 25.0321 2.60896 24.0615C2.20693 23.0909 2 22.0506 2 21L10 21H18Z" fill="black"/>
<path d="M46 28C46 29.0506 45.7931 30.0909 45.391 31.0615C44.989 32.0321 44.3997 32.914 43.6569 33.6569C42.914 34.3997 42.0321 34.989 41.0615 35.391C40.0909 35.7931 39.0506 36 38 36C36.9494 36 35.9091 35.7931 34.9385 35.391C33.9679 34.989 33.086 34.3997 32.3431 33.6569C31.6003 32.914 31.011 32.0321 30.609 31.0615C30.2069 30.0909 30 29.0506 30 28L38 28H46Z" fill="black"/>
<path opacity="0.8" fill-rule="evenodd" clip-rule="evenodd" d="M38.0002 14C38.3681 14 38.7063 14.202 38.8807 14.5259L45.8807 27.5259C46.1425 28.0122 45.9606 28.6186 45.4743 28.8805C44.988 29.1423 44.3816 28.9604 44.1197 28.4741L38.0002 17.1093L31.8807 28.4741C31.6188 28.9604 31.0124 29.1423 30.5261 28.8805C30.0398 28.6186 29.8579 28.0122 30.1197 27.5259L37.1197 14.5259C37.2941 14.202 37.6323 14 38.0002 14Z" fill="black"/>
<path opacity="0.6" fill-rule="evenodd" clip-rule="evenodd" d="M10.0002 7C10.3681 7 10.7063 7.20199 10.8807 7.5259L17.8807 20.5259C18.1425 21.0122 17.9606 21.6186 17.4743 21.8805C16.988 22.1423 16.3816 21.9604 16.1197 21.4741L10.0002 10.1093L3.88067 21.4741C3.61883 21.9604 3.01236 22.1423 2.52609 21.8805C2.03982 21.6186 1.85788 21.0122 2.11972 20.5259L9.11972 7.5259C9.29414 7.20199 9.63231 7 10.0002 7Z" fill="black"/>
<rect x="6.16504" y="5.15039" width="38" height="4" rx="2" transform="rotate(15 6.16504 5.15039)" fill="black"/>
<path opacity="0.8" d="M16 41C16 39.8954 16.8954 39 18 39H30C31.1046 39 32 39.8954 32 41V43C32 43.5523 31.5523 44 31 44H17C16.4477 44 16 43.5523 16 43V41Z" fill="black"/>
</svg>
