<svg xmlns="http://www.w3.org/2000/svg" width="48" height="48" fill="none" viewBox="0 0 48 48">
  <path fill="#000" d="M1.025 28a1 1 0 001 1H20a1 1 0 001-1v-2.532a1 1 0 00-1-1H9.888a1 1 0 01-.813-1.582L20.788 6.524a1 1 0 00.186-.582V4a1 1 0 00-1-1H2a1 1 0 00-1 1v2.532a1 1 0 001 1h10.1a1 1 0 01.814 1.582L1.212 25.476a1 1 0 00-.187.582V28z"/>
  <path fill="#000" d="M23.017 33a1 1 0 001 1H35a1 1 0 001-1v-1.138a1 1 0 00-1-1h-5.61a1 1 0 01-.83-1.557l7.253-10.793a1 1 0 00.17-.558V17a1 1 0 00-1-1H24a1 1 0 00-1 1v1.138a1 1 0 001 1h5.603a1 1 0 01.83 1.557l-7.247 10.793a1 1 0 00-.17.558V33z" opacity=".8"/>
  <path fill="#000" d="M37.011 40a1 1 0 001 1H45a1 1 0 001-1v-.266a1 1 0 00-1-1h-3.042a1 1 0 01-.84-1.542l4.711-7.313a1 1 0 00.16-.542V29a1 1 0 00-1-1H38a1 1 0 00-1 1v.266a1 1 0 001 1h3.037a1 1 0 01.841 1.541l-4.707 7.314a1 1 0 00-.16.542V40z" opacity=".4"/>
</svg>
