<svg xmlns="http://www.w3.org/2000/svg" width="48" height="48" fill="none" viewBox="0 0 48 48">
  <rect width="38" height="38" x="5" y="5" fill="#000" opacity=".2" rx="4"/>
  <path fill="#000" d="M10.015 28a1 1 0 001 1H21a1 1 0 001-1v-.79a1 1 0 00-1-1h-4.917a1 1 0 01-.82-1.571l6.542-9.373a1 1 0 00.18-.573V14a1 1 0 00-1-1H11a1 1 0 00-1 1v.79a1 1 0 001 1h4.91a1 1 0 01.82 1.571l-6.535 9.373a1 1 0 00-.18.572V28zM23.01 31a1 1 0 001 1h6.031a.959.959 0 100-1.918h-2.38a1 1 0 01-.828-1.56l3.985-5.888a1 1 0 00.172-.56V22a1 1 0 00-1-1h-6.031a.959.959 0 100 1.918h2.376a1 1 0 01.828 1.56l-3.981 5.888a1 1 0 00-.172.56V31zM32.006 35.21c0 .436.354.79.791.79h3.506a.697.697 0 100-1.395h-.829a1 1 0 01-.864-1.502l2.276-3.915A.79.79 0 0036.202 28h-3.505a.697.697 0 100 1.395h.826a1 1 0 01.865 1.502l-2.275 3.915a.79.79 0 00-.107.397z"/>
</svg>
