<svg width="48" height="48" viewBox="0 0 48 48" fill="none" xmlns="http://www.w3.org/2000/svg">
<g id="media-reading-writing/book">
<path id="Subtract" opacity="0.2" fill-rule="evenodd" clip-rule="evenodd" d="M6.17157 6.17157C5 7.34315 5 9.22876 5 13V35C5 38.7712 5 40.6569 6.17157 41.8284C7.34315 43 9.22876 43 13 43H35C38.7712 43 40.6569 43 41.8284 41.8284C43 40.6569 43 38.7712 43 35V13C43 9.22876 43 7.34315 41.8284 6.17157C40.6569 5 38.7712 5 35 5H13C9.22876 5 7.34315 5 6.17157 6.17157ZM11.2929 12.2929C11 12.5858 11 13.0572 11 14V15C11 15.9428 11 16.4142 11.2929 16.7071C11.5858 17 12.0572 17 13 17H29C29.9428 17 30.4142 17 30.7071 16.7071C31 16.4142 31 15.9428 31 15V14C31 13.0572 31 12.5858 30.7071 12.2929C30.4142 12 29.9428 12 29 12H13C12.0572 12 11.5858 12 11.2929 12.2929ZM14 19C13.4477 19 13 19.4477 13 20C13 20.5523 13.4477 21 14 21H28C28.5523 21 29 20.5523 29 20C29 19.4477 28.5523 19 28 19H14Z" fill="black"/>
<g id="Vector" opacity="0.2">
<path d="M11 14C11 13.0572 11 12.5858 11.2929 12.2929C11.5858 12 12.0572 12 13 12H29C29.9428 12 30.4142 12 30.7071 12.2929C31 12.5858 31 13.0572 31 14V15C31 15.9428 31 16.4142 30.7071 16.7071C30.4142 17 29.9428 17 29 17H13C12.0572 17 11.5858 17 11.2929 16.7071C11 16.4142 11 15.9428 11 15V14Z" fill="black"/>
<path d="M13 20C13 19.4477 13.4477 19 14 19H28C28.5523 19 29 19.4477 29 20C29 20.5523 28.5523 21 28 21H14C13.4477 21 13 20.5523 13 20Z" fill="black"/>
</g>
<rect id="Rectangle 3" opacity="0.2" x="9" y="5" width="34" height="38" rx="4" fill="black"/>
<path id="Subtract_2" fill-rule="evenodd" clip-rule="evenodd" d="M32 43H35C38.7712 43 40.6569 43 41.8284 41.8284C43 40.6569 43 38.7712 43 35V13C43 9.22876 43 7.34315 41.8284 6.17157C40.6569 5 38.7712 5 35 5H32C35.7712 5 37.6569 5 38.8284 6.17157C40 7.34315 40 9.22876 40 13V35C40 38.7712 40 40.6569 38.8284 41.8284C37.6569 43 35.7712 43 32 43Z" fill="black"/>
<path id="Subtract_3" fill-rule="evenodd" clip-rule="evenodd" d="M5 13C5 9.22876 5 7.34315 6.17157 6.17157C7.34315 5 9.22876 5 13 5H29C32.7712 5 34.6569 5 35.8284 6.17157C37 7.34315 37 9.22876 37 13V35C37 38.7712 37 40.6569 35.8284 41.8284C34.6569 43 32.7712 43 29 43H13C9.22876 43 7.34315 43 6.17157 41.8284C5 40.6569 5 38.7712 5 35V13ZM11 14C11 13.0572 11 12.5858 11.2929 12.2929C11.5858 12 12.0572 12 13 12H29C29.9428 12 30.4142 12 30.7071 12.2929C31 12.5858 31 13.0572 31 14V15C31 15.9428 31 16.4142 30.7071 16.7071C30.4142 17 29.9428 17 29 17H13C12.0572 17 11.5858 17 11.2929 16.7071C11 16.4142 11 15.9428 11 15V14ZM14 19C13.4477 19 13 19.4477 13 20C13 20.5523 13.4477 21 14 21H28C28.5523 21 29 20.5523 29 20C29 19.4477 28.5523 19 28 19H14Z" fill="black"/>
</g>
</svg>
