<svg width="48" height="48" viewBox="0 0 48 48" fill="none" xmlns="http://www.w3.org/2000/svg">
<g id="misc/brain">
<path id="Subtract" opacity="0.35" fill-rule="evenodd" clip-rule="evenodd" d="M19.154 3C20.0772 3 20.9535 3.22557 21.7416 3.63032C22.4219 3.22097 23.2 3 24.0001 3V5H14.7934C15.9171 3.76281 17.4563 3 19.154 3ZM14.7646 43C15.4878 43.2878 16.2661 43.4444 17.0771 43.4444C17.5317 43.4444 17.9761 43.3952 18.4062 43.3012C19.2894 44.3475 20.5385 45 21.9232 45C22.6665 45 23.3707 44.812 24.0001 44.4761V43H14.7646Z" fill="black"/>
<g id="Group 42">
<path id="Subtract_2" fill-rule="evenodd" clip-rule="evenodd" d="M28.8462 3C27.923 3 27.0467 3.22557 26.2585 3.63032C25.5782 3.22097 24.8001 3 24 3V5.59985V12.3333V44.4761C24.6295 44.812 25.3337 45 26.0769 45C27.4617 45 28.7108 44.3475 29.5939 43.3012C30.0241 43.3952 30.4685 43.4444 30.9231 43.4444C34.5032 43.4444 37.4486 40.3915 37.8091 36.4764C40.3525 34.35 42 30.9467 42 27.1111C42 24.7133 41.3561 22.4845 40.2521 20.631C40.4885 19.7261 40.6154 18.7686 40.6154 17.7778C40.6154 13.4982 38.2488 9.83966 34.9058 8.36372C34.2499 5.28704 31.7858 3 28.8462 3ZM31.8122 12.4846C31.9369 12.0985 31.7347 11.6812 31.3606 11.5525C30.9865 11.4239 30.5822 11.6325 30.4575 12.0186C30.3008 12.5039 30.1259 12.8159 29.9503 13.0358C29.7762 13.2537 29.5772 13.4115 29.3298 13.5606C29.1516 13.6679 28.9783 13.755 28.7725 13.8583L28.7724 13.8583C28.6614 13.9141 28.541 13.9746 28.4053 14.0456C28.2075 14.149 27.9968 14.2656 27.7768 14.4058C27.4322 14.6254 27.341 15.0756 27.5291 15.4384C27.7248 15.8158 28.1678 15.9904 28.5845 15.9059C28.9805 15.8255 29.4202 15.7699 29.8585 15.7469C30.599 15.708 31.243 15.7672 31.6231 15.8979C31.9972 16.0266 32.4015 15.818 32.5262 15.4319C32.6509 15.0459 32.4487 14.6286 32.0746 14.4999C31.7026 14.3719 31.2528 14.3019 30.7807 14.2748C30.8734 14.1833 30.9642 14.0833 31.0521 13.9732C31.3613 13.5862 31.612 13.1045 31.8122 12.4846ZM28.891 19.9777C28.6882 19.6287 28.2496 19.5156 27.9114 19.7249C27.5733 19.9343 27.4637 20.3869 27.6665 20.7359C27.9792 21.2736 28.5361 21.9018 29.3263 22.3975C29.1986 22.4736 29.0725 22.5544 28.9502 22.6397C28.6163 22.8724 28.2833 23.1571 28.0278 23.4959C27.771 23.8363 27.5648 24.2696 27.5648 24.7778C27.5648 25.1847 27.8845 25.5146 28.2788 25.5146C28.6731 25.5146 28.9928 25.1847 28.9928 24.7778C28.9928 24.6964 29.0246 24.5734 29.1546 24.4011C29.2858 24.2271 29.4883 24.0429 29.7494 23.8609C30.2055 23.543 30.7557 23.2902 31.1743 23.1379C32.4292 23.3987 33.9475 23.2828 35.7001 22.5077C36.0625 22.3474 36.2304 21.9142 36.0751 21.5402C35.9198 21.1661 35.5 20.9929 35.1376 21.1532C33.5392 21.8601 32.2639 21.8949 31.3003 21.6579C30.012 21.341 29.206 20.5193 28.891 19.9777ZM33.8709 33.2917C34.0896 32.9531 34.001 32.4956 33.6729 32.2699C33.3448 32.0441 32.9015 32.1356 32.6827 32.4742C32.1079 33.3641 31.3646 33.706 30.5159 33.809C29.8353 33.8917 29.1225 33.8187 28.3838 33.7225C27.963 33.6676 27.5654 33.9253 27.4459 34.3325C27.3295 34.7292 27.5118 35.1596 27.8073 35.4486C28.0812 35.7164 28.3743 36.0727 28.6657 36.4853C29.1507 37.172 29.5591 37.9098 29.7822 38.3703C29.9585 38.7343 30.3874 38.8818 30.7401 38.6998C31.0928 38.5179 31.2358 38.0753 31.0594 37.7113C30.8065 37.1893 30.3581 36.3797 29.8197 35.6174C29.7486 35.5167 29.6745 35.4147 29.5976 35.3126C29.9582 35.3249 30.3236 35.3162 30.6827 35.2726C31.857 35.1301 33.0178 34.6123 33.8709 33.2917Z" fill="black"/>
<path id="Subtract_3" opacity="0.6" fill-rule="evenodd" clip-rule="evenodd" d="M19.1538 3C20.077 3 20.9533 3.22557 21.7415 3.63032C22.4218 3.22097 23.1999 3 24 3V5.59985V12.3333V44.4761C23.3705 44.812 22.6663 45 21.9231 45C20.5383 45 19.2892 44.3475 18.4061 43.3012C17.9759 43.3952 17.5315 43.4444 17.0769 43.4444C13.4968 43.4444 10.5514 40.3915 10.1909 36.4764C7.64753 34.35 6 30.9467 6 27.1111C6 24.7133 6.64385 22.4845 7.74792 20.631C7.51147 19.7261 7.38462 18.7686 7.38462 17.7778C7.38462 13.4982 9.75117 9.83966 13.0942 8.36372C13.7501 5.28704 16.2142 3 19.1538 3ZM17.3069 11.207C17.1177 10.855 16.7086 10.7408 16.3931 10.952C16.0777 11.1632 15.9754 11.6198 16.1647 11.9718C16.5249 12.6419 17.1927 13.6597 18.053 14.5937C18.2689 14.8281 18.5008 15.0614 18.7467 15.2847C18.4271 15.3228 18.1067 15.3775 17.7943 15.4527C16.5358 15.7555 15.123 16.4676 14.7576 18.0988C14.6684 18.4971 14.8854 18.9006 15.2422 19.0002C15.5991 19.0998 15.9607 18.8576 16.0499 18.4594C16.2173 17.712 16.9137 17.1853 18.075 16.9059C18.8891 16.71 19.7943 16.6742 20.5504 16.7148C20.9777 16.7377 21.3716 16.4506 21.4422 16.0286C21.5089 15.6302 21.2603 15.25 20.9003 15.067C20.2264 14.7242 19.5704 14.1671 18.9818 13.5281C18.2103 12.6905 17.6127 11.7757 17.3069 11.207ZM19.3869 25.5663C19.3148 25.1638 18.9639 24.9027 18.6032 24.9832C18.2426 25.0637 18.0086 25.4553 18.0808 25.8579C18.5162 28.2876 17.2713 29.7138 16.5474 30.1841C16.3619 30.0498 16.1735 29.9265 15.9839 29.8135C14.565 28.9681 13.056 28.6853 12.0737 28.6853C11.7058 28.6853 11.4077 29.0181 11.4077 29.4286C11.4077 29.8391 11.7058 30.1719 12.0737 30.1719C12.8674 30.1719 14.1557 30.4094 15.3565 31.1249C16.5424 31.8315 17.6202 32.9874 18.0935 34.8359C18.1945 35.2306 18.5631 35.4591 18.9168 35.3464C19.2705 35.2336 19.4753 34.8222 19.3743 34.4275C19.0204 33.0451 18.3911 31.9727 17.636 31.1511C18.6791 30.2523 19.8912 28.3801 19.3869 25.5663Z" fill="black"/>
<g id="Vector" opacity="0.2">
<path d="M16.3927 10.9522C16.7081 10.741 17.1172 10.8552 17.3065 11.2072C17.6123 11.7759 18.2099 12.6907 18.9814 13.5283C19.575 14.1727 20.2372 14.734 20.9172 15.0759C21.2672 15.2519 21.5069 15.6397 21.4392 16.0442C21.3697 16.4597 21.0041 16.7417 20.6068 16.7182C19.8396 16.6727 18.9092 16.7052 18.0746 16.9061C16.9132 17.1855 16.2169 17.7122 16.0495 18.4596C15.9603 18.8578 15.5987 19.1 15.2418 19.0004C14.885 18.9008 14.668 18.4973 14.7572 18.099C15.1226 16.4678 16.5353 15.7557 17.7938 15.4529C18.1063 15.3777 18.4267 15.3229 18.7463 15.2849C18.5004 15.0616 18.2685 14.8283 18.0526 14.5939C17.1923 13.6599 16.5245 12.6421 16.1643 11.972C15.975 11.62 16.0773 11.1634 16.3927 10.9522Z" fill="black"/>
<path d="M18.6028 24.9834C18.9635 24.9029 19.3144 25.164 19.3865 25.5665C19.8908 28.3803 18.6787 30.2525 17.6356 31.1513C18.3906 31.9729 19.0199 33.0453 19.3738 34.4277C19.4749 34.8224 19.2701 35.2338 18.9164 35.3466C18.5627 35.4593 18.1941 35.2308 18.093 34.8361C17.6198 32.9876 16.542 31.8317 15.3561 31.1251C14.1552 30.4096 12.8669 30.1721 12.0732 30.1721C11.7054 30.1721 11.4072 29.8393 11.4072 29.4288C11.4072 29.0183 11.7054 28.6855 12.0732 28.6855C13.0556 28.6855 14.5646 28.9683 15.9834 29.8137C16.173 29.9267 16.3614 30.05 16.547 30.1843C17.2709 29.714 18.5158 28.2878 18.0803 25.858C18.0082 25.4555 18.2421 25.0639 18.6028 24.9834Z" fill="black"/>
<path fill-rule="evenodd" clip-rule="evenodd" d="M31.3603 11.5527C31.7344 11.6814 31.9366 12.0987 31.8119 12.4847C31.6116 13.1047 31.3609 13.5864 31.0518 13.9734C30.9638 14.0835 30.8731 14.1835 30.7803 14.275C31.2525 14.3021 31.7023 14.3721 32.0743 14.5001C32.4484 14.6288 32.6506 15.046 32.5259 15.4321C32.4012 15.8182 31.9968 16.0268 31.6227 15.8981C31.2426 15.7674 30.5986 15.7082 29.8581 15.7471C29.3967 15.7713 28.9337 15.8317 28.5217 15.919C28.1383 16.0003 27.7332 15.8327 27.5448 15.4695C27.3498 15.0935 27.4422 14.6179 27.7894 14.3977C28.0048 14.2612 28.211 14.1471 28.4049 14.0458C28.5407 13.9748 28.6611 13.9143 28.7721 13.8585C28.9779 13.7551 29.1513 13.6681 29.3294 13.5608C29.5769 13.4117 29.7758 13.2539 29.9499 13.036C30.1256 12.8161 30.3004 12.5041 30.4571 12.0188C30.5818 11.6327 30.9862 11.4241 31.3603 11.5527ZM27.9111 19.7251C28.2492 19.5157 28.6878 19.6289 28.8907 19.9778C29.2056 20.5195 30.0117 21.3412 31.3 21.6581C32.2635 21.8951 33.5388 21.8603 35.1372 21.1533C35.4997 20.993 35.9194 21.1663 36.0747 21.5404C36.2301 21.9144 36.0622 22.3476 35.6997 22.5079C33.9472 23.283 32.4288 23.3989 31.1739 23.1381C30.7554 23.2904 30.2051 23.5432 29.7491 23.8611C29.488 24.0431 29.2855 24.2273 29.1542 24.4013C29.0243 24.5736 28.9924 24.6966 28.9924 24.7779C28.9924 25.1849 28.6728 25.5148 28.2784 25.5148C27.8841 25.5148 27.5644 25.1849 27.5644 24.7779C27.5644 24.2698 27.7706 23.8364 28.0274 23.496C28.2829 23.1573 28.6159 22.8726 28.9498 22.6398C29.0721 22.5546 29.1982 22.4738 29.3259 22.3976C28.5357 21.902 27.9789 21.2738 27.6662 20.736C27.4633 20.3871 27.573 19.9345 27.9111 19.7251ZM33.6725 32.27C34.0006 32.4958 34.0893 32.9533 33.8705 33.2919C33.0174 34.6125 31.8566 35.1302 30.6824 35.2728C30.3233 35.3164 29.9578 35.325 29.5972 35.3128C29.6741 35.4149 29.7483 35.5169 29.8194 35.6175C30.3578 36.3799 30.8062 37.1895 31.0591 37.7115C31.2354 38.0754 31.0925 38.518 30.7398 38.7C30.3871 38.882 29.9582 38.7345 29.7818 38.3705C29.5587 37.91 29.1503 37.1722 28.6653 36.4855C28.3739 36.0728 28.0807 35.7164 27.8068 35.4486C27.5122 35.1605 27.3331 34.7161 27.4521 34.3103C27.5685 33.9138 27.9353 33.6637 28.3239 33.7148C29.0838 33.8149 29.8167 33.8941 30.5155 33.8092C31.3643 33.7062 32.1075 33.3643 32.6824 32.4744C32.9011 32.1358 33.3444 32.0443 33.6725 32.27Z" fill="black"/>
</g>
</g>
</g>
</svg>
