<svg xmlns="http://www.w3.org/2000/svg" width="48" height="48" fill="none" viewBox="0 0 48 48">
  <rect width="38" height="38" x="5" y="5" fill="#000" opacity=".2" rx="4"/>
  <path fill="#000" d="M37 16.367c-.956.402-1.985.674-3.064.796 1.102-.625 1.948-1.615 2.346-2.794-1.031.579-2.173.999-3.388 1.225A5.47 5.47 0 0029.001 14c-2.946 0-5.335 2.26-5.335 5.049 0 .396.048.781.139 1.15-4.433-.21-8.364-2.22-10.995-5.275a4.821 4.821 0 00-.722 2.538c0 1.752.942 3.297 2.373 4.203a5.542 5.542 0 01-2.416-.632v.064c0 2.446 1.838 4.487 4.278 4.95a5.624 5.624 0 01-2.409.087c.68 2.006 2.649 3.466 4.983 3.507-1.825 1.354-4.125 2.161-6.625 2.161-.43 0-.855-.024-1.272-.07A15.723 15.723 0 0019.177 34c9.811 0 15.177-7.694 15.177-14.366 0-.219-.005-.436-.016-.653A10.535 10.535 0 0037 16.367z"/>
</svg>
