<svg width="48" height="48" viewBox="0 0 48 48" fill="none" xmlns="http://www.w3.org/2000/svg">
<g id="date-events/calendar-alt">
<rect id="Rectangle 1" opacity="0.2" x="5" y="5" width="38" height="38" rx="4" fill="black"/>
<path id="Rectangle 2" d="M5 13C5 9.22876 5 7.34315 6.17157 6.17157C7.34315 5 9.22876 5 13 5H35C38.7712 5 40.6569 5 41.8284 6.17157C43 7.34315 43 9.22876 43 13V15H5V13Z" fill="black"/>
<g id="Group 6">
<rect id="Rectangle 10" opacity="0.6" x="10" y="27" width="4" height="4" rx="1" fill="black"/>
<rect id="Rectangle 14" opacity="0.6" x="10" y="35" width="4" height="4" rx="1" fill="black"/>
<rect id="Rectangle 7" opacity="0.6" x="18" y="19" width="4" height="4" rx="1" fill="black"/>
<rect id="Rectangle 11" opacity="0.6" x="18" y="27" width="4" height="4" rx="1" fill="black"/>
<rect id="Rectangle 15" opacity="0.6" x="18" y="35" width="4" height="4" rx="1" fill="black"/>
<rect id="Rectangle 8" opacity="0.6" x="26" y="19" width="4" height="4" rx="1" fill="black"/>
<rect id="Rectangle 12" x="25" y="26" width="6" height="6" rx="2" fill="black"/>
<rect id="Rectangle 16" opacity="0.6" x="26" y="35" width="4" height="4" rx="1" fill="black"/>
<rect id="Rectangle 9" opacity="0.6" x="34" y="19" width="4" height="4" rx="1" fill="black"/>
<rect id="Rectangle 13" opacity="0.6" x="34" y="27" width="4" height="4" rx="1" fill="black"/>
</g>
</g>
</svg>
