<svg xmlns="http://www.w3.org/2000/svg" width="48" height="48" fill="none" viewBox="0 0 48 48">
  <g clip-path="url(#clip0_121:1723)">
    <g opacity=".4">
      <path fill="#000" d="M10 4a2 2 0 114 0v4a2 2 0 11-4 0V4zM34 4a2 2 0 114 0v4a2 2 0 11-4 0V4z"/>
    </g>
    <path fill="#000" fill-rule="evenodd" d="M10 6.009c-2.48.036-3.885.22-4.828 1.163C4 8.343 4 10.229 4 14v2h40v-2c0-3.771 0-5.657-1.172-6.828-.943-.944-2.348-1.127-4.828-1.163V8a2 2 0 11-4 0V6H14v2a2 2 0 11-4 0V6.009z" clip-rule="evenodd"/>
    <path fill="#000" d="M28 33.777a2 2 0 01-2-2v-1.555a2 2 0 012-2h11.4a2 2 0 012 2v1.555a2 2 0 01-2 2H28z" opacity=".8"/>
    <path fill="#000" d="M39.521 39.564l7.086-7.157a2 2 0 000-2.814l-7.086-7.157a2 2 0 00-2.842 0l-1.036 1.046a2 2 0 000 2.814l3.264 3.297a2 2 0 010 2.814l-3.264 3.297a2 2 0 000 2.814l1.036 1.046a2 2 0 002.842 0z"/>
    <path fill="#000" fill-rule="evenodd" d="M5.172 7.172C4 8.343 4 10.229 4 14v24c0 3.771 0 5.657 1.172 6.828C6.343 46 8.229 46 12 46h24c3.771 0 5.657 0 6.828-1.172C44 43.657 44 41.771 44 38v-2.96l-4.479 4.524a2 2 0 01-2.842 0l-1.036-1.046a2 2 0 010-2.814l1.907-1.926H28a2 2 0 01-2-2v-1.556a2 2 0 012-2h9.55l-1.907-1.926a2 2 0 010-2.814l1.036-1.046a2 2 0 012.842 0L44 26.96V14c0-3.771 0-5.657-1.172-6.828C41.657 6 39.771 6 36 6H12C8.229 6 6.343 6 5.172 7.172z" clip-rule="evenodd" opacity=".2"/>
  </g>
  <defs>
    <clipPath id="clip0_121:1723">
      <path fill="#fff" d="M0 0h48v48H0z"/>
    </clipPath>
  </defs>
</svg>
