<svg width="48" height="48" viewBox="0 0 48 48" fill="none" xmlns="http://www.w3.org/2000/svg">
<rect opacity="0.2" x="5" y="5" width="38" height="38" rx="4" fill="black"/>
<path d="M5 13C5 9.22876 5 7.34315 6.17157 6.17157C7.34315 5 9.22876 5 13 5H35C38.7712 5 40.6569 5 41.8284 6.17157C43 7.34315 43 9.22876 43 13V15H5V13Z" fill="black"/>
<path fill-rule="evenodd" clip-rule="evenodd" d="M30.5858 21.5858C31.3668 20.8047 32.6332 20.8047 33.4142 21.5858L38.4142 26.5858C39.1953 27.3668 39.1953 28.6332 38.4142 29.4142L33.4142 34.4142C32.6332 35.1953 31.3668 35.1953 30.5858 34.4142C29.8047 33.6332 29.8047 32.3668 30.5858 31.5858L32.1716 30H21C19.8954 30 19 29.1046 19 28C19 26.8954 19.8954 26 21 26H32.1716L30.5858 24.4142C29.8047 23.6332 29.8047 22.3668 30.5858 21.5858Z" fill="black"/>
<path fill-rule="evenodd" clip-rule="evenodd" d="M17.4142 21.5858C16.6332 20.8047 15.3668 20.8047 14.5858 21.5858L9.58579 26.5858C8.80474 27.3668 8.80474 28.6332 9.58579 29.4142L14.5858 34.4142C15.3668 35.1953 16.6332 35.1953 17.4142 34.4142C18.1953 33.6332 18.1953 32.3668 17.4142 31.5858L15.8284 30H27C28.1046 30 29 29.1046 29 28C29 26.8954 28.1046 26 27 26H15.8284L17.4142 24.4142C18.1953 23.6332 18.1953 22.3668 17.4142 21.5858Z" fill="black"/>
</svg>
