<svg xmlns="http://www.w3.org/2000/svg" width="48" height="48" fill="none" viewBox="0 0 48 48">
  <rect width="38" height="38" x="5" y="5" fill="#000" opacity=".2" rx="4"/>
  <path fill="#000" fill-rule="evenodd" d="M11.75 30L10 31v4a4 4 0 004 4h20a4 4 0 004-4v-4l-1.75-1c-.254-.145-.38-.217-.505-.274a3 3 0 00-2.49 0c-.125.057-.251.13-.505.274-.254.145-.38.217-.505.274a3 3 0 01-2.49 0A6.682 6.682 0 0129.25 30c-.254-.145-.38-.217-.505-.274a3 3 0 00-2.49 0c-.124.057-.251.13-.505.274-.254.145-.38.217-.505.274a3 3 0 01-2.49 0A6.682 6.682 0 0122.25 30c-.254-.145-.38-.217-.505-.274a3 3 0 00-2.49 0c-.124.057-.251.13-.505.274-.254.145-.38.217-.505.274a3 3 0 01-2.49 0A6.682 6.682 0 0115.25 30c-.254-.145-.38-.217-.505-.274a3 3 0 00-2.49 0c-.125.057-.251.13-.505.274zM38 26.947V25h-.008c.008.587.008 1.233.008 1.947zm-28 0c0-.714 0-1.36.008-1.947H10v1.947z" clip-rule="evenodd" opacity=".6"/>
  <path fill="#000" d="M22 16a2 2 0 114 0v4h-4v-4z" opacity=".6"/>
  <path fill="#000" d="M24 14c-3.957 0-.99-6 0-6s3.957 6 0 6zM10 31l1.75-.786c.511-.23.767-.344 1.028-.409a3 3 0 011.444 0c.261.065.517.18 1.028.41.511.229.767.344 1.028.408a3 3 0 001.444 0c.261-.064.517-.18 1.028-.409.511-.23.767-.344 1.028-.409a3 3 0 011.444 0c.261.065.517.18 1.028.41.511.229.767.344 1.028.408a3 3 0 001.444 0c.261-.064.517-.18 1.028-.409.511-.23.767-.344 1.028-.409a3 3 0 011.444 0c.261.065.517.18 1.028.41.511.229.767.344 1.028.408a3 3 0 001.444 0c.261-.064.517-.18 1.028-.409.511-.23.767-.344 1.028-.409a3 3 0 011.444 0c.261.065.517.18 1.028.41L38 31v-3c0-3.771 0-5.657-1.172-6.828C35.657 20 33.771 20 30 20H18c-3.771 0-5.657 0-6.828 1.172C10 22.343 10 24.229 10 28v3z"/>
</svg>
