<svg xmlns="http://www.w3.org/2000/svg" width="48" height="48" fill="none" viewBox="0 0 48 48">
  <rect width="40" height="40" x="4" y="6" fill="#000" opacity=".2" rx="4"/>
  <g opacity=".4">
    <path fill="#000" d="M10 4a2 2 0 114 0v4a2 2 0 11-4 0V4zM34 4a2 2 0 114 0v4a2 2 0 11-4 0V4z"/>
  </g>
  <path fill="#000" fill-rule="evenodd" d="M10 6.009c-2.48.036-3.885.22-4.828 1.163C4 8.343 4 10.229 4 14v2h40v-2c0-3.771 0-5.657-1.172-6.828-.943-.944-2.348-1.127-4.828-1.163V8a2 2 0 11-4 0V6H14v2a2 2 0 11-4 0V6.009zM22.268 21c.77-1.333 2.694-1.333 3.464 0l10.392 18c.77 1.333-.192 3-1.732 3H13.607c-1.54 0-2.501-1.667-1.732-3l10.393-18zm.032 3.7a1.7 1.7 0 113.4 0v8.5a1.7 1.7 0 11-3.4 0v-8.5zM24 36.6a1.7 1.7 0 100 3.4 1.7 1.7 0 000-3.4z" clip-rule="evenodd"/>
</svg>
