<svg xmlns="http://www.w3.org/2000/svg" width="48" height="48" fill="none" viewBox="0 0 48 48">
  <rect width="38" height="38" x="5" y="5" fill="#000" opacity=".2" rx="4"/>
  <path fill="#000" d="M5 13c0-3.771 0-5.657 1.172-6.828C7.343 5 9.229 5 13 5h22c3.771 0 5.657 0 6.828 1.172C43 7.343 43 9.229 43 13v2H5v-2z"/>
  <path fill="#000" fill-rule="evenodd" d="M39 48a9 9 0 100-18 9 9 0 000 18zm1-15.75a1 1 0 10-2 0V39a1 1 0 001 1h4.05a1 1 0 100-2H40v-5.75z" clip-rule="evenodd"/>
  <path fill="#000" fill-rule="evenodd" d="M42.748 40h.302a1 1 0 000-2h-.085c-.033.784-.095 1.442-.217 2z" clip-rule="evenodd" opacity=".2"/>
</svg>
