<svg width="48" height="48" viewBox="0 0 48 48" fill="none" xmlns="http://www.w3.org/2000/svg">
<rect opacity="0.2" x="5" y="5" width="38" height="38" rx="4" fill="black"/>
<path d="M5 13C5 9.22876 5 7.34315 6.17157 6.17157C7.34315 5 9.22876 5 13 5H35C38.7712 5 40.6569 5 41.8284 6.17157C43 7.34315 43 9.22876 43 13V15H5V13Z" fill="black"/>
<path fill-rule="evenodd" clip-rule="evenodd" d="M17.5858 21.5858C18.3668 20.8047 19.6332 20.8047 20.4142 21.5858L25.4142 26.5858C26.1953 27.3668 26.1953 28.6332 25.4142 29.4142L20.4142 34.4142C19.6332 35.1953 18.3668 35.1953 17.5858 34.4142C16.8047 33.6332 16.8047 32.3668 17.5858 31.5858L19.1716 30H8C6.89543 30 6 29.1046 6 28C6 26.8954 6.89543 26 8 26H19.1716L17.5858 24.4142C16.8047 23.6332 16.8047 22.3668 17.5858 21.5858Z" fill="black"/>
</svg>
