<svg width="48" height="48" viewBox="0 0 48 48" fill="none" xmlns="http://www.w3.org/2000/svg">
<rect opacity="0.2" x="5" y="5" width="38" height="38" rx="4" fill="black"/>
<path d="M5 13C5 9.22876 5 7.34315 6.17157 6.17157C7.34315 5 9.22876 5 13 5H35C38.7712 5 40.6569 5 41.8284 6.17157C43 7.34315 43 9.22876 43 13V15H5V13Z" fill="black"/>
<path fill-rule="evenodd" clip-rule="evenodd" d="M33.5858 21.5858C34.3668 20.8047 35.6332 20.8047 36.4142 21.5858L41.4142 26.5858C42.1953 27.3668 42.1953 28.6332 41.4142 29.4142L36.4142 34.4142C35.6332 35.1953 34.3668 35.1953 33.5858 34.4142C32.8047 33.6332 32.8047 32.3668 33.5858 31.5858L35.1716 30H24C22.8954 30 22 29.1046 22 28C22 26.8954 22.8954 26 24 26H35.1716L33.5858 24.4142C32.8047 23.6332 32.8047 22.3668 33.5858 21.5858Z" fill="black"/>
</svg>
