<svg xmlns="http://www.w3.org/2000/svg" width="48" height="48" fill="none" viewBox="0 0 48 48">
  <rect width="38" height="38" x="5" y="5" fill="#000" opacity=".2" rx="4"/>
  <path fill="#000" d="M5 13c0-3.771 0-5.657 1.172-6.828C7.343 5 9.229 5 13 5h22c3.771 0 5.657 0 6.828 1.172C43 7.343 43 9.229 43 13v2H5v-2zM24 28l1.414 1.414a2 2 0 000-2.828L24 28zM8 26a2 2 0 100 4v-4zm9.586 5.586a2 2 0 102.828 2.828l-2.828-2.828zm2.828-10a2 2 0 10-2.828 2.828l2.828-2.828zM24 26H8v4h16v-4zm-1.414.586l-5 5 2.828 2.828 5-5-2.828-2.828zm2.828 0l-5-5-2.828 2.828 5 5 2.828-2.828z"/>
</svg>
