<svg xmlns="http://www.w3.org/2000/svg" width="48" height="48" fill="none" viewBox="0 0 48 48">
  <rect width="38" height="38" x="5" y="5" fill="#000" opacity=".2" rx="4"/>
  <path fill="#000" d="M5 13c0-3.771 0-5.657 1.172-6.828C7.343 5 9.229 5 13 5h22c3.771 0 5.657 0 6.828 1.172C43 7.343 43 9.229 43 13v2H5v-2z"/>
  <rect width="4" height="4" x="10" y="27" fill="#000" opacity=".6" rx="1"/>
  <rect width="4" height="4" x="10" y="35" fill="#000" opacity=".6" rx="1"/>
  <rect width="4" height="4" x="18" y="19" fill="#000" opacity=".6" rx="1"/>
  <rect width="4" height="4" x="18" y="27" fill="#000" opacity=".6" rx="1"/>
  <rect width="4" height="4" x="18" y="35" fill="#000" opacity=".6" rx="1"/>
  <rect width="4" height="4" x="26" y="19" fill="#000" opacity=".6" rx="1"/>
  <rect width="4" height="4" x="26" y="27" fill="#000" rx="1"/>
  <rect width="4" height="4" x="26" y="35" fill="#000" opacity=".6" rx="1"/>
  <rect width="4" height="4" x="34" y="19" fill="#000" opacity=".6" rx="1"/>
  <rect width="4" height="4" x="34" y="27" fill="#000" opacity=".6" rx="1"/>
</svg>
