<svg width="48" height="48" viewBox="0 0 48 48" fill="none" xmlns="http://www.w3.org/2000/svg">
<g id="misc/coffee">
<g id="Group 38">
<path id="Subtract" opacity="0.4" d="M39.3368 21.4374C31.6646 15.4533 10.3353 15.5801 2.66316 21.5642C2.22478 21.9062 2 22.4442 2 23.0002L2 26.0002C2 36.4936 10.5066 45.0002 21 45.0002C31.4934 45.0002 40 36.4876 40 25.9942C40 24.6586 40 23.5666 40 22.8726C40 22.3166 39.7752 21.7794 39.3368 21.4374Z" fill="black"/>
<ellipse id="Ellipse 48" cx="20.95" cy="22.4903" rx="15.95" ry="4.49032" fill="black"/>
</g>
<g id="Vector" opacity="0.4">
<path fill-rule="evenodd" clip-rule="evenodd" d="M18.1759 4.29291C18.5665 3.90238 19.1996 3.90238 19.5902 4.29291C20.0366 4.73939 20.5625 5.52151 20.7201 6.48934C20.8877 7.51918 20.6206 8.67666 19.5902 9.70712C19.071 10.2263 18.9346 10.8819 19.0252 11.5999C19.1186 12.3405 19.4487 13.0457 19.7151 13.4453C20.0215 13.9048 19.8973 14.5257 19.4378 14.8321C18.9782 15.1384 18.3574 15.0142 18.051 14.5547C17.6507 13.9543 17.1808 12.9595 17.0409 11.8501C16.8981 10.7182 17.0951 9.37371 18.1759 8.29291C18.7455 7.72337 18.8117 7.21418 18.746 6.81069C18.6703 6.34518 18.3961 5.9273 18.1759 5.70712C17.7854 5.31659 17.7854 4.68343 18.1759 4.29291Z" fill="black"/>
<path fill-rule="evenodd" clip-rule="evenodd" d="M24.749 2.33793C24.3834 1.92403 23.7514 1.88492 23.3375 2.25058C22.8452 2.68554 22.2377 3.47179 22.054 4.46879C21.8544 5.55199 22.1857 6.73189 23.3375 7.74944C23.9336 8.27604 24.0682 8.90841 23.9718 9.58368C23.8693 10.3015 23.5041 10.9965 23.2014 11.3977C22.8687 11.8385 22.9564 12.4656 23.3972 12.7982C23.8381 13.1309 24.4652 13.0432 24.7978 12.6024C25.2497 12.0035 25.7901 10.9985 25.9517 9.86635C26.1194 8.69161 25.8767 7.32398 24.6617 6.25058C24.0024 5.66813 23.9564 5.18137 24.0209 4.83123C24.1013 4.3949 24.3994 3.98115 24.6617 3.74944C25.0756 3.38379 25.1147 2.75183 24.749 2.33793Z" fill="black"/>
</g>
<path id="Subtract_2" opacity="0.4" fill-rule="evenodd" clip-rule="evenodd" d="M38.7968 21.041C38.9837 21.17 39.164 21.302 39.3373 21.4372C39.7757 21.7791 40.0005 22.3163 40.0005 22.8723V25.6103C41.1445 26.297 41.9101 27.5497 41.9101 28.9811C41.9101 30.8946 40.542 32.4885 38.7307 32.8382C38.18 34.2643 37.4623 35.6074 36.6016 36.8434C37.0499 36.9215 37.511 36.9623 37.9816 36.9623C42.3895 36.9623 45.9628 33.389 45.9628 28.9811C45.9628 24.8484 42.8218 21.4493 38.7968 21.041Z" fill="black"/>
</g>
</svg>
