<svg width="195" height="41" viewBox="0 0 195 41" fill="none" xmlns="http://www.w3.org/2000/svg">
<path opacity="0.2" d="M0 8C0 3.58172 3.49218 0 7.8 0H187.2C191.508 0 195 3.58172 195 8V33C195 37.4183 191.508 41 187.2 41H7.8C3.49218 41 0 37.4183 0 33V8Z" fill="#D49675"/>
<g opacity="0.6">
<path d="M32.6533 23.7676C33.0741 23.9181 33.5275 24 34 24C36.2091 24 38 22.2091 38 20C38 17.7909 36.2091 16 34 16V17.9988C34 18.0096 34 18.0204 34 18.0311C35.0873 18.0311 35.9689 18.9126 35.9689 20C35.9689 21.0874 35.0874 21.9689 34 21.9689C33.7948 21.9689 33.597 21.9375 33.411 21.8792C33.2071 22.5323 32.953 23.1633 32.6533 23.7676Z" fill="#D49675"/>
<path d="M33.3283 13.9339C27.9431 10.022 14.0569 10.022 8.67175 13.9339C8.22194 14.2607 8.00001 14.7999 8.00001 15.3558L8 18.0009C7.99998 25.1806 13.8203 31 21 31C28.1797 31 34 25.1785 34 17.9988V15.3532C34 14.7972 33.7781 14.2607 33.3283 13.9339Z" fill="#D49675"/>
</g>
<path d="M32 15.0001C32 16.7104 27.0751 18.0969 21 18.0969C14.9249 18.0969 10 16.7104 10 15.0001C10 13.2898 14.9249 11.9033 21 11.9033C27.0751 11.9033 32 13.2898 32 15.0001Z" fill="#D49675"/>
<path d="M47.4308 27.5H53.0238C55.9641 27.5 57.5302 25.9659 57.5302 23.8821C57.5302 21.9453 56.1431 20.7756 54.6538 20.7053V20.5774C56.0153 20.2706 57.0188 19.3054 57.0188 17.7649C57.0188 15.8026 55.5614 14.4091 52.6722 14.4091H47.4308V27.5ZM50.1985 25.2372V21.7599H52.5188C53.8484 21.7599 54.6729 22.527 54.6729 23.6072C54.6729 24.5916 54.0018 25.2372 52.4549 25.2372H50.1985ZM50.1985 19.8871V16.6463H52.3015C53.5288 16.6463 54.2255 17.2791 54.2255 18.2251C54.2255 19.2607 53.3817 19.8871 52.2504 19.8871H50.1985ZM65.5762 23.3196C65.5826 24.6364 64.6813 25.3267 63.7033 25.3267C62.6742 25.3267 62.0094 24.6044 62.003 23.4474V17.6818H59.28V23.9332C59.2864 26.228 60.6287 27.6278 62.6039 27.6278C64.0804 27.6278 65.1415 26.8672 65.5826 25.7166H65.6848V27.5H68.2992V17.6818H65.5762V23.3196ZM72.1584 31.1818C74.1847 31.1818 75.2585 30.1463 75.8146 28.5611L79.6307 17.6946L76.7479 17.6818L74.696 24.892H74.5938L72.5611 17.6818H69.6974L73.2195 27.7812L73.0597 28.1967C72.7017 29.1172 72.0178 29.1619 71.0589 28.8679L70.4453 30.9006C70.8352 31.0668 71.468 31.1818 72.1584 31.1818ZM85.1902 27.5H87.9132V21.6065C87.9132 20.5199 88.6035 19.7976 89.5112 19.7976C90.4061 19.7976 91.0069 20.4112 91.0069 21.3764V27.5H93.6468V21.5043C93.6468 20.4879 94.2285 19.7976 95.2193 19.7976C96.0886 19.7976 96.7406 20.3409 96.7406 21.4339V27.5H99.4572V20.897C99.4572 18.7685 98.1916 17.554 96.3635 17.554C94.9252 17.554 93.8066 18.2891 93.4039 19.4141H93.3017C92.9885 18.2763 91.9849 17.554 90.6362 17.554C89.313 17.554 88.3095 18.2571 87.9004 19.4141H87.7853V17.6818H85.1902V27.5ZM106.083 27.6918C108.512 27.6918 110.148 26.5092 110.531 24.6875L108.013 24.5213C107.738 25.2692 107.035 25.6591 106.127 25.6591C104.766 25.6591 103.903 24.7578 103.903 23.294V23.2876H110.589V22.5398C110.589 19.2031 108.569 17.554 105.974 17.554C103.085 17.554 101.212 19.6058 101.212 22.6357C101.212 25.7486 103.059 27.6918 106.083 27.6918ZM103.903 21.6001C103.96 20.4815 104.811 19.5866 106.019 19.5866C107.201 19.5866 108.019 20.4304 108.026 21.6001H103.903ZM119.332 27.6854C120.783 27.6854 121.722 27.0526 122.202 26.1385H122.278V27.5H124.861V20.8778C124.861 18.5384 122.879 17.554 120.693 17.554C118.341 17.554 116.794 18.679 116.417 20.4688L118.935 20.6733C119.121 20.0213 119.702 19.5419 120.68 19.5419C121.607 19.5419 122.138 20.0085 122.138 20.8139V20.8523C122.138 21.4851 121.467 21.5682 119.76 21.7344C117.817 21.9134 116.072 22.5653 116.072 24.7578C116.072 26.701 117.459 27.6854 119.332 27.6854ZM120.112 25.8061C119.274 25.8061 118.673 25.4162 118.673 24.6683C118.673 23.9013 119.306 23.5241 120.265 23.3899C120.859 23.3068 121.831 23.1662 122.157 22.9489V23.9908C122.157 25.0199 121.307 25.8061 120.112 25.8061ZM135.575 27.6918C138.19 27.6918 139.833 26.1577 139.96 23.9013H137.391C137.231 24.9496 136.541 25.5376 135.607 25.5376C134.335 25.5376 133.511 24.4702 133.511 22.5909C133.511 20.7372 134.342 19.6761 135.607 19.6761C136.605 19.6761 137.244 20.3345 137.391 21.3125H139.96C139.845 19.0433 138.126 17.554 135.563 17.554C132.584 17.554 130.743 19.6186 130.743 22.6293C130.743 25.6143 132.552 27.6918 135.575 27.6918ZM146.14 27.6918C149.119 27.6918 150.972 25.6527 150.972 22.6293C150.972 19.5866 149.119 17.554 146.14 17.554C143.161 17.554 141.308 19.5866 141.308 22.6293C141.308 25.6527 143.161 27.6918 146.14 27.6918ZM146.153 25.5824C144.778 25.5824 144.075 24.3232 144.075 22.6101C144.075 20.897 144.778 19.6314 146.153 19.6314C147.501 19.6314 148.205 20.897 148.205 22.6101C148.205 24.3232 147.501 25.5824 146.153 25.5824ZM158.023 17.6818H156.073V17.0234C156.073 16.3587 156.342 15.9688 157.141 15.9688C157.467 15.9688 157.799 16.0391 158.016 16.1094L158.496 14.0639C158.157 13.9616 157.409 13.7955 156.572 13.7955C154.724 13.7955 153.35 14.8374 153.35 16.9723V17.6818H151.963V19.7273H153.35V27.5H156.073V19.7273H158.023V17.6818ZM164.966 17.6818H163.017V17.0234C163.017 16.3587 163.285 15.9688 164.084 15.9688C164.41 15.9688 164.742 16.0391 164.96 16.1094L165.439 14.0639C165.1 13.9616 164.352 13.7955 163.515 13.7955C161.668 13.7955 160.294 14.8374 160.294 16.9723V17.6818H158.906V19.7273H160.294V27.5H163.017V19.7273H164.966V17.6818ZM170.752 27.6918C173.181 27.6918 174.818 26.5092 175.201 24.6875L172.683 24.5213C172.408 25.2692 171.705 25.6591 170.797 25.6591C169.436 25.6591 168.573 24.7578 168.573 23.294V23.2876H175.259V22.5398C175.259 19.2031 173.239 17.554 170.644 17.554C167.755 17.554 165.882 19.6058 165.882 22.6357C165.882 25.7486 167.729 27.6918 170.752 27.6918ZM168.573 21.6001C168.63 20.4815 169.48 19.5866 170.689 19.5866C171.871 19.5866 172.689 20.4304 172.696 21.6001H168.573ZM181.51 27.6918C183.939 27.6918 185.576 26.5092 185.959 24.6875L183.441 24.5213C183.166 25.2692 182.463 25.6591 181.555 25.6591C180.194 25.6591 179.331 24.7578 179.331 23.294V23.2876H186.017V22.5398C186.017 19.2031 183.997 17.554 181.402 17.554C178.512 17.554 176.64 19.6058 176.64 22.6357C176.64 25.7486 178.487 27.6918 181.51 27.6918ZM179.331 21.6001C179.388 20.4815 180.238 19.5866 181.446 19.5866C182.629 19.5866 183.447 20.4304 183.453 21.6001H179.331Z" fill="#D49675"/>
</svg>
