<svg width="31" height="20" viewBox="0 0 31 20" fill="none" xmlns="http://www.w3.org/2000/svg">
<g opacity="0.6">
<path d="M25.5673 12.7676C25.9881 12.9181 26.4415 13 26.9141 13C29.1232 13 30.9141 11.2091 30.9141 8.99999C30.9141 6.79086 29.1232 5 26.9141 4.99999V6.99881C26.9141 7.00959 26.9141 7.02036 26.914 7.03113V7.03113C28.0014 7.03113 28.8829 7.91262 28.8829 8.99999C28.8829 10.0874 28.0014 10.9689 26.9141 10.9689C26.7089 10.9689 26.5111 10.9375 26.3251 10.8792C26.1211 11.5323 25.867 12.1633 25.5673 12.7676Z" fill="black"/>
<path d="M26.2423 2.93392C20.8571 -0.977973 6.97096 -0.977974 1.58581 2.93392C1.136 3.26067 0.914073 3.79987 0.91407 4.35583L0.914063 7.00089C0.914046 14.1806 6.73436 20 13.914 20C21.0937 20 26.9141 14.1785 26.9141 6.99881V4.35321C26.9141 3.79724 26.6921 3.26067 26.2423 2.93392Z" fill="black"/>
</g>
<path d="M24.9141 4.0001C24.9141 5.7104 19.9892 7.09687 13.9141 7.09687C7.83893 7.09687 2.91406 5.7104 2.91406 4.0001C2.91406 2.28979 7.83893 0.90332 13.9141 0.90332C19.9892 0.90332 24.9141 2.28979 24.9141 4.0001Z" fill="black"/>
</svg>
