<svg width="48" height="48" viewBox="0 0 48 48" fill="none" xmlns="http://www.w3.org/2000/svg">
<g id="misc/coffee-simple">
<rect id="Rectangle 48" opacity="0.2" x="5" y="5" width="38" height="38" rx="4" fill="black"/>
<g id="Group 38">
<path id="Subtract" opacity="0.6" fill-rule="evenodd" clip-rule="evenodd" d="M35.6533 27.7676C36.0741 27.9181 36.5275 28 37.0001 28C39.2092 28 41.0001 26.2091 41.0001 24C41.0001 21.7909 39.2092 20 37.0001 20V21.9988C37.0001 22.0096 37 22.0204 37 22.0311C37 22.0311 37 22.0311 37.0001 22.0311C38.0874 22.0311 38.9689 22.9126 38.9689 24C38.9689 25.0874 38.0874 25.9689 37.0001 25.9689C36.7949 25.9689 36.5971 25.9375 36.4111 25.8793C36.2071 26.5323 35.953 27.1633 35.6533 27.7676Z" fill="black"/>
<path id="Vector 66" opacity="0.6" d="M36.3283 17.9339C30.9431 14.022 17.0569 14.022 11.6718 17.9339C11.2219 18.2607 11 18.7999 11 19.3558L11 22.0009C11 29.1806 16.8203 35 24 35C31.1797 35 37 29.1785 37 21.9988V19.3532C37 18.7972 36.7781 18.2607 36.3283 17.9339Z" fill="black"/>
<ellipse id="Ellipse 48" cx="24" cy="19.0001" rx="11" ry="3.09677" fill="black"/>
</g>
</g>
</svg>
