<svg width="48" height="48" viewBox="0 0 48 48" fill="none" xmlns="http://www.w3.org/2000/svg">
<g id="misc/construction">
<rect id="Rectangle 1" opacity="0.2" x="5" y="5" width="38" height="38" rx="4" fill="black"/>
<path id="Intersect" fill-rule="evenodd" clip-rule="evenodd" d="M22.8274 5H13C9.22876 5 7.34315 5 6.17157 6.17157C5 7.34315 5 9.22876 5 13V22.8274L22.8274 5ZM19.0133 43H13C9.22876 43 7.34315 43 6.17157 41.8284C5.69891 41.3558 5.41694 40.7669 5.24873 39.9848L39.9848 5.24873C40.7669 5.41694 41.3558 5.69891 41.8284 6.17157C43 7.34315 43 9.22876 43 13V19.0133L19.0133 43ZM43 35L35 43C38.7712 43 40.6569 43 41.8284 41.8284C43 40.6569 43 38.7712 43 35Z" fill="black"/>
</g>
</svg>
