<svg xmlns="http://www.w3.org/2000/svg" width="48" height="48" fill="none" viewBox="0 0 48 48">
  <rect width="40" height="40" x="4" y="6" fill="#000" opacity=".2" rx="4"/>
  <path fill="#000" d="M7.177 21.546V39h3.58V27.597h.145l4.517 11.318h2.437l4.517-11.276h.145V39h3.58V21.546h-4.551L16.74 33.273h-.205l-4.807-11.728h-4.55zm27.808 17.71c3.971 0 6.443-2.72 6.443-6.75 0-4.057-2.472-6.767-6.443-6.767-3.972 0-6.444 2.71-6.444 6.767 0 4.03 2.472 6.75 6.444 6.75zm.017-2.813c-1.833 0-2.77-1.679-2.77-3.963s.937-3.971 2.77-3.971c1.798 0 2.736 1.687 2.736 3.971s-.938 3.963-2.736 3.963z"/>
  <g opacity=".4">
    <path fill="#000" d="M10 4a2 2 0 114 0v4a2 2 0 11-4 0V4zM34 4a2 2 0 114 0v4a2 2 0 11-4 0V4z"/>
  </g>
  <path fill="#000" fill-rule="evenodd" d="M10 6.009c-2.48.036-3.885.22-4.828 1.163C4 8.343 4 10.229 4 14v2h40v-2c0-3.771 0-5.657-1.172-6.828-.943-.944-2.348-1.127-4.828-1.163V8a2 2 0 11-4 0V6H14v2a2 2 0 11-4 0V6.009z" clip-rule="evenodd"/>
</svg>
