<svg xmlns="http://www.w3.org/2000/svg" width="48" height="48" fill="none" viewBox="0 0 48 48">
  <rect width="38" height="38" x="5" y="5" fill="#000" opacity=".2" rx="4"/>
  <path fill="#000" d="M5 13c0-3.771 0-5.657 1.172-6.828C7.343 5 9.229 5 13 5h22c3.771 0 5.657 0 6.828 1.172C43 7.343 43 9.229 43 13v2H5v-2zM20.801 25.638h2.948c-.043-2.593-2.173-4.382-5.412-4.382-3.19 0-5.526 1.761-5.511 4.403-.008 2.145 1.505 3.374 3.962 3.963l1.584.398c1.584.383 2.465.838 2.472 1.818-.007 1.065-1.016 1.79-2.578 1.79-1.598 0-2.749-.739-2.848-2.195h-2.976c.078 3.147 2.33 4.773 5.86 4.773 3.55 0 5.639-1.698 5.646-4.36-.008-2.423-1.833-3.708-4.361-4.276l-1.307-.313c-1.264-.291-2.322-.76-2.301-1.804 0-.937.83-1.626 2.337-1.626 1.47 0 2.372.667 2.485 1.81zm8.27 10.568c1.611 0 2.655-.703 3.188-1.719h.085V36h2.87v-7.358c0-2.6-2.202-3.693-4.631-3.693-2.614 0-4.332 1.25-4.752 3.238l2.799.228c.206-.725.852-1.257 1.939-1.257 1.03 0 1.619.518 1.619 1.413v.043c0 .703-.746.795-2.642.98-2.16.199-4.098.923-4.098 3.36 0 2.158 1.541 3.252 3.622 3.252zm.866-2.088c-.93 0-1.598-.433-1.598-1.264 0-.853.703-1.272 1.768-1.42.66-.093 1.74-.25 2.102-.49V32.1c0 1.143-.944 2.017-2.272 2.017z"/>
</svg>
