<svg xmlns="http://www.w3.org/2000/svg" width="48" height="48" fill="none" viewBox="0 0 48 48">
  <rect width="38" height="38" x="5" y="5" fill="#000" opacity=".2" rx="4"/>
  <path fill="#000" d="M5 13c0-3.771 0-5.657 1.172-6.828C7.343 5 9.229 5 13 5h22c3.771 0 5.657 0 6.828 1.172C43 7.343 43 9.229 43 13v2H5v-2zM11.79 23.99h4.453V36h3.04V23.99h4.453v-2.535H11.79v2.535zm16.882 5.703c.008-1.406.867-2.23 2.103-2.23 1.228 0 1.953.788 1.946 2.13V36h3.025v-6.946c.007-2.557-1.498-4.105-3.771-4.105-1.655 0-2.763.781-3.26 2.067h-.128v-5.561h-2.94V36h3.025v-6.307z"/>
</svg>
