<svg xmlns="http://www.w3.org/2000/svg" width="48" height="48" fill="none" viewBox="0 0 48 48">
  <rect width="38" height="38" x="5" y="5" fill="#000" opacity=".2" rx="4"/>
  <path fill="#000" d="M5 13c0-3.771 0-5.657 1.172-6.828C7.343 5 9.229 5 13 5h22c3.771 0 5.657 0 6.828 1.172C43 7.343 43 9.229 43 13v2H5v-2zM20.381 25.638h2.948c-.043-2.593-2.174-4.382-5.412-4.382-3.189 0-5.526 1.761-5.512 4.403-.007 2.145 1.506 3.374 3.964 3.963l1.583.398c1.584.383 2.465.838 2.472 1.818-.007 1.065-1.016 1.79-2.578 1.79-1.598 0-2.749-.739-2.848-2.195h-2.976c.078 3.147 2.33 4.773 5.86 4.773 3.55 0 5.639-1.698 5.646-4.36-.007-2.423-1.833-3.708-4.361-4.276l-1.307-.313c-1.264-.291-2.322-.76-2.301-1.804 0-.937.83-1.626 2.337-1.626 1.47 0 2.372.667 2.485 1.81zm12.154 5.717c.007 1.463-.994 2.23-2.08 2.23-1.144 0-1.883-.802-1.89-2.088v-6.406h-3.026v6.946c.008 2.55 1.499 4.105 3.694 4.105 1.64 0 2.82-.845 3.31-2.123h.113V36h2.905V25.09h-3.026v6.265z"/>
</svg>
