<svg xmlns="http://www.w3.org/2000/svg" width="48" height="48" fill="none" viewBox="0 0 48 48">
  <rect width="40" height="40" x="4" y="6" fill="#000" opacity=".2" rx="4"/>
  <path fill="#000" d="M10.262 24.588h5.344V39h3.648V24.588h5.344v-3.043H10.262v3.043zm23.242 8.838c.008 1.756-1.193 2.676-2.497 2.676-1.372 0-2.259-.963-2.267-2.505v-7.688h-3.631v8.335c.008 3.06 1.798 4.926 4.432 4.926 1.969 0 3.383-1.014 3.971-2.548h.137V39h3.486V25.91h-3.631v7.516z"/>
  <g opacity=".4">
    <path fill="#000" d="M10 4a2 2 0 114 0v4a2 2 0 11-4 0V4zM34 4a2 2 0 114 0v4a2 2 0 11-4 0V4z"/>
  </g>
  <path fill="#000" fill-rule="evenodd" d="M10 6.009c-2.48.036-3.885.22-4.828 1.163C4 8.343 4 10.229 4 14v2h40v-2c0-3.771 0-5.657-1.172-6.828-.943-.944-2.348-1.127-4.828-1.163V8a2 2 0 11-4 0V6H14v2a2 2 0 11-4 0V6.009z" clip-rule="evenodd"/>
</svg>
