<svg width="48" height="48" viewBox="0 0 48 48" fill="none" xmlns="http://www.w3.org/2000/svg">
<rect opacity="0.2" x="5" y="5" width="38" height="38" rx="4" fill="black"/>
<path d="M5 13C5 9.22876 5 7.34315 6.17157 6.17157C7.34315 5 9.22876 5 13 5H35C38.7712 5 40.6569 5 41.8284 6.17157C43 7.34315 43 9.22876 43 13V15H5V13Z" fill="black"/>
<path d="M15.4107 36H18.486V29.9915H24.4022V27.456H18.486V23.9901H25.0414V21.4545H15.4107V36ZM26.8773 36H29.9029V29.8281C29.9029 28.4858 30.883 27.5625 32.2182 27.5625C32.6373 27.5625 33.2125 27.6335 33.4966 27.7259V25.0412C33.2267 24.9773 32.8503 24.9347 32.5449 24.9347C31.3233 24.9347 30.3219 25.6449 29.9242 26.9943H29.8105V25.0909H26.8773V36Z" fill="black"/>
</svg>
