<svg xmlns="http://www.w3.org/2000/svg" width="48" height="48" fill="none" viewBox="0 0 48 48">
  <rect width="40" height="40" x="4" y="6" fill="#000" opacity=".2" rx="4"/>
  <path fill="#000" d="M19.658 26.565h3.537c-.052-3.11-2.608-5.258-6.495-5.258-3.826 0-6.63 2.114-6.613 5.284-.009 2.574 1.806 4.048 4.755 4.756l1.9.477c1.901.46 2.958 1.006 2.967 2.182-.009 1.278-1.219 2.147-3.094 2.147-1.918 0-3.298-.886-3.418-2.633h-3.57c.093 3.775 2.795 5.727 7.03 5.727 4.262 0 6.768-2.037 6.776-5.233-.008-2.906-2.199-4.449-5.233-5.13l-1.568-.375c-1.517-.35-2.787-.912-2.761-2.165 0-1.125.997-1.952 2.804-1.952 1.764 0 2.846.801 2.983 2.173zm14.584 6.861c.009 1.756-1.193 2.676-2.497 2.676-1.372 0-2.259-.963-2.267-2.505v-7.688h-3.63v8.335c.008 3.06 1.798 4.926 4.431 4.926 1.969 0 3.384-1.014 3.972-2.548h.136V39h3.486V25.91h-3.63v7.516z"/>
  <g opacity=".4">
    <path fill="#000" d="M10 4a2 2 0 114 0v4a2 2 0 11-4 0V4zM34 4a2 2 0 114 0v4a2 2 0 11-4 0V4z"/>
  </g>
  <path fill="#000" fill-rule="evenodd" d="M10 6.009c-2.48.036-3.885.22-4.828 1.163C4 8.343 4 10.229 4 14v2h40v-2c0-3.771 0-5.657-1.172-6.828-.943-.944-2.348-1.127-4.828-1.163V8a2 2 0 11-4 0V6H14v2a2 2 0 11-4 0V6.009z" clip-rule="evenodd"/>
</svg>
