<svg xmlns="http://www.w3.org/2000/svg" width="48" height="48" fill="none" viewBox="0 0 48 48">
  <rect width="38" height="38" x="5" y="5" fill="#000" opacity=".2" rx="4"/>
  <path fill="#000" d="M5 13c0-3.771 0-5.657 1.172-6.828C7.343 5 9.229 5 13 5h22c3.771 0 5.657 0 6.828 1.172C43 7.343 43 9.229 43 13v2H5v-2zM15.41 36h3.076v-6.009h5.916v-2.535h-5.916V23.99h6.555v-2.535h-9.63V36zm11.467 0h3.026v-6.172c0-1.342.98-2.265 2.315-2.265.42 0 .994.07 1.279.163V25.04a4.542 4.542 0 00-.952-.106c-1.222 0-2.223.71-2.62 2.06h-.114V25.09h-2.934V36z"/>
</svg>
