<svg xmlns="http://www.w3.org/2000/svg" width="48" height="48" fill="none" viewBox="0 0 48 48">
  <rect width="38" height="38" x="5" y="5" fill="#000" opacity=".2" rx="4"/>
  <path fill="#000" d="M5 13c0-3.771 0-5.657 1.172-6.828C7.343 5 9.229 5 13 5h22c3.771 0 5.657 0 6.828 1.172C43 7.343 43 9.229 43 13v2H5v-2zM12.786 36h2.998l2.762-9.51h.114L21.43 36h2.997l4.162-14.546h-3.36l-2.407 10.128h-.128l-2.65-10.128H17.17l-2.657 10.107h-.12l-2.408-10.107h-3.36L12.786 36zm21.192.213c2.699 0 4.517-1.314 4.943-3.338l-2.798-.185c-.306.831-1.087 1.265-2.095 1.265-1.513 0-2.472-1.002-2.472-2.628v-.007h7.429v-.831c0-3.708-2.244-5.54-5.128-5.54-3.21 0-5.291 2.28-5.291 5.646 0 3.459 2.052 5.618 5.412 5.618zm-2.422-6.768c.064-1.243 1.009-2.238 2.35-2.238 1.315 0 2.224.938 2.23 2.238h-4.58z"/>
</svg>
