<svg width="48" height="48" viewBox="0 0 48 48" fill="none" xmlns="http://www.w3.org/2000/svg">
<g id="arrows/entering-up-right-alt">
<rect id="Rectangle 37" opacity="0.2" x="5" y="43" width="38" height="38" rx="4" transform="rotate(-90 5 43)" fill="black"/>
<path id="Intersect" fill-rule="evenodd" clip-rule="evenodd" d="M14.274 17.9984C12.6172 17.9984 11.274 19.3416 11.274 20.9984C11.274 22.6553 12.6172 23.9984 14.274 23.9984L19.7593 23.9984L5.07422 38.6835C5.18608 40.1604 5.46687 41.1237 6.17172 41.8285C6.87661 42.5334 7.83997 42.8142 9.31698 42.926L24.0019 28.2411L24.0019 33.7264C24.0019 35.3832 25.3451 36.7264 27.0019 36.7264C28.6588 36.7264 30.0019 35.3832 30.0019 33.7264L30.0019 20.9984C30.0019 19.3416 28.6588 17.9984 27.0019 17.9984L14.274 17.9984Z" fill="black"/>
</g>
</svg>
