<svg xmlns="http://www.w3.org/2000/svg" width="48" height="48" fill="none" viewBox="0 0 48 48">
  <rect width="38" height="38" x="5" y="5" fill="#000" opacity=".2" rx="4"/>
  <rect width="31" height="16" x="7" y="14" fill="#000" opacity=".2" rx="4"/>
  <path fill="#000" d="M3.531 19.499c-.249-3.984-.373-5.977.812-7.238C5.527 11 7.523 11 11.515 11h.76c1.763 0 2.645 0 3.425.35.78.348 1.367 1.006 2.542 2.322l2.371 2.656c1.175 1.316 1.762 1.974 2.542 2.323.78.349 1.662.349 3.426.349h9.724c4.068 0 6.102 0 7.29 1.292 1.189 1.291 1.02 3.318.682 7.372l-.667 8c-.29 3.482-.435 5.223-1.583 6.28C40.88 43 39.133 43 35.638 43H12.517c-3.562 0-5.342 0-6.497-1.085-1.155-1.084-1.266-2.862-1.488-6.416l-1-16z"/>
</svg>
