<svg width="48" height="48" viewBox="0 0 48 48" fill="none" xmlns="http://www.w3.org/2000/svg">
<rect opacity="0.2" x="5" y="5" width="38" height="38" rx="4" fill="black"/>
<path opacity="0.6" d="M11 23C11 21.3431 12.3431 20 14 20C15.6569 20 17 21.3431 17 23V29C17 30.6569 15.6569 32 14 32C12.3431 32 11 30.6569 11 29V23Z" fill="black"/>
<path opacity="0.6" d="M21 17C21 15.3431 22.3431 14 24 14C25.6569 14 27 15.3431 27 17V29C27 30.6569 25.6569 32 24 32C22.3431 32 21 30.6569 21 29V17Z" fill="black"/>
<path opacity="0.6" d="M31 13C31 11.3431 32.3431 10 34 10C35.6569 10 37 11.3431 37 13V29C37 30.6569 35.6569 32 34 32C32.3431 32 31 30.6569 31 29V13Z" fill="black"/>
<path d="M5 35H43V36C43 39.2998 43 40.9497 41.9749 41.9749C40.9497 43 39.2998 43 36 43H13C9.22876 43 7.34315 43 6.17157 41.8284C5 40.6569 5 38.7712 5 35Z" fill="black"/>
</svg>
