<svg xmlns="http://www.w3.org/2000/svg" width="48" height="48" fill="none" viewBox="0 0 48 48">
  <path fill="#000" d="M8.355 29.21C9.902 31.376 16.32 33 24 33c7.681 0 14.098-1.624 15.645-3.79.232.363.355.738.355 1.123v9.334C40 42.612 32.837 45 24 45S8 42.612 8 39.667v-9.334c0-.385.122-.76.355-1.123z" opacity=".4"/>
  <g opacity=".8">
    <path fill="#000" d="M40 19.8c0 2.651-7.163 4.8-16 4.8S8 22.451 8 19.8 15.163 15 24 15s16 2.149 16 4.8z"/>
    <path fill="#000" d="M40 28.2c0 2.651-7.163 4.8-16 4.8S8 30.851 8 28.2s7.163-4.8 16-4.8 16 2.149 16 4.8z"/>
    <path fill="#000" d="M8 19.8h32v8.4H8v-8.4z"/>
  </g>
  <path fill="#000" fill-rule="evenodd" d="M40 8.333v9.334C40 20.612 32.837 23 24 23S8 20.612 8 17.667V8.333c0-.152.02-.303.057-.452C8.745 10.188 15.62 12 24 12c8.38 0 15.255-1.812 15.943-4.119.038.15.057.3.057.452z" clip-rule="evenodd"/>
  <ellipse cx="24" cy="7.5" fill="#000" opacity=".8" rx="16" ry="4.5"/>
</svg>
