<svg xmlns="http://www.w3.org/2000/svg" width="48" height="48" fill="none" viewBox="0 0 48 48">
  <rect width="38" height="38" x="5" y="5" fill="#000" opacity=".2" rx="4"/>
  <rect width="30" height="25" x="9" y="10" fill="#000" opacity=".6" rx="4"/>
  <path fill="#000" d="M3.178 29.035c-.549-4.209-.823-6.313.372-7.674C4.745 20 6.867 20 11.11 20h2.659c1.038 0 1.557 0 2.053.13.497.13.95.383 1.855.89l3.5 1.96c.906.507 1.36.76 1.856.89.497.13 1.015.13 2.053.13h11.55c4.35 0 6.525 0 7.723 1.401 1.197 1.402.858 3.55.18 7.847l-.474 3c-.509 3.223-.763 4.834-1.886 5.793-1.122.959-2.753.959-6.016.959h-24.14c-3.346 0-5.019 0-6.151-.994-1.132-.994-1.349-2.653-1.782-5.971l-.913-7z"/>
</svg>
