<svg width="48" height="48" viewBox="0 0 48 48" fill="none" xmlns="http://www.w3.org/2000/svg">
<rect opacity="0.2" x="5" y="5" width="38" height="38" rx="4" fill="black"/>
<path d="M11 26C11 24.3431 12.3431 23 14 23C15.6569 23 17 24.3431 17 26V34C17 35.6569 15.6569 37 14 37C12.3431 37 11 35.6569 11 34V26Z" fill="black"/>
<path d="M21 19C21 17.3431 22.3431 16 24 16C25.6569 16 27 17.3431 27 19V34C27 35.6569 25.6569 37 24 37C22.3431 37 21 35.6569 21 34V19Z" fill="black"/>
<path d="M31 14C31 12.3431 32.3431 11 34 11C35.6569 11 37 12.3431 37 14V34C37 35.6569 35.6569 37 34 37C32.3431 37 31 35.6569 31 34V14Z" fill="black"/>
</svg>
