<svg xmlns="http://www.w3.org/2000/svg" width="48" height="48" fill="none" viewBox="0 0 48 48">
  <rect width="38" height="38" x="5" y="5" fill="#000" opacity=".2" rx="4"/>
  <g opacity=".6">
    <path fill="#000" d="M35 20.733c0 2.062-4.925 3.734-11 3.734s-11-1.672-11-3.734C13 18.672 17.925 17 24 17s11 1.672 11 3.733z"/>
    <path fill="#000" d="M35 27.267C35 29.328 30.075 31 24 31s-11-1.672-11-3.733c0-2.062 4.925-3.734 11-3.734s11 1.672 11 3.734z"/>
    <path fill="#000" d="M13 20.733h22v6.534H13v-6.534z"/>
  </g>
  <path fill="#000" fill-rule="evenodd" d="M13.347 28c1.22 1.581 5.527 2.75 10.653 2.75s9.432-1.169 10.654-2.75c.226.293.346.6.346.917v6.416C35 37.358 30.075 39 24 39s-11-1.642-11-3.667v-6.416c0-.317.12-.624.347-.917z" clip-rule="evenodd" opacity=".2"/>
  <path fill="#000" d="M35 12.733c0 2.062-4.925 3.734-11 3.734s-11-1.672-11-3.734C13 10.671 17.925 9 24 9s11 1.671 11 3.733z"/>
  <path fill="#000" d="M35 19.267C35 21.328 30.075 23 24 23s-11-1.672-11-3.733c0-2.062 4.925-3.734 11-3.734s11 1.672 11 3.734z"/>
  <path fill="#000" d="M13 12.733h22v6.534H13v-6.534z"/>
</svg>
