<svg width="48" height="48" viewBox="0 0 48 48" fill="none" xmlns="http://www.w3.org/2000/svg">
<g id="shapes/filled-nobg-octagon_alt">
<path id="Polygon 1" d="M14.829 10.4826C16.0246 9.25469 16.6224 8.64072 17.3699 8.32592C18.1174 8.01111 18.9733 8.0124 20.685 8.01498C22.7848 8.01814 25.1658 8.01492 27.0868 8.01066C28.8932 8.00666 29.7965 8.00466 30.5379 8.31286C31.2793 8.62107 31.955 9.30327 33.3065 10.6677C34.6556 12.0297 36.2329 13.5783 37.5174 14.829C38.7453 16.0246 39.3593 16.6224 39.6741 17.3699C39.9889 18.1174 39.9876 18.9733 39.985 20.685C39.9817 22.8787 39.9854 25.3794 39.9899 27.3417C39.9938 29.0301 39.9958 29.8743 39.6809 30.6227C39.366 31.3712 38.7558 31.9653 37.5355 33.1534C36.2476 34.4073 34.6616 35.9642 33.3058 37.3331C31.9548 38.697 31.2794 39.379 30.538 39.6872C29.7966 39.9954 28.8936 39.9934 27.0878 39.9895C25.2438 39.9854 22.9756 39.9823 20.9389 39.9849C19.1096 39.9871 18.1949 39.9883 17.4547 39.6802C16.7146 39.3721 16.0348 38.6861 14.6753 37.3139C13.3302 35.9563 11.7613 34.4161 10.4826 33.171C9.25468 31.9754 8.64072 31.3776 8.32592 30.6301C8.01111 29.8826 8.0124 29.0268 8.01498 27.3151C8.01814 25.2152 8.01492 22.8342 8.01066 20.9132C8.00666 19.1068 8.00466 18.2035 8.31286 17.4621C8.62107 16.7207 9.30327 16.045 10.6677 14.6935C12.0297 13.3444 13.5783 11.7671 14.829 10.4826Z" fill="black"/>
</g>
</svg>
