<svg width="48" height="48" viewBox="0 0 48 48" fill="none" xmlns="http://www.w3.org/2000/svg">
<g id="shapes/filled-nobg-hexagon">
<path id="Polygon 1" d="M22 8.1547C22.9761 7.59117 23.4641 7.3094 24 7.3094C24.5359 7.3094 25.0239 7.59117 26 8.1547L36.7224 14.3453C37.6985 14.9088 38.1865 15.1906 38.4545 15.6547C38.7224 16.1188 38.7224 16.6823 38.7224 17.8094V30.1906C38.7224 31.3177 38.7224 31.8812 38.4545 32.3453C38.1865 32.8094 37.6985 33.0912 36.7224 33.6547L26 39.8453C25.0239 40.4088 24.5359 40.6906 24 40.6906C23.4641 40.6906 22.9761 40.4088 22 39.8453L11.2776 33.6547C10.3015 33.0912 9.81347 32.8094 9.54552 32.3453C9.27757 31.8812 9.27757 31.3177 9.27757 30.1906V17.8094C9.27757 16.6823 9.27757 16.1188 9.54552 15.6547C9.81347 15.1906 10.3015 14.9088 11.2776 14.3453L22 8.1547Z" fill="black"/>
</g>
</svg>
