<svg width="48" height="48" viewBox="0 0 48 48" fill="none" xmlns="http://www.w3.org/2000/svg">
<g id="shapes/filled-nobg-pentagon">
<path id="Polygon 1" d="M21.6489 8.70821C22.7831 7.88416 23.3502 7.47214 24 7.47214C24.6498 7.47214 25.2169 7.88416 26.3511 8.7082L37.8168 17.0385C38.951 17.8626 39.5181 18.2746 39.7189 18.8926C39.9197 19.5106 39.7031 20.1773 39.2699 21.5106L34.8904 34.9894C34.4572 36.3227 34.2406 36.9894 33.7148 37.3713C33.1891 37.7533 32.4881 37.7533 31.0862 37.7533H16.9138C15.5119 37.7533 14.8109 37.7533 14.2852 37.3713C13.7594 36.9894 13.5428 36.3227 13.1096 34.9894L8.7301 21.5106C8.29687 20.1773 8.08026 19.5106 8.28107 18.8926C8.48188 18.2746 9.04898 17.8626 10.1832 17.0385L21.6489 8.70821Z" fill="black"/>
</g>
</svg>
