<svg width="48" height="48" viewBox="0 0 48 48" fill="none" xmlns="http://www.w3.org/2000/svg">
<g id="shapes/filled-nobg-heart">
<path id="Vector" d="M25.3038 36.9397C24.6665 37.444 24.3478 37.6962 24 37.6962C23.6522 37.6962 23.3335 37.444 22.6962 36.9397C16.8238 32.2922 8 26.6217 8 18.552C8 13.8009 11.7647 10 16.4706 10C19.1537 10 21.0177 11.0566 22.4108 12.2755C23.2198 12.9833 23.6243 13.3372 24 13.3372C24.3757 13.3372 24.7802 12.9833 25.5892 12.2755C26.9823 11.0566 28.8463 10 31.5294 10C36.2353 10 40 13.8009 40 18.552C40 26.6217 31.1762 32.2922 25.3038 36.9397Z" fill="black"/>
</g>
</svg>
