<svg width="48" height="48" viewBox="0 0 48 48" fill="none" xmlns="http://www.w3.org/2000/svg">
<g id="shapes/filled-nobg-star4">
<path id="Star 1" d="M22.2846 9.86192C23.0505 8.58402 23.4335 7.94507 24 7.94507C24.5665 7.94507 24.9495 8.58402 25.7154 9.86191L30.1135 17.1993C30.2416 17.413 30.3057 17.5199 30.3929 17.6071C30.4801 17.6943 30.587 17.7584 30.8007 17.8865L38.1381 22.2846C39.416 23.0505 40.0549 23.4335 40.0549 24C40.0549 24.5665 39.416 24.9495 38.1381 25.7154L30.8007 30.1135C30.587 30.2416 30.4801 30.3057 30.3929 30.3929C30.3057 30.4801 30.2416 30.587 30.1135 30.8007L25.7154 38.1381C24.9495 39.416 24.5665 40.0549 24 40.0549C23.4335 40.0549 23.0505 39.416 22.2846 38.1381L17.8865 30.8007C17.7584 30.587 17.6943 30.4801 17.6071 30.3929C17.5199 30.3057 17.413 30.2416 17.1993 30.1135L9.86192 25.7154C8.58402 24.9495 7.94507 24.5665 7.94507 24C7.94507 23.4335 8.58402 23.0505 9.86191 22.2846L17.1993 17.8865C17.413 17.7584 17.5199 17.6943 17.6071 17.6071C17.6943 17.5199 17.7584 17.413 17.8865 17.1993L22.2846 9.86192Z" fill="black"/>
</g>
</svg>
