<svg xmlns="http://www.w3.org/2000/svg" width="48" height="48" fill="none" viewBox="0 0 48 48">
  <path fill="#000" d="M39.337 16.437c-7.672-5.984-29.002-5.857-36.674.127C2.225 16.906 2 17.444 2 18v3c0 10.493 8.507 19 19 19s19-8.513 19-19.006v-3.122c0-.556-.225-1.093-.663-1.435z" opacity=".4"/>
  <ellipse cx="20.95" cy="17.49" fill="#000" rx="15.95" ry="4.49"/>
  <path fill="#000" fill-rule="evenodd" d="M38.797 16.041c.187.129.367.261.54.396.439.342.663.88.663 1.435v2.738a3.93 3.93 0 01-1.27 7.228 18.963 18.963 0 01-2.128 4.005 7.981 7.981 0 102.195-15.802z" clip-rule="evenodd" opacity=".4"/>
  <path fill="#000" d="M19.645.398c-6.418 3.622.96 7.96.181 10.89-.053.202.177.473.364.38 5.707-2.836-.792-7.851-.143-10.895.045-.207-.217-.48-.402-.375z" opacity=".4"/>
</svg>
