<svg xmlns="http://www.w3.org/2000/svg" width="48" height="48" fill="none" viewBox="0 0 48 48">
  <path fill="#000" d="M7.118 19.81l20.74 27.022a.5.5 0 00.896-.305V24.742a.5.5 0 01.688-.464l11.561 4.68c.473.191.895-.364.585-.768L20.848 1.168a.5.5 0 00-.896.305v21.785a.5.5 0 01-.688.464l-11.561-4.68c-.473-.191-.895.364-.585.768z" opacity=".2"/>
  <path fill="#000" d="M7.118 19.81l20.74 27.022a.5.5 0 00.896-.305V24.742a.5.5 0 01.688-.464l11.561 4.68c.473.191.895-.364.585-.768L20.848 1.168a.5.5 0 00-.896.305v21.785a.5.5 0 01-.688.464l-11.561-4.68c-.473-.191-.895.364-.585.768z" opacity=".6"/>
  <path fill="#000" fill-rule="evenodd" d="M28.754 25.547v-.805a.5.5 0 01.688-.464l11.561 4.68c.472.191.894-.364.584-.768L20.847 1.168a.5.5 0 00-.896.305v20.873l8.803 3.201z" clip-rule="evenodd"/>
</svg>
