<svg width="111" height="41" viewBox="0 0 111 41" fill="none" xmlns="http://www.w3.org/2000/svg">
<path opacity="0.2" d="M0 8C0 3.58172 1.98786 0 4.44 0H106.56C109.012 0 111 3.58172 111 8V33C111 37.4183 109.012 41 106.56 41H4.44C1.98786 41 0 37.4183 0 33V8Z" fill="#B098D9"/>
<path d="M20 8.7959C13.374 8.7959 8 14.1689 8 20.7959C8 26.0979 11.438 30.5959 16.207 32.1829C16.806 32.2939 17 31.9219 17 31.6059V29.3719C13.662 30.0979 12.967 27.9559 12.967 27.9559C12.421 26.5689 11.634 26.1999 11.634 26.1999C10.545 25.4549 11.717 25.4709 11.717 25.4709C12.922 25.5549 13.556 26.7079 13.556 26.7079C14.626 28.5419 16.363 28.0119 17.048 27.7049C17.155 26.9299 17.466 26.3999 17.81 26.1009C15.145 25.7959 12.343 24.7669 12.343 20.1699C12.343 18.8589 12.812 17.7889 13.579 16.9489C13.455 16.6459 13.044 15.4249 13.696 13.7729C13.696 13.7729 14.704 13.4509 16.997 15.0029C17.954 14.7369 18.98 14.6039 20 14.5989C21.02 14.6039 22.047 14.7369 23.006 15.0029C25.297 13.4509 26.303 13.7729 26.303 13.7729C26.956 15.4259 26.545 16.6469 26.421 16.9489C27.191 17.7889 27.656 18.8599 27.656 20.1699C27.656 24.7789 24.849 25.7939 22.177 26.0909C22.607 26.4629 23 27.1929 23 28.3129V31.6059C23 31.9249 23.192 32.2999 23.801 32.1819C28.566 30.5929 32 26.0959 32 20.7959C32 14.1689 26.627 8.7959 20 8.7959Z" fill="#B098D9"/>
<path d="M49.8182 18.6406H52.6307C52.2727 16.0518 49.9908 14.2301 47.0312 14.2301C43.5732 14.2301 40.9077 16.723 40.9077 20.9673C40.9077 25.1094 43.4006 27.679 47.0888 27.679C50.3935 27.679 52.7521 25.5888 52.7521 22.1435V20.4943H47.2741V22.5781H50.0866C50.0483 24.2017 48.9425 25.2308 47.1016 25.2308C45.0241 25.2308 43.7138 23.6776 43.7138 20.9418C43.7138 18.2188 45.0753 16.6783 47.076 16.6783C48.5014 16.6783 49.4666 17.4134 49.8182 18.6406ZM55.3952 27.5H58.1183V17.6818H55.3952V27.5ZM56.7631 16.4162C57.5749 16.4162 58.2397 15.7962 58.2397 15.0355C58.2397 14.2812 57.5749 13.6612 56.7631 13.6612C55.9577 13.6612 55.293 14.2812 55.293 15.0355C55.293 15.7962 55.9577 16.4162 56.7631 16.4162ZM65.5218 17.6818H63.6745V15.3295H60.9515V17.6818H59.6092V19.7273H60.9515V24.8409C60.9387 26.7649 62.2491 27.7173 64.2243 27.6342C64.9274 27.6087 65.426 27.468 65.7008 27.3786L65.2726 25.3523C65.1383 25.3778 64.8507 25.4418 64.595 25.4418C64.0517 25.4418 63.6745 25.2372 63.6745 24.483V19.7273H65.5218V17.6818ZM67.5577 27.5H70.3255V22.0923H75.9441V27.5H78.7054V14.4091H75.9441V19.8104H70.3255V14.4091H67.5577V27.5ZM87.2324 23.3196C87.2388 24.6364 86.3375 25.3267 85.3596 25.3267C84.3304 25.3267 83.6657 24.6044 83.6593 23.4474V17.6818H80.9363V23.9332C80.9426 26.228 82.285 27.6278 84.2601 27.6278C85.7367 27.6278 86.7978 26.8672 87.2388 25.7166H87.3411V27.5H89.9554V17.6818H87.2324V23.3196ZM92.1847 27.5H94.8693V25.9276H94.9908C95.3679 26.7457 96.1925 27.6598 97.7777 27.6598C100.015 27.6598 101.76 25.8892 101.76 22.6037C101.76 19.2287 99.9382 17.554 97.7841 17.554C96.1413 17.554 95.3551 18.532 94.9908 19.331H94.9077V14.4091H92.1847V27.5ZM94.8501 22.5909C94.8501 20.8395 95.5916 19.7209 96.9148 19.7209C98.2635 19.7209 98.9794 20.8906 98.9794 22.5909C98.9794 24.304 98.2507 25.4929 96.9148 25.4929C95.6044 25.4929 94.8501 24.3423 94.8501 22.5909Z" fill="#B098D9"/>
</svg>
