<svg width="25" height="24" viewBox="0 0 25 24" fill="none" xmlns="http://www.w3.org/2000/svg">
<path d="M12.9141 0C6.28806 0 0.914062 5.373 0.914062 12C0.914062 17.302 4.35206 21.8 9.12106 23.387C9.72006 23.498 9.91406 23.126 9.91406 22.81V20.576C6.57606 21.302 5.88106 19.16 5.88106 19.16C5.33506 17.773 4.54806 17.404 4.54806 17.404C3.45906 16.659 4.63106 16.675 4.63106 16.675C5.83606 16.759 6.47006 17.912 6.47006 17.912C7.54006 19.746 9.27706 19.216 9.96206 18.909C10.0691 18.134 10.3801 17.604 10.7241 17.305C8.05906 17 5.25706 15.971 5.25706 11.374C5.25706 10.063 5.72606 8.993 6.49306 8.153C6.36906 7.85 5.95806 6.629 6.61006 4.977C6.61006 4.977 7.61806 4.655 9.91106 6.207C10.8681 5.941 11.8941 5.808 12.9141 5.803C13.9341 5.808 14.9611 5.941 15.9201 6.207C18.2111 4.655 19.2171 4.977 19.2171 4.977C19.8701 6.63 19.4591 7.851 19.3351 8.153C20.1051 8.993 20.5701 10.064 20.5701 11.374C20.5701 15.983 17.7631 16.998 15.0911 17.295C15.5211 17.667 15.9141 18.397 15.9141 19.517V22.81C15.9141 23.129 16.1061 23.504 16.7151 23.386C21.4801 21.797 24.9141 17.3 24.9141 12C24.9141 5.373 19.5411 0 12.9141 0Z" fill="black"/>
</svg>
