<svg width="211" height="41" viewBox="0 0 211 41" fill="none" xmlns="http://www.w3.org/2000/svg">
<path opacity="0.2" d="M0 8C0 3.58172 3.77872 0 8.44 0H202.56C207.221 0 211 3.58172 211 8V33C211 37.4183 207.221 41 202.56 41H8.44C3.77872 41 0 37.4183 0 33V8Z" fill="#EA878C"/>
<path d="M23.283 23.569C23.553 23.5691 23.8119 23.6765 24.0027 23.8675C24.1935 24.0585 24.3006 24.3175 24.3005 24.5875C24.3004 24.8575 24.193 25.1164 24.002 25.3072C23.811 25.498 23.552 25.6051 23.282 25.605C23.012 25.605 22.7531 25.4977 22.5622 25.3068C22.3713 25.1159 22.264 24.857 22.264 24.587C22.264 24.317 22.3713 24.0581 22.5622 23.8672C22.7531 23.6763 23.012 23.569 23.282 23.569H23.283ZM28.784 9.61C29.054 9.60987 29.313 9.71699 29.504 9.90781C29.695 10.0986 29.8024 10.3575 29.8025 10.6275C29.8026 10.8975 29.6955 11.1565 29.5047 11.3475C29.3139 11.5385 29.055 11.6459 28.785 11.646C28.515 11.646 28.2561 11.5387 28.0652 11.3478C27.8743 11.1569 27.767 10.898 27.767 10.628C27.767 10.358 27.8743 10.0991 28.0652 9.90817C28.2561 9.71725 28.515 9.61 28.785 9.61H28.784ZM10.779 11.607H26.895C27.0744 11.9536 27.3455 12.2442 27.6788 12.4472C28.0121 12.6502 28.3948 12.7577 28.785 12.758C29.959 12.758 30.914 11.803 30.914 10.628C30.9132 10.0635 30.6885 9.52241 30.2891 9.12345C29.8898 8.72448 29.3485 8.50026 28.784 8.5C27.894 8.5 27.13 9.05 26.814 9.829H10.778C9.221 9.829 8 11.01 8 12.519V29.675C8 31.206 9.273 32.5 10.779 32.5H27.934C29.444 32.5 30.672 31.233 30.672 29.675V19.498C30.672 17.966 29.444 16.718 27.934 16.718H17.757C16.204 16.718 14.891 17.992 14.891 19.498V22.696C14.891 24.18 16.177 25.387 17.757 25.387H21.311C21.4705 25.7793 21.7433 26.1153 22.0945 26.352C22.4457 26.5887 22.8595 26.7154 23.283 26.716C24.457 26.716 25.412 25.76 25.412 24.586C25.412 23.412 24.457 22.457 23.282 22.457C22.8918 22.4576 22.5093 22.5653 22.1762 22.7685C21.8431 22.9716 21.5722 23.2624 21.393 23.609H17.757C17.234 23.609 16.669 23.26 16.669 22.696V19.498C16.669 18.974 17.188 18.498 17.757 18.498H27.934C28.472 18.498 28.894 18.937 28.894 19.498V29.675C28.894 30.242 28.454 30.722 27.934 30.722H10.779C10.246 30.722 9.779 30.232 9.779 29.675V12.52C9.779 12 10.209 11.608 10.779 11.608" fill="#EA878C"/>
<path d="M44.8829 27.5C48.8715 27.5 51.2877 25.0327 51.2877 20.9418C51.2877 16.8636 48.8715 14.4091 44.9213 14.4091H40.2423V27.5H44.8829ZM43.01 25.1286V16.7805H44.7742C47.2288 16.7805 48.5264 18.0334 48.5264 20.9418C48.5264 23.8629 47.2288 25.1286 44.7678 25.1286H43.01ZM57.7229 27.6918C60.7016 27.6918 62.5553 25.6527 62.5553 22.6293C62.5553 19.5866 60.7016 17.554 57.7229 17.554C54.7442 17.554 52.8905 19.5866 52.8905 22.6293C52.8905 25.6527 54.7442 27.6918 57.7229 27.6918ZM57.7357 25.5824C56.3614 25.5824 55.6583 24.3232 55.6583 22.6101C55.6583 20.897 56.3614 19.6314 57.7357 19.6314C59.0844 19.6314 59.7876 20.897 59.7876 22.6101C59.7876 24.3232 59.0844 25.5824 57.7357 25.5824ZM66.0166 27.5H68.893L70.5805 21.3253H70.702L72.3895 27.5H75.2723L77.9378 17.6818H75.1892L73.6934 24.2401H73.6104L71.9996 17.6818H69.2957L67.7105 24.2784H67.621L66.0997 17.6818H63.3447L66.0166 27.5ZM82.1134 21.8239C82.1198 20.5582 82.874 19.8168 83.9735 19.8168C85.0665 19.8168 85.7249 20.5327 85.7185 21.7344V27.5H88.4415V21.2486C88.4415 18.9602 87.0992 17.554 85.0537 17.554C83.5963 17.554 82.5416 18.2699 82.1006 19.4141H81.9855V17.6818H79.3904V27.5H82.1134V21.8239ZM93.3106 14.4091H90.5876V27.5H93.3106V14.4091ZM99.928 27.6918C102.907 27.6918 104.76 25.6527 104.76 22.6293C104.76 19.5866 102.907 17.554 99.928 17.554C96.9493 17.554 95.0956 19.5866 95.0956 22.6293C95.0956 25.6527 96.9493 27.6918 99.928 27.6918ZM99.9408 25.5824C98.5665 25.5824 97.8634 24.3232 97.8634 22.6101C97.8634 20.897 98.5665 19.6314 99.9408 19.6314C101.29 19.6314 101.993 20.897 101.993 22.6101C101.993 24.3232 101.29 25.5824 99.9408 25.5824ZM109.331 27.6854C110.782 27.6854 111.721 27.0526 112.201 26.1385H112.277V27.5H114.86V20.8778C114.86 18.5384 112.878 17.554 110.692 17.554C108.34 17.554 106.793 18.679 106.416 20.4688L108.934 20.6733C109.12 20.0213 109.701 19.5419 110.679 19.5419C111.606 19.5419 112.137 20.0085 112.137 20.8139V20.8523C112.137 21.4851 111.466 21.5682 109.759 21.7344C107.816 21.9134 106.071 22.5653 106.071 24.7578C106.071 26.701 107.458 27.6854 109.331 27.6854ZM110.111 25.8061C109.273 25.8061 108.672 25.4162 108.672 24.6683C108.672 23.9013 109.305 23.5241 110.264 23.3899C110.858 23.3068 111.83 23.1662 112.156 22.9489V23.9908C112.156 25.0199 111.306 25.8061 110.111 25.8061ZM120.59 27.6598C122.176 27.6598 123 26.7457 123.377 25.9276H123.492V27.5H126.177V14.4091H123.46V19.331H123.377C123.013 18.532 122.227 17.554 120.584 17.554C118.43 17.554 116.608 19.2287 116.608 22.6037C116.608 25.8892 118.353 27.6598 120.59 27.6598ZM121.453 25.4929C120.117 25.4929 119.389 24.304 119.389 22.5909C119.389 20.8906 120.104 19.7209 121.453 19.7209C122.776 19.7209 123.518 20.8395 123.518 22.5909C123.518 24.3423 122.764 25.4929 121.453 25.4929ZM135.381 27.6854C136.832 27.6854 137.772 27.0526 138.252 26.1385H138.328V27.5H140.911V20.8778C140.911 18.5384 138.929 17.554 136.743 17.554C134.391 17.554 132.844 18.679 132.467 20.4688L134.985 20.6733C135.171 20.0213 135.752 19.5419 136.73 19.5419C137.657 19.5419 138.188 20.0085 138.188 20.8139V20.8523C138.188 21.4851 137.516 21.5682 135.81 21.7344C133.867 21.9134 132.122 22.5653 132.122 24.7578C132.122 26.701 133.509 27.6854 135.381 27.6854ZM136.161 25.8061C135.324 25.8061 134.723 25.4162 134.723 24.6683C134.723 23.9013 135.356 23.5241 136.315 23.3899C136.909 23.3068 137.881 23.1662 138.207 22.9489V23.9908C138.207 25.0199 137.357 25.8061 136.161 25.8061ZM145.746 14.4091H143.023V27.5H145.746V14.4091ZM150.65 14.4091H147.927V27.5H150.65V14.4091ZM156.998 27.5H159.721V17.6818H156.998V27.5ZM158.366 16.4162C159.177 16.4162 159.842 15.7962 159.842 15.0355C159.842 14.2812 159.177 13.6612 158.366 13.6612C157.56 13.6612 156.896 14.2812 156.896 15.0355C156.896 15.7962 157.56 16.4162 158.366 16.4162ZM166.338 27.6918C168.953 27.6918 170.595 26.1577 170.723 23.9013H168.153C167.994 24.9496 167.303 25.5376 166.37 25.5376C165.098 25.5376 164.274 24.4702 164.274 22.5909C164.274 20.7372 165.104 19.6761 166.37 19.6761C167.367 19.6761 168.006 20.3345 168.153 21.3125H170.723C170.608 19.0433 168.889 17.554 166.325 17.554C163.347 17.554 161.506 19.6186 161.506 22.6293C161.506 25.6143 163.315 27.6918 166.338 27.6918ZM176.903 27.6918C179.881 27.6918 181.735 25.6527 181.735 22.6293C181.735 19.5866 179.881 17.554 176.903 17.554C173.924 17.554 172.07 19.5866 172.07 22.6293C172.07 25.6527 173.924 27.6918 176.903 27.6918ZM176.915 25.5824C175.541 25.5824 174.838 24.3232 174.838 22.6101C174.838 20.897 175.541 19.6314 176.915 19.6314C178.264 19.6314 178.967 20.897 178.967 22.6101C178.967 24.3232 178.264 25.5824 176.915 25.5824ZM186.229 21.8239C186.235 20.5582 186.989 19.8168 188.089 19.8168C189.182 19.8168 189.84 20.5327 189.834 21.7344V27.5H192.557V21.2486C192.557 18.9602 191.214 17.554 189.169 17.554C187.712 17.554 186.657 18.2699 186.216 19.4141H186.101V17.6818H183.506V27.5H186.229V21.8239ZM202.872 20.4815C202.629 18.6726 201.172 17.554 198.691 17.554C196.179 17.554 194.524 18.7173 194.53 20.6094C194.524 22.0795 195.451 23.032 197.368 23.4155L199.069 23.7543C199.925 23.9268 200.315 24.2401 200.328 24.7322C200.315 25.3139 199.682 25.7294 198.73 25.7294C197.758 25.7294 197.113 25.3139 196.946 24.5149L194.268 24.6555C194.524 26.5348 196.122 27.6918 198.723 27.6918C201.267 27.6918 203.089 26.3942 203.096 24.4574C203.089 23.0384 202.162 22.1882 200.258 21.7983L198.481 21.4403C197.566 21.2422 197.228 20.929 197.234 20.456C197.228 19.8679 197.892 19.4844 198.736 19.4844C199.682 19.4844 200.245 20.0021 200.379 20.6349L202.872 20.4815Z" fill="#EA878C"/>
</svg>
