<svg xmlns="http://www.w3.org/2000/svg" width="48" height="48" fill="none" viewBox="0 0 48 48">
  <path fill="#000" d="M5 12.361c0-3.494 0-5.24 1.056-6.389 1.057-1.148 2.798-1.293 6.28-1.583l3.8-.317c.432-.036.648-.054.863-.049.216.006.43.034.86.091L31.11 5.882c.444.059.666.088.89.093.223.005.446-.016.892-.056l1.383-.126c4.079-.37 6.119-.556 7.421.633C43 7.616 43 9.664 43 13.76v21.934c0 3.47 0 5.205-1.046 6.35-1.047 1.146-2.774 1.303-6.23 1.617l-2.831.258c-.446.04-.67.06-.892.056-.224-.005-.446-.034-.89-.093l-13.253-1.767c-.428-.058-.643-.086-.859-.092-.215-.005-.431.013-.862.049l-2.473.206c-4.054.338-6.08.507-7.372-.682C5 40.408 5 38.374 5 34.306V12.36z" opacity=".2"/>
  <path fill="#000" fill-rule="evenodd" d="M32 5.975c-.223-.005-.445-.034-.889-.093L17.858 4.115c-.428-.058-.642-.086-.858-.092V18a4 4 0 110 8v16.023c.216.006.43.034.858.091l13.253 1.768c.444.059.666.088.889.093v-38z" clip-rule="evenodd" opacity=".2"/>
  <path fill="#000" fill-rule="evenodd" d="M32 43.975v-38c.224.005.447-.015.893-.056l1.383-.126c4.079-.37 6.119-.556 7.421.634C43 7.617 43 9.664 43 13.76v21.934c0 3.47 0 5.205-1.046 6.35-1.047 1.146-2.774 1.303-6.23 1.618l-2.831.257c-.446.04-.67.06-.892.056H32zM17 4.023c-.216-.005-.432.013-.863.049l-3.801.317c-3.482.29-5.223.435-6.28 1.583C5 7.12 5 8.867 5 12.362v21.944c0 4.068 0 6.102 1.292 7.29 1.291 1.189 3.318 1.02 7.372.682l2.473-.206c.431-.036.647-.054.862-.049H17V26a4 4 0 110-8V4.023z" clip-rule="evenodd" opacity=".6"/>
  <path fill="#000" fill-rule="evenodd" d="M17 16c-11.762 0-3.217 15.23-.397 17.73a.581.581 0 00.793 0C20.216 31.23 28.761 16 17 16zm3.378 5.63a3.378 3.378 0 11-6.757 0 3.378 3.378 0 016.757 0z" clip-rule="evenodd"/>
</svg>
