<svg width="48" height="48" viewBox="0 0 48 48" fill="none" xmlns="http://www.w3.org/2000/svg">
<rect opacity="0.2" x="5" y="5" width="38" height="38" rx="4" fill="black"/>
<path opacity="0.2" d="M16 19H33M16 25H27" stroke="black" stroke-width="4" stroke-linecap="round"/>
<path fill-rule="evenodd" clip-rule="evenodd" d="M11.4645 13.4645C10 14.9289 10 17.286 10 22C10 26.714 10 29.0711 11.4645 30.5355C12.9289 32 15.286 32 20 32H29C33.714 32 36.0711 32 37.5355 30.5355C39 29.0711 39 26.714 39 22C39 17.286 39 14.9289 37.5355 13.4645C36.0711 12 33.714 12 29 12H20C15.286 12 12.9289 12 11.4645 13.4645ZM16 17C14.8954 17 14 17.8954 14 19C14 20.1046 14.8954 21 16 21H33C34.1046 21 35 20.1046 35 19C35 17.8954 34.1046 17 33 17H16ZM16 23C14.8954 23 14 23.8954 14 25C14 26.1046 14.8954 27 16 27H27C28.1046 27 29 26.1046 29 25C29 23.8954 28.1046 23 27 23H16Z" fill="black"/>
<path d="M13.4724 31.6191L12.529 35.7069C12.3307 36.5665 13.2615 37.2432 14.0179 36.7893L20.3373 32.9977C21.4252 32.345 22.67 32.0002 23.9387 32.0002H19.9998C16.9904 32.0002 14.9416 32.0002 13.4724 31.6191Z" fill="black"/>
</svg>
