<svg width="48" height="48" viewBox="0 0 48 48" fill="none" xmlns="http://www.w3.org/2000/svg">
<path opacity="0.2" d="M5 13C5 9.22876 5 7.34315 6.17157 6.17157C7.34315 5 9.22876 5 13 5H35C38.7712 5 40.6569 5 41.8284 6.17157C43 7.34315 43 9.22876 43 13V35C43 38.7712 43 40.6569 41.8284 41.8284C40.6569 43 38.7712 43 35 43H13C9.22876 43 7.34315 43 6.17157 41.8284C5 40.6569 5 38.7712 5 35V13Z" fill="black"/>
<path fill-rule="evenodd" clip-rule="evenodd" d="M23.6213 35.7711C19.7475 32.9219 7.58024 11 23.9995 11C40.4187 11 28.2514 32.9218 24.3779 35.7711C24.1487 35.9396 23.8505 35.9396 23.6213 35.7711ZM23.9995 24C26.7609 24 28.9995 21.7614 28.9995 19C28.9995 16.2386 26.7609 14 23.9995 14C21.2381 14 18.9995 16.2386 18.9995 19C18.9995 21.7614 21.2381 24 23.9995 24Z" fill="black"/>
</svg>
