<svg xmlns="http://www.w3.org/2000/svg" width="48" height="48" fill="none" viewBox="0 0 48 48">
  <rect width="38" height="38" x="5" y="5" fill="#000" opacity=".2" rx="4"/>
  <path fill="#000" d="M19.934 18.289c2.359 4.718 4.833 7.192 9.551 9.55 3.184 1.593 7.96 4.776 7.96 4.776l-1.223 2.038c-.723 1.204-2.031 1.977-3.422 1.775-9.779-1.422-20.032-11.675-21.454-21.455-.202-1.39.57-2.698 1.775-3.421l2.037-1.223s3.184 4.776 4.776 7.96z"/>
  <path fill="#000" d="M37.444 32.615l-7.959-4.775.143-.286c.678-1.357 1.018-2.035 1.647-2.219.629-.183 1.28.207 2.58.988l2.799 1.68c1.13.677 1.695 1.016 1.86 1.58.164.565-.13 1.155-.72 2.333l-.35.7zM15.158 10.33l4.776 7.958.286-.143c1.357-.678 2.035-1.017 2.218-1.646.183-.63-.207-1.28-.987-2.58l-1.68-2.8c-.678-1.13-1.017-1.695-1.581-1.86-.565-.163-1.154.131-2.333.72l-.699.35z"/>
</svg>
