<svg xmlns="http://www.w3.org/2000/svg" width="48" height="48" fill="none" viewBox="0 0 48 48">
  <rect width="38" height="38" x="5" y="5" fill="#000" opacity=".2" rx="4"/>
  <path fill="#000" fill-rule="evenodd" d="M36.345 14.132a3.5 3.5 0 00-4.95 0L16.9 28.628a1 1 0 001.414 1.414l13.789-13.789a1.5 1.5 0 112.121 2.122L20.436 32.163a4 4 0 01-5.657-5.657l14.495-14.495a6.5 6.5 0 019.193 9.192L23.97 35.699A9 9 0 0111.243 22.97l12.374-12.375a1.5 1.5 0 012.122 2.122L13.364 25.092a6 6 0 008.486 8.485l14.495-14.495a3.5 3.5 0 000-4.95z" clip-rule="evenodd"/>
</svg>
