<svg width="48" height="48" viewBox="0 0 48 48" fill="none" xmlns="http://www.w3.org/2000/svg">
<rect opacity="0.2" x="5" y="5" width="38" height="38" rx="4" fill="black"/>
<path d="M13.4724 31.6191L12.529 35.7069C12.3307 36.5665 13.2615 37.2432 14.0179 36.7893L20.3373 32.9977C21.4252 32.345 22.67 32.0002 23.9387 32.0002H19.9998C16.9904 32.0002 14.9416 32.0002 13.4724 31.6191Z" fill="black"/>
<g opacity="0.2">
<path d="M19 22C19 23.6569 17.6569 25 16 25C14.3431 25 13 23.6569 13 22C13 20.3431 14.3431 19 16 19C17.6569 19 19 20.3431 19 22Z" fill="black"/>
<path d="M35 22C35 23.6569 33.6569 25 32 25C30.3431 25 29 23.6569 29 22C29 20.3431 30.3431 19 32 19C33.6569 19 35 20.3431 35 22Z" fill="black"/>
<path d="M27 22C27 23.6569 25.6569 25 24 25C22.3431 25 21 23.6569 21 22C21 20.3431 22.3431 19 24 19C25.6569 19 27 20.3431 27 22Z" fill="black"/>
</g>
<path fill-rule="evenodd" clip-rule="evenodd" d="M11.4645 13.4645C10 14.9289 10 17.286 10 22C10 26.714 10 29.0711 11.4645 30.5355C12.9289 32 15.286 32 20 32H29C33.714 32 36.0711 32 37.5355 30.5355C39 29.0711 39 26.714 39 22C39 17.286 39 14.9289 37.5355 13.4645C36.0711 12 33.714 12 29 12H20C15.286 12 12.9289 12 11.4645 13.4645ZM19 22C19 23.6569 17.6569 25 16 25C14.3431 25 13 23.6569 13 22C13 20.3431 14.3431 19 16 19C17.6569 19 19 20.3431 19 22ZM35 22C35 23.6569 33.6569 25 32 25C30.3431 25 29 23.6569 29 22C29 20.3431 30.3431 19 32 19C33.6569 19 35 20.3431 35 22ZM24 25C25.6569 25 27 23.6569 27 22C27 20.3431 25.6569 19 24 19C22.3431 19 21 20.3431 21 22C21 23.6569 22.3431 25 24 25Z" fill="black"/>
</svg>
