<svg width="48" height="48" viewBox="0 0 48 48" fill="none" xmlns="http://www.w3.org/2000/svg">
<rect opacity="0.2" x="2" y="2" width="44" height="44" rx="22" fill="black"/>
<path d="M25.8987 38.8818C25.2768 38.9598 24.6431 39 24 39C23.3569 39 22.7232 38.9598 22.1013 38.8818C19.6958 34.9862 18.3445 30.1353 18.0874 25.25H29.9126C29.6554 30.1353 28.3042 34.9862 25.8987 38.8818Z" fill="black"/>
<path d="M29.2073 38.078C34.5793 36.1039 38.5105 31.1632 39 25.25H32.4243C32.2064 29.6996 31.1422 34.18 29.2073 38.078Z" fill="black"/>
<path d="M32.4577 22.75H39C38.5169 16.9147 34.6823 12.0265 29.4189 10.0015C31.3595 13.7224 32.3556 18.2021 32.4577 22.75Z" fill="black"/>
<path d="M25.9662 9.12683C25.3227 9.04316 24.6664 9 24 9C23.3336 9 22.6773 9.04316 22.0337 9.12683C19.5335 12.6981 18.1759 17.5914 18.0515 22.75H29.9485C29.824 17.5914 28.4664 12.698 25.9662 9.12683Z" fill="black"/>
<path d="M15.5756 25.25C15.7935 29.6996 16.8577 34.1799 18.7926 38.078C13.4206 36.1039 9.4895 31.1632 9 25.25H15.5756Z" fill="black"/>
<path d="M15.5423 22.75C15.6444 18.2022 16.6404 13.7224 18.581 10.0016C13.3177 12.0265 9.48305 16.9147 9 22.75H15.5423Z" fill="black"/>
<path opacity="0.2" fill-rule="evenodd" clip-rule="evenodd" d="M24 46C36.1503 46 46 36.1503 46 24C46 11.8497 36.1503 2 24 2C11.8497 2 2 11.8497 2 24C2 36.1503 11.8497 46 24 46ZM42.8571 24C42.8571 34.4145 34.4145 42.8571 24 42.8571C13.5855 42.8571 5.14283 34.4145 5.14283 24C5.14283 13.5855 13.5855 5.14285 24 5.14285C34.4145 5.14285 42.8571 13.5855 42.8571 24Z" fill="black"/>
</svg>
