<svg width="48" height="48" viewBox="0 0 48 48" fill="none" xmlns="http://www.w3.org/2000/svg">
<g id="media-reading-writing/journal">
<rect id="Rectangle 57" opacity="0.2" x="5" y="5" width="38" height="38" rx="4" fill="black"/>
<rect id="Rectangle 60" opacity="0.2" x="5" y="5" width="38" height="38" rx="4" fill="black"/>
<g id="Vector" opacity="0.2">
<path d="M2 12C2 10.8954 3.04467 10 4.33333 10H6.66667C7.95533 10 9 10.8954 9 12C9 13.1046 7.95533 14 6.66667 14H4.33333C3.04467 14 2 13.1046 2 12Z" fill="black"/>
<path d="M2 36C2 34.8954 3.04467 34 4.33333 34H6.66667C7.95533 34 9 34.8954 9 36C9 37.1046 7.95533 38 6.66667 38H4.33333C3.04467 38 2 37.1046 2 36Z" fill="black"/>
<path d="M2 28C2 26.8954 3.04467 26 4.33333 26H6.66667C7.95533 26 9 26.8954 9 28C9 29.1046 7.95533 30 6.66667 30H4.33333C3.04467 30 2 29.1046 2 28Z" fill="black"/>
<path d="M2 20C2 18.8954 3.04467 18 4.33333 18H6.66667C7.95533 18 9 18.8954 9 20C9 21.1046 7.95533 22 6.66667 22H4.33333C3.04467 22 2 21.1046 2 20Z" fill="black"/>
</g>
<mask id="mask0_50:934" style="mask-type:alpha" maskUnits="userSpaceOnUse" x="5" y="5" width="38" height="38">
<rect id="Rectangle 59" x="5" y="5" width="38" height="38" rx="4" fill="#9FA4A9"/>
</mask>
<g mask="url(#mask0_50:934)">
<path id="Vector 13" opacity="0.2" d="M21 20H36" stroke="black" stroke-width="4" stroke-linecap="round"/>
<rect id="Rectangle 58" opacity="0.6" x="18" y="9" width="21" height="5" rx="2" fill="black"/>
<path id="Subtract" fill-rule="evenodd" clip-rule="evenodd" d="M4.4085 10H6.38755C7.49987 10 8.40158 10.8954 8.40158 12C8.40158 13.1046 7.49987 14 6.38755 14H4.37354V18H6.38755C7.49987 18 8.40158 18.8954 8.40158 20C8.40158 21.1046 7.49987 22 6.38755 22H4.37354V26H6.38755C7.49987 26 8.40158 26.8954 8.40158 28C8.40158 29.1046 7.49987 30 6.38755 30H4.37354V34H6.38755C7.49987 34 8.40158 34.8954 8.40158 36C8.40158 37.1046 7.49987 38 6.38755 38H4.4085C4.48625 39.8723 4.73693 41.0203 5.54511 41.8284C6.71668 43 8.6023 43 12.3735 43H14.4437V5H12.3735C8.6023 5 6.71668 5 5.54511 6.17157C4.73693 6.97975 4.48625 8.1277 4.4085 10Z" fill="black"/>
</g>
</g>
</svg>
