<svg xmlns="http://www.w3.org/2000/svg" width="48" height="48" fill="none" viewBox="0 0 48 48">
  <path fill="#000" d="M13.453 27.31h1.482c.355 2.407 1.318 4.307 2.888 5.7 1.571 1.368 3.509 2.052 5.814 2.052.938 0 1.799-.114 2.584-.342.786-.228 1.457-.545 2.014-.95.558-.43.988-.925 1.292-1.482a4.126 4.126 0 00.456-1.938c0-.608-.101-1.127-.304-1.558-.177-.456-.532-.887-1.064-1.292-.532-.43-1.266-.861-2.204-1.292-.912-.43-2.102-.925-3.572-1.482-2.964-1.14-5.155-2.457-6.574-3.952-1.418-1.52-2.128-3.306-2.128-5.358 0-1.19.228-2.28.684-3.268a7.544 7.544 0 011.9-2.546c.836-.71 1.824-1.254 2.964-1.634 1.166-.405 2.445-.608 3.838-.608 1.292 0 2.508.203 3.648.608 1.14.405 2.268 1.013 3.382 1.824l.684-1.9h.912l.418 8.208h-1.482c-.608-2.077-1.558-3.66-2.85-4.75-1.292-1.115-2.786-1.672-4.484-1.672-1.57 0-2.85.393-3.838 1.178-.962.76-1.444 1.748-1.444 2.964 0 .532.089 1.013.266 1.444.178.405.507.798.988 1.178.482.38 1.14.773 1.976 1.178.836.38 1.913.81 3.23 1.292 1.774.684 3.281 1.38 4.522 2.09 1.267.684 2.293 1.431 3.078 2.242.811.785 1.406 1.621 1.786 2.508.38.887.57 1.862.57 2.926 0 1.292-.278 2.47-.836 3.534-.557 1.064-1.342 1.976-2.356 2.736-.988.76-2.178 1.355-3.572 1.786-1.368.43-2.888.646-4.56.646-1.52 0-2.888-.203-4.104-.608-1.216-.43-2.47-1.115-3.762-2.052l-.76 2.28h-.912l-.57-9.69z"/>
</svg>
