<svg xmlns="http://www.w3.org/2000/svg" width="48" height="48" fill="none" viewBox="0 0 48 48">
  <rect width="38" height="38" x="5" y="5" fill="#000" opacity=".2" rx="4"/>
  <path fill="#000" d="M33.065 32.67c.5.68 1.08 1.21 1.74 1.59.68.36 1.43.54 2.25.54V36h-11.19v-1.2c.5 0 .9-.02 1.2-.06.32-.04.56-.09.72-.15.18-.06.29-.14.33-.24.06-.1.09-.21.09-.33 0-.12-.03-.24-.09-.36-.04-.14-.12-.31-.24-.51s-.28-.45-.48-.75c-.2-.3-.46-.67-.78-1.11l-3.21-4.56-2.07 2.55c-.44.54-.87 1.04-1.29 1.5-.4.46-.77.89-1.11 1.29-.32.4-.58.76-.78 1.08-.2.3-.3.57-.3.81 0 .32.2.54.6.66.4.12 1.06.18 1.98.18V36h-9.21v-1.2c.54 0 1-.02 1.38-.06.4-.06.75-.16 1.05-.3.32-.14.61-.33.87-.57.28-.26.59-.59.93-.99l6.57-8.01-6.99-9.06c-.54-.7-1.08-1.16-1.62-1.38-.54-.22-1.15-.33-1.83-.33v-1.2h11.28v1.2c-.72 0-1.24.09-1.56.27-.32.18-.48.45-.48.81 0 .54.3 1.21.9 2.01l3.09 4.26 3.87-4.62c.3-.36.51-.68.63-.96.14-.3.21-.58.21-.84a.86.86 0 00-.09-.39c-.06-.12-.18-.22-.36-.3-.16-.08-.4-.14-.72-.18-.32-.04-.74-.06-1.26-.06v-1.2h8.94v1.2c-.84 0-1.49.06-1.95.18-.46.12-.84.36-1.14.72l-6.69 8.28 6.81 9.39z"/>
</svg>
