<svg xmlns="http://www.w3.org/2000/svg" width="48" height="48" fill="none" viewBox="0 0 48 48">
  <rect width="38" height="38" x="5" y="5" fill="#000" opacity=".2" rx="4"/>
  <path fill="#000" d="M22.268 31.17c0 .76.05 1.38.15 1.86.1.46.3.82.6 1.08.32.24.76.41 1.32.51.58.1 1.35.16 2.31.18V36h-11.94v-1.2c.66-.02 1.2-.08 1.62-.18.42-.1.74-.27.96-.51.22-.24.37-.58.45-1.02.08-.44.12-1.01.12-1.71V17.52c0-.7-.04-1.26-.12-1.68-.06-.44-.19-.78-.39-1.02-.2-.26-.49-.43-.87-.51-.36-.1-.84-.17-1.44-.21v-1.2h18.36l.36 6.33h-1.26c-.12-.86-.3-1.58-.54-2.16-.22-.6-.54-1.08-.96-1.44-.42-.38-.96-.65-1.62-.81-.66-.16-1.47-.24-2.43-.24h-4.14c-.36 0-.54.17-.54.51v8.67c1.22 0 2.21-.05 2.97-.15.78-.1 1.4-.29 1.86-.57.46-.3.79-.7.99-1.2.2-.5.34-1.16.42-1.98h1.11v9.39h-1.11c-.12-.84-.29-1.51-.51-2.01-.22-.52-.56-.91-1.02-1.17-.44-.28-1.04-.47-1.8-.57-.76-.1-1.73-.15-2.91-.15v5.82z"/>
</svg>
