<svg xmlns="http://www.w3.org/2000/svg" width="48" height="48" fill="none" viewBox="0 0 48 48">
  <path fill="#000" d="M23.863 7.36c2.305 0 4.459.393 6.46 1.178 2.001.785 3.736 1.875 5.206 3.268a14.555 14.555 0 013.496 4.864c.861 1.85 1.292 3.838 1.292 5.966 0 2.61-.646 5.016-1.938 7.22-1.267 2.179-3.053 4.015-5.358 5.51-.43.279-.849.532-1.254.76-.38.203-.823.418-1.33.646-.507.228-1.102.469-1.786.722-.659.253-1.457.545-2.394.874-.558.203-1.039.38-1.444.532-.38.152-.722.291-1.026.418l-.836.418-.684.456v.152c.177-.025.405-.05.684-.076h.798c1.09 0 2.115.114 3.078.342.988.253 1.95.52 2.888.798a60.67 60.67 0 002.888.76c.962.253 1.976.38 3.04.38 1.216 0 2.166-.215 2.85-.646.684-.43 1.216-1.153 1.596-2.166h1.406c.05.33.089.633.114.912.025.279.038.52.038.722 0 .785-.178 1.507-.532 2.166a5.157 5.157 0 01-1.482 1.748c-.634.507-1.38.9-2.242 1.178a8.96 8.96 0 01-2.774.418c-1.419 0-2.736-.24-3.952-.722a36.676 36.676 0 01-3.496-1.596 93.367 93.367 0 00-3.192-1.596c-1.014-.481-2.014-.722-3.002-.722-.684 0-1.242.114-1.672.342-.43.228-.823.469-1.178.722-.33.279-.672.532-1.026.76-.33.228-.735.342-1.216.342-.43 0-.773-.101-1.026-.304-.253-.203-.38-.456-.38-.76 0-.43.19-.836.57-1.216.405-.355 1.14-.823 2.204-1.406l4.788-2.698c-2.027-.177-3.914-.697-5.662-1.558a15.84 15.84 0 01-4.56-3.344 15.738 15.738 0 01-3.002-4.712c-.735-1.799-1.102-3.711-1.102-5.738 0-2.153.405-4.167 1.216-6.042a15.087 15.087 0 013.42-4.864c1.444-1.368 3.154-2.445 5.13-3.23 1.976-.785 4.104-1.178 6.384-1.178zm0 28.5c1.495 0 2.85-.304 4.066-.912a8.849 8.849 0 003.078-2.66c.861-1.14 1.52-2.52 1.976-4.142.481-1.621.722-3.42.722-5.396s-.24-3.762-.722-5.358c-.456-1.596-1.115-2.951-1.976-4.066a8.631 8.631 0 00-3.078-2.584c-1.216-.608-2.571-.912-4.066-.912-1.495 0-2.837.304-4.028.912-1.166.583-2.154 1.431-2.964 2.546-.81 1.115-1.444 2.47-1.9 4.066-.43 1.596-.646 3.395-.646 5.396 0 2.027.215 3.85.646 5.472.456 1.621 1.09 3.002 1.9 4.142.836 1.115 1.837 1.976 3.002 2.584 1.19.608 2.52.912 3.99.912z"/>
</svg>
