<svg xmlns="http://www.w3.org/2000/svg" width="48" height="48" fill="none" viewBox="0 0 48 48">
  <rect width="38" height="38" x="5" y="5" fill="#000" opacity=".2" rx="4"/>
  <path fill="#000" d="M29.994 36.3l-13.29-18.93h-.12v12.9c0 1 .03 1.79.09 2.37.08.58.23 1.03.45 1.35.24.32.56.53.96.63.42.1.96.16 1.62.18V36h-8.91v-1.2c.74-.02 1.33-.08 1.77-.18.46-.12.81-.33 1.05-.63.26-.3.43-.72.51-1.26.08-.56.12-1.31.12-2.25V18.42c0-.84-.04-1.53-.12-2.07-.08-.56-.23-1-.45-1.32-.22-.32-.54-.54-.96-.66-.4-.14-.94-.23-1.62-.27v-1.2h8.37l12.09 17.34h.12V18.63c0-.98-.04-1.76-.12-2.34-.06-.6-.21-1.06-.45-1.38-.22-.32-.54-.53-.96-.63-.4-.1-.93-.16-1.59-.18v-1.2h8.91v1.2c-.74.02-1.34.09-1.8.21-.44.1-.79.3-1.05.6-.24.3-.4.73-.48 1.29-.08.56-.12 1.3-.12 2.22V36.3h-4.02z"/>
</svg>
