<svg xmlns="http://www.w3.org/2000/svg" width="48" height="48" fill="none" viewBox="0 0 48 48">
  <path fill="#000" d="M30.788 37H17.222v-1.52c.862-.025 1.546-.101 2.052-.228.532-.152.938-.418 1.216-.798.28-.38.47-.912.57-1.596.102-.71.152-1.66.152-2.85V14.732c0-1.064-.05-1.938-.151-2.622-.076-.71-.241-1.267-.494-1.672a1.941 1.941 0 00-1.102-.836c-.456-.177-1.077-.291-1.863-.342V7.74h12.806v1.52c-.785.05-1.418.165-1.9.342-.456.152-.81.43-1.063.836-.254.405-.431.963-.532 1.672-.076.684-.114 1.558-.114 2.622v15.276c0 1.19.038 2.14.114 2.85.1.684.29 1.216.57 1.596.303.38.709.646 1.215.798.532.127 1.23.203 2.09.228V37z"/>
</svg>
