<svg xmlns="http://www.w3.org/2000/svg" width="48" height="48" fill="none" viewBox="0 0 48 48">
  <rect width="38" height="38" x="5" y="5" fill="#000" opacity=".2" rx="4"/>
  <path fill="#000" d="M24.262 30.39l6.93-17.49h8.76v1.2c-.66 0-1.2.07-1.62.21-.4.12-.71.35-.93.69-.22.34-.37.81-.45 1.41-.06.58-.09 1.32-.09 2.22v11.64c0 1 .04 1.79.12 2.37.08.58.24 1.03.48 1.35.24.32.58.53 1.02.63.46.1 1.06.16 1.8.18V36h-11.28v-1.2c.74-.02 1.33-.08 1.77-.18.46-.12.81-.33 1.05-.63.26-.3.43-.72.51-1.26.08-.56.12-1.31.12-2.25V16.44h-.15l-8.07 19.86h-2.22l-8.34-19.86h-.12v13.83c0 1 .04 1.79.12 2.37.08.58.24 1.03.48 1.35.24.32.58.53 1.02.63.46.1 1.06.16 1.8.18V36h-9.24v-1.2c.74-.02 1.34-.08 1.8-.18.46-.12.81-.33 1.05-.63.26-.3.43-.72.51-1.26.08-.56.12-1.31.12-2.25V18.42c0-.84-.04-1.54-.12-2.1-.08-.56-.23-1-.45-1.32-.22-.34-.54-.57-.96-.69-.4-.14-.94-.21-1.62-.21v-1.2h9.09l6.99 17.49h.12z"/>
</svg>
