<svg xmlns="http://www.w3.org/2000/svg" width="48" height="48" fill="none" viewBox="0 0 48 48">
  <rect width="38" height="38" x="5" y="5" fill="#000" opacity=".2" rx="4"/>
  <path fill="#000" d="M24.01 12.6c1.8 0 3.48.31 5.04.93 1.56.62 2.91 1.47 4.05 2.55 1.16 1.08 2.07 2.35 2.73 3.81.66 1.46.99 3.04.99 4.74 0 1.62-.34 3.14-1.02 4.56-.66 1.42-1.57 2.66-2.73 3.72-1.14 1.04-2.49 1.87-4.05 2.49-1.56.6-3.23.9-5.01.9-1.78 0-3.45-.3-5.01-.9-1.56-.62-2.92-1.45-4.08-2.49-1.16-1.06-2.07-2.3-2.73-3.72-.66-1.42-.99-2.94-.99-4.56 0-1.7.33-3.28.99-4.74.66-1.46 1.56-2.73 2.7-3.81 1.16-1.08 2.52-1.93 4.08-2.55 1.56-.62 3.24-.93 5.04-.93zm0 21.75c1.16 0 2.21-.22 3.15-.66a6.99 6.99 0 002.4-1.92c.66-.84 1.16-1.85 1.5-3.03.36-1.2.54-2.54.54-4.02 0-1.56-.18-2.96-.54-4.2-.34-1.26-.84-2.33-1.5-3.21-.66-.9-1.46-1.58-2.4-2.04-.94-.48-1.99-.72-3.15-.72-1.18 0-2.24.24-3.18.72-.92.46-1.71 1.14-2.37 2.04-.66.88-1.17 1.95-1.53 3.21-.34 1.24-.51 2.64-.51 4.2 0 1.48.17 2.82.51 4.02.36 1.18.87 2.19 1.53 3.03.66.82 1.45 1.46 2.37 1.92.94.44 2 .66 3.18.66z"/>
</svg>
