<svg xmlns="http://www.w3.org/2000/svg" width="48" height="48" fill="none" viewBox="0 0 48 48">
  <path fill="#000" d="M24.012 7.36c2.28 0 4.408.393 6.384 1.178 1.976.785 3.686 1.862 5.13 3.23a14.926 14.926 0 013.458 4.826c.836 1.85 1.254 3.85 1.254 6.004 0 2.052-.43 3.977-1.292 5.776a14.738 14.738 0 01-3.458 4.712c-1.444 1.317-3.154 2.369-5.13 3.154-1.976.76-4.091 1.14-6.346 1.14s-4.37-.38-6.346-1.14c-1.976-.785-3.699-1.837-5.168-3.154a14.737 14.737 0 01-3.458-4.712c-.836-1.799-1.254-3.724-1.254-5.776 0-2.153.418-4.155 1.254-6.004a15.206 15.206 0 013.42-4.826c1.47-1.368 3.192-2.445 5.168-3.23 1.976-.785 4.104-1.178 6.384-1.178zm0 27.55c1.47 0 2.8-.279 3.99-.836a8.855 8.855 0 003.04-2.432c.836-1.064 1.47-2.343 1.9-3.838.456-1.52.684-3.217.684-5.092 0-1.976-.228-3.75-.684-5.32-.43-1.596-1.064-2.951-1.9-4.066-.836-1.14-1.85-2.001-3.04-2.584-1.19-.608-2.52-.912-3.99-.912-1.495 0-2.837.304-4.028.912-1.165.583-2.166 1.444-3.002 2.584-.836 1.115-1.482 2.47-1.938 4.066-.43 1.57-.646 3.344-.646 5.32 0 1.875.216 3.572.646 5.092.456 1.495 1.102 2.774 1.938 3.838a8.963 8.963 0 003.002 2.432c1.19.557 2.533.836 4.028.836z"/>
</svg>
