<svg xmlns="http://www.w3.org/2000/svg" width="48" height="48" fill="none" viewBox="0 0 48 48">
  <rect width="38" height="38" x="5" y="5" fill="#000" opacity=".2" rx="4"/>
  <path fill="#000" d="M26.901 29.01h-8.49c-.94 2.12-1.41 3.59-1.41 4.41 0 .6.22.98.66 1.14.46.16 1.14.24 2.04.24V36h-8.22v-1.2c.48-.06.89-.14 1.23-.24.36-.1.67-.24.93-.42.28-.18.52-.41.72-.69.2-.3.39-.66.57-1.08l7.89-19.77h2.22l7.17 17.52c.42 1.02.77 1.82 1.05 2.4.3.58.61 1.03.93 1.35.34.3.72.51 1.14.63.44.12 1 .21 1.68.27V36h-11.34v-1.23c.96-.04 1.65-.14 2.07-.3.42-.16.63-.48.63-.96 0-.28-.07-.64-.21-1.08-.14-.44-.33-.98-.57-1.62l-.69-1.8zm-7.8-1.8h7.14l-3.45-9.09h-.12l-3.57 9.09z"/>
</svg>
