<svg xmlns="http://www.w3.org/2000/svg" width="48" height="48" fill="none" viewBox="0 0 48 48">
  <rect width="38" height="38" x="5" y="5" fill="#000" opacity=".2" rx="4"/>
  <path fill="#000" d="M24 36.3c-1.8 0-3.43-.26-4.89-.78-1.44-.54-2.67-1.3-3.69-2.28-1-1-1.78-2.2-2.34-3.6-.54-1.42-.81-3.01-.81-4.77 0-1.82.29-3.48.87-4.98.6-1.52 1.43-2.82 2.49-3.9 1.06-1.08 2.33-1.91 3.81-2.49 1.48-.6 3.12-.9 4.92-.9 1.24 0 2.42.17 3.54.51 1.12.34 2.33.89 3.63 1.65l.57-1.86h1.08v7.59h-1.5c-.4-1.88-1.21-3.34-2.43-4.38-1.2-1.04-2.71-1.56-4.53-1.56-2.3 0-4.09.89-5.37 2.67-1.26 1.76-1.89 4.23-1.89 7.41 0 3.12.62 5.51 1.86 7.17 1.24 1.66 3.04 2.49 5.4 2.49 1.7 0 3.02-.43 3.96-1.29.96-.88 1.44-2.09 1.44-3.63 0-.92-.24-1.59-.72-2.01-.48-.44-1.29-.71-2.43-.81v-1.2h9.72v1.2c-.98 0-1.66.22-2.04.66-.38.42-.57 1.19-.57 2.31v3.99c-.44 0-.81.02-1.11.06-.3.02-.6.08-.9.18-.28.08-.6.22-.96.42-.36.2-.81.46-1.35.78-1.54.9-3.46 1.35-5.76 1.35z"/>
</svg>
