<svg xmlns="http://www.w3.org/2000/svg" width="48" height="48" fill="none" viewBox="0 0 48 48">
  <path fill="#000" d="M36.048 25.22c0 2.153-.24 4.003-.722 5.548-.456 1.52-1.178 2.774-2.166 3.762s-2.267 1.71-3.838 2.166c-1.545.456-3.407.684-5.586.684-4.078 0-7.068-.849-8.968-2.546-1.874-1.723-2.812-4.459-2.812-8.208V16.214c0-.988-.012-1.811-.038-2.47a23.94 23.94 0 00-.114-1.71c-.05-.456-.126-.823-.228-1.102a2.64 2.64 0 00-.304-.76 1.7 1.7 0 00-.988-.722c-.43-.127-1.09-.19-1.976-.19V7.74H21.95v1.52c-1.064 0-1.85.063-2.356.19-.506.101-.9.317-1.178.646-.177.203-.33.456-.456.76-.101.279-.19.659-.266 1.14-.05.456-.088 1.026-.114 1.71-.025.684-.038 1.52-.038 2.508v9.956c0 2.888.608 5.029 1.824 6.422 1.242 1.368 3.142 2.052 5.7 2.052 5.219 0 7.828-2.9 7.828-8.702v-8.778c0-1.064-.025-1.976-.076-2.736a12.826 12.826 0 00-.19-1.938c-.076-.532-.19-.975-.342-1.33a2.63 2.63 0 00-.494-.874c-.354-.355-.81-.608-1.368-.76-.557-.177-1.33-.266-2.318-.266V7.74h12.312v1.52c-.937 0-1.66.076-2.166.228-.506.127-.9.367-1.178.722-.202.228-.367.532-.494.912-.126.355-.228.81-.304 1.368-.076.532-.14 1.178-.19 1.938-.025.76-.038 1.672-.038 2.736v8.056z"/>
</svg>
