<svg xmlns="http://www.w3.org/2000/svg" width="48" height="48" fill="none" viewBox="0 0 48 48">
  <path fill="#000" d="M25.355 30.464l4.94-12.654c.481-1.241.861-2.255 1.14-3.04.304-.785.532-1.431.684-1.938.152-.507.253-.912.304-1.216.05-.304.076-.595.076-.874 0-.608-.228-1-.684-1.178-.456-.203-1.368-.304-2.736-.304V7.74H39.87v1.52c-2.103 0-3.56 1.026-4.37 3.078L25.507 37.38h-2.812l-9.082-22.192c-.507-1.19-.963-2.166-1.368-2.926-.405-.76-.836-1.355-1.292-1.786-.456-.456-.963-.76-1.52-.912-.532-.177-1.165-.266-1.9-.266V7.74h14.364v1.558a23.78 23.78 0 00-1.672.114c-.43.05-.773.14-1.026.266-.253.101-.43.253-.532.456-.101.177-.152.405-.152.684 0 .355.063.773.19 1.254s.317 1.064.57 1.748l6.08 16.644z"/>
</svg>
