<svg xmlns="http://www.w3.org/2000/svg" width="48" height="48" fill="none" viewBox="0 0 48 48">
  <rect width="38" height="38" x="5" y="5" fill="#000" opacity=".2" rx="4"/>
  <path fill="#000" d="M32.212 30.18l4.05-11.58c.48-1.34.72-2.34.72-3 0-.62-.22-1.02-.66-1.2-.42-.2-1.08-.3-1.98-.3v-1.2h8.52v1.2c-.76 0-1.45.19-2.07.57-.6.36-1.06.98-1.38 1.86l-7.23 19.77h-2.67l-5.22-15.84-5.94 15.84h-2.49l-6.36-17.52c-.38-1.02-.73-1.84-1.05-2.46-.32-.62-.66-1.09-1.02-1.41a2.69 2.69 0 00-1.17-.63c-.42-.1-.92-.15-1.5-.15V12.9h11.34v1.23c-1.02 0-1.72.1-2.1.3-.38.18-.57.49-.57.93 0 .16.01.32.03.48.02.14.06.31.12.51.06.18.13.41.21.69.1.28.23.63.39 1.05l4.2 12.09 4.86-13.26c-.2-.54-.4-.98-.6-1.32-.2-.34-.44-.61-.72-.81-.26-.2-.56-.34-.9-.42-.34-.1-.75-.18-1.23-.24V12.9h10.59v1.23c-.84 0-1.46.11-1.86.33-.4.2-.6.6-.6 1.2 0 .3.04.65.12 1.05.1.4.23.86.39 1.38l3.78 12.09z"/>
</svg>
