<svg xmlns="http://www.w3.org/2000/svg" width="48" height="48" fill="none" viewBox="0 0 48 48">
  <rect width="38" height="38" x="5" y="5" fill="#000" opacity=".2" rx="4"/>
  <path fill="#000" d="M33.97 31.17c0 .76.03 1.38.09 1.86.08.46.23.82.45 1.08.24.24.56.41.96.51.42.1.97.16 1.65.18V36H26.11v-1.2c.74-.02 1.33-.08 1.77-.18.46-.1.81-.27 1.05-.51.26-.24.43-.58.51-1.02.08-.44.12-1.01.12-1.71v-6.27H18.43v6.06c0 .76.04 1.38.12 1.86.08.46.24.82.48 1.08.24.24.58.41 1.02.51.46.1 1.06.16 1.8.18V36H10.87v-1.2c.68-.02 1.22-.08 1.62-.18.42-.1.74-.27.96-.51.22-.24.37-.58.45-1.02.08-.44.12-1.01.12-1.71V17.52c0-.7-.04-1.26-.12-1.68-.06-.44-.19-.78-.39-1.02-.2-.26-.49-.43-.87-.51-.36-.1-.84-.17-1.44-.21v-1.2h10.35v1.2c-.68.02-1.23.08-1.65.18-.4.1-.71.28-.93.54-.22.26-.37.62-.45 1.08-.06.46-.09 1.07-.09 1.83v5.52h11.13v-5.73c0-.7-.04-1.26-.12-1.68-.08-.44-.23-.78-.45-1.02-.22-.26-.54-.43-.96-.51-.4-.1-.94-.17-1.62-.21v-1.2h10.38v1.2c-.6.02-1.09.08-1.47.18-.36.1-.64.28-.84.54-.2.26-.34.62-.42 1.08-.06.46-.09 1.07-.09 1.83v13.44z"/>
</svg>
