<svg xmlns="http://www.w3.org/2000/svg" width="48" height="48" fill="none" viewBox="0 0 48 48">
  <path fill="#000" d="M21.806 30.882c0 .963.064 1.748.19 2.356.127.583.38 1.039.76 1.368.406.304.963.52 1.672.646.735.127 1.71.203 2.926.228V37H12.23v-1.52c.836-.025 1.52-.101 2.052-.228s.938-.342 1.216-.646c.28-.304.47-.735.57-1.292.102-.557.152-1.28.152-2.166V13.592c0-.887-.05-1.596-.152-2.128-.076-.557-.24-.988-.494-1.292-.253-.33-.62-.545-1.102-.646-.456-.127-1.064-.215-1.824-.266V7.74h23.256l.456 8.018h-1.596c-.152-1.09-.38-2.001-.684-2.736-.278-.76-.684-1.368-1.216-1.824-.532-.481-1.216-.823-2.052-1.026-.836-.203-1.862-.304-3.078-.304H22.49c-.456 0-.684.215-.684.646v10.982c1.546 0 2.8-.063 3.762-.19.988-.127 1.774-.367 2.356-.722.583-.38 1.001-.887 1.254-1.52.254-.633.431-1.47.532-2.508h1.406V28.45H29.71c-.152-1.064-.367-1.913-.646-2.546-.278-.659-.709-1.153-1.292-1.482-.557-.355-1.317-.595-2.28-.722-.962-.127-2.19-.19-3.686-.19v7.372z"/>
</svg>
