<svg xmlns="http://www.w3.org/2000/svg" width="48" height="48" fill="none" viewBox="0 0 48 48">
  <rect width="38" height="38" x="5" y="5" fill="#000" opacity=".2" rx="4"/>
  <path fill="#000" d="M25.07 30.84l3.9-9.99c.38-.98.68-1.78.9-2.4.24-.62.42-1.13.54-1.53.12-.4.2-.72.24-.96.04-.24.06-.47.06-.69 0-.48-.18-.79-.54-.93-.36-.16-1.08-.24-2.16-.24v-1.2h8.52v1.2c-1.66 0-2.81.81-3.45 2.43L25.19 36.3h-2.22L15.8 18.78c-.4-.94-.76-1.71-1.08-2.31-.32-.6-.66-1.07-1.02-1.41-.36-.36-.76-.6-1.2-.72-.42-.14-.92-.21-1.5-.21V12.9h11.34v1.23c-.52.02-.96.05-1.32.09-.34.04-.61.11-.81.21-.2.08-.34.2-.42.36-.08.14-.12.32-.12.54 0 .28.05.61.15.99.1.38.25.84.45 1.38l4.8 13.14z"/>
</svg>
