<svg xmlns="http://www.w3.org/2000/svg" width="48" height="48" fill="none" viewBox="0 0 48 48">
  <rect width="38" height="38" x="5" y="5" fill="#000" opacity=".2" rx="4"/>
  <path fill="#000" d="M21.792 17.52c0-.7-.04-1.26-.12-1.68-.06-.44-.19-.78-.39-1.02-.2-.26-.49-.43-.87-.51-.36-.1-.85-.17-1.47-.21v-1.2h10.11v1.2c-.62.02-1.12.08-1.5.18-.38.1-.67.28-.87.54-.2.26-.33.62-.39 1.08-.06.46-.09 1.07-.09 1.83v18.33c0 2.52-.64 4.44-1.92 5.76-1.28 1.32-3.19 1.98-5.73 1.98-1.82 0-3.22-.31-4.2-.93-1-.62-1.5-1.41-1.5-2.37 0-.58.19-1.03.57-1.35.36-.3.81-.45 1.35-.45.46 0 .83.12 1.11.36.26.24.59.69.99 1.35.4.66.76 1.1 1.08 1.32.32.22.71.33 1.17.33.86 0 1.52-.47 1.98-1.41.46-.94.69-2.26.69-3.96V17.52z"/>
</svg>
