<svg xmlns="http://www.w3.org/2000/svg" width="48" height="48" fill="none" viewBox="0 0 48 48">
  <path fill="#000" d="M36.63 30.882c0 .963.037 1.748.113 2.356.101.583.291 1.039.57 1.368.304.304.71.52 1.216.646.532.127 1.229.203 2.09.228V37H26.673v-1.52c.937-.025 1.685-.101 2.242-.228.583-.127 1.026-.342 1.33-.646.33-.304.545-.735.646-1.292.101-.557.152-1.28.152-2.166v-7.942H16.945v7.676c0 .963.05 1.748.152 2.356.101.583.304 1.039.608 1.368.304.304.735.52 1.292.646.583.127 1.343.203 2.28.228V37H7.37v-1.52c.861-.025 1.545-.101 2.052-.228.532-.127.937-.342 1.216-.646.279-.304.469-.735.57-1.292.101-.557.152-1.28.152-2.166V13.592c0-.887-.05-1.596-.152-2.128-.076-.557-.24-.988-.494-1.292-.253-.33-.62-.545-1.102-.646-.456-.127-1.064-.215-1.824-.266V7.74h13.11v1.52c-.861.025-1.558.101-2.09.228-.507.127-.9.355-1.178.684-.279.33-.469.785-.57 1.368-.076.583-.114 1.355-.114 2.318v6.992h14.098v-7.258c0-.887-.05-1.596-.152-2.128-.101-.557-.291-.988-.57-1.292-.279-.33-.684-.545-1.216-.646-.507-.127-1.19-.215-2.052-.266V7.74h13.148v1.52c-.76.025-1.38.101-1.862.228-.456.127-.81.355-1.064.684-.253.33-.43.785-.532 1.368-.076.583-.114 1.355-.114 2.318v17.024z"/>
</svg>
