<svg xmlns="http://www.w3.org/2000/svg" width="48" height="48" fill="none" viewBox="0 0 48 48">
  <rect width="38" height="38" x="5" y="5" fill="#000" opacity=".2" rx="4"/>
  <path fill="#000" d="M28.033 19.939h4.569c-.066-4.018-3.369-6.793-8.389-6.793-4.943 0-8.564 2.73-8.542 6.826-.011 3.324 2.334 5.229 6.142 6.142l2.455.617c2.455.594 3.82 1.299 3.831 2.818-.01 1.651-1.574 2.774-3.996 2.774-2.477 0-4.26-1.145-4.414-3.401h-4.613c.121 4.876 3.611 7.397 9.082 7.397 5.505 0 8.741-2.63 8.752-6.759-.011-3.754-2.84-5.746-6.76-6.627l-2.025-.485c-1.96-.45-3.6-1.177-3.567-2.796 0-1.453 1.288-2.52 3.622-2.52 2.279 0 3.677 1.034 3.853 2.807z"/>
</svg>
