<svg xmlns="http://www.w3.org/2000/svg" width="48" height="48" fill="none" viewBox="0 0 48 48">
  <rect width="38" height="38" x="5" y="5" fill="#000" opacity=".2" rx="4"/>
  <path fill="#000" d="M21.155 23.22c1.28 0 2.31-.04 3.09-.12.78-.08 1.38-.24 1.8-.48.44-.26.75-.63.93-1.11.18-.48.32-1.13.42-1.95h1.11v8.79h-1.11c-.12-.8-.28-1.44-.48-1.92-.2-.48-.52-.84-.96-1.08-.44-.26-1.04-.42-1.8-.48-.74-.08-1.74-.12-3-.12v6.18c0 .64.08 1.18.24 1.62.18.44.47.8.87 1.08.4.26.93.45 1.59.57.66.1 1.47.15 2.43.15 1.14 0 2.1-.08 2.88-.24.8-.16 1.46-.44 1.98-.84.52-.4.94-.93 1.26-1.59.32-.68.59-1.53.81-2.55h1.2l-.48 6.87h-20.34v-1.2c.66-.02 1.2-.08 1.62-.18.42-.1.74-.27.96-.51.22-.24.37-.58.45-1.02.08-.44.12-1.01.12-1.71V17.52c0-.7-.04-1.26-.12-1.68-.06-.44-.19-.78-.39-1.02-.2-.26-.49-.43-.87-.51-.36-.1-.84-.17-1.44-.21v-1.2h18.96l.21 5.88h-1.29c-.12-.84-.31-1.53-.57-2.07-.26-.56-.62-1-1.08-1.32-.46-.34-1.06-.57-1.8-.69-.72-.14-1.61-.21-2.67-.21h-3.39c-.52 0-.84.07-.96.21-.12.12-.18.42-.18.9v7.62z"/>
</svg>
