<svg xmlns="http://www.w3.org/2000/svg" width="48" height="48" fill="none" viewBox="0 0 48 48">
  <path fill="#000" d="M20.396 20.812c1.622 0 2.926-.05 3.914-.152.988-.101 1.748-.304 2.28-.608a2.68 2.68 0 001.178-1.406c.228-.608.406-1.431.532-2.47h1.406V27.31H28.3c-.152-1.013-.354-1.824-.608-2.432a2.682 2.682 0 00-1.216-1.368c-.557-.33-1.317-.532-2.28-.608-.937-.101-2.204-.152-3.8-.152v7.828c0 .81.102 1.495.304 2.052a3.054 3.054 0 001.102 1.368c.507.33 1.178.57 2.014.722.836.127 1.862.19 3.078.19 1.444 0 2.66-.101 3.648-.304 1.014-.203 1.85-.557 2.508-1.064.659-.507 1.19-1.178 1.596-2.014.406-.861.748-1.938 1.026-3.23h1.52L36.584 37H10.82v-1.52c.836-.025 1.52-.101 2.052-.228s.938-.342 1.216-.646c.279-.304.469-.735.57-1.292.102-.557.152-1.28.152-2.166V13.592c0-.887-.05-1.596-.152-2.128-.076-.557-.24-.988-.494-1.292-.253-.33-.62-.545-1.102-.646-.456-.127-1.064-.215-1.824-.266V7.74h24.016l.266 7.448h-1.634c-.152-1.064-.392-1.938-.722-2.622-.33-.71-.785-1.267-1.368-1.672-.582-.43-1.342-.722-2.28-.874-.912-.177-2.04-.266-3.382-.266H21.84c-.658 0-1.064.089-1.216.266-.152.152-.228.532-.228 1.14v9.652z"/>
</svg>
