<svg xmlns="http://www.w3.org/2000/svg" width="48" height="48" fill="none" viewBox="0 0 48 48">
  <rect width="38" height="38" x="5" y="5" fill="#000" opacity=".2" rx="4"/>
  <path fill="#000" d="M34.553 24.727c0-7.375-4.58-11.58-10.557-11.58-6.01 0-10.557 4.205-10.557 11.58 0 7.343 4.546 11.581 10.557 11.581 1.409 0 2.741-.23 3.952-.693l1.816 2.234h4.448l-3.226-4.05c2.202-1.971 3.567-5.054 3.567-9.072zm-12.208 3.435l2.884 3.809a6.333 6.333 0 01-1.233.121c-3.468 0-5.725-2.587-5.725-7.365 0-4.777 2.257-7.364 5.725-7.364 3.457 0 5.724 2.587 5.724 7.364 0 2.455-.605 4.338-1.651 5.582l-1.673-2.147h-4.051z"/>
</svg>
