<svg xmlns="http://www.w3.org/2000/svg" width="48" height="48" fill="none" viewBox="0 0 48 48">
  <path fill="#000" d="M21.203 13.592c0-.887-.051-1.596-.152-2.128-.076-.557-.241-.988-.494-1.292-.254-.33-.621-.545-1.102-.646-.456-.127-1.077-.215-1.862-.266V7.74h12.806v1.52c-.786.025-1.419.101-1.9.228-.482.127-.849.355-1.102.684-.254.33-.418.785-.494 1.368-.076.583-.114 1.355-.114 2.318v23.218c0 3.192-.811 5.624-2.432 7.296-1.622 1.672-4.041 2.508-7.258 2.508-2.306 0-4.079-.393-5.32-1.178-1.267-.785-1.9-1.786-1.9-3.002 0-.735.24-1.305.722-1.71.456-.38 1.026-.57 1.71-.57.582 0 1.051.152 1.406.456.329.304.747.874 1.254 1.71.506.836.962 1.393 1.368 1.672.405.279.899.418 1.482.418 1.089 0 1.925-.595 2.508-1.786.582-1.19.874-2.863.874-5.016V13.592z"/>
</svg>
