<svg xmlns="http://www.w3.org/2000/svg" width="48" height="48" fill="none" viewBox="0 0 48 48">
  <path fill="#000" d="M36.98 15.872c0 2.736-1.063 4.826-3.191 6.27-2.128 1.419-5.219 2.128-9.272 2.128h-3.23v6.688c0 .963.063 1.748.19 2.356.127.583.392 1.039.798 1.368.405.33.963.545 1.672.646.71.101 1.66.152 2.85.152V37H11.71v-1.52c.836-.025 1.52-.101 2.052-.228s.937-.342 1.216-.646c.279-.304.469-.735.57-1.292.101-.557.152-1.28.152-2.166V13.592c0-.887-.05-1.596-.152-2.128-.076-.557-.24-.988-.494-1.292-.253-.33-.62-.545-1.102-.646-.456-.127-1.064-.215-1.824-.266V7.74h13.148c3.85 0 6.764.684 8.74 2.052 1.976 1.368 2.964 3.395 2.964 6.08zM21.288 21.99h2.47c2.457 0 4.256-.494 5.396-1.482 1.14-.988 1.71-2.546 1.71-4.674 0-1.9-.482-3.37-1.444-4.408-.963-1.039-2.47-1.558-4.522-1.558H21.97c-.456 0-.684.215-.684.646V21.99z"/>
</svg>
