<svg xmlns="http://www.w3.org/2000/svg" width="48" height="48" fill="none" viewBox="0 0 48 48">
  <rect width="38" height="38" x="5" y="5" fill="#000" opacity=".2" rx="4"/>
  <path fill="#000" d="M15.633 16.68c-.3-.52-.58-.95-.84-1.29-.24-.34-.49-.6-.75-.78-.26-.2-.54-.33-.84-.39-.3-.08-.64-.12-1.02-.12v-1.2h10.08v1.2c-.84 0-1.43.08-1.77.24-.34.16-.51.4-.51.72 0 .2.06.44.18.72.12.28.31.66.57 1.14l4.29 8.19h.12l3.78-6.3c.66-1.12 1.12-1.95 1.38-2.49.26-.56.39-1 .39-1.32 0-.34-.16-.57-.48-.69-.3-.14-.87-.21-1.71-.21v-1.2h7.53v1.2c-.44 0-.84.07-1.2.21-.36.14-.74.42-1.14.84-.38.4-.82.97-1.32 1.71-.48.72-1.06 1.67-1.74 2.85l-4.38 7.5v3.06c0 1 .04 1.8.12 2.4.1.6.26 1.06.48 1.38.24.3.56.5.96.6.4.1.92.15 1.56.15V36h-10.68v-1.2c.62 0 1.13-.05 1.53-.15.42-.1.75-.3.99-.6s.4-.73.48-1.29c.1-.58.15-1.34.15-2.28v-2.76l-6.21-11.04z"/>
</svg>
