<svg width="48" height="48" viewBox="0 0 48 48" fill="none" xmlns="http://www.w3.org/2000/svg">
<rect opacity="0.2" width="48" height="48" rx="8" fill="#9FA4A9"/>
<path fill-rule="evenodd" clip-rule="evenodd" d="M23.0874 4.19736C23.5742 3.65353 24.4257 3.65353 24.9125 4.19736L29.5039 9.32611C29.752 9.60327 30.1127 9.75265 30.4841 9.73211L37.3573 9.35214C38.0861 9.31185 38.6881 9.91391 38.6478 10.6427L38.2679 17.5159C38.2473 17.8873 38.3967 18.2479 38.6739 18.4961L43.8026 23.0874C44.3464 23.5743 44.3464 24.4257 43.8026 24.9126L38.6739 29.504C38.3967 29.7521 38.2473 30.1127 38.2679 30.4841L38.6478 37.3573C38.6881 38.0861 38.0861 38.6882 37.3573 38.6479L30.4841 38.2679C30.1127 38.2474 29.752 38.3968 29.5039 38.6739L24.9125 43.8027C24.4257 44.3465 23.5742 44.3465 23.0874 43.8027L18.496 38.6739C18.2479 38.3968 17.8872 38.2474 17.5158 38.2679L10.6426 38.6479C9.91385 38.6882 9.31179 38.0861 9.35208 37.3573L9.73205 30.4841C9.75259 30.1127 9.60321 29.7521 9.32605 29.504L4.1973 24.9126C3.65347 24.4257 3.65347 23.5743 4.1973 23.0874L9.32605 18.4961C9.60321 18.2479 9.75259 17.8873 9.73205 17.5159L9.35208 10.6427C9.31179 9.91391 9.91385 9.31185 10.6426 9.35214L17.5158 9.73211C17.8872 9.75265 18.2479 9.60327 18.496 9.32611L23.0874 4.19736ZM24 33.7986C29.4116 33.7986 33.7986 29.4116 33.7986 24C33.7986 18.5884 29.4116 14.2014 24 14.2014C18.5883 14.2014 14.2013 18.5884 14.2013 24C14.2013 29.4116 18.5883 33.7986 24 33.7986Z" fill="#9FA4A9"/>
<circle opacity="0.2" cx="23.9999" cy="24" r="10.1053" fill="#9FA4A9"/>
</svg>
