<svg width="48" height="48" viewBox="0 0 48 48" fill="none" xmlns="http://www.w3.org/2000/svg">
<g id="internet-communication/link">
<path id="Vector 70 (Stroke)" opacity="0.8" fill-rule="evenodd" clip-rule="evenodd" d="M39.4588 13.5315C37.7883 11.8609 35.0797 11.8609 33.4092 13.5315L15.6922 31.2485C15.2149 31.7258 15.2149 32.4996 15.6922 32.9769C16.1695 33.4542 16.9434 33.4542 17.4207 32.9769L34.2734 16.1242C34.9894 15.4083 36.1502 15.4083 36.8661 16.1242C37.5821 16.8402 37.5821 18.001 36.8661 18.717L20.0134 35.5697C18.1042 37.4789 15.0087 37.4789 13.0995 35.5697C11.1902 33.6604 11.1902 30.565 13.0995 28.6557L30.8164 10.9388C33.9189 7.83628 38.9491 7.83628 42.0516 10.9388C45.1541 14.0413 45.1541 19.0714 42.0516 22.1739L24.3346 39.8909C20.0389 44.1866 13.074 44.1866 8.77827 39.8909C4.4825 35.5951 4.4825 28.6303 8.77827 24.3345L23.9025 9.2103C24.6185 8.49433 25.7793 8.49433 26.4952 9.2103C27.2112 9.92626 27.2112 11.0871 26.4952 11.803L11.371 26.9272C8.50715 29.7911 8.50715 34.4343 11.371 37.2981C14.2348 40.162 18.8781 40.162 21.7419 37.2981L39.4588 19.5812C41.1294 17.9106 41.1294 15.2021 39.4588 13.5315Z" fill="#9FA4A9"/>
<path id="Subtract" fill-rule="evenodd" clip-rule="evenodd" d="M32.1125 32.1126L42.0513 22.1738C45.1538 19.0713 45.1538 14.0412 42.0513 10.9387C38.9488 7.83619 33.9186 7.83619 30.8161 10.9387L20.8774 20.8775L23.4701 23.4702L33.4089 13.5314C35.0794 11.8608 37.788 11.8608 39.4585 13.5314C41.1291 15.202 41.1291 17.9105 39.4585 19.5811L29.5198 29.5199L32.1125 32.1126ZM27.7913 27.7914L36.8658 18.7169C37.5818 18.0009 37.5818 16.8401 36.8658 16.1241C36.1499 15.4082 34.9891 15.4082 34.2731 16.1241L25.1986 25.1987L27.7913 27.7914ZM19.1489 19.149L26.4949 11.8029C27.2109 11.087 27.2109 9.92617 26.4949 9.21021C25.779 8.49425 24.6182 8.49425 23.9022 9.21021L16.5562 16.5563L19.1489 19.149Z" fill="#9FA4A9"/>
</g>
</svg>
