<svg width="48" height="48" viewBox="0 0 48 48" fill="none" xmlns="http://www.w3.org/2000/svg">
<g id="internet-communication/link-simple">
<rect id="Rectangle 37" opacity="0.2" x="5" y="5" width="38" height="38" rx="4" fill="black"/>
<path id="Vector 70 (Stroke)" fill-rule="evenodd" clip-rule="evenodd" d="M36.3449 14.132C34.978 12.7651 32.762 12.7651 31.3951 14.132L16.8994 28.6276C16.5089 29.0182 16.5089 29.6513 16.8994 30.0419C17.29 30.4324 17.9231 30.4324 18.3137 30.0419L32.1022 16.2533C32.688 15.6675 33.6378 15.6675 34.2236 16.2533C34.8093 16.8391 34.8093 17.7888 34.2236 18.3746L20.435 32.1632C18.8729 33.7253 16.3402 33.7253 14.7781 32.1632C13.216 30.6011 13.216 28.0684 14.7781 26.5063L29.2738 12.0106C31.8122 9.47223 35.9278 9.47223 38.4662 12.0106C41.0046 14.549 41.0046 18.6646 38.4662 21.203L23.9705 35.6987C20.4558 39.2134 14.7573 39.2134 11.2426 35.6987C7.72787 32.184 7.72787 26.4855 11.2426 22.9708L23.617 10.5964C24.2027 10.0106 25.1525 10.0106 25.7383 10.5964C26.3241 11.1822 26.3241 12.132 25.7383 12.7177L13.3639 25.0921C11.0208 27.4353 11.0208 31.2342 13.3639 33.5774C15.7071 35.9205 19.506 35.9205 21.8492 33.5774L36.3449 19.0817C37.7117 17.7149 37.7117 15.4988 36.3449 14.132Z" fill="black"/>
</g>
</svg>
