<svg width="48" height="48" viewBox="0 0 48 48" fill="none" xmlns="http://www.w3.org/2000/svg">
<g id="internet-communication/map-simple">
<path id="Rectangle 1" opacity="0.2" d="M5 13C5 9.22876 5 7.34315 6.17157 6.17157C7.34315 5 9.22876 5 13 5H35C38.7712 5 40.6569 5 41.8284 6.17157C43 7.34315 43 9.22876 43 13V35C43 38.7712 43 40.6569 41.8284 41.8284C40.6569 43 38.7712 43 35 43H13C9.22876 43 7.34315 43 6.17157 41.8284C5 40.6569 5 38.7712 5 35V13Z" fill="black"/>
<path id="Subtract" fill-rule="evenodd" clip-rule="evenodd" d="M23.6218 35.7711C19.748 32.9219 7.58073 11 24 11C40.4192 11 28.2519 32.9218 24.3784 35.7711C24.1492 35.9396 23.851 35.9396 23.6218 35.7711ZM24 24C26.7614 24 29 21.7614 29 19C29 16.2386 26.7614 14 24 14C21.2386 14 19 16.2386 19 19C19 21.7614 21.2386 24 24 24Z" fill="black"/>
</g>
</svg>
