<svg xmlns="http://www.w3.org/2000/svg" width="48" height="48" fill="none" viewBox="0 0 48 48">
  <path fill="#000" d="M20.364 30.278h5.383v-.482c.029-2.77 1.023-4.063 3.267-5.412 2.657-1.577 4.39-3.665 4.39-7.003 0-4.972-4.006-7.87-9.646-7.87-5.156 0-9.36 2.7-9.488 8.381h5.795c.086-2.315 1.804-3.551 3.665-3.551 1.918 0 3.466 1.278 3.466 3.253 0 1.86-1.35 3.096-3.097 4.204-2.386 1.506-3.721 3.026-3.735 7.998v.482zm2.798 9.091c1.818 0 3.395-1.52 3.409-3.409-.014-1.86-1.59-3.38-3.41-3.38-1.874 0-3.422 1.52-3.408 3.38-.014 1.89 1.534 3.41 3.409 3.41z"/>
</svg>
