<svg xmlns="http://www.w3.org/2000/svg" width="48" height="48" fill="none" viewBox="0 0 48 48">
  <rect width="38" height="38" x="5" y="5" fill="#000" opacity=".2" rx="4"/>
  <path fill="#000" fill-rule="evenodd" d="M33.172 35.586a2 2 0 01-2.828 0l-17.93-17.93a2 2 0 010-2.828l2.414-2.414a2 2 0 012.828 0l17.93 17.93a2 2 0 010 2.828l-2.414 2.414z" clip-rule="evenodd"/>
  <path fill="#000" fill-rule="evenodd" d="M14.828 35.586a2 2 0 002.828 0l17.93-17.93a2 2 0 000-2.828l-2.414-2.414a2 2 0 00-2.828 0l-17.93 17.93a2 2 0 000 2.828l2.414 2.414z" clip-rule="evenodd"/>
</svg>
