<svg width="48" height="48" viewBox="0 0 48 48" fill="none" xmlns="http://www.w3.org/2000/svg">
<rect opacity="0.2" x="5" y="5" width="38" height="38" rx="4" fill="black"/>
<path opacity="0.6" fill-rule="evenodd" clip-rule="evenodd" d="M22.5 9C21.6716 9 21 9.67157 21 10.5V12.378C21.9587 12.1313 22.9639 12.0001 23.9996 12.0001C25.0357 12.0001 26.041 12.1314 27 12.3782V10.5C27 9.67157 26.3284 9 25.5 9H22.5ZM30.0957 13.6617C31.843 14.6942 33.3058 16.157 34.3383 17.9044L35.6673 16.5754C36.253 15.9896 36.253 15.0398 35.6673 14.4541L33.5459 12.3327C32.9602 11.747 32.0104 11.747 31.4246 12.3327L30.0957 13.6617ZM35.6215 21C35.8684 21.9589 35.9996 22.9642 35.9996 24.0001C35.9996 25.036 35.8684 26.0412 35.6216 27H37.5C38.3284 27 39 26.3284 39 25.5V22.5C39 21.6716 38.3284 21 37.5 21H35.6215ZM34.3383 30.0957C33.3059 31.843 31.8431 33.3059 30.0958 34.3385L31.4246 35.6673C32.0104 36.253 32.9602 36.253 33.5459 35.6673L35.6673 33.5459C36.253 32.9602 36.253 32.0104 35.6673 31.4246L34.3383 30.0957ZM27 35.6219C26.041 35.8688 25.0357 36.0001 23.9996 36.0001C22.9639 36.0001 21.9587 35.8689 21 35.6221V37.5C21 38.3284 21.6716 39 22.5 39H25.5C26.3284 39 27 38.3284 27 37.5V35.6219ZM17.9039 34.3387C16.1566 33.3063 14.6937 31.8435 13.6612 30.0962L12.3327 31.4246C11.747 32.0104 11.747 32.9602 12.3327 33.5459L14.4541 35.6673C15.0398 36.253 15.9896 36.253 16.5754 35.6673L17.9039 34.3387ZM12.3776 27C12.1309 26.0412 11.9996 25.036 11.9996 24.0001C11.9996 22.9642 12.1309 21.9589 12.3777 21H10.5C9.67157 21 9 21.6716 9 22.5V25.5C9 26.3284 9.67157 27 10.5 27H12.3776ZM13.6613 17.9039C14.6938 16.1566 16.1567 14.6938 17.904 13.6614L16.5754 12.3327C15.9896 11.747 15.0398 11.747 14.4541 12.3327L12.3327 14.4541C11.747 15.0398 11.747 15.9896 12.3327 16.5754L13.6613 17.9039Z" fill="black"/>
<path fill-rule="evenodd" clip-rule="evenodd" d="M24 32.25C28.3665 32.25 31.9062 28.5563 31.9062 24C31.9062 19.4437 28.3665 15.75 24 15.75C19.6335 15.75 16.0938 19.4437 16.0938 24C16.0938 28.5563 19.6335 32.25 24 32.25ZM24 36C30.3513 36 35.5 30.6274 35.5 24C35.5 17.3726 30.3513 12 24 12C17.6487 12 12.5 17.3726 12.5 24C12.5 30.6274 17.6487 36 24 36Z" fill="black"/>
<path fill-rule="evenodd" clip-rule="evenodd" d="M24 12.5C17.9447 12.5 13 17.6285 13 24C13 30.3715 17.9447 35.5 24 35.5C30.0553 35.5 35 30.3715 35 24C35 17.6285 30.0553 12.5 24 12.5ZM12 24C12 17.1167 17.3527 11.5 24 11.5C30.6473 11.5 36 17.1167 36 24C36 30.8833 30.6473 36.5 24 36.5C17.3527 36.5 12 30.8833 12 24ZM24 16.25C19.9295 16.25 16.5938 19.6995 16.5938 24C16.5938 28.3005 19.9295 31.75 24 31.75C28.0705 31.75 31.4062 28.3005 31.4062 24C31.4062 19.6995 28.0705 16.25 24 16.25ZM15.5938 24C15.5938 19.1878 19.3375 15.25 24 15.25C28.6625 15.25 32.4062 19.1878 32.4062 24C32.4062 28.8122 28.6625 32.75 24 32.75C19.3375 32.75 15.5938 28.8122 15.5938 24Z" fill="black"/>
<path opacity="0.2" fill-rule="evenodd" clip-rule="evenodd" d="M29.329 30.2982C27.8915 31.5158 26.0315 32.2501 24 32.2501C19.4437 32.2501 15.75 28.5564 15.75 24.0001C15.75 19.5337 19.2992 15.8963 23.7311 15.7544C23.1384 15.7737 22.5515 15.8569 21.9803 16.0011L25.2994 21.75H31.9376C31.7527 21.0974 31.4871 20.4674 31.1451 19.875C30.9524 19.5413 30.7373 19.2227 30.5017 18.9211C31.5971 20.3214 32.25 22.0845 32.25 24.0001C32.25 25.987 31.5476 27.8098 30.3776 29.2339C30.6622 28.8871 30.9191 28.5164 31.1451 28.125C31.4871 27.5326 31.7527 26.9026 31.9376 26.25H25.2994L21.9803 31.9989C22.6379 32.1649 23.3163 32.25 24.0004 32.25C25.4486 32.25 26.8712 31.8688 28.1254 31.1447C28.5527 30.898 28.9553 30.6145 29.329 30.2982ZM29.1379 17.5449C28.8191 17.2911 28.4808 17.0605 28.1254 16.8553C26.9607 16.1829 25.6507 15.8061 24.3099 15.7558C26.1323 15.8231 27.8036 16.4815 29.1379 17.5449ZM15.7504 24C15.7504 22.5518 16.1316 21.1292 16.8557 19.875C17.1977 19.2826 17.6106 18.7376 18.0832 18.2511L21.4023 24L18.0832 29.7489C17.6106 29.2624 17.1977 28.7174 16.8557 28.125C16.1316 26.8708 15.7504 25.4482 15.7504 24Z" fill="black"/>
</svg>
