<svg width="48" height="48" viewBox="0 0 48 48" fill="none" xmlns="http://www.w3.org/2000/svg">
<g id="months/may-5">
<rect id="Rectangle 1" opacity="0.2" x="5" y="5" width="38" height="38" rx="4" fill="black"/>
<path id="Rectangle 2" d="M5 13C5 9.22876 5 7.34315 6.17157 6.17157C7.34315 5 9.22876 5 13 5H35C38.7712 5 40.6569 5 41.8284 6.17157C43 7.34315 43 9.22876 43 13V15H5V13Z" fill="black"/>
<path id="MAY" d="M6.50355 23.3636V35H8.88991V27.3977H8.98651L11.9979 34.9432H13.6229L16.6342 27.4261H16.7308V35H19.1172V23.3636H16.0831L12.8786 31.1818H12.7422L9.53764 23.3636H6.50355ZM23.1499 35L24.0135 32.3466H28.2124L29.076 35H31.7124L27.701 23.3636H24.5305L20.5135 35H23.1499ZM24.6385 30.4261L26.0703 26.0227H26.1612L27.593 30.4261H24.6385ZM31.2436 23.3636L35.4879 30.8864V35H37.9311V30.8864L42.1754 23.3636H39.4197L36.7663 28.375H36.6527L33.9993 23.3636H31.2436Z" fill="black"/>
</g>
</svg>
