<svg xmlns="http://www.w3.org/2000/svg" width="48" height="48" fill="none" viewBox="0 0 48 48">
  <path fill="#000" fill-rule="evenodd" d="M6.172 6.172C5 7.343 5 9.229 5 13v22c0 3.771 0 5.657 1.172 6.828C7.343 43 9.229 43 13 43h17v-9a4 4 0 014-4h9V13c0-3.771 0-5.657-1.172-6.828C40.657 5 38.771 5 35 5H13C9.229 5 7.343 5 6.172 6.172zM11 13a2 2 0 012-2h20a2 2 0 110 4H13a2 2 0 01-2-2zm0 8a2 2 0 012-2h15a2 2 0 110 4H13a2 2 0 01-2-2zm2 6a2 2 0 100 4h8a2 2 0 100-4h-8z" clip-rule="evenodd" opacity=".2"/>
  <path fill="#000" d="M11 13a2 2 0 012-2h20a2 2 0 110 4H13a2 2 0 01-2-2zM11 21a2 2 0 012-2h15a2 2 0 110 4H13a2 2 0 01-2-2zM11 29a2 2 0 012-2h8a2 2 0 110 4h-8a2 2 0 01-2-2z"/>
  <path fill="#000" d="M43 30h-9a4 4 0 00-4 4v9l13-13z" opacity=".6"/>
</svg>
