<svg xmlns="http://www.w3.org/2000/svg" width="48" height="48" fill="none" viewBox="0 0 48 48">
  <rect width="38" height="38" x="5" y="5" fill="#000" opacity=".2" rx="4"/>
  <rect width="28" height="28" x="11" y="10" fill="#000" opacity=".2" rx="4"/>
  <mask id="a" width="28" height="28" x="11" y="10" maskUnits="userSpaceOnUse" style="mask-type:alpha">
    <rect width="28" height="28" x="11" y="10" fill="#9FA4A9" rx="4"/>
  </mask>
  <g mask="url(#a)">
    <path stroke="#000" stroke-linecap="round" stroke-width="4" d="M23 21h11" opacity=".2"/>
    <rect width="15" height="4" x="21" y="13" fill="#000" opacity=".6" rx="2"/>
    <path fill="#000" fill-rule="evenodd" d="M10.738 16.632V19.578h1.473a1.474 1.474 0 010 2.948h-1.474v2.948h1.474a1.474 1.474 0 010 2.947h-1.474v2.947h1.474a1.474 1.474 0 010 2.948h-1.37c.106.93.317 1.598.74 2.14.203.262.438.497.7.7 1.083.844 2.664.844 5.825.844V10c-3.161 0-4.742 0-5.826.843a4.002 4.002 0 00-.7.7c-.422.543-.633 1.212-.738 2.141h1.369a1.474 1.474 0 010 2.948h-1.473z" clip-rule="evenodd"/>
    <g opacity=".2">
      <path fill="#000" d="M9 15.429c0-.79.746-1.429 1.667-1.429h1.666c.92 0 1.667.64 1.667 1.429s-.746 1.428-1.667 1.428h-1.666c-.92 0-1.667-.64-1.667-1.428zM9 32.571c0-.788.746-1.428 1.667-1.428h1.666c.92 0 1.667.64 1.667 1.428 0 .79-.746 1.429-1.667 1.429h-1.666C9.747 34 9 33.36 9 32.571zM9 26.857c0-.789.746-1.428 1.667-1.428h1.666c.92 0 1.667.64 1.667 1.428 0 .79-.746 1.429-1.667 1.429h-1.666c-.92 0-1.667-.64-1.667-1.429zM9 21.143c0-.79.746-1.429 1.667-1.429h1.666c.92 0 1.667.64 1.667 1.429s-.746 1.428-1.667 1.428h-1.666c-.92 0-1.667-.64-1.667-1.428z"/>
    </g>
  </g>
</svg>
