<svg xmlns="http://www.w3.org/2000/svg" width="48" height="48" fill="none" viewBox="0 0 48 48">
  <rect width="28" height="28" x="10" y="10" fill="#000" opacity=".2" rx="4"/>
  <path fill="#000" d="M17 6a3 3 0 013-3h8a3 3 0 013 3v7.587a4 4 0 01-1.233 2.888l-3 2.874a4 4 0 01-5.534 0l-3-2.874A4 4 0 0117 13.587V6zM31 42a3 3 0 01-3 3h-8a3 3 0 01-3-3v-7.587a4 4 0 011.233-2.888l3-2.874a4 4 0 015.534 0l3 2.874A4 4 0 0131 34.413V42zM42 17a3 3 0 013 3v8a3 3 0 01-3 3h-7.587a4 4 0 01-2.888-1.233l-2.874-3a4 4 0 010-5.534l2.874-3A4 4 0 0134.413 17H42zM6 31a3 3 0 01-3-3v-8a3 3 0 013-3h7.587a4 4 0 012.888 1.233l2.874 3a4 4 0 010 5.534l-2.874 3A4 4 0 0113.587 31H6z"/>
</svg>
