<svg xmlns="http://www.w3.org/2000/svg" width="48" height="48" fill="none" viewBox="0 0 48 48">
  <path fill="#000" d="M5 21.6a2 2 0 012-2h8.4V39a4 4 0 01-4 4H9a4 4 0 01-4-4V21.6z" opacity=".6"/>
  <path fill="#000" fill-rule="evenodd" d="M11.402 43H15.4v-4a4 4 0 01-3.998 4z" clip-rule="evenodd"/>
  <g opacity=".4">
    <path fill="#000" d="M20.6 10.5c0-.718.63-1.3 1.408-1.3H36.09c.778 0 1.409.582 1.409 1.3 0 .718-.63 1.3-1.409 1.3H22.008c-.778 0-1.408-.582-1.408-1.3zM20.6 18.3c0-.718.63-1.3 1.408-1.3H36.09c.778 0 1.409.582 1.409 1.3 0 .718-.63 1.3-1.409 1.3H22.008c-.778 0-1.408-.582-1.408-1.3zM20.6 26.1c0-.718.63-1.3 1.408-1.3H36.09c.778 0 1.409.582 1.409 1.3 0 .718-.63 1.3-1.409 1.3H22.008c-.778 0-1.408-.582-1.408-1.3zM20.6 33.9c0-.718.63-1.3 1.408-1.3h9.858c.778 0 1.409.582 1.409 1.3 0 .718-.63 1.3-1.409 1.3h-9.858c-.778 0-1.408-.582-1.408-1.3z"/>
  </g>
  <path fill="#000" fill-rule="evenodd" d="M17.4 4a2 2 0 00-2 2v37h23.3a4 4 0 004-4V6a2 2 0 00-2-2H17.4zm4.609 5.2c-.778 0-1.409.582-1.409 1.3 0 .718.63 1.3 1.409 1.3h14.083c.778 0 1.408-.582 1.408-1.3 0-.718-.63-1.3-1.408-1.3H22.009zm0 7.8c-.778 0-1.409.582-1.409 1.3 0 .718.63 1.3 1.409 1.3h14.083c.778 0 1.408-.582 1.408-1.3 0-.718-.63-1.3-1.408-1.3H22.009zM20.6 26.1c0-.718.63-1.3 1.409-1.3h14.083c.778 0 1.408.582 1.408 1.3 0 .718-.63 1.3-1.408 1.3H22.009c-.778 0-1.409-.582-1.409-1.3zm1.409 6.5c-.778 0-1.409.582-1.409 1.3 0 .718.63 1.3 1.409 1.3h9.858c.778 0 1.408-.582 1.408-1.3 0-.718-.63-1.3-1.408-1.3h-9.858z" clip-rule="evenodd"/>
</svg>
