<svg xmlns="http://www.w3.org/2000/svg" width="48" height="48" fill="none" viewBox="0 0 48 48">
  <rect width="38" height="38" x="5" y="5" fill="#000" opacity=".2" rx="4"/>
  <path fill="#000" d="M10 18c0-3.771 0-5.657 1.172-6.828C12.343 10 14.229 10 18 10h12c3.771 0 5.657 0 6.828 1.172C38 12.343 38 14.229 38 18v10h-6a4 4 0 00-4 4v6H18c-3.771 0-5.657 0-6.828-1.172C10 35.657 10 33.771 10 30V18z" opacity=".2"/>
  <path fill="#000" d="M14 15.5a1.5 1.5 0 011.5-1.5h13a1.5 1.5 0 010 3h-13a1.5 1.5 0 01-1.5-1.5zM14 21.5a1.5 1.5 0 011.5-1.5h6a1.5 1.5 0 010 3h-6a1.5 1.5 0 01-1.5-1.5z"/>
  <path fill="#000" d="M38 28h-6a4 4 0 00-4 4v6l10-10z" opacity=".6"/>
</svg>
