<svg xmlns="http://www.w3.org/2000/svg" width="48" height="48" fill="none" viewBox="0 0 48 48">
  <rect width="38" height="38" x="5" y="5" fill="#000" opacity=".2" rx="4"/>
  <path fill="#000" fill-rule="evenodd" d="M17.866 32v1a1 1 0 001 1H21a1 1 0 001-1V19.889A6.89 6.89 0 0015.111 13a4.92 4.92 0 00-4.9 4.46l-.195 2.082a3.609 3.609 0 004.026 3.92l1.619-.195a1.969 1.969 0 012.205 1.954V30H22v2h-4.134z" clip-rule="evenodd"/>
  <g opacity=".6">
    <path fill="#000" d="M17.866 30H22v2h-4.134v-2zM12.698 19.5c0-.581.442-1 1.034-1 .592 0 1.033.419 1.033 1V21c0 .581-.441 1-1.033 1-.592 0-1.034-.419-1.034-1v-1.5z"/>
  </g>
  <g>
    <path fill="#000" fill-rule="evenodd" d="M30.134 25.221V33a1 1 0 01-1 1H27a1 1 0 01-1-1V19.89A6.89 6.89 0 0132.889 13a4.92 4.92 0 014.9 4.46l.195 2.082a3.609 3.609 0 01-4.026 3.92l-1.618-.195a1.969 1.969 0 00-2.206 1.954zM26 30h4.134v2H26v-2z" clip-rule="evenodd"/>
    <g opacity=".6">
      <path fill="#000" d="M30.134 30H26v2h4.134v-2zM35.302 19.5c0-.581-.442-1-1.034-1-.592 0-1.033.419-1.033 1V21c0 .581.441 1 1.033 1 .592 0 1.034-.419 1.034-1v-1.5z"/>
    </g>
  </g>
</svg>
