<svg xmlns="http://www.w3.org/2000/svg" width="48" height="48" fill="none" viewBox="0 0 48 48">
  <rect width="40" height="40" x="4" y="6" fill="#000" opacity=".2" rx="4"/>
  <path fill="#000" d="M10.603 36l.864-2.653h4.198L16.53 36h2.637l-4.012-11.636h-3.17L7.967 36h2.636zm1.489-4.574l1.431-4.403h.091l1.432 4.403h-2.954zM20.566 36h2.46v-3.773h2.069c2.676 0 4.232-1.596 4.232-3.92 0-2.313-1.528-3.943-4.17-3.943h-4.59V36zm2.46-5.744v-3.881h1.66c1.42 0 2.107.773 2.107 1.932 0 1.153-.687 1.949-2.096 1.949h-1.67zm7.9 5.744h2.46v-4.125h1.795L37.386 36h2.716l-2.472-4.523c1.324-.568 2.057-1.721 2.057-3.312 0-2.313-1.529-3.801-4.17-3.801h-4.592V36zm2.46-6.102v-3.523h1.659c1.42 0 2.108.63 2.108 1.79 0 1.153-.688 1.733-2.097 1.733h-1.67z"/>
  <g opacity=".4">
    <path fill="#000" d="M10 4a2 2 0 114 0v4a2 2 0 11-4 0V4zM34 4a2 2 0 114 0v4a2 2 0 11-4 0V4z"/>
  </g>
  <path fill="#000" fill-rule="evenodd" d="M10 6.009c-2.48.036-3.885.22-4.828 1.163C4 8.343 4 10.229 4 14v2h40v-2c0-3.771 0-5.657-1.172-6.828-.943-.944-2.348-1.127-4.828-1.163V8a2 2 0 11-4 0V6H14v2a2 2 0 11-4 0V6.009z" clip-rule="evenodd"/>
</svg>
