<svg xmlns="http://www.w3.org/2000/svg" width="48" height="48" fill="none" viewBox="0 0 48 48">
  <rect width="38" height="38" x="5" y="5" fill="#000" opacity=".2" rx="4"/>
  <path fill="#000" d="M5 13c0-3.771 0-5.657 1.172-6.828C7.343 5 9.229 5 13 5h22c3.771 0 5.657 0 6.828 1.172C43 7.343 43 9.229 43 13v2H5v-2zM10.144 35h2.46v-4.807h4.733v-2.028h-4.733v-2.773h5.245v-2.028h-7.705V35zm9.36 0h7.863v-2.028h-5.403v-2.779h4.977v-2.028h-4.977v-2.773h5.38v-2.028h-7.84V35zm9.796 0h4.972c2.614 0 4.006-1.364 4.006-3.216 0-1.721-1.233-2.761-2.557-2.824v-.113c1.21-.273 2.102-1.131 2.102-2.5 0-1.745-1.295-2.983-3.864-2.983H29.3V35zm2.46-2.011v-3.091h2.063c1.182 0 1.915.681 1.915 1.642 0 .875-.597 1.449-1.972 1.449h-2.005zm0-4.756v-2.88h1.87c1.09 0 1.71.562 1.71 1.403 0 .92-.75 1.477-1.756 1.477h-1.823z"/>
</svg>
