<svg xmlns="http://www.w3.org/2000/svg" width="48" height="48" fill="none" viewBox="0 0 48 48">
  <rect width="40" height="40" x="4" y="6" fill="#000" opacity=".2" rx="4"/>
  <path fill="#000" d="M13.24 24.364v8.113c-.005 1.12-.505 1.71-1.414 1.71-.858 0-1.415-.534-1.432-1.46H7.945c-.011 2.324 1.648 3.432 3.756 3.432 2.358 0 3.966-1.426 3.972-3.682v-8.113H13.24zM19.713 36l.864-2.653h4.199L25.639 36h2.636l-4.011-11.636h-3.171L17.076 36h2.636zm1.489-4.574l1.432-4.403h.09l1.433 4.403H21.2zm18.207-7.062H36.96v7.318h-.102l-5.023-7.318h-2.159V36h2.46v-7.324h.086L37.283 36h2.125V24.364z"/>
  <g opacity=".4">
    <path fill="#000" d="M10 4a2 2 0 114 0v4a2 2 0 11-4 0V4zM34 4a2 2 0 114 0v4a2 2 0 11-4 0V4z"/>
  </g>
  <path fill="#000" fill-rule="evenodd" d="M10 6.009c-2.48.036-3.885.22-4.828 1.163C4 8.343 4 10.229 4 14v2h40v-2c0-3.771 0-5.657-1.172-6.828-.943-.944-2.348-1.127-4.828-1.163V8a2 2 0 11-4 0V6H14v2a2 2 0 11-4 0V6.009z" clip-rule="evenodd"/>
</svg>
