<svg xmlns="http://www.w3.org/2000/svg" width="48" height="48" fill="none" viewBox="0 0 48 48">
  <rect width="38" height="38" x="5" y="5" fill="#000" opacity=".2" rx="4"/>
  <path fill="#000" d="M5 13c0-3.771 0-5.657 1.172-6.828C7.343 5 9.229 5 13 5h22c3.771 0 5.657 0 6.828 1.172C43 7.343 43 9.229 43 13v2H5v-2zM10.603 35l.864-2.653h4.198L16.53 35h2.637l-4.012-11.636h-3.17L7.967 35h2.636zm1.489-4.574l1.431-4.403h.091l1.432 4.403h-2.954zM20.566 35h2.46v-3.773h2.069c2.676 0 4.232-1.596 4.232-3.92 0-2.313-1.528-3.943-4.17-3.943h-4.59V35zm2.46-5.744v-3.881h1.66c1.42 0 2.107.773 2.107 1.932 0 1.153-.687 1.949-2.096 1.949h-1.67zm7.9 5.744h2.46v-4.125h1.795L37.386 35h2.716l-2.472-4.523c1.324-.568 2.057-1.721 2.057-3.312 0-2.313-1.529-3.801-4.17-3.801h-4.592V35zm2.46-6.102v-3.523h1.659c1.42 0 2.108.63 2.108 1.79 0 1.153-.688 1.733-2.097 1.733h-1.67z"/>
</svg>
