<svg width="48" height="48" viewBox="0 0 48 48" fill="none" xmlns="http://www.w3.org/2000/svg">
<rect opacity="0.2" x="5" y="5" width="38" height="38" rx="4" fill="black"/>
<path opacity="0.6" d="M8.0129 28.9129C8.14087 30.9544 10.2592 32 12.3048 32H34.9977C36.2976 32 37.6687 31.6368 38.3232 30.5137C38.7535 29.7751 39 28.9164 39 28C39 25.485 37.1431 23.4036 34.7254 23.0522C33.8818 20.1339 31.1901 18 28 18C27.7552 18 27.5133 18.0126 27.2749 18.0371C25.8096 16.1869 23.5434 15 21 15C16.8641 15 13.4612 18.1386 13.0432 22.1639C10.1547 22.8253 8 25.411 8 28.5C8 28.6387 8.00434 28.7764 8.0129 28.9129Z" fill="black"/>
<path fill-rule="evenodd" clip-rule="evenodd" d="M30.6388 12.1614C30.8315 11.9462 31.1685 11.9462 31.3612 12.1614L33.1787 14.1916C33.2769 14.3013 33.4196 14.3604 33.5666 14.3523L36.2873 14.2019C36.5757 14.1859 36.8141 14.4243 36.7981 14.7127L36.6477 17.4334C36.6396 17.5804 36.6987 17.7231 36.8084 17.8213L38.8385 19.6388C39.0538 19.8315 39.0538 20.1685 38.8385 20.3612L36.8084 22.1787C36.6987 22.2769 36.6396 22.4196 36.6477 22.5666L36.7981 25.2873C36.8141 25.5757 36.5757 25.8141 36.2873 25.7981L33.5666 25.6477C33.4196 25.6396 33.2769 25.6987 33.1787 25.8084L31.3612 27.8385C31.1685 28.0538 30.8315 28.0538 30.6388 27.8385L28.8213 25.8084C28.7231 25.6987 28.5804 25.6396 28.4333 25.6477L25.7127 25.7981C25.4243 25.8141 25.1859 25.5757 25.2019 25.2873L25.3523 22.5666C25.3604 22.4196 25.3013 22.2769 25.1916 22.1787L23.1614 20.3612C22.9462 20.1685 22.9462 19.8315 23.1614 19.6388L25.1916 17.8213C25.3013 17.7231 25.3604 17.5804 25.3523 17.4333L25.2019 14.7127C25.1859 14.4243 25.4243 14.1859 25.7127 14.2019L28.4334 14.3523C28.5804 14.3604 28.7231 14.3013 28.8213 14.1916L30.6388 12.1614ZM31 23.8786C33.1421 23.8786 34.8786 22.1421 34.8786 20C34.8786 17.8579 33.1421 16.1214 31 16.1214C28.8579 16.1214 27.1214 17.8579 27.1214 20C27.1214 22.1421 28.8579 23.8786 31 23.8786Z" fill="black"/>
<path d="M35 20C35 22.2091 33.2091 24 31 24C28.7909 24 27 22.2091 27 20C27 17.7909 28.7909 16 31 16C33.2091 16 35 17.7909 35 20Z" fill="black"/>
</svg>
