<svg width="48" height="48" viewBox="0 0 48 48" fill="none" xmlns="http://www.w3.org/2000/svg">
<rect opacity="0.2" x="5" y="5" width="38" height="38" rx="4" fill="black"/>
<path opacity="0.6" d="M8.0129 28.9129C8.14087 30.9544 10.2592 32 12.3048 32H34.9977C36.2976 32 37.6687 31.6368 38.3232 30.5137C38.7535 29.7751 39 28.9164 39 28C39 25.485 37.1431 23.4036 34.7254 23.0522C33.8818 20.1339 31.1901 18 28 18C27.7552 18 27.5133 18.0126 27.2749 18.0371C25.8096 16.1869 23.5434 15 21 15C16.8641 15 13.4612 18.1386 13.0432 22.1639C10.1547 22.8253 8 25.411 8 28.5C8 28.6387 8.00434 28.7764 8.0129 28.9129Z" fill="black"/>
<path d="M36.6212 21.2773C36.7581 20.8791 36.3249 20.549 35.926 20.6841C35.3215 20.8889 34.6737 21 34 21C30.6863 21 28 18.3137 28 15C28 14.3263 28.111 13.6785 28.3158 13.0739C28.4509 12.6751 28.1208 12.2418 27.7226 12.3788C24.9746 13.3237 23 15.9312 23 19C23 22.866 26.134 26 30 26C33.0687 26 35.6762 24.0253 36.6212 21.2773Z" fill="black"/>
</svg>
