<svg width="48" height="48" viewBox="0 0 48 48" fill="none" xmlns="http://www.w3.org/2000/svg">
<path opacity="0.8" d="M15.9873 27.1777C15.2944 27.6281 14.948 27.8532 14.658 28.1139C13.8029 28.8823 13.2387 29.9219 13.0605 31.0577C13 31.4429 13 31.8561 13 32.6824V32.6824C13 36.4148 13 36.681 13.9558 37.8405C14.9115 39 16.4498 39 19.5263 39H37.4737C40.5502 39 42.0885 39 43.0442 37.8405C44 36.681 44 36.4148 44 32.6824V29.9858C44 28.1379 44 27.214 43.6837 26.3675C43.3675 25.5211 42.7616 24.8235 41.5499 23.4284L38.3014 19.6882C37.3602 18.7366 35.984 18.7761 35.0809 19.7804L28.3306 28.0873C27.4782 29.0352 26.1953 29.13 25.2543 28.3146L22.2912 24.9469C21.5886 24.338 20.6734 24.2234 19.8831 24.6453L15.9873 27.1777Z" fill="black"/>
<path opacity="0.4" fill-rule="evenodd" clip-rule="evenodd" d="M14.0979 38C14.0491 37.9494 14.0018 37.8963 13.9558 37.8405C13 36.681 13 36.4148 13 32.6824C13 31.8561 13 31.4429 13.0605 31.0577C13.2387 29.9219 13.8029 28.8823 14.658 28.1139C14.948 27.8532 15.2944 27.6281 15.9873 27.1777L19.8831 24.6453C20.6734 24.2234 21.5886 24.338 22.2912 24.9469L25.2543 28.3146C26.1953 29.13 27.4782 29.0352 28.3306 28.0873L33.7994 21.3574L30.4508 18.3389C29.584 17.7905 28.5803 17.9395 27.8096 18.731L24.5597 22.109C23.5278 23.169 22.1207 23.0457 21.1858 21.8134L13.7823 12.0145C12.7917 10.7089 11.2824 10.6576 10.2501 11.8946L9.02771 13.5628C6.53515 16.9644 5.28887 18.6653 4.64444 20.635C4 22.6048 4 24.7133 4 28.9304V29.7871C4 34.6392 4 34.9853 5.04825 36.4926C6.0965 38 7.78362 38 11.1579 38H11.1579H14.0979Z" fill="black"/>
<path d="M40.818 32.5165C41.2347 32.7264 41.443 32.8314 41.6273 32.9452C42.9718 33.7755 43.8446 35.1925 43.9813 36.7668C44 36.9826 44 37.2159 44 37.6824V37.6824C44 41.4148 44 41.681 42.7668 42.8405C41.5335 44 39.5487 44 35.5789 44H12.4211C8.45133 44 6.46647 44 5.23323 42.8405C4 41.681 4 41.4148 4 37.6824V35.7286C4 33.5231 4 32.4203 4.43685 31.4451C4.8737 30.4698 5.6965 29.7356 7.34212 28.2672L11.3531 24.6882C12.5675 23.7366 14.3432 23.7761 15.5086 24.7804L24.2186 33.0873C25.3184 34.0352 26.9738 34.13 28.1879 33.3146L32.0113 29.9469C32.918 29.338 34.0988 29.2234 35.1186 29.6453L40.818 32.5165Z" fill="black"/>
<circle cx="31" cy="9" r="6" fill="black"/>
</svg>
