<svg width="48" height="48" viewBox="0 0 48 48" fill="none" xmlns="http://www.w3.org/2000/svg">
<rect opacity="0.2" x="5" y="5" width="38" height="38" rx="4" fill="black"/>
<path opacity="0.6" d="M16.7661 30.2023C4.17051 16.7669 26.3639 8.25203 36.5492 9.05186C37.3031 9.11107 37.9133 9.64784 38.0221 10.3962C39.3634 19.6193 31.0867 45.4779 16.7661 30.2023Z" fill="black"/>
<path fill-rule="evenodd" clip-rule="evenodd" d="M35.9322 13.1751C35.9322 13.1751 35.9322 13.1751 35.9322 13.1751L35.8982 13.2021L35.7963 13.2832C35.7068 13.3546 35.5754 13.4596 35.4085 13.5935C35.0747 13.8615 34.5991 14.2452 34.0335 14.7068C33.7918 14.904 33.5339 15.1153 33.2638 15.3378C33.5253 15.4111 33.7903 15.5001 34.0574 15.607C34.8266 15.9146 35.2007 16.7876 34.893 17.5568C34.5853 18.326 33.7124 18.7001 32.9432 18.3924C31.5621 17.84 30.3063 18.0801 29.8035 18.2583C28.1684 19.6802 26.6629 21.0641 25.0484 22.8177C26.2561 22.9117 27.6213 23.2376 29.1109 23.9014C29.8676 24.2386 30.2076 25.1254 29.8704 25.8821C29.5332 26.6388 28.6464 26.9788 27.8897 26.6416C24.5308 25.1447 22.5557 25.9983 22.074 26.3328C18.9863 30.2741 16.4161 34.7269 15.4692 39.3036C15.3013 40.1148 14.5076 40.6364 13.6964 40.4686C12.8851 40.3007 12.3636 39.507 12.5314 38.6958C13.599 33.5359 16.4255 28.7014 19.6211 24.5996C19.77 23.7774 19.6838 22.0218 18.04 20.652C17.4036 20.1217 17.3176 19.1758 17.848 18.5394C18.3783 17.903 19.3242 17.817 19.9606 18.3474C21.1164 19.3105 21.8173 20.4076 22.2154 21.4778C24.0761 19.3854 25.7692 17.8007 27.575 16.2212C27.5942 15.8946 27.5883 15.5107 27.531 15.1462C27.432 14.5165 27.2404 14.2959 27.1682 14.2478C26.479 13.7882 26.2927 12.8569 26.7522 12.1676C27.2118 11.4783 28.1431 11.2921 28.8323 11.7516C29.6563 12.3009 30.0873 13.1262 30.3155 13.885C30.9751 13.3346 31.5968 12.8232 32.1366 12.3826C32.7095 11.915 33.1915 11.5262 33.5306 11.254C33.7002 11.1178 33.8342 11.0108 33.926 10.9376L34.0312 10.8538L34.0677 10.8249C34.0677 10.8248 34.0684 10.8243 35.0003 11.9997L34.0677 10.8249C34.7169 10.3102 35.6611 10.4187 36.1757 11.0678C36.6904 11.717 36.5813 12.6605 35.9322 13.1751Z" fill="black"/>
</svg>
