<svg width="48" height="48" viewBox="0 0 48 48" fill="none" xmlns="http://www.w3.org/2000/svg">
<rect opacity="0.2" x="5" y="5" width="38" height="38" rx="4" fill="black"/>
<path opacity="0.6" d="M29.1791 8.05575C41.0927 22.212 36.2545 41 23.4952 41C10.7132 41 8.15171 23.1921 18.0304 14.1934C18.3257 13.9244 18.8017 14.118 18.9151 14.501C20.2783 19.1072 27.993 17.0758 28.2702 8.40707C28.2853 7.93731 28.8764 7.69615 29.1791 8.05575Z" fill="black"/>
<path d="M26.0662 24.5456C31.0531 30.857 29.2579 40 23.872 40C18.3597 40 17.3323 31.8341 21.7807 27.9214C21.83 27.878 21.8886 27.8457 21.9505 27.8236C23.3852 27.3103 24.4859 25.8837 25.256 24.6136C25.4353 24.318 25.8518 24.2743 26.0662 24.5456Z" fill="black"/>
</svg>
