<svg width="48" height="48" viewBox="0 0 48 48" fill="none" xmlns="http://www.w3.org/2000/svg">
<path opacity="0.4" d="M4.12429 34.0263C4.48018 36.0093 6.53043 36.9999 8.54509 36.9999H39.4677C40.7365 36.9999 42.0474 36.6512 42.8007 35.6302C43.5557 34.6069 44 33.3537 44 31.9999C44 28.8561 41.604 26.2545 38.4844 25.8153C37.3958 22.1674 33.9227 19.5 29.8065 19.5C29.4905 19.5 29.1784 19.5157 28.8709 19.5464C26.9802 17.2337 24.056 15.75 20.7742 15.75C15.4375 15.75 11.0467 19.6732 10.5073 24.7048C6.78031 25.5316 4 28.7637 4 32.6249C4 33.1028 4.04259 33.5711 4.12429 34.0263Z" fill="black"/>
<path fill-rule="evenodd" clip-rule="evenodd" d="M33.211 12.2018C33.4596 11.9327 33.8945 11.9327 34.1432 12.2018L36.4882 14.7395C36.615 14.8766 36.7991 14.9505 36.9888 14.9403L40.4994 14.7523C40.8716 14.7324 41.1791 15.0303 41.1585 15.3909L40.9644 18.7917C40.9539 18.9755 41.0303 19.1539 41.1718 19.2766L43.7913 21.5484C44.0691 21.7893 44.0691 22.2106 43.7913 22.4515L41.1718 24.7233C41.0303 24.846 40.9539 25.0244 40.9644 25.2082L41.1585 28.609C41.1791 28.9696 40.8716 29.2675 40.4994 29.2476L36.9888 29.0596C36.7991 29.0494 36.615 29.1233 36.4882 29.2605L34.1432 31.7981C33.8945 32.0672 33.4596 32.0672 33.211 31.7981L30.8659 29.2605C30.7392 29.1233 30.555 29.0494 30.3653 29.0596L26.8548 29.2476C26.4826 29.2675 26.1751 28.9696 26.1956 28.609L26.3897 25.2082C26.4002 25.0244 26.3239 24.846 26.1823 24.7233L23.5628 22.4515C23.2851 22.2106 23.2851 21.7893 23.5628 21.5484L26.1823 19.2766C26.3239 19.1539 26.4002 18.9755 26.3897 18.7916L26.1956 15.3909C26.1751 15.0303 26.4826 14.7324 26.8548 14.7523L30.3653 14.9403C30.555 14.9505 30.7392 14.8766 30.8659 14.7395L33.211 12.2018ZM33.6771 26.8482C36.4411 26.8482 38.6817 24.6776 38.6817 22C38.6817 19.3223 36.4411 17.1517 33.6771 17.1517C30.9131 17.1517 28.6724 19.3223 28.6724 22C28.6724 24.6776 30.9131 26.8482 33.6771 26.8482Z" fill="black"/>
<path d="M38.8384 22C38.8384 24.7614 36.5276 26.9999 33.6771 26.9999C30.8266 26.9999 28.5158 24.7614 28.5158 22C28.5158 19.2385 30.8266 17 33.6771 17C36.5276 17 38.8384 19.2385 38.8384 22Z" fill="black"/>
</svg>
