<svg width="48" height="48" viewBox="0 0 48 48" fill="none" xmlns="http://www.w3.org/2000/svg">
<g id="media-reading-writing/news">
<g id="Group 40">
<path id="Rectangle 147" opacity="0.6" d="M5 21.6001C5 20.4955 5.89543 19.6001 7 19.6001H15.4V39.0001C15.4 41.2092 13.6091 43.0001 11.4 43.0001H9C6.79086 43.0001 5 41.2092 5 39.0001V21.6001Z" fill="black"/>
<path id="Subtract" fill-rule="evenodd" clip-rule="evenodd" d="M11.4019 43H15.3999V39C15.3999 41.2085 13.6101 42.9989 11.4019 43Z" fill="black"/>
<g id="Vector" opacity="0.4">
<path d="M20.6001 10.5C20.6001 9.78198 21.2306 9.19995 22.0084 9.19995H36.0918C36.8696 9.19995 37.5001 9.78198 37.5001 10.5C37.5001 11.2179 36.8696 11.8 36.0918 11.8H22.0084C21.2306 11.8 20.6001 11.2179 20.6001 10.5Z" fill="black"/>
<path d="M20.6001 18.3C20.6001 17.582 21.2306 17 22.0084 17H36.0918C36.8696 17 37.5001 17.582 37.5001 18.3C37.5001 19.0179 36.8696 19.6 36.0918 19.6H22.0084C21.2306 19.6 20.6001 19.0179 20.6001 18.3Z" fill="black"/>
<path d="M20.6001 26.1C20.6001 25.382 21.2306 24.8 22.0084 24.8H36.0918C36.8696 24.8 37.5001 25.382 37.5001 26.1C37.5001 26.8179 36.8696 27.4 36.0918 27.4H22.0084C21.2306 27.4 20.6001 26.8179 20.6001 26.1Z" fill="black"/>
<path d="M20.6001 33.9C20.6001 33.182 21.2306 32.6 22.0084 32.6H31.8668C32.6446 32.6 33.2751 33.182 33.2751 33.9C33.2751 34.6179 32.6446 35.2 31.8668 35.2H22.0084C21.2306 35.2 20.6001 34.6179 20.6001 33.9Z" fill="black"/>
</g>
<path id="Subtract_2" fill-rule="evenodd" clip-rule="evenodd" d="M17.3999 4C16.2953 4 15.3999 4.89543 15.3999 6V43H38.6999C40.909 43 42.6999 41.2091 42.6999 39V6C42.6999 4.89543 41.8045 4 40.6999 4H17.3999ZM22.0082 9.2C21.2304 9.2 20.5999 9.78203 20.5999 10.5C20.5999 11.218 21.2304 11.8 22.0082 11.8H36.0915C36.8693 11.8 37.4999 11.218 37.4999 10.5C37.4999 9.78203 36.8693 9.2 36.0915 9.2H22.0082ZM22.0082 17C21.2304 17 20.5999 17.582 20.5999 18.3C20.5999 19.018 21.2304 19.6 22.0082 19.6H36.0915C36.8693 19.6 37.4999 19.018 37.4999 18.3C37.4999 17.582 36.8693 17 36.0915 17H22.0082ZM20.5999 26.1C20.5999 25.382 21.2304 24.8 22.0082 24.8H36.0915C36.8693 24.8 37.4999 25.382 37.4999 26.1C37.4999 26.818 36.8693 27.4 36.0915 27.4H22.0082C21.2304 27.4 20.5999 26.818 20.5999 26.1ZM22.0082 32.6C21.2304 32.6 20.5999 33.182 20.5999 33.9C20.5999 34.618 21.2304 35.2 22.0082 35.2H31.8665C32.6443 35.2 33.2749 34.618 33.2749 33.9C33.2749 33.182 32.6443 32.6 31.8665 32.6H22.0082Z" fill="black"/>
</g>
</g>
</svg>
