<svg width="49" height="48" viewBox="0 0 49 48" fill="none" xmlns="http://www.w3.org/2000/svg">
<g id="arrows/nobg-down-left" clip-path="url(#clip0_37:577)">
<g id="Group 48">
<path id="Rectangle 168" opacity="0.8" d="M33.0623 7.6066C33.8434 6.82555 35.1097 6.82555 35.8908 7.6066L40.1334 11.8492C40.9145 12.6303 40.9145 13.8966 40.1334 14.6777L23.1629 31.6482C22.3818 32.4293 21.1155 32.4293 20.3344 31.6482L16.0918 27.4056C15.3107 26.6245 15.3107 25.3582 16.0918 24.5772L33.0623 7.6066Z" fill="black"/>
<path id="Vector 74" d="M9.72799 14.5564L9.72799 36.0123C9.72799 37.1168 10.6234 38.0123 11.728 38.0123L33.1838 38.0123C34.2884 38.0123 35.1838 37.1169 35.1838 36.0123L35.1838 30.1128C35.1838 29.0082 34.2884 28.1128 33.1838 28.1128L21.6275 28.1128C20.5229 28.1128 19.6275 27.2174 19.6275 26.1128L19.6275 14.5564C19.6275 13.4519 18.7321 12.5564 17.6275 12.5564H11.728C10.6234 12.5564 9.72799 13.4519 9.72799 14.5564Z" fill="black"/>
</g>
</g>
<defs>
<clipPath id="clip0_37:577">
<rect width="48" height="48" fill="white" transform="translate(0.0214844)"/>
</clipPath>
</defs>
</svg>
