<svg width="48" height="48" viewBox="0 0 48 48" fill="none" xmlns="http://www.w3.org/2000/svg">
<g id="media-reading-writing/note-filled-alt-simple">
<rect id="Rectangle 38" opacity="0.2" x="5" y="5" width="38" height="38" rx="4" fill="black"/>
<path id="Subtract" opacity="0.2" d="M10 18C10 14.2288 10 12.3431 11.1716 11.1716C12.3431 10 14.2288 10 18 10H30C33.7712 10 35.6569 10 36.8284 11.1716C38 12.3431 38 14.2288 38 18V28H32C29.7909 28 28 29.7909 28 32V38H18C14.2288 38 12.3431 38 11.1716 36.8284C10 35.6569 10 33.7712 10 30V18Z" fill="black"/>
<g id="Vector">
<path d="M14 15.5C14 14.6716 14.6716 14 15.5 14H28.5C29.3284 14 30 14.6716 30 15.5C30 16.3284 29.3284 17 28.5 17H15.5C14.6716 17 14 16.3284 14 15.5Z" fill="black"/>
<path d="M14 21.5C14 20.6716 14.6716 20 15.5 20H21.5C22.3284 20 23 20.6716 23 21.5C23 22.3284 22.3284 23 21.5 23H15.5C14.6716 23 14 22.3284 14 21.5Z" fill="black"/>
</g>
<path id="Subtract_2" opacity="0.6" d="M38 28H32C29.7909 28 28 29.7909 28 32V38L38 28Z" fill="black"/>
</g>
</svg>
