<svg xmlns="http://www.w3.org/2000/svg" width="48" height="48" fill="none" viewBox="0 0 48 48">
  <path fill="#000" d="M23.927 39.398c6.534 0 11.208-3.594 11.193-8.566.015-3.622-2.286-6.207-6.562-6.747v-.227c3.253-.582 5.497-2.884 5.483-6.15.014-4.589-4.006-8.197-10.029-8.197-5.965 0-10.454 3.495-10.54 8.523h5.896c.07-2.216 2.102-3.65 4.616-3.65 2.486 0 4.148 1.505 4.133 3.693.015 2.287-1.931 3.835-4.73 3.835h-2.713v4.517h2.713c3.296 0 5.355 1.648 5.341 3.992.014 2.315-1.974 3.906-4.787 3.906-2.713 0-4.744-1.42-4.857-3.551H12.89c.1 5.085 4.645 8.622 11.037 8.622z"/>
</svg>
