<svg xmlns="http://www.w3.org/2000/svg" width="48" height="48" fill="none" viewBox="0 0 48 48">
  <path fill="#000" d="M24.32 39.398c6.477.028 10.895-4.219 10.88-10.142.014-5.455-3.792-9.39-8.949-9.39-3.196 0-6.022 1.535-7.33 4.106h-.198c.028-5.668 2.017-9.19 5.81-9.19 2.23 0 3.835 1.22 4.304 3.252h6.065c-.582-4.787-4.56-8.523-10.37-8.523-7.187 0-11.803 5.824-11.832 15.597-.014 10.653 5.64 14.261 11.62 14.29zm-.029-4.83c-2.84 0-4.943-2.287-4.943-5.128.014-2.826 2.16-5.128 4.986-5.128 2.84 0 4.915 2.23 4.9 5.114.015 2.912-2.102 5.142-4.943 5.142z"/>
</svg>
