<svg xmlns="http://www.w3.org/2000/svg" width="48" height="48" fill="none" viewBox="0 0 48 48">
  <rect width="38" height="38" x="5" y="5" fill="#000" opacity=".2" rx="4"/>
  <path fill="#000" d="M23.752 13.146c-5.042-.022-8.443 3.28-8.421 7.816.01 4.206 2.928 7.255 6.924 7.255 2.477 0 4.679-1.2 5.68-3.181h.155c-.011 4.469-1.564 7.188-4.503 7.188-1.728 0-2.972-.947-3.335-2.587H15.55c.44 3.798 3.523 6.671 8.036 6.671 5.582 0 9.181-4.513 9.17-12.164-.01-8.168-4.37-10.976-9.005-10.998zm.033 3.743c2.191 0 3.81 1.784 3.831 3.93.011 2.158-1.695 3.941-3.875 3.941-2.201 0-3.776-1.717-3.787-3.93-.022-2.201 1.619-3.94 3.831-3.94z"/>
</svg>
