<svg xmlns="http://www.w3.org/2000/svg" width="48" height="48" fill="none" viewBox="0 0 48 48">
  <path fill="#000" d="M4.97 17.08c0-3.262 0-4.894 1.013-5.907 1.014-1.014 2.645-1.014 5.907-1.014h19.03c3.263 0 4.894 0 5.907 1.014 1.014 1.013 1.014 2.645 1.014 5.907v19.03c0 3.262 0 4.894-1.014 5.907-1.013 1.013-2.644 1.013-5.907 1.013H11.89c-3.262 0-4.893 0-5.907-1.013C4.97 41.003 4.97 39.372 4.97 36.11V17.08z" opacity=".4"/>
  <path fill="#000" d="M5.983 11.173l2.36-2.478c1.748-1.837 2.623-2.755 3.755-3.24 1.132-.486 2.4-.486 4.936-.486H36.11c3.263 0 4.894 0 5.907 1.014l-5.19 5.19c-1.014-1.014-2.645-1.014-5.907-1.014H11.89c-3.262 0-4.893 0-5.907 1.014z" opacity=".8"/>
  <path fill="#000" d="M36.827 42.017l2.478-2.36c1.837-1.748 2.755-2.622 3.24-3.754.485-1.133.485-2.4.485-4.936V11.89c0-3.262 0-4.894-1.013-5.907l-5.19 5.19c1.013 1.014 1.013 2.645 1.013 5.907v19.03c0 3.263 0 4.894-1.013 5.907z"/>
  <circle cx="13.405" cy="26.595" r="4" fill="#000" transform="rotate(90 13.405 26.595)"/>
  <circle cx="29.405" cy="26.595" r="4" fill="#000" transform="rotate(90 29.405 26.595)"/>
  <circle cx="13.405" cy="36.595" r="4" fill="#000" transform="rotate(90 13.405 36.595)"/>
  <circle cx="29.405" cy="36.595" r="4" fill="#000" transform="rotate(90 29.405 36.595)"/>
  <circle cx="13.405" cy="16.595" r="4" fill="#000" transform="rotate(90 13.405 16.595)"/>
  <circle cx="29.405" cy="16.595" r="4" fill="#000" transform="rotate(90 29.405 16.595)"/>
</svg>
