<svg xmlns="http://www.w3.org/2000/svg" width="48" height="48" fill="none" viewBox="0 0 48 48">
  <rect width="38" height="38" x="5" y="5" fill="#000" opacity=".2" rx="4"/>
  <path fill="#000" d="M23.99 36.308c5.086 0 8.741-2.719 8.752-6.374-.01-2.818-2.18-5.119-4.888-5.57v-.154c2.356-.485 4.04-2.521 4.052-4.998-.011-3.49-3.358-6.066-7.916-6.066-4.568 0-7.915 2.576-7.904 6.066-.01 2.466 1.652 4.514 4.051 4.998v.154c-2.752.451-4.898 2.752-4.887 5.57-.011 3.655 3.654 6.374 8.74 6.374zm0-3.5c-2.267 0-3.787-1.343-3.787-3.248 0-1.948 1.597-3.358 3.787-3.358 2.18 0 3.787 1.41 3.787 3.358 0 1.916-1.53 3.247-3.787 3.247zm0-10.073c-1.904 0-3.258-1.244-3.258-3.028 0-1.761 1.332-2.972 3.258-2.972 1.916 0 3.259 1.222 3.259 2.972 0 1.784-1.365 3.028-3.259 3.028z"/>
</svg>
