<svg xmlns="http://www.w3.org/2000/svg" width="48" height="48" fill="none" viewBox="0 0 48 48">
  <path fill="#000" d="M23.68 9.511c-6.505-.028-10.894 4.233-10.866 10.086.014 5.426 3.778 9.36 8.935 9.36 3.196 0 6.037-1.548 7.33-4.105h.198c-.014 5.767-2.017 9.276-5.81 9.276-2.23 0-3.835-1.222-4.304-3.338h-6.065c.568 4.9 4.545 8.608 10.37 8.608 7.201 0 11.846-5.824 11.832-15.696-.014-10.54-5.64-14.162-11.62-14.19zm.043 4.83c2.827 0 4.915 2.301 4.943 5.07.014 2.785-2.187 5.086-5 5.086-2.84 0-4.872-2.216-4.886-5.07-.029-2.842 2.088-5.086 4.943-5.086z"/>
</svg>
