<svg xmlns="http://www.w3.org/2000/svg" width="48" height="48" fill="none" viewBox="0 0 48 48">
  <path fill="#000" d="M23.988 39.398c6.562 0 11.278-3.509 11.292-8.225-.014-3.636-2.812-6.605-6.307-7.187v-.2c3.04-.624 5.213-3.252 5.228-6.448-.015-4.503-4.333-7.827-10.213-7.827-5.895 0-10.213 3.324-10.2 7.827-.014 3.182 2.131 5.824 5.228 6.449v.199c-3.551.582-6.321 3.55-6.307 7.187-.014 4.716 4.716 8.225 11.279 8.225zm0-4.517c-2.927 0-4.887-1.733-4.887-4.19 0-2.515 2.06-4.333 4.887-4.333 2.812 0 4.886 1.818 4.886 4.332 0 2.472-1.974 4.19-4.886 4.19zm0-12.997c-2.458 0-4.205-1.606-4.205-3.907 0-2.273 1.719-3.835 4.205-3.835 2.471 0 4.204 1.577 4.204 3.835 0 2.301-1.761 3.907-4.204 3.907z"/>
</svg>
