<svg xmlns="http://www.w3.org/2000/svg" width="48" height="48" fill="none" viewBox="0 0 48 48">
  <rect width="38" height="38" x="5" y="5" fill="#000" opacity=".2" rx="4"/>
  <path fill="#000" d="M24.072 36.308c5.02 0 8.432-3.27 8.421-7.827.011-4.315-3.005-7.42-7.067-7.42-1.982 0-3.688.826-4.48 1.938h-.133l.584-5.647h9.852v-3.898H17.466L16.4 25.345l4.238.76c.693-.936 2.037-1.52 3.369-1.52 2.267.011 3.896 1.651 3.896 4.018 0 2.345-1.596 3.963-3.83 3.963-1.894 0-3.424-1.189-3.534-2.939h-4.624c.088 3.897 3.49 6.682 8.158 6.682z"/>
</svg>
