<svg width="48" height="48" viewBox="0 0 48 48" fill="none" xmlns="http://www.w3.org/2000/svg">
<g id="shapes/outline-nobg-octagon">
<path id="Polygon 1" d="M24.9567 9.01987L33.9161 12.731C34.314 12.8958 34.536 12.9888 34.6975 13.0706C34.7695 13.107 34.8073 13.1305 34.8263 13.1434C34.8353 13.1495 34.8399 13.1532 34.8416 13.1546L34.8436 13.1564L34.8454 13.1584C34.8468 13.1601 34.8505 13.1647 34.8566 13.1737C34.8695 13.1927 34.893 13.2305 34.9294 13.3025C35.0112 13.464 35.1042 13.686 35.269 14.0839L38.9801 23.0433C39.145 23.4412 39.2362 23.664 39.2926 23.836C39.3177 23.9126 39.3279 23.956 39.3321 23.9786C39.3342 23.9893 39.3348 23.9951 39.335 23.9973L39.3352 24L39.335 24.0027C39.3348 24.0049 39.3342 24.0107 39.3321 24.0214C39.3279 24.044 39.3177 24.0874 39.2926 24.164C39.2362 24.336 39.145 24.5588 38.9801 24.9567L35.269 33.9161C35.1042 34.314 35.0112 34.536 34.9294 34.6975C34.893 34.7695 34.8695 34.8073 34.8566 34.8263C34.8505 34.8353 34.8468 34.8399 34.8454 34.8416L34.8436 34.8436L34.8416 34.8454C34.8399 34.8468 34.8353 34.8505 34.8263 34.8566C34.8073 34.8695 34.7695 34.893 34.6975 34.9294C34.536 35.0112 34.314 35.1042 33.9161 35.269L24.9567 38.9801C24.5588 39.145 24.336 39.2362 24.164 39.2926C24.0874 39.3177 24.044 39.3279 24.0214 39.3321C24.0107 39.3342 24.0049 39.3348 24.0027 39.335L24 39.3352L23.9973 39.335C23.9951 39.3348 23.9893 39.3342 23.9786 39.3321C23.956 39.3279 23.9126 39.3177 23.836 39.2926C23.664 39.2362 23.4412 39.145 23.0433 38.9801L14.0839 35.269C13.686 35.1042 13.464 35.0112 13.3025 34.9294C13.2305 34.893 13.1927 34.8695 13.1737 34.8566C13.1647 34.8505 13.1601 34.8468 13.1584 34.8454L13.1564 34.8436L13.1546 34.8416C13.1532 34.8399 13.1495 34.8353 13.1434 34.8263C13.1305 34.8073 13.107 34.7695 13.0706 34.6975C12.9888 34.536 12.8958 34.314 12.731 33.9161L9.01987 24.9567C8.85504 24.5588 8.76385 24.336 8.70745 24.164C8.68232 24.0874 8.67215 24.044 8.66787 24.0214C8.66584 24.0107 8.66518 24.0049 8.66496 24.0027L8.66478 24L8.66496 23.9973C8.66518 23.9951 8.66584 23.9893 8.66787 23.9786C8.67215 23.956 8.68232 23.9126 8.70745 23.836C8.76385 23.664 8.85504 23.4412 9.01987 23.0433L12.731 14.0839C12.8958 13.686 12.9888 13.464 13.0706 13.3025C13.107 13.2305 13.1305 13.1927 13.1434 13.1737C13.1495 13.1647 13.1532 13.1601 13.1546 13.1584L13.1564 13.1564L13.1584 13.1546C13.1601 13.1532 13.1647 13.1495 13.1737 13.1434C13.1927 13.1305 13.2305 13.107 13.3025 13.0706C13.464 12.9888 13.686 12.8958 14.0839 12.731L23.0433 9.01987C23.4412 8.85504 23.664 8.76385 23.836 8.70745C23.9126 8.68232 23.956 8.67215 23.9786 8.66787C23.9893 8.66584 23.9951 8.66518 23.9973 8.66496L24 8.66478L24.0027 8.66496C24.0049 8.66518 24.0107 8.66584 24.0214 8.66787C24.044 8.67215 24.0874 8.68232 24.164 8.70745C24.336 8.76385 24.5588 8.85504 24.9567 9.01987Z" stroke="black" stroke-width="3"/>
</g>
</svg>
