<svg width="48" height="48" viewBox="0 0 48 48" fill="none" xmlns="http://www.w3.org/2000/svg">
<g id="shapes/outline-nobg-star5">
<path id="Star 1" d="M24.439 9.93776L27.836 16.1667C27.8503 16.1928 27.8655 16.2214 27.8819 16.252C28.0443 16.5561 28.3166 17.066 28.7887 17.409C29.2608 17.752 29.8298 17.8534 30.1692 17.9138C30.2034 17.9199 30.2353 17.9256 30.2645 17.9311L37.2383 19.2371C37.5868 19.3023 37.8779 19.3569 38.1297 19.409C37.9566 19.5991 37.7532 19.8144 37.5096 20.072L32.6353 25.2276C32.6149 25.2492 32.5924 25.2726 32.5683 25.2976C32.3293 25.5461 31.9285 25.9626 31.7482 26.5175C31.5679 27.0725 31.6473 27.6451 31.6947 27.9865C31.6994 28.021 31.7039 28.0531 31.7077 28.0825L32.6207 35.1186C32.6663 35.4702 32.7044 35.7639 32.7326 36.0194C32.4983 35.9136 32.2307 35.7866 31.9104 35.6346L25.5009 32.592C25.4741 32.5793 25.4449 32.5651 25.4136 32.55C25.1035 32.3994 24.5835 32.1469 24 32.1469C23.4165 32.1469 22.8965 32.3994 22.5864 32.55C22.5551 32.5651 22.526 32.5793 22.4991 32.592L16.0896 35.6346C15.7693 35.7866 15.5017 35.9136 15.2674 36.0194C15.2956 35.7639 15.3337 35.4702 15.3793 35.1186L16.2923 28.0825C16.2961 28.0531 16.3006 28.021 16.3053 27.9865C16.3527 27.6451 16.4321 27.0725 16.2518 26.5175C16.0715 25.9626 15.6707 25.546 15.4317 25.2976C15.4076 25.2726 15.3851 25.2492 15.3647 25.2276L10.4904 20.072C10.2468 19.8144 10.0434 19.5991 9.87033 19.409C10.1221 19.3569 10.4132 19.3023 10.7617 19.2371L17.7355 17.9311C17.7647 17.9256 17.7966 17.9199 17.8308 17.9138C18.1702 17.8534 18.7392 17.752 19.2113 17.409C19.6834 17.066 19.9557 16.5561 20.1181 16.252C20.1345 16.2214 20.1497 16.1928 20.164 16.1667L23.561 9.93777C23.7308 9.6265 23.8727 9.36653 24 9.14319C24.1273 9.36653 24.2692 9.6265 24.439 9.93776ZM38.9499 19.6312C38.9498 19.6312 38.9483 19.6305 38.9456 19.6289C38.9486 19.6304 38.9499 19.6312 38.9499 19.6312ZM38.6605 18.7515C38.6618 18.7486 38.6626 18.7471 38.6626 18.7471C38.6627 18.7471 38.662 18.7485 38.6605 18.7515ZM32.7747 36.8681C32.7747 36.8681 32.775 36.8664 32.7756 36.8634C32.7751 36.8667 32.7748 36.8682 32.7747 36.8681ZM33.522 36.3211C33.5251 36.3214 33.5268 36.3217 33.5268 36.3218C33.5268 36.3218 33.5253 36.3216 33.522 36.3211ZM14.4732 36.3217C14.4733 36.3217 14.4749 36.3214 14.478 36.3211C14.4747 36.3216 14.4732 36.3218 14.4732 36.3217ZM15.2244 36.8634C15.2251 36.8664 15.2253 36.8681 15.2253 36.8681C15.2252 36.8682 15.2249 36.8667 15.2244 36.8634ZM9.33738 18.7471C9.33744 18.7471 9.33821 18.7486 9.33951 18.7515C9.33797 18.7485 9.33732 18.7471 9.33738 18.7471ZM9.0544 19.6289C9.05167 19.6305 9.05018 19.6312 9.05012 19.6312C9.05006 19.6312 9.05143 19.6304 9.0544 19.6289ZM24.4648 8.43179C24.4648 8.43185 24.4636 8.43304 24.4613 8.43516C24.4636 8.43278 24.4648 8.43172 24.4648 8.43179ZM23.5387 8.43516C23.5364 8.43304 23.5352 8.43185 23.5352 8.43179C23.5352 8.43172 23.5364 8.43278 23.5387 8.43516Z" stroke="black" stroke-width="3"/>
</g>
</svg>
