<svg width="48" height="48" viewBox="0 0 48 48" fill="none" xmlns="http://www.w3.org/2000/svg">
<g id="shapes/outline-nobg-star4">
<path id="Star 1" d="M24.4289 10.6331L28.8269 17.9705C28.8352 17.9843 28.844 17.9992 28.8535 18.0152C28.9489 18.1761 29.1067 18.4423 29.3322 18.6678C29.5577 18.8933 29.8239 19.0511 29.9848 19.1465C30.0008 19.156 30.0157 19.1648 30.0295 19.1731L37.3669 23.5711C37.6446 23.7376 37.8756 23.8761 38.0737 24C37.8756 24.1239 37.6446 24.2624 37.3669 24.4289L30.0295 28.8269C30.0157 28.8352 30.0008 28.844 29.9848 28.8535C29.8239 28.9489 29.5577 29.1067 29.3322 29.3322C29.1067 29.5577 28.9489 29.8239 28.8535 29.9848C28.844 30.0008 28.8352 30.0157 28.8269 30.0295L24.4289 37.3669C24.2624 37.6446 24.1239 37.8756 24 38.0737C23.8761 37.8756 23.7376 37.6446 23.5711 37.3669L19.1731 30.0295C19.1648 30.0157 19.156 30.0008 19.1465 29.9848C19.0511 29.8239 18.8933 29.5577 18.6678 29.3322C18.4423 29.1067 18.1761 28.9489 18.0152 28.8535C17.9992 28.844 17.9843 28.8352 17.9705 28.8269L10.6331 24.4289C10.3554 24.2624 10.1244 24.1239 9.92627 24C10.1244 23.8761 10.3553 23.7376 10.6331 23.5711L17.9705 19.1731C17.9843 19.1648 17.9992 19.156 18.0152 19.1465C18.1761 19.0511 18.4423 18.8933 18.6678 18.6678C18.8933 18.4423 19.0511 18.1761 19.1465 18.0152C19.156 17.9992 19.1648 17.9843 19.1731 17.9705L23.5711 10.6331C23.7376 10.3554 23.8761 10.1244 24 9.92627C24.1239 10.1244 24.2624 10.3554 24.4289 10.6331Z" stroke="black" stroke-width="3"/>
</g>
</svg>
