<svg width="48" height="48" viewBox="0 0 48 48" fill="none" xmlns="http://www.w3.org/2000/svg">
<g id="shapes/outline-nobg-triangle">
<path id="Polygon 1" d="M26.0792 15.75L35.6055 32.25C36.4006 33.6272 36.9073 34.5128 37.1693 35.1761C37.2973 35.5003 37.325 35.6691 37.3278 35.7444C37.2612 35.7796 37.1012 35.8401 36.7564 35.8913C36.0509 35.996 35.0307 36 33.4404 36H14.3878C12.7976 36 11.7773 35.996 11.0719 35.8913C10.7271 35.8401 10.567 35.7796 10.5005 35.7444C10.5033 35.6691 10.5309 35.5003 10.659 35.1761C10.921 34.5128 11.4276 33.6272 12.2228 32.25L21.7491 15.75C22.5442 14.3728 23.0578 13.4912 23.5012 12.9326C23.7179 12.6597 23.8503 12.5513 23.9141 12.5113C23.9814 12.5548 24.1159 12.6668 24.327 12.9326C24.7705 13.4912 25.2841 14.3728 26.0792 15.75ZM37.3227 35.7948C37.3215 35.7938 37.322 35.7846 37.3277 35.7701C37.3267 35.7885 37.3239 35.7957 37.3227 35.7948ZM37.35 35.7314C37.3597 35.7192 37.3674 35.7142 37.3689 35.7148C37.3703 35.7153 37.3655 35.7214 37.35 35.7314ZM10.4594 35.7148C10.4608 35.7142 10.4685 35.7192 10.4782 35.7314C10.4628 35.7214 10.4579 35.7153 10.4594 35.7148ZM10.5006 35.7701C10.5063 35.7846 10.5067 35.7938 10.5056 35.7948C10.5044 35.7958 10.5015 35.7885 10.5006 35.7701Z" stroke="black" stroke-width="3"/>
</g>
</svg>
