<svg width="48" height="48" viewBox="0 0 48 48" fill="none" xmlns="http://www.w3.org/2000/svg">
<g id="shapes/outline-nobg-pentagon">
<path id="Polygon 1" d="M25.4695 9.92173L36.9351 18.252C37.5304 18.6845 37.873 18.9362 38.1037 19.1479C38.2078 19.2435 38.2557 19.3017 38.277 19.3314C38.2868 19.3452 38.2906 19.3523 38.2914 19.3538C38.292 19.3551 38.292 19.3552 38.2923 19.3561L38.2924 19.3562C38.2927 19.3571 38.2927 19.3572 38.2929 19.3586C38.2932 19.3602 38.2943 19.3682 38.2944 19.3852C38.2947 19.4218 38.2901 19.497 38.2621 19.6355C38.1999 19.9423 38.0707 20.3474 37.8433 21.0471L33.4638 34.5258C33.2365 35.2255 33.1029 35.6292 32.9728 35.914C32.9142 36.0425 32.8736 36.1061 32.8519 36.1356C32.8419 36.1492 32.8362 36.155 32.835 36.1562C32.8341 36.1571 32.8339 36.1572 32.8332 36.1578L32.8331 36.1578C32.8324 36.1584 32.8322 36.1585 32.831 36.1591C32.8295 36.1598 32.8223 36.1634 32.8062 36.1688C32.7715 36.1803 32.6985 36.1992 32.5581 36.2153C32.2471 36.251 31.8219 36.2533 31.0862 36.2533H16.9138C16.1781 36.2533 15.7529 36.251 15.4419 36.2153C15.3015 36.1992 15.2285 36.1803 15.1938 36.1688C15.1777 36.1634 15.1705 36.1598 15.169 36.1591C15.1684 36.1588 15.1681 36.1586 15.1678 36.1584C15.1675 36.1583 15.1673 36.1581 15.1668 36.1578L15.1668 36.1578C15.1661 36.1572 15.1659 36.1571 15.165 36.1562C15.1638 36.155 15.1581 36.1492 15.1481 36.1356C15.1264 36.1061 15.0858 36.0425 15.0272 35.914C14.8971 35.6292 14.7635 35.2255 14.5362 34.5258L10.1567 21.0471C9.92933 20.3474 9.80012 19.9423 9.73793 19.6355C9.70987 19.497 9.7053 19.4218 9.70555 19.3852C9.70567 19.3682 9.70683 19.3602 9.70709 19.3586C9.7073 19.3572 9.70735 19.3571 9.70764 19.3562L9.70765 19.3561C9.70781 19.3557 9.70789 19.3554 9.70803 19.3551C9.70816 19.3548 9.70832 19.3544 9.70862 19.3538C9.70939 19.3523 9.71315 19.3452 9.72301 19.3314C9.74432 19.3017 9.79224 19.2435 9.89634 19.1479C10.127 18.9362 10.4696 18.6845 11.0649 18.252L22.5305 9.92173C23.1257 9.48928 23.4711 9.24122 23.7437 9.08726C23.8667 9.01777 23.9369 8.99018 23.9718 8.97911C23.9879 8.97398 23.9959 8.97262 23.9975 8.97235C23.9989 8.97214 23.999 8.97214 23.9999 8.97214H24H24.0001C24.001 8.97214 24.0011 8.97214 24.0025 8.97235C24.0041 8.97262 24.0121 8.97398 24.0282 8.97911C24.0631 8.99018 24.1333 9.01777 24.2563 9.08726C24.5289 9.24122 24.8743 9.48928 25.4695 9.92173Z" stroke="black" stroke-width="3"/>
</g>
</svg>
