<svg width="48" height="48" viewBox="0 0 48 48" fill="none" xmlns="http://www.w3.org/2000/svg">
<g id="internet-communication/phone-simple">
<rect id="Rectangle 37" opacity="0.2" x="5" y="5" width="38" height="38" rx="4" fill="black"/>
<g id="Group 20">
<path id="Vector 14" d="M19.934 18.2886C22.293 23.0066 24.767 25.4806 29.4851 27.8397C32.6688 29.4315 37.4443 32.6152 37.4443 32.6152L36.2219 34.6525C35.499 35.8574 34.1908 36.6299 32.8003 36.4277C23.0211 35.006 12.7677 24.7525 11.3459 14.9733C11.1438 13.5829 11.9163 12.2746 13.1211 11.5517L15.1584 10.3293C15.1584 10.3293 18.3421 15.1049 19.934 18.2886Z" fill="black"/>
<path id="Rectangle 59" d="M37.4443 32.6152L29.4851 27.8397L29.6281 27.5536C30.3065 26.197 30.6456 25.5187 31.2748 25.3354C31.904 25.1522 32.5543 25.5424 33.8549 26.3228L36.654 28.0022C37.7841 28.6803 38.3492 29.0193 38.5135 29.5837C38.6779 30.1481 38.3832 30.7375 37.7938 31.9163L37.4443 32.6152Z" fill="black"/>
<path id="Rectangle 60" d="M15.1587 10.3291L19.9342 18.2883L20.2203 18.1453C21.5769 17.467 22.2553 17.1278 22.4385 16.4986C22.6217 15.8694 22.2315 15.2191 21.4512 13.9185L19.7717 11.1194C19.0936 9.98933 18.7546 9.42427 18.1902 9.25991C17.6258 9.09556 17.0364 9.39026 15.8576 9.97965L15.1587 10.3291Z" fill="black"/>
</g>
</g>
</svg>
