<svg width="48" height="48" viewBox="0 0 48 48" fill="none" xmlns="http://www.w3.org/2000/svg">
<g id="arrows/repeat">
<path id="Vector 22 (Stroke)" fill-rule="evenodd" clip-rule="evenodd" d="M15.4138 7.76471H41C42.1046 7.76471 43 8.66014 43 9.76471V22C43 23.1046 42.1046 24 41 24H36.7241C35.6196 24 34.7241 23.1046 34.7241 22V16.8824C34.7241 16.3301 34.2764 15.8824 33.7241 15.8824H15.4138V20.4484C15.4138 21.3068 14.4036 21.7662 13.7566 21.2022L3.86448 12.5773C3.40738 12.1787 3.40738 11.4683 3.86448 11.0698L13.7566 2.44489C14.4036 1.88081 15.4138 2.34029 15.4138 3.19862V7.76471Z" fill="black"/>
<path id="Vector 22 (Stroke)_2" opacity="0.6" fill-rule="evenodd" clip-rule="evenodd" d="M32.5862 40.2353H7C5.89543 40.2353 5 39.3399 5 38.2353V26C5 24.8954 5.89543 24 7 24H11.2759C12.3804 24 13.2759 24.8954 13.2759 26V31.1176C13.2759 31.6699 13.7236 32.1176 14.2759 32.1176H32.5862V27.5516C32.5862 26.6932 33.5964 26.2338 34.2434 26.7978L44.1355 35.4227C44.5926 35.8213 44.5926 36.5317 44.1355 36.9302L34.2434 45.5551C33.5964 46.1192 32.5862 45.6597 32.5862 44.8014V40.2353Z" fill="black"/>
<path id="Subtract" opacity="0.2" fill-rule="evenodd" clip-rule="evenodd" d="M8 24H7C5.89543 24 5 24.8954 5 26V38.2353C5 39.3399 5.89543 40.2353 7 40.2353H32.5862V44.8014C32.5862 45.6597 33.5964 46.1192 34.2434 45.5551L44.1355 36.9302C44.5926 36.5317 44.5926 35.8213 44.1355 35.4227L40 31.817V32C40 35.7712 40 37.6569 38.8284 38.8284C37.6569 40 35.7712 40 32 40H16C12.2288 40 10.3431 40 9.17157 38.8284C8 37.6569 8 35.7712 8 32V24Z" fill="black"/>
</g>
</svg>
