<svg width="48" height="48" viewBox="0 0 48 48" fill="none" xmlns="http://www.w3.org/2000/svg">
<path opacity="0.4" d="M7.04785 10C7.04785 8.11438 7.04785 7.17157 7.63364 6.58579C8.21942 6 9.16223 6 11.0479 6H37.0479C38.9335 6 39.8763 6 40.4621 6.58579C41.0479 7.17157 41.0479 8.11438 41.0479 10V30H7.04785V10Z" fill="black"/>
<path d="M7.04785 10C7.04785 8.11438 7.04785 7.17157 7.63364 6.58579C8.21942 6 9.16223 6 11.0479 6H37.0479C38.9335 6 39.8763 6 40.4621 6.58579C41.0479 7.17157 41.0479 8.11438 41.0479 10V30H7.04785V10Z" stroke="black" stroke-width="2"/>
<path opacity="0.4" d="M16.8199 33.6838C16.956 33.2754 17.3382 33 17.7686 33H30.3271C30.7575 33 31.1397 33.2754 31.2758 33.6838L32.6091 37.6838C32.825 38.3313 32.343 39 31.6604 39H16.4353C15.7527 39 15.2708 38.3313 15.4866 37.6838L16.8199 33.6838Z" fill="black"/>
<path opacity="0.8" fill-rule="evenodd" clip-rule="evenodd" d="M42.0479 31H6.04791L3.14502 38.2572C2.61953 39.5709 3.58704 41 5.00197 41H43.0938C44.5088 41 45.4763 39.5709 44.9508 38.2572L42.0479 31ZM17.7688 33C17.3383 33 16.9562 33.2754 16.8201 33.6838L15.4867 37.6838C15.2709 38.3313 15.7529 39 16.4354 39H31.6606C32.3431 39 32.8251 38.3313 32.6093 37.6838L31.2759 33.6838C31.1398 33.2754 30.7577 33 30.3272 33H17.7688Z" fill="black"/>
</svg>
