<svg width="48" height="48" viewBox="0 0 48 48" fill="none" xmlns="http://www.w3.org/2000/svg">
<g clip-path="url(#clip0_216:386)">
<path opacity="0.8" fill-rule="evenodd" clip-rule="evenodd" d="M38.0616 11.0654C38.4521 11.4559 38.4521 12.089 38.0616 12.4796L17.0616 33.4796C16.6711 33.8701 16.0379 33.8701 15.6474 33.4796C15.2569 33.089 15.2569 32.4559 15.6474 32.0654L36.6474 11.0654C37.0379 10.6748 37.6711 10.6748 38.0616 11.0654Z" fill="black"/>
<path opacity="0.6" fill-rule="evenodd" clip-rule="evenodd" d="M33.5567 7.85782C31.4687 8.45444 29.6039 9.65576 28.1975 11.3104L13.3545 28.7728L16.1474 31.5657L36.6474 11.0657C37.0379 10.6752 37.6711 10.6752 38.0616 11.0657C38.4521 11.4562 38.4521 12.0894 38.0616 12.4799L17.5616 32.9799L20.3544 35.7729L37.8168 20.9298C39.4715 19.5233 40.6728 17.6585 41.2694 15.5704L44.1072 5.63797C44.215 5.26079 43.8662 4.91208 43.4891 5.01985L33.5567 7.85782Z" fill="black"/>
<path d="M22.8547 38.2726C23.6831 39.101 23.6831 40.4441 22.8547 41.2726V41.2726C22.0263 42.101 20.6831 42.101 19.8547 41.2726L16.3546 37.7726L8.56321 44.0056C7.30585 45.0115 5.49324 44.9111 4.35465 43.7725V43.7725C3.21605 42.634 3.11565 40.8213 4.12154 39.5639L10.3546 31.7726L6.85463 28.2726C6.0262 27.4441 6.02619 26.101 6.85463 25.2725V25.2725C7.68306 24.4441 9.02623 24.4441 9.85467 25.2725L22.8547 38.2726Z" fill="black"/>
</g>
<defs>
<clipPath id="clip0_216:386">
<rect width="48" height="48" fill="white"/>
</clipPath>
</defs>
</svg>
