<svg width="48" height="48" viewBox="0 0 48 48" fill="none" xmlns="http://www.w3.org/2000/svg">
<path fill-rule="evenodd" clip-rule="evenodd" d="M21.9263 3.98351C23.0862 2.87408 24.9138 2.87408 26.0737 3.98351L45.4304 22.4986C46.2916 23.3224 46.3068 24.6932 45.4641 25.5359C44.6495 26.3505 43.3341 26.3674 42.4988 25.5739L26.755 10.6172C25.2111 9.15058 22.7889 9.15058 21.245 10.6172L5.50116 25.5739C4.66594 26.3674 3.35049 26.3505 2.53589 25.5359C1.69322 24.6932 1.70845 23.3224 2.56963 22.4986L21.9263 3.98351Z" fill="black"/>
<path opacity="0.6" fill-rule="evenodd" clip-rule="evenodd" d="M21.249 10.606C22.7918 9.14437 25.2082 9.14437 26.751 10.606L43 25.9998V42.9998C43 44.1043 42.1046 44.9998 41 44.9998H23.0219C21.9173 44.9998 21.0219 44.1043 21.0219 42.9998V33.9998C21.0219 33.4475 20.5742 32.9998 20.0219 32.9998H13C12.4477 32.9998 12 33.4475 12 33.9998V42.9998C12 44.1043 11.1046 44.9998 10 44.9998H7C5.89543 44.9998 5 44.1043 5 42.9998V25.9998L21.249 10.606ZM29.4 33.2664C28.8477 33.2664 28.4 33.7141 28.4 34.2664V39.5998C28.4 40.1521 28.8477 40.5998 29.4 40.5998H34.7333C35.2856 40.5998 35.7333 40.1521 35.7333 39.5998V34.2664C35.7333 33.7141 35.2856 33.2664 34.7333 33.2664H29.4Z" fill="black"/>
</svg>
