<svg width="48" height="48" viewBox="0 0 48 48" fill="none" xmlns="http://www.w3.org/2000/svg">
<rect opacity="0.2" x="5" y="5" width="38" height="38" rx="4" fill="black"/>
<path opacity="0.6" d="M30 18C30 17.2121 29.8448 16.4319 29.5433 15.7039C29.2417 14.9759 28.7998 14.3145 28.2426 13.7574C27.6855 13.2002 27.0241 12.7583 26.2961 12.4567C25.5681 12.1552 24.7879 12 24 12C23.2121 12 22.4319 12.1552 21.7039 12.4567C20.9759 12.7583 20.3145 13.2002 19.7574 13.7574C19.2002 14.3145 18.7583 14.9759 18.4567 15.7039C18.1552 16.4319 18 17.2121 18 18H20.9972C20.9972 17.6057 21.0748 17.2152 21.2257 16.8509C21.3766 16.4865 21.5978 16.1555 21.8767 15.8767C22.1555 15.5978 22.4865 15.3766 22.8509 15.2257C23.2152 15.0748 23.6057 14.9972 24 14.9972C24.3943 14.9972 24.7848 15.0748 25.1491 15.2257C25.5135 15.3766 25.8445 15.5978 26.1233 15.8767C26.4022 16.1555 26.6234 16.4865 26.7743 16.8509C26.9252 17.2152 27.0028 17.6057 27.0028 18H30Z" fill="black"/>
<path fill-rule="evenodd" clip-rule="evenodd" d="M10.7441 18.6662C10.1479 19.3323 10.263 20.3688 10.4934 22.4417L11.2091 28.8835C11.5852 32.2685 11.7733 33.961 12.9123 34.9805C14.0514 36 15.7543 36 19.1602 36H28.8395C32.2454 36 33.9483 36 35.0873 34.9805C36.2264 33.961 36.4144 32.2685 36.7906 28.8835L37.5063 22.4417C37.7366 20.3688 37.8518 19.3323 37.2556 18.6662C36.6593 18 35.6165 18 33.5308 18H14.4689C12.3832 18 11.3403 18 10.7441 18.6662ZM15.9999 21C15.4476 21 14.9999 21.4477 14.9999 22V31C14.9999 31.5523 15.4476 32 15.9999 32C16.5521 32 16.9999 31.5523 16.9999 31V22C16.9999 21.4477 16.5521 21 15.9999 21ZM18.9999 22C18.9999 21.4477 19.4476 21 19.9999 21C20.5521 21 20.9999 21.4477 20.9999 22V31C20.9999 31.5523 20.5521 32 19.9999 32C19.4476 32 18.9999 31.5523 18.9999 31V22ZM23.9999 21C23.4476 21 22.9999 21.4477 22.9999 22V31C22.9999 31.5523 23.4476 32 23.9999 32C24.5521 32 24.9999 31.5523 24.9999 31V22C24.9999 21.4477 24.5521 21 23.9999 21ZM26.9999 22C26.9999 21.4477 27.4476 21 27.9999 21C28.5521 21 28.9999 21.4477 28.9999 22V31C28.9999 31.5523 28.5521 32 27.9999 32C27.4476 32 26.9999 31.5523 26.9999 31V22ZM31.9999 21C31.4476 21 30.9999 21.4477 30.9999 22V31C30.9999 31.5523 31.4476 32 31.9999 32C32.5521 32 32.9999 31.5523 32.9999 31V22C32.9999 21.4477 32.5521 21 31.9999 21Z" fill="black"/>
</svg>
