<svg width="48" height="48" viewBox="0 0 48 48" fill="none" xmlns="http://www.w3.org/2000/svg">
<rect opacity="0.2" x="5" y="5" width="38" height="38" rx="4" fill="black"/>
<path opacity="0.6" d="M29.0364 13.0374C29.6598 12.3661 30.4948 11.9291 31.4018 11.7995L36.34 11.0939C36.67 11.0467 36.9528 11.3295 36.9057 11.6595L36.224 16.4315C36.0801 17.4389 35.5576 18.3536 34.763 18.9893L20.9999 29.9998L17 25.9997L29.0364 13.0374Z" fill="black"/>
<path d="M24.0004 32.9996C24.5527 33.5519 24.5527 34.4473 24.0004 34.9996V34.9996C23.4481 35.5519 22.5527 35.5519 22.0004 34.9996L19.0003 31.9996L12.1317 37.151C11.4825 37.6379 10.5741 37.5733 10.0004 36.9996V36.9996C9.42657 36.4258 9.36201 35.5174 9.84888 34.8682L15.0003 27.9996L12.0003 24.9996C11.4481 24.4473 11.4481 23.5519 12.0003 22.9996V22.9996C12.5526 22.4473 13.4481 22.4473 14.0004 22.9996L24.0004 32.9996Z" fill="black"/>
</svg>
