<svg xmlns="http://www.w3.org/2000/svg" width="48" height="48" fill="none" viewBox="0 0 48 48">
  <g clip-path="url(#clip0_47:650)">
    <path fill="#000" d="M18.116 16.189L31.55 29.624l-1.68 1.68-13.435-13.436z" opacity=".2"/>
    <path fill="#000" fill-rule="evenodd" d="M43.012 14.204c-.24.848-.53 1.68-.868 2.49l-11.1-11.099a22.001 22.001 0 012.49-.868l9.478 9.477z" clip-rule="evenodd" opacity=".2"/>
    <g opacity=".6">
      <path fill="#000" d="M31.263 5.816a26.14 26.14 0 00-8.413 5.639l-4.734 4.734 13.435 13.435 4.734-4.734a26.14 26.14 0 005.639-8.413L31.264 5.816zM16.436 17.869l13.435 13.434-2.52 2.52a2.375 2.375 0 01-3.36.001L13.917 23.748a2.375 2.375 0 010-3.36l2.52-2.52z"/>
    </g>
    <path fill="#000" d="M33.734 4.927a26.13 26.13 0 016.06-1.084l1.692-.1a2.375 2.375 0 012.51 2.51l-.1 1.693a26.125 26.125 0 01-1.083 6.059l-9.079-9.078zM34.529 36.406l1.222-10.982-8.4 8.4 3.776 3.775c1.186 1.186 3.216.474 3.402-1.193zM11.334 13.21l10.982-1.222-8.4 8.4-3.775-3.776c-1.186-1.185-.474-3.216 1.193-3.401zM12.443 24.819l2.779.235 7.464 7.464.235 2.779c.079.928-1.044 1.45-1.703.791l-9.566-9.566c-.66-.66-.138-1.782.791-1.703z"/>
    <circle cx="21" cy="39" r="1" fill="#000" opacity=".4"/>
    <circle cx="13" cy="43" r="1" fill="#000" opacity=".4"/>
    <circle cx="7" cy="32" r="1" fill="#000" opacity=".4"/>
    <circle cx="5" cy="38" r="1" fill="#000" opacity=".4"/>
    <path fill="#000" d="M5.907 41.667l5.537-14.239a1 1 0 011.64-.344l7.91 7.91a1 1 0 01-.281 1.612L7.265 42.934c-.817.385-1.685-.425-1.358-1.267z" opacity=".4"/>
  </g>
  <defs>
    <clipPath id="clip0_47:650">
      <path fill="#fff" d="M0 0h48v48H0z"/>
    </clipPath>
  </defs>
</svg>
