<svg xmlns="http://www.w3.org/2000/svg" width="48" height="48" fill="none" viewBox="0 0 48 48">
  <g opacity=".4">
    <path fill="#000" d="M16 35.028a6 6 0 11-12 0 6 6 0 0112 0zM44 35.028a6 6 0 11-12 0 6 6 0 0112 0z"/>
    <path fill="#000" d="M10 34.028h28v7H10v-7z"/>
  </g>
  <g opacity=".8">
    <path fill="#000" fill-rule="evenodd" d="M18 13.528a1.5 1.5 0 011.5 1.5v13a1.5 1.5 0 01-3 0v-13a1.5 1.5 0 011.5-1.5zM24 11.528a1.5 1.5 0 011.5 1.5v15a1.5 1.5 0 01-3 0v-15a1.5 1.5 0 011.5-1.5zM30 11.528a1.5 1.5 0 011.5 1.5v15a1.5 1.5 0 01-3 0v-15a1.5 1.5 0 011.5-1.5z" clip-rule="evenodd"/>
  </g>
  <path fill="#000" fill-rule="evenodd" d="M20.889 7.223a2 2 0 00-2.406.479l-5.239 6.044a1 1 0 00-.244.655v15.43a6.005 6.005 0 012.917 4.197h16.166A6.005 6.005 0 0135 29.831V7.001a1 1 0 00-1.591-.806l-4.924 3.611a2 2 0 01-2.077.176l-5.52-2.76zM24 11.528a1.5 1.5 0 011.5 1.5v15a1.5 1.5 0 01-3 0v-15a1.5 1.5 0 011.5-1.5zm-4.5 3.5a1.5 1.5 0 00-3 0v13a1.5 1.5 0 003 0v-13zm12-2a1.5 1.5 0 00-3 0v15a1.5 1.5 0 003 0v-15z" clip-rule="evenodd"/>
</svg>
