<svg xmlns="http://www.w3.org/2000/svg" width="48" height="48" fill="none" viewBox="0 0 48 48">
  <g opacity=".2">
    <path fill="#000" d="M22.413 22.882c0-1.04.728-1.882 1.625-1.882.898 0 1.625.843 1.625 1.882v12.236c0 1.04-.727 1.882-1.625 1.882-.897 0-1.625-.843-1.625-1.882V22.882zM28.1 22.882c0-1.04.728-1.882 1.626-1.882.897 0 1.625.843 1.625 1.882v12.236c0 1.04-.728 1.882-1.625 1.882-.898 0-1.625-.843-1.625-1.882V22.882zM33.788 22.882c0-1.04.728-1.882 1.625-1.882.898 0 1.625.843 1.625 1.882v12.236c0 1.04-.727 1.882-1.625 1.882-.897 0-1.625-.843-1.625-1.882V22.882zM16.726 22.882c0-1.04.727-1.882 1.625-1.882.897 0 1.625.843 1.625 1.882v12.236c0 1.04-.728 1.882-1.625 1.882-.898 0-1.625-.843-1.625-1.882V22.882zM11.038 22.882c0-1.04.728-1.882 1.625-1.882s1.625.843 1.625 1.882v12.236c0 1.04-.728 1.882-1.625 1.882s-1.625-.843-1.625-1.882V22.882z"/>
  </g>
  <path fill="#000" fill-rule="evenodd" d="M2.432 16.67c-.597.671-.475 1.713-.23 3.796l1.696 14.466c.395 3.363.592 5.045 1.729 6.057C6.764 42 8.457 42 11.844 42h24.39c3.386 0 5.08 0 6.216-1.011 1.137-1.012 1.334-2.694 1.729-6.057l1.696-14.466c.245-2.083.367-3.125-.23-3.795C45.048 16 44 16 41.902 16H6.174c-2.097 0-3.146 0-3.742.67zM12.663 21c-.897 0-1.625.843-1.625 1.882v12.236c0 1.04.728 1.882 1.625 1.882.898 0 1.625-.843 1.625-1.882V22.882c0-1.04-.727-1.882-1.625-1.882zm4.063 1.882c0-1.04.727-1.882 1.625-1.882.897 0 1.625.843 1.625 1.882v12.236c0 1.04-.728 1.882-1.625 1.882-.898 0-1.625-.843-1.625-1.882V22.882zm5.687 0c0-1.04.728-1.882 1.625-1.882.898 0 1.625.843 1.625 1.882v12.236c0 1.04-.727 1.882-1.625 1.882-.897 0-1.625-.843-1.625-1.882V22.882zm5.688 0c0-1.04.727-1.882 1.625-1.882.897 0 1.625.843 1.625 1.882v12.236c0 1.04-.728 1.882-1.625 1.882-.898 0-1.625-.843-1.625-1.882V22.882zM35.413 21c-.897 0-1.625.843-1.625 1.882v12.236c0 1.04.728 1.882 1.625 1.882.898 0 1.625-.843 1.625-1.882V22.882c0-1.04-.727-1.882-1.625-1.882z" clip-rule="evenodd"/>
  <path fill="#000" d="M35.038 16a11 11 0 10-22 0h3.996a7.003 7.003 0 0114.008 0h3.996z"/>
  <path fill="#000" fill-rule="evenodd" d="M34.2 11.79a11 11 0 01.838 4.21h2a11 11 0 00-12-10.954 11 11 0 019.163 6.744zm-9.162-2.722A7.004 7.004 0 0019.034 16h-2a7.003 7.003 0 018.004-6.932z" clip-rule="evenodd" opacity=".2"/>
</svg>
