<svg width="48" height="48" viewBox="0 0 48 48" fill="none" xmlns="http://www.w3.org/2000/svg">
<rect opacity="0.2" x="5" y="5" width="38" height="38" rx="4" fill="black"/>
<mask id="mask0_37:1036" style="mask-type:alpha" maskUnits="userSpaceOnUse" x="5" y="5" width="38" height="38">
<rect x="5" y="5" width="38" height="38" rx="4" fill="#66AADA"/>
</mask>
<g mask="url(#mask0_37:1036)">
<path fill-rule="evenodd" clip-rule="evenodd" d="M21.8787 13.1209C23.0503 11.9493 24.9497 11.9493 26.1213 13.1209L37 23.9995V35.9995C37 36.5518 36.5523 36.9996 36 36.9996H22.9695C22.4172 36.9996 21.9695 36.5518 21.9695 35.9995V29.9995C21.9695 29.4473 21.5218 28.9995 20.9695 28.9995H17C16.4477 28.9995 16 29.4473 16 29.9995V35.9995C16 36.5518 15.5523 36.9995 15 36.9995L12 36.9995C11.4477 36.9995 11 36.5518 11 35.9995V23.9995L21.8787 13.1209ZM28 28.9995C27.4477 28.9995 27 29.4473 27 29.9995V32.9995C27 33.5518 27.4477 33.9995 28 33.9995H31C31.5523 33.9995 32 33.5518 32 32.9995V29.9995C32 29.4473 31.5523 28.9995 31 28.9995H28Z" fill="black"/>
<path opacity="0.6" fill-rule="evenodd" clip-rule="evenodd" d="M21.6119 9.38806C22.9308 8.06917 25.0692 8.06917 26.3881 9.38806L39 22C39.5523 22.5523 39.5523 23.4477 39 24C38.4477 24.5523 37.5523 24.5523 37 24L26.0896 13.0896C24.9355 11.9355 23.0645 11.9355 21.9104 13.0896L11 24C10.4477 24.5523 9.55228 24.5523 9 24C8.44772 23.4477 8.44771 22.5523 9 22L21.6119 9.38806Z" fill="black"/>
</g>
</svg>
