<svg xmlns="http://www.w3.org/2000/svg" width="48" height="48" fill="none" viewBox="0 0 48 48">
  <rect width="38" height="38" x="5" y="5" fill="#000" opacity=".2" rx="4"/>
  <path stroke="#000" stroke-width="2" d="M24.93 13.046l.626 1.576.02.051c.16.405.317.798.489 1.103.193.343.479.71.964.911.485.201.947.143 1.326.038.338-.095.725-.262 1.125-.434l.051-.022 1.558-.672c1.008-.435 1.664-.715 2.129-.843l.038-.01a2.878 2.878 0 01-.01.038c-.128.465-.408 1.12-.843 2.13l-.672 1.557-.022.05c-.172.4-.34.788-.434 1.126-.105.38-.163.841.038 1.326.2.485.568.77.911.964.305.172.698.328 1.103.489l.051.02 1.576.627c1.02.405 1.682.67 2.102.91l.034.019-.034.02c-.42.238-1.081.504-2.102.91l-1.576.626-.051.02c-.405.16-.798.317-1.103.489-.343.193-.71.479-.911.964-.201.485-.143.947-.038 1.326.095.338.262.725.434 1.125l.022.051.672 1.558c.435 1.008.715 1.664.843 2.129l.01.038a2.878 2.878 0 01-.038-.01c-.465-.128-1.12-.408-2.13-.843l-1.557-.672-.05-.022c-.4-.172-.788-.34-1.126-.434-.38-.105-.841-.163-1.326.038-.485.2-.77.568-.964.911-.172.305-.328.698-.489 1.103l-.02.051-.627 1.576c-.405 1.02-.67 1.682-.91 2.102L24 37.09l-.02-.034c-.238-.42-.504-1.081-.91-2.102l-.626-1.576-.02-.051c-.16-.405-.317-.798-.489-1.103-.193-.343-.479-.71-.964-.911-.485-.201-.947-.143-1.326-.038-.338.095-.725.262-1.125.434l-.051.022-1.558.672c-1.008.435-1.664.715-2.129.843a2.878 2.878 0 01-.038.01l.01-.038c.128-.465.408-1.12.843-2.13l.672-1.557.022-.05c.172-.4.34-.788.434-1.126.105-.38.163-.841-.038-1.326-.2-.485-.568-.77-.911-.964-.305-.172-.698-.328-1.103-.489l-.051-.02-1.576-.627c-1.02-.405-1.682-.67-2.102-.91L10.91 24l.034-.02c.42-.238 1.081-.504 2.102-.91l1.576-.626.051-.02c.405-.16.798-.317 1.103-.489.343-.193.71-.479.911-.964.201-.485.143-.947.038-1.326-.095-.338-.262-.725-.434-1.125a11.2 11.2 0 01-.022-.051l-.672-1.558c-.435-1.008-.715-1.664-.843-2.129a2.878 2.878 0 01-.01-.038l.038.01c.465.128 1.12.408 2.13.843l1.557.672.05.022c.4.172.788.34 1.126.434.38.105.841.163 1.326-.038.485-.2.77-.568.964-.911.172-.305.328-.698.489-1.103l.02-.051.627-1.576c.405-1.02.67-1.682.91-2.102L24 10.91l.02.034c.238.42.504 1.081.91 2.102zm8.638 1.647l-.012-.002c.008 0 .012.001.012.002zm-.26-.249a.04.04 0 010-.012v.012zm4.039 9.74s-.004-.003-.008-.01l.008.01zm-.008-.359a.042.042 0 01.008-.01l-.008.01zm-4.032 9.743l.002-.012c0 .008-.001.012-.002.012zm.249-.26a.04.04 0 01.012 0h-.012zm-9.74 4.039s.003-.004.01-.008l-.01.008zm.359-.008l.01.008-.01-.008zm-9.743-4.032l.012.002c-.008 0-.012-.001-.012-.002zm.26.249a.04.04 0 010 .012v-.012zm-4.039-9.74l.008.01-.008-.01zm.008.359a.042.042 0 01-.008.01l.008-.01zm4.032-9.743l-.002.012c0-.008.001-.012.002-.012zm-.249.26a.04.04 0 01-.012 0h.012zm9.74-4.039l-.01.008.01-.008zm-.359.008a.042.042 0 01-.01-.008l.01.008z"/>
</svg>
