<svg xmlns="http://www.w3.org/2000/svg" width="48" height="48" fill="none" viewBox="0 0 48 48">
  <rect width="38" height="38" x="5" y="5" fill="#000" opacity=".2" rx="4"/>
  <path fill="#000" d="M22.141 12.677c.787-1.98 1.18-2.97 1.859-2.97s1.072.99 1.859 2.97l.626 1.575c.357.9.536 1.35.927 1.512.39.161.835-.03 1.723-.414l1.558-.671c1.955-.843 2.933-1.265 3.413-.785.48.48.058 1.458-.785 3.413l-.671 1.558c-.384.888-.575 1.333-.414 1.723.162.39.612.57 1.512.927l1.575.626c1.98.787 2.97 1.18 2.97 1.859s-.99 1.072-2.97 1.859l-1.575.626c-.9.357-1.35.536-1.512.927-.161.39.03.835.414 1.723l.671 1.558c.843 1.955 1.265 2.933.785 3.413-.48.48-1.458.058-3.413-.785l-1.558-.671c-.888-.384-1.333-.575-1.723-.414-.39.162-.57.612-.927 1.512l-.626 1.575c-.787 1.98-1.18 2.97-1.859 2.97s-1.072-.99-1.859-2.97l-.626-1.575c-.357-.9-.536-1.35-.927-1.512-.39-.161-.835.03-1.723.414l-1.558.671c-1.955.843-2.933 1.265-3.413.785-.48-.48-.058-1.458.785-3.413l.671-1.558c.384-.888.575-1.333.414-1.723-.162-.39-.612-.57-1.511-.927l-1.576-.626c-1.98-.787-2.97-1.18-2.97-1.859s.99-1.072 2.97-1.859l1.575-.626c.9-.357 1.35-.536 1.512-.927.161-.39-.03-.835-.414-1.723l-.671-1.558c-.843-1.955-1.265-2.933-.785-3.413.48-.48 1.458-.058 3.413.785l1.558.671c.888.384 1.333.575 1.723.414.39-.162.57-.612.927-1.511l.626-1.576z"/>
</svg>
