<svg xmlns="http://www.w3.org/2000/svg" width="48" height="48" fill="none" viewBox="0 0 48 48">
  <path fill="#000" d="M13.56 7.485c1.194-1.229 1.79-1.843 2.54-2.158.748-.316 1.604-.314 3.315-.31 2.894.006 6.371 0 8.943-.006 1.802-.004 2.703-.007 3.448.304.744.311 1.416.995 2.76 2.36a400.485 400.485 0 005.95 5.885c1.227 1.194 1.842 1.79 2.157 2.54.316.748.314 1.604.31 3.315-.006 2.99 0 6.603.007 9.196.004 1.689.006 2.533-.31 3.282-.315.75-.926 1.343-2.146 2.529a401.32 401.32 0 00-5.97 5.903c-1.342 1.366-2.013 2.049-2.758 2.36-.745.31-1.645.308-3.447.304-2.497-.006-5.848-.011-8.69-.006-1.826.004-2.738.005-3.482-.306-.744-.31-1.42-.997-2.77-2.371a401.253 401.253 0 00-5.932-5.866c-1.229-1.194-1.843-1.79-2.158-2.54-.316-.748-.314-1.604-.31-3.315.006-2.894 0-6.371-.006-8.943-.004-1.802-.007-2.703.304-3.448.311-.744.995-1.416 2.36-2.76a400.531 400.531 0 005.885-5.95z"/>
</svg>
