<svg xmlns="http://www.w3.org/2000/svg" width="48" height="48" fill="none" viewBox="0 0 48 48">
  <path fill="#000" d="M22.47 4.634c.755-.313 1.132-.47 1.53-.47.398 0 .776.157 1.53.47l11.081 4.59c.756.313 1.133.47 1.415.75.28.282.437.66.75 1.415l4.59 11.08c.313.755.47 1.133.47 1.531 0 .398-.157.776-.47 1.53l-4.59 11.081c-.313.756-.47 1.133-.75 1.415-.282.28-.66.437-1.415.75l-11.08 4.59c-.755.313-1.133.47-1.531.47-.398 0-.776-.157-1.53-.47l-11.081-4.59c-.756-.313-1.133-.47-1.415-.75-.28-.282-.437-.66-.75-1.415l-4.59-11.08c-.313-.755-.47-1.133-.47-1.531 0-.398.157-.776.47-1.53l4.59-11.081c.313-.756.47-1.133.75-1.415.282-.28.66-.437 1.415-.75l11.08-4.59z"/>
</svg>
