<svg width="48" height="48" viewBox="0 0 48 48" fill="none" xmlns="http://www.w3.org/2000/svg">
<path fill-rule="evenodd" clip-rule="evenodd" d="M16.1948 5.15655C15.8169 5.31309 15.5197 5.61029 14.9252 6.2047L6.2047 14.9252C5.61029 15.5197 5.31309 15.8169 5.15655 16.1948C5 16.5727 5 16.993 5 17.8336V30.1664C5 31.007 5 31.4273 5.15655 31.8052C5.31309 32.1831 5.61029 32.4804 6.2047 33.0748L14.9252 41.7953C15.5196 42.3897 15.8169 42.6869 16.1948 42.8435C16.5727 43 16.993 43 17.8336 43H30.1664C31.007 43 31.4273 43 31.8052 42.8435C32.1831 42.6869 32.4804 42.3897 33.0748 41.7953L41.7953 33.0748C42.3897 32.4804 42.6869 32.1831 42.8435 31.8052C43 31.4273 43 31.007 43 30.1664V17.8336C43 16.993 43 16.5727 42.8435 16.1948C42.6869 15.8169 42.3897 15.5197 41.7953 14.9253C41.7953 14.9253 41.7953 14.9253 41.7953 14.9253L33.0748 6.2047C32.4804 5.61029 32.1831 5.31309 31.8052 5.15655C31.4273 5 31.007 5 30.1664 5H17.8336C16.993 5 16.5727 5 16.1948 5.15655ZM17.8336 8.08482H30.1664C30.3391 8.08482 30.475 8.08486 30.5918 8.08591C30.6752 8.16776 30.7713 8.26387 30.8935 8.38599L39.614 17.1065C39.7361 17.2287 39.8322 17.3248 39.9141 17.4082C39.9151 17.525 39.9152 17.6609 39.9152 17.8336V30.1664C39.9152 30.3391 39.9151 30.475 39.9141 30.5918C39.8322 30.6752 39.7361 30.7713 39.614 30.8935L30.8935 39.614C30.7713 39.7361 30.6752 39.8322 30.5918 39.9141C30.475 39.9151 30.3391 39.9152 30.1664 39.9152H17.8336C17.6609 39.9152 17.525 39.9151 17.4082 39.9141C17.3248 39.8322 17.2287 39.7361 17.1065 39.614L8.38599 30.8935C8.26387 30.7713 8.16776 30.6752 8.08591 30.5918C8.08486 30.475 8.08482 30.3391 8.08482 30.1664V17.8336C8.08482 17.6609 8.08486 17.525 8.08591 17.4082C8.16776 17.3248 8.26387 17.2287 8.38599 17.1065L17.1065 8.38599C17.2287 8.26387 17.3248 8.16776 17.4082 8.08591C17.525 8.08486 17.6609 8.08482 17.8336 8.08482Z" fill="black"/>
</svg>
