<svg xmlns="http://www.w3.org/2000/svg" width="48" height="48" fill="none" viewBox="0 0 48 48">
  <rect width="38" height="38" x="5" y="5" fill="#000" opacity=".2" rx="4"/>
  <path stroke="#000" stroke-width="2" d="M25.148 11.558l6.838 2.832c.83.344.982.426 1.09.534.108.108.19.26.534 1.09l2.832 6.838c.344.83.393.995.393 1.148 0 .153-.049.317-.393 1.148l-2.832 6.838c-.344.83-.426.982-.534 1.09-.108.108-.26.19-1.09.534l-6.838 2.832c-.83.344-.995.393-1.148.393-.153 0-.317-.049-1.148-.393l-6.838-2.832c-.83-.344-.982-.426-1.09-.534-.108-.108-.19-.26-.534-1.09l-2.832-6.838c-.344-.83-.393-.995-.393-1.148 0-.153.049-.317.393-1.148l2.832-6.838c.344-.83.426-.982.534-1.09.108-.108.26-.19 1.09-.534l6.838-2.832c.83-.344.995-.393 1.148-.393.153 0 .317.049 1.148.393z"/>
</svg>
