<svg xmlns="http://www.w3.org/2000/svg" width="48" height="48" fill="none" viewBox="0 0 48 48">
  <path stroke="#000" stroke-width="3" d="M27.82 11.502l14.053 23.66c1.162 1.957 1.94 3.275 2.348 4.28.403.992.268 1.254.207 1.358-.072.12-.269.377-1.373.536-1.11.16-2.682.164-5.003.164H9.948c-2.32 0-3.893-.004-5.002-.164-1.105-.16-1.302-.416-1.374-.536-.061-.104-.196-.366.207-1.358.408-1.005 1.186-2.323 2.348-4.28l14.053-23.66c1.161-1.956 1.947-3.271 2.64-4.12.679-.83 1.005-.882 1.18-.882.175 0 .501.051 1.18.883.693.848 1.479 2.163 2.64 4.119z"/>
</svg>
