<svg xmlns="http://www.w3.org/2000/svg" width="48" height="48" fill="none" viewBox="0 0 48 48">
  <rect width="38" height="38" x="5" y="5" fill="#000" opacity=".2" rx="4"/>
  <path fill="#000" d="M25.29 34.976c-.633.488-.95.732-1.29.732-.34 0-.657-.244-1.29-.732C17.575 31.014 10 26.181 10 19.33c0-4.072 3.294-7.33 7.412-7.33 2.223 0 3.803.812 5 1.785.822.669 1.233 1.003 1.588 1.003s.767-.334 1.589-1.003c1.196-.973 2.777-1.785 5-1.785C34.705 12 38 15.258 38 19.33c0 6.85-7.574 11.684-12.71 15.646z"/>
</svg>
