<svg xmlns="http://www.w3.org/2000/svg" width="48" height="48" fill="none" viewBox="0 0 48 48">
  <rect width="38" height="38" x="5" y="5" fill="#000" opacity=".2" rx="4"/>
  <path fill="#000" d="M16.7 12.862c.895-.92 1.343-1.38 1.904-1.617.561-.237 1.203-.236 2.487-.233 1.842.003 3.986 0 5.648-.004 1.353-.003 2.03-.005 2.587.228.557.232 1.063.744 2.073 1.768 1.185 1.2 2.619 2.606 3.74 3.696.92.895 1.38 1.343 1.616 1.904.237.561.235 1.203.233 2.487-.003 1.912 0 4.151.004 5.838.003 1.267.005 1.9-.232 2.462-.236.561-.693 1.006-1.608 1.896a277.887 277.887 0 00-3.753 3.71c-1.01 1.024-1.516 1.535-2.073 1.767-.557.233-1.233.231-2.586.228-1.605-.004-3.661-.007-5.46-.004-1.37.002-2.055.003-2.611-.229-.557-.232-1.065-.747-2.082-1.776a278.618 278.618 0 00-3.725-3.683c-.92-.895-1.38-1.343-1.617-1.904-.237-.561-.236-1.203-.233-2.487.003-1.842 0-3.986-.004-5.648-.003-1.353-.005-2.03.228-2.587.232-.557.744-1.063 1.768-2.073 1.2-1.185 2.606-2.619 3.696-3.74z"/>
</svg>
