<svg width="48" height="48" viewBox="0 0 48 48" fill="none" xmlns="http://www.w3.org/2000/svg">
<path fill-rule="evenodd" clip-rule="evenodd" d="M40.5829 35.9282L26.5306 12.2678C25.343 10.2683 24.6229 9.07168 24.0184 8.33153C24.0122 8.32392 24.0061 8.31643 24 8.30907C23.9939 8.31643 23.9878 8.32392 23.9816 8.33153C23.3771 9.07169 22.657 10.2683 21.4694 12.2678L7.41711 35.9282C6.2932 37.8205 5.60202 38.9988 5.22954 39.8612C6.20459 39.9928 7.6338 40 9.94768 40H38.0523C40.3662 40 41.7954 39.9928 42.7705 39.8612C42.398 38.9988 41.7068 37.8205 40.5829 35.9282ZM43.0014 40.5348C43.0011 40.5346 43.0002 40.5289 42.9995 40.5184C43.0014 40.5297 43.0017 40.535 43.0014 40.5348ZM43.4424 39.7188C43.4526 39.7134 43.4585 39.711 43.4589 39.7112C43.4593 39.7114 43.4542 39.7141 43.4424 39.7188ZM4.54111 39.7112C4.54149 39.711 4.54737 39.7134 4.55761 39.7188C4.54585 39.7141 4.54073 39.7114 4.54111 39.7112ZM5.00051 40.5184C4.9998 40.5289 4.99886 40.5346 4.99857 40.5348C4.99828 40.535 4.99864 40.5297 5.00051 40.5184ZM24.3952 7.90056C24.3952 7.90104 24.3898 7.90514 24.3792 7.91142C24.39 7.90323 24.3953 7.90008 24.3952 7.90056ZM23.6208 7.91142C23.6102 7.90514 23.6048 7.90104 23.6048 7.90056C23.6047 7.90009 23.61 7.90323 23.6208 7.91142ZM24 5C22.2967 5 21.1611 6.91195 18.8901 10.7359L4.83773 34.3962C2.56665 38.2201 1.43111 40.1321 2.28276 41.566C3.13442 43 5.40551 43 9.94768 43H38.0523C42.5945 43 44.8656 43 45.7172 41.566C46.5689 40.1321 45.4334 38.2201 43.1623 34.3962L29.1099 10.7358C26.8389 6.91195 25.7033 5 24 5Z" fill="black"/>
</svg>
