<svg xmlns="http://www.w3.org/2000/svg" width="48" height="48" fill="none" viewBox="0 0 48 48">
  <path stroke="#000" stroke-width="3" d="M28.363 41.49c-2.498-.007-5.852-.012-8.697-.007-.934.002-1.556.002-2.04-.031-.467-.033-.7-.092-.86-.159-.154-.064-.366-.192-.741-.525-.384-.34-.85-.813-1.54-1.514a402.658 402.658 0 00-5.955-5.89c-1.322-1.284-1.652-1.644-1.82-2.046-.17-.402-.197-.889-.193-2.73.006-2.897 0-6.378-.006-8.95-.002-.922-.003-1.535.03-2.013.032-.459.09-.69.159-.853.064-.154.192-.365.522-.738.339-.381.808-.844 1.505-1.53a401.93 401.93 0 005.909-5.974c1.284-1.322 1.644-1.652 2.046-1.82.402-.17.889-.197 2.73-.193 2.897.006 6.378 0 8.95-.006.922-.002 1.535-.003 2.013.03.459.032.69.09.853.159.154.064.365.192.738.522.381.339.844.808 1.53 1.505 1.87 1.903 4.227 4.211 5.974 5.909 1.322 1.284 1.652 1.644 1.82 2.046.17.402.197.889.193 2.73-.006 2.993 0 6.609.007 9.203.004 1.816-.023 2.294-.192 2.696-.17.402-.496.76-1.81 2.035-1.749 1.7-4.115 4.018-5.993 5.927-.686.698-1.148 1.167-1.53 1.505-.371.33-.583.458-.737.523-.163.067-.394.126-.853.158-.477.033-1.09.032-2.012.03z"/>
</svg>
