<svg width="48" height="48" viewBox="0 0 48 48" fill="none" xmlns="http://www.w3.org/2000/svg">
<path fill-rule="evenodd" clip-rule="evenodd" d="M14.1176 9C9.56669 9 6 12.5749 6 16.9955C6 21.0766 8.31448 24.8293 12.0794 28.5477C14.8177 31.2523 17.9687 33.6176 21.0407 35.9235C22.0412 36.6745 23.0333 37.4192 24 38.1673C24.9667 37.4192 25.9588 36.6745 26.9593 35.9235C30.0313 33.6176 33.1823 31.2523 35.9206 28.5477C39.6855 24.8293 42 21.0766 42 16.9955C42 12.5749 38.4333 9 33.8824 9C30.9943 9 29.1163 10.1772 27.5956 11.6003C27.5734 11.6212 27.5506 11.6425 27.5275 11.6642C27.2074 11.9641 26.8061 12.3402 26.4245 12.6242C26.0074 12.9347 25.1677 13.4869 24 13.4869C22.8323 13.4869 21.9926 12.9347 21.5755 12.6242C21.1939 12.3402 20.7926 11.9641 20.4726 11.6642C20.4494 11.6425 20.4267 11.6212 20.4044 11.6003C18.8837 10.1772 17.0057 9 14.1176 9ZM24 41.7059C24.3453 41.7059 24.6581 41.4607 25.2836 40.9701C26.3248 40.1536 27.4451 39.3126 28.6039 38.4428C36.0132 32.881 45 26.1351 45 16.9955C45 10.8869 40.0588 6 33.8824 6C30.0019 6 27.4268 7.64949 25.5457 9.40994C24.7785 10.1279 24.3949 10.4869 24 10.4869C23.6051 10.4869 23.2215 10.1279 22.4543 9.40993C20.5732 7.64948 17.9981 6 14.1176 6C7.94118 6 3 10.8869 3 16.9955C3 26.1351 11.9868 32.881 19.3961 38.4428C20.5549 39.3126 21.6752 40.1536 22.7164 40.9701C23.3419 41.4607 23.6546 41.7059 24 41.7059Z" fill="black"/>
</svg>
