<svg xmlns="http://www.w3.org/2000/svg" width="48" height="48" fill="none" viewBox="0 0 48 48">
  <rect width="38" height="38" x="5" y="5" fill="#000" opacity=".2" rx="4"/>
  <path fill="#000" d="M21.649 11.708c1.134-.824 1.701-1.236 2.351-1.236.65 0 1.217.412 2.351 1.236l8.613 6.258c1.134.824 1.701 1.236 1.902 1.854.2.618-.016 1.284-.45 2.618l-3.289 10.124c-.433 1.334-.65 2-1.176 2.382-.525.382-1.226.382-2.628.382H18.677c-1.402 0-2.103 0-2.628-.382-.526-.382-.743-1.048-1.176-2.382l-3.29-10.124c-.433-1.334-.65-2-.449-2.618.201-.618.768-1.03 1.902-1.854l8.613-6.258z"/>
</svg>
