<svg xmlns="http://www.w3.org/2000/svg" width="48" height="48" fill="none" viewBox="0 0 48 48">
  <path stroke="#000" stroke-width="3" d="M25.47 5.922l15.27 11.094c.595.432.937.684 1.168.896.104.095.152.154.173.183l.015.023s0 0 0 0v.002h0l.001.002v.003l.002.024c0 .037-.005.112-.033.25-.062.307-.191.712-.419 1.412l-5.832 17.95c-.227.7-.361 1.104-.491 1.39a1.281 1.281 0 01-.138.241l-.002.002-.002.001a1.273 1.273 0 01-.273.056c-.31.036-.736.038-1.472.038H14.563c-.736 0-1.161-.002-1.472-.038a1.273 1.273 0 01-.273-.056l-.002-.001h-.001l-.001-.002a1.281 1.281 0 01-.138-.242c-.13-.285-.264-.688-.491-1.388l-5.833-17.95c-.227-.7-.356-1.106-.418-1.413a1.282 1.282 0 01-.031-.277v-.002h0l.001-.002.015-.023c.021-.03.069-.088.173-.183.23-.212.573-.464 1.169-.896L22.53 5.922c.595-.433.94-.68 1.213-.835a1.279 1.279 0 01.253-.115h.006a1.279 1.279 0 01.254.115c.272.154.617.402 1.213.835z"/>
</svg>
