<svg width="48" height="48" viewBox="0 0 48 48" fill="none" xmlns="http://www.w3.org/2000/svg">
<path fill-rule="evenodd" clip-rule="evenodd" d="M27.7413 11.3476L24.5796 9.09608C24.2324 8.84883 23.7667 8.84883 23.4195 9.09608L20.2579 11.3475C16.8124 13.8012 13.8007 16.8128 11.3471 20.2584L9.09559 23.42C8.84834 23.7672 8.84835 24.2329 9.09559 24.5801L11.3471 27.7418C13.8007 31.1873 16.8124 34.1989 20.2579 36.6526L23.4195 38.904C23.7667 39.1513 24.2324 39.1513 24.5796 38.904L27.7413 36.6526C31.1868 34.1989 34.1984 31.1873 36.6521 27.7418L38.9035 24.5801C39.1508 24.2329 39.1508 23.7672 38.9035 23.42L36.6521 20.2584C34.1984 16.8128 31.1868 13.8012 27.7413 11.3476ZM26.3198 6.65238C24.9311 5.6634 23.0681 5.6634 21.6793 6.65238L18.5177 8.90385C14.8001 11.5512 11.5507 14.8006 8.90337 18.5181L6.65189 21.6798C5.66291 23.0686 5.66291 24.9316 6.65189 26.3203L8.90336 29.482C11.5507 33.1995 14.8001 36.4489 18.5176 39.0963L21.6793 41.3477C23.0681 42.3367 24.9311 42.3367 26.3198 41.3477L29.4815 39.0963C33.199 36.4489 36.4484 33.1995 39.0958 29.482L41.3472 26.3203C42.3362 24.9316 42.3362 23.0686 41.3472 21.6798L39.0958 18.5181C36.4484 14.8006 33.199 11.5512 29.4815 8.90385L26.3198 6.65238Z" fill="black"/>
</svg>
