<svg xmlns="http://www.w3.org/2000/svg" width="48" height="48" fill="none" viewBox="0 0 48 48">
  <path stroke="#000" stroke-width="3" d="M24.957 6.02l11.08 4.59c.398.165.62.258.782.34a1.182 1.182 0 01.144.083l.002.002.002.002a1.182 1.182 0 01.084.144c.082.162.175.384.34.782l4.59 11.08c.164.398.255.621.312.793a1.167 1.167 0 01.042.161v.006a.132.132 0 01-.003.018 1.167 1.167 0 01-.04.143c-.056.172-.147.395-.312.793l-4.59 11.08c-.165.398-.258.62-.34.782a1.182 1.182 0 01-.083.144l-.002.002-.002.002a1.182 1.182 0 01-.144.084c-.162.082-.384.175-.782.34l-11.08 4.59c-.398.164-.621.255-.793.312a1.167 1.167 0 01-.161.042h-.006a.132.132 0 01-.018-.003 1.167 1.167 0 01-.143-.04 12.734 12.734 0 01-.793-.312l-11.08-4.59c-.398-.165-.62-.258-.782-.34a1.182 1.182 0 01-.144-.083l-.002-.002-.002-.002a1.182 1.182 0 01-.084-.144 12.852 12.852 0 01-.34-.782l-4.59-11.08c-.164-.398-.255-.621-.312-.793a1.184 1.184 0 01-.042-.161v-.006c0-.002 0-.008.003-.018.004-.023.014-.066.04-.143.056-.172.147-.395.312-.793l4.59-11.08c.165-.398.258-.62.34-.782a1.182 1.182 0 01.083-.144l.002-.002.002-.002a1.182 1.182 0 01.144-.084c.162-.082.384-.175.782-.34l11.08-4.59c.398-.164.621-.255.793-.312a1.184 1.184 0 01.161-.042h.006a1.184 1.184 0 01.161.042c.172.057.395.148.793.313z"/>
</svg>
