<svg xmlns="http://www.w3.org/2000/svg" width="48" height="48" fill="none" viewBox="0 0 48 48">
  <path fill="#000" d="M21.649 4.708C22.783 3.884 23.35 3.472 24 3.472c.65 0 1.217.412 2.351 1.236l15.27 11.094c1.134.825 1.701 1.236 1.902 1.855.201.618-.016 1.284-.449 2.618l-5.832 17.95c-.434 1.334-.65 2-1.176 2.382-.526.382-1.227.382-2.629.382H14.563c-1.402 0-2.103 0-2.629-.382-.526-.382-.742-1.048-1.175-2.382l-5.833-17.95c-.433-1.334-.65-2-.45-2.618.202-.619.769-1.03 1.903-1.855l15.27-11.094z"/>
</svg>
