<svg xmlns="http://www.w3.org/2000/svg" width="48" height="48" fill="none" viewBox="0 0 48 48">
  <rect width="38" height="38" x="5" y="5" fill="#000" opacity=".2" rx="4"/>
  <path stroke="#000" stroke-width="2" d="M26.598 17.5l6.928 12c.787 1.363 1.317 2.286 1.596 2.992.276.698.193.91.136 1.008-.057.099-.198.276-.94.386-.751.111-1.816.114-3.39.114H17.072c-1.574 0-2.639-.003-3.39-.114-.742-.11-.883-.287-.94-.386-.057-.099-.14-.31.136-1.008.279-.706.809-1.63 1.596-2.992l6.928-12c.787-1.363 1.322-2.284 1.793-2.878.467-.588.69-.622.805-.622.114 0 .338.034.805.622.471.594 1.006 1.515 1.793 2.878z"/>
</svg>
