<svg width="48" height="48" viewBox="0 0 48 48" fill="none" xmlns="http://www.w3.org/2000/svg">
<rect opacity="0.2" x="5" y="5" width="38" height="38" rx="4" fill="black"/>
<path d="M25.7402 12.4669L25.9815 12.6387C29.6083 15.2215 32.7785 18.3917 35.3613 22.0185L35.5331 22.2598C36.2748 23.3014 36.2748 24.6986 35.5331 25.7402L35.3613 25.9815C32.7785 29.6083 29.6083 32.7785 25.9815 35.3613L25.7402 35.5331C24.6986 36.2748 23.3014 36.2748 22.2598 35.5331L22.0185 35.3613C18.3917 32.7785 15.2215 29.6083 12.6387 25.9815L12.4669 25.7402C11.7252 24.6986 11.7252 23.3014 12.4669 22.2598L12.6387 22.0185C15.2215 18.3917 18.3917 15.2215 22.0185 12.6387L22.2598 12.4669C23.3014 11.7252 24.6986 11.7252 25.7402 12.4669Z" stroke="black" stroke-width="2"/>
</svg>
