<svg xmlns="http://www.w3.org/2000/svg" width="48" height="48" fill="none" viewBox="0 0 48 48">
  <path stroke="#000" stroke-width="3" d="M4.5 16.995c0-5.264 4.254-9.495 9.618-9.495 3.384 0 5.61 1.413 7.311 3.005l.05.046c.34.319.682.639.992.87.33.245.846.566 1.529.566.683 0 1.2-.321 1.529-.566.31-.231.652-.551.993-.87l.049-.046c1.7-1.592 3.927-3.005 7.311-3.005 5.364 0 9.618 4.23 9.618 9.495 0 4.683-2.66 8.802-6.525 12.62-2.816 2.781-6.094 5.241-9.194 7.568-1.178.885-2.331 1.75-3.423 2.607l-.358.278c-.1-.076-.214-.165-.358-.278-1.092-.857-2.245-1.722-3.423-2.607-3.1-2.327-6.378-4.787-9.194-7.568C7.16 25.797 4.5 21.678 4.5 16.995z"/>
</svg>
