<svg width="48" height="48" viewBox="0 0 48 48" fill="none" xmlns="http://www.w3.org/2000/svg">
<path fill-rule="evenodd" clip-rule="evenodd" d="M22.3701 5.10399C22.2975 5.28466 22.2217 5.47554 22.1418 5.67663L20.0957 10.8249C19.7382 11.7245 19.5595 12.1742 19.169 12.336C18.7785 12.4977 18.334 12.3061 17.4452 11.9228L12.358 9.72919C12.1593 9.64351 11.9707 9.56218 11.7917 9.4857C11.7751 9.47864 11.7587 9.47162 11.7423 9.46463C10.1913 8.80334 9.37102 8.51741 8.9444 8.94403C8.51777 9.37065 8.8037 10.1909 9.465 11.7419C9.47198 11.7583 9.479 11.7748 9.48607 11.7913C9.56254 11.9703 9.64388 12.1589 9.72956 12.3576L11.9232 17.4448C12.3065 18.3337 12.4981 18.7781 12.3363 19.1686C12.1746 19.5591 11.7248 19.7379 10.8253 20.0953L5.677 22.1414C5.47591 22.2213 5.28502 22.2972 5.10436 22.3697C5.08767 22.3764 5.07107 22.3831 5.05455 22.3897C3.49019 23.0188 2.70801 23.3967 2.70801 24C2.70801 24.6033 3.49019 24.9812 5.05456 25.6103C5.07107 25.6169 5.08767 25.6236 5.10436 25.6303C5.28502 25.7028 5.4759 25.7787 5.677 25.8586L10.8253 27.9047C11.7248 28.2621 12.1746 28.4409 12.3363 28.8314C12.4981 29.2219 12.3065 29.6663 11.9232 30.5552L9.72956 35.6423C9.64388 35.8411 9.56254 36.0297 9.48607 36.2087C9.479 36.2252 9.47198 36.2417 9.465 36.2581C8.8037 37.8091 8.51777 38.6294 8.9444 39.056C9.37102 39.4826 10.1913 39.1967 11.7423 38.5354C11.7587 38.5284 11.7751 38.5214 11.7917 38.5143C11.9707 38.4378 12.1593 38.3565 12.358 38.2708L17.4452 36.0772C18.334 35.6939 18.7785 35.5023 19.169 35.664C19.5595 35.8258 19.7382 36.2755 20.0957 37.1751L22.1418 42.3234C22.2217 42.5245 22.2975 42.7153 22.3701 42.896C22.3768 42.9127 22.3834 42.9293 22.3901 42.9458C23.0192 44.5102 23.397 45.2924 24.0004 45.2924C24.6037 45.2924 24.9815 44.5102 25.6107 42.9458C25.6173 42.9293 25.624 42.9127 25.6307 42.896C25.7032 42.7153 25.779 42.5245 25.859 42.3234L27.905 37.1751C28.2625 36.2755 28.4413 35.8258 28.8318 35.664C29.2223 35.5023 29.6667 35.6939 30.5555 36.0772L35.6427 38.2708C35.8414 38.3565 36.03 38.4378 36.2091 38.5143C36.2256 38.5214 36.2421 38.5284 36.2584 38.5354C37.8095 39.1967 38.6297 39.4826 39.0563 39.056C39.483 38.6294 39.197 37.8091 38.5357 36.2581C38.5288 36.2417 38.5217 36.2252 38.5147 36.2087C38.4382 36.0297 38.3569 35.8411 38.2712 35.6423L36.0776 30.5552C35.6943 29.6663 35.5026 29.2219 35.6644 28.8314C35.8261 28.4409 36.2759 28.2621 37.1754 27.9047L42.3237 25.8586C42.5248 25.7787 42.7157 25.7028 42.8964 25.6303C42.9131 25.6236 42.9297 25.6169 42.9462 25.6103C44.5105 24.9812 45.2927 24.6033 45.2927 24C45.2927 23.3967 44.5105 23.0188 42.9462 22.3897C42.9297 22.3831 42.9131 22.3764 42.8964 22.3697C42.7157 22.2972 42.5248 22.2213 42.3237 22.1414L37.1754 20.0954C36.2759 19.7379 35.8261 19.5591 35.6644 19.1686C35.5026 18.7781 35.6943 18.3337 36.0776 17.4448L38.2712 12.3577C38.3569 12.1589 38.4382 11.9703 38.5147 11.7913C38.5217 11.7748 38.5288 11.7583 38.5357 11.7419C39.197 10.1909 39.483 9.37065 39.0563 8.94403C38.6297 8.51741 37.8095 8.80334 36.2584 9.46463C36.2421 9.47162 36.2256 9.47864 36.2091 9.4857C36.03 9.56218 35.8414 9.64351 35.6427 9.72919L30.5555 11.9228C29.6667 12.3061 29.2223 12.4977 28.8318 12.336C28.4413 12.1742 28.2625 11.7245 27.905 10.8249L25.859 5.67663C25.779 5.47554 25.7032 5.28466 25.6307 5.10399C25.624 5.0873 25.6173 5.07071 25.6107 5.05419C24.9815 3.48983 24.6037 2.70764 24.0004 2.70764C23.397 2.70764 23.0192 3.48983 22.3901 5.05419C22.3834 5.07071 22.3768 5.0873 22.3701 5.10399ZM24.0004 9.12293L22.8836 11.9329C22.8727 11.9604 22.8614 11.9889 22.8497 12.0184C22.7042 12.3859 22.5002 12.9009 22.258 13.3305C21.9536 13.8704 21.3818 14.6666 20.317 15.1076C19.2523 15.5486 18.2849 15.39 17.6879 15.2235C17.2129 15.091 16.7046 14.8711 16.3418 14.7141C16.3127 14.7015 16.2845 14.6893 16.2573 14.6776L13.4807 13.4803L14.678 16.2569C14.6897 16.2841 14.7019 16.3123 14.7145 16.3414C14.8714 16.7042 15.0913 17.2125 15.2238 17.6875C15.3904 18.2846 15.549 19.2519 15.108 20.3167C14.6669 21.3814 13.8708 21.9532 13.3308 22.2576C12.9013 22.4998 12.3863 22.7038 12.0188 22.8493C11.9893 22.861 11.9608 22.8723 11.9333 22.8832L9.12329 24L11.9333 25.1168C11.9608 25.1277 11.9893 25.139 12.0188 25.1507C12.3863 25.2962 12.9013 25.5002 13.3308 25.7424C13.8708 26.0468 14.6669 26.6186 15.108 27.6833C15.549 28.7481 15.3904 29.7154 15.2238 30.3125C15.0913 30.7875 14.8714 31.2958 14.7145 31.6586C14.7019 31.6877 14.6897 31.7159 14.678 31.7431L13.4807 34.5197L16.2573 33.3224C16.2844 33.3107 16.3126 33.2985 16.3417 33.2859C16.7045 33.129 17.2129 32.909 17.6879 32.7765C18.2849 32.61 19.2523 32.4514 20.317 32.8924C21.3818 33.3334 21.9536 34.1296 22.258 34.6695C22.5002 35.0991 22.7041 35.6141 22.8497 35.9815C22.8614 36.011 22.8727 36.0396 22.8836 36.0671L24.0004 38.8771L25.1171 36.0671C25.128 36.0396 25.1394 36.011 25.151 35.9815C25.2966 35.6141 25.5005 35.0991 25.7427 34.6695C26.0471 34.1296 26.619 33.3334 27.6837 32.8924C28.7485 32.4514 29.7158 32.61 30.3128 32.7765C30.7878 32.909 31.2962 33.129 31.659 33.2859C31.6881 33.2985 31.7163 33.3107 31.7434 33.3224L34.52 34.5197L33.3228 31.7431C33.3111 31.7159 33.2989 31.6877 33.2863 31.6586C33.1293 31.2959 32.9094 30.7875 32.7769 30.3125C32.6104 29.7154 32.4517 28.7481 32.8928 27.6833C33.3338 26.6186 34.13 26.0468 34.6699 25.7424C35.0995 25.5002 35.6144 25.2962 35.9819 25.1507C36.0114 25.139 36.04 25.1277 36.0675 25.1168L38.8774 24L36.0675 22.8833C36.04 22.8723 36.0114 22.861 35.9819 22.8493C35.6144 22.7038 35.0995 22.4998 34.6699 22.2576C34.13 21.9532 33.3338 21.3814 32.8928 20.3167C32.4517 19.2519 32.6104 18.2846 32.7769 17.6875C32.9094 17.2125 33.1293 16.7041 33.2863 16.3414C33.2989 16.3123 33.311 16.2841 33.3228 16.2569L34.52 13.4803L31.7434 14.6776C31.7163 14.6893 31.6881 14.7015 31.6589 14.7141C31.2962 14.8711 30.7878 15.091 30.3128 15.2235C29.7158 15.39 28.7485 15.5486 27.6837 15.1076C26.619 14.6666 26.0471 13.8704 25.7427 13.3305C25.5005 12.9009 25.2966 12.3859 25.151 12.0184C25.1393 11.9889 25.128 11.9604 25.1171 11.9329L24.0004 9.12293Z" fill="black"/>
</svg>
