<svg xmlns="http://www.w3.org/2000/svg" width="48" height="48" fill="none" viewBox="0 0 48 48">
  <rect width="38" height="38" x="5" y="5" fill="#000" opacity=".2" rx="4"/>
  <path stroke="#000" stroke-width="2" d="M24.878 11.698l2.774 5.087.046.085c.17.317.389.721.761.992.373.27.825.353 1.18.418l.095.017 5.694 1.067c.829.155 1.337.253 1.67.368l.019.006-.011.016c-.203.29-.556.667-1.135 1.28l-3.98 4.21-.067.07c-.249.26-.566.592-.708 1.03-.143.439-.082.894-.033 1.25l.012.097.746 5.745c.109.836.172 1.35.166 1.703v.019l-.019-.006c-.338-.103-.806-.322-1.568-.684l-5.233-2.484a12.27 12.27 0 01-.088-.042c-.324-.156-.738-.355-1.199-.355-.46 0-.875.199-1.2.355l-.087.042-5.233 2.484c-.762.362-1.23.581-1.568.684l-.019.006v-.02c-.006-.352.057-.866.166-1.702l.746-5.745.012-.096c.049-.357.11-.812-.033-1.25-.142-.439-.46-.77-.708-1.031l-.067-.07-3.98-4.21c-.579-.613-.932-.99-1.135-1.28a2.477 2.477 0 01-.01-.016l.017-.006c.334-.115.842-.213 1.67-.368l5.696-1.067a13.8 13.8 0 01.095-.017c.354-.065.806-.147 1.179-.418.372-.27.59-.675.761-.992l.046-.085 2.774-5.087c.404-.74.654-1.193.866-1.475l.012-.015.012.015c.212.282.462.735.866 1.475zm12.432 8.127a.04.04 0 01-.006-.005.027.027 0 01.006.005zm-.09-.263a.03.03 0 01.002-.008l-.002.008zm-5.136 15.806l.002-.007a.028.028 0 01-.002.008zm.222-.167h0zm-16.62 0h.008-.008zm.228.16a.033.033 0 01.002.008l-.002-.008zm-5.136-15.807l.002.008a.033.033 0 01-.002-.008zm-.082.266a.04.04 0 01-.006.005l.006-.005zm13.446-9.769l-.006.005a.033.033 0 01.006-.005zm-.278.005a.032.032 0 01-.006-.005l.006.005z"/>
</svg>
