<svg width="48" height="48" viewBox="0 0 48 48" fill="none" xmlns="http://www.w3.org/2000/svg">
<path fill-rule="evenodd" clip-rule="evenodd" d="M39.8577 18.2295L24.5878 7.13529C24.3524 6.9642 24.164 6.82748 24.0001 6.71173C23.8361 6.82748 23.6477 6.9642 23.4123 7.13529L8.14236 18.2295C7.90688 18.4006 7.71865 18.5375 7.55789 18.6577C7.61732 18.8494 7.68914 19.0707 7.77909 19.3476L13.6117 37.2984C13.7016 37.5752 13.7736 37.7965 13.8382 37.9866C14.0389 37.9893 14.2717 37.9894 14.5627 37.9894H33.4374C33.7284 37.9894 33.9612 37.9893 34.1619 37.9866C34.2265 37.7965 34.2985 37.5752 34.3884 37.2984L40.221 19.3476C40.311 19.0707 40.3828 18.8494 40.4422 18.6577C40.2814 18.5375 40.0932 18.4006 39.8577 18.2295ZM24 3.47217C23.3502 3.47217 22.7831 3.88419 21.6489 4.70824L6.379 15.8025C5.2448 16.6265 4.6777 17.0385 4.47689 17.6566C4.27608 18.2746 4.49269 18.9413 4.92592 20.2746L10.7585 38.2255C11.1917 39.5588 11.4083 40.2255 11.9341 40.6074C12.4598 40.9894 13.1608 40.9894 14.5627 40.9894H33.4374C34.8393 40.9894 35.5403 40.9894 36.066 40.6074C36.5918 40.2255 36.8084 39.5588 37.2416 38.2255L43.0742 20.2746C43.5074 18.9413 43.724 18.2746 43.5232 17.6566C43.3224 17.0385 42.7553 16.6265 41.6211 15.8025L26.3512 4.70824C25.217 3.88419 24.6499 3.47217 24 3.47217Z" fill="black"/>
</svg>
