<svg width="48" height="48" viewBox="0 0 48 48" fill="none" xmlns="http://www.w3.org/2000/svg">
<path d="M25.2836 40.9701C24.6581 41.4607 24.3453 41.7059 24 41.7059C23.6546 41.7059 23.3419 41.4607 22.7164 40.9701C15.0179 34.9327 3 27.5646 3 16.9955C3 10.8869 7.94118 6 14.1176 6C17.9981 6 20.5732 7.64948 22.4543 9.40993C23.2215 10.1279 23.6051 10.4869 24 10.4869C24.3949 10.4869 24.7785 10.1279 25.5457 9.40994C27.4268 7.64949 30.0019 6 33.8824 6C40.0588 6 45 10.8869 45 16.9955C45 27.5646 32.9821 34.9327 25.2836 40.9701Z" fill="black"/>
</svg>
