<svg xmlns="http://www.w3.org/2000/svg" width="48" height="48" fill="none" viewBox="0 0 48 48">
  <rect width="38" height="38" x="5" y="5" fill="#000" opacity=".2" rx="4"/>
  <path stroke="#000" stroke-width="2" d="M25.5 12.02l8.124 4.691c.505.292.821.476 1.05.64.21.15.278.238.316.304.038.066.08.169.106.426.027.28.028.645.028 1.228v9.382c0 .583 0 .948-.028 1.228-.026.257-.068.36-.106.426-.038.066-.106.154-.317.305-.228.164-.544.347-1.049.639l-8.124 4.69c-.505.292-.822.474-1.078.59-.236.106-.346.122-.422.122-.076 0-.186-.016-.422-.123-.256-.115-.573-.297-1.078-.589l-8.124-4.69c-.505-.292-.821-.476-1.05-.64-.21-.15-.278-.238-.316-.304-.038-.066-.08-.169-.106-.426-.027-.28-.028-.645-.028-1.228v-9.382c0-.583 0-.948.028-1.228.026-.257.068-.36.106-.426.038-.066.106-.154.317-.305.228-.164.544-.347 1.049-.639l8.124-4.69c.505-.292.822-.474 1.078-.59.236-.106.346-.122.422-.122.076 0 .186.016.422.123.256.115.573.297 1.078.589z"/>
</svg>
