<svg xmlns="http://www.w3.org/2000/svg" width="48" height="48" fill="none" viewBox="0 0 48 48">
  <path fill="#000" d="M22.285 4.862C23.05 3.584 23.433 2.945 24 2.945c.567 0 .95.639 1.715 1.917l6.272 10.463c.128.214.192.321.28.408.087.087.194.152.407.28l10.464 6.272c1.278.765 1.917 1.148 1.917 1.715 0 .567-.639.95-1.917 1.715l-10.463 6.272c-.214.128-.321.192-.408.28-.088.087-.152.194-.28.407l-6.272 10.464c-.765 1.278-1.148 1.917-1.715 1.917-.567 0-.95-.639-1.715-1.917l-6.272-10.463c-.128-.214-.193-.321-.28-.408-.087-.088-.194-.152-.408-.28L4.863 25.715C3.584 24.95 2.945 24.567 2.945 24c0-.567.639-.95 1.917-1.715l10.463-6.272c.214-.128.321-.193.408-.28.087-.087.152-.194.28-.408l6.272-10.463z"/>
</svg>
