<svg width="48" height="48" viewBox="0 0 48 48" fill="none" xmlns="http://www.w3.org/2000/svg">
<path fill-rule="evenodd" clip-rule="evenodd" d="M23.9996 8.26578L20.2344 15.1698C20.2269 15.1834 20.2169 15.2028 20.2043 15.2272C20.0687 15.4898 19.6308 16.3376 18.8465 16.9074C18.0622 17.4772 17.1206 17.6317 16.8289 17.6796C16.8018 17.684 16.7803 17.6875 16.7651 17.6904L9.03542 19.1379L14.438 24.8523C14.4487 24.8636 14.464 24.8791 14.4833 24.8986C14.6912 25.1088 15.3622 25.7872 15.6617 26.7092C15.9613 27.6312 15.8172 28.5744 15.7726 28.8666C15.7684 28.8938 15.7652 28.9153 15.7632 28.9307L14.7512 36.7293L21.8554 33.357C21.8694 33.3504 21.8889 33.3406 21.9135 33.3282C22.1776 33.1955 23.0302 32.767 23.9996 32.767C24.969 32.767 25.8216 33.1955 26.0857 33.3282C26.1103 33.3406 26.1297 33.3504 26.1437 33.357L33.248 36.7293L32.236 28.9307C32.234 28.9153 32.2307 28.8938 32.2266 28.8666C32.1819 28.5744 32.0379 27.6311 32.3375 26.7092C32.637 25.7872 33.308 25.1088 33.5159 24.8986C33.5352 24.8791 33.5505 24.8636 33.5612 24.8523L38.9638 19.1379L31.2341 17.6904C31.2189 17.6875 31.1974 17.684 31.1703 17.6796C30.8785 17.6317 29.9369 17.4772 29.1527 16.9074C28.3684 16.3376 27.9305 15.4898 27.7949 15.2272C27.7822 15.2028 27.7723 15.1834 27.7648 15.1698L23.9996 8.26578ZM42.1525 19.7684C42.1653 19.7728 42.1638 19.773 42.1505 19.7677C42.1512 19.768 42.1518 19.7682 42.1525 19.7684ZM41.1717 16.7552C41.1793 16.7432 41.1807 16.7424 41.1729 16.7535C41.1725 16.7541 41.1721 16.7547 41.1717 16.7552ZM33.6337 39.9568C33.6334 39.9704 33.6328 39.969 33.6337 39.9547L33.6337 39.9568ZM36.1963 38.0929C36.2101 38.0965 36.2113 38.0975 36.1983 38.0935C36.1976 38.0933 36.197 38.0931 36.1963 38.0929ZM11.8009 38.0935C11.7879 38.0975 11.7891 38.0965 11.8029 38.0929C11.8022 38.0931 11.8015 38.0933 11.8009 38.0935ZM14.3655 39.9547C14.3664 39.969 14.3658 39.9704 14.3655 39.9568L14.3655 39.9547ZM6.8263 16.7535C6.81851 16.7424 6.81983 16.7432 6.82751 16.7552C6.8271 16.7546 6.82669 16.7541 6.8263 16.7535ZM5.84871 19.7677C5.8354 19.773 5.83385 19.7728 5.84671 19.7684C5.84736 19.7682 5.84802 19.768 5.84871 19.7677ZM25.5833 5.42966C25.5838 5.42908 25.5842 5.42852 25.5846 5.42798C25.5928 5.41712 25.5924 5.41863 25.5833 5.42966ZM22.4158 5.42965C22.4067 5.41863 22.4064 5.41712 22.4146 5.42798C22.415 5.42852 22.4154 5.42908 22.4158 5.42965ZM23.9996 3.08862C23.4059 3.08862 23.0185 3.79895 22.2437 5.21961L17.6006 13.7334C17.3771 14.1431 17.2654 14.348 17.0832 14.4804C16.9009 14.6128 16.6715 14.6558 16.2129 14.7417L6.68093 16.5267C5.09038 16.8245 4.29511 16.9734 4.11165 17.5381C3.92819 18.1027 4.48405 18.6906 5.59575 19.8665L12.258 26.9133C12.5786 27.2524 12.7389 27.422 12.8086 27.6362C12.8782 27.8505 12.8482 28.0819 12.7881 28.5447L11.5402 38.1617C11.332 39.7664 11.2279 40.5688 11.7082 40.9177C12.1885 41.2667 12.9194 40.9197 14.3813 40.2258L23.1419 36.0672C23.5635 35.867 23.7743 35.767 23.9996 35.767C24.2249 35.767 24.4357 35.867 24.8573 36.0672L33.618 40.2258C35.0798 40.9197 35.8107 41.2667 36.291 40.9177C36.7713 40.5688 36.6672 39.7664 36.459 38.1617L35.2111 28.5447C35.151 28.0819 35.121 27.8505 35.1906 27.6362C35.2602 27.422 35.4205 27.2524 35.7411 26.9133L42.4034 19.8665C43.5151 18.6906 44.071 18.1027 43.8875 17.5381C43.7041 16.9734 42.9088 16.8245 41.3182 16.5267L31.7863 14.7417C31.3276 14.6558 31.0983 14.6128 30.916 14.4804C30.7338 14.348 30.622 14.1431 30.3986 13.7334L25.7554 5.21961C24.9807 3.79895 24.5933 3.08862 23.9996 3.08862Z" fill="black"/>
</svg>
