<svg xmlns="http://www.w3.org/2000/svg" width="48" height="48" fill="none" viewBox="0 0 48 48">
  <rect width="38" height="38" x="5" y="5" fill="#000" opacity=".2" rx="4"/>
  <path stroke="#000" stroke-width="2" d="M25.763 12.517l8.613 6.258c.586.425.956.696 1.213.932.237.218.298.336.326.422.028.085.048.217-.016.533-.07.341-.21.778-.433 1.467l-3.29 10.124c-.224.689-.367 1.125-.512 1.442-.134.293-.228.387-.3.44-.073.053-.192.113-.512.15-.346.04-.805.041-1.53.041H18.678c-.724 0-1.183-.001-1.529-.041-.32-.037-.439-.097-.512-.15-.072-.053-.166-.147-.3-.44-.145-.317-.288-.753-.512-1.442l-3.29-10.124c-.224-.689-.364-1.126-.433-1.467-.064-.316-.044-.448-.016-.533.028-.086.089-.204.326-.422.257-.236.627-.507 1.213-.932l8.613-6.258c.586-.425.958-.694 1.26-.865.282-.159.413-.18.503-.18.09 0 .221.021.502.18.303.171.675.44 1.261.865z"/>
</svg>
