<svg xmlns="http://www.w3.org/2000/svg" width="48" height="48" fill="none" viewBox="0 0 48 48">
  <path fill="#000" d="M22.141 5.677c.787-1.98 1.18-2.97 1.859-2.97s1.072.99 1.859 2.97l2.046 5.148c.357.9.536 1.35.926 1.511.39.162.835-.03 1.724-.413l5.087-2.194c1.956-.843 2.934-1.265 3.414-.785.48.48.058 1.458-.785 3.414l-2.194 5.087c-.383.889-.575 1.333-.413 1.724.162.39.611.569 1.511.926l5.148 2.046c1.98.787 2.97 1.18 2.97 1.859s-.99 1.072-2.97 1.859l-5.148 2.046c-.9.357-1.35.536-1.511.926-.162.39.03.835.413 1.724l2.194 5.087c.843 1.956 1.265 2.934.785 3.414-.48.48-1.458.058-3.414-.785l-5.087-2.194c-.889-.383-1.333-.575-1.724-.413-.39.162-.569.611-.926 1.511l-2.046 5.148c-.787 1.98-1.18 2.97-1.859 2.97s-1.072-.99-1.859-2.97l-2.046-5.148c-.357-.9-.536-1.35-.926-1.511-.39-.162-.835.03-1.724.413l-5.087 2.194c-1.956.843-2.934 1.265-3.414.785-.48-.48-.058-1.458.785-3.414l2.194-5.087c.383-.889.575-1.333.413-1.724-.162-.39-.611-.569-1.511-.926l-5.148-2.046c-1.98-.787-2.97-1.18-2.97-1.859s.99-1.072 2.97-1.859l5.148-2.046c.9-.357 1.35-.536 1.511-.926.162-.39-.03-.835-.413-1.724l-2.194-5.087c-.843-1.956-1.265-2.934-.785-3.414.48-.48 1.458-.058 3.414.785l5.087 2.194c.889.383 1.333.575 1.724.413.39-.162.569-.611.926-1.511l2.046-5.148z"/>
</svg>
