<svg xmlns="http://www.w3.org/2000/svg" width="48" height="48" fill="none" viewBox="0 0 48 48">
  <path stroke="#000" stroke-width="3" d="M25.25 5.454l14.187 8.19c.513.297.804.466 1.007.613a1.234 1.234 0 01.174.145l.002.003v.002l.003.007c.002.003.003.009.005.016.008.03.021.089.032.2.025.25.027.587.027 1.18v16.38c0 .593-.002.93-.027 1.18a1.231 1.231 0 01-.04.223v.002l-.002.003a1.234 1.234 0 01-.174.146c-.203.145-.494.315-1.007.612l-14.187 8.19c-.513.297-.806.464-1.034.567a1.22 1.22 0 01-.213.077h-.006-.003l-.02-.005a1.22 1.22 0 01-.19-.072c-.228-.103-.52-.27-1.034-.567l-14.187-8.19c-.513-.297-.804-.467-1.007-.613a1.23 1.23 0 01-.174-.145l-.002-.003v-.002a1.226 1.226 0 01-.04-.223c-.025-.25-.027-.587-.027-1.18V15.81c0-.593.002-.93.027-1.18a1.226 1.226 0 01.04-.223v-.002l.002-.003a1.23 1.23 0 01.174-.146c.203-.146.494-.315 1.007-.612l14.187-8.19c.513-.297.806-.464 1.034-.567a1.23 1.23 0 01.213-.077h.006a1.23 1.23 0 01.213.077c.228.103.52.27 1.034.567z"/>
</svg>
