<svg width="48" height="48" viewBox="0 0 48 48" fill="none" xmlns="http://www.w3.org/2000/svg">
<g id="biz-money/tag-simple">
<rect id="Rectangle 37" opacity="0.2" x="5" y="5" width="38" height="38" rx="4" fill="black"/>
<mask id="mask0_45:376" style="mask-type:alpha" maskUnits="userSpaceOnUse" x="5" y="5" width="38" height="38">
<rect id="Rectangle 114" x="5" y="5" width="38" height="38" rx="4" fill="#9FA4A9"/>
</mask>
<g mask="url(#mask0_45:376)">
<g id="Group 30">
<circle id="Ellipse 46" opacity="0.2" cx="32.3345" cy="16.0208" r="2" transform="rotate(45 32.3345 16.0208)" fill="black"/>
<path id="Subtract" fill-rule="evenodd" clip-rule="evenodd" d="M25.5061 11.7782C24.4453 11.7782 23.4278 12.1996 22.6777 12.9497L10.4142 25.2132C9.63319 25.9943 9.63319 27.2606 10.4142 28.0416L20.3137 37.9411C21.0948 38.7222 22.3611 38.7222 23.1422 37.9411L35.4056 25.6777C36.1558 24.9275 36.5772 23.9101 36.5772 22.8492L36.5772 13.7782C36.5772 12.6736 35.6818 11.7782 34.5772 11.7782L25.5061 11.7782ZM30.9203 14.6066C30.1393 15.3877 30.1393 16.654 30.9203 17.435C31.7014 18.2161 32.9677 18.2161 33.7488 17.435C34.5298 16.654 34.5298 15.3877 33.7488 14.6066C32.9677 13.8256 31.7014 13.8256 30.9203 14.6066Z" fill="black"/>
</g>
</g>
</g>
</svg>
