<svg width="48" height="48" viewBox="0 0 48 48" fill="none" xmlns="http://www.w3.org/2000/svg">
<rect opacity="0.2" width="48" height="48" rx="8" fill="#9FA4A9"/>
<mask id="mask0_85:2" style="mask-type:alpha" maskUnits="userSpaceOnUse" x="0" y="0" width="48" height="48">
<rect width="48" height="48" rx="8" fill="#9FA4A9"/>
</mask>
<g mask="url(#mask0_85:2)">
<circle opacity="0.2" cx="34.5279" cy="13.921" r="2.52632" transform="rotate(45 34.5279 13.921)" fill="#9FA4A9"/>
<path fill-rule="evenodd" clip-rule="evenodd" d="M25.4665 8.56191C24.4057 8.56191 23.3882 8.98334 22.6381 9.73348L6.46695 25.9046C5.6859 26.6857 5.6859 27.952 6.46695 28.7331L19.7159 41.982C20.4969 42.7631 21.7633 42.7631 22.5443 41.982L38.7155 25.8109C39.4656 25.0607 39.887 24.0433 39.887 22.9824L39.887 10.5619C39.887 9.45734 38.9916 8.56191 37.887 8.56191L25.4665 8.56191ZM32.7415 15.7074C33.7281 16.694 35.3277 16.694 36.3142 15.7074C37.3008 14.7208 37.3008 13.1212 36.3142 12.1347C35.3277 11.1481 33.7281 11.1481 32.7415 12.1347C31.7549 13.1212 31.7549 14.7208 32.7415 15.7074Z" fill="#9FA4A9"/>
</g>
</svg>
