<svg width="48" height="48" viewBox="0 0 48 48" fill="none" xmlns="http://www.w3.org/2000/svg">
<rect opacity="0.2" x="5" y="5" width="38" height="38" rx="4" fill="black"/>
<path fill-rule="evenodd" clip-rule="evenodd" d="M30 14H18C16.0013 14 14.9047 14.0085 14.1439 14.1108C14.134 14.1121 14.1243 14.1134 14.1148 14.1148C14.1134 14.1243 14.1121 14.134 14.1108 14.1439C14.0085 14.9047 14 16.0013 14 18V30C14 31.9987 14.0085 33.0953 14.1108 33.8561C14.1121 33.866 14.1134 33.8757 14.1148 33.8852C14.1243 33.8866 14.134 33.8879 14.1439 33.8892C14.9047 33.9915 16.0013 34 18 34H30C31.9987 34 33.0953 33.9915 33.8561 33.8892C33.866 33.8879 33.8757 33.8866 33.8852 33.8852C33.8866 33.8757 33.8879 33.866 33.8892 33.8561C33.9915 33.0953 34 31.9987 34 30V18C34 16.0013 33.9915 14.9047 33.8892 14.1439C33.8879 14.134 33.8866 14.1243 33.8852 14.1148C33.8757 14.1134 33.866 14.1121 33.8561 14.1108C33.0953 14.0085 31.9987 14 30 14ZM34.2763 14.1936C34.2762 14.1936 34.275 14.1932 34.2726 14.1923C34.2751 14.1931 34.2763 14.1936 34.2763 14.1936ZM33.8077 13.7274C33.8068 13.725 33.8064 13.7238 33.8064 13.7237C33.8064 13.7237 33.8069 13.7249 33.8077 13.7274ZM33.8064 34.2763C33.8064 34.2762 33.8068 34.275 33.8077 34.2726C33.8069 34.2751 33.8064 34.2763 33.8064 34.2763ZM34.2726 33.8077C34.275 33.8068 34.2762 33.8064 34.2763 33.8064C34.2763 33.8064 34.2751 33.8069 34.2726 33.8077ZM13.7237 33.8064C13.7238 33.8064 13.725 33.8068 13.7274 33.8077C13.7249 33.8069 13.7237 33.8064 13.7237 33.8064ZM14.1923 34.2726C14.1932 34.275 14.1936 34.2762 14.1936 34.2763C14.1936 34.2763 14.1931 34.2751 14.1923 34.2726ZM14.1936 13.7237C14.1936 13.7238 14.1932 13.725 14.1923 13.7274C14.1931 13.7249 14.1936 13.7237 14.1936 13.7237ZM13.7274 14.1923C13.725 14.1932 13.7238 14.1936 13.7237 14.1936C13.7237 14.1936 13.7249 14.1931 13.7274 14.1923ZM11.1716 11.1716C10 12.3431 10 14.2288 10 18V30C10 33.7712 10 35.6569 11.1716 36.8284C12.3431 38 14.2288 38 18 38H30C33.7712 38 35.6569 38 36.8284 36.8284C38 35.6569 38 33.7712 38 30V18C38 14.2288 38 12.3431 36.8284 11.1716C35.6569 10 33.7712 10 30 10H18C14.2288 10 12.3431 10 11.1716 11.1716Z" fill="black"/>
<path d="M10 27H14.047C15.3018 27 15.9292 27 16.4247 27.3202C16.9202 27.6403 17.178 28.2123 17.6937 29.3563L17.78 29.5479C18.2957 30.6919 18.5535 31.2638 19.049 31.584C19.5445 31.9042 20.1719 31.9042 21.4267 31.9042H26.8951C28.0003 31.9042 28.553 31.9042 29.0112 31.6449C29.4695 31.3857 29.7542 30.912 30.3235 29.9647L30.9396 28.9395C31.509 27.9922 31.7937 27.5185 32.2519 27.2592C32.7102 27 33.2628 27 34.3681 27H38V30C38 33.7712 38 35.6569 36.8284 36.8284C35.6569 38 33.7712 38 30 38H18C14.2288 38 12.3431 38 11.1716 36.8284C10 35.6569 10 33.7712 10 30V27Z" fill="black"/>
</svg>
