<svg width="48" height="48" viewBox="0 0 48 48" fill="none" xmlns="http://www.w3.org/2000/svg">
<rect opacity="0.2" x="5" y="5" width="38" height="38" rx="6" fill="black"/>
<g opacity="0.2">
<path d="M5 33.5C5 31.567 6.567 30 8.5 30H39.5C41.433 30 43 31.567 43 33.5C43 35.433 41.433 37 39.5 37H8.5C6.567 37 5 35.433 5 33.5Z" fill="black"/>
<path fill-rule="evenodd" clip-rule="evenodd" d="M39.5 32H8.5C7.67157 32 7 32.6716 7 33.5C7 34.3284 7.67157 35 8.5 35H39.5C40.3284 35 41 34.3284 41 33.5C41 32.6716 40.3284 32 39.5 32ZM8.5 30C6.567 30 5 31.567 5 33.5C5 35.433 6.567 37 8.5 37H39.5C41.433 37 43 35.433 43 33.5C43 31.567 41.433 30 39.5 30H8.5Z" fill="black"/>
</g>
<path fill-rule="evenodd" clip-rule="evenodd" d="M35 9H13C11.0013 9 9.90467 9.00849 9.1439 9.11078C9.13399 9.11211 9.12428 9.11344 9.11477 9.11477C9.11344 9.12428 9.11211 9.13399 9.11078 9.1439C9.00849 9.90467 9 11.0013 9 13V35C9 36.9987 9.00849 38.0953 9.11078 38.8561C9.11211 38.866 9.11344 38.8757 9.11477 38.8852C9.12428 38.8866 9.13399 38.8879 9.1439 38.8892C9.90467 38.9915 11.0013 39 13 39H35C36.9987 39 38.0953 38.9915 38.8561 38.8892C38.866 38.8879 38.8757 38.8866 38.8852 38.8852C38.8866 38.8757 38.8879 38.866 38.8892 38.8561C38.9915 38.0953 39 36.9987 39 35V13C39 11.0013 38.9915 9.90467 38.8892 9.1439C38.8879 9.13399 38.8866 9.12428 38.8852 9.11477C38.8757 9.11344 38.866 9.11211 38.8561 9.11078C38.0953 9.00849 36.9987 9 35 9ZM39.2763 9.19362C39.2762 9.19363 39.275 9.1932 39.2726 9.19227C39.2751 9.19314 39.2763 9.1936 39.2763 9.19362ZM38.8077 8.72738C38.8068 8.72502 38.8064 8.72378 38.8064 8.72374C38.8064 8.72371 38.8069 8.7249 38.8077 8.72738ZM38.8064 39.2763C38.8064 39.2762 38.8068 39.275 38.8077 39.2726C38.8069 39.2751 38.8064 39.2763 38.8064 39.2763ZM39.2726 38.8077C39.275 38.8068 39.2762 38.8064 39.2763 38.8064C39.2763 38.8064 39.2751 38.8069 39.2726 38.8077ZM8.72374 38.8064C8.72378 38.8064 8.72501 38.8068 8.72737 38.8077C8.72489 38.8069 8.72371 38.8064 8.72374 38.8064ZM9.19227 39.2726C9.1932 39.275 9.19363 39.2762 9.19362 39.2763C9.1936 39.2763 9.19313 39.2751 9.19227 39.2726ZM9.19362 8.72374C9.19363 8.72378 9.1932 8.72502 9.19228 8.72737C9.19314 8.72489 9.1936 8.72371 9.19362 8.72374ZM8.72738 9.19227C8.72502 9.1932 8.72378 9.19363 8.72374 9.19362C8.72371 9.1936 8.72489 9.19314 8.72738 9.19227ZM6.17157 6.17157C5 7.34315 5 9.22876 5 13V35C5 38.7712 5 40.6569 6.17157 41.8284C7.34315 43 9.22876 43 13 43H35C38.7712 43 40.6569 43 41.8284 41.8284C43 40.6569 43 38.7712 43 35V13C43 9.22876 43 7.34315 41.8284 6.17157C40.6569 5 38.7712 5 35 5H13C9.22876 5 7.34315 5 6.17157 6.17157Z" fill="black"/>
<path d="M5 28H11.4103C12.6675 28 13.2961 28 13.7921 28.3211C14.2881 28.6423 14.5454 29.2158 15.0599 30.3628L15.9401 32.3247C16.4546 33.4717 16.7119 34.0452 17.2079 34.3664C17.7039 34.6875 18.3325 34.6875 19.5897 34.6875H28.7316C29.8395 34.6875 30.3934 34.6875 30.8524 34.4272C31.3114 34.1669 31.5957 33.6915 32.1644 32.7408L33.8356 29.9467C34.4043 28.9959 34.6886 28.5206 35.1476 28.2603C35.6066 28 36.1605 28 37.2684 28H43V35C43 38.7712 43 40.6569 41.8284 41.8284C40.6569 43 38.7712 43 35 43H13C9.22876 43 7.34315 43 6.17157 41.8284C5 40.6569 5 38.7712 5 35V28Z" fill="black"/>
</svg>
