<svg xmlns="http://www.w3.org/2000/svg" width="48" height="48" fill="none" viewBox="0 0 48 48">
  <path fill="#000" fill-rule="evenodd" d="M23.007 2.444a1.333 1.333 0 011.986 0l4.998 5.583c.27.302.663.464 1.067.442l7.482-.414a1.333 1.333 0 011.405 1.405l-.414 7.482c-.022.404.14.797.442 1.067l5.583 4.998c.592.53.592 1.456 0 1.986l-5.583 4.998c-.301.27-.464.663-.442 1.067l.414 7.482a1.333 1.333 0 01-1.405 1.405l-7.482-.414a1.333 1.333 0 00-1.067.442l-4.998 5.583a1.333 1.333 0 01-1.986 0l-4.998-5.583a1.333 1.333 0 00-1.067-.442l-7.482.414a1.333 1.333 0 01-1.405-1.405l.414-7.482a1.333 1.333 0 00-.442-1.067l-5.583-4.998a1.333 1.333 0 010-1.986l5.583-4.998c.302-.27.464-.663.442-1.067L8.055 9.46A1.333 1.333 0 019.46 8.055l7.482.414c.404.022.797-.14 1.067-.442l4.998-5.583zM24 34.666c5.89 0 10.666-4.775 10.666-10.666 0-5.89-4.775-10.666-10.666-10.666-5.89 0-10.666 4.775-10.666 10.666 0 5.89 4.775 10.666 10.666 10.666z" clip-rule="evenodd"/>
  <path fill="#000" d="M35 24c0 6.075-4.925 11-11 11s-11-4.925-11-11 4.925-11 11-11 11 4.925 11 11z" opacity=".4"/>
</svg>
