<svg xmlns="http://www.w3.org/2000/svg" width="48" height="48" fill="none" viewBox="0 0 48 48">
  <rect width="38" height="38" x="5" y="5" fill="#000" opacity=".2" rx="4"/>
  <mask id="a" width="38" height="38" x="5" y="5" maskUnits="userSpaceOnUse" style="mask-type:alpha">
    <rect width="38" height="38" x="5" y="5" fill="#CA9D46" rx="4"/>
  </mask>
  <g mask="url(#a)">
    <path fill="#000" fill-rule="evenodd" d="M23.277 8.323a.97.97 0 011.445 0l3.635 4.06a.97.97 0 00.776.322l5.442-.301a.97.97 0 011.021 1.021l-.3 5.442a.97.97 0 00.32.776l4.061 3.634a.97.97 0 010 1.445l-4.06 3.635a.97.97 0 00-.322.776l.301 5.442a.97.97 0 01-1.021 1.021l-5.442-.3a.97.97 0 00-.776.32l-3.635 4.061a.97.97 0 01-1.445 0l-3.634-4.06a.97.97 0 00-.776-.322l-5.442.301a.97.97 0 01-1.021-1.021l.3-5.442a.97.97 0 00-.32-.776l-4.061-3.635a.97.97 0 010-1.445l4.06-3.634a.97.97 0 00.322-.776l-.301-5.442a.97.97 0 011.021-1.021l5.442.3a.97.97 0 00.776-.32l3.634-4.061zM24 31.757a7.757 7.757 0 100-15.514 7.757 7.757 0 000 15.514z" clip-rule="evenodd"/>
    <circle cx="24" cy="24" r="8" fill="#000" opacity=".2"/>
  </g>
</svg>
