<svg xmlns="http://www.w3.org/2000/svg" width="48" height="48" fill="none" viewBox="0 0 48 48">
  <rect width="38" height="38" x="5" y="5" fill="#000" opacity=".2" rx="4"/>
  <path fill="#000" fill-rule="evenodd" d="M32 43a8 8 0 00-8.172-8 8 8 0 00-8 8H32z" clip-rule="evenodd" opacity=".2"/>
  <path fill="#000" fill-rule="evenodd" d="M41.93 41.722l-4.263-3.614a1 1 0 01-.351-.821l.363-6.217a1 1 0 00-1.051-1.057l-6.69.35a1 1 0 01-.779-.312l-4.478-4.738a1 1 0 00-1.453 0l-4.478 4.738a1 1 0 01-.78.312l-6.689-.35a1 1 0 00-1.05 1.057l.362 6.217a1 1 0 01-.351.82l-4.21 3.571c.044.052.09.102.14.15C7.343 43 9.229 43 13 43h3a8 8 0 0116 0h3c3.771 0 5.657 0 6.828-1.172.035-.034.069-.07.102-.106zM25.06 22.06a1.5 1.5 0 01-2.12 0l-4.5-4.5a1.5 1.5 0 012.12-2.12l1.94 1.939V9a1.5 1.5 0 013 0v8.379l1.94-1.94a1.5 1.5 0 012.12 2.122l-4.5 4.5z" clip-rule="evenodd"/>
</svg>
