<svg width="27" height="20" viewBox="0 0 27 20" fill="none" xmlns="http://www.w3.org/2000/svg">
<path d="M26.9141 2.36749C25.9575 2.76913 24.9293 3.04045 23.8505 3.16252C24.9517 2.53767 25.7976 1.54822 26.1958 0.369154C25.165 0.947859 24.0235 1.36795 22.8084 1.59436C21.8355 0.613037 20.4492 0 18.9149 0C15.9691 0 13.5806 2.26056 13.5806 5.04888C13.5806 5.44461 13.6278 5.83001 13.7188 6.19953C9.28551 5.98899 5.35509 3.97883 2.72414 0.924108C2.26498 1.66979 2.00186 2.53705 2.00186 3.46239C2.00186 5.21414 2.94358 6.75953 4.37488 7.66493C3.5005 7.63872 2.67799 7.41157 1.95883 7.03344C1.95822 7.05448 1.95822 7.07564 1.95822 7.09693C1.95822 9.54317 3.79695 11.5837 6.23718 12.0479C5.78959 12.1633 5.31834 12.2249 4.83188 12.2249C4.48816 12.2249 4.15406 12.1932 3.82828 12.1344C4.50714 14.1402 6.47703 15.6 8.81132 15.6406C6.98572 16.9949 4.68576 17.8021 2.18651 17.8021C1.75594 17.8021 1.33136 17.7781 0.914062 17.7314C3.27474 19.1641 6.07858 20 9.09095 20C18.9025 20 24.268 12.3065 24.268 5.63423C24.268 5.41532 24.2627 5.19765 24.2525 4.98096C25.2946 4.26923 26.1988 3.38007 26.914 2.36749H26.9141Z" fill="black"/>
</svg>
