<svg width="48" height="48" viewBox="0 0 48 48" fill="none" xmlns="http://www.w3.org/2000/svg">
<g id="date-events/view-year">
<rect id="Rectangle 18" opacity="0.2" x="5" y="5" width="38" height="38" rx="4" fill="black"/>
<g id="Group 2">
<rect id="Rectangle 33" x="46" y="8" width="6" height="44" rx="1" transform="rotate(90 46 8)" fill="black"/>
</g>
<g id="Group 3" opacity="0.6">
<rect id="Rectangle 29" x="30" y="18" width="4" height="4" rx="1" transform="rotate(90 30 18)" fill="black"/>
<rect id="Rectangle 30" x="22" y="18" width="4" height="4" rx="1" transform="rotate(90 22 18)" fill="black"/>
<rect id="Rectangle 31" x="14" y="18" width="4" height="4" rx="1" transform="rotate(90 14 18)" fill="black"/>
<rect id="Rectangle 33_2" x="38" y="18" width="4" height="4" rx="1" transform="rotate(90 38 18)" fill="black"/>
</g>
<g id="Group 4" opacity="0.6">
<rect id="Rectangle 29_2" x="30" y="26" width="4" height="4" rx="1" transform="rotate(90 30 26)" fill="black"/>
<rect id="Rectangle 30_2" x="22" y="26" width="4" height="4" rx="1" transform="rotate(90 22 26)" fill="black"/>
<rect id="Rectangle 31_2" x="14" y="26" width="4" height="4" rx="1" transform="rotate(90 14 26)" fill="black"/>
<rect id="Rectangle 33_3" x="38" y="26" width="4" height="4" rx="1" transform="rotate(90 38 26)" fill="black"/>
</g>
<g id="Group 5" opacity="0.6">
<rect id="Rectangle 29_3" x="30" y="34" width="4" height="4" rx="1" transform="rotate(90 30 34)" fill="black"/>
<rect id="Rectangle 32" x="38" y="34" width="4" height="4" rx="1" transform="rotate(90 38 34)" fill="black"/>
<rect id="Rectangle 30_3" x="22" y="34" width="4" height="4" rx="1" transform="rotate(90 22 34)" fill="black"/>
<rect id="Rectangle 31_3" x="14" y="34" width="4" height="4" rx="1" transform="rotate(90 14 34)" fill="black"/>
</g>
</g>
</svg>
