<svg xmlns="http://www.w3.org/2000/svg" width="48" height="48" fill="none" viewBox="0 0 48 48">
  <rect width="38" height="38" x="5" y="5" fill="#000" opacity=".2" rx="4"/>
  <path fill="#000" d="M5 13c0-3.771 0-5.657 1.172-6.828C7.343 5 9.229 5 13 5h22c3.771 0 5.657 0 6.828 1.172C43 7.343 43 9.229 43 13v2H5v-2zM9.946 38h12.443v-3.017h-7.33v-.12l2.549-2.496c3.588-3.273 4.551-4.91 4.551-6.895 0-3.026-2.471-5.165-6.213-5.165-3.665 0-6.179 2.19-6.17 5.616h3.502c-.008-1.67 1.049-2.693 2.643-2.693 1.534 0 2.676.955 2.676 2.489 0 1.389-.853 2.343-2.438 3.87L9.946 35.34V38zm21.569.239c3.92 0 6.724-2.157 6.716-5.14.008-2.173-1.372-3.724-3.938-4.048v-.136c1.952-.35 3.299-1.73 3.29-3.69.009-2.753-2.403-4.918-6.017-4.918-3.58 0-6.273 2.096-6.324 5.114h3.537c.043-1.33 1.262-2.19 2.77-2.19 1.492 0 2.489.902 2.48 2.215.009 1.372-1.159 2.301-2.838 2.301h-1.628v2.71h1.628c1.977 0 3.213.989 3.205 2.395.008 1.39-1.185 2.344-2.873 2.344-1.627 0-2.846-.852-2.914-2.13h-3.716c.06 3.05 2.787 5.173 6.622 5.173z"/>
</svg>
