<svg xmlns="http://www.w3.org/2000/svg" width="48" height="48" fill="none" viewBox="0 0 48 48">
  <rect width="38" height="38" x="5" y="5" fill="#000" opacity=".2" rx="4"/>
  <path fill="#000" d="M5 13c0-3.771 0-5.657 1.172-6.828C7.343 5 9.229 5 13 5h22c3.771 0 5.657 0 6.828 1.172C43 7.343 43 9.229 43 13v2H5v-2zM9.91 38h12.444v-3.017h-7.33v-.12l2.549-2.496c3.588-3.273 4.55-4.91 4.55-6.895 0-3.026-2.47-5.165-6.212-5.165-3.665 0-6.18 2.19-6.17 5.616h3.502c-.008-1.67 1.048-2.693 2.642-2.693 1.534 0 2.676.955 2.676 2.489 0 1.389-.852 2.343-2.437 3.87L9.91 35.34V38zm14.479-3.068h8.378V38h3.528v-3.068h2.165v-2.958h-2.165V20.546h-4.62l-7.286 11.48v2.906zm8.446-2.958h-4.73v-.136l4.594-7.27h.136v7.406z"/>
</svg>
