<svg xmlns="http://www.w3.org/2000/svg" width="48" height="48" fill="none" viewBox="0 0 48 48">
  <rect width="40" height="40" x="4" y="6" fill="#000" opacity=".2" rx="4"/>
  <path fill="#000" d="M15.13 41.278c4.574 0 7.846-2.515 7.836-5.995.01-2.536-1.6-4.346-4.594-4.723v-.16c2.277-.407 3.848-2.018 3.838-4.305.01-3.211-2.804-5.737-7.02-5.737-4.176 0-7.318 2.446-7.377 5.966h4.126c.05-1.551 1.472-2.556 3.232-2.556 1.74 0 2.903 1.054 2.893 2.586.01 1.6-1.352 2.684-3.311 2.684h-1.9V32.2h1.9c2.307 0 3.748 1.154 3.738 2.794.01 1.621-1.382 2.735-3.35 2.735-1.9 0-3.321-.995-3.4-2.486H7.404c.07 3.56 3.251 6.035 7.726 6.035zM26.06 41h14.518v-3.52h-8.551v-.14L35 34.429c4.186-3.819 5.31-5.728 5.31-8.044 0-3.53-2.884-6.026-7.25-6.026-4.275 0-7.208 2.555-7.198 6.552h4.087c-.01-1.948 1.223-3.142 3.082-3.142 1.79 0 3.122 1.114 3.122 2.904 0 1.62-.994 2.734-2.844 4.514l-7.248 6.712V41z"/>
  <g opacity=".4">
    <path fill="#000" d="M10 4a2 2 0 114 0v4a2 2 0 11-4 0V4zM34 4a2 2 0 114 0v4a2 2 0 11-4 0V4z"/>
  </g>
  <path fill="#000" fill-rule="evenodd" d="M10 6.009c-2.48.036-3.885.22-4.828 1.163C4 8.343 4 10.229 4 14v2h40v-2c0-3.771 0-5.657-1.172-6.828-.943-.944-2.348-1.127-4.828-1.163V8a2 2 0 11-4 0V6H14v2a2 2 0 11-4 0V6.009z" clip-rule="evenodd"/>
</svg>
