<svg xmlns="http://www.w3.org/2000/svg" width="48" height="48" fill="none" viewBox="0 0 48 48">
  <rect width="38" height="38" x="5" y="5" fill="#000" opacity=".2" rx="4"/>
  <path fill="#000" d="M5 13c0-3.771 0-5.657 1.172-6.828C7.343 5 9.229 5 13 5h22c3.771 0 5.657 0 6.828 1.172C43 7.343 43 9.229 43 13v2H5v-2zM16.222 38.239c3.92 0 6.724-2.157 6.716-5.14.008-2.173-1.372-3.724-3.938-4.048v-.136c1.952-.35 3.299-1.73 3.29-3.69.009-2.753-2.403-4.918-6.017-4.918-3.58 0-6.273 2.096-6.324 5.114h3.537c.043-1.33 1.261-2.19 2.77-2.19 1.491 0 2.489.902 2.48 2.215.009 1.372-1.159 2.301-2.838 2.301H14.27v2.71h1.628c1.977 0 3.213.989 3.205 2.395.008 1.39-1.185 2.344-2.873 2.344-1.627 0-2.846-.852-2.914-2.13H9.6c.06 3.05 2.787 5.173 6.622 5.173zm15.744 0c3.886 0 6.528-2.532 6.52-6.06.008-3.34-2.327-5.744-5.472-5.744-1.534 0-2.855.639-3.469 1.5h-.102l.451-4.372h7.628v-3.017h-10.67l-.827 9.204 3.282.588c.536-.724 1.576-1.176 2.607-1.176 1.756.009 3.017 1.278 3.017 3.11 0 1.816-1.235 3.069-2.965 3.069-1.466 0-2.651-.92-2.736-2.276h-3.58c.068 3.017 2.702 5.174 6.316 5.174z"/>
</svg>
