<svg xmlns="http://www.w3.org/2000/svg" width="48" height="48" fill="none" viewBox="0 0 48 48">
  <g clip-path="url(#clip0_121:843)">
    <rect width="40" height="40" x="4" y="6" fill="#000" opacity=".2" rx="4"/>
    <path fill="#000" d="M6.612 37.42h9.774V41h4.117v-3.58h2.525v-3.45h-2.525V20.636h-5.39L6.612 34.03v3.39zm9.854-3.45h-5.519v-.159l5.36-8.482h.159v8.641zm16.799-13.612c-4.554-.02-7.627 2.963-7.607 7.06.01 3.798 2.645 6.552 6.254 6.552 2.238 0 4.226-1.084 5.131-2.873h.14c-.01 4.036-1.413 6.492-4.068 6.492-1.56 0-2.684-.855-3.012-2.336h-4.246c.398 3.43 3.182 6.025 7.258 6.025 5.042 0 8.293-4.076 8.283-10.987-.01-7.378-3.947-9.913-8.133-9.933zm.03 3.38c1.978 0 3.44 1.611 3.46 3.55.01 1.95-1.532 3.56-3.5 3.56-1.989 0-3.41-1.551-3.42-3.55-.02-1.988 1.46-3.56 3.46-3.56zm-9.299 51.71c5.121 0 8.213-3.898 8.223-10.61.01-6.662-3.122-10.48-8.223-10.48-5.11 0-8.213 3.808-8.223 10.48-.02 6.692 3.093 10.6 8.223 10.61zm0-3.57c-2.336 0-3.848-2.347-3.838-7.04.01-4.623 1.512-6.95 3.838-6.95 2.317 0 3.828 2.327 3.828 6.95.01 4.693-1.501 7.04-3.828 7.04z"/>
    <g opacity=".4">
      <path fill="#000" d="M10 4a2 2 0 114 0v4a2 2 0 11-4 0V4zM34 4a2 2 0 114 0v4a2 2 0 11-4 0V4z"/>
    </g>
    <path fill="#000" fill-rule="evenodd" d="M10 6.009c-2.48.036-3.885.22-4.828 1.163C4 8.343 4 10.229 4 14v2h40v-2c0-3.771 0-5.657-1.172-6.828-.943-.944-2.348-1.127-4.828-1.163V8a2 2 0 11-4 0V6H14v2a2 2 0 11-4 0V6.009z" clip-rule="evenodd"/>
  </g>
  <defs>
    <clipPath id="clip0_121:843">
      <path fill="#fff" d="M0 0h48v48H0z"/>
    </clipPath>
  </defs>
</svg>
