<svg width="48" height="48" viewBox="0 0 48 48" fill="none" xmlns="http://www.w3.org/2000/svg">
<rect opacity="0.2" x="5" y="5" width="38" height="38" rx="4" fill="black"/>
<path d="M5 13C5 9.22876 5 7.34315 6.17157 6.17157C7.34315 5 9.22876 5 13 5H35C38.7712 5 40.6569 5 41.8284 6.17157C43 7.34315 43 9.22876 43 13V15H5V13Z" fill="black"/>
<path d="M19.0046 20.5455H15.5359L11.2148 23.2812V26.554L15.212 24.0483H15.3143V38H19.0046V20.5455ZM22.8888 34.9318H31.2667V38H34.7951V34.9318H36.9599V31.9744H34.7951V20.5455H30.1758L22.8888 32.0256V34.9318ZM31.3349 31.9744H26.6048V31.8381L31.1985 24.5682H31.3349V31.9744Z" fill="black"/>
</svg>
