<svg xmlns="http://www.w3.org/2000/svg" width="48" height="48" fill="none" viewBox="0 0 48 48">
  <rect width="40" height="40" x="4" y="6" fill="#000" opacity=".2" rx="4"/>
  <path fill="#000" d="M18.418 20.636h-4.047l-5.04 3.192v3.818l4.662-2.923h.12V41h4.305V20.636zm12.208-.278c-4.554-.02-7.627 2.963-7.607 7.06.01 3.798 2.645 6.552 6.255 6.552 2.237 0 4.225-1.084 5.13-2.873h.14c-.01 4.036-1.412 6.492-4.067 6.492-1.561 0-2.685-.855-3.013-2.336h-4.246c.398 3.43 3.182 6.025 7.259 6.025 5.04 0 8.292-4.076 8.282-10.987-.01-7.378-3.947-9.913-8.133-9.933zm.03 3.38c1.978 0 3.44 1.611 3.46 3.55.01 1.95-1.531 3.56-3.5 3.56-1.989 0-3.41-1.551-3.42-3.55-.02-1.988 1.461-3.56 3.46-3.56z"/>
  <g opacity=".4">
    <path fill="#000" d="M10 4a2 2 0 114 0v4a2 2 0 11-4 0V4zM34 4a2 2 0 114 0v4a2 2 0 11-4 0V4z"/>
  </g>
  <path fill="#000" fill-rule="evenodd" d="M10 6.009c-2.48.036-3.885.22-4.828 1.163C4 8.343 4 10.229 4 14v2h40v-2c0-3.771 0-5.657-1.172-6.828-.943-.944-2.348-1.127-4.828-1.163V8a2 2 0 11-4 0V6H14v2a2 2 0 11-4 0V6.009z" clip-rule="evenodd"/>
</svg>
