<svg xmlns="http://www.w3.org/2000/svg" width="48" height="48" fill="none" viewBox="0 0 48 48">
  <rect width="38" height="38" x="5" y="5" fill="#000" opacity=".2" rx="4"/>
  <path fill="#000" d="M5 13c0-3.771 0-5.657 1.172-6.828C7.343 5 9.229 5 13 5h22c3.771 0 5.657 0 6.828 1.172C43 7.343 43 9.229 43 13v2H5v-2zM16.046 38.239c3.92 0 6.725-2.157 6.716-5.14.009-2.173-1.372-3.724-3.937-4.048v-.136c1.951-.35 3.298-1.73 3.29-3.69.008-2.753-2.404-4.918-6.018-4.918-3.58 0-6.272 2.096-6.324 5.114h3.537c.043-1.33 1.262-2.19 2.77-2.19 1.492 0 2.489.902 2.48 2.215.009 1.372-1.159 2.301-2.838 2.301h-1.627v2.71h1.627c1.978 0 3.213.989 3.205 2.395.008 1.39-1.185 2.344-2.872 2.344-1.628 0-2.847-.852-2.915-2.13H9.424c.06 3.05 2.787 5.173 6.622 5.173zm15.82 0c3.92 0 6.725-2.157 6.716-5.14.009-2.173-1.372-3.724-3.937-4.048v-.136c1.952-.35 3.298-1.73 3.29-3.69.008-2.753-2.404-4.918-6.017-4.918-3.58 0-6.273 2.096-6.324 5.114h3.537c.042-1.33 1.261-2.19 2.77-2.19 1.491 0 2.488.902 2.48 2.215.008 1.372-1.16 2.301-2.838 2.301h-1.628v2.71h1.628c1.977 0 3.213.989 3.204 2.395.009 1.39-1.184 2.344-2.872 2.344-1.628 0-2.847-.852-2.915-2.13h-3.716c.06 3.05 2.787 5.173 6.622 5.173z"/>
</svg>
