<svg xmlns="http://www.w3.org/2000/svg" width="48" height="48" fill="none" viewBox="0 0 48 48">
  <rect width="40" height="40" x="4" y="6" fill="#000" opacity=".2" rx="4"/>
  <path fill="#000" d="M14.426 41.278c4.534 0 7.616-2.953 7.606-7.07.01-3.897-2.714-6.7-6.383-6.7-1.79 0-3.331.745-4.047 1.75h-.12l.528-5.102h8.899v-3.52H8.46l-.964 10.739 3.828.686c.626-.845 1.84-1.372 3.042-1.372 2.049.01 3.52 1.491 3.52 3.63 0 2.117-1.442 3.579-3.46 3.579-1.71 0-3.092-1.074-3.192-2.655H7.058c.08 3.52 3.152 6.035 7.368 6.035zm18.594.17c5.12 0 8.213-3.898 8.223-10.61.01-6.662-3.122-10.48-8.223-10.48-5.111 0-8.213 3.808-8.223 10.48-.02 6.692 3.092 10.6 8.223 10.61zm0-3.57c-2.337 0-3.848-2.347-3.838-7.04.01-4.623 1.511-6.95 3.838-6.95 2.316 0 3.828 2.326 3.828 6.95.01 4.693-1.502 7.04-3.828 7.04z"/>
  <g opacity=".4">
    <path fill="#000" d="M10 4a2 2 0 114 0v4a2 2 0 11-4 0V4zM34 4a2 2 0 114 0v4a2 2 0 11-4 0V4z"/>
  </g>
  <path fill="#000" fill-rule="evenodd" d="M10 6.009c-2.48.036-3.885.22-4.828 1.163C4 8.343 4 10.229 4 14v2h40v-2c0-3.771 0-5.657-1.172-6.828-.943-.944-2.348-1.127-4.828-1.163V8a2 2 0 11-4 0V6H14v2a2 2 0 11-4 0V6.009z" clip-rule="evenodd"/>
</svg>
