<svg xmlns="http://www.w3.org/2000/svg" width="48" height="48" fill="none" viewBox="0 0 48 48">
  <rect width="40" height="40" x="4" y="6" fill="#000" opacity=".2" rx="4"/>
  <path fill="#000" d="M6.612 37.42h9.774V41h4.117v-3.58h2.525v-3.45h-2.525V20.636h-5.39L6.612 34.03v3.39zm9.854-3.45h-5.519v-.159l5.36-8.482h.159v8.641zm17.246 7.308c4.534.02 7.626-2.953 7.616-7.099.01-3.818-2.654-6.573-6.264-6.573-2.237 0-4.216 1.074-5.13 2.874h-.14c.02-3.967 1.412-6.433 4.067-6.433 1.561 0 2.685.855 3.013 2.277h4.246c-.408-3.351-3.192-5.966-7.259-5.966-5.031 0-8.263 4.077-8.282 10.918-.01 7.457 3.947 9.982 8.133 10.002zm-.02-3.38c-1.989 0-3.46-1.601-3.46-3.59.01-1.978 1.511-3.59 3.49-3.59 1.989 0 3.44 1.562 3.43 3.58.01 2.039-1.471 3.6-3.46 3.6z"/>
  <g opacity=".4">
    <path fill="#000" d="M10 4a2 2 0 114 0v4a2 2 0 11-4 0V4zM34 4a2 2 0 114 0v4a2 2 0 11-4 0V4z"/>
  </g>
  <path fill="#000" fill-rule="evenodd" d="M10 6.009c-2.48.036-3.885.22-4.828 1.163C4 8.343 4 10.229 4 14v2h40v-2c0-3.771 0-5.657-1.172-6.828-.943-.944-2.348-1.127-4.828-1.163V8a2 2 0 11-4 0V6H14v2a2 2 0 11-4 0V6.009z" clip-rule="evenodd"/>
</svg>
