<svg xmlns="http://www.w3.org/2000/svg" width="48" height="48" fill="none" viewBox="0 0 48 48">
  <rect width="40" height="40" x="4" y="6" fill="#000" opacity=".2" rx="4"/>
  <path fill="#000" d="M7.576 41h14.517v-3.52h-8.55v-.14l2.972-2.912c4.186-3.819 5.31-5.728 5.31-8.044 0-3.53-2.884-6.026-7.249-6.026-4.275 0-7.208 2.555-7.199 6.552h4.087c-.01-1.948 1.223-3.142 3.082-3.142 1.79 0 3.123 1.114 3.123 2.904 0 1.62-.995 2.734-2.844 4.514l-7.249 6.712V41zm25.234.278c4.593 0 7.895-2.456 7.904-5.757-.01-2.545-1.968-4.623-4.414-5.03v-.14c2.128-.438 3.649-2.277 3.659-4.514-.01-3.152-3.033-5.479-7.15-5.479-4.126 0-7.148 2.327-7.138 5.479-.01 2.227 1.49 4.076 3.659 4.514v.14c-2.486.407-4.425 2.485-4.415 5.03-.01 3.301 3.3 5.757 7.895 5.757zm0-3.161c-2.049 0-3.42-1.214-3.42-2.934 0-1.76 1.441-3.032 3.42-3.032 1.968 0 3.42 1.272 3.42 3.032 0 1.73-1.382 2.934-3.42 2.934zm0-9.098c-1.72 0-2.944-1.124-2.944-2.735 0-1.59 1.204-2.685 2.944-2.685 1.73 0 2.943 1.104 2.943 2.685 0 1.61-1.233 2.735-2.943 2.735z"/>
  <g opacity=".4">
    <path fill="#000" d="M10 4a2 2 0 114 0v4a2 2 0 11-4 0V4zM34 4a2 2 0 114 0v4a2 2 0 11-4 0V4z"/>
  </g>
  <path fill="#000" fill-rule="evenodd" d="M10 6.009c-2.48.036-3.885.22-4.828 1.163C4 8.343 4 10.229 4 14v2h40v-2c0-3.771 0-5.657-1.172-6.828-.943-.944-2.348-1.127-4.828-1.163V8a2 2 0 11-4 0V6H14v2a2 2 0 11-4 0V6.009z" clip-rule="evenodd"/>
</svg>
