<svg xmlns="http://www.w3.org/2000/svg" width="48" height="48" fill="none" viewBox="0 0 48 48">
  <rect width="40" height="40" x="4" y="6" fill="#000" opacity=".2" rx="4"/>
  <path fill="#000" d="M14.707 41.278c4.574 0 7.845-2.515 7.835-5.995.01-2.536-1.6-4.346-4.594-4.723v-.16c2.277-.407 3.848-2.018 3.838-4.305.01-3.211-2.804-5.737-7.02-5.737-4.176 0-7.318 2.446-7.377 5.966h4.126c.05-1.551 1.472-2.556 3.232-2.556 1.74 0 2.903 1.054 2.893 2.586.01 1.6-1.352 2.684-3.311 2.684h-1.9V32.2h1.9c2.307 0 3.749 1.154 3.739 2.794.01 1.621-1.383 2.735-3.351 2.735-1.9 0-3.321-.995-3.4-2.486H6.98c.07 3.56 3.251 6.035 7.726 6.035zm18.298-20.92c-4.554-.02-7.627 2.963-7.607 7.06.01 3.798 2.645 6.552 6.255 6.552 2.237 0 4.225-1.084 5.13-2.873h.14c-.01 4.036-1.413 6.492-4.067 6.492-1.561 0-2.685-.855-3.013-2.336h-4.246c.398 3.43 3.182 6.025 7.259 6.025 5.04 0 8.292-4.076 8.282-10.987-.01-7.378-3.947-9.913-8.133-9.933zm.03 3.38c1.978 0 3.44 1.611 3.46 3.55.01 1.95-1.531 3.56-3.5 3.56-1.989 0-3.41-1.551-3.42-3.55-.02-1.988 1.461-3.56 3.46-3.56z"/>
  <g opacity=".4">
    <path fill="#000" d="M10 4a2 2 0 114 0v4a2 2 0 11-4 0V4zM34 4a2 2 0 114 0v4a2 2 0 11-4 0V4z"/>
  </g>
  <path fill="#000" fill-rule="evenodd" d="M10 6.009c-2.48.036-3.885.22-4.828 1.163C4 8.343 4 10.229 4 14v2h40v-2c0-3.771 0-5.657-1.172-6.828-.943-.944-2.348-1.127-4.828-1.163V8a2 2 0 11-4 0V6H14v2a2 2 0 11-4 0V6.009z" clip-rule="evenodd"/>
</svg>
