<svg xmlns="http://www.w3.org/2000/svg" width="48" height="48" fill="none" viewBox="0 0 48 48">
  <rect width="40" height="40" x="4" y="6" fill="#000" opacity=".2" rx="4"/>
  <path fill="#000" d="M6.598 37.42h9.774V41h4.117v-3.58h2.525v-3.45H20.49V20.636h-5.39L6.6 34.03v3.39zm9.854-3.45h-5.519v-.159l5.36-8.482h.159v8.641zm17.028 7.308c4.593 0 7.895-2.456 7.904-5.757-.01-2.545-1.968-4.623-4.414-5.03v-.14c2.127-.438 3.649-2.277 3.659-4.514-.01-3.152-3.033-5.479-7.15-5.479-4.126 0-7.149 2.327-7.139 5.479-.01 2.227 1.492 4.076 3.66 4.514v.14c-2.486.407-4.425 2.485-4.415 5.03-.01 3.301 3.3 5.757 7.895 5.757zm0-3.161c-2.049 0-3.42-1.214-3.42-2.934 0-1.76 1.44-3.032 3.42-3.032 1.968 0 3.42 1.272 3.42 3.032 0 1.73-1.382 2.934-3.42 2.934zm0-9.098c-1.72 0-2.944-1.124-2.944-2.735 0-1.59 1.203-2.685 2.944-2.685 1.73 0 2.943 1.104 2.943 2.685 0 1.61-1.233 2.735-2.943 2.735z"/>
  <g opacity=".4">
    <path fill="#000" d="M10 4a2 2 0 114 0v4a2 2 0 11-4 0V4zM34 4a2 2 0 114 0v4a2 2 0 11-4 0V4z"/>
  </g>
  <path fill="#000" fill-rule="evenodd" d="M10 6.009c-2.48.036-3.885.22-4.828 1.163C4 8.343 4 10.229 4 14v2h40v-2c0-3.771 0-5.657-1.172-6.828-.943-.944-2.348-1.127-4.828-1.163V8a2 2 0 11-4 0V6H14v2a2 2 0 11-4 0V6.009z" clip-rule="evenodd"/>
</svg>
