<svg xmlns="http://www.w3.org/2000/svg" width="48" height="48" fill="none" viewBox="0 0 48 48">
  <rect width="38" height="38" x="5" y="5" fill="#000" opacity=".2" rx="4"/>
  <path fill="#000" d="M5 13c0-3.771 0-5.657 1.172-6.828C7.343 5 9.229 5 13 5h22c3.771 0 5.657 0 6.828 1.172C43 7.343 43 9.229 43 13v2H5v-2zM15.794 38.239c3.886 0 6.528-2.532 6.52-6.06.008-3.34-2.327-5.744-5.472-5.744-1.534 0-2.855.639-3.469 1.5h-.102l.452-4.372h7.627v-3.017H10.68l-.827 9.204 3.282.588c.537-.724 1.576-1.176 2.607-1.176 1.756.009 3.018 1.278 3.018 3.11 0 1.816-1.236 3.069-2.966 3.069-1.466 0-2.65-.92-2.736-2.276h-3.58c.069 3.017 2.702 5.174 6.316 5.174zm15.937.145c4.39 0 7.04-3.341 7.048-9.094.009-5.71-2.676-8.983-7.048-8.983-4.38 0-7.04 3.264-7.048 8.983-.017 5.736 2.65 9.085 7.048 9.093zm0-3.06c-2.003 0-3.298-2.011-3.29-6.034.009-3.963 1.296-5.958 3.29-5.958 1.986 0 3.281 1.995 3.281 5.958.009 4.023-1.287 6.034-3.28 6.034z"/>
</svg>
