<svg xmlns="http://www.w3.org/2000/svg" width="48" height="48" fill="none" viewBox="0 0 48 48">
  <rect width="38" height="38" x="5" y="5" fill="#000" opacity=".2" rx="4"/>
  <path fill="#000" d="M5 13c0-3.771 0-5.657 1.172-6.828C7.343 5 9.229 5 13 5h22c3.771 0 5.657 0 6.828 1.172C43 7.343 43 9.229 43 13v2H5v-2zM9.934 38h12.444v-3.017h-7.33v-.12l2.548-2.496c3.588-3.273 4.551-4.91 4.551-6.895 0-3.026-2.471-5.165-6.213-5.165-3.664 0-6.179 2.19-6.17 5.616h3.503c-.009-1.67 1.048-2.693 2.642-2.693 1.534 0 2.676.955 2.676 2.489 0 1.389-.852 2.343-2.438 3.87L9.934 35.34V38zm21.816.239c3.887.017 6.537-2.532 6.529-6.086.008-3.272-2.276-5.633-5.37-5.633-1.917 0-3.613.92-4.397 2.463h-.12c.017-3.4 1.21-5.514 3.486-5.514 1.338 0 2.301.733 2.583 1.951H38.1c-.35-2.872-2.736-5.113-6.222-5.113-4.312 0-7.082 3.494-7.1 9.358-.008 6.392 3.384 8.557 6.972 8.574zm-.017-2.898c-1.704 0-2.966-1.372-2.966-3.077.009-1.696 1.296-3.077 2.992-3.077 1.704 0 2.949 1.339 2.94 3.069.009 1.747-1.261 3.085-2.966 3.085z"/>
</svg>
