<svg xmlns="http://www.w3.org/2000/svg" width="48" height="48" fill="none" viewBox="0 0 48 48">
  <rect width="38" height="38" x="5" y="5" fill="#000" opacity=".2" rx="4"/>
  <path fill="#000" d="M5 13c0-3.771 0-5.657 1.172-6.828C7.343 5 9.229 5 13 5h22c3.771 0 5.657 0 6.828 1.172C43 7.343 43 9.229 43 13v2H5v-2zM18.876 20.546h-3.469l-4.321 2.735v3.273l3.997-2.506h.102V38h3.69V20.546zm10.992 17.837c4.39 0 7.04-3.34 7.048-9.093.009-5.71-2.676-8.983-7.048-8.983-4.38 0-7.04 3.264-7.048 8.983-.017 5.736 2.65 9.085 7.048 9.093zm0-3.06c-2.003 0-3.298-2.01-3.29-6.033.009-3.963 1.296-5.958 3.29-5.958 1.986 0 3.281 1.995 3.281 5.958.009 4.023-1.287 6.034-3.281 6.034z"/>
</svg>
