<svg xmlns="http://www.w3.org/2000/svg" width="48" height="48" fill="none" viewBox="0 0 48 48">
  <g clip-path="url(#clip0_20:195)">
    <rect width="38" height="38" x="5" y="5" fill="#000" opacity=".2" rx="4"/>
    <path fill="#000" d="M5 13c0-3.771 0-5.657 1.172-6.828C7.343 5 9.229 5 13 5h22c3.771 0 5.657 0 6.828 1.172C43 7.343 43 9.229 43 13v2H5v-2zM9.096 34.932h8.378V38h3.528v-3.068h2.165v-2.958h-2.165V20.546h-4.62l-7.286 11.48v2.906zm8.446-2.958h-4.73v-.136l4.594-7.27h.136v7.406zm14.783 6.265c3.886.017 6.536-2.532 6.528-6.086.008-3.272-2.276-5.633-5.37-5.633-1.917 0-3.613.92-4.397 2.463h-.12c.018-3.4 1.21-5.514 3.486-5.514 1.339 0 2.302.733 2.583 1.951h3.639c-.35-2.872-2.736-5.113-6.222-5.113-4.312 0-7.082 3.494-7.099 9.358-.009 6.392 3.383 8.557 6.972 8.574zm-.018-2.898c-1.704 0-2.965-1.372-2.965-3.077.008-1.696 1.295-3.077 2.991-3.077 1.705 0 2.949 1.339 2.94 3.069.009 1.747-1.26 3.085-2.966 3.085zm-8.115 31.898c3.886.017 6.537-2.532 6.528-6.086.009-3.272-2.275-5.633-5.37-5.633-1.917 0-3.613.92-4.397 2.463h-.12c.018-3.4 1.211-5.514 3.487-5.514 1.338 0 2.3.733 2.582 1.951h3.64c-.35-2.872-2.737-5.113-6.222-5.113-4.313 0-7.083 3.494-7.1 9.358-.008 6.392 3.384 8.557 6.972 8.574zm-.017-2.898c-1.705 0-2.966-1.372-2.966-3.077.008-1.696 1.295-3.077 2.991-3.077 1.705 0 2.95 1.339 2.94 3.069.01 1.747-1.26 3.085-2.965 3.085z"/>
  </g>
  <defs>
    <clipPath id="clip0_20:195">
      <path fill="#fff" d="M0 0h48v48H0z"/>
    </clipPath>
  </defs>
</svg>
