<svg xmlns="http://www.w3.org/2000/svg" width="48" height="48" fill="none" viewBox="0 0 48 48">
  <rect width="38" height="38" x="5" y="5" fill="#000" opacity=".2" rx="4"/>
  <path fill="#000" d="M5 13c0-3.771 0-5.657 1.172-6.828C7.343 5 9.229 5 13 5h22c3.771 0 5.657 0 6.828 1.172C43 7.343 43 9.229 43 13v2H5v-2zM9.096 34.932h8.378V38h3.528v-3.068h2.165v-2.958h-2.165V20.546h-4.62l-7.286 11.48v2.906zm8.446-2.958h-4.73v-.136l4.594-7.27h.136v7.406zm14.4-11.667c-3.904-.017-6.538 2.54-6.52 6.051.008 3.256 2.266 5.616 5.36 5.616 1.918 0 3.622-.928 4.398-2.463h.119c-.008 3.46-1.21 5.566-3.486 5.566-1.338 0-2.3-.733-2.582-2.003h-3.64c.341 2.94 2.728 5.165 6.222 5.165 4.321 0 7.108-3.495 7.1-9.418-.009-6.324-3.384-8.497-6.972-8.514zm.025 2.898c1.696 0 2.949 1.38 2.965 3.042.01 1.67-1.312 3.051-3 3.051-1.704 0-2.923-1.33-2.931-3.042-.017-1.705 1.253-3.052 2.966-3.052z"/>
</svg>
