<svg xmlns="http://www.w3.org/2000/svg" width="48" height="48" fill="none" viewBox="0 0 48 48">
  <rect width="38" height="38" x="5" y="5" fill="#000" opacity=".2" rx="4"/>
  <path fill="#000" d="M5 13c0-3.771 0-5.657 1.172-6.828C7.343 5 9.229 5 13 5h22c3.771 0 5.657 0 6.828 1.172C43 7.343 43 9.229 43 13v2H5v-2zM8.756 34.932h8.378V38h3.528v-3.068h2.165v-2.958h-2.165V20.546h-4.619l-7.287 11.48v2.906zm8.446-2.958h-4.73v-.136l4.594-7.27h.136v7.406zm14.928 6.41c4.389 0 7.04-3.341 7.048-9.094.008-5.71-2.676-8.983-7.048-8.983-4.381 0-7.04 3.264-7.049 8.983-.017 5.736 2.65 9.085 7.049 9.093zm0-3.06c-2.003 0-3.299-2.011-3.29-6.034.008-3.963 1.295-5.958 3.29-5.958 1.985 0 3.28 1.995 3.28 5.958.01 4.023-1.286 6.034-3.28 6.034z"/>
</svg>
