<svg xmlns="http://www.w3.org/2000/svg" width="48" height="48" fill="none" viewBox="0 0 48 48">
  <rect width="38" height="38" x="5" y="5" fill="#000" opacity=".2" rx="4"/>
  <path fill="#000" d="M5 13c0-3.771 0-5.657 1.172-6.828C7.343 5 9.229 5 13 5h22c3.771 0 5.657 0 6.828 1.172C43 7.343 43 9.229 43 13v2H5v-2zM16.023 38.239c3.92 0 6.724-2.157 6.716-5.14.008-2.173-1.373-3.724-3.938-4.048v-.136c1.952-.35 3.298-1.73 3.29-3.69.008-2.753-2.404-4.918-6.017-4.918-3.58 0-6.273 2.096-6.324 5.114h3.537c.042-1.33 1.261-2.19 2.77-2.19 1.491 0 2.489.902 2.48 2.215.009 1.372-1.16 2.301-2.838 2.301H14.07v2.71h1.628c1.977 0 3.213.989 3.204 2.395.009 1.39-1.184 2.344-2.872 2.344-1.628 0-2.846-.852-2.914-2.13H9.4c.06 3.05 2.787 5.173 6.622 5.173zm15.88 0c3.937 0 6.767-2.105 6.775-4.935-.008-2.182-1.687-3.963-3.784-4.313v-.119c1.824-.375 3.128-1.951 3.137-3.87-.009-2.7-2.6-4.695-6.128-4.695-3.537 0-6.128 1.994-6.12 4.696-.008 1.909 1.279 3.494 3.137 3.87v.118c-2.13.35-3.793 2.131-3.784 4.313-.009 2.83 2.83 4.935 6.767 4.935zm0-2.71c-1.756 0-2.932-1.04-2.932-2.515 0-1.508 1.236-2.6 2.932-2.6 1.687 0 2.931 1.092 2.931 2.6 0 1.483-1.184 2.514-2.931 2.514zm0-7.799c-1.475 0-2.523-.963-2.523-2.344 0-1.363 1.031-2.3 2.523-2.3 1.483 0 2.522.945 2.522 2.3 0 1.381-1.056 2.344-2.522 2.344z"/>
</svg>
