<svg width="48" height="48" viewBox="0 0 48 48" fill="none" xmlns="http://www.w3.org/2000/svg">
<path d="M16.493 40.4315C21.4308 40.4315 24.4127 36.6729 24.4223 30.201C24.4319 23.777 21.4117 20.0952 16.493 20.0952C11.5647 20.0952 8.57324 23.7674 8.56365 30.201C8.54448 36.6538 11.5455 40.4219 16.493 40.4315ZM16.493 36.9893C14.2398 36.9893 12.7824 34.7266 12.792 30.201C12.8016 25.7425 14.2494 23.4989 16.493 23.4989C18.727 23.4989 20.1844 25.7425 20.1844 30.201C20.194 34.7266 18.7366 36.9893 16.493 36.9893ZM27.3826 40H41.3812V36.6058H33.1355V36.4716L36.0023 33.6623C40.0389 29.9805 41.1223 28.1396 41.1223 25.9055C41.1223 22.5018 38.3418 20.0952 34.1326 20.0952C30.0098 20.0952 27.1813 22.5593 27.1909 26.4137H31.1316C31.122 24.5344 32.3109 23.3839 34.1039 23.3839C35.8297 23.3839 37.1145 24.4577 37.1145 26.1836C37.1145 27.7464 36.1557 28.8203 34.3723 30.5366L27.3826 37.0085V40Z" fill="black"/>
<path d="M6.84872 25.5H9.68963V23.5646C9.68963 22.1708 10.1513 21.0788 10.8171 20.0312L9.14808 19.0458C7.91406 20.049 6.84872 21.9577 6.84872 23.5824V25.5Z" fill="black"/>
<rect opacity="0.2" x="4" y="6" width="40" height="40" rx="4" fill="black"/>
<g opacity="0.4">
<path d="M10 4C10 2.89543 10.8954 2 12 2C13.1046 2 14 2.89543 14 4V8C14 9.10457 13.1046 10 12 10C10.8954 10 10 9.10457 10 8V4Z" fill="black"/>
<path d="M34 4C34 2.89543 34.8954 2 36 2C37.1046 2 38 2.89543 38 4V8C38 9.10457 37.1046 10 36 10C34.8954 10 34 9.10457 34 8V4Z" fill="black"/>
</g>
<path fill-rule="evenodd" clip-rule="evenodd" d="M10 6.00869C7.52043 6.04456 6.11466 6.22849 5.17157 7.17157C4 8.34315 4 10.2288 4 14V16H44V14C44 10.2288 44 8.34315 42.8284 7.17157C41.8853 6.22849 40.4796 6.04456 38 6.00869V8C38 9.10457 37.1046 10 36 10C34.8954 10 34 9.10457 34 8V6H14V8C14 9.10457 13.1046 10 12 10C10.8954 10 10 9.10457 10 8V6.00869Z" fill="black"/>
</svg>
