<svg width="48" height="48" viewBox="0 0 48 48" fill="none" xmlns="http://www.w3.org/2000/svg">
<g id="years/year-12">
<rect id="Rectangle 1" opacity="0.2" x="5" y="5" width="38" height="38" rx="4" fill="black"/>
<path id="Rectangle 2" d="M5 13C5 9.22876 5 7.34315 6.17157 6.17157C7.34315 5 9.22876 5 13 5H35C38.7712 5 40.6569 5 41.8284 6.17157C43 7.34315 43 9.22876 43 13V15H5V13Z" fill="black"/>
<path id="12" d="M20.6841 21.9091H18.0826L14.8418 23.9609V26.4155L17.8397 24.5362H17.9164V35H20.6841V21.9091ZM23.7955 35H33.1278V32.7372H27.6307V32.6477L29.5419 30.7749C32.233 28.3203 32.9553 27.093 32.9553 25.6037C32.9553 23.3345 31.1016 21.7301 28.2955 21.7301C25.5469 21.7301 23.6612 23.3729 23.6676 25.9425H26.2947C26.2884 24.6896 27.081 23.9226 28.2763 23.9226C29.4268 23.9226 30.2834 24.6385 30.2834 25.7891C30.2834 26.831 29.6442 27.5469 28.4553 28.6911L23.7955 33.0057V35Z" fill="black"/>
<path id="&#226;&#128;&#152;" d="M8.31108 26H10.3565V24.6065C10.3565 23.603 10.6889 22.8168 11.1683 22.0625L9.96662 21.353C9.07812 22.0753 8.31108 23.4496 8.31108 24.6193V26Z" fill="black"/>
</g>
</svg>
