<svg width="48" height="48" viewBox="0 0 48 48" fill="none" xmlns="http://www.w3.org/2000/svg">
<g id="years/year-03">
<rect id="Rectangle 1" opacity="0.2" x="5" y="5" width="38" height="38" rx="4" fill="black"/>
<path id="Rectangle 2" d="M5 13C5 9.22876 5 7.34315 6.17157 6.17157C7.34315 5 9.22876 5 13 5H35C38.7712 5 40.6569 5 41.8284 6.17157C43 7.34315 43 9.22876 43 13V15H5V13Z" fill="black"/>
<path id="03" d="M18.065 35.2876C21.3569 35.2876 23.3448 32.782 23.3512 28.4673C23.3576 24.1847 21.3441 21.7301 18.065 21.7301C14.7795 21.7301 12.7852 24.1783 12.7788 28.4673C12.766 32.7692 14.7667 35.2812 18.065 35.2876ZM18.065 32.9929C16.5629 32.9929 15.5913 31.4844 15.5977 28.4673C15.604 25.495 16.5692 23.9993 18.065 23.9993C19.5543 23.9993 20.5259 25.495 20.5259 28.4673C20.5323 31.4844 19.5607 32.9929 18.065 32.9929ZM30.1635 35.179C33.1039 35.179 35.2069 33.5618 35.2005 31.3246C35.2069 29.6946 34.1713 28.5312 32.2473 28.2884V28.1861C33.7111 27.924 34.7211 26.8885 34.7147 25.4183C34.7211 23.3537 32.9121 21.7301 30.2019 21.7301C27.5172 21.7301 25.4973 23.3026 25.459 25.5653H28.1117C28.1436 24.5682 29.0577 23.9226 30.1891 23.9226C31.3077 23.9226 32.0556 24.6001 32.0492 25.5845C32.0556 26.6136 31.1799 27.3104 29.9206 27.3104H28.6998V29.343H29.9206C31.4036 29.343 32.3304 30.0845 32.324 31.1392C32.3304 32.1811 31.4355 32.897 30.1699 32.897C28.949 32.897 28.035 32.2578 27.9838 31.299H25.1969C25.2417 33.5874 27.2871 35.179 30.1635 35.179Z" fill="black"/>
<path id="&#226;&#128;&#152;" d="M8.31108 26H10.3565V24.6065C10.3565 23.603 10.6889 22.8168 11.1683 22.0625L9.96662 21.353C9.07812 22.0753 8.31108 23.4496 8.31108 24.6193V26Z" fill="black"/>
</g>
</svg>
