<svg width="48" height="48" viewBox="0 0 48 48" fill="none" xmlns="http://www.w3.org/2000/svg">
<g id="years/year-02">
<rect id="Rectangle 1" opacity="0.2" x="5" y="5" width="38" height="38" rx="4" fill="black"/>
<path id="Rectangle 2" d="M5 13C5 9.22876 5 7.34315 6.17157 6.17157C7.34315 5 9.22876 5 13 5H35C38.7712 5 40.6569 5 41.8284 6.17157C43 7.34315 43 9.22876 43 13V15H5V13Z" fill="black"/>
<path id="02" d="M18.3287 35.2876C21.6206 35.2876 23.6085 32.782 23.6149 28.4673C23.6213 24.1847 21.6078 21.7301 18.3287 21.7301C15.0431 21.7301 13.0488 24.1783 13.0424 28.4673C13.0297 32.7692 15.0304 35.2812 18.3287 35.2876ZM18.3287 32.9929C16.8265 32.9929 15.8549 31.4844 15.8613 28.4673C15.8677 25.495 16.8329 23.9993 18.3287 23.9993C19.818 23.9993 20.7896 25.495 20.7896 28.4673C20.796 31.4844 19.8244 32.9929 18.3287 32.9929ZM25.5884 35H34.9208V32.7372H29.4237V32.6477L31.3349 30.7749C34.0259 28.3203 34.7482 27.093 34.7482 25.6037C34.7482 23.3345 32.8945 21.7301 30.0884 21.7301C27.3398 21.7301 25.4542 23.3729 25.4606 25.9425H28.0877C28.0813 24.6896 28.8739 23.9226 30.0692 23.9226C31.2198 23.9226 32.0763 24.6385 32.0763 25.7891C32.0763 26.831 31.4371 27.5469 30.2482 28.6911L25.5884 33.0057V35Z" fill="black"/>
<path id="&#226;&#128;&#152;" d="M8.31108 26H10.3565V24.6065C10.3565 23.603 10.6889 22.8168 11.1683 22.0625L9.96662 21.353C9.07812 22.0753 8.31108 23.4496 8.31108 24.6193V26Z" fill="black"/>
</g>
</svg>
