<svg width="48" height="48" viewBox="0 0 48 48" fill="none" xmlns="http://www.w3.org/2000/svg">
<rect opacity="0.2" x="5" y="5" width="38" height="38" rx="4" fill="black"/>
<path d="M5 13C5 9.22876 5 7.34315 6.17157 6.17157C7.34315 5 9.22876 5 13 5H35C38.7712 5 40.6569 5 41.8284 6.17157C43 7.34315 43 9.22876 43 13V15H5V13Z" fill="black"/>
<path d="M18.0562 35.2876C21.3481 35.2876 23.336 32.782 23.3424 28.4673C23.3488 24.1847 21.3353 21.7301 18.0562 21.7301C14.7707 21.7301 12.7764 24.1783 12.77 28.4673C12.7572 32.7692 14.7579 35.2812 18.0562 35.2876ZM18.0562 32.9929C16.5541 32.9929 15.5825 31.4844 15.5889 28.4673C15.5953 25.495 16.5605 23.9993 18.0562 23.9993C19.5455 23.9993 20.5171 25.495 20.5171 28.4673C20.5235 31.4844 19.5519 32.9929 18.0562 32.9929ZM30.3401 35.179C33.2549 35.1918 35.2428 33.2805 35.2364 30.6151C35.2428 28.1605 33.5297 26.3899 31.2094 26.3899C29.7712 26.3899 28.4992 27.0803 27.9111 28.2372H27.8216C27.8344 25.6868 28.7293 24.1016 30.436 24.1016C31.4395 24.1016 32.1618 24.6513 32.3728 25.5653H35.1022C34.8401 23.4112 33.0503 21.7301 30.436 21.7301C27.2016 21.7301 25.1242 24.3509 25.1114 28.7486C25.105 33.5426 27.6491 35.1662 30.3401 35.179ZM30.3273 33.0057C29.0489 33.0057 28.1029 31.9766 28.1029 30.6982C28.1093 29.4261 29.0745 28.3906 30.3465 28.3906C31.6249 28.3906 32.5582 29.3942 32.5518 30.6918C32.5582 32.0021 31.6057 33.0057 30.3273 33.0057Z" fill="black"/>
<path d="M8.31108 26H10.3565V24.6065C10.3565 23.603 10.6889 22.8168 11.1683 22.0625L9.96662 21.353C9.07812 22.0753 8.31108 23.4496 8.31108 24.6193V26Z" fill="black"/>
</svg>
