<svg width="48" height="48" viewBox="0 0 48 48" fill="none" xmlns="http://www.w3.org/2000/svg">
<path d="M16.0711 40.4315C21.009 40.4315 23.9909 36.6729 24.0004 30.201C24.01 23.777 20.9898 20.0952 16.0711 20.0952C11.1428 20.0952 8.15137 23.7674 8.14178 30.201C8.1226 36.6538 11.1237 40.4219 16.0711 40.4315ZM16.0711 36.9893C13.8179 36.9893 12.3605 34.7266 12.3701 30.201C12.3797 25.7425 13.8275 23.4989 16.0711 23.4989C18.3051 23.4989 19.7625 25.7425 19.7625 30.201C19.7721 34.7266 18.3147 36.9893 16.0711 36.9893ZM34.286 40.2685C38.7157 40.2685 41.899 37.9002 41.9086 34.717C41.899 32.2624 40.0101 30.2585 37.6515 29.8654V29.7312C39.7033 29.3093 41.1703 27.5355 41.1799 25.3782C41.1703 22.3388 38.2555 20.0952 34.286 20.0952C30.307 20.0952 27.3922 22.3388 27.4018 25.3782C27.3922 27.5259 28.84 29.3093 30.9302 29.7312V29.8654C28.5332 30.2585 26.6635 32.2624 26.6731 34.717C26.6635 37.9002 29.8564 40.2685 34.286 40.2685ZM34.286 37.2195C32.3109 37.2195 30.9877 36.0497 30.9877 34.391C30.9877 32.6939 32.378 31.4666 34.286 31.4666C36.1845 31.4666 37.5843 32.6939 37.5843 34.391C37.5843 36.0593 36.2516 37.2195 34.286 37.2195ZM34.286 28.4464C32.6273 28.4464 31.448 27.3629 31.448 25.8097C31.448 24.2756 32.6081 23.2209 34.286 23.2209C35.9544 23.2209 37.1241 24.2852 37.1241 25.8097C37.1241 27.3629 35.9352 28.4464 34.286 28.4464Z" fill="black"/>
<path d="M6.84872 25.5H9.68963V23.5646C9.68963 22.1708 10.1513 21.0788 10.8171 20.0312L9.14808 19.0458C7.91406 20.049 6.84872 21.9577 6.84872 23.5824V25.5Z" fill="black"/>
<rect opacity="0.2" x="4" y="6" width="40" height="40" rx="4" fill="black"/>
<g opacity="0.4">
<path d="M10 4C10 2.89543 10.8954 2 12 2C13.1046 2 14 2.89543 14 4V8C14 9.10457 13.1046 10 12 10C10.8954 10 10 9.10457 10 8V4Z" fill="black"/>
<path d="M34 4C34 2.89543 34.8954 2 36 2C37.1046 2 38 2.89543 38 4V8C38 9.10457 37.1046 10 36 10C34.8954 10 34 9.10457 34 8V4Z" fill="black"/>
</g>
<path fill-rule="evenodd" clip-rule="evenodd" d="M10 6.00869C7.52043 6.04456 6.11466 6.22849 5.17157 7.17157C4 8.34315 4 10.2288 4 14V16H44V14C44 10.2288 44 8.34315 42.8284 7.17157C41.8853 6.22849 40.4796 6.04456 38 6.00869V8C38 9.10457 37.1046 10 36 10C34.8954 10 34 9.10457 34 8V6H14V8C14 9.10457 13.1046 10 12 10C10.8954 10 10 9.10457 10 8V6.00869Z" fill="black"/>
</svg>
