<svg width="48" height="48" viewBox="0 0 48 48" fill="none" xmlns="http://www.w3.org/2000/svg">
<g id="years/year-10">
<rect id="Rectangle 1" opacity="0.2" x="5" y="5" width="38" height="38" rx="4" fill="black"/>
<path id="Rectangle 2" d="M5 13C5 9.22876 5 7.34315 6.17157 6.17157C7.34315 5 9.22876 5 13 5H35C38.7712 5 40.6569 5 41.8284 6.17157C43 7.34315 43 9.22876 43 13V15H5V13Z" fill="black"/>
<path id="10" d="M20.1568 21.9091H17.5552L14.3145 23.9609V26.4155L17.3123 24.5362H17.389V35H20.1568V21.9091ZM28.4009 35.2876C31.6928 35.2876 33.6808 32.782 33.6871 28.4673C33.6935 24.1847 31.68 21.7301 28.4009 21.7301C25.1154 21.7301 23.1211 24.1783 23.1147 28.4673C23.1019 32.7692 25.1026 35.2812 28.4009 35.2876ZM28.4009 32.9929C26.8988 32.9929 25.9272 31.4844 25.9336 28.4673C25.94 25.495 26.9052 23.9993 28.4009 23.9993C29.8903 23.9993 30.8619 25.495 30.8619 28.4673C30.8683 31.4844 29.8967 32.9929 28.4009 32.9929Z" fill="black"/>
<path id="&#226;&#128;&#152;" d="M8.31108 26H10.3565V24.6065C10.3565 23.603 10.6889 22.8168 11.1683 22.0625L9.96662 21.353C9.07812 22.0753 8.31108 23.4496 8.31108 24.6193V26Z" fill="black"/>
</g>
</svg>
