<svg width="48" height="48" viewBox="0 0 48 48" fill="none" xmlns="http://www.w3.org/2000/svg">
<path d="M16.0843 40.4315C21.0221 40.4315 24.004 36.6729 24.0136 30.201C24.0232 23.777 21.003 20.0952 16.0843 20.0952C11.156 20.0952 8.16455 23.7674 8.15496 30.201C8.13579 36.6538 11.1369 40.4219 16.0843 40.4315ZM16.0843 36.9893C13.8311 36.9893 12.3737 34.7266 12.3833 30.201C12.3929 25.7425 13.8407 23.4989 16.0843 23.4989C18.3183 23.4989 19.7757 25.7425 19.7757 30.201C19.7853 34.7266 18.3279 36.9893 16.0843 36.9893ZM34.0787 20.0952C29.6874 20.076 26.7247 22.9524 26.7438 26.9027C26.7534 30.5653 29.2943 33.2212 32.7747 33.2212C34.932 33.2212 36.8497 32.1761 37.7222 30.4503H37.8564C37.8468 34.343 36.4949 36.7113 33.9349 36.7113C32.4296 36.7113 31.3461 35.8867 31.0297 34.4581H26.9356C27.3191 37.766 30.0038 40.2685 33.9349 40.2685C38.796 40.2685 41.9313 36.3374 41.9217 29.6737C41.9122 22.5593 38.1153 20.1143 34.0787 20.0952ZM34.1075 23.3551C36.0155 23.3551 37.4249 24.9084 37.4441 26.7781C37.4537 28.6573 35.9676 30.2106 34.0691 30.2106C32.1515 30.2106 30.7804 28.7148 30.7708 26.7876C30.7516 24.87 32.1803 23.3551 34.1075 23.3551Z" fill="black"/>
<path d="M6.84872 25.5H9.68963V23.5646C9.68963 22.1708 10.1513 21.0788 10.8171 20.0312L9.14808 19.0458C7.91406 20.049 6.84872 21.9577 6.84872 23.5824V25.5Z" fill="black"/>
<rect opacity="0.2" x="4" y="6" width="40" height="40" rx="4" fill="black"/>
<g opacity="0.4">
<path d="M10 4C10 2.89543 10.8954 2 12 2C13.1046 2 14 2.89543 14 4V8C14 9.10457 13.1046 10 12 10C10.8954 10 10 9.10457 10 8V4Z" fill="black"/>
<path d="M34 4C34 2.89543 34.8954 2 36 2C37.1046 2 38 2.89543 38 4V8C38 9.10457 37.1046 10 36 10C34.8954 10 34 9.10457 34 8V4Z" fill="black"/>
</g>
<path fill-rule="evenodd" clip-rule="evenodd" d="M10 6.00869C7.52043 6.04456 6.11466 6.22849 5.17157 7.17157C4 8.34315 4 10.2288 4 14V16H44V14C44 10.2288 44 8.34315 42.8284 7.17157C41.8853 6.22849 40.4796 6.04456 38 6.00869V8C38 9.10457 37.1046 10 36 10C34.8954 10 34 9.10457 34 8V6H14V8C14 9.10457 13.1046 10 12 10C10.8954 10 10 9.10457 10 8V6.00869Z" fill="black"/>
</svg>
