<svg width="48" height="48" viewBox="0 0 48 48" fill="none" xmlns="http://www.w3.org/2000/svg">
<g id="years/year-04">
<rect id="Rectangle 1" opacity="0.2" x="5" y="5" width="38" height="38" rx="4" fill="black"/>
<path id="Rectangle 2" d="M5 13C5 9.22876 5 7.34315 6.17157 6.17157C7.34315 5 9.22876 5 13 5H35C38.7712 5 40.6569 5 41.8284 6.17157C43 7.34315 43 9.22876 43 13V15H5V13Z" fill="black"/>
<path id="04" d="M17.898 35.2876C21.1899 35.2876 23.1778 32.782 23.1842 28.4673C23.1906 24.1847 21.1771 21.7301 17.898 21.7301C14.6125 21.7301 12.6182 24.1783 12.6118 28.4673C12.599 32.7692 14.5997 35.2812 17.898 35.2876ZM17.898 32.9929C16.3959 32.9929 15.4243 31.4844 15.4307 28.4673C15.4371 25.495 16.4023 23.9993 17.898 23.9993C19.3873 23.9993 20.3589 25.495 20.3589 28.4673C20.3653 31.4844 19.3937 32.9929 17.898 32.9929ZM24.9596 32.6989H31.243V35H33.8893V32.6989H35.5129V30.4808H33.8893V21.9091H30.4248L24.9596 30.5192V32.6989ZM31.2941 30.4808H27.7465V30.3786L31.1919 24.9261H31.2941V30.4808Z" fill="black"/>
<path id="&#226;&#128;&#152;" d="M8.31108 26H10.3565V24.6065C10.3565 23.603 10.6889 22.8168 11.1683 22.0625L9.96662 21.353C9.07812 22.0753 8.31108 23.4496 8.31108 24.6193V26Z" fill="black"/>
</g>
</svg>
