<svg width="48" height="48" viewBox="0 0 48 48" fill="none" xmlns="http://www.w3.org/2000/svg">
<rect opacity="0.2" x="5" y="5" width="38" height="38" rx="4" fill="black"/>
<path d="M5 13C5 9.22876 5 7.34315 6.17157 6.17157C7.34315 5 9.22876 5 13 5H35C38.7712 5 40.6569 5 41.8284 6.17157C43 7.34315 43 9.22876 43 13V15H5V13Z" fill="black"/>
<path d="M14.9888 35H24.3212V32.7372H18.824V32.6477L20.7353 30.7749C23.4263 28.3203 24.1486 27.093 24.1486 25.6037C24.1486 23.3345 22.2949 21.7301 19.4888 21.7301C16.7402 21.7301 14.8546 23.3729 14.861 25.9425H17.4881C17.4817 24.6896 18.2743 23.9226 19.4696 23.9226C20.6202 23.9226 21.4767 24.6385 21.4767 25.7891C21.4767 26.831 20.8375 27.5469 19.6486 28.6911L14.9888 33.0057V35ZM32.022 21.9091H29.4205L26.1797 23.9609V26.4155L29.1776 24.5362H29.2543V35H32.022V21.9091Z" fill="black"/>
<path d="M8.31108 26H10.3565V24.6065C10.3565 23.603 10.6889 22.8168 11.1683 22.0625L9.96662 21.353C9.07812 22.0753 8.31108 23.4496 8.31108 24.6193V26Z" fill="black"/>
</svg>
