<svg width="48" height="48" viewBox="0 0 48 48" fill="none" xmlns="http://www.w3.org/2000/svg">
<g id="years/year-15">
<rect id="Rectangle 1" opacity="0.2" x="5" y="5" width="38" height="38" rx="4" fill="black"/>
<path id="Rectangle 2" d="M5 13C5 9.22876 5 7.34315 6.17157 6.17157C7.34315 5 9.22876 5 13 5H35C38.7712 5 40.6569 5 41.8284 6.17157C43 7.34315 43 9.22876 43 13V15H5V13Z" fill="black"/>
<path id="15" d="M20.5523 21.9091H17.9507L14.71 23.9609V26.4155L17.7078 24.5362H17.7845V35H20.5523V21.9091ZM28.4449 35.179C31.3596 35.179 33.3412 33.2805 33.3348 30.6342C33.3412 28.1286 31.5898 26.326 29.2311 26.326C28.0805 26.326 27.0898 26.8054 26.6295 27.451H26.5528L26.8916 24.1719H32.6125V21.9091H24.6096L23.9896 28.8125L26.4506 29.2536C26.8532 28.7102 27.6331 28.3714 28.4065 28.3714C29.7233 28.3778 30.6693 29.3303 30.6693 30.7045C30.6693 32.0661 29.7425 33.0057 28.4449 33.0057C27.3454 33.0057 26.4569 32.3153 26.393 31.299H23.7084C23.7595 33.5618 25.7346 35.179 28.4449 35.179Z" fill="black"/>
<path id="&#226;&#128;&#152;" d="M8.31108 26H10.3565V24.6065C10.3565 23.603 10.6889 22.8168 11.1683 22.0625L9.96662 21.353C9.07812 22.0753 8.31108 23.4496 8.31108 24.6193V26Z" fill="black"/>
</g>
</svg>
