<svg width="48" height="48" viewBox="0 0 48 48" fill="none" xmlns="http://www.w3.org/2000/svg">
<rect opacity="0.2" x="5" y="5" width="38" height="38" rx="4" fill="black"/>
<path d="M5 13C5 9.22876 5 7.34315 6.17157 6.17157C7.34315 5 9.22876 5 13 5H35C38.7712 5 40.6569 5 41.8284 6.17157C43 7.34315 43 9.22876 43 13V15H5V13Z" fill="black"/>
<path d="M19.5943 35.2876C22.8862 35.2876 24.8741 32.782 24.8805 28.4673C24.8869 24.1847 22.8734 21.7301 19.5943 21.7301C16.3088 21.7301 14.3145 24.1783 14.3081 28.4673C14.2953 32.7692 16.296 35.2812 19.5943 35.2876ZM19.5943 32.9929C18.0922 32.9929 17.1206 31.4844 17.127 28.4673C17.1333 25.495 18.0985 23.9993 19.5943 23.9993C21.0836 23.9993 22.0552 25.495 22.0552 28.4673C22.0616 31.4844 21.09 32.9929 19.5943 32.9929ZM32.5494 21.9091H29.9478L26.707 23.9609V26.4155L29.7049 24.5362H29.7816V35H32.5494V21.9091Z" fill="black"/>
<path d="M8.31108 26H10.3565V24.6065C10.3565 23.603 10.6889 22.8168 11.1683 22.0625L9.96662 21.353C9.07812 22.0753 8.31108 23.4496 8.31108 24.6193V26Z" fill="black"/>
</svg>
