<svg width="48" height="48" viewBox="0 0 48 48" fill="none" xmlns="http://www.w3.org/2000/svg">
<path d="M19.6307 20.3636H15.7283L10.8672 23.4414V27.1232L15.364 24.3043H15.479V40H19.6307V20.3636ZM31.5558 40.2685C35.9664 40.2685 39.1208 37.8427 39.1112 34.4869C39.1208 32.0419 37.5676 30.2969 34.6816 29.9325V29.7791C36.8772 29.386 38.3921 27.8327 38.3825 25.6275C38.3921 22.5305 35.6787 20.0952 31.6134 20.0952C27.5864 20.0952 24.5566 22.4538 24.499 25.848H28.4781C28.526 24.3523 29.8971 23.3839 31.5942 23.3839C33.2721 23.3839 34.3939 24.4002 34.3843 25.8768C34.3939 27.4205 33.0803 28.4656 31.1915 28.4656H29.3602V31.5146H31.1915C33.4159 31.5146 34.8062 32.6268 34.7966 34.2088C34.8062 35.7717 33.4639 36.8455 31.5654 36.8455C29.7341 36.8455 28.363 35.8867 28.2863 34.4485H24.1059C24.173 37.881 27.2412 40.2685 31.5558 40.2685Z" fill="black"/>
<path d="M6.84872 25.5H9.68963V23.5646C9.68963 22.1708 10.1513 21.0788 10.8171 20.0312L9.14808 19.0458C7.91406 20.049 6.84872 21.9577 6.84872 23.5824V25.5Z" fill="black"/>
<rect opacity="0.2" x="4" y="6" width="40" height="40" rx="4" fill="black"/>
<g opacity="0.4">
<path d="M10 4C10 2.89543 10.8954 2 12 2C13.1046 2 14 2.89543 14 4V8C14 9.10457 13.1046 10 12 10C10.8954 10 10 9.10457 10 8V4Z" fill="black"/>
<path d="M34 4C34 2.89543 34.8954 2 36 2C37.1046 2 38 2.89543 38 4V8C38 9.10457 37.1046 10 36 10C34.8954 10 34 9.10457 34 8V4Z" fill="black"/>
</g>
<path fill-rule="evenodd" clip-rule="evenodd" d="M10 6.00869C7.52043 6.04456 6.11466 6.22849 5.17157 7.17157C4 8.34315 4 10.2288 4 14V16H44V14C44 10.2288 44 8.34315 42.8284 7.17157C41.8853 6.22849 40.4796 6.04456 38 6.00869V8C38 9.10457 37.1046 10 36 10C34.8954 10 34 9.10457 34 8V6H14V8C14 9.10457 13.1046 10 12 10C10.8954 10 10 9.10457 10 8V6.00869Z" fill="black"/>
</svg>
