<svg width="48" height="48" viewBox="0 0 48 48" fill="none" xmlns="http://www.w3.org/2000/svg">
<path d="M19.6043 20.3636H15.702L10.8408 23.4414V27.1232L15.3376 24.3043H15.4527V40H19.6043V20.3636ZM31.5966 40.2685C36.0263 40.2685 39.2095 37.9002 39.2191 34.717C39.2095 32.2624 37.3207 30.2585 34.962 29.8654V29.7312C37.0138 29.3093 38.4808 27.5355 38.4904 25.3782C38.4808 22.3388 35.5661 20.0952 31.5966 20.0952C27.6175 20.0952 24.7028 22.3388 24.7124 25.3782C24.7028 27.5259 26.1506 29.3093 28.2408 29.7312V29.8654C25.8438 30.2585 23.9741 32.2624 23.9837 34.717C23.9741 37.9002 27.1669 40.2685 31.5966 40.2685ZM31.5966 37.2195C29.6214 37.2195 28.2983 36.0497 28.2983 34.391C28.2983 32.6939 29.6886 31.4666 31.5966 31.4666C33.495 31.4666 34.8949 32.6939 34.8949 34.391C34.8949 36.0593 33.5621 37.2195 31.5966 37.2195ZM31.5966 28.4464C29.9379 28.4464 28.7585 27.3629 28.7585 25.8097C28.7585 24.2756 29.9187 23.2209 31.5966 23.2209C33.2649 23.2209 34.4347 24.2852 34.4347 25.8097C34.4347 27.3629 33.2457 28.4464 31.5966 28.4464Z" fill="black"/>
<path d="M6.84872 25.5H9.68963V23.5646C9.68963 22.1708 10.1513 21.0788 10.8171 20.0312L9.14808 19.0458C7.91406 20.049 6.84872 21.9577 6.84872 23.5824V25.5Z" fill="black"/>
<rect opacity="0.2" x="4" y="6" width="40" height="40" rx="4" fill="black"/>
<g opacity="0.4">
<path d="M10 4C10 2.89543 10.8954 2 12 2C13.1046 2 14 2.89543 14 4V8C14 9.10457 13.1046 10 12 10C10.8954 10 10 9.10457 10 8V4Z" fill="black"/>
<path d="M34 4C34 2.89543 34.8954 2 36 2C37.1046 2 38 2.89543 38 4V8C38 9.10457 37.1046 10 36 10C34.8954 10 34 9.10457 34 8V4Z" fill="black"/>
</g>
<path fill-rule="evenodd" clip-rule="evenodd" d="M10 6.00869C7.52043 6.04456 6.11466 6.22849 5.17157 7.17157C4 8.34315 4 10.2288 4 14V16H44V14C44 10.2288 44 8.34315 42.8284 7.17157C41.8853 6.22849 40.4796 6.04456 38 6.00869V8C38 9.10457 37.1046 10 36 10C34.8954 10 34 9.10457 34 8V6H14V8C14 9.10457 13.1046 10 12 10C10.8954 10 10 9.10457 10 8V6.00869Z" fill="black"/>
</svg>
