<svg width="48" height="48" viewBox="0 0 48 48" fill="none" xmlns="http://www.w3.org/2000/svg">
<path d="M16.2952 40.4315C21.2331 40.4315 24.215 36.6729 24.2246 30.201C24.2342 23.777 21.2139 20.0952 16.2952 20.0952C11.367 20.0952 8.37549 23.7674 8.3659 30.201C8.34672 36.6538 11.3478 40.4219 16.2952 40.4315ZM16.2952 36.9893C14.042 36.9893 12.5847 34.7266 12.5942 30.201C12.6038 25.7425 14.0516 23.4989 16.2952 23.4989C18.5293 23.4989 19.9866 25.7425 19.9866 30.201C19.9962 34.7266 18.5388 36.9893 16.2952 36.9893ZM34.3568 40.2685C38.7289 40.2685 41.7012 37.4208 41.6916 33.4513C41.7012 29.6928 39.0741 26.989 35.5361 26.989C33.8102 26.989 32.3241 27.7081 31.6337 28.6765H31.5187L32.0269 23.7578H40.6082V20.3636H28.6039L27.6739 30.7188L31.3653 31.3803C31.9693 30.5653 33.1391 30.0572 34.2992 30.0572C36.2744 30.0668 37.6934 31.4954 37.6934 33.5568C37.6934 35.5991 36.3031 37.0085 34.3568 37.0085C32.7076 37.0085 31.3749 35.973 31.279 34.4485H27.252C27.3287 37.8427 30.2914 40.2685 34.3568 40.2685Z" fill="black"/>
<path d="M6.84872 25.5H9.68963V23.5646C9.68963 22.1708 10.1513 21.0788 10.8171 20.0312L9.14808 19.0458C7.91406 20.049 6.84872 21.9577 6.84872 23.5824V25.5Z" fill="black"/>
<rect opacity="0.2" x="4" y="6" width="40" height="40" rx="4" fill="black"/>
<g opacity="0.4">
<path d="M10 4C10 2.89543 10.8954 2 12 2C13.1046 2 14 2.89543 14 4V8C14 9.10457 13.1046 10 12 10C10.8954 10 10 9.10457 10 8V4Z" fill="black"/>
<path d="M34 4C34 2.89543 34.8954 2 36 2C37.1046 2 38 2.89543 38 4V8C38 9.10457 37.1046 10 36 10C34.8954 10 34 9.10457 34 8V4Z" fill="black"/>
</g>
<path fill-rule="evenodd" clip-rule="evenodd" d="M10 6.00869C7.52043 6.04456 6.11466 6.22849 5.17157 7.17157C4 8.34315 4 10.2288 4 14V16H44V14C44 10.2288 44 8.34315 42.8284 7.17157C41.8853 6.22849 40.4796 6.04456 38 6.00869V8C38 9.10457 37.1046 10 36 10C34.8954 10 34 9.10457 34 8V6H14V8C14 9.10457 13.1046 10 12 10C10.8954 10 10 9.10457 10 8V6.00869Z" fill="black"/>
</svg>
