<svg width="48" height="48" viewBox="0 0 48 48" fill="none" xmlns="http://www.w3.org/2000/svg">
<path d="M16.0843 40.4315C21.0221 40.4315 24.004 36.6729 24.0136 30.201C24.0232 23.777 21.003 20.0952 16.0843 20.0952C11.156 20.0952 8.16455 23.7674 8.15496 30.201C8.13579 36.6538 11.1369 40.4219 16.0843 40.4315ZM16.0843 36.9893C13.8311 36.9893 12.3737 34.7266 12.3833 30.201C12.3929 25.7425 13.8407 23.4989 16.0843 23.4989C18.3183 23.4989 19.7757 25.7425 19.7757 30.201C19.7853 34.7266 18.3279 36.9893 16.0843 36.9893ZM34.5102 40.2685C38.8823 40.2876 41.8642 37.4208 41.8546 33.4226C41.8642 29.7408 39.2946 27.0849 35.8141 27.0849C33.6568 27.0849 31.7488 28.1204 30.8667 29.8558H30.7325C30.7516 26.0302 32.094 23.6523 34.654 23.6523C36.1593 23.6523 37.2428 24.4769 37.5592 25.848H41.6533C41.2602 22.6168 38.5755 20.0952 34.654 20.0952C29.8024 20.0952 26.6863 24.0263 26.6671 30.6229C26.6575 37.8139 30.4736 40.2493 34.5102 40.2685ZM34.491 37.0085C32.5734 37.0085 31.1543 35.4648 31.1543 33.5472C31.1639 31.6392 32.6117 30.0859 34.5198 30.0859C36.4374 30.0859 37.8372 31.5913 37.8276 33.5376C37.8372 35.5032 36.4086 37.0085 34.491 37.0085Z" fill="black"/>
<path d="M6.84872 25.5H9.68963V23.5646C9.68963 22.1708 10.1513 21.0788 10.8171 20.0312L9.14808 19.0458C7.91406 20.049 6.84872 21.9577 6.84872 23.5824V25.5Z" fill="black"/>
<rect opacity="0.2" x="4" y="6" width="40" height="40" rx="4" fill="black"/>
<g opacity="0.4">
<path d="M10 4C10 2.89543 10.8954 2 12 2C13.1046 2 14 2.89543 14 4V8C14 9.10457 13.1046 10 12 10C10.8954 10 10 9.10457 10 8V4Z" fill="black"/>
<path d="M34 4C34 2.89543 34.8954 2 36 2C37.1046 2 38 2.89543 38 4V8C38 9.10457 37.1046 10 36 10C34.8954 10 34 9.10457 34 8V4Z" fill="black"/>
</g>
<path fill-rule="evenodd" clip-rule="evenodd" d="M10 6.00869C7.52043 6.04456 6.11466 6.22849 5.17157 7.17157C4 8.34315 4 10.2288 4 14V16H44V14C44 10.2288 44 8.34315 42.8284 7.17157C41.8853 6.22849 40.4796 6.04456 38 6.00869V8C38 9.10457 37.1046 10 36 10C34.8954 10 34 9.10457 34 8V6H14V8C14 9.10457 13.1046 10 12 10C10.8954 10 10 9.10457 10 8V6.00869Z" fill="black"/>
</svg>
