<svg width="48" height="48" viewBox="0 0 48 48" fill="none" xmlns="http://www.w3.org/2000/svg">
<path d="M19.6175 20.3636H15.7152L10.854 23.4414V27.1232L15.3508 24.3043H15.4659V40H19.6175V20.3636ZM31.3892 20.0952C26.9979 20.076 24.0352 22.9524 24.0544 26.9027C24.064 30.5653 26.6048 33.2212 30.0853 33.2212C32.2426 33.2212 34.1602 32.1761 35.0327 30.4503H35.1669C35.1574 34.343 33.8054 36.7113 31.2454 36.7113C29.7401 36.7113 28.6566 35.8867 28.3402 34.4581H24.2461C24.6297 37.766 27.3143 40.2685 31.2454 40.2685C36.1066 40.2685 39.2419 36.3374 39.2323 29.6737C39.2227 22.5593 35.4258 20.1143 31.3892 20.0952ZM31.418 23.3551C33.326 23.3551 34.7355 24.9084 34.7547 26.7781C34.7642 28.6573 33.2781 30.2106 31.3797 30.2106C29.462 30.2106 28.091 28.7148 28.0814 26.7876C28.0622 24.87 29.4908 23.3551 31.418 23.3551Z" fill="black"/>
<path d="M6.84872 25.5H9.68963V23.5646C9.68963 22.1708 10.1513 21.0788 10.8171 20.0312L9.14808 19.0458C7.91406 20.049 6.84872 21.9577 6.84872 23.5824V25.5Z" fill="black"/>
<rect opacity="0.2" x="4" y="6" width="40" height="40" rx="4" fill="black"/>
<g opacity="0.4">
<path d="M10 4C10 2.89543 10.8954 2 12 2C13.1046 2 14 2.89543 14 4V8C14 9.10457 13.1046 10 12 10C10.8954 10 10 9.10457 10 8V4Z" fill="black"/>
<path d="M34 4C34 2.89543 34.8954 2 36 2C37.1046 2 38 2.89543 38 4V8C38 9.10457 37.1046 10 36 10C34.8954 10 34 9.10457 34 8V4Z" fill="black"/>
</g>
<path fill-rule="evenodd" clip-rule="evenodd" d="M10 6.00869C7.52043 6.04456 6.11466 6.22849 5.17157 7.17157C4 8.34315 4 10.2288 4 14V16H44V14C44 10.2288 44 8.34315 42.8284 7.17157C41.8853 6.22849 40.4796 6.04456 38 6.00869V8C38 9.10457 37.1046 10 36 10C34.8954 10 34 9.10457 34 8V6H14V8C14 9.10457 13.1046 10 12 10C10.8954 10 10 9.10457 10 8V6.00869Z" fill="black"/>
</svg>
