<svg width="48" height="48" viewBox="0 0 48 48" fill="none" xmlns="http://www.w3.org/2000/svg">
<path d="M17.2313 40.4315C22.1691 40.4315 25.151 36.6729 25.1606 30.201C25.1702 23.777 22.1499 20.0952 17.2313 20.0952C12.303 20.0952 9.31152 23.7674 9.30194 30.201C9.28276 36.6538 12.2838 40.4219 17.2313 40.4315ZM17.2313 36.9893C14.9781 36.9893 13.5207 34.7266 13.5303 30.201C13.5399 25.7425 14.9877 23.4989 17.2313 23.4989C19.4653 23.4989 20.9227 25.7425 20.9227 30.201C20.9323 34.7266 19.4749 36.9893 17.2313 36.9893ZM28.3702 40H32.6561L40.8059 23.8058V20.3636H27.0279V23.7578H36.5105V23.892L28.3702 40Z" fill="black"/>
<path d="M6.84872 25.5H9.68963V23.5646C9.68963 22.1708 10.1513 21.0788 10.8171 20.0312L9.14808 19.0458C7.91406 20.049 6.84872 21.9577 6.84872 23.5824V25.5Z" fill="black"/>
<rect opacity="0.2" x="4" y="6" width="40" height="40" rx="4" fill="black"/>
<g opacity="0.4">
<path d="M10 4C10 2.89543 10.8954 2 12 2C13.1046 2 14 2.89543 14 4V8C14 9.10457 13.1046 10 12 10C10.8954 10 10 9.10457 10 8V4Z" fill="black"/>
<path d="M34 4C34 2.89543 34.8954 2 36 2C37.1046 2 38 2.89543 38 4V8C38 9.10457 37.1046 10 36 10C34.8954 10 34 9.10457 34 8V4Z" fill="black"/>
</g>
<path fill-rule="evenodd" clip-rule="evenodd" d="M10 6.00869C7.52043 6.04456 6.11466 6.22849 5.17157 7.17157C4 8.34315 4 10.2288 4 14V16H44V14C44 10.2288 44 8.34315 42.8284 7.17157C41.8853 6.22849 40.4796 6.04456 38 6.00869V8C38 9.10457 37.1046 10 36 10C34.8954 10 34 9.10457 34 8V6H14V8C14 9.10457 13.1046 10 12 10C10.8954 10 10 9.10457 10 8V6.00869Z" fill="black"/>
</svg>
