<svg width="48" height="48" viewBox="0 0 48 48" fill="none" xmlns="http://www.w3.org/2000/svg">
<path d="M15.847 40.4315C20.7848 40.4315 23.7667 36.6729 23.7763 30.201C23.7859 23.777 20.7657 20.0952 15.847 20.0952C10.9187 20.0952 7.92725 23.7674 7.91766 30.201C7.89848 36.6538 10.8995 40.4219 15.847 40.4315ZM15.847 36.9893C13.5938 36.9893 12.1364 34.7266 12.146 30.201C12.1556 25.7425 13.6034 23.4989 15.847 23.4989C18.081 23.4989 19.5384 25.7425 19.5384 30.201C19.548 34.7266 18.0906 36.9893 15.847 36.9893ZM26.4394 36.5483H35.8645V40H39.8339V36.5483H42.2693V33.2212H39.8339V20.3636H34.6372L26.4394 33.2788V36.5483ZM35.9412 33.2212H30.6198V33.0678L35.7878 24.8892H35.9412V33.2212Z" fill="black"/>
<path d="M6.84872 25.5H9.68963V23.5646C9.68963 22.1708 10.1513 21.0788 10.8171 20.0312L9.14808 19.0458C7.91406 20.049 6.84872 21.9577 6.84872 23.5824V25.5Z" fill="black"/>
<rect opacity="0.2" x="4" y="6" width="40" height="40" rx="4" fill="black"/>
<g opacity="0.4">
<path d="M10 4C10 2.89543 10.8954 2 12 2C13.1046 2 14 2.89543 14 4V8C14 9.10457 13.1046 10 12 10C10.8954 10 10 9.10457 10 8V4Z" fill="black"/>
<path d="M34 4C34 2.89543 34.8954 2 36 2C37.1046 2 38 2.89543 38 4V8C38 9.10457 37.1046 10 36 10C34.8954 10 34 9.10457 34 8V4Z" fill="black"/>
</g>
<path fill-rule="evenodd" clip-rule="evenodd" d="M10 6.00869C7.52043 6.04456 6.11466 6.22849 5.17157 7.17157C4 8.34315 4 10.2288 4 14V16H44V14C44 10.2288 44 8.34315 42.8284 7.17157C41.8853 6.22849 40.4796 6.04456 38 6.00869V8C38 9.10457 37.1046 10 36 10C34.8954 10 34 9.10457 34 8V6H14V8C14 9.10457 13.1046 10 12 10C10.8954 10 10 9.10457 10 8V6.00869Z" fill="black"/>
</svg>
