<svg width="48" height="48" viewBox="0 0 48 48" fill="none" xmlns="http://www.w3.org/2000/svg">
<rect opacity="0.2" x="5" y="5" width="38" height="38" rx="4" fill="black"/>
<path d="M5 13C5 9.22876 5 7.34315 6.17157 6.17157C7.34315 5 9.22876 5 13 5H35C38.7712 5 40.6569 5 41.8284 6.17157C43 7.34315 43 9.22876 43 13V15H5V13Z" fill="black"/>
<path d="M17.8013 35.2876C21.0932 35.2876 23.0811 32.782 23.0875 28.4673C23.0939 24.1847 21.0804 21.7301 17.8013 21.7301C14.5158 21.7301 12.5215 24.1783 12.5151 28.4673C12.5023 32.7692 14.503 35.2812 17.8013 35.2876ZM17.8013 32.9929C16.2992 32.9929 15.3276 31.4844 15.334 28.4673C15.3404 25.495 16.3056 23.9993 17.8013 23.9993C19.2907 23.9993 20.2623 25.495 20.2623 28.4673C20.2686 31.4844 19.2971 32.9929 17.8013 32.9929ZM30.1939 35.2876C33.4858 35.2876 35.4737 32.782 35.4801 28.4673C35.4865 24.1847 33.473 21.7301 30.1939 21.7301C26.9084 21.7301 24.9141 24.1783 24.9077 28.4673C24.8949 32.7692 26.8956 35.2812 30.1939 35.2876ZM30.1939 32.9929C28.6918 32.9929 27.7202 31.4844 27.7266 28.4673C27.733 25.495 28.6982 23.9993 30.1939 23.9993C31.6832 23.9993 32.6548 25.495 32.6548 28.4673C32.6612 31.4844 31.6896 32.9929 30.1939 32.9929Z" fill="black"/>
<path d="M8.31108 26H10.3565V24.6065C10.3565 23.603 10.6889 22.8168 11.1683 22.0625L9.96662 21.353C9.07812 22.0753 8.31108 23.4496 8.31108 24.6193V26Z" fill="black"/>
</svg>
