<svg width="48" height="48" viewBox="0 0 48 48" fill="none" xmlns="http://www.w3.org/2000/svg">
<g id="years/year-09">
<rect id="Rectangle 1" opacity="0.2" x="5" y="5" width="38" height="38" rx="4" fill="black"/>
<path id="Rectangle 2" d="M5 13C5 9.22876 5 7.34315 6.17157 6.17157C7.34315 5 9.22876 5 13 5H35C38.7712 5 40.6569 5 41.8284 6.17157C43 7.34315 43 9.22876 43 13V15H5V13Z" fill="black"/>
<path id="09" d="M18.0562 35.2876C21.3481 35.2876 23.336 32.782 23.3424 28.4673C23.3488 24.1847 21.3353 21.7301 18.0562 21.7301C14.7707 21.7301 12.7764 24.1783 12.77 28.4673C12.7572 32.7692 14.7579 35.2812 18.0562 35.2876ZM18.0562 32.9929C16.5541 32.9929 15.5825 31.4844 15.5889 28.4673C15.5953 25.495 16.5605 23.9993 18.0562 23.9993C19.5455 23.9993 20.5171 25.495 20.5171 28.4673C20.5235 31.4844 19.5519 32.9929 18.0562 32.9929ZM30.0525 21.7301C27.1249 21.7173 25.1498 23.6349 25.1626 26.2685C25.1689 28.7102 26.8628 30.4808 29.1832 30.4808C30.6214 30.4808 31.8998 29.7841 32.4814 28.6335H32.5709C32.5645 31.2287 31.6633 32.8075 29.9566 32.8075C28.953 32.8075 28.2307 32.2578 28.0198 31.3054H25.2904C25.5461 33.5107 27.3358 35.179 29.9566 35.179C33.1974 35.179 35.2876 32.5582 35.2812 28.1158C35.2748 23.3729 32.7435 21.7429 30.0525 21.7301ZM30.0716 23.9034C31.3437 23.9034 32.2833 24.9389 32.2961 26.1854C32.3025 27.4382 31.3117 28.4737 30.0461 28.4737C28.7677 28.4737 27.8536 27.4766 27.8472 26.1918C27.8344 24.9134 28.7868 23.9034 30.0716 23.9034Z" fill="black"/>
<path id="&#226;&#128;&#152;" d="M8.31108 26H10.3565V24.6065C10.3565 23.603 10.6889 22.8168 11.1683 22.0625L9.96662 21.353C9.07812 22.0753 8.31108 23.4496 8.31108 24.6193V26Z" fill="black"/>
</g>
</svg>
