<svg width="48" height="48" viewBox="0 0 48 48" fill="none" xmlns="http://www.w3.org/2000/svg">
<g id="years/year-18">
<rect id="Rectangle 1" opacity="0.2" x="5" y="5" width="38" height="38" rx="4" fill="black"/>
<path id="Rectangle 2" d="M5 13C5 9.22876 5 7.34315 6.17157 6.17157C7.34315 5 9.22876 5 13 5H35C38.7712 5 40.6569 5 41.8284 6.17157C43 7.34315 43 9.22876 43 13V15H5V13Z" fill="black"/>
<path id="18" d="M20.4029 21.9091H17.8013L14.5605 23.9609V26.4155L17.5584 24.5362H17.6351V35H20.4029V21.9091ZM28.3977 35.179C31.3509 35.179 33.473 33.6001 33.4794 31.478C33.473 29.8416 32.2138 28.5057 30.6413 28.2436V28.1541C32.0092 27.8729 32.9872 26.6903 32.9936 25.2521C32.9872 23.2259 31.044 21.7301 28.3977 21.7301C25.745 21.7301 23.8018 23.2259 23.8082 25.2521C23.8018 26.6839 24.767 27.8729 26.1605 28.1541V28.2436C24.5625 28.5057 23.3161 29.8416 23.3224 31.478C23.3161 33.6001 25.4446 35.179 28.3977 35.179ZM28.3977 33.1463C27.081 33.1463 26.1989 32.3665 26.1989 31.2607C26.1989 30.1293 27.1257 29.3111 28.3977 29.3111C29.6634 29.3111 30.5966 30.1293 30.5966 31.2607C30.5966 32.3729 29.7081 33.1463 28.3977 33.1463ZM28.3977 27.2976C27.2919 27.2976 26.5057 26.5753 26.5057 25.5398C26.5057 24.517 27.2791 23.8139 28.3977 23.8139C29.5099 23.8139 30.2898 24.5234 30.2898 25.5398C30.2898 26.5753 29.4972 27.2976 28.3977 27.2976Z" fill="black"/>
<path id="&#226;&#128;&#152;" d="M8.31108 26H10.3565V24.6065C10.3565 23.603 10.6889 22.8168 11.1683 22.0625L9.96662 21.353C9.07812 22.0753 8.31108 23.4496 8.31108 24.6193V26Z" fill="black"/>
</g>
</svg>
