<svg width="23" height="24" viewBox="0 0 23 24" fill="none" xmlns="http://www.w3.org/2000/svg">
<path d="M15.283 15.069C15.553 15.0691 15.8119 15.1765 16.0027 15.3675C16.1935 15.5585 16.3006 15.8175 16.3005 16.0875C16.3004 16.3575 16.193 16.6164 16.002 16.8072C15.811 16.998 15.552 17.1051 15.282 17.105C15.012 17.105 14.7531 16.9977 14.5622 16.8068C14.3713 16.6159 14.264 16.357 14.264 16.087C14.264 15.817 14.3713 15.5581 14.5622 15.3672C14.7531 15.1763 15.012 15.069 15.282 15.069H15.283ZM20.784 1.11C21.054 1.10987 21.313 1.21699 21.504 1.40781C21.695 1.59863 21.8024 1.85751 21.8025 2.1275C21.8026 2.39749 21.6955 2.65648 21.5047 2.84748C21.3139 3.03849 21.055 3.14587 20.785 3.146C20.515 3.146 20.2561 3.03875 20.0652 2.84783C19.8743 2.65692 19.767 2.39799 19.767 2.128C19.767 1.85801 19.8743 1.59908 20.0652 1.40817C20.2561 1.21725 20.515 1.11 20.785 1.11H20.784ZM2.779 3.107H18.895C19.0744 3.45358 19.3455 3.74422 19.6788 3.9472C20.0121 4.15018 20.3948 4.25769 20.785 4.258C21.959 4.258 22.914 3.303 22.914 2.128C22.9132 1.56352 22.6885 1.02241 22.2891 0.623448C21.8898 0.224485 21.3485 0.000264332 20.784 0C19.894 0 19.13 0.55 18.814 1.329H2.778C1.221 1.329 0 2.51 0 4.019V21.175C0 22.706 1.273 24 2.779 24H19.934C21.444 24 22.672 22.733 22.672 21.175V10.998C22.672 9.466 21.444 8.218 19.934 8.218H9.757C8.204 8.218 6.891 9.492 6.891 10.998V14.196C6.891 15.68 8.177 16.887 9.757 16.887H13.311C13.4705 17.2793 13.7433 17.6153 14.0945 17.852C14.4457 18.0887 14.8595 18.2154 15.283 18.216C16.457 18.216 17.412 17.26 17.412 16.086C17.412 14.912 16.457 13.957 15.282 13.957C14.8918 13.9576 14.5093 14.0653 14.1762 14.2685C13.8431 14.4716 13.5722 14.7624 13.393 15.109H9.757C9.234 15.109 8.669 14.76 8.669 14.196V10.998C8.669 10.474 9.188 9.998 9.757 9.998H19.934C20.472 9.998 20.894 10.437 20.894 10.998V21.175C20.894 21.742 20.454 22.222 19.934 22.222H2.779C2.246 22.222 1.779 21.732 1.779 21.175V4.02C1.779 3.5 2.209 3.108 2.779 3.108" fill="black"/>
</svg>
