<svg width="48" height="48" viewBox="0 0 48 48" fill="none" xmlns="http://www.w3.org/2000/svg">
<path d="M26.1414 11.6766C26.928 9.69731 27.3213 8.70764 28 8.70764C28.6787 8.70764 29.072 9.69731 29.8586 11.6766L31.2962 15.2939C31.6537 16.1934 31.8324 16.6432 32.2229 16.8049C32.6134 16.9667 33.0579 16.7751 33.9467 16.3918L37.521 14.8505C39.4769 14.0072 40.4548 13.5855 40.9346 14.0654C41.4145 14.5452 40.9928 15.5231 40.1495 17.479L38.6082 21.0533C38.2249 21.9421 38.0333 22.3866 38.1951 22.7771C38.3568 23.1676 38.8066 23.3463 39.7061 23.7038L43.3234 25.1414C45.3027 25.928 46.2924 26.3213 46.2924 27C46.2924 27.6787 45.3027 28.072 43.3234 28.8586L39.7061 30.2962C38.8066 30.6537 38.3568 30.8324 38.1951 31.2229C38.0333 31.6134 38.2249 32.0579 38.6082 32.9467L40.1495 36.521C40.9928 38.4769 41.4145 39.4548 40.9346 39.9346C40.4548 40.4145 39.4769 39.9928 37.521 39.1495L33.9467 37.6082C33.0579 37.2249 32.6134 37.0333 32.2229 37.1951C31.8324 37.3568 31.6537 37.8066 31.2962 38.7061L29.8586 42.3234C29.072 44.3027 28.6787 45.2924 28 45.2924C27.3213 45.2924 26.928 44.3027 26.1414 42.3234L24.7038 38.7061C24.3463 37.8066 24.1676 37.3568 23.7771 37.1951C23.3866 37.0333 22.9421 37.2249 22.0533 37.6082L18.479 39.1495C16.5231 39.9928 15.5452 40.4145 15.0654 39.9346C14.5855 39.4548 15.0072 38.4769 15.8505 36.521L17.3918 32.9467C17.7751 32.0579 17.9667 31.6134 17.8049 31.2229C17.6432 30.8324 17.1934 30.6537 16.2939 30.2962L12.6766 28.8586C10.6973 28.072 9.70764 27.6787 9.70764 27C9.70764 26.3213 10.6973 25.928 12.6766 25.1414L16.2939 23.7038C17.1934 23.3463 17.6432 23.1676 17.8049 22.7771C17.9667 22.3866 17.7751 21.9421 17.3918 21.0533L15.8505 17.479C15.0072 15.5231 14.5855 14.5452 15.0654 14.0654C15.5452 13.5855 16.5231 14.0072 18.479 14.8505L22.0533 16.3918C22.9421 16.7751 23.3866 16.9667 23.7771 16.8049C24.1676 16.6432 24.3463 16.1934 24.7038 15.2939L26.1414 11.6766Z" fill="#9FA4A9"/>
<path opacity="0.4" d="M18.2846 4.86191C19.0505 3.58402 19.4335 2.94507 20 2.94507C20.5665 2.94507 20.9495 3.58402 21.7154 4.86191L26.863 13.4498C26.9911 13.6635 27.0552 13.7704 27.1424 13.8576C27.2296 13.9448 27.3365 14.0089 27.5502 14.137L36.1381 19.2846C37.416 20.0505 38.0549 20.4335 38.0549 21C38.0549 21.5665 37.416 21.9495 36.1381 22.7154L27.5502 27.863C27.3365 27.9911 27.2296 28.0552 27.1424 28.1424C27.0552 28.2296 26.9911 28.3365 26.863 28.5502L21.7154 37.1381C20.9495 38.416 20.5665 39.0549 20 39.0549C19.4335 39.0549 19.0505 38.416 18.2846 37.1381L13.137 28.5502C13.0089 28.3365 12.9448 28.2296 12.8576 28.1424C12.7704 28.0552 12.6635 27.9911 12.4498 27.863L3.86191 22.7154C2.58402 21.9495 1.94507 21.5665 1.94507 21C1.94507 20.4335 2.58402 20.0505 3.86191 19.2846L12.4498 14.137C12.6635 14.0089 12.7704 13.9448 12.8576 13.8576C12.9448 13.7704 13.0089 13.6635 13.137 13.4498L18.2846 4.86191Z" fill="#9FA4A9"/>
</svg>
