<svg width="48" height="48" viewBox="0 0 48 48" fill="none" xmlns="http://www.w3.org/2000/svg">
<rect width="48" height="48" fill="white"/>
<path opacity="0.4" fill-rule="evenodd" clip-rule="evenodd" d="M24 46C36.1503 46 46 36.1503 46 24C46 11.8497 36.1503 2 24 2C11.8497 2 2 11.8497 2 24C2 36.1503 11.8497 46 24 46ZM25.4773 29.767H20.0938V29.2841C20.108 24.3125 21.4432 22.7926 23.8295 21.2869C25.5767 20.179 26.9261 18.9432 26.9261 17.0824C26.9261 15.108 25.3778 13.8295 23.4602 13.8295C21.5994 13.8295 19.8807 15.0653 19.7955 17.3807H14C14.1278 11.6989 18.3324 9 23.4886 9C29.1278 9 33.1335 11.8977 33.1335 16.8693C33.1335 20.2074 31.4006 22.2955 28.7443 23.8722C26.5 25.2216 25.5057 26.5142 25.4773 29.2841V29.767ZM26.3011 35.4489C26.2869 37.3381 24.7102 38.858 22.892 38.858C21.017 38.858 19.4688 37.3381 19.483 35.4489C19.4688 33.5881 21.017 32.0682 22.892 32.0682C24.7102 32.0682 26.2869 33.5881 26.3011 35.4489Z" fill="#9FA4A9"/>
</svg>
