<svg width="780" height="205" viewBox="0 0 780 205" fill="none" xmlns="http://www.w3.org/2000/svg">
<g id="Group 44">
<rect id="Rectangle 159" opacity="0.2" x="58.9836" y="39.002" width="127.277" height="127.277" rx="8" fill="black"/>
<path id="Subtract" opacity="0.4" fill-rule="evenodd" clip-rule="evenodd" d="M58.9836 77.6915L28.2561 69.4581C22.3075 67.8642 16.8642 73.3075 18.4581 79.256L50.5107 198.878C52.1046 204.826 59.5403 206.819 63.8949 202.464L100.08 166.279H66.9836C62.5653 166.279 58.9836 162.697 58.9836 158.279V77.6915Z" fill="black"/>
<path id="Subtract_2" opacity="0.8" fill-rule="evenodd" clip-rule="evenodd" d="M122.102 39.002H66.9836C62.5654 39.002 58.9836 42.5837 58.9836 47.002L58.9836 126.842L58.9836 77.6915L28.2561 69.4581C22.3075 67.8642 16.8642 73.3075 18.4581 79.256L28.4214 116.44C11.2919 105.067 0 85.6021 0 63.5C0 28.4299 28.4299 0 63.5 0C89.8867 0 112.514 16.0943 122.102 39.002Z" fill="black"/>
<g id="NOTION ICONS">
<path d="M148.913 72.7495H132.16V105.051H131.678L109.742 72.7495H95.5195V134.459H112.273V102.038H112.634L134.932 134.459H148.913V72.7495Z" fill="black"/>
<path d="M222.135 103.604C222.135 82.9943 208.877 71.9058 192.123 71.9058C175.249 71.9058 162.112 82.9943 162.112 103.604C162.112 124.094 175.249 135.303 192.123 135.303C208.877 135.303 222.135 124.215 222.135 103.604ZM204.899 103.604C204.899 114.693 200.44 120.719 192.123 120.719C183.807 120.719 179.347 114.693 179.347 103.604C179.347 92.5159 183.807 86.4896 192.123 86.4896C200.44 86.4896 204.899 92.5159 204.899 103.604Z" fill="black"/>
<path d="M230.814 86.2485H249.375V134.459H265.887V86.2485H284.449V72.7495H230.814V86.2485Z" fill="black"/>
<path d="M313.022 72.7495H296.269V134.459H313.022V72.7495Z" fill="black"/>
<path d="M386.259 103.604C386.259 82.9943 373.001 71.9058 356.247 71.9058C339.374 71.9058 326.236 82.9943 326.236 103.604C326.236 124.094 339.374 135.303 356.247 135.303C373.001 135.303 386.259 124.215 386.259 103.604ZM369.023 103.604C369.023 114.693 364.564 120.719 356.247 120.719C347.931 120.719 343.471 114.693 343.471 103.604C343.471 92.5159 347.931 86.4896 356.247 86.4896C364.564 86.4896 369.023 92.5159 369.023 103.604Z" fill="black"/>
<path d="M452.919 72.7495H436.166V105.051H435.684L413.748 72.7495H399.526V134.459H416.279V102.038H416.64L438.938 134.459H452.919V72.7495Z" fill="black"/>
<path d="M505.532 72.7495H488.779V134.459H505.532V72.7495Z" fill="black"/>
<path d="M576.599 95.8907C575.273 80.5837 564.064 71.9058 548.516 71.9058C531.883 71.9058 518.746 82.9943 518.746 103.604C518.746 124.124 531.522 135.303 548.516 135.303C566.595 135.303 575.755 122.768 576.599 112.282L559.604 112.162C558.761 117.435 555.025 120.719 548.878 120.719C540.712 120.719 535.981 114.934 535.981 103.604C535.981 92.8775 540.561 86.4896 548.998 86.4896C555.446 86.4896 559.122 90.2862 559.604 95.8907H576.599Z" fill="black"/>
<path d="M649.496 103.604C649.496 82.9943 636.238 71.9058 619.485 71.9058C602.611 71.9058 589.474 82.9943 589.474 103.604C589.474 124.094 602.611 135.303 619.485 135.303C636.238 135.303 649.496 124.215 649.496 103.604ZM632.261 103.604C632.261 114.693 627.801 120.719 619.485 120.719C611.169 120.719 606.709 114.693 606.709 103.604C606.709 92.5159 611.169 86.4896 619.485 86.4896C627.801 86.4896 632.261 92.5159 632.261 103.604Z" fill="black"/>
<path d="M716.157 72.7495H699.404V105.051H698.922L676.986 72.7495H662.763V134.459H679.517V102.038H679.878L702.176 134.459H716.157V72.7495Z" fill="black"/>
<path d="M762.862 92.0338H778.892C778.832 79.9208 769.491 71.9058 754.546 71.9058C739.872 71.9058 729.506 79.8003 729.597 91.5517C729.567 101.194 736.256 106.557 747.194 108.908L753.341 110.233C760.211 111.74 762.561 113.458 762.621 116.26C762.561 119.303 759.789 121.442 754.425 121.442C748.007 121.442 744.211 118.429 743.94 112.765H728.03C728.09 128.252 738.576 135.183 754.666 135.183C770.305 135.183 779.676 128.433 779.736 116.26C779.676 106.859 774.071 100.26 760.452 97.337L755.39 96.2523C749.544 95.0169 746.923 93.2994 747.073 90.3464C747.103 87.6346 749.363 85.6459 754.546 85.6459C759.97 85.6459 762.531 88.0263 762.862 92.0338Z" fill="black"/>
</g>
</g>
</svg>
