<svg width="48" height="48" viewBox="0 0 48 48" fill="none" xmlns="http://www.w3.org/2000/svg">
<path opacity="0.8" fill-rule="evenodd" clip-rule="evenodd" d="M22 4C20.8954 4 20 4.89543 20 6V8.50407C21.2785 8.17501 22.6188 8 24 8C25.3812 8 26.7215 8.17501 28 8.50407V6C28 4.89543 27.1046 4 26 4H22ZM32.1279 10.2153C34.4576 11.5919 36.4081 13.5424 37.7847 15.8721L39.5564 14.1005C40.3374 13.3195 40.3374 12.0531 39.5564 11.2721L36.7279 8.44365C35.9469 7.6626 34.6805 7.6626 33.8995 8.44365L32.1279 10.2153ZM39.4959 20C39.825 21.2785 40 22.6188 40 24C40 25.3812 39.825 26.7215 39.4959 28H42C43.1046 28 44 27.1046 44 26V22C44 20.8954 43.1046 20 42 20H39.4959ZM37.7847 32.1279C36.4081 34.4576 34.4576 36.4081 32.1279 37.7847L33.8995 39.5564C34.6805 40.3374 35.9469 40.3374 36.7279 39.5564L39.5563 36.7279C40.3374 35.9469 40.3374 34.6805 39.5563 33.8995L37.7847 32.1279ZM28 39.4959C26.7215 39.825 25.3812 40 24 40C22.6188 40 21.2785 39.825 20 39.4959V42C20 43.1046 20.8954 44 22 44H26C27.1046 44 28 43.1046 28 42V39.4959ZM15.8721 37.7847C13.5424 36.4081 11.5919 34.4576 10.2153 32.1279L8.44365 33.8995C7.6626 34.6805 7.6626 35.9469 8.44365 36.7279L11.2721 39.5564C12.0531 40.3374 13.3195 40.3374 14.1005 39.5563L15.8721 37.7847ZM8.50407 28C8.17501 26.7215 8 25.3812 8 24C8 22.6188 8.17501 21.2785 8.50407 20H6C4.89543 20 4 20.8954 4 22V26C4 27.1046 4.89543 28 6 28H8.50407ZM10.2153 15.8721C11.5919 13.5424 13.5424 11.5919 15.8721 10.2153L14.1005 8.44365C13.3195 7.6626 12.0531 7.6626 11.2721 8.44365L8.44365 11.2721C7.6626 12.0531 7.6626 13.3195 8.44365 14.1005L10.2153 15.8721Z" fill="#9FA4A9"/>
<path fill-rule="evenodd" clip-rule="evenodd" d="M24 35C30.0751 35 35 30.0751 35 24C35 17.9249 30.0751 13 24 13C17.9249 13 13 17.9249 13 24C13 30.0751 17.9249 35 24 35ZM24 40C32.8366 40 40 32.8366 40 24C40 15.1634 32.8366 8 24 8C15.1634 8 8 15.1634 8 24C8 32.8366 15.1634 40 24 40Z" fill="#9FA4A9"/>
<path opacity="0.4" fill-rule="evenodd" clip-rule="evenodd" d="M31.6813 31.8738C29.6988 33.8082 26.9886 35 24 35C25.9309 35 27.8278 34.4917 29.5 33.5263C30.2965 33.0664 31.0286 32.5106 31.6813 31.8738ZM31.9534 31.5989C32.557 30.9672 33.0857 30.2631 33.5263 29.5C33.9823 28.7101 34.3364 27.8701 34.583 27H25.7321L21.3066 34.6652C22.1834 34.8866 23.0879 35 24 35C17.9249 35 13 30.0751 13 24C13 25.9309 13.5083 27.8278 14.4737 29.5C14.9298 30.2899 15.4802 31.0165 16.1104 31.6652L20.5359 24L16.1104 16.3348C15.4802 16.9835 14.9298 17.7101 14.4737 18.5C13.5083 20.1722 13 22.0691 13 24C13 17.9249 17.9249 13 24 13C23.0879 13 22.1834 13.1134 21.3066 13.3348L25.7321 21H34.583C34.3364 20.1299 33.9823 19.2899 33.5263 18.5C33.0857 17.7369 32.557 17.0328 31.9534 16.4011C33.8408 18.376 35 21.0526 35 24C35 26.9474 33.8408 29.624 31.9534 31.5989ZM31.5978 16.0455C29.6231 14.1588 26.9469 13 24 13C25.9309 13 27.8278 13.5083 29.5 14.4737C30.2627 14.914 30.9664 15.4424 31.5978 16.0455Z" fill="#9FA4A9"/>
</svg>
