<svg width="143" height="41" viewBox="0 0 143 41" fill="none" xmlns="http://www.w3.org/2000/svg">
<path opacity="0.2" d="M0 8C0 3.58172 2.56093 0 5.72 0H137.28C140.439 0 143 3.58172 143 8V33C143 37.4183 140.439 41 137.28 41H5.72C2.56093 41 0 37.4183 0 33V8Z" fill="#66AADA"/>
<path d="M34 12.8675C33.0435 13.2691 32.0153 13.5405 30.9364 13.6625C32.0376 13.0377 32.8836 12.0482 33.2817 10.8692C32.251 11.4479 31.1094 11.8679 29.8943 12.0944C28.9214 11.113 27.5351 10.5 26.0008 10.5C23.055 10.5 20.6665 12.7606 20.6665 15.5489C20.6665 15.9446 20.7137 16.33 20.8047 16.6995C16.3715 16.489 12.441 14.4788 9.81008 11.4241C9.35092 12.1698 9.0878 13.0371 9.0878 13.9624C9.0878 15.7141 10.0295 17.2595 11.4608 18.1649C10.5864 18.1387 9.76393 17.9116 9.04477 17.5334C9.04416 17.5545 9.04416 17.5756 9.04416 17.5969C9.04416 20.0432 10.8829 22.0837 13.3231 22.5479C12.8755 22.6633 12.4043 22.7249 11.9178 22.7249C11.5741 22.7249 11.24 22.6932 10.9142 22.6344C11.5931 24.6402 13.563 26.1 15.8973 26.1406C14.0717 27.4949 11.7717 28.3021 9.27244 28.3021C8.84188 28.3021 8.4173 28.2781 8 28.2314C10.3607 29.6641 13.1645 30.5 16.1769 30.5C25.9884 30.5 31.3539 22.8065 31.3539 16.1342C31.3539 15.9153 31.3487 15.6976 31.3384 15.481C32.3805 14.7692 33.2848 13.8801 33.9999 12.8675H34Z" fill="#66AADA"/>
<path d="M52.0773 30.2713C53.8991 30.2713 55.6824 29.843 56.4814 29.3892L55.8486 27.5355C55.1647 27.8168 53.6945 28.1875 52.2243 28.1875C48.0567 28.1875 45.7939 25.9759 45.7812 21.9361C45.7939 18.2798 47.8778 15.5249 52.1285 15.5249C55.203 15.5249 58.0603 16.995 58.0539 21.0092C58.0603 23.5085 57.6001 24.6463 56.718 24.6463C56.2769 24.6463 56.0084 24.3139 56.002 23.7195V17.4808H54.0013V18.1967H53.9118C53.6945 17.6342 52.3394 17.1037 50.9012 17.321C49.1945 17.5703 47.3536 18.9702 47.3408 21.9361C47.3536 24.9467 49.0667 26.4872 51.0866 26.5959C52.5376 26.679 53.8415 26.0717 54.142 25.2983H54.2187C54.3593 26.1804 54.9474 26.7812 56.4303 26.6726C59.1917 26.5192 60.2464 24.2947 60.24 21.1562C60.2464 16.6115 57.2421 13.4666 52.1604 13.4666C46.6633 13.4666 43.512 16.8736 43.5056 22.0128C43.512 27.2351 46.6377 30.2713 52.0773 30.2713ZM51.7833 24.4929C50.115 24.4929 49.5525 23.2145 49.5461 21.8594C49.5525 20.402 50.3515 19.4496 51.7705 19.4496C53.3877 19.4496 53.8735 20.3061 53.8799 21.8402C53.8991 23.5788 53.3493 24.4929 51.7833 24.4929ZM66.5249 26.6918C68.9539 26.6918 70.5903 25.5092 70.9738 23.6875L68.4553 23.5213C68.1805 24.2692 67.4774 24.6591 66.5697 24.6591C65.2082 24.6591 64.3453 23.7578 64.3453 22.294V22.2876H71.0313V21.5398C71.0313 18.2031 69.0115 16.554 66.4163 16.554C63.5271 16.554 61.6542 18.6058 61.6542 21.6357C61.6542 24.7486 63.5015 26.6918 66.5249 26.6918ZM64.3453 20.6001C64.4028 19.4815 65.2529 18.5866 66.461 18.5866C67.6436 18.5866 68.4617 19.4304 68.4681 20.6001H64.3453ZM75.5313 13.4091H72.8083V26.5H75.5313V13.4091ZM77.7126 26.5H80.4356V16.6818H77.7126V26.5ZM79.0805 15.4162C79.8923 15.4162 80.5571 14.7962 80.5571 14.0355C80.5571 13.2812 79.8923 12.6612 79.0805 12.6612C78.2751 12.6612 77.6104 13.2812 77.6104 14.0355C77.6104 14.7962 78.2751 15.4162 79.0805 15.4162ZM84.5537 26.5H87.4301L89.1176 20.3253H89.2391L90.9266 26.5H93.8094L96.4749 16.6818H93.7263L92.2306 23.2401H92.1475L90.5367 16.6818H87.8328L86.2476 23.2784H86.1581L84.6368 16.6818H81.8818L84.5537 26.5ZM97.9275 26.5H100.65V16.6818H97.9275V26.5ZM99.2954 15.4162C100.107 15.4162 100.772 14.7962 100.772 14.0355C100.772 13.2812 100.107 12.6612 99.2954 12.6612C98.49 12.6612 97.8252 13.2812 97.8252 14.0355C97.8252 14.7962 98.49 15.4162 99.2954 15.4162ZM102.832 26.5H105.555V20.6065C105.555 19.5199 106.245 18.7976 107.153 18.7976C108.048 18.7976 108.649 19.4112 108.649 20.3764V26.5H111.288V20.5043C111.288 19.4879 111.87 18.7976 112.861 18.7976C113.73 18.7976 114.382 19.3409 114.382 20.4339V26.5H117.099V19.897C117.099 17.7685 115.833 16.554 114.005 16.554C112.567 16.554 111.448 17.2891 111.046 18.4141H110.943C110.63 17.2763 109.627 16.554 108.278 16.554C106.955 16.554 105.951 17.2571 105.542 18.4141H105.427V16.6818H102.832V26.5ZM119.25 26.5H121.973V20.6065C121.973 19.5199 122.663 18.7976 123.571 18.7976C124.466 18.7976 125.066 19.4112 125.066 20.3764V26.5H127.706V20.5043C127.706 19.4879 128.288 18.7976 129.279 18.7976C130.148 18.7976 130.8 19.3409 130.8 20.4339V26.5H133.517V19.897C133.517 17.7685 132.251 16.554 130.423 16.554C128.985 16.554 127.866 17.2891 127.464 18.4141H127.361C127.048 17.2763 126.044 16.554 124.696 16.554C123.373 16.554 122.369 17.2571 121.96 18.4141H121.845V16.6818H119.25V26.5Z" fill="#66AADA"/>
</svg>
